<?xml version="1.0" encoding="utf-8" standalone="no"?>
<!DOCTYPE svg PUBLIC "-//W3C//DTD SVG 1.1//EN"
  "http://www.w3.org/Graphics/SVG/1.1/DTD/svg11.dtd">
<!-- Created with matplotlib (https://matplotlib.org/) -->
<svg height="335.64825pt" version="1.1" viewBox="0 0 437.925 335.64825" width="437.925pt" xmlns="http://www.w3.org/2000/svg" xmlns:xlink="http://www.w3.org/1999/xlink">
 <defs>
  <style type="text/css">
*{stroke-linecap:butt;stroke-linejoin:round;}
  </style>
 </defs>
 <g id="figure_1">
  <g id="patch_1">
   <path d="M 0 335.64825 
L 437.925 335.64825 
L 437.925 0 
L 0 0 
z
" style="fill:#ffffff;"/>
  </g>
  <g id="axes_1">
   <g id="patch_2">
    <path d="M 73.605 273.312 
L 430.725 273.312 
L 430.725 7.2 
L 73.605 7.2 
z
" style="fill:#ffffff;"/>
   </g>
   <g id="matplotlib.axis_1">
    <g id="xtick_1">
     <g id="line2d_1">
      <defs>
       <path d="M 0 0 
L 0 -8 
" id="mc56a602a73" style="stroke:#000000;stroke-width:0.8;"/>
      </defs>
      <g>
       <use style="stroke:#000000;stroke-width:0.8;" x="81.721364" xlink:href="#mc56a602a73" y="273.312"/>
      </g>
     </g>
     <g id="text_1">
      <!-- 0.0 -->
      <defs>
       <path d="M 31.78125 3.421875 
Q 39.265625 3.421875 42.96875 11.625 
Q 46.6875 19.828125 46.6875 36.375 
Q 46.6875 52.984375 42.96875 61.1875 
Q 39.265625 69.390625 31.78125 69.390625 
Q 24.3125 69.390625 20.59375 61.1875 
Q 16.890625 52.984375 16.890625 36.375 
Q 16.890625 19.828125 20.59375 11.625 
Q 24.3125 3.421875 31.78125 3.421875 
z
M 31.78125 -1.421875 
Q 19.921875 -1.421875 13.25 8.53125 
Q 6.59375 18.5 6.59375 36.375 
Q 6.59375 54.296875 13.25 64.25 
Q 19.921875 74.21875 31.78125 74.21875 
Q 43.703125 74.21875 50.34375 64.25 
Q 56.984375 54.296875 56.984375 36.375 
Q 56.984375 18.5 50.34375 8.53125 
Q 43.703125 -1.421875 31.78125 -1.421875 
z
" id="DejaVuSerif-48"/>
       <path d="M 9.421875 5.078125 
Q 9.421875 7.8125 11.28125 9.71875 
Q 13.140625 11.625 15.921875 11.625 
Q 18.609375 11.625 20.5 9.71875 
Q 22.40625 7.8125 22.40625 5.078125 
Q 22.40625 2.390625 20.5 0.484375 
Q 18.609375 -1.421875 15.921875 -1.421875 
Q 13.140625 -1.421875 11.28125 0.453125 
Q 9.421875 2.34375 9.421875 5.078125 
z
" id="DejaVuSerif-46"/>
      </defs>
      <g transform="translate(65.818239 292.008875)scale(0.2 -0.2)">
       <use xlink:href="#DejaVuSerif-48"/>
       <use x="63.623047" xlink:href="#DejaVuSerif-46"/>
       <use x="95.410156" xlink:href="#DejaVuSerif-48"/>
      </g>
     </g>
    </g>
    <g id="xtick_2">
     <g id="line2d_2">
      <g>
       <use style="stroke:#000000;stroke-width:0.8;" x="162.885" xlink:href="#mc56a602a73" y="273.312"/>
      </g>
     </g>
     <g id="text_2">
      <!-- 0.1 -->
      <defs>
       <path d="M 14.203125 0 
L 14.203125 5.171875 
L 26.90625 5.171875 
L 26.90625 65.828125 
L 12.203125 56.296875 
L 12.203125 62.703125 
L 29.984375 74.21875 
L 36.71875 74.21875 
L 36.71875 5.171875 
L 49.421875 5.171875 
L 49.421875 0 
z
" id="DejaVuSerif-49"/>
      </defs>
      <g transform="translate(146.981875 292.008875)scale(0.2 -0.2)">
       <use xlink:href="#DejaVuSerif-48"/>
       <use x="63.623047" xlink:href="#DejaVuSerif-46"/>
       <use x="95.410156" xlink:href="#DejaVuSerif-49"/>
      </g>
     </g>
    </g>
    <g id="xtick_3">
     <g id="line2d_3">
      <g>
       <use style="stroke:#000000;stroke-width:0.8;" x="244.048636" xlink:href="#mc56a602a73" y="273.312"/>
      </g>
     </g>
     <g id="text_3">
      <!-- 0.2 -->
      <defs>
       <path d="M 12.796875 55.515625 
L 7.328125 55.515625 
L 7.328125 68.5 
Q 12.546875 71.296875 17.84375 72.75 
Q 23.140625 74.21875 28.21875 74.21875 
Q 39.59375 74.21875 46.1875 68.703125 
Q 52.78125 63.1875 52.78125 53.71875 
Q 52.78125 43.015625 37.84375 28.125 
Q 36.671875 27 36.078125 26.421875 
L 17.671875 8.015625 
L 48.09375 8.015625 
L 48.09375 17 
L 53.8125 17 
L 53.8125 0 
L 6.78125 0 
L 6.78125 5.328125 
L 28.90625 27.390625 
Q 36.234375 34.71875 39.359375 40.84375 
Q 42.484375 46.96875 42.484375 53.71875 
Q 42.484375 61.078125 38.640625 65.234375 
Q 34.8125 69.390625 28.078125 69.390625 
Q 21.09375 69.390625 17.28125 65.921875 
Q 13.484375 62.453125 12.796875 55.515625 
z
" id="DejaVuSerif-50"/>
      </defs>
      <g transform="translate(228.145511 292.008875)scale(0.2 -0.2)">
       <use xlink:href="#DejaVuSerif-48"/>
       <use x="63.623047" xlink:href="#DejaVuSerif-46"/>
       <use x="95.410156" xlink:href="#DejaVuSerif-50"/>
      </g>
     </g>
    </g>
    <g id="xtick_4">
     <g id="line2d_4">
      <g>
       <use style="stroke:#000000;stroke-width:0.8;" x="325.212273" xlink:href="#mc56a602a73" y="273.312"/>
      </g>
     </g>
     <g id="text_4">
      <!-- 0.3 -->
      <defs>
       <path d="M 9.71875 69.828125 
Q 15.4375 71.96875 20.671875 73.09375 
Q 25.921875 74.21875 30.515625 74.21875 
Q 41.21875 74.21875 47.21875 69.59375 
Q 53.21875 64.984375 53.21875 56.78125 
Q 53.21875 50.203125 49.0625 45.78125 
Q 44.921875 41.359375 37.3125 39.796875 
Q 46.296875 38.53125 51.25 33.28125 
Q 56.203125 28.03125 56.203125 19.671875 
Q 56.203125 9.46875 49.34375 4.015625 
Q 42.484375 -1.421875 29.59375 -1.421875 
Q 23.875 -1.421875 18.421875 -0.1875 
Q 12.984375 1.03125 7.625 3.515625 
L 7.625 17.671875 
L 13.09375 17.671875 
Q 13.578125 10.640625 17.828125 7.03125 
Q 22.078125 3.421875 29.78125 3.421875 
Q 37.25 3.421875 41.578125 7.734375 
Q 45.90625 12.0625 45.90625 19.578125 
Q 45.90625 28.171875 41.453125 32.59375 
Q 37.015625 37.015625 28.421875 37.015625 
L 23.78125 37.015625 
L 23.78125 42 
L 26.21875 42 
Q 34.765625 42 39.03125 45.53125 
Q 43.3125 49.078125 43.3125 56.203125 
Q 43.3125 62.59375 39.796875 65.984375 
Q 36.28125 69.390625 29.6875 69.390625 
Q 23.09375 69.390625 19.453125 66.265625 
Q 15.828125 63.140625 15.1875 56.984375 
L 9.71875 56.984375 
z
" id="DejaVuSerif-51"/>
      </defs>
      <g transform="translate(309.309148 292.008875)scale(0.2 -0.2)">
       <use xlink:href="#DejaVuSerif-48"/>
       <use x="63.623047" xlink:href="#DejaVuSerif-46"/>
       <use x="95.410156" xlink:href="#DejaVuSerif-51"/>
      </g>
     </g>
    </g>
    <g id="xtick_5">
     <g id="line2d_5">
      <g>
       <use style="stroke:#000000;stroke-width:0.8;" x="406.375909" xlink:href="#mc56a602a73" y="273.312"/>
      </g>
     </g>
     <g id="text_5">
      <!-- 0.4 -->
      <defs>
       <path d="M 34.90625 24.703125 
L 34.90625 63.484375 
L 10.015625 24.703125 
z
M 56.390625 0 
L 23.1875 0 
L 23.1875 5.171875 
L 34.90625 5.171875 
L 34.90625 19.484375 
L 3.078125 19.484375 
L 3.078125 24.8125 
L 35.015625 74.21875 
L 44.671875 74.21875 
L 44.671875 24.703125 
L 58.59375 24.703125 
L 58.59375 19.484375 
L 44.671875 19.484375 
L 44.671875 5.171875 
L 56.390625 5.171875 
z
" id="DejaVuSerif-52"/>
      </defs>
      <g transform="translate(390.472784 292.008875)scale(0.2 -0.2)">
       <use xlink:href="#DejaVuSerif-48"/>
       <use x="63.623047" xlink:href="#DejaVuSerif-46"/>
       <use x="95.410156" xlink:href="#DejaVuSerif-52"/>
      </g>
     </g>
    </g>
    <g id="text_6">
     <!-- Tunneling $J/U$ -->
     <defs>
      <path d="M 19.09375 0 
L 19.09375 5.171875 
L 28.421875 5.171875 
L 28.421875 67.09375 
L 6.984375 67.09375 
L 6.984375 55.71875 
L 0.984375 55.71875 
L 0.984375 72.90625 
L 65.71875 72.90625 
L 65.71875 55.71875 
L 59.71875 55.71875 
L 59.71875 67.09375 
L 38.28125 67.09375 
L 38.28125 5.171875 
L 47.609375 5.171875 
L 47.609375 0 
z
" id="DejaVuSerif-84"/>
      <path d="M 35.40625 51.90625 
L 52.203125 51.90625 
L 52.203125 5.171875 
L 60.6875 5.171875 
L 60.6875 0 
L 43.21875 0 
L 43.21875 9.1875 
Q 40.71875 4 36.765625 1.28125 
Q 32.8125 -1.421875 27.59375 -1.421875 
Q 18.953125 -1.421875 14.875 3.484375 
Q 10.796875 8.40625 10.796875 18.890625 
L 10.796875 46.6875 
L 2.6875 46.6875 
L 2.6875 51.90625 
L 19.828125 51.90625 
L 19.828125 21.6875 
Q 19.828125 12.203125 22.140625 8.6875 
Q 24.46875 5.171875 30.421875 5.171875 
Q 36.671875 5.171875 39.9375 9.765625 
Q 43.21875 14.359375 43.21875 23.09375 
L 43.21875 46.6875 
L 35.40625 46.6875 
z
" id="DejaVuSerif-117"/>
      <path d="M 4.109375 0 
L 4.109375 5.171875 
L 12.203125 5.171875 
L 12.203125 46.6875 
L 3.609375 46.6875 
L 3.609375 51.90625 
L 21.1875 51.90625 
L 21.1875 42.671875 
Q 23.6875 47.953125 27.65625 50.640625 
Q 31.640625 53.328125 36.921875 53.328125 
Q 45.515625 53.328125 49.5625 48.390625 
Q 53.609375 43.453125 53.609375 33.015625 
L 53.609375 5.171875 
L 61.625 5.171875 
L 61.625 0 
L 36.8125 0 
L 36.8125 5.171875 
L 44.578125 5.171875 
L 44.578125 30.171875 
Q 44.578125 39.703125 42.234375 43.234375 
Q 39.890625 46.78125 33.984375 46.78125 
Q 27.734375 46.78125 24.453125 42.203125 
Q 21.1875 37.640625 21.1875 28.90625 
L 21.1875 5.171875 
L 29 5.171875 
L 29 0 
z
" id="DejaVuSerif-110"/>
      <path d="M 54.203125 25 
L 15.484375 25 
L 15.484375 24.609375 
Q 15.484375 14.109375 19.4375 8.765625 
Q 23.390625 3.421875 31.109375 3.421875 
Q 37.015625 3.421875 40.796875 6.515625 
Q 44.578125 9.625 46.09375 15.71875 
L 53.328125 15.71875 
Q 51.171875 7.171875 45.375 2.875 
Q 39.59375 -1.421875 30.171875 -1.421875 
Q 18.796875 -1.421875 11.890625 6.078125 
Q 4.984375 13.578125 4.984375 25.984375 
Q 4.984375 38.28125 11.765625 45.796875 
Q 18.5625 53.328125 29.59375 53.328125 
Q 41.359375 53.328125 47.65625 46.0625 
Q 53.953125 38.8125 54.203125 25 
z
M 43.609375 30.171875 
Q 43.3125 39.265625 39.765625 43.875 
Q 36.234375 48.484375 29.59375 48.484375 
Q 23.390625 48.484375 19.828125 43.84375 
Q 16.265625 39.203125 15.484375 30.171875 
z
" id="DejaVuSerif-101"/>
      <path d="M 20.515625 5.171875 
L 29 5.171875 
L 29 0 
L 2.875 0 
L 2.875 5.171875 
L 11.53125 5.171875 
L 11.53125 70.796875 
L 2.875 70.796875 
L 2.875 75.984375 
L 20.515625 75.984375 
z
" id="DejaVuSerif-108"/>
      <path d="M 9.71875 68.015625 
Q 9.71875 70.265625 11.34375 71.921875 
Q 12.984375 73.578125 15.28125 73.578125 
Q 17.53125 73.578125 19.15625 71.921875 
Q 20.796875 70.265625 20.796875 68.015625 
Q 20.796875 65.71875 19.1875 64.109375 
Q 17.578125 62.5 15.28125 62.5 
Q 12.984375 62.5 11.34375 64.109375 
Q 9.71875 65.71875 9.71875 68.015625 
z
M 21.1875 5.171875 
L 29.6875 5.171875 
L 29.6875 0 
L 3.609375 0 
L 3.609375 5.171875 
L 12.203125 5.171875 
L 12.203125 46.6875 
L 3.609375 46.6875 
L 3.609375 51.90625 
L 21.1875 51.90625 
z
" id="DejaVuSerif-105"/>
      <path d="M 52.484375 46.6875 
L 52.484375 1.125 
Q 52.484375 -10.0625 46.328125 -16.140625 
Q 40.1875 -22.21875 28.8125 -22.21875 
Q 23.6875 -22.21875 19 -21.28125 
Q 14.3125 -20.359375 10.015625 -18.5 
L 10.015625 -7.625 
L 14.703125 -7.625 
Q 15.578125 -12.703125 18.84375 -15.046875 
Q 22.125 -17.390625 28.21875 -17.390625 
Q 36.140625 -17.390625 39.8125 -12.921875 
Q 43.5 -8.453125 43.5 1.125 
L 43.5 8.109375 
Q 40.875 3.21875 36.796875 0.890625 
Q 32.71875 -1.421875 26.703125 -1.421875 
Q 17.140625 -1.421875 11.0625 6.171875 
Q 4.984375 13.765625 4.984375 25.984375 
Q 4.984375 38.1875 11.03125 45.75 
Q 17.09375 53.328125 26.703125 53.328125 
Q 32.71875 53.328125 36.796875 51 
Q 40.875 48.6875 43.5 43.796875 
L 43.5 51.90625 
L 61.078125 51.90625 
L 61.078125 46.6875 
z
M 43.5 28.515625 
Q 43.5 37.84375 39.90625 42.765625 
Q 36.328125 47.703125 29.5 47.703125 
Q 22.5625 47.703125 19.015625 42.234375 
Q 15.484375 36.765625 15.484375 25.984375 
Q 15.484375 15.234375 19.015625 9.71875 
Q 22.5625 4.203125 29.5 4.203125 
Q 36.328125 4.203125 39.90625 9.109375 
Q 43.5 14.015625 43.5 23.390625 
z
" id="DejaVuSerif-103"/>
      <path id="DejaVuSerif-32"/>
      <path d="M 10.890625 6 
Q 11.859375 3.21875 14.5 1.796875 
Q 17.140625 0.390625 20.21875 0.390625 
Q 23.34375 0.390625 26.25 2.5625 
Q 29.15625 4.734375 31.171875 8 
Q 33.203125 11.28125 33.984375 14.5 
L 45.796875 61.8125 
Q 45.90625 62.203125 45.921875 62.390625 
Q 45.953125 62.59375 46 62.796875 
Q 46 63.875 45.21875 64.109375 
Q 42.578125 64.796875 34.515625 64.796875 
Q 33.5 64.796875 33.5 66.109375 
Q 33.6875 66.890625 33.8125 67.328125 
Q 33.9375 67.78125 34.25 68.046875 
Q 34.578125 68.3125 35.203125 68.3125 
L 62.3125 68.3125 
Q 63.28125 68.3125 63.28125 67 
Q 62.890625 64.796875 62.015625 64.796875 
Q 58.5 64.796875 56.6875 64.25 
Q 54.890625 63.71875 54.203125 61.375 
L 42.390625 14.109375 
Q 41.265625 9.46875 37.8125 5.734375 
Q 34.375 2 29.640625 -0.09375 
Q 24.90625 -2.203125 20.125 -2.203125 
Q 14.84375 -2.203125 10.859375 0.71875 
Q 6.890625 3.65625 6.890625 8.6875 
Q 6.890625 12.015625 8.6875 14.40625 
Q 10.5 16.796875 13.8125 16.796875 
Q 15.71875 16.796875 17.015625 15.625 
Q 18.3125 14.453125 18.3125 12.59375 
Q 18.3125 9.90625 16.3125 7.90625 
Q 14.3125 5.90625 11.625 5.90625 
Q 11.078125 5.90625 10.890625 6 
z
" id="Cmmi10-74"/>
      <path d="M 5.609375 -23 
Q 5.609375 -22.703125 5.71875 -22.609375 
L 40.484375 73.78125 
Q 40.671875 74.359375 41.15625 74.671875 
Q 41.65625 75 42.28125 75 
Q 43.171875 75 43.71875 74.453125 
Q 44.28125 73.921875 44.28125 73 
L 44.28125 72.609375 
L 9.515625 -23.78125 
Q 8.9375 -25 7.625 -25 
Q 6.78125 -25 6.1875 -24.40625 
Q 5.609375 -23.828125 5.609375 -23 
z
" id="Cmmi10-61"/>
      <path d="M 14.703125 13.921875 
Q 14.703125 10.25 16.140625 7.375 
Q 17.578125 4.5 20.3125 2.90625 
Q 23.046875 1.3125 26.703125 1.3125 
Q 31 1.3125 35.078125 3.0625 
Q 39.15625 4.828125 42.421875 7.953125 
Q 45.703125 11.078125 48.015625 15.078125 
Q 50.34375 19.09375 51.3125 23 
L 60.296875 59.078125 
Q 60.5 60.15625 60.5 60.59375 
Q 60.5 64.796875 52.78125 64.796875 
Q 51.8125 64.796875 51.8125 66.109375 
Q 52.15625 67.390625 52.34375 67.84375 
Q 52.546875 68.3125 53.515625 68.3125 
L 75.203125 68.3125 
Q 75.640625 68.3125 75.921875 67.875 
Q 76.21875 67.4375 76.21875 67 
Q 76.21875 66.9375 76.015625 66.234375 
Q 75.828125 65.53125 75.5625 65.15625 
Q 75.296875 64.796875 74.90625 64.796875 
Q 65.328125 64.796875 63.8125 58.6875 
L 54.78125 22.609375 
Q 53.65625 17.921875 51 13.5 
Q 48.34375 9.078125 44.453125 5.484375 
Q 40.578125 1.90625 35.90625 -0.140625 
Q 31.25 -2.203125 26.421875 -2.203125 
Q 20.90625 -2.203125 16.328125 0.21875 
Q 11.765625 2.640625 9.171875 6.984375 
Q 6.59375 11.328125 6.59375 17 
Q 6.59375 20.265625 7.328125 23 
L 17 61.8125 
Q 17.1875 62.796875 17.1875 63.1875 
Q 17.1875 64.265625 16.015625 64.40625 
Q 14.109375 64.796875 8.796875 64.796875 
Q 7.8125 64.796875 7.8125 66.109375 
Q 8.15625 67.390625 8.34375 67.84375 
Q 8.546875 68.3125 9.515625 68.3125 
L 36.375 68.3125 
Q 37.40625 68.3125 37.40625 67 
Q 37.359375 66.75 37.203125 66.15625 
Q 37.0625 65.578125 36.8125 65.1875 
Q 36.578125 64.796875 36.078125 64.796875 
Q 29.984375 64.796875 27.59375 64.109375 
Q 26.265625 63.625 25.6875 61.375 
L 16.015625 22.609375 
Q 14.703125 17.328125 14.703125 13.921875 
z
" id="Cmmi10-85"/>
     </defs>
     <g transform="translate(151.785 321.44825)scale(0.28 -0.28)">
      <use transform="translate(0 0.015625)" xlink:href="#DejaVuSerif-84"/>
      <use transform="translate(66.699219 0.015625)" xlink:href="#DejaVuSerif-117"/>
      <use transform="translate(131.103516 0.015625)" xlink:href="#DejaVuSerif-110"/>
      <use transform="translate(195.507812 0.015625)" xlink:href="#DejaVuSerif-110"/>
      <use transform="translate(259.912109 0.015625)" xlink:href="#DejaVuSerif-101"/>
      <use transform="translate(319.091797 0.015625)" xlink:href="#DejaVuSerif-108"/>
      <use transform="translate(351.074219 0.015625)" xlink:href="#DejaVuSerif-105"/>
      <use transform="translate(383.056641 0.015625)" xlink:href="#DejaVuSerif-110"/>
      <use transform="translate(447.460938 0.015625)" xlink:href="#DejaVuSerif-103"/>
      <use transform="translate(511.474609 0.015625)" xlink:href="#DejaVuSerif-32"/>
      <use transform="translate(543.261719 0.015625)" xlink:href="#Cmmi10-74"/>
      <use transform="translate(598.681641 0.015625)" xlink:href="#Cmmi10-61"/>
      <use transform="translate(648.681641 0.015625)" xlink:href="#Cmmi10-85"/>
     </g>
    </g>
   </g>
   <g id="matplotlib.axis_2">
    <g id="ytick_1">
     <g id="line2d_6">
      <defs>
       <path d="M 0 0 
L 8 0 
" id="me942af6a10" style="stroke:#000000;stroke-width:0.8;"/>
      </defs>
      <g>
       <use style="stroke:#000000;stroke-width:0.8;" x="73.605" xlink:href="#me942af6a10" y="261.216"/>
      </g>
     </g>
     <g id="text_7">
      <!-- 0.0 -->
      <g transform="translate(38.29875 268.814437)scale(0.2 -0.2)">
       <use xlink:href="#DejaVuSerif-48"/>
       <use x="63.623047" xlink:href="#DejaVuSerif-46"/>
       <use x="95.410156" xlink:href="#DejaVuSerif-48"/>
      </g>
     </g>
    </g>
    <g id="ytick_2">
     <g id="line2d_7">
      <g>
       <use style="stroke:#000000;stroke-width:0.8;" x="73.605" xlink:href="#me942af6a10" y="212.832"/>
      </g>
     </g>
     <g id="text_8">
      <!-- 0.2 -->
      <g transform="translate(38.29875 220.430437)scale(0.2 -0.2)">
       <use xlink:href="#DejaVuSerif-48"/>
       <use x="63.623047" xlink:href="#DejaVuSerif-46"/>
       <use x="95.410156" xlink:href="#DejaVuSerif-50"/>
      </g>
     </g>
    </g>
    <g id="ytick_3">
     <g id="line2d_8">
      <g>
       <use style="stroke:#000000;stroke-width:0.8;" x="73.605" xlink:href="#me942af6a10" y="164.448"/>
      </g>
     </g>
     <g id="text_9">
      <!-- 0.4 -->
      <g transform="translate(38.29875 172.046437)scale(0.2 -0.2)">
       <use xlink:href="#DejaVuSerif-48"/>
       <use x="63.623047" xlink:href="#DejaVuSerif-46"/>
       <use x="95.410156" xlink:href="#DejaVuSerif-52"/>
      </g>
     </g>
    </g>
    <g id="ytick_4">
     <g id="line2d_9">
      <g>
       <use style="stroke:#000000;stroke-width:0.8;" x="73.605" xlink:href="#me942af6a10" y="116.064"/>
      </g>
     </g>
     <g id="text_10">
      <!-- 0.6 -->
      <defs>
       <path d="M 32.71875 3.421875 
Q 39.59375 3.421875 43.296875 8.46875 
Q 47.015625 13.53125 47.015625 23 
Q 47.015625 32.46875 43.296875 37.515625 
Q 39.59375 42.578125 32.71875 42.578125 
Q 25.734375 42.578125 22.0625 37.6875 
Q 18.40625 32.8125 18.40625 23.578125 
Q 18.40625 13.875 22.109375 8.640625 
Q 25.828125 3.421875 32.71875 3.421875 
z
M 16.796875 40.140625 
Q 20.125 43.796875 24.3125 45.59375 
Q 28.515625 47.40625 33.796875 47.40625 
Q 44.671875 47.40625 51 40.859375 
Q 57.328125 34.328125 57.328125 23 
Q 57.328125 11.921875 50.515625 5.25 
Q 43.703125 -1.421875 32.328125 -1.421875 
Q 19.96875 -1.421875 13.328125 7.78125 
Q 6.6875 17 6.6875 34.078125 
Q 6.6875 53.21875 14.546875 63.71875 
Q 22.40625 74.21875 36.71875 74.21875 
Q 40.578125 74.21875 44.828125 73.484375 
Q 49.078125 72.75 53.515625 71.296875 
L 53.515625 59.28125 
L 48 59.28125 
Q 47.40625 64.203125 44.234375 66.796875 
Q 41.0625 69.390625 35.6875 69.390625 
Q 26.21875 69.390625 21.578125 62.203125 
Q 16.9375 55.03125 16.796875 40.140625 
z
" id="DejaVuSerif-54"/>
      </defs>
      <g transform="translate(38.29875 123.662437)scale(0.2 -0.2)">
       <use xlink:href="#DejaVuSerif-48"/>
       <use x="63.623047" xlink:href="#DejaVuSerif-46"/>
       <use x="95.410156" xlink:href="#DejaVuSerif-54"/>
      </g>
     </g>
    </g>
    <g id="ytick_5">
     <g id="line2d_10">
      <g>
       <use style="stroke:#000000;stroke-width:0.8;" x="73.605" xlink:href="#me942af6a10" y="67.68"/>
      </g>
     </g>
     <g id="text_11">
      <!-- 0.8 -->
      <defs>
       <path d="M 46.578125 19.921875 
Q 46.578125 27.734375 42.6875 32.046875 
Q 38.8125 36.375 31.78125 36.375 
Q 24.75 36.375 20.875 32.046875 
Q 17 27.734375 17 19.921875 
Q 17 12.0625 20.875 7.734375 
Q 24.75 3.421875 31.78125 3.421875 
Q 38.8125 3.421875 42.6875 7.734375 
Q 46.578125 12.0625 46.578125 19.921875 
z
M 44.578125 55.328125 
Q 44.578125 61.96875 41.203125 65.671875 
Q 37.84375 69.390625 31.78125 69.390625 
Q 25.78125 69.390625 22.390625 65.671875 
Q 19 61.96875 19 55.328125 
Q 19 48.640625 22.390625 44.921875 
Q 25.78125 41.21875 31.78125 41.21875 
Q 37.84375 41.21875 41.203125 44.921875 
Q 44.578125 48.640625 44.578125 55.328125 
z
M 39.3125 38.8125 
Q 47.609375 37.703125 52.25 32.6875 
Q 56.890625 27.6875 56.890625 19.921875 
Q 56.890625 9.671875 50.390625 4.125 
Q 43.890625 -1.421875 31.78125 -1.421875 
Q 19.734375 -1.421875 13.203125 4.125 
Q 6.6875 9.671875 6.6875 19.921875 
Q 6.6875 27.6875 11.328125 32.6875 
Q 15.96875 37.703125 24.3125 38.8125 
Q 16.9375 40.140625 13 44.40625 
Q 9.078125 48.6875 9.078125 55.328125 
Q 9.078125 64.109375 15.125 69.15625 
Q 21.1875 74.21875 31.78125 74.21875 
Q 42.390625 74.21875 48.4375 69.15625 
Q 54.5 64.109375 54.5 55.328125 
Q 54.5 48.6875 50.5625 44.40625 
Q 46.625 40.140625 39.3125 38.8125 
z
" id="DejaVuSerif-56"/>
      </defs>
      <g transform="translate(38.29875 75.278437)scale(0.2 -0.2)">
       <use xlink:href="#DejaVuSerif-48"/>
       <use x="63.623047" xlink:href="#DejaVuSerif-46"/>
       <use x="95.410156" xlink:href="#DejaVuSerif-56"/>
      </g>
     </g>
    </g>
    <g id="ytick_6">
     <g id="line2d_11">
      <g>
       <use style="stroke:#000000;stroke-width:0.8;" x="73.605" xlink:href="#me942af6a10" y="19.296"/>
      </g>
     </g>
     <g id="text_12">
      <!-- 1.0 -->
      <g transform="translate(38.29875 26.894437)scale(0.2 -0.2)">
       <use xlink:href="#DejaVuSerif-49"/>
       <use x="63.623047" xlink:href="#DejaVuSerif-46"/>
       <use x="95.410156" xlink:href="#DejaVuSerif-48"/>
      </g>
     </g>
    </g>
    <g id="text_13">
     <!-- Pnorm -->
     <defs>
      <path d="M 24.703125 37.109375 
L 37.59375 37.109375 
Q 44.875 37.109375 48.671875 41.03125 
Q 52.484375 44.96875 52.484375 52.390625 
Q 52.484375 59.859375 48.671875 63.765625 
Q 44.875 67.671875 37.59375 67.671875 
L 24.703125 67.671875 
z
M 5.515625 0 
L 5.515625 5.171875 
L 14.796875 5.171875 
L 14.796875 67.671875 
L 5.515625 67.671875 
L 5.515625 72.90625 
L 39.984375 72.90625 
Q 50.921875 72.90625 57.3125 67.359375 
Q 63.71875 61.8125 63.71875 52.390625 
Q 63.71875 43.015625 57.3125 37.453125 
Q 50.921875 31.890625 39.984375 31.890625 
L 24.703125 31.890625 
L 24.703125 5.171875 
L 35.984375 5.171875 
L 35.984375 0 
z
" id="DejaVuSerif-80"/>
      <path d="M 30.078125 3.421875 
Q 37.3125 3.421875 40.984375 9.125 
Q 44.671875 14.84375 44.671875 25.984375 
Q 44.671875 37.109375 40.984375 42.796875 
Q 37.3125 48.484375 30.078125 48.484375 
Q 22.859375 48.484375 19.171875 42.796875 
Q 15.484375 37.109375 15.484375 25.984375 
Q 15.484375 14.84375 19.1875 9.125 
Q 22.90625 3.421875 30.078125 3.421875 
z
M 30.078125 -1.421875 
Q 18.75 -1.421875 11.859375 6.078125 
Q 4.984375 13.578125 4.984375 25.984375 
Q 4.984375 38.375 11.84375 45.84375 
Q 18.703125 53.328125 30.078125 53.328125 
Q 41.453125 53.328125 48.3125 45.84375 
Q 55.171875 38.375 55.171875 25.984375 
Q 55.171875 13.578125 48.3125 6.078125 
Q 41.453125 -1.421875 30.078125 -1.421875 
z
" id="DejaVuSerif-111"/>
      <path d="M 47.796875 52 
L 47.796875 39.015625 
L 42.625 39.015625 
Q 42.390625 42.875 40.484375 44.78125 
Q 38.578125 46.6875 34.90625 46.6875 
Q 28.265625 46.6875 24.71875 42.09375 
Q 21.1875 37.5 21.1875 28.90625 
L 21.1875 5.171875 
L 31.59375 5.171875 
L 31.59375 0 
L 4.109375 0 
L 4.109375 5.171875 
L 12.203125 5.171875 
L 12.203125 46.78125 
L 3.609375 46.78125 
L 3.609375 51.90625 
L 21.1875 51.90625 
L 21.1875 42.671875 
Q 23.828125 48.09375 27.96875 50.703125 
Q 32.125 53.328125 38.09375 53.328125 
Q 40.28125 53.328125 42.703125 52.984375 
Q 45.125 52.640625 47.796875 52 
z
" id="DejaVuSerif-114"/>
      <path d="M 51.8125 41.796875 
Q 54.390625 47.515625 58.421875 50.421875 
Q 62.453125 53.328125 67.828125 53.328125 
Q 75.984375 53.328125 79.984375 48.265625 
Q 83.984375 43.21875 83.984375 33.015625 
L 83.984375 5.171875 
L 92.09375 5.171875 
L 92.09375 0 
L 67.1875 0 
L 67.1875 5.171875 
L 75 5.171875 
L 75 31.984375 
Q 75 39.9375 72.65625 43.3125 
Q 70.3125 46.6875 64.890625 46.6875 
Q 58.890625 46.6875 55.734375 42.140625 
Q 52.59375 37.59375 52.59375 28.90625 
L 52.59375 5.171875 
L 60.40625 5.171875 
L 60.40625 0 
L 35.796875 0 
L 35.796875 5.171875 
L 43.609375 5.171875 
L 43.609375 32.328125 
Q 43.609375 40.09375 41.265625 43.390625 
Q 38.921875 46.6875 33.5 46.6875 
Q 27.484375 46.6875 24.328125 42.140625 
Q 21.1875 37.59375 21.1875 28.90625 
L 21.1875 5.171875 
L 29 5.171875 
L 29 0 
L 4.109375 0 
L 4.109375 5.171875 
L 12.203125 5.171875 
L 12.203125 46.78125 
L 3.609375 46.78125 
L 3.609375 51.90625 
L 21.1875 51.90625 
L 21.1875 42.671875 
Q 23.6875 47.859375 27.53125 50.59375 
Q 31.390625 53.328125 36.28125 53.328125 
Q 42.328125 53.328125 46.375 50.3125 
Q 50.4375 47.3125 51.8125 41.796875 
z
" id="DejaVuSerif-109"/>
     </defs>
     <g transform="translate(28.475625 187.088187)rotate(-90)scale(0.28 -0.28)">
      <use xlink:href="#DejaVuSerif-80"/>
      <use x="67.285156" xlink:href="#DejaVuSerif-110"/>
      <use x="131.689453" xlink:href="#DejaVuSerif-111"/>
      <use x="191.894531" xlink:href="#DejaVuSerif-114"/>
      <use x="239.697266" xlink:href="#DejaVuSerif-109"/>
     </g>
    </g>
   </g>
   <g id="line2d_12">
    <path clip-path="url(#pe2e582f9e7)" d="M 89.837727 261.14556 
L 97.954091 261.128068 
L 106.070455 261.118455 
L 114.186818 261.116722 
L 122.303182 261.124758 
L 130.419545 261.146348 
L 138.535909 261.186374 
L 146.652273 261.216 
L 154.768636 261.143196 
L 162.885 261.04045 
L 171.001364 260.927777 
L 179.117727 260.803914 
L 187.234091 260.668864 
L 195.350455 260.504344 
L 203.466818 260.250947 
L 211.583182 259.863602 
L 219.699545 258.853305 
L 227.815909 257.221209 
L 235.932273 254.223461 
L 244.048636 249.271022 
L 252.165 243.018504 
L 260.281364 234.280863 
L 268.397727 221.158722 
L 276.514091 210.635637 
L 284.630455 194.006431 
L 292.746818 177.559394 
L 300.863182 166.458444 
L 308.979545 148.65176 
L 317.095909 131.193654 
L 325.212273 122.651577 
L 333.328636 111.743826 
L 341.445 97.563341 
L 349.561364 84.248315 
L 357.677727 71.482947 
L 365.794091 59.5542 
L 373.910455 48.862972 
L 382.026818 43.482374 
L 390.143182 38.497631 
L 398.259545 33.861939 
L 406.375909 27.49202 
L 414.492273 19.296 
" style="fill:none;stroke:#e41a1c;stroke-dasharray:14.8,6.4;stroke-dashoffset:0;stroke-opacity:0.7;stroke-width:4;"/>
   </g>
   <g id="line2d_13">
    <path clip-path="url(#pe2e582f9e7)" d="M 89.837727 261.172229 
L 97.954091 261.161378 
L 106.070455 261.155493 
L 114.186818 261.154389 
L 122.303182 261.159539 
L 130.419545 261.172964 
L 138.535909 261.197793 
L 146.652273 261.216 
L 154.768636 261.171309 
L 162.885 261.108411 
L 171.001364 261.039627 
L 179.117727 260.965694 
L 187.234091 260.887899 
L 195.350455 260.808632 
L 203.466818 260.727151 
L 211.583182 260.637962 
L 219.699545 260.46651 
L 227.815909 260.001493 
L 235.932273 259.044057 
L 244.048636 256.966981 
L 252.165 252.86653 
L 260.281364 246.545437 
L 268.397727 237.390612 
L 276.514091 227.042375 
L 284.630455 210.885059 
L 292.746818 197.871186 
L 300.863182 181.690513 
L 308.979545 167.25444 
L 317.095909 149.146174 
L 325.212273 140.657114 
L 333.328636 124.535662 
L 341.445 109.124297 
L 349.561364 94.721145 
L 357.677727 87.582007 
L 365.794091 80.835523 
L 373.910455 69.21332 
L 382.026818 58.110855 
L 390.143182 47.609051 
L 398.259545 37.67517 
L 406.375909 28.254038 
L 414.492273 19.296 
" style="fill:none;stroke:#e41a1c;stroke-dasharray:14.8,6.4;stroke-dashoffset:0;stroke-opacity:0.7;stroke-width:4;"/>
   </g>
   <g id="line2d_14">
    <path clip-path="url(#pe2e582f9e7)" d="M 89.837727 261.184241 
L 97.954091 261.176193 
L 106.070455 261.171842 
L 114.186818 261.170972 
L 122.303182 261.17467 
L 130.419545 261.184676 
L 138.535909 261.202948 
L 146.652273 261.216 
L 154.768636 261.183588 
L 162.885 261.13769 
L 171.001364 261.088094 
L 179.117727 261.034365 
L 187.234091 260.978678 
L 195.350455 260.922121 
L 203.466818 260.864911 
L 211.583182 260.811616 
L 219.699545 260.780836 
L 227.815909 260.737169 
L 235.932273 260.371108 
L 244.048636 259.387432 
L 252.165 256.981374 
L 260.281364 252.952661 
L 268.397727 246.077429 
L 276.514091 235.497135 
L 284.630455 221.992626 
L 292.746818 205.644822 
L 300.863182 190.056405 
L 308.979545 175.624796 
L 317.095909 155.917941 
L 325.212273 144.296128 
L 333.328636 126.463268 
L 341.445 111.164814 
L 349.561364 103.374086 
L 357.677727 88.642725 
L 365.794091 74.794524 
L 373.910455 61.760526 
L 382.026818 49.469817 
L 390.143182 42.548545 
L 398.259545 36.464315 
L 406.375909 29.254819 
L 414.492273 19.296 
" style="fill:none;stroke:#e41a1c;stroke-dasharray:14.8,6.4;stroke-dashoffset:0;stroke-opacity:0.7;stroke-width:4;"/>
   </g>
   <g id="line2d_15">
    <path clip-path="url(#pe2e582f9e7)" d="M 89.837727 261.192417 
L 97.954091 261.186757 
L 106.070455 261.183456 
L 114.186818 261.182748 
L 122.303182 261.185578 
L 130.419545 261.192889 
L 138.535909 261.206095 
L 146.652273 261.216 
L 154.768636 261.191946 
L 162.885 261.158458 
L 171.001364 261.12214 
L 179.117727 261.082993 
L 187.234091 261.042666 
L 195.350455 261.001396 
L 203.466818 260.960362 
L 211.583182 260.924988 
L 219.699545 260.902344 
L 227.815909 260.905703 
L 235.932273 260.874814 
L 244.048636 260.367957 
L 252.165 258.806776 
L 260.281364 255.817654 
L 268.397727 250.514818 
L 276.514091 242.345337 
L 284.630455 231.06983 
L 292.746818 217.621956 
L 300.863182 201.931119 
L 308.979545 185.295554 
L 317.095909 166.479519 
L 325.212273 153.206158 
L 333.328636 134.901636 
L 341.445 125.161926 
L 349.561364 109.174181 
L 357.677727 94.075745 
L 365.794091 82.341399 
L 373.910455 75.020345 
L 382.026818 63.504612 
L 390.143182 51.635845 
L 398.259545 40.349809 
L 406.375909 29.591085 
L 414.492273 19.296 
" style="fill:none;stroke:#e41a1c;stroke-dasharray:14.8,6.4;stroke-dashoffset:0;stroke-opacity:0.7;stroke-width:4;"/>
   </g>
   <g id="line2d_16">
    <path clip-path="url(#pe2e582f9e7)" d="M 89.837727 261.197053 
L 97.954091 261.192316 
L 106.070455 261.189948 
L 114.186818 261.189421 
L 122.303182 261.191526 
L 130.419545 261.197316 
L 138.535909 261.208105 
L 146.652273 261.216 
L 154.768636 261.19679 
L 162.885 261.169948 
L 171.001364 261.140474 
L 179.117727 261.109159 
L 187.234091 261.07679 
L 195.350455 261.043896 
L 203.466818 261.013633 
L 211.583182 260.98337 
L 219.699545 260.966002 
L 227.815909 260.971488 
L 235.932273 261.064879 
L 244.048636 260.723635 
L 252.165 259.684957 
L 260.281364 257.421814 
L 268.397727 252.69395 
L 276.514091 245.885047 
L 284.630455 235.451033 
L 292.746818 222.465463 
L 300.863182 205.270576 
L 308.979545 188.243318 
L 317.095909 170.870537 
L 325.212273 155.724057 
L 333.328636 139.049166 
L 341.445 124.542682 
L 349.561364 107.361741 
L 357.677727 97.295228 
L 365.794091 84.26926 
L 373.910455 70.036195 
L 382.026818 56.522862 
L 390.143182 46.116614 
L 398.259545 39.051397 
L 406.375909 30.295139 
L 414.492273 19.296 
" style="fill:none;stroke:#e41a1c;stroke-dasharray:14.8,6.4;stroke-dashoffset:0;stroke-opacity:0.7;stroke-width:4;"/>
   </g>
   <g id="line2d_17">
    <path clip-path="url(#pe2e582f9e7)" d="M 89.837727 261.20073 
L 97.954091 261.197121 
L 106.070455 261.1949 
L 114.186818 261.194622 
L 122.303182 261.196288 
L 130.419545 261.201008 
L 138.535909 261.209892 
L 146.652273 261.216 
L 154.768636 261.20073 
L 162.885 261.179074 
L 171.001364 261.155753 
L 179.117727 261.130765 
L 187.234091 261.105223 
L 195.350455 261.079403 
L 203.466818 261.055248 
L 211.583182 261.031371 
L 219.699545 261.018322 
L 227.815909 261.048029 
L 235.932273 261.111006 
L 244.048636 260.884779 
L 252.165 260.099621 
L 260.281364 258.29137 
L 268.397727 254.739002 
L 276.514091 248.221191 
L 284.630455 238.813176 
L 292.746818 227.313688 
L 300.863182 213.454907 
L 308.979545 195.549251 
L 317.095909 178.180824 
L 325.212273 162.147831 
L 333.328636 147.58465 
L 341.445 129.610141 
L 349.561364 116.964877 
L 357.677727 102.668783 
L 365.794091 87.370974 
L 373.910455 75.830706 
L 382.026818 67.509364 
L 390.143182 54.59396 
L 398.259545 42.266035 
L 406.375909 30.466177 
L 414.492273 19.296 
" style="fill:none;stroke:#e41a1c;stroke-dasharray:14.8,6.4;stroke-dashoffset:0;stroke-opacity:0.7;stroke-width:4;"/>
   </g>
   <g id="line2d_18">
    <path clip-path="url(#pe2e582f9e7)" d="M 89.837727 261.210637 
L 97.954091 261.216 
L 106.070455 261.214659 
L 114.186818 261.209743 
L 122.303182 261.209743 
L 130.419545 261.211084 
L 138.535909 261.213319 
L 146.652273 261.214659 
L 154.768636 261.211084 
L 162.885 261.205721 
L 171.001364 261.200359 
L 179.117727 261.193655 
L 187.234091 261.187846 
L 195.350455 261.181589 
L 203.466818 261.176673 
L 211.583182 261.172651 
L 219.699545 261.172204 
L 227.815909 261.181142 
L 235.932273 261.204828 
L 244.048636 261.216 
L 252.165 261.209743 
L 260.281364 261.149859 
L 268.397727 260.737374 
L 276.514091 258.779076 
L 284.630455 252.965853 
L 292.746818 241.803285 
L 300.863182 228.140333 
L 308.979545 211.658809 
L 317.095909 194.809489 
L 325.212273 177.647788 
L 333.328636 161.44602 
L 341.445 145.3095 
L 349.561364 129.809348 
L 357.677727 115.249487 
L 365.794091 102.238788 
L 373.910455 87.565803 
L 382.026818 72.339427 
L 390.143182 58.601397 
L 398.259545 44.416471 
L 406.375909 29.896373 
L 414.492273 19.296 
" style="fill:none;stroke:#377eb8;stroke-dasharray:14.8,6.4;stroke-dashoffset:0;stroke-opacity:0.7;stroke-width:4;"/>
   </g>
   <g id="line2d_19">
    <path clip-path="url(#pe2e582f9e7)" d="M 89.837727 261.216 
L 97.954091 261.215481 
L 106.070455 261.214443 
L 114.186818 261.212367 
L 122.303182 261.212367 
L 130.419545 261.213405 
L 138.535909 261.213924 
L 146.652273 261.215481 
L 154.768636 261.212886 
L 162.885 261.21081 
L 171.001364 261.207696 
L 179.117727 261.204582 
L 187.234091 261.201468 
L 195.350455 261.198354 
L 203.466818 261.195759 
L 211.583182 261.193683 
L 219.699545 261.194202 
L 227.815909 261.198873 
L 235.932273 261.211329 
L 244.048636 261.216 
L 252.165 261.216 
L 260.281364 261.211848 
L 268.397727 261.154758 
L 276.514091 260.612926 
L 284.630455 257.616757 
L 292.746818 248.808861 
L 300.863182 233.847739 
L 308.979545 216.410483 
L 317.095909 198.24248 
L 325.212273 180.168934 
L 333.328636 161.507364 
L 341.445 144.991846 
L 349.561364 128.655383 
L 357.677727 112.052155 
L 365.794091 96.466679 
L 373.910455 82.157932 
L 382.026818 68.501053 
L 390.143182 55.879569 
L 398.259545 42.85171 
L 406.375909 29.688393 
L 414.492273 19.296 
" style="fill:none;stroke:#377eb8;stroke-dasharray:14.8,6.4;stroke-dashoffset:0;stroke-opacity:0.7;stroke-width:4;"/>
   </g>
   <g id="line2d_20">
    <path clip-path="url(#pe2e582f9e7)" d="M 89.837727 261.216 
L 97.954091 261.216 
L 106.070455 261.215455 
L 114.186818 261.21382 
L 122.303182 261.21382 
L 130.419545 261.214365 
L 138.535909 261.21491 
L 146.652273 261.215455 
L 154.768636 261.214365 
L 162.885 261.21273 
L 171.001364 261.211096 
L 179.117727 261.209461 
L 187.234091 261.207281 
L 195.350455 261.205646 
L 203.466818 261.204012 
L 211.583182 261.202922 
L 219.699545 261.202922 
L 227.815909 261.206191 
L 235.932273 261.21382 
L 244.048636 261.216 
L 252.165 261.216 
L 260.281364 261.215455 
L 268.397727 261.207826 
L 276.514091 261.06015 
L 284.630455 259.65859 
L 292.746818 253.323235 
L 300.863182 239.645494 
L 308.979545 221.495514 
L 317.095909 202.931931 
L 325.212273 184.225032 
L 333.328636 165.769891 
L 341.445 148.820936 
L 349.561364 131.404431 
L 357.677727 115.299027 
L 365.794091 100.450777 
L 373.910455 85.127893 
L 382.026818 71.450697 
L 390.143182 57.985479 
L 398.259545 44.560586 
L 406.375909 31.14986 
L 414.492273 19.296 
" style="fill:none;stroke:#377eb8;stroke-dasharray:14.8,6.4;stroke-dashoffset:0;stroke-opacity:0.7;stroke-width:4;"/>
   </g>
   <g id="line2d_21">
    <path clip-path="url(#pe2e582f9e7)" d="M 89.837727 261.216 
L 97.954091 261.216 
L 106.070455 261.214876 
L 114.186818 261.214876 
L 122.303182 261.214876 
L 130.419545 261.214876 
L 138.535909 261.214876 
L 146.652273 261.215438 
L 154.768636 261.215438 
L 162.885 261.213751 
L 171.001364 261.212627 
L 179.117727 261.211503 
L 187.234091 261.210379 
L 195.350455 261.209254 
L 203.466818 261.20813 
L 211.583182 261.207568 
L 219.699545 261.20813 
L 227.815909 261.209816 
L 235.932273 261.214876 
L 244.048636 261.216 
L 252.165 261.216 
L 260.281364 261.216 
L 268.397727 261.214314 
L 276.514091 261.172153 
L 284.630455 260.515007 
L 292.746818 256.085881 
L 300.863182 243.803615 
L 308.979545 225.762192 
L 317.095909 206.122596 
L 325.212273 187.113725 
L 333.328636 168.707471 
L 341.445 150.902148 
L 349.561364 132.865223 
L 357.677727 117.065627 
L 365.794091 101.146294 
L 373.910455 86.550809 
L 382.026818 71.536527 
L 390.143182 58.467822 
L 398.259545 44.889816 
L 406.375909 31.903185 
L 414.492273 19.296 
" style="fill:none;stroke:#377eb8;stroke-dasharray:14.8,6.4;stroke-dashoffset:0;stroke-opacity:0.7;stroke-width:4;"/>
   </g>
   <g id="line2d_22">
    <path clip-path="url(#pe2e582f9e7)" d="M 89.837727 261.216 
L 97.954091 261.216 
L 106.070455 261.214854 
L 114.186818 261.214854 
L 122.303182 261.214854 
L 130.419545 261.214854 
L 138.535909 261.215427 
L 146.652273 261.216 
L 154.768636 261.215427 
L 162.885 261.214281 
L 171.001364 261.213708 
L 179.117727 261.212562 
L 187.234091 261.211989 
L 195.350455 261.210843 
L 203.466818 261.21027 
L 211.583182 261.209697 
L 219.699545 261.21027 
L 227.815909 261.211416 
L 235.932273 261.216 
L 244.048636 261.216 
L 252.165 261.216 
L 260.281364 261.216 
L 268.397727 261.215427 
L 276.514091 261.203394 
L 284.630455 260.888826 
L 292.746818 257.830805 
L 300.863182 246.901689 
L 308.979545 229.16723 
L 317.095909 209.187815 
L 325.212273 188.95858 
L 333.328636 169.972721 
L 341.445 151.891607 
L 349.561364 134.955316 
L 357.677727 118.759894 
L 365.794091 102.248186 
L 373.910455 87.545963 
L 382.026818 72.459841 
L 390.143182 58.810765 
L 398.259545 44.884937 
L 406.375909 32.099923 
L 414.492273 19.296 
" style="fill:none;stroke:#377eb8;stroke-dasharray:14.8,6.4;stroke-dashoffset:0;stroke-opacity:0.7;stroke-width:4;"/>
   </g>
   <g id="line2d_23">
    <path clip-path="url(#pe2e582f9e7)" d="M 89.837727 261.216 
L 97.954091 261.216 
L 106.070455 261.215422 
L 114.186818 261.214844 
L 122.303182 261.215422 
L 130.419545 261.215422 
L 138.535909 261.216 
L 146.652273 261.216 
L 154.768636 261.215422 
L 162.885 261.214844 
L 171.001364 261.214266 
L 179.117727 261.213689 
L 187.234091 261.213111 
L 195.350455 261.212533 
L 203.466818 261.211955 
L 211.583182 261.211377 
L 219.699545 261.211377 
L 227.815909 261.212533 
L 235.932273 261.215422 
L 244.048636 261.216 
L 252.165 261.216 
L 260.281364 261.216 
L 268.397727 261.216 
L 276.514091 261.212533 
L 284.630455 261.061136 
L 292.746818 258.958921 
L 300.863182 249.356225 
L 308.979545 231.90287 
L 317.095909 211.700109 
L 325.212273 191.458632 
L 333.328636 171.573111 
L 341.445 153.61356 
L 349.561364 136.396546 
L 357.677727 119.856193 
L 365.794091 103.590318 
L 373.910455 88.30852 
L 382.026818 73.611506 
L 390.143182 59.302228 
L 398.259545 46.103576 
L 406.375909 32.115005 
L 414.492273 19.296 
" style="fill:none;stroke:#377eb8;stroke-dasharray:14.8,6.4;stroke-dashoffset:0;stroke-opacity:0.7;stroke-width:4;"/>
   </g>
   <g id="patch_3">
    <path d="M 73.605 273.312 
L 73.605 7.2 
" style="fill:none;stroke:#000000;stroke-linecap:square;stroke-linejoin:miter;stroke-width:0.8;"/>
   </g>
   <g id="patch_4">
    <path d="M 430.725 273.312 
L 430.725 7.2 
" style="fill:none;stroke:#000000;stroke-linecap:square;stroke-linejoin:miter;stroke-width:0.8;"/>
   </g>
   <g id="patch_5">
    <path d="M 73.605 273.312 
L 430.725 273.312 
" style="fill:none;stroke:#000000;stroke-linecap:square;stroke-linejoin:miter;stroke-width:0.8;"/>
   </g>
   <g id="patch_6">
    <path d="M 73.605 7.2 
L 430.725 7.2 
" style="fill:none;stroke:#000000;stroke-linecap:square;stroke-linejoin:miter;stroke-width:0.8;"/>
   </g>
  </g>
 </g>
 <defs>
  <clipPath id="pe2e582f9e7">
   <rect height="266.112" width="357.12" x="73.605" y="7.2"/>
  </clipPath>
 </defs>
</svg>
