<?xml version="1.0" encoding="utf-8" standalone="no"?>
<!DOCTYPE svg PUBLIC "-//W3C//DTD SVG 1.1//EN"
  "http://www.w3.org/Graphics/SVG/1.1/DTD/svg11.dtd">
<!-- Created with matplotlib (https://matplotlib.org/) -->
<svg height="339.68825pt" version="1.1" viewBox="0 0 441.79625 339.68825" width="441.79625pt" xmlns="http://www.w3.org/2000/svg" xmlns:xlink="http://www.w3.org/1999/xlink">
 <defs>
  <style type="text/css">
*{stroke-linecap:butt;stroke-linejoin:round;}
  </style>
 </defs>
 <g id="figure_1">
  <g id="patch_1">
   <path d="M 0 339.68825 
L 441.79625 339.68825 
L 441.79625 0 
L 0 0 
z
" style="fill:#ffffff;"/>
  </g>
  <g id="axes_1">
   <g id="patch_2">
    <path d="M 77.47625 273.312 
L 434.59625 273.312 
L 434.59625 7.2 
L 77.47625 7.2 
z
" style="fill:#ffffff;"/>
   </g>
   <g id="matplotlib.axis_1">
    <g id="xtick_1">
     <g id="line2d_1">
      <defs>
       <path d="M 0 0 
L 0 -8 
" id="m22a759fe71" style="stroke:#000000;stroke-width:0.8;"/>
      </defs>
      <g>
       <use style="stroke:#000000;stroke-width:0.8;" x="85.592614" xlink:href="#m22a759fe71" y="273.312"/>
      </g>
     </g>
     <g id="text_1">
      <!-- 0.0 -->
      <defs>
       <path d="M 31.78125 3.421875 
Q 39.265625 3.421875 42.96875 11.625 
Q 46.6875 19.828125 46.6875 36.375 
Q 46.6875 52.984375 42.96875 61.1875 
Q 39.265625 69.390625 31.78125 69.390625 
Q 24.3125 69.390625 20.59375 61.1875 
Q 16.890625 52.984375 16.890625 36.375 
Q 16.890625 19.828125 20.59375 11.625 
Q 24.3125 3.421875 31.78125 3.421875 
z
M 31.78125 -1.421875 
Q 19.921875 -1.421875 13.25 8.53125 
Q 6.59375 18.5 6.59375 36.375 
Q 6.59375 54.296875 13.25 64.25 
Q 19.921875 74.21875 31.78125 74.21875 
Q 43.703125 74.21875 50.34375 64.25 
Q 56.984375 54.296875 56.984375 36.375 
Q 56.984375 18.5 50.34375 8.53125 
Q 43.703125 -1.421875 31.78125 -1.421875 
z
" id="DejaVuSerif-48"/>
       <path d="M 9.421875 5.078125 
Q 9.421875 7.8125 11.28125 9.71875 
Q 13.140625 11.625 15.921875 11.625 
Q 18.609375 11.625 20.5 9.71875 
Q 22.40625 7.8125 22.40625 5.078125 
Q 22.40625 2.390625 20.5 0.484375 
Q 18.609375 -1.421875 15.921875 -1.421875 
Q 13.140625 -1.421875 11.28125 0.453125 
Q 9.421875 2.34375 9.421875 5.078125 
z
" id="DejaVuSerif-46"/>
      </defs>
      <g transform="translate(69.689489 292.008875)scale(0.2 -0.2)">
       <use xlink:href="#DejaVuSerif-48"/>
       <use x="63.623047" xlink:href="#DejaVuSerif-46"/>
       <use x="95.410156" xlink:href="#DejaVuSerif-48"/>
      </g>
     </g>
    </g>
    <g id="xtick_2">
     <g id="line2d_2">
      <g>
       <use style="stroke:#000000;stroke-width:0.8;" x="166.75625" xlink:href="#m22a759fe71" y="273.312"/>
      </g>
     </g>
     <g id="text_2">
      <!-- 0.1 -->
      <defs>
       <path d="M 14.203125 0 
L 14.203125 5.171875 
L 26.90625 5.171875 
L 26.90625 65.828125 
L 12.203125 56.296875 
L 12.203125 62.703125 
L 29.984375 74.21875 
L 36.71875 74.21875 
L 36.71875 5.171875 
L 49.421875 5.171875 
L 49.421875 0 
z
" id="DejaVuSerif-49"/>
      </defs>
      <g transform="translate(150.853125 292.008875)scale(0.2 -0.2)">
       <use xlink:href="#DejaVuSerif-48"/>
       <use x="63.623047" xlink:href="#DejaVuSerif-46"/>
       <use x="95.410156" xlink:href="#DejaVuSerif-49"/>
      </g>
     </g>
    </g>
    <g id="xtick_3">
     <g id="line2d_3">
      <g>
       <use style="stroke:#000000;stroke-width:0.8;" x="247.919886" xlink:href="#m22a759fe71" y="273.312"/>
      </g>
     </g>
     <g id="text_3">
      <!-- 0.2 -->
      <defs>
       <path d="M 12.796875 55.515625 
L 7.328125 55.515625 
L 7.328125 68.5 
Q 12.546875 71.296875 17.84375 72.75 
Q 23.140625 74.21875 28.21875 74.21875 
Q 39.59375 74.21875 46.1875 68.703125 
Q 52.78125 63.1875 52.78125 53.71875 
Q 52.78125 43.015625 37.84375 28.125 
Q 36.671875 27 36.078125 26.421875 
L 17.671875 8.015625 
L 48.09375 8.015625 
L 48.09375 17 
L 53.8125 17 
L 53.8125 0 
L 6.78125 0 
L 6.78125 5.328125 
L 28.90625 27.390625 
Q 36.234375 34.71875 39.359375 40.84375 
Q 42.484375 46.96875 42.484375 53.71875 
Q 42.484375 61.078125 38.640625 65.234375 
Q 34.8125 69.390625 28.078125 69.390625 
Q 21.09375 69.390625 17.28125 65.921875 
Q 13.484375 62.453125 12.796875 55.515625 
z
" id="DejaVuSerif-50"/>
      </defs>
      <g transform="translate(232.016761 292.008875)scale(0.2 -0.2)">
       <use xlink:href="#DejaVuSerif-48"/>
       <use x="63.623047" xlink:href="#DejaVuSerif-46"/>
       <use x="95.410156" xlink:href="#DejaVuSerif-50"/>
      </g>
     </g>
    </g>
    <g id="xtick_4">
     <g id="line2d_4">
      <g>
       <use style="stroke:#000000;stroke-width:0.8;" x="329.083523" xlink:href="#m22a759fe71" y="273.312"/>
      </g>
     </g>
     <g id="text_4">
      <!-- 0.3 -->
      <defs>
       <path d="M 9.71875 69.828125 
Q 15.4375 71.96875 20.671875 73.09375 
Q 25.921875 74.21875 30.515625 74.21875 
Q 41.21875 74.21875 47.21875 69.59375 
Q 53.21875 64.984375 53.21875 56.78125 
Q 53.21875 50.203125 49.0625 45.78125 
Q 44.921875 41.359375 37.3125 39.796875 
Q 46.296875 38.53125 51.25 33.28125 
Q 56.203125 28.03125 56.203125 19.671875 
Q 56.203125 9.46875 49.34375 4.015625 
Q 42.484375 -1.421875 29.59375 -1.421875 
Q 23.875 -1.421875 18.421875 -0.1875 
Q 12.984375 1.03125 7.625 3.515625 
L 7.625 17.671875 
L 13.09375 17.671875 
Q 13.578125 10.640625 17.828125 7.03125 
Q 22.078125 3.421875 29.78125 3.421875 
Q 37.25 3.421875 41.578125 7.734375 
Q 45.90625 12.0625 45.90625 19.578125 
Q 45.90625 28.171875 41.453125 32.59375 
Q 37.015625 37.015625 28.421875 37.015625 
L 23.78125 37.015625 
L 23.78125 42 
L 26.21875 42 
Q 34.765625 42 39.03125 45.53125 
Q 43.3125 49.078125 43.3125 56.203125 
Q 43.3125 62.59375 39.796875 65.984375 
Q 36.28125 69.390625 29.6875 69.390625 
Q 23.09375 69.390625 19.453125 66.265625 
Q 15.828125 63.140625 15.1875 56.984375 
L 9.71875 56.984375 
z
" id="DejaVuSerif-51"/>
      </defs>
      <g transform="translate(313.180398 292.008875)scale(0.2 -0.2)">
       <use xlink:href="#DejaVuSerif-48"/>
       <use x="63.623047" xlink:href="#DejaVuSerif-46"/>
       <use x="95.410156" xlink:href="#DejaVuSerif-51"/>
      </g>
     </g>
    </g>
    <g id="xtick_5">
     <g id="line2d_5">
      <g>
       <use style="stroke:#000000;stroke-width:0.8;" x="410.247159" xlink:href="#m22a759fe71" y="273.312"/>
      </g>
     </g>
     <g id="text_5">
      <!-- 0.4 -->
      <defs>
       <path d="M 34.90625 24.703125 
L 34.90625 63.484375 
L 10.015625 24.703125 
z
M 56.390625 0 
L 23.1875 0 
L 23.1875 5.171875 
L 34.90625 5.171875 
L 34.90625 19.484375 
L 3.078125 19.484375 
L 3.078125 24.8125 
L 35.015625 74.21875 
L 44.671875 74.21875 
L 44.671875 24.703125 
L 58.59375 24.703125 
L 58.59375 19.484375 
L 44.671875 19.484375 
L 44.671875 5.171875 
L 56.390625 5.171875 
z
" id="DejaVuSerif-52"/>
      </defs>
      <g transform="translate(394.344034 292.008875)scale(0.2 -0.2)">
       <use xlink:href="#DejaVuSerif-48"/>
       <use x="63.623047" xlink:href="#DejaVuSerif-46"/>
       <use x="95.410156" xlink:href="#DejaVuSerif-52"/>
      </g>
     </g>
    </g>
    <g id="text_6">
     <!-- Tunneling $J/U$ -->
     <defs>
      <path d="M 19.09375 0 
L 19.09375 5.171875 
L 28.421875 5.171875 
L 28.421875 67.09375 
L 6.984375 67.09375 
L 6.984375 55.71875 
L 0.984375 55.71875 
L 0.984375 72.90625 
L 65.71875 72.90625 
L 65.71875 55.71875 
L 59.71875 55.71875 
L 59.71875 67.09375 
L 38.28125 67.09375 
L 38.28125 5.171875 
L 47.609375 5.171875 
L 47.609375 0 
z
" id="DejaVuSerif-84"/>
      <path d="M 35.40625 51.90625 
L 52.203125 51.90625 
L 52.203125 5.171875 
L 60.6875 5.171875 
L 60.6875 0 
L 43.21875 0 
L 43.21875 9.1875 
Q 40.71875 4 36.765625 1.28125 
Q 32.8125 -1.421875 27.59375 -1.421875 
Q 18.953125 -1.421875 14.875 3.484375 
Q 10.796875 8.40625 10.796875 18.890625 
L 10.796875 46.6875 
L 2.6875 46.6875 
L 2.6875 51.90625 
L 19.828125 51.90625 
L 19.828125 21.6875 
Q 19.828125 12.203125 22.140625 8.6875 
Q 24.46875 5.171875 30.421875 5.171875 
Q 36.671875 5.171875 39.9375 9.765625 
Q 43.21875 14.359375 43.21875 23.09375 
L 43.21875 46.6875 
L 35.40625 46.6875 
z
" id="DejaVuSerif-117"/>
      <path d="M 4.109375 0 
L 4.109375 5.171875 
L 12.203125 5.171875 
L 12.203125 46.6875 
L 3.609375 46.6875 
L 3.609375 51.90625 
L 21.1875 51.90625 
L 21.1875 42.671875 
Q 23.6875 47.953125 27.65625 50.640625 
Q 31.640625 53.328125 36.921875 53.328125 
Q 45.515625 53.328125 49.5625 48.390625 
Q 53.609375 43.453125 53.609375 33.015625 
L 53.609375 5.171875 
L 61.625 5.171875 
L 61.625 0 
L 36.8125 0 
L 36.8125 5.171875 
L 44.578125 5.171875 
L 44.578125 30.171875 
Q 44.578125 39.703125 42.234375 43.234375 
Q 39.890625 46.78125 33.984375 46.78125 
Q 27.734375 46.78125 24.453125 42.203125 
Q 21.1875 37.640625 21.1875 28.90625 
L 21.1875 5.171875 
L 29 5.171875 
L 29 0 
z
" id="DejaVuSerif-110"/>
      <path d="M 54.203125 25 
L 15.484375 25 
L 15.484375 24.609375 
Q 15.484375 14.109375 19.4375 8.765625 
Q 23.390625 3.421875 31.109375 3.421875 
Q 37.015625 3.421875 40.796875 6.515625 
Q 44.578125 9.625 46.09375 15.71875 
L 53.328125 15.71875 
Q 51.171875 7.171875 45.375 2.875 
Q 39.59375 -1.421875 30.171875 -1.421875 
Q 18.796875 -1.421875 11.890625 6.078125 
Q 4.984375 13.578125 4.984375 25.984375 
Q 4.984375 38.28125 11.765625 45.796875 
Q 18.5625 53.328125 29.59375 53.328125 
Q 41.359375 53.328125 47.65625 46.0625 
Q 53.953125 38.8125 54.203125 25 
z
M 43.609375 30.171875 
Q 43.3125 39.265625 39.765625 43.875 
Q 36.234375 48.484375 29.59375 48.484375 
Q 23.390625 48.484375 19.828125 43.84375 
Q 16.265625 39.203125 15.484375 30.171875 
z
" id="DejaVuSerif-101"/>
      <path d="M 20.515625 5.171875 
L 29 5.171875 
L 29 0 
L 2.875 0 
L 2.875 5.171875 
L 11.53125 5.171875 
L 11.53125 70.796875 
L 2.875 70.796875 
L 2.875 75.984375 
L 20.515625 75.984375 
z
" id="DejaVuSerif-108"/>
      <path d="M 9.71875 68.015625 
Q 9.71875 70.265625 11.34375 71.921875 
Q 12.984375 73.578125 15.28125 73.578125 
Q 17.53125 73.578125 19.15625 71.921875 
Q 20.796875 70.265625 20.796875 68.015625 
Q 20.796875 65.71875 19.1875 64.109375 
Q 17.578125 62.5 15.28125 62.5 
Q 12.984375 62.5 11.34375 64.109375 
Q 9.71875 65.71875 9.71875 68.015625 
z
M 21.1875 5.171875 
L 29.6875 5.171875 
L 29.6875 0 
L 3.609375 0 
L 3.609375 5.171875 
L 12.203125 5.171875 
L 12.203125 46.6875 
L 3.609375 46.6875 
L 3.609375 51.90625 
L 21.1875 51.90625 
z
" id="DejaVuSerif-105"/>
      <path d="M 52.484375 46.6875 
L 52.484375 1.125 
Q 52.484375 -10.0625 46.328125 -16.140625 
Q 40.1875 -22.21875 28.8125 -22.21875 
Q 23.6875 -22.21875 19 -21.28125 
Q 14.3125 -20.359375 10.015625 -18.5 
L 10.015625 -7.625 
L 14.703125 -7.625 
Q 15.578125 -12.703125 18.84375 -15.046875 
Q 22.125 -17.390625 28.21875 -17.390625 
Q 36.140625 -17.390625 39.8125 -12.921875 
Q 43.5 -8.453125 43.5 1.125 
L 43.5 8.109375 
Q 40.875 3.21875 36.796875 0.890625 
Q 32.71875 -1.421875 26.703125 -1.421875 
Q 17.140625 -1.421875 11.0625 6.171875 
Q 4.984375 13.765625 4.984375 25.984375 
Q 4.984375 38.1875 11.03125 45.75 
Q 17.09375 53.328125 26.703125 53.328125 
Q 32.71875 53.328125 36.796875 51 
Q 40.875 48.6875 43.5 43.796875 
L 43.5 51.90625 
L 61.078125 51.90625 
L 61.078125 46.6875 
z
M 43.5 28.515625 
Q 43.5 37.84375 39.90625 42.765625 
Q 36.328125 47.703125 29.5 47.703125 
Q 22.5625 47.703125 19.015625 42.234375 
Q 15.484375 36.765625 15.484375 25.984375 
Q 15.484375 15.234375 19.015625 9.71875 
Q 22.5625 4.203125 29.5 4.203125 
Q 36.328125 4.203125 39.90625 9.109375 
Q 43.5 14.015625 43.5 23.390625 
z
" id="DejaVuSerif-103"/>
      <path id="DejaVuSerif-32"/>
      <path d="M 10.890625 6 
Q 11.859375 3.21875 14.5 1.796875 
Q 17.140625 0.390625 20.21875 0.390625 
Q 23.34375 0.390625 26.25 2.5625 
Q 29.15625 4.734375 31.171875 8 
Q 33.203125 11.28125 33.984375 14.5 
L 45.796875 61.8125 
Q 45.90625 62.203125 45.921875 62.390625 
Q 45.953125 62.59375 46 62.796875 
Q 46 63.875 45.21875 64.109375 
Q 42.578125 64.796875 34.515625 64.796875 
Q 33.5 64.796875 33.5 66.109375 
Q 33.6875 66.890625 33.8125 67.328125 
Q 33.9375 67.78125 34.25 68.046875 
Q 34.578125 68.3125 35.203125 68.3125 
L 62.3125 68.3125 
Q 63.28125 68.3125 63.28125 67 
Q 62.890625 64.796875 62.015625 64.796875 
Q 58.5 64.796875 56.6875 64.25 
Q 54.890625 63.71875 54.203125 61.375 
L 42.390625 14.109375 
Q 41.265625 9.46875 37.8125 5.734375 
Q 34.375 2 29.640625 -0.09375 
Q 24.90625 -2.203125 20.125 -2.203125 
Q 14.84375 -2.203125 10.859375 0.71875 
Q 6.890625 3.65625 6.890625 8.6875 
Q 6.890625 12.015625 8.6875 14.40625 
Q 10.5 16.796875 13.8125 16.796875 
Q 15.71875 16.796875 17.015625 15.625 
Q 18.3125 14.453125 18.3125 12.59375 
Q 18.3125 9.90625 16.3125 7.90625 
Q 14.3125 5.90625 11.625 5.90625 
Q 11.078125 5.90625 10.890625 6 
z
" id="Cmmi10-74"/>
      <path d="M 5.609375 -23 
Q 5.609375 -22.703125 5.71875 -22.609375 
L 40.484375 73.78125 
Q 40.671875 74.359375 41.15625 74.671875 
Q 41.65625 75 42.28125 75 
Q 43.171875 75 43.71875 74.453125 
Q 44.28125 73.921875 44.28125 73 
L 44.28125 72.609375 
L 9.515625 -23.78125 
Q 8.9375 -25 7.625 -25 
Q 6.78125 -25 6.1875 -24.40625 
Q 5.609375 -23.828125 5.609375 -23 
z
" id="Cmmi10-61"/>
      <path d="M 14.703125 13.921875 
Q 14.703125 10.25 16.140625 7.375 
Q 17.578125 4.5 20.3125 2.90625 
Q 23.046875 1.3125 26.703125 1.3125 
Q 31 1.3125 35.078125 3.0625 
Q 39.15625 4.828125 42.421875 7.953125 
Q 45.703125 11.078125 48.015625 15.078125 
Q 50.34375 19.09375 51.3125 23 
L 60.296875 59.078125 
Q 60.5 60.15625 60.5 60.59375 
Q 60.5 64.796875 52.78125 64.796875 
Q 51.8125 64.796875 51.8125 66.109375 
Q 52.15625 67.390625 52.34375 67.84375 
Q 52.546875 68.3125 53.515625 68.3125 
L 75.203125 68.3125 
Q 75.640625 68.3125 75.921875 67.875 
Q 76.21875 67.4375 76.21875 67 
Q 76.21875 66.9375 76.015625 66.234375 
Q 75.828125 65.53125 75.5625 65.15625 
Q 75.296875 64.796875 74.90625 64.796875 
Q 65.328125 64.796875 63.8125 58.6875 
L 54.78125 22.609375 
Q 53.65625 17.921875 51 13.5 
Q 48.34375 9.078125 44.453125 5.484375 
Q 40.578125 1.90625 35.90625 -0.140625 
Q 31.25 -2.203125 26.421875 -2.203125 
Q 20.90625 -2.203125 16.328125 0.21875 
Q 11.765625 2.640625 9.171875 6.984375 
Q 6.59375 11.328125 6.59375 17 
Q 6.59375 20.265625 7.328125 23 
L 17 61.8125 
Q 17.1875 62.796875 17.1875 63.1875 
Q 17.1875 64.265625 16.015625 64.40625 
Q 14.109375 64.796875 8.796875 64.796875 
Q 7.8125 64.796875 7.8125 66.109375 
Q 8.15625 67.390625 8.34375 67.84375 
Q 8.546875 68.3125 9.515625 68.3125 
L 36.375 68.3125 
Q 37.40625 68.3125 37.40625 67 
Q 37.359375 66.75 37.203125 66.15625 
Q 37.0625 65.578125 36.8125 65.1875 
Q 36.578125 64.796875 36.078125 64.796875 
Q 29.984375 64.796875 27.59375 64.109375 
Q 26.265625 63.625 25.6875 61.375 
L 16.015625 22.609375 
Q 14.703125 17.328125 14.703125 13.921875 
z
" id="Cmmi10-85"/>
     </defs>
     <g transform="translate(141.31625 324.48825)scale(0.32 -0.32)">
      <use transform="translate(0 0.015625)" xlink:href="#DejaVuSerif-84"/>
      <use transform="translate(66.699219 0.015625)" xlink:href="#DejaVuSerif-117"/>
      <use transform="translate(131.103516 0.015625)" xlink:href="#DejaVuSerif-110"/>
      <use transform="translate(195.507812 0.015625)" xlink:href="#DejaVuSerif-110"/>
      <use transform="translate(259.912109 0.015625)" xlink:href="#DejaVuSerif-101"/>
      <use transform="translate(319.091797 0.015625)" xlink:href="#DejaVuSerif-108"/>
      <use transform="translate(351.074219 0.015625)" xlink:href="#DejaVuSerif-105"/>
      <use transform="translate(383.056641 0.015625)" xlink:href="#DejaVuSerif-110"/>
      <use transform="translate(447.460938 0.015625)" xlink:href="#DejaVuSerif-103"/>
      <use transform="translate(511.474609 0.015625)" xlink:href="#DejaVuSerif-32"/>
      <use transform="translate(543.261719 0.015625)" xlink:href="#Cmmi10-74"/>
      <use transform="translate(598.681641 0.015625)" xlink:href="#Cmmi10-61"/>
      <use transform="translate(648.681641 0.015625)" xlink:href="#Cmmi10-85"/>
     </g>
    </g>
   </g>
   <g id="matplotlib.axis_2">
    <g id="ytick_1">
     <g id="line2d_6">
      <defs>
       <path d="M 0 0 
L 8 0 
" id="m829f9a7946" style="stroke:#000000;stroke-width:0.8;"/>
      </defs>
      <g>
       <use style="stroke:#000000;stroke-width:0.8;" x="77.47625" xlink:href="#m829f9a7946" y="261.216"/>
      </g>
     </g>
     <g id="text_7">
      <!-- 0.0 -->
      <g transform="translate(42.17 268.814437)scale(0.2 -0.2)">
       <use xlink:href="#DejaVuSerif-48"/>
       <use x="63.623047" xlink:href="#DejaVuSerif-46"/>
       <use x="95.410156" xlink:href="#DejaVuSerif-48"/>
      </g>
     </g>
    </g>
    <g id="ytick_2">
     <g id="line2d_7">
      <g>
       <use style="stroke:#000000;stroke-width:0.8;" x="77.47625" xlink:href="#m829f9a7946" y="212.832"/>
      </g>
     </g>
     <g id="text_8">
      <!-- 0.2 -->
      <g transform="translate(42.17 220.430437)scale(0.2 -0.2)">
       <use xlink:href="#DejaVuSerif-48"/>
       <use x="63.623047" xlink:href="#DejaVuSerif-46"/>
       <use x="95.410156" xlink:href="#DejaVuSerif-50"/>
      </g>
     </g>
    </g>
    <g id="ytick_3">
     <g id="line2d_8">
      <g>
       <use style="stroke:#000000;stroke-width:0.8;" x="77.47625" xlink:href="#m829f9a7946" y="164.448"/>
      </g>
     </g>
     <g id="text_9">
      <!-- 0.4 -->
      <g transform="translate(42.17 172.046437)scale(0.2 -0.2)">
       <use xlink:href="#DejaVuSerif-48"/>
       <use x="63.623047" xlink:href="#DejaVuSerif-46"/>
       <use x="95.410156" xlink:href="#DejaVuSerif-52"/>
      </g>
     </g>
    </g>
    <g id="ytick_4">
     <g id="line2d_9">
      <g>
       <use style="stroke:#000000;stroke-width:0.8;" x="77.47625" xlink:href="#m829f9a7946" y="116.064"/>
      </g>
     </g>
     <g id="text_10">
      <!-- 0.6 -->
      <defs>
       <path d="M 32.71875 3.421875 
Q 39.59375 3.421875 43.296875 8.46875 
Q 47.015625 13.53125 47.015625 23 
Q 47.015625 32.46875 43.296875 37.515625 
Q 39.59375 42.578125 32.71875 42.578125 
Q 25.734375 42.578125 22.0625 37.6875 
Q 18.40625 32.8125 18.40625 23.578125 
Q 18.40625 13.875 22.109375 8.640625 
Q 25.828125 3.421875 32.71875 3.421875 
z
M 16.796875 40.140625 
Q 20.125 43.796875 24.3125 45.59375 
Q 28.515625 47.40625 33.796875 47.40625 
Q 44.671875 47.40625 51 40.859375 
Q 57.328125 34.328125 57.328125 23 
Q 57.328125 11.921875 50.515625 5.25 
Q 43.703125 -1.421875 32.328125 -1.421875 
Q 19.96875 -1.421875 13.328125 7.78125 
Q 6.6875 17 6.6875 34.078125 
Q 6.6875 53.21875 14.546875 63.71875 
Q 22.40625 74.21875 36.71875 74.21875 
Q 40.578125 74.21875 44.828125 73.484375 
Q 49.078125 72.75 53.515625 71.296875 
L 53.515625 59.28125 
L 48 59.28125 
Q 47.40625 64.203125 44.234375 66.796875 
Q 41.0625 69.390625 35.6875 69.390625 
Q 26.21875 69.390625 21.578125 62.203125 
Q 16.9375 55.03125 16.796875 40.140625 
z
" id="DejaVuSerif-54"/>
      </defs>
      <g transform="translate(42.17 123.662437)scale(0.2 -0.2)">
       <use xlink:href="#DejaVuSerif-48"/>
       <use x="63.623047" xlink:href="#DejaVuSerif-46"/>
       <use x="95.410156" xlink:href="#DejaVuSerif-54"/>
      </g>
     </g>
    </g>
    <g id="ytick_5">
     <g id="line2d_10">
      <g>
       <use style="stroke:#000000;stroke-width:0.8;" x="77.47625" xlink:href="#m829f9a7946" y="67.68"/>
      </g>
     </g>
     <g id="text_11">
      <!-- 0.8 -->
      <defs>
       <path d="M 46.578125 19.921875 
Q 46.578125 27.734375 42.6875 32.046875 
Q 38.8125 36.375 31.78125 36.375 
Q 24.75 36.375 20.875 32.046875 
Q 17 27.734375 17 19.921875 
Q 17 12.0625 20.875 7.734375 
Q 24.75 3.421875 31.78125 3.421875 
Q 38.8125 3.421875 42.6875 7.734375 
Q 46.578125 12.0625 46.578125 19.921875 
z
M 44.578125 55.328125 
Q 44.578125 61.96875 41.203125 65.671875 
Q 37.84375 69.390625 31.78125 69.390625 
Q 25.78125 69.390625 22.390625 65.671875 
Q 19 61.96875 19 55.328125 
Q 19 48.640625 22.390625 44.921875 
Q 25.78125 41.21875 31.78125 41.21875 
Q 37.84375 41.21875 41.203125 44.921875 
Q 44.578125 48.640625 44.578125 55.328125 
z
M 39.3125 38.8125 
Q 47.609375 37.703125 52.25 32.6875 
Q 56.890625 27.6875 56.890625 19.921875 
Q 56.890625 9.671875 50.390625 4.125 
Q 43.890625 -1.421875 31.78125 -1.421875 
Q 19.734375 -1.421875 13.203125 4.125 
Q 6.6875 9.671875 6.6875 19.921875 
Q 6.6875 27.6875 11.328125 32.6875 
Q 15.96875 37.703125 24.3125 38.8125 
Q 16.9375 40.140625 13 44.40625 
Q 9.078125 48.6875 9.078125 55.328125 
Q 9.078125 64.109375 15.125 69.15625 
Q 21.1875 74.21875 31.78125 74.21875 
Q 42.390625 74.21875 48.4375 69.15625 
Q 54.5 64.109375 54.5 55.328125 
Q 54.5 48.6875 50.5625 44.40625 
Q 46.625 40.140625 39.3125 38.8125 
z
" id="DejaVuSerif-56"/>
      </defs>
      <g transform="translate(42.17 75.278437)scale(0.2 -0.2)">
       <use xlink:href="#DejaVuSerif-48"/>
       <use x="63.623047" xlink:href="#DejaVuSerif-46"/>
       <use x="95.410156" xlink:href="#DejaVuSerif-56"/>
      </g>
     </g>
    </g>
    <g id="ytick_6">
     <g id="line2d_11">
      <g>
       <use style="stroke:#000000;stroke-width:0.8;" x="77.47625" xlink:href="#m829f9a7946" y="19.296"/>
      </g>
     </g>
     <g id="text_12">
      <!-- 1.0 -->
      <g transform="translate(42.17 26.894437)scale(0.2 -0.2)">
       <use xlink:href="#DejaVuSerif-49"/>
       <use x="63.623047" xlink:href="#DejaVuSerif-46"/>
       <use x="95.410156" xlink:href="#DejaVuSerif-48"/>
      </g>
     </g>
    </g>
    <g id="text_13">
     <!-- Pnorm -->
     <defs>
      <path d="M 24.703125 37.109375 
L 37.59375 37.109375 
Q 44.875 37.109375 48.671875 41.03125 
Q 52.484375 44.96875 52.484375 52.390625 
Q 52.484375 59.859375 48.671875 63.765625 
Q 44.875 67.671875 37.59375 67.671875 
L 24.703125 67.671875 
z
M 5.515625 0 
L 5.515625 5.171875 
L 14.796875 5.171875 
L 14.796875 67.671875 
L 5.515625 67.671875 
L 5.515625 72.90625 
L 39.984375 72.90625 
Q 50.921875 72.90625 57.3125 67.359375 
Q 63.71875 61.8125 63.71875 52.390625 
Q 63.71875 43.015625 57.3125 37.453125 
Q 50.921875 31.890625 39.984375 31.890625 
L 24.703125 31.890625 
L 24.703125 5.171875 
L 35.984375 5.171875 
L 35.984375 0 
z
" id="DejaVuSerif-80"/>
      <path d="M 30.078125 3.421875 
Q 37.3125 3.421875 40.984375 9.125 
Q 44.671875 14.84375 44.671875 25.984375 
Q 44.671875 37.109375 40.984375 42.796875 
Q 37.3125 48.484375 30.078125 48.484375 
Q 22.859375 48.484375 19.171875 42.796875 
Q 15.484375 37.109375 15.484375 25.984375 
Q 15.484375 14.84375 19.1875 9.125 
Q 22.90625 3.421875 30.078125 3.421875 
z
M 30.078125 -1.421875 
Q 18.75 -1.421875 11.859375 6.078125 
Q 4.984375 13.578125 4.984375 25.984375 
Q 4.984375 38.375 11.84375 45.84375 
Q 18.703125 53.328125 30.078125 53.328125 
Q 41.453125 53.328125 48.3125 45.84375 
Q 55.171875 38.375 55.171875 25.984375 
Q 55.171875 13.578125 48.3125 6.078125 
Q 41.453125 -1.421875 30.078125 -1.421875 
z
" id="DejaVuSerif-111"/>
      <path d="M 47.796875 52 
L 47.796875 39.015625 
L 42.625 39.015625 
Q 42.390625 42.875 40.484375 44.78125 
Q 38.578125 46.6875 34.90625 46.6875 
Q 28.265625 46.6875 24.71875 42.09375 
Q 21.1875 37.5 21.1875 28.90625 
L 21.1875 5.171875 
L 31.59375 5.171875 
L 31.59375 0 
L 4.109375 0 
L 4.109375 5.171875 
L 12.203125 5.171875 
L 12.203125 46.78125 
L 3.609375 46.78125 
L 3.609375 51.90625 
L 21.1875 51.90625 
L 21.1875 42.671875 
Q 23.828125 48.09375 27.96875 50.703125 
Q 32.125 53.328125 38.09375 53.328125 
Q 40.28125 53.328125 42.703125 52.984375 
Q 45.125 52.640625 47.796875 52 
z
" id="DejaVuSerif-114"/>
      <path d="M 51.8125 41.796875 
Q 54.390625 47.515625 58.421875 50.421875 
Q 62.453125 53.328125 67.828125 53.328125 
Q 75.984375 53.328125 79.984375 48.265625 
Q 83.984375 43.21875 83.984375 33.015625 
L 83.984375 5.171875 
L 92.09375 5.171875 
L 92.09375 0 
L 67.1875 0 
L 67.1875 5.171875 
L 75 5.171875 
L 75 31.984375 
Q 75 39.9375 72.65625 43.3125 
Q 70.3125 46.6875 64.890625 46.6875 
Q 58.890625 46.6875 55.734375 42.140625 
Q 52.59375 37.59375 52.59375 28.90625 
L 52.59375 5.171875 
L 60.40625 5.171875 
L 60.40625 0 
L 35.796875 0 
L 35.796875 5.171875 
L 43.609375 5.171875 
L 43.609375 32.328125 
Q 43.609375 40.09375 41.265625 43.390625 
Q 38.921875 46.6875 33.5 46.6875 
Q 27.484375 46.6875 24.328125 42.140625 
Q 21.1875 37.59375 21.1875 28.90625 
L 21.1875 5.171875 
L 29 5.171875 
L 29 0 
L 4.109375 0 
L 4.109375 5.171875 
L 12.203125 5.171875 
L 12.203125 46.78125 
L 3.609375 46.78125 
L 3.609375 51.90625 
L 21.1875 51.90625 
L 21.1875 42.671875 
Q 23.6875 47.859375 27.53125 50.59375 
Q 31.390625 53.328125 36.28125 53.328125 
Q 42.328125 53.328125 46.375 50.3125 
Q 50.4375 47.3125 51.8125 41.796875 
z
" id="DejaVuSerif-109"/>
     </defs>
     <g transform="translate(31.515 193.7785)rotate(-90)scale(0.32 -0.32)">
      <use xlink:href="#DejaVuSerif-80"/>
      <use x="67.285156" xlink:href="#DejaVuSerif-110"/>
      <use x="131.689453" xlink:href="#DejaVuSerif-111"/>
      <use x="191.894531" xlink:href="#DejaVuSerif-114"/>
      <use x="239.697266" xlink:href="#DejaVuSerif-109"/>
     </g>
    </g>
   </g>
   <g id="line2d_12">
    <path clip-path="url(#pbd953c3f10)" d="M 93.708977 19.296 
L 101.825341 20.655462 
L 109.941705 22.092054 
L 118.058068 23.715143 
L 126.174432 25.549929 
L 134.290795 27.60044 
L 142.407159 29.864038 
L 150.523523 32.338603 
L 158.639886 35.02633 
L 166.75625 37.937482 
L 174.872614 41.092975 
L 182.988977 44.527217 
L 191.105341 48.290164 
L 199.221705 52.449095 
L 207.338068 57.089441 
L 215.454432 62.314938 
L 223.570795 68.246433 
L 231.687159 75.018817 
L 239.803523 82.775821 
L 247.919886 91.660831 
L 256.03625 101.80203 
L 264.152614 113.286008 
L 272.268977 126.107869 
L 280.385341 140.067722 
L 288.501705 154.575995 
L 296.618068 168.554051 
L 304.734432 181.035817 
L 312.850795 191.8201 
L 320.967159 201.138943 
L 329.083523 209.271328 
L 337.199886 216.447984 
L 345.31625 222.852275 
L 353.432614 228.623743 
L 361.548977 233.870945 
L 369.665341 238.677652 
L 377.781705 243.110328 
L 385.898068 247.22292 
L 394.014432 251.058447 
L 402.130795 254.650686 
L 410.247159 258.028308 
L 418.363523 261.216 
" style="fill:none;stroke:#e41a1c;stroke-dasharray:3,4.95;stroke-dashoffset:0;stroke-opacity:0.7;stroke-width:3;"/>
    <defs>
     <path d="M 0 3 
C 0.795609 3 1.55874 2.683901 2.12132 2.12132 
C 2.683901 1.55874 3 0.795609 3 0 
C 3 -0.795609 2.683901 -1.55874 2.12132 -2.12132 
C 1.55874 -2.683901 0.795609 -3 0 -3 
C -0.795609 -3 -1.55874 -2.683901 -2.12132 -2.12132 
C -2.683901 -1.55874 -3 -0.795609 -3 0 
C -3 0.795609 -2.683901 1.55874 -2.12132 2.12132 
C -1.55874 2.683901 -0.795609 3 0 3 
z
" id="m9e17fb969d" style="stroke:#e41a1c;stroke-opacity:0.7;"/>
    </defs>
    <g clip-path="url(#pbd953c3f10)">
     <use style="fill:#e41a1c;fill-opacity:0.7;stroke:#e41a1c;stroke-opacity:0.7;" x="93.708977" xlink:href="#m9e17fb969d" y="19.296"/>
     <use style="fill:#e41a1c;fill-opacity:0.7;stroke:#e41a1c;stroke-opacity:0.7;" x="101.825341" xlink:href="#m9e17fb969d" y="20.655462"/>
     <use style="fill:#e41a1c;fill-opacity:0.7;stroke:#e41a1c;stroke-opacity:0.7;" x="109.941705" xlink:href="#m9e17fb969d" y="22.092054"/>
     <use style="fill:#e41a1c;fill-opacity:0.7;stroke:#e41a1c;stroke-opacity:0.7;" x="118.058068" xlink:href="#m9e17fb969d" y="23.715143"/>
     <use style="fill:#e41a1c;fill-opacity:0.7;stroke:#e41a1c;stroke-opacity:0.7;" x="126.174432" xlink:href="#m9e17fb969d" y="25.549929"/>
     <use style="fill:#e41a1c;fill-opacity:0.7;stroke:#e41a1c;stroke-opacity:0.7;" x="134.290795" xlink:href="#m9e17fb969d" y="27.60044"/>
     <use style="fill:#e41a1c;fill-opacity:0.7;stroke:#e41a1c;stroke-opacity:0.7;" x="142.407159" xlink:href="#m9e17fb969d" y="29.864038"/>
     <use style="fill:#e41a1c;fill-opacity:0.7;stroke:#e41a1c;stroke-opacity:0.7;" x="150.523523" xlink:href="#m9e17fb969d" y="32.338603"/>
     <use style="fill:#e41a1c;fill-opacity:0.7;stroke:#e41a1c;stroke-opacity:0.7;" x="158.639886" xlink:href="#m9e17fb969d" y="35.02633"/>
     <use style="fill:#e41a1c;fill-opacity:0.7;stroke:#e41a1c;stroke-opacity:0.7;" x="166.75625" xlink:href="#m9e17fb969d" y="37.937482"/>
     <use style="fill:#e41a1c;fill-opacity:0.7;stroke:#e41a1c;stroke-opacity:0.7;" x="174.872614" xlink:href="#m9e17fb969d" y="41.092975"/>
     <use style="fill:#e41a1c;fill-opacity:0.7;stroke:#e41a1c;stroke-opacity:0.7;" x="182.988977" xlink:href="#m9e17fb969d" y="44.527217"/>
     <use style="fill:#e41a1c;fill-opacity:0.7;stroke:#e41a1c;stroke-opacity:0.7;" x="191.105341" xlink:href="#m9e17fb969d" y="48.290164"/>
     <use style="fill:#e41a1c;fill-opacity:0.7;stroke:#e41a1c;stroke-opacity:0.7;" x="199.221705" xlink:href="#m9e17fb969d" y="52.449095"/>
     <use style="fill:#e41a1c;fill-opacity:0.7;stroke:#e41a1c;stroke-opacity:0.7;" x="207.338068" xlink:href="#m9e17fb969d" y="57.089441"/>
     <use style="fill:#e41a1c;fill-opacity:0.7;stroke:#e41a1c;stroke-opacity:0.7;" x="215.454432" xlink:href="#m9e17fb969d" y="62.314938"/>
     <use style="fill:#e41a1c;fill-opacity:0.7;stroke:#e41a1c;stroke-opacity:0.7;" x="223.570795" xlink:href="#m9e17fb969d" y="68.246433"/>
     <use style="fill:#e41a1c;fill-opacity:0.7;stroke:#e41a1c;stroke-opacity:0.7;" x="231.687159" xlink:href="#m9e17fb969d" y="75.018817"/>
     <use style="fill:#e41a1c;fill-opacity:0.7;stroke:#e41a1c;stroke-opacity:0.7;" x="239.803523" xlink:href="#m9e17fb969d" y="82.775821"/>
     <use style="fill:#e41a1c;fill-opacity:0.7;stroke:#e41a1c;stroke-opacity:0.7;" x="247.919886" xlink:href="#m9e17fb969d" y="91.660831"/>
     <use style="fill:#e41a1c;fill-opacity:0.7;stroke:#e41a1c;stroke-opacity:0.7;" x="256.03625" xlink:href="#m9e17fb969d" y="101.80203"/>
     <use style="fill:#e41a1c;fill-opacity:0.7;stroke:#e41a1c;stroke-opacity:0.7;" x="264.152614" xlink:href="#m9e17fb969d" y="113.286008"/>
     <use style="fill:#e41a1c;fill-opacity:0.7;stroke:#e41a1c;stroke-opacity:0.7;" x="272.268977" xlink:href="#m9e17fb969d" y="126.107869"/>
     <use style="fill:#e41a1c;fill-opacity:0.7;stroke:#e41a1c;stroke-opacity:0.7;" x="280.385341" xlink:href="#m9e17fb969d" y="140.067722"/>
     <use style="fill:#e41a1c;fill-opacity:0.7;stroke:#e41a1c;stroke-opacity:0.7;" x="288.501705" xlink:href="#m9e17fb969d" y="154.575995"/>
     <use style="fill:#e41a1c;fill-opacity:0.7;stroke:#e41a1c;stroke-opacity:0.7;" x="296.618068" xlink:href="#m9e17fb969d" y="168.554051"/>
     <use style="fill:#e41a1c;fill-opacity:0.7;stroke:#e41a1c;stroke-opacity:0.7;" x="304.734432" xlink:href="#m9e17fb969d" y="181.035817"/>
     <use style="fill:#e41a1c;fill-opacity:0.7;stroke:#e41a1c;stroke-opacity:0.7;" x="312.850795" xlink:href="#m9e17fb969d" y="191.8201"/>
     <use style="fill:#e41a1c;fill-opacity:0.7;stroke:#e41a1c;stroke-opacity:0.7;" x="320.967159" xlink:href="#m9e17fb969d" y="201.138943"/>
     <use style="fill:#e41a1c;fill-opacity:0.7;stroke:#e41a1c;stroke-opacity:0.7;" x="329.083523" xlink:href="#m9e17fb969d" y="209.271328"/>
     <use style="fill:#e41a1c;fill-opacity:0.7;stroke:#e41a1c;stroke-opacity:0.7;" x="337.199886" xlink:href="#m9e17fb969d" y="216.447984"/>
     <use style="fill:#e41a1c;fill-opacity:0.7;stroke:#e41a1c;stroke-opacity:0.7;" x="345.31625" xlink:href="#m9e17fb969d" y="222.852275"/>
     <use style="fill:#e41a1c;fill-opacity:0.7;stroke:#e41a1c;stroke-opacity:0.7;" x="353.432614" xlink:href="#m9e17fb969d" y="228.623743"/>
     <use style="fill:#e41a1c;fill-opacity:0.7;stroke:#e41a1c;stroke-opacity:0.7;" x="361.548977" xlink:href="#m9e17fb969d" y="233.870945"/>
     <use style="fill:#e41a1c;fill-opacity:0.7;stroke:#e41a1c;stroke-opacity:0.7;" x="369.665341" xlink:href="#m9e17fb969d" y="238.677652"/>
     <use style="fill:#e41a1c;fill-opacity:0.7;stroke:#e41a1c;stroke-opacity:0.7;" x="377.781705" xlink:href="#m9e17fb969d" y="243.110328"/>
     <use style="fill:#e41a1c;fill-opacity:0.7;stroke:#e41a1c;stroke-opacity:0.7;" x="385.898068" xlink:href="#m9e17fb969d" y="247.22292"/>
     <use style="fill:#e41a1c;fill-opacity:0.7;stroke:#e41a1c;stroke-opacity:0.7;" x="394.014432" xlink:href="#m9e17fb969d" y="251.058447"/>
     <use style="fill:#e41a1c;fill-opacity:0.7;stroke:#e41a1c;stroke-opacity:0.7;" x="402.130795" xlink:href="#m9e17fb969d" y="254.650686"/>
     <use style="fill:#e41a1c;fill-opacity:0.7;stroke:#e41a1c;stroke-opacity:0.7;" x="410.247159" xlink:href="#m9e17fb969d" y="258.028308"/>
     <use style="fill:#e41a1c;fill-opacity:0.7;stroke:#e41a1c;stroke-opacity:0.7;" x="418.363523" xlink:href="#m9e17fb969d" y="261.216"/>
    </g>
   </g>
   <g id="line2d_13">
    <path clip-path="url(#pbd953c3f10)" d="M 93.708977 19.296 
L 101.825341 20.581197 
L 109.941705 21.939904 
L 118.058068 23.475562 
L 126.174432 25.21203 
L 134.290795 27.15318 
L 142.407159 29.296736 
L 150.523523 31.640893 
L 158.639886 34.188064 
L 166.75625 36.948233 
L 174.872614 39.941721 
L 182.988977 43.201754 
L 191.105341 46.776393 
L 199.221705 50.730469 
L 207.338068 55.146399 
L 215.454432 60.124589 
L 223.570795 65.782584 
L 231.687159 72.252803 
L 239.803523 79.678599 
L 247.919886 88.207093 
L 256.03625 97.978259 
L 264.152614 109.105826 
L 272.268977 121.641209 
L 280.385341 135.494326 
L 288.501705 150.249949 
L 296.618068 164.897623 
L 304.734432 178.171464 
L 312.850795 189.601348 
L 320.967159 199.399916 
L 329.083523 207.890101 
L 337.199886 215.338988 
L 345.31625 221.956136 
L 353.432614 227.899057 
L 361.548977 233.288497 
L 369.665341 238.213448 
L 377.781705 242.748151 
L 385.898068 246.950303 
L 394.014432 250.864528 
L 402.130795 254.527872 
L 410.247159 257.969942 
L 418.363523 261.216 
" style="fill:none;stroke:#377eb8;stroke-dasharray:3,4.95;stroke-dashoffset:0;stroke-opacity:0.7;stroke-width:3;"/>
    <defs>
     <path d="M 0 3 
C 0.795609 3 1.55874 2.683901 2.12132 2.12132 
C 2.683901 1.55874 3 0.795609 3 0 
C 3 -0.795609 2.683901 -1.55874 2.12132 -2.12132 
C 1.55874 -2.683901 0.795609 -3 0 -3 
C -0.795609 -3 -1.55874 -2.683901 -2.12132 -2.12132 
C -2.683901 -1.55874 -3 -0.795609 -3 0 
C -3 0.795609 -2.683901 1.55874 -2.12132 2.12132 
C -1.55874 2.683901 -0.795609 3 0 3 
z
" id="m502f909e85" style="stroke:#377eb8;stroke-opacity:0.7;"/>
    </defs>
    <g clip-path="url(#pbd953c3f10)">
     <use style="fill:#377eb8;fill-opacity:0.7;stroke:#377eb8;stroke-opacity:0.7;" x="93.708977" xlink:href="#m502f909e85" y="19.296"/>
     <use style="fill:#377eb8;fill-opacity:0.7;stroke:#377eb8;stroke-opacity:0.7;" x="101.825341" xlink:href="#m502f909e85" y="20.581197"/>
     <use style="fill:#377eb8;fill-opacity:0.7;stroke:#377eb8;stroke-opacity:0.7;" x="109.941705" xlink:href="#m502f909e85" y="21.939904"/>
     <use style="fill:#377eb8;fill-opacity:0.7;stroke:#377eb8;stroke-opacity:0.7;" x="118.058068" xlink:href="#m502f909e85" y="23.475562"/>
     <use style="fill:#377eb8;fill-opacity:0.7;stroke:#377eb8;stroke-opacity:0.7;" x="126.174432" xlink:href="#m502f909e85" y="25.21203"/>
     <use style="fill:#377eb8;fill-opacity:0.7;stroke:#377eb8;stroke-opacity:0.7;" x="134.290795" xlink:href="#m502f909e85" y="27.15318"/>
     <use style="fill:#377eb8;fill-opacity:0.7;stroke:#377eb8;stroke-opacity:0.7;" x="142.407159" xlink:href="#m502f909e85" y="29.296736"/>
     <use style="fill:#377eb8;fill-opacity:0.7;stroke:#377eb8;stroke-opacity:0.7;" x="150.523523" xlink:href="#m502f909e85" y="31.640893"/>
     <use style="fill:#377eb8;fill-opacity:0.7;stroke:#377eb8;stroke-opacity:0.7;" x="158.639886" xlink:href="#m502f909e85" y="34.188064"/>
     <use style="fill:#377eb8;fill-opacity:0.7;stroke:#377eb8;stroke-opacity:0.7;" x="166.75625" xlink:href="#m502f909e85" y="36.948233"/>
     <use style="fill:#377eb8;fill-opacity:0.7;stroke:#377eb8;stroke-opacity:0.7;" x="174.872614" xlink:href="#m502f909e85" y="39.941721"/>
     <use style="fill:#377eb8;fill-opacity:0.7;stroke:#377eb8;stroke-opacity:0.7;" x="182.988977" xlink:href="#m502f909e85" y="43.201754"/>
     <use style="fill:#377eb8;fill-opacity:0.7;stroke:#377eb8;stroke-opacity:0.7;" x="191.105341" xlink:href="#m502f909e85" y="46.776393"/>
     <use style="fill:#377eb8;fill-opacity:0.7;stroke:#377eb8;stroke-opacity:0.7;" x="199.221705" xlink:href="#m502f909e85" y="50.730469"/>
     <use style="fill:#377eb8;fill-opacity:0.7;stroke:#377eb8;stroke-opacity:0.7;" x="207.338068" xlink:href="#m502f909e85" y="55.146399"/>
     <use style="fill:#377eb8;fill-opacity:0.7;stroke:#377eb8;stroke-opacity:0.7;" x="215.454432" xlink:href="#m502f909e85" y="60.124589"/>
     <use style="fill:#377eb8;fill-opacity:0.7;stroke:#377eb8;stroke-opacity:0.7;" x="223.570795" xlink:href="#m502f909e85" y="65.782584"/>
     <use style="fill:#377eb8;fill-opacity:0.7;stroke:#377eb8;stroke-opacity:0.7;" x="231.687159" xlink:href="#m502f909e85" y="72.252803"/>
     <use style="fill:#377eb8;fill-opacity:0.7;stroke:#377eb8;stroke-opacity:0.7;" x="239.803523" xlink:href="#m502f909e85" y="79.678599"/>
     <use style="fill:#377eb8;fill-opacity:0.7;stroke:#377eb8;stroke-opacity:0.7;" x="247.919886" xlink:href="#m502f909e85" y="88.207093"/>
     <use style="fill:#377eb8;fill-opacity:0.7;stroke:#377eb8;stroke-opacity:0.7;" x="256.03625" xlink:href="#m502f909e85" y="97.978259"/>
     <use style="fill:#377eb8;fill-opacity:0.7;stroke:#377eb8;stroke-opacity:0.7;" x="264.152614" xlink:href="#m502f909e85" y="109.105826"/>
     <use style="fill:#377eb8;fill-opacity:0.7;stroke:#377eb8;stroke-opacity:0.7;" x="272.268977" xlink:href="#m502f909e85" y="121.641209"/>
     <use style="fill:#377eb8;fill-opacity:0.7;stroke:#377eb8;stroke-opacity:0.7;" x="280.385341" xlink:href="#m502f909e85" y="135.494326"/>
     <use style="fill:#377eb8;fill-opacity:0.7;stroke:#377eb8;stroke-opacity:0.7;" x="288.501705" xlink:href="#m502f909e85" y="150.249949"/>
     <use style="fill:#377eb8;fill-opacity:0.7;stroke:#377eb8;stroke-opacity:0.7;" x="296.618068" xlink:href="#m502f909e85" y="164.897623"/>
     <use style="fill:#377eb8;fill-opacity:0.7;stroke:#377eb8;stroke-opacity:0.7;" x="304.734432" xlink:href="#m502f909e85" y="178.171464"/>
     <use style="fill:#377eb8;fill-opacity:0.7;stroke:#377eb8;stroke-opacity:0.7;" x="312.850795" xlink:href="#m502f909e85" y="189.601348"/>
     <use style="fill:#377eb8;fill-opacity:0.7;stroke:#377eb8;stroke-opacity:0.7;" x="320.967159" xlink:href="#m502f909e85" y="199.399916"/>
     <use style="fill:#377eb8;fill-opacity:0.7;stroke:#377eb8;stroke-opacity:0.7;" x="329.083523" xlink:href="#m502f909e85" y="207.890101"/>
     <use style="fill:#377eb8;fill-opacity:0.7;stroke:#377eb8;stroke-opacity:0.7;" x="337.199886" xlink:href="#m502f909e85" y="215.338988"/>
     <use style="fill:#377eb8;fill-opacity:0.7;stroke:#377eb8;stroke-opacity:0.7;" x="345.31625" xlink:href="#m502f909e85" y="221.956136"/>
     <use style="fill:#377eb8;fill-opacity:0.7;stroke:#377eb8;stroke-opacity:0.7;" x="353.432614" xlink:href="#m502f909e85" y="227.899057"/>
     <use style="fill:#377eb8;fill-opacity:0.7;stroke:#377eb8;stroke-opacity:0.7;" x="361.548977" xlink:href="#m502f909e85" y="233.288497"/>
     <use style="fill:#377eb8;fill-opacity:0.7;stroke:#377eb8;stroke-opacity:0.7;" x="369.665341" xlink:href="#m502f909e85" y="238.213448"/>
     <use style="fill:#377eb8;fill-opacity:0.7;stroke:#377eb8;stroke-opacity:0.7;" x="377.781705" xlink:href="#m502f909e85" y="242.748151"/>
     <use style="fill:#377eb8;fill-opacity:0.7;stroke:#377eb8;stroke-opacity:0.7;" x="385.898068" xlink:href="#m502f909e85" y="246.950303"/>
     <use style="fill:#377eb8;fill-opacity:0.7;stroke:#377eb8;stroke-opacity:0.7;" x="394.014432" xlink:href="#m502f909e85" y="250.864528"/>
     <use style="fill:#377eb8;fill-opacity:0.7;stroke:#377eb8;stroke-opacity:0.7;" x="402.130795" xlink:href="#m502f909e85" y="254.527872"/>
     <use style="fill:#377eb8;fill-opacity:0.7;stroke:#377eb8;stroke-opacity:0.7;" x="410.247159" xlink:href="#m502f909e85" y="257.969942"/>
     <use style="fill:#377eb8;fill-opacity:0.7;stroke:#377eb8;stroke-opacity:0.7;" x="418.363523" xlink:href="#m502f909e85" y="261.216"/>
    </g>
   </g>
   <g id="line2d_14">
    <path clip-path="url(#pbd953c3f10)" d="M 93.708977 19.296 
L 101.825341 20.530024 
L 109.941705 21.834996 
L 118.058068 23.310173 
L 126.174432 24.978567 
L 134.290795 26.843926 
L 142.407159 28.90423 
L 150.523523 31.157728 
L 158.639886 33.607043 
L 166.75625 36.261885 
L 174.872614 39.142168 
L 182.988977 42.280038 
L 191.105341 45.722251 
L 199.221705 49.531674 
L 207.338068 53.788472 
L 215.454432 58.590334 
L 223.570795 64.052093 
L 231.687159 70.303734 
L 239.803523 77.487201 
L 247.919886 85.750538 
L 256.03625 95.239288 
L 264.152614 106.081639 
L 272.268977 118.361363 
L 280.385341 132.056405 
L 288.501705 146.881491 
L 296.618068 161.956824 
L 304.734432 175.852351 
L 312.850795 187.812988 
L 320.967159 198.002873 
L 329.083523 206.779211 
L 337.199886 214.443189 
L 345.31625 221.223476 
L 353.432614 227.357422 
L 361.548977 232.851536 
L 369.665341 237.861666 
L 377.781705 242.471191 
L 385.898068 246.736356 
L 394.014432 250.711059 
L 402.130795 254.431672 
L 410.247159 257.927477 
L 418.363523 261.216 
" style="fill:none;stroke:#4daf4a;stroke-dasharray:3,4.95;stroke-dashoffset:0;stroke-opacity:0.7;stroke-width:3;"/>
    <defs>
     <path d="M 0 3 
C 0.795609 3 1.55874 2.683901 2.12132 2.12132 
C 2.683901 1.55874 3 0.795609 3 0 
C 3 -0.795609 2.683901 -1.55874 2.12132 -2.12132 
C 1.55874 -2.683901 0.795609 -3 0 -3 
C -0.795609 -3 -1.55874 -2.683901 -2.12132 -2.12132 
C -2.683901 -1.55874 -3 -0.795609 -3 0 
C -3 0.795609 -2.683901 1.55874 -2.12132 2.12132 
C -1.55874 2.683901 -0.795609 3 0 3 
z
" id="m7652eca019" style="stroke:#4daf4a;stroke-opacity:0.7;"/>
    </defs>
    <g clip-path="url(#pbd953c3f10)">
     <use style="fill:#4daf4a;fill-opacity:0.7;stroke:#4daf4a;stroke-opacity:0.7;" x="93.708977" xlink:href="#m7652eca019" y="19.296"/>
     <use style="fill:#4daf4a;fill-opacity:0.7;stroke:#4daf4a;stroke-opacity:0.7;" x="101.825341" xlink:href="#m7652eca019" y="20.530024"/>
     <use style="fill:#4daf4a;fill-opacity:0.7;stroke:#4daf4a;stroke-opacity:0.7;" x="109.941705" xlink:href="#m7652eca019" y="21.834996"/>
     <use style="fill:#4daf4a;fill-opacity:0.7;stroke:#4daf4a;stroke-opacity:0.7;" x="118.058068" xlink:href="#m7652eca019" y="23.310173"/>
     <use style="fill:#4daf4a;fill-opacity:0.7;stroke:#4daf4a;stroke-opacity:0.7;" x="126.174432" xlink:href="#m7652eca019" y="24.978567"/>
     <use style="fill:#4daf4a;fill-opacity:0.7;stroke:#4daf4a;stroke-opacity:0.7;" x="134.290795" xlink:href="#m7652eca019" y="26.843926"/>
     <use style="fill:#4daf4a;fill-opacity:0.7;stroke:#4daf4a;stroke-opacity:0.7;" x="142.407159" xlink:href="#m7652eca019" y="28.90423"/>
     <use style="fill:#4daf4a;fill-opacity:0.7;stroke:#4daf4a;stroke-opacity:0.7;" x="150.523523" xlink:href="#m7652eca019" y="31.157728"/>
     <use style="fill:#4daf4a;fill-opacity:0.7;stroke:#4daf4a;stroke-opacity:0.7;" x="158.639886" xlink:href="#m7652eca019" y="33.607043"/>
     <use style="fill:#4daf4a;fill-opacity:0.7;stroke:#4daf4a;stroke-opacity:0.7;" x="166.75625" xlink:href="#m7652eca019" y="36.261885"/>
     <use style="fill:#4daf4a;fill-opacity:0.7;stroke:#4daf4a;stroke-opacity:0.7;" x="174.872614" xlink:href="#m7652eca019" y="39.142168"/>
     <use style="fill:#4daf4a;fill-opacity:0.7;stroke:#4daf4a;stroke-opacity:0.7;" x="182.988977" xlink:href="#m7652eca019" y="42.280038"/>
     <use style="fill:#4daf4a;fill-opacity:0.7;stroke:#4daf4a;stroke-opacity:0.7;" x="191.105341" xlink:href="#m7652eca019" y="45.722251"/>
     <use style="fill:#4daf4a;fill-opacity:0.7;stroke:#4daf4a;stroke-opacity:0.7;" x="199.221705" xlink:href="#m7652eca019" y="49.531674"/>
     <use style="fill:#4daf4a;fill-opacity:0.7;stroke:#4daf4a;stroke-opacity:0.7;" x="207.338068" xlink:href="#m7652eca019" y="53.788472"/>
     <use style="fill:#4daf4a;fill-opacity:0.7;stroke:#4daf4a;stroke-opacity:0.7;" x="215.454432" xlink:href="#m7652eca019" y="58.590334"/>
     <use style="fill:#4daf4a;fill-opacity:0.7;stroke:#4daf4a;stroke-opacity:0.7;" x="223.570795" xlink:href="#m7652eca019" y="64.052093"/>
     <use style="fill:#4daf4a;fill-opacity:0.7;stroke:#4daf4a;stroke-opacity:0.7;" x="231.687159" xlink:href="#m7652eca019" y="70.303734"/>
     <use style="fill:#4daf4a;fill-opacity:0.7;stroke:#4daf4a;stroke-opacity:0.7;" x="239.803523" xlink:href="#m7652eca019" y="77.487201"/>
     <use style="fill:#4daf4a;fill-opacity:0.7;stroke:#4daf4a;stroke-opacity:0.7;" x="247.919886" xlink:href="#m7652eca019" y="85.750538"/>
     <use style="fill:#4daf4a;fill-opacity:0.7;stroke:#4daf4a;stroke-opacity:0.7;" x="256.03625" xlink:href="#m7652eca019" y="95.239288"/>
     <use style="fill:#4daf4a;fill-opacity:0.7;stroke:#4daf4a;stroke-opacity:0.7;" x="264.152614" xlink:href="#m7652eca019" y="106.081639"/>
     <use style="fill:#4daf4a;fill-opacity:0.7;stroke:#4daf4a;stroke-opacity:0.7;" x="272.268977" xlink:href="#m7652eca019" y="118.361363"/>
     <use style="fill:#4daf4a;fill-opacity:0.7;stroke:#4daf4a;stroke-opacity:0.7;" x="280.385341" xlink:href="#m7652eca019" y="132.056405"/>
     <use style="fill:#4daf4a;fill-opacity:0.7;stroke:#4daf4a;stroke-opacity:0.7;" x="288.501705" xlink:href="#m7652eca019" y="146.881491"/>
     <use style="fill:#4daf4a;fill-opacity:0.7;stroke:#4daf4a;stroke-opacity:0.7;" x="296.618068" xlink:href="#m7652eca019" y="161.956824"/>
     <use style="fill:#4daf4a;fill-opacity:0.7;stroke:#4daf4a;stroke-opacity:0.7;" x="304.734432" xlink:href="#m7652eca019" y="175.852351"/>
     <use style="fill:#4daf4a;fill-opacity:0.7;stroke:#4daf4a;stroke-opacity:0.7;" x="312.850795" xlink:href="#m7652eca019" y="187.812988"/>
     <use style="fill:#4daf4a;fill-opacity:0.7;stroke:#4daf4a;stroke-opacity:0.7;" x="320.967159" xlink:href="#m7652eca019" y="198.002873"/>
     <use style="fill:#4daf4a;fill-opacity:0.7;stroke:#4daf4a;stroke-opacity:0.7;" x="329.083523" xlink:href="#m7652eca019" y="206.779211"/>
     <use style="fill:#4daf4a;fill-opacity:0.7;stroke:#4daf4a;stroke-opacity:0.7;" x="337.199886" xlink:href="#m7652eca019" y="214.443189"/>
     <use style="fill:#4daf4a;fill-opacity:0.7;stroke:#4daf4a;stroke-opacity:0.7;" x="345.31625" xlink:href="#m7652eca019" y="221.223476"/>
     <use style="fill:#4daf4a;fill-opacity:0.7;stroke:#4daf4a;stroke-opacity:0.7;" x="353.432614" xlink:href="#m7652eca019" y="227.357422"/>
     <use style="fill:#4daf4a;fill-opacity:0.7;stroke:#4daf4a;stroke-opacity:0.7;" x="361.548977" xlink:href="#m7652eca019" y="232.851536"/>
     <use style="fill:#4daf4a;fill-opacity:0.7;stroke:#4daf4a;stroke-opacity:0.7;" x="369.665341" xlink:href="#m7652eca019" y="237.861666"/>
     <use style="fill:#4daf4a;fill-opacity:0.7;stroke:#4daf4a;stroke-opacity:0.7;" x="377.781705" xlink:href="#m7652eca019" y="242.471191"/>
     <use style="fill:#4daf4a;fill-opacity:0.7;stroke:#4daf4a;stroke-opacity:0.7;" x="385.898068" xlink:href="#m7652eca019" y="246.736356"/>
     <use style="fill:#4daf4a;fill-opacity:0.7;stroke:#4daf4a;stroke-opacity:0.7;" x="394.014432" xlink:href="#m7652eca019" y="250.711059"/>
     <use style="fill:#4daf4a;fill-opacity:0.7;stroke:#4daf4a;stroke-opacity:0.7;" x="402.130795" xlink:href="#m7652eca019" y="254.431672"/>
     <use style="fill:#4daf4a;fill-opacity:0.7;stroke:#4daf4a;stroke-opacity:0.7;" x="410.247159" xlink:href="#m7652eca019" y="257.927477"/>
     <use style="fill:#4daf4a;fill-opacity:0.7;stroke:#4daf4a;stroke-opacity:0.7;" x="418.363523" xlink:href="#m7652eca019" y="261.216"/>
    </g>
   </g>
   <g id="line2d_15">
    <path clip-path="url(#pbd953c3f10)" d="M 93.708977 19.296 
L 101.825341 20.492189 
L 109.941705 21.757308 
L 118.058068 23.187678 
L 126.174432 24.805573 
L 134.290795 26.614658 
L 142.407159 28.613054 
L 150.523523 30.799193 
L 158.639886 33.175639 
L 166.75625 35.752019 
L 174.872614 38.547716 
L 182.988977 41.594277 
L 191.105341 44.937246 
L 199.221705 48.638037 
L 207.338068 52.774986 
L 215.454432 57.443702 
L 223.570795 62.756629 
L 231.687159 68.841711 
L 239.803523 75.839255 
L 247.919886 83.897297 
L 256.03625 93.164073 
L 264.152614 103.776523 
L 272.268977 115.838778 
L 280.385341 129.3741 
L 288.501705 144.192172 
L 296.618068 159.550108 
L 304.734432 173.954497 
L 312.850795 186.375986 
L 320.967159 196.906496 
L 329.083523 205.926379 
L 337.199886 213.826337 
L 345.31625 220.737013 
L 353.432614 226.915672 
L 361.548977 232.500896 
L 369.665341 237.593796 
L 377.781705 242.276654 
L 385.898068 246.580571 
L 394.014432 250.600375 
L 402.130795 254.353759 
L 410.247159 257.878687 
L 418.363523 261.216 
" style="fill:none;stroke:#984ea3;stroke-dasharray:3,4.95;stroke-dashoffset:0;stroke-opacity:0.7;stroke-width:3;"/>
    <defs>
     <path d="M 0 3 
C 0.795609 3 1.55874 2.683901 2.12132 2.12132 
C 2.683901 1.55874 3 0.795609 3 0 
C 3 -0.795609 2.683901 -1.55874 2.12132 -2.12132 
C 1.55874 -2.683901 0.795609 -3 0 -3 
C -0.795609 -3 -1.55874 -2.683901 -2.12132 -2.12132 
C -2.683901 -1.55874 -3 -0.795609 -3 0 
C -3 0.795609 -2.683901 1.55874 -2.12132 2.12132 
C -1.55874 2.683901 -0.795609 3 0 3 
z
" id="m0549e113fa" style="stroke:#984ea3;stroke-opacity:0.7;"/>
    </defs>
    <g clip-path="url(#pbd953c3f10)">
     <use style="fill:#984ea3;fill-opacity:0.7;stroke:#984ea3;stroke-opacity:0.7;" x="93.708977" xlink:href="#m0549e113fa" y="19.296"/>
     <use style="fill:#984ea3;fill-opacity:0.7;stroke:#984ea3;stroke-opacity:0.7;" x="101.825341" xlink:href="#m0549e113fa" y="20.492189"/>
     <use style="fill:#984ea3;fill-opacity:0.7;stroke:#984ea3;stroke-opacity:0.7;" x="109.941705" xlink:href="#m0549e113fa" y="21.757308"/>
     <use style="fill:#984ea3;fill-opacity:0.7;stroke:#984ea3;stroke-opacity:0.7;" x="118.058068" xlink:href="#m0549e113fa" y="23.187678"/>
     <use style="fill:#984ea3;fill-opacity:0.7;stroke:#984ea3;stroke-opacity:0.7;" x="126.174432" xlink:href="#m0549e113fa" y="24.805573"/>
     <use style="fill:#984ea3;fill-opacity:0.7;stroke:#984ea3;stroke-opacity:0.7;" x="134.290795" xlink:href="#m0549e113fa" y="26.614658"/>
     <use style="fill:#984ea3;fill-opacity:0.7;stroke:#984ea3;stroke-opacity:0.7;" x="142.407159" xlink:href="#m0549e113fa" y="28.613054"/>
     <use style="fill:#984ea3;fill-opacity:0.7;stroke:#984ea3;stroke-opacity:0.7;" x="150.523523" xlink:href="#m0549e113fa" y="30.799193"/>
     <use style="fill:#984ea3;fill-opacity:0.7;stroke:#984ea3;stroke-opacity:0.7;" x="158.639886" xlink:href="#m0549e113fa" y="33.175639"/>
     <use style="fill:#984ea3;fill-opacity:0.7;stroke:#984ea3;stroke-opacity:0.7;" x="166.75625" xlink:href="#m0549e113fa" y="35.752019"/>
     <use style="fill:#984ea3;fill-opacity:0.7;stroke:#984ea3;stroke-opacity:0.7;" x="174.872614" xlink:href="#m0549e113fa" y="38.547716"/>
     <use style="fill:#984ea3;fill-opacity:0.7;stroke:#984ea3;stroke-opacity:0.7;" x="182.988977" xlink:href="#m0549e113fa" y="41.594277"/>
     <use style="fill:#984ea3;fill-opacity:0.7;stroke:#984ea3;stroke-opacity:0.7;" x="191.105341" xlink:href="#m0549e113fa" y="44.937246"/>
     <use style="fill:#984ea3;fill-opacity:0.7;stroke:#984ea3;stroke-opacity:0.7;" x="199.221705" xlink:href="#m0549e113fa" y="48.638037"/>
     <use style="fill:#984ea3;fill-opacity:0.7;stroke:#984ea3;stroke-opacity:0.7;" x="207.338068" xlink:href="#m0549e113fa" y="52.774986"/>
     <use style="fill:#984ea3;fill-opacity:0.7;stroke:#984ea3;stroke-opacity:0.7;" x="215.454432" xlink:href="#m0549e113fa" y="57.443702"/>
     <use style="fill:#984ea3;fill-opacity:0.7;stroke:#984ea3;stroke-opacity:0.7;" x="223.570795" xlink:href="#m0549e113fa" y="62.756629"/>
     <use style="fill:#984ea3;fill-opacity:0.7;stroke:#984ea3;stroke-opacity:0.7;" x="231.687159" xlink:href="#m0549e113fa" y="68.841711"/>
     <use style="fill:#984ea3;fill-opacity:0.7;stroke:#984ea3;stroke-opacity:0.7;" x="239.803523" xlink:href="#m0549e113fa" y="75.839255"/>
     <use style="fill:#984ea3;fill-opacity:0.7;stroke:#984ea3;stroke-opacity:0.7;" x="247.919886" xlink:href="#m0549e113fa" y="83.897297"/>
     <use style="fill:#984ea3;fill-opacity:0.7;stroke:#984ea3;stroke-opacity:0.7;" x="256.03625" xlink:href="#m0549e113fa" y="93.164073"/>
     <use style="fill:#984ea3;fill-opacity:0.7;stroke:#984ea3;stroke-opacity:0.7;" x="264.152614" xlink:href="#m0549e113fa" y="103.776523"/>
     <use style="fill:#984ea3;fill-opacity:0.7;stroke:#984ea3;stroke-opacity:0.7;" x="272.268977" xlink:href="#m0549e113fa" y="115.838778"/>
     <use style="fill:#984ea3;fill-opacity:0.7;stroke:#984ea3;stroke-opacity:0.7;" x="280.385341" xlink:href="#m0549e113fa" y="129.3741"/>
     <use style="fill:#984ea3;fill-opacity:0.7;stroke:#984ea3;stroke-opacity:0.7;" x="288.501705" xlink:href="#m0549e113fa" y="144.192172"/>
     <use style="fill:#984ea3;fill-opacity:0.7;stroke:#984ea3;stroke-opacity:0.7;" x="296.618068" xlink:href="#m0549e113fa" y="159.550108"/>
     <use style="fill:#984ea3;fill-opacity:0.7;stroke:#984ea3;stroke-opacity:0.7;" x="304.734432" xlink:href="#m0549e113fa" y="173.954497"/>
     <use style="fill:#984ea3;fill-opacity:0.7;stroke:#984ea3;stroke-opacity:0.7;" x="312.850795" xlink:href="#m0549e113fa" y="186.375986"/>
     <use style="fill:#984ea3;fill-opacity:0.7;stroke:#984ea3;stroke-opacity:0.7;" x="320.967159" xlink:href="#m0549e113fa" y="196.906496"/>
     <use style="fill:#984ea3;fill-opacity:0.7;stroke:#984ea3;stroke-opacity:0.7;" x="329.083523" xlink:href="#m0549e113fa" y="205.926379"/>
     <use style="fill:#984ea3;fill-opacity:0.7;stroke:#984ea3;stroke-opacity:0.7;" x="337.199886" xlink:href="#m0549e113fa" y="213.826337"/>
     <use style="fill:#984ea3;fill-opacity:0.7;stroke:#984ea3;stroke-opacity:0.7;" x="345.31625" xlink:href="#m0549e113fa" y="220.737013"/>
     <use style="fill:#984ea3;fill-opacity:0.7;stroke:#984ea3;stroke-opacity:0.7;" x="353.432614" xlink:href="#m0549e113fa" y="226.915672"/>
     <use style="fill:#984ea3;fill-opacity:0.7;stroke:#984ea3;stroke-opacity:0.7;" x="361.548977" xlink:href="#m0549e113fa" y="232.500896"/>
     <use style="fill:#984ea3;fill-opacity:0.7;stroke:#984ea3;stroke-opacity:0.7;" x="369.665341" xlink:href="#m0549e113fa" y="237.593796"/>
     <use style="fill:#984ea3;fill-opacity:0.7;stroke:#984ea3;stroke-opacity:0.7;" x="377.781705" xlink:href="#m0549e113fa" y="242.276654"/>
     <use style="fill:#984ea3;fill-opacity:0.7;stroke:#984ea3;stroke-opacity:0.7;" x="385.898068" xlink:href="#m0549e113fa" y="246.580571"/>
     <use style="fill:#984ea3;fill-opacity:0.7;stroke:#984ea3;stroke-opacity:0.7;" x="394.014432" xlink:href="#m0549e113fa" y="250.600375"/>
     <use style="fill:#984ea3;fill-opacity:0.7;stroke:#984ea3;stroke-opacity:0.7;" x="402.130795" xlink:href="#m0549e113fa" y="254.353759"/>
     <use style="fill:#984ea3;fill-opacity:0.7;stroke:#984ea3;stroke-opacity:0.7;" x="410.247159" xlink:href="#m0549e113fa" y="257.878687"/>
     <use style="fill:#984ea3;fill-opacity:0.7;stroke:#984ea3;stroke-opacity:0.7;" x="418.363523" xlink:href="#m0549e113fa" y="261.216"/>
    </g>
   </g>
   <g id="line2d_16">
    <path clip-path="url(#pbd953c3f10)" d="M 93.708977 19.296 
L 101.825341 20.462533 
L 109.941705 21.696456 
L 118.058068 23.091617 
L 126.174432 24.669902 
L 134.290795 26.434805 
L 142.407159 28.384537 
L 150.523523 30.517687 
L 158.639886 32.836771 
L 166.75625 35.351345 
L 174.872614 38.080374 
L 182.988977 41.054807 
L 191.105341 44.319291 
L 199.221705 47.934081 
L 207.338068 51.975926 
L 215.454432 56.538687 
L 223.570795 61.73293 
L 231.687159 67.684701 
L 239.803523 74.532778 
L 247.919886 82.424587 
L 256.03625 91.509885 
L 264.152614 101.931038 
L 272.268977 113.806092 
L 280.385341 127.19005 
L 288.501705 141.963507 
L 296.618068 157.5083 
L 304.734432 172.335212 
L 312.850795 185.168186 
L 320.967159 196.000931 
L 329.083523 205.293093 
L 337.199886 213.290557 
L 345.31625 220.323069 
L 353.432614 226.59098 
L 361.548977 232.250727 
L 369.665341 237.413217 
L 377.781705 242.149837 
L 385.898068 246.513178 
L 394.014432 250.548027 
L 402.130795 254.352225 
L 410.247159 257.915943 
L 418.363523 261.216 
" style="fill:none;stroke:#ff7f00;stroke-dasharray:3,4.95;stroke-dashoffset:0;stroke-opacity:0.7;stroke-width:3;"/>
    <defs>
     <path d="M 0 3 
C 0.795609 3 1.55874 2.683901 2.12132 2.12132 
C 2.683901 1.55874 3 0.795609 3 0 
C 3 -0.795609 2.683901 -1.55874 2.12132 -2.12132 
C 1.55874 -2.683901 0.795609 -3 0 -3 
C -0.795609 -3 -1.55874 -2.683901 -2.12132 -2.12132 
C -2.683901 -1.55874 -3 -0.795609 -3 0 
C -3 0.795609 -2.683901 1.55874 -2.12132 2.12132 
C -1.55874 2.683901 -0.795609 3 0 3 
z
" id="m4327bc34d2" style="stroke:#ff7f00;stroke-opacity:0.7;"/>
    </defs>
    <g clip-path="url(#pbd953c3f10)">
     <use style="fill:#ff7f00;fill-opacity:0.7;stroke:#ff7f00;stroke-opacity:0.7;" x="93.708977" xlink:href="#m4327bc34d2" y="19.296"/>
     <use style="fill:#ff7f00;fill-opacity:0.7;stroke:#ff7f00;stroke-opacity:0.7;" x="101.825341" xlink:href="#m4327bc34d2" y="20.462533"/>
     <use style="fill:#ff7f00;fill-opacity:0.7;stroke:#ff7f00;stroke-opacity:0.7;" x="109.941705" xlink:href="#m4327bc34d2" y="21.696456"/>
     <use style="fill:#ff7f00;fill-opacity:0.7;stroke:#ff7f00;stroke-opacity:0.7;" x="118.058068" xlink:href="#m4327bc34d2" y="23.091617"/>
     <use style="fill:#ff7f00;fill-opacity:0.7;stroke:#ff7f00;stroke-opacity:0.7;" x="126.174432" xlink:href="#m4327bc34d2" y="24.669902"/>
     <use style="fill:#ff7f00;fill-opacity:0.7;stroke:#ff7f00;stroke-opacity:0.7;" x="134.290795" xlink:href="#m4327bc34d2" y="26.434805"/>
     <use style="fill:#ff7f00;fill-opacity:0.7;stroke:#ff7f00;stroke-opacity:0.7;" x="142.407159" xlink:href="#m4327bc34d2" y="28.384537"/>
     <use style="fill:#ff7f00;fill-opacity:0.7;stroke:#ff7f00;stroke-opacity:0.7;" x="150.523523" xlink:href="#m4327bc34d2" y="30.517687"/>
     <use style="fill:#ff7f00;fill-opacity:0.7;stroke:#ff7f00;stroke-opacity:0.7;" x="158.639886" xlink:href="#m4327bc34d2" y="32.836771"/>
     <use style="fill:#ff7f00;fill-opacity:0.7;stroke:#ff7f00;stroke-opacity:0.7;" x="166.75625" xlink:href="#m4327bc34d2" y="35.351345"/>
     <use style="fill:#ff7f00;fill-opacity:0.7;stroke:#ff7f00;stroke-opacity:0.7;" x="174.872614" xlink:href="#m4327bc34d2" y="38.080374"/>
     <use style="fill:#ff7f00;fill-opacity:0.7;stroke:#ff7f00;stroke-opacity:0.7;" x="182.988977" xlink:href="#m4327bc34d2" y="41.054807"/>
     <use style="fill:#ff7f00;fill-opacity:0.7;stroke:#ff7f00;stroke-opacity:0.7;" x="191.105341" xlink:href="#m4327bc34d2" y="44.319291"/>
     <use style="fill:#ff7f00;fill-opacity:0.7;stroke:#ff7f00;stroke-opacity:0.7;" x="199.221705" xlink:href="#m4327bc34d2" y="47.934081"/>
     <use style="fill:#ff7f00;fill-opacity:0.7;stroke:#ff7f00;stroke-opacity:0.7;" x="207.338068" xlink:href="#m4327bc34d2" y="51.975926"/>
     <use style="fill:#ff7f00;fill-opacity:0.7;stroke:#ff7f00;stroke-opacity:0.7;" x="215.454432" xlink:href="#m4327bc34d2" y="56.538687"/>
     <use style="fill:#ff7f00;fill-opacity:0.7;stroke:#ff7f00;stroke-opacity:0.7;" x="223.570795" xlink:href="#m4327bc34d2" y="61.73293"/>
     <use style="fill:#ff7f00;fill-opacity:0.7;stroke:#ff7f00;stroke-opacity:0.7;" x="231.687159" xlink:href="#m4327bc34d2" y="67.684701"/>
     <use style="fill:#ff7f00;fill-opacity:0.7;stroke:#ff7f00;stroke-opacity:0.7;" x="239.803523" xlink:href="#m4327bc34d2" y="74.532778"/>
     <use style="fill:#ff7f00;fill-opacity:0.7;stroke:#ff7f00;stroke-opacity:0.7;" x="247.919886" xlink:href="#m4327bc34d2" y="82.424587"/>
     <use style="fill:#ff7f00;fill-opacity:0.7;stroke:#ff7f00;stroke-opacity:0.7;" x="256.03625" xlink:href="#m4327bc34d2" y="91.509885"/>
     <use style="fill:#ff7f00;fill-opacity:0.7;stroke:#ff7f00;stroke-opacity:0.7;" x="264.152614" xlink:href="#m4327bc34d2" y="101.931038"/>
     <use style="fill:#ff7f00;fill-opacity:0.7;stroke:#ff7f00;stroke-opacity:0.7;" x="272.268977" xlink:href="#m4327bc34d2" y="113.806092"/>
     <use style="fill:#ff7f00;fill-opacity:0.7;stroke:#ff7f00;stroke-opacity:0.7;" x="280.385341" xlink:href="#m4327bc34d2" y="127.19005"/>
     <use style="fill:#ff7f00;fill-opacity:0.7;stroke:#ff7f00;stroke-opacity:0.7;" x="288.501705" xlink:href="#m4327bc34d2" y="141.963507"/>
     <use style="fill:#ff7f00;fill-opacity:0.7;stroke:#ff7f00;stroke-opacity:0.7;" x="296.618068" xlink:href="#m4327bc34d2" y="157.5083"/>
     <use style="fill:#ff7f00;fill-opacity:0.7;stroke:#ff7f00;stroke-opacity:0.7;" x="304.734432" xlink:href="#m4327bc34d2" y="172.335212"/>
     <use style="fill:#ff7f00;fill-opacity:0.7;stroke:#ff7f00;stroke-opacity:0.7;" x="312.850795" xlink:href="#m4327bc34d2" y="185.168186"/>
     <use style="fill:#ff7f00;fill-opacity:0.7;stroke:#ff7f00;stroke-opacity:0.7;" x="320.967159" xlink:href="#m4327bc34d2" y="196.000931"/>
     <use style="fill:#ff7f00;fill-opacity:0.7;stroke:#ff7f00;stroke-opacity:0.7;" x="329.083523" xlink:href="#m4327bc34d2" y="205.293093"/>
     <use style="fill:#ff7f00;fill-opacity:0.7;stroke:#ff7f00;stroke-opacity:0.7;" x="337.199886" xlink:href="#m4327bc34d2" y="213.290557"/>
     <use style="fill:#ff7f00;fill-opacity:0.7;stroke:#ff7f00;stroke-opacity:0.7;" x="345.31625" xlink:href="#m4327bc34d2" y="220.323069"/>
     <use style="fill:#ff7f00;fill-opacity:0.7;stroke:#ff7f00;stroke-opacity:0.7;" x="353.432614" xlink:href="#m4327bc34d2" y="226.59098"/>
     <use style="fill:#ff7f00;fill-opacity:0.7;stroke:#ff7f00;stroke-opacity:0.7;" x="361.548977" xlink:href="#m4327bc34d2" y="232.250727"/>
     <use style="fill:#ff7f00;fill-opacity:0.7;stroke:#ff7f00;stroke-opacity:0.7;" x="369.665341" xlink:href="#m4327bc34d2" y="237.413217"/>
     <use style="fill:#ff7f00;fill-opacity:0.7;stroke:#ff7f00;stroke-opacity:0.7;" x="377.781705" xlink:href="#m4327bc34d2" y="242.149837"/>
     <use style="fill:#ff7f00;fill-opacity:0.7;stroke:#ff7f00;stroke-opacity:0.7;" x="385.898068" xlink:href="#m4327bc34d2" y="246.513178"/>
     <use style="fill:#ff7f00;fill-opacity:0.7;stroke:#ff7f00;stroke-opacity:0.7;" x="394.014432" xlink:href="#m4327bc34d2" y="250.548027"/>
     <use style="fill:#ff7f00;fill-opacity:0.7;stroke:#ff7f00;stroke-opacity:0.7;" x="402.130795" xlink:href="#m4327bc34d2" y="254.352225"/>
     <use style="fill:#ff7f00;fill-opacity:0.7;stroke:#ff7f00;stroke-opacity:0.7;" x="410.247159" xlink:href="#m4327bc34d2" y="257.915943"/>
     <use style="fill:#ff7f00;fill-opacity:0.7;stroke:#ff7f00;stroke-opacity:0.7;" x="418.363523" xlink:href="#m4327bc34d2" y="261.216"/>
    </g>
   </g>
   <g id="patch_3">
    <path d="M 77.47625 273.312 
L 77.47625 7.2 
" style="fill:none;stroke:#000000;stroke-linecap:square;stroke-linejoin:miter;stroke-width:0.8;"/>
   </g>
   <g id="patch_4">
    <path d="M 434.59625 273.312 
L 434.59625 7.2 
" style="fill:none;stroke:#000000;stroke-linecap:square;stroke-linejoin:miter;stroke-width:0.8;"/>
   </g>
   <g id="patch_5">
    <path d="M 77.47625 273.312 
L 434.59625 273.312 
" style="fill:none;stroke:#000000;stroke-linecap:square;stroke-linejoin:miter;stroke-width:0.8;"/>
   </g>
   <g id="patch_6">
    <path d="M 77.47625 7.2 
L 434.59625 7.2 
" style="fill:none;stroke:#000000;stroke-linecap:square;stroke-linejoin:miter;stroke-width:0.8;"/>
   </g>
   <g id="legend_1">
    <g id="patch_7">
     <path d="M 312.002188 153.703125 
L 421.99625 153.703125 
Q 425.59625 153.703125 425.59625 150.103125 
L 425.59625 19.8 
Q 425.59625 16.2 421.99625 16.2 
L 312.002188 16.2 
Q 308.402188 16.2 308.402188 19.8 
L 308.402188 150.103125 
Q 308.402188 153.703125 312.002188 153.703125 
z
" style="fill:#ffffff;opacity:0.8;stroke:#cccccc;stroke-linejoin:miter;"/>
    </g>
    <g id="line2d_17">
     <path d="M 315.602188 30.777187 
L 351.602188 30.777187 
" style="fill:none;stroke:#e41a1c;stroke-dasharray:3,4.95;stroke-dashoffset:0;stroke-opacity:0.7;stroke-width:3;"/>
    </g>
    <g id="line2d_18">
     <g>
      <use style="fill:#e41a1c;fill-opacity:0.7;stroke:#e41a1c;stroke-opacity:0.7;" x="333.602188" xlink:href="#m9e17fb969d" y="30.777187"/>
     </g>
    </g>
    <g id="text_14">
     <!-- L-300 -->
     <defs>
      <path d="M 5.515625 0 
L 5.515625 5.171875 
L 14.796875 5.171875 
L 14.796875 67.671875 
L 5.515625 67.671875 
L 5.515625 72.90625 
L 33.984375 72.90625 
L 33.984375 67.671875 
L 24.703125 67.671875 
L 24.703125 6 
L 58.015625 6 
L 58.015625 18.21875 
L 64.015625 18.21875 
L 64.015625 0 
z
" id="DejaVuSerif-76"/>
      <path d="M 4.390625 30.609375 
L 29.390625 30.609375 
L 29.390625 23 
L 4.390625 23 
z
" id="DejaVuSerif-45"/>
     </defs>
     <g transform="translate(366.002188 37.077187)scale(0.18 -0.18)">
      <use xlink:href="#DejaVuSerif-76"/>
      <use x="66.40625" xlink:href="#DejaVuSerif-45"/>
      <use x="100.195312" xlink:href="#DejaVuSerif-51"/>
      <use x="163.818359" xlink:href="#DejaVuSerif-48"/>
      <use x="227.441406" xlink:href="#DejaVuSerif-48"/>
     </g>
    </g>
    <g id="line2d_19">
     <path d="M 315.602188 57.197812 
L 351.602188 57.197812 
" style="fill:none;stroke:#377eb8;stroke-dasharray:3,4.95;stroke-dashoffset:0;stroke-opacity:0.7;stroke-width:3;"/>
    </g>
    <g id="line2d_20">
     <g>
      <use style="fill:#377eb8;fill-opacity:0.7;stroke:#377eb8;stroke-opacity:0.7;" x="333.602188" xlink:href="#m502f909e85" y="57.197812"/>
     </g>
    </g>
    <g id="text_15">
     <!-- L-400 -->
     <g transform="translate(366.002188 63.497812)scale(0.18 -0.18)">
      <use xlink:href="#DejaVuSerif-76"/>
      <use x="66.40625" xlink:href="#DejaVuSerif-45"/>
      <use x="100.195312" xlink:href="#DejaVuSerif-52"/>
      <use x="163.818359" xlink:href="#DejaVuSerif-48"/>
      <use x="227.441406" xlink:href="#DejaVuSerif-48"/>
     </g>
    </g>
    <g id="line2d_21">
     <path d="M 315.602188 83.618437 
L 351.602188 83.618437 
" style="fill:none;stroke:#4daf4a;stroke-dasharray:3,4.95;stroke-dashoffset:0;stroke-opacity:0.7;stroke-width:3;"/>
    </g>
    <g id="line2d_22">
     <g>
      <use style="fill:#4daf4a;fill-opacity:0.7;stroke:#4daf4a;stroke-opacity:0.7;" x="333.602188" xlink:href="#m7652eca019" y="83.618437"/>
     </g>
    </g>
    <g id="text_16">
     <!-- L-500 -->
     <defs>
      <path d="M 50.296875 72.90625 
L 50.296875 64.890625 
L 16.890625 64.890625 
L 16.890625 44 
Q 19.4375 45.75 22.828125 46.625 
Q 26.21875 47.515625 30.421875 47.515625 
Q 42.234375 47.515625 49.0625 40.96875 
Q 55.90625 34.421875 55.90625 23.09375 
Q 55.90625 11.53125 49 5.046875 
Q 42.09375 -1.421875 29.59375 -1.421875 
Q 24.5625 -1.421875 19.28125 -0.1875 
Q 14.015625 1.03125 8.5 3.515625 
L 8.5 17.671875 
L 14.015625 17.671875 
Q 14.453125 10.75 18.421875 7.078125 
Q 22.40625 3.421875 29.59375 3.421875 
Q 37.3125 3.421875 41.453125 8.5 
Q 45.609375 13.578125 45.609375 23.09375 
Q 45.609375 32.5625 41.484375 37.609375 
Q 37.359375 42.671875 29.59375 42.671875 
Q 25.203125 42.671875 21.84375 41.109375 
Q 18.5 39.546875 15.921875 36.28125 
L 11.71875 36.28125 
L 11.71875 72.90625 
z
" id="DejaVuSerif-53"/>
     </defs>
     <g transform="translate(366.002188 89.918437)scale(0.18 -0.18)">
      <use xlink:href="#DejaVuSerif-76"/>
      <use x="66.40625" xlink:href="#DejaVuSerif-45"/>
      <use x="100.195312" xlink:href="#DejaVuSerif-53"/>
      <use x="163.818359" xlink:href="#DejaVuSerif-48"/>
      <use x="227.441406" xlink:href="#DejaVuSerif-48"/>
     </g>
    </g>
    <g id="line2d_23">
     <path d="M 315.602188 110.039062 
L 351.602188 110.039062 
" style="fill:none;stroke:#984ea3;stroke-dasharray:3,4.95;stroke-dashoffset:0;stroke-opacity:0.7;stroke-width:3;"/>
    </g>
    <g id="line2d_24">
     <g>
      <use style="fill:#984ea3;fill-opacity:0.7;stroke:#984ea3;stroke-opacity:0.7;" x="333.602188" xlink:href="#m0549e113fa" y="110.039062"/>
     </g>
    </g>
    <g id="text_17">
     <!-- L-600 -->
     <g transform="translate(366.002188 116.339062)scale(0.18 -0.18)">
      <use xlink:href="#DejaVuSerif-76"/>
      <use x="66.40625" xlink:href="#DejaVuSerif-45"/>
      <use x="100.195312" xlink:href="#DejaVuSerif-54"/>
      <use x="163.818359" xlink:href="#DejaVuSerif-48"/>
      <use x="227.441406" xlink:href="#DejaVuSerif-48"/>
     </g>
    </g>
    <g id="line2d_25">
     <path d="M 315.602188 136.459687 
L 351.602188 136.459687 
" style="fill:none;stroke:#ff7f00;stroke-dasharray:3,4.95;stroke-dashoffset:0;stroke-opacity:0.7;stroke-width:3;"/>
    </g>
    <g id="line2d_26">
     <g>
      <use style="fill:#ff7f00;fill-opacity:0.7;stroke:#ff7f00;stroke-opacity:0.7;" x="333.602188" xlink:href="#m4327bc34d2" y="136.459687"/>
     </g>
    </g>
    <g id="text_18">
     <!-- L-700 -->
     <defs>
      <path d="M 56.390625 67.921875 
L 27.875 0 
L 20.609375 0 
L 47.796875 64.890625 
L 14.109375 64.890625 
L 14.109375 55.90625 
L 8.40625 55.90625 
L 8.40625 72.90625 
L 56.390625 72.90625 
z
" id="DejaVuSerif-55"/>
     </defs>
     <g transform="translate(366.002188 142.759687)scale(0.18 -0.18)">
      <use xlink:href="#DejaVuSerif-76"/>
      <use x="66.40625" xlink:href="#DejaVuSerif-45"/>
      <use x="100.195312" xlink:href="#DejaVuSerif-55"/>
      <use x="163.818359" xlink:href="#DejaVuSerif-48"/>
      <use x="227.441406" xlink:href="#DejaVuSerif-48"/>
     </g>
    </g>
   </g>
  </g>
 </g>
 <defs>
  <clipPath id="pbd953c3f10">
   <rect height="266.112" width="357.12" x="77.47625" y="7.2"/>
  </clipPath>
 </defs>
</svg>
