<?xml version="1.0" encoding="utf-8" standalone="no"?>
<!DOCTYPE svg PUBLIC "-//W3C//DTD SVG 1.1//EN"
  "http://www.w3.org/Graphics/SVG/1.1/DTD/svg11.dtd">
<!-- Created with matplotlib (https://matplotlib.org/) -->
<svg height="339.68825pt" version="1.1" viewBox="0 0 441.79625 339.68825" width="441.79625pt" xmlns="http://www.w3.org/2000/svg" xmlns:xlink="http://www.w3.org/1999/xlink">
 <defs>
  <style type="text/css">
*{stroke-linecap:butt;stroke-linejoin:round;}
  </style>
 </defs>
 <g id="figure_1">
  <g id="patch_1">
   <path d="M 0 339.68825 
L 441.79625 339.68825 
L 441.79625 0 
L 0 0 
z
" style="fill:#ffffff;"/>
  </g>
  <g id="axes_1">
   <g id="patch_2">
    <path d="M 77.47625 273.312 
L 434.59625 273.312 
L 434.59625 7.2 
L 77.47625 7.2 
z
" style="fill:#ffffff;"/>
   </g>
   <g id="matplotlib.axis_1">
    <g id="xtick_1">
     <g id="line2d_1">
      <defs>
       <path d="M 0 0 
L 0 -8 
" id="mcbdea4ff5d" style="stroke:#000000;stroke-width:0.8;"/>
      </defs>
      <g>
       <use style="stroke:#000000;stroke-width:0.8;" x="85.592614" xlink:href="#mcbdea4ff5d" y="273.312"/>
      </g>
     </g>
     <g id="text_1">
      <!-- 0.0 -->
      <defs>
       <path d="M 31.78125 3.421875 
Q 39.265625 3.421875 42.96875 11.625 
Q 46.6875 19.828125 46.6875 36.375 
Q 46.6875 52.984375 42.96875 61.1875 
Q 39.265625 69.390625 31.78125 69.390625 
Q 24.3125 69.390625 20.59375 61.1875 
Q 16.890625 52.984375 16.890625 36.375 
Q 16.890625 19.828125 20.59375 11.625 
Q 24.3125 3.421875 31.78125 3.421875 
z
M 31.78125 -1.421875 
Q 19.921875 -1.421875 13.25 8.53125 
Q 6.59375 18.5 6.59375 36.375 
Q 6.59375 54.296875 13.25 64.25 
Q 19.921875 74.21875 31.78125 74.21875 
Q 43.703125 74.21875 50.34375 64.25 
Q 56.984375 54.296875 56.984375 36.375 
Q 56.984375 18.5 50.34375 8.53125 
Q 43.703125 -1.421875 31.78125 -1.421875 
z
" id="DejaVuSerif-48"/>
       <path d="M 9.421875 5.078125 
Q 9.421875 7.8125 11.28125 9.71875 
Q 13.140625 11.625 15.921875 11.625 
Q 18.609375 11.625 20.5 9.71875 
Q 22.40625 7.8125 22.40625 5.078125 
Q 22.40625 2.390625 20.5 0.484375 
Q 18.609375 -1.421875 15.921875 -1.421875 
Q 13.140625 -1.421875 11.28125 0.453125 
Q 9.421875 2.34375 9.421875 5.078125 
z
" id="DejaVuSerif-46"/>
      </defs>
      <g transform="translate(69.689489 292.008875)scale(0.2 -0.2)">
       <use xlink:href="#DejaVuSerif-48"/>
       <use x="63.623047" xlink:href="#DejaVuSerif-46"/>
       <use x="95.410156" xlink:href="#DejaVuSerif-48"/>
      </g>
     </g>
    </g>
    <g id="xtick_2">
     <g id="line2d_2">
      <g>
       <use style="stroke:#000000;stroke-width:0.8;" x="166.75625" xlink:href="#mcbdea4ff5d" y="273.312"/>
      </g>
     </g>
     <g id="text_2">
      <!-- 0.1 -->
      <defs>
       <path d="M 14.203125 0 
L 14.203125 5.171875 
L 26.90625 5.171875 
L 26.90625 65.828125 
L 12.203125 56.296875 
L 12.203125 62.703125 
L 29.984375 74.21875 
L 36.71875 74.21875 
L 36.71875 5.171875 
L 49.421875 5.171875 
L 49.421875 0 
z
" id="DejaVuSerif-49"/>
      </defs>
      <g transform="translate(150.853125 292.008875)scale(0.2 -0.2)">
       <use xlink:href="#DejaVuSerif-48"/>
       <use x="63.623047" xlink:href="#DejaVuSerif-46"/>
       <use x="95.410156" xlink:href="#DejaVuSerif-49"/>
      </g>
     </g>
    </g>
    <g id="xtick_3">
     <g id="line2d_3">
      <g>
       <use style="stroke:#000000;stroke-width:0.8;" x="247.919886" xlink:href="#mcbdea4ff5d" y="273.312"/>
      </g>
     </g>
     <g id="text_3">
      <!-- 0.2 -->
      <defs>
       <path d="M 12.796875 55.515625 
L 7.328125 55.515625 
L 7.328125 68.5 
Q 12.546875 71.296875 17.84375 72.75 
Q 23.140625 74.21875 28.21875 74.21875 
Q 39.59375 74.21875 46.1875 68.703125 
Q 52.78125 63.1875 52.78125 53.71875 
Q 52.78125 43.015625 37.84375 28.125 
Q 36.671875 27 36.078125 26.421875 
L 17.671875 8.015625 
L 48.09375 8.015625 
L 48.09375 17 
L 53.8125 17 
L 53.8125 0 
L 6.78125 0 
L 6.78125 5.328125 
L 28.90625 27.390625 
Q 36.234375 34.71875 39.359375 40.84375 
Q 42.484375 46.96875 42.484375 53.71875 
Q 42.484375 61.078125 38.640625 65.234375 
Q 34.8125 69.390625 28.078125 69.390625 
Q 21.09375 69.390625 17.28125 65.921875 
Q 13.484375 62.453125 12.796875 55.515625 
z
" id="DejaVuSerif-50"/>
      </defs>
      <g transform="translate(232.016761 292.008875)scale(0.2 -0.2)">
       <use xlink:href="#DejaVuSerif-48"/>
       <use x="63.623047" xlink:href="#DejaVuSerif-46"/>
       <use x="95.410156" xlink:href="#DejaVuSerif-50"/>
      </g>
     </g>
    </g>
    <g id="xtick_4">
     <g id="line2d_4">
      <g>
       <use style="stroke:#000000;stroke-width:0.8;" x="329.083523" xlink:href="#mcbdea4ff5d" y="273.312"/>
      </g>
     </g>
     <g id="text_4">
      <!-- 0.3 -->
      <defs>
       <path d="M 9.71875 69.828125 
Q 15.4375 71.96875 20.671875 73.09375 
Q 25.921875 74.21875 30.515625 74.21875 
Q 41.21875 74.21875 47.21875 69.59375 
Q 53.21875 64.984375 53.21875 56.78125 
Q 53.21875 50.203125 49.0625 45.78125 
Q 44.921875 41.359375 37.3125 39.796875 
Q 46.296875 38.53125 51.25 33.28125 
Q 56.203125 28.03125 56.203125 19.671875 
Q 56.203125 9.46875 49.34375 4.015625 
Q 42.484375 -1.421875 29.59375 -1.421875 
Q 23.875 -1.421875 18.421875 -0.1875 
Q 12.984375 1.03125 7.625 3.515625 
L 7.625 17.671875 
L 13.09375 17.671875 
Q 13.578125 10.640625 17.828125 7.03125 
Q 22.078125 3.421875 29.78125 3.421875 
Q 37.25 3.421875 41.578125 7.734375 
Q 45.90625 12.0625 45.90625 19.578125 
Q 45.90625 28.171875 41.453125 32.59375 
Q 37.015625 37.015625 28.421875 37.015625 
L 23.78125 37.015625 
L 23.78125 42 
L 26.21875 42 
Q 34.765625 42 39.03125 45.53125 
Q 43.3125 49.078125 43.3125 56.203125 
Q 43.3125 62.59375 39.796875 65.984375 
Q 36.28125 69.390625 29.6875 69.390625 
Q 23.09375 69.390625 19.453125 66.265625 
Q 15.828125 63.140625 15.1875 56.984375 
L 9.71875 56.984375 
z
" id="DejaVuSerif-51"/>
      </defs>
      <g transform="translate(313.180398 292.008875)scale(0.2 -0.2)">
       <use xlink:href="#DejaVuSerif-48"/>
       <use x="63.623047" xlink:href="#DejaVuSerif-46"/>
       <use x="95.410156" xlink:href="#DejaVuSerif-51"/>
      </g>
     </g>
    </g>
    <g id="xtick_5">
     <g id="line2d_5">
      <g>
       <use style="stroke:#000000;stroke-width:0.8;" x="410.247159" xlink:href="#mcbdea4ff5d" y="273.312"/>
      </g>
     </g>
     <g id="text_5">
      <!-- 0.4 -->
      <defs>
       <path d="M 34.90625 24.703125 
L 34.90625 63.484375 
L 10.015625 24.703125 
z
M 56.390625 0 
L 23.1875 0 
L 23.1875 5.171875 
L 34.90625 5.171875 
L 34.90625 19.484375 
L 3.078125 19.484375 
L 3.078125 24.8125 
L 35.015625 74.21875 
L 44.671875 74.21875 
L 44.671875 24.703125 
L 58.59375 24.703125 
L 58.59375 19.484375 
L 44.671875 19.484375 
L 44.671875 5.171875 
L 56.390625 5.171875 
z
" id="DejaVuSerif-52"/>
      </defs>
      <g transform="translate(394.344034 292.008875)scale(0.2 -0.2)">
       <use xlink:href="#DejaVuSerif-48"/>
       <use x="63.623047" xlink:href="#DejaVuSerif-46"/>
       <use x="95.410156" xlink:href="#DejaVuSerif-52"/>
      </g>
     </g>
    </g>
    <g id="text_6">
     <!-- Tunneling $J/U$ -->
     <defs>
      <path d="M 19.09375 0 
L 19.09375 5.171875 
L 28.421875 5.171875 
L 28.421875 67.09375 
L 6.984375 67.09375 
L 6.984375 55.71875 
L 0.984375 55.71875 
L 0.984375 72.90625 
L 65.71875 72.90625 
L 65.71875 55.71875 
L 59.71875 55.71875 
L 59.71875 67.09375 
L 38.28125 67.09375 
L 38.28125 5.171875 
L 47.609375 5.171875 
L 47.609375 0 
z
" id="DejaVuSerif-84"/>
      <path d="M 35.40625 51.90625 
L 52.203125 51.90625 
L 52.203125 5.171875 
L 60.6875 5.171875 
L 60.6875 0 
L 43.21875 0 
L 43.21875 9.1875 
Q 40.71875 4 36.765625 1.28125 
Q 32.8125 -1.421875 27.59375 -1.421875 
Q 18.953125 -1.421875 14.875 3.484375 
Q 10.796875 8.40625 10.796875 18.890625 
L 10.796875 46.6875 
L 2.6875 46.6875 
L 2.6875 51.90625 
L 19.828125 51.90625 
L 19.828125 21.6875 
Q 19.828125 12.203125 22.140625 8.6875 
Q 24.46875 5.171875 30.421875 5.171875 
Q 36.671875 5.171875 39.9375 9.765625 
Q 43.21875 14.359375 43.21875 23.09375 
L 43.21875 46.6875 
L 35.40625 46.6875 
z
" id="DejaVuSerif-117"/>
      <path d="M 4.109375 0 
L 4.109375 5.171875 
L 12.203125 5.171875 
L 12.203125 46.6875 
L 3.609375 46.6875 
L 3.609375 51.90625 
L 21.1875 51.90625 
L 21.1875 42.671875 
Q 23.6875 47.953125 27.65625 50.640625 
Q 31.640625 53.328125 36.921875 53.328125 
Q 45.515625 53.328125 49.5625 48.390625 
Q 53.609375 43.453125 53.609375 33.015625 
L 53.609375 5.171875 
L 61.625 5.171875 
L 61.625 0 
L 36.8125 0 
L 36.8125 5.171875 
L 44.578125 5.171875 
L 44.578125 30.171875 
Q 44.578125 39.703125 42.234375 43.234375 
Q 39.890625 46.78125 33.984375 46.78125 
Q 27.734375 46.78125 24.453125 42.203125 
Q 21.1875 37.640625 21.1875 28.90625 
L 21.1875 5.171875 
L 29 5.171875 
L 29 0 
z
" id="DejaVuSerif-110"/>
      <path d="M 54.203125 25 
L 15.484375 25 
L 15.484375 24.609375 
Q 15.484375 14.109375 19.4375 8.765625 
Q 23.390625 3.421875 31.109375 3.421875 
Q 37.015625 3.421875 40.796875 6.515625 
Q 44.578125 9.625 46.09375 15.71875 
L 53.328125 15.71875 
Q 51.171875 7.171875 45.375 2.875 
Q 39.59375 -1.421875 30.171875 -1.421875 
Q 18.796875 -1.421875 11.890625 6.078125 
Q 4.984375 13.578125 4.984375 25.984375 
Q 4.984375 38.28125 11.765625 45.796875 
Q 18.5625 53.328125 29.59375 53.328125 
Q 41.359375 53.328125 47.65625 46.0625 
Q 53.953125 38.8125 54.203125 25 
z
M 43.609375 30.171875 
Q 43.3125 39.265625 39.765625 43.875 
Q 36.234375 48.484375 29.59375 48.484375 
Q 23.390625 48.484375 19.828125 43.84375 
Q 16.265625 39.203125 15.484375 30.171875 
z
" id="DejaVuSerif-101"/>
      <path d="M 20.515625 5.171875 
L 29 5.171875 
L 29 0 
L 2.875 0 
L 2.875 5.171875 
L 11.53125 5.171875 
L 11.53125 70.796875 
L 2.875 70.796875 
L 2.875 75.984375 
L 20.515625 75.984375 
z
" id="DejaVuSerif-108"/>
      <path d="M 9.71875 68.015625 
Q 9.71875 70.265625 11.34375 71.921875 
Q 12.984375 73.578125 15.28125 73.578125 
Q 17.53125 73.578125 19.15625 71.921875 
Q 20.796875 70.265625 20.796875 68.015625 
Q 20.796875 65.71875 19.1875 64.109375 
Q 17.578125 62.5 15.28125 62.5 
Q 12.984375 62.5 11.34375 64.109375 
Q 9.71875 65.71875 9.71875 68.015625 
z
M 21.1875 5.171875 
L 29.6875 5.171875 
L 29.6875 0 
L 3.609375 0 
L 3.609375 5.171875 
L 12.203125 5.171875 
L 12.203125 46.6875 
L 3.609375 46.6875 
L 3.609375 51.90625 
L 21.1875 51.90625 
z
" id="DejaVuSerif-105"/>
      <path d="M 52.484375 46.6875 
L 52.484375 1.125 
Q 52.484375 -10.0625 46.328125 -16.140625 
Q 40.1875 -22.21875 28.8125 -22.21875 
Q 23.6875 -22.21875 19 -21.28125 
Q 14.3125 -20.359375 10.015625 -18.5 
L 10.015625 -7.625 
L 14.703125 -7.625 
Q 15.578125 -12.703125 18.84375 -15.046875 
Q 22.125 -17.390625 28.21875 -17.390625 
Q 36.140625 -17.390625 39.8125 -12.921875 
Q 43.5 -8.453125 43.5 1.125 
L 43.5 8.109375 
Q 40.875 3.21875 36.796875 0.890625 
Q 32.71875 -1.421875 26.703125 -1.421875 
Q 17.140625 -1.421875 11.0625 6.171875 
Q 4.984375 13.765625 4.984375 25.984375 
Q 4.984375 38.1875 11.03125 45.75 
Q 17.09375 53.328125 26.703125 53.328125 
Q 32.71875 53.328125 36.796875 51 
Q 40.875 48.6875 43.5 43.796875 
L 43.5 51.90625 
L 61.078125 51.90625 
L 61.078125 46.6875 
z
M 43.5 28.515625 
Q 43.5 37.84375 39.90625 42.765625 
Q 36.328125 47.703125 29.5 47.703125 
Q 22.5625 47.703125 19.015625 42.234375 
Q 15.484375 36.765625 15.484375 25.984375 
Q 15.484375 15.234375 19.015625 9.71875 
Q 22.5625 4.203125 29.5 4.203125 
Q 36.328125 4.203125 39.90625 9.109375 
Q 43.5 14.015625 43.5 23.390625 
z
" id="DejaVuSerif-103"/>
      <path id="DejaVuSerif-32"/>
      <path d="M 10.890625 6 
Q 11.859375 3.21875 14.5 1.796875 
Q 17.140625 0.390625 20.21875 0.390625 
Q 23.34375 0.390625 26.25 2.5625 
Q 29.15625 4.734375 31.171875 8 
Q 33.203125 11.28125 33.984375 14.5 
L 45.796875 61.8125 
Q 45.90625 62.203125 45.921875 62.390625 
Q 45.953125 62.59375 46 62.796875 
Q 46 63.875 45.21875 64.109375 
Q 42.578125 64.796875 34.515625 64.796875 
Q 33.5 64.796875 33.5 66.109375 
Q 33.6875 66.890625 33.8125 67.328125 
Q 33.9375 67.78125 34.25 68.046875 
Q 34.578125 68.3125 35.203125 68.3125 
L 62.3125 68.3125 
Q 63.28125 68.3125 63.28125 67 
Q 62.890625 64.796875 62.015625 64.796875 
Q 58.5 64.796875 56.6875 64.25 
Q 54.890625 63.71875 54.203125 61.375 
L 42.390625 14.109375 
Q 41.265625 9.46875 37.8125 5.734375 
Q 34.375 2 29.640625 -0.09375 
Q 24.90625 -2.203125 20.125 -2.203125 
Q 14.84375 -2.203125 10.859375 0.71875 
Q 6.890625 3.65625 6.890625 8.6875 
Q 6.890625 12.015625 8.6875 14.40625 
Q 10.5 16.796875 13.8125 16.796875 
Q 15.71875 16.796875 17.015625 15.625 
Q 18.3125 14.453125 18.3125 12.59375 
Q 18.3125 9.90625 16.3125 7.90625 
Q 14.3125 5.90625 11.625 5.90625 
Q 11.078125 5.90625 10.890625 6 
z
" id="Cmmi10-74"/>
      <path d="M 5.609375 -23 
Q 5.609375 -22.703125 5.71875 -22.609375 
L 40.484375 73.78125 
Q 40.671875 74.359375 41.15625 74.671875 
Q 41.65625 75 42.28125 75 
Q 43.171875 75 43.71875 74.453125 
Q 44.28125 73.921875 44.28125 73 
L 44.28125 72.609375 
L 9.515625 -23.78125 
Q 8.9375 -25 7.625 -25 
Q 6.78125 -25 6.1875 -24.40625 
Q 5.609375 -23.828125 5.609375 -23 
z
" id="Cmmi10-61"/>
      <path d="M 14.703125 13.921875 
Q 14.703125 10.25 16.140625 7.375 
Q 17.578125 4.5 20.3125 2.90625 
Q 23.046875 1.3125 26.703125 1.3125 
Q 31 1.3125 35.078125 3.0625 
Q 39.15625 4.828125 42.421875 7.953125 
Q 45.703125 11.078125 48.015625 15.078125 
Q 50.34375 19.09375 51.3125 23 
L 60.296875 59.078125 
Q 60.5 60.15625 60.5 60.59375 
Q 60.5 64.796875 52.78125 64.796875 
Q 51.8125 64.796875 51.8125 66.109375 
Q 52.15625 67.390625 52.34375 67.84375 
Q 52.546875 68.3125 53.515625 68.3125 
L 75.203125 68.3125 
Q 75.640625 68.3125 75.921875 67.875 
Q 76.21875 67.4375 76.21875 67 
Q 76.21875 66.9375 76.015625 66.234375 
Q 75.828125 65.53125 75.5625 65.15625 
Q 75.296875 64.796875 74.90625 64.796875 
Q 65.328125 64.796875 63.8125 58.6875 
L 54.78125 22.609375 
Q 53.65625 17.921875 51 13.5 
Q 48.34375 9.078125 44.453125 5.484375 
Q 40.578125 1.90625 35.90625 -0.140625 
Q 31.25 -2.203125 26.421875 -2.203125 
Q 20.90625 -2.203125 16.328125 0.21875 
Q 11.765625 2.640625 9.171875 6.984375 
Q 6.59375 11.328125 6.59375 17 
Q 6.59375 20.265625 7.328125 23 
L 17 61.8125 
Q 17.1875 62.796875 17.1875 63.1875 
Q 17.1875 64.265625 16.015625 64.40625 
Q 14.109375 64.796875 8.796875 64.796875 
Q 7.8125 64.796875 7.8125 66.109375 
Q 8.15625 67.390625 8.34375 67.84375 
Q 8.546875 68.3125 9.515625 68.3125 
L 36.375 68.3125 
Q 37.40625 68.3125 37.40625 67 
Q 37.359375 66.75 37.203125 66.15625 
Q 37.0625 65.578125 36.8125 65.1875 
Q 36.578125 64.796875 36.078125 64.796875 
Q 29.984375 64.796875 27.59375 64.109375 
Q 26.265625 63.625 25.6875 61.375 
L 16.015625 22.609375 
Q 14.703125 17.328125 14.703125 13.921875 
z
" id="Cmmi10-85"/>
     </defs>
     <g transform="translate(141.31625 324.48825)scale(0.32 -0.32)">
      <use transform="translate(0 0.015625)" xlink:href="#DejaVuSerif-84"/>
      <use transform="translate(66.699219 0.015625)" xlink:href="#DejaVuSerif-117"/>
      <use transform="translate(131.103516 0.015625)" xlink:href="#DejaVuSerif-110"/>
      <use transform="translate(195.507812 0.015625)" xlink:href="#DejaVuSerif-110"/>
      <use transform="translate(259.912109 0.015625)" xlink:href="#DejaVuSerif-101"/>
      <use transform="translate(319.091797 0.015625)" xlink:href="#DejaVuSerif-108"/>
      <use transform="translate(351.074219 0.015625)" xlink:href="#DejaVuSerif-105"/>
      <use transform="translate(383.056641 0.015625)" xlink:href="#DejaVuSerif-110"/>
      <use transform="translate(447.460938 0.015625)" xlink:href="#DejaVuSerif-103"/>
      <use transform="translate(511.474609 0.015625)" xlink:href="#DejaVuSerif-32"/>
      <use transform="translate(543.261719 0.015625)" xlink:href="#Cmmi10-74"/>
      <use transform="translate(598.681641 0.015625)" xlink:href="#Cmmi10-61"/>
      <use transform="translate(648.681641 0.015625)" xlink:href="#Cmmi10-85"/>
     </g>
    </g>
   </g>
   <g id="matplotlib.axis_2">
    <g id="ytick_1">
     <g id="line2d_6">
      <defs>
       <path d="M 0 0 
L 8 0 
" id="me133100a63" style="stroke:#000000;stroke-width:0.8;"/>
      </defs>
      <g>
       <use style="stroke:#000000;stroke-width:0.8;" x="77.47625" xlink:href="#me133100a63" y="261.372088"/>
      </g>
     </g>
     <g id="text_7">
      <!-- 0.0 -->
      <g transform="translate(42.17 268.970526)scale(0.2 -0.2)">
       <use xlink:href="#DejaVuSerif-48"/>
       <use x="63.623047" xlink:href="#DejaVuSerif-46"/>
       <use x="95.410156" xlink:href="#DejaVuSerif-48"/>
      </g>
     </g>
    </g>
    <g id="ytick_2">
     <g id="line2d_7">
      <g>
       <use style="stroke:#000000;stroke-width:0.8;" x="77.47625" xlink:href="#me133100a63" y="212.956871"/>
      </g>
     </g>
     <g id="text_8">
      <!-- 0.2 -->
      <g transform="translate(42.17 220.555308)scale(0.2 -0.2)">
       <use xlink:href="#DejaVuSerif-48"/>
       <use x="63.623047" xlink:href="#DejaVuSerif-46"/>
       <use x="95.410156" xlink:href="#DejaVuSerif-50"/>
      </g>
     </g>
    </g>
    <g id="ytick_3">
     <g id="line2d_8">
      <g>
       <use style="stroke:#000000;stroke-width:0.8;" x="77.47625" xlink:href="#me133100a63" y="164.541653"/>
      </g>
     </g>
     <g id="text_9">
      <!-- 0.4 -->
      <g transform="translate(42.17 172.14009)scale(0.2 -0.2)">
       <use xlink:href="#DejaVuSerif-48"/>
       <use x="63.623047" xlink:href="#DejaVuSerif-46"/>
       <use x="95.410156" xlink:href="#DejaVuSerif-52"/>
      </g>
     </g>
    </g>
    <g id="ytick_4">
     <g id="line2d_9">
      <g>
       <use style="stroke:#000000;stroke-width:0.8;" x="77.47625" xlink:href="#me133100a63" y="116.126435"/>
      </g>
     </g>
     <g id="text_10">
      <!-- 0.6 -->
      <defs>
       <path d="M 32.71875 3.421875 
Q 39.59375 3.421875 43.296875 8.46875 
Q 47.015625 13.53125 47.015625 23 
Q 47.015625 32.46875 43.296875 37.515625 
Q 39.59375 42.578125 32.71875 42.578125 
Q 25.734375 42.578125 22.0625 37.6875 
Q 18.40625 32.8125 18.40625 23.578125 
Q 18.40625 13.875 22.109375 8.640625 
Q 25.828125 3.421875 32.71875 3.421875 
z
M 16.796875 40.140625 
Q 20.125 43.796875 24.3125 45.59375 
Q 28.515625 47.40625 33.796875 47.40625 
Q 44.671875 47.40625 51 40.859375 
Q 57.328125 34.328125 57.328125 23 
Q 57.328125 11.921875 50.515625 5.25 
Q 43.703125 -1.421875 32.328125 -1.421875 
Q 19.96875 -1.421875 13.328125 7.78125 
Q 6.6875 17 6.6875 34.078125 
Q 6.6875 53.21875 14.546875 63.71875 
Q 22.40625 74.21875 36.71875 74.21875 
Q 40.578125 74.21875 44.828125 73.484375 
Q 49.078125 72.75 53.515625 71.296875 
L 53.515625 59.28125 
L 48 59.28125 
Q 47.40625 64.203125 44.234375 66.796875 
Q 41.0625 69.390625 35.6875 69.390625 
Q 26.21875 69.390625 21.578125 62.203125 
Q 16.9375 55.03125 16.796875 40.140625 
z
" id="DejaVuSerif-54"/>
      </defs>
      <g transform="translate(42.17 123.724873)scale(0.2 -0.2)">
       <use xlink:href="#DejaVuSerif-48"/>
       <use x="63.623047" xlink:href="#DejaVuSerif-46"/>
       <use x="95.410156" xlink:href="#DejaVuSerif-54"/>
      </g>
     </g>
    </g>
    <g id="ytick_5">
     <g id="line2d_10">
      <g>
       <use style="stroke:#000000;stroke-width:0.8;" x="77.47625" xlink:href="#me133100a63" y="67.711218"/>
      </g>
     </g>
     <g id="text_11">
      <!-- 0.8 -->
      <defs>
       <path d="M 46.578125 19.921875 
Q 46.578125 27.734375 42.6875 32.046875 
Q 38.8125 36.375 31.78125 36.375 
Q 24.75 36.375 20.875 32.046875 
Q 17 27.734375 17 19.921875 
Q 17 12.0625 20.875 7.734375 
Q 24.75 3.421875 31.78125 3.421875 
Q 38.8125 3.421875 42.6875 7.734375 
Q 46.578125 12.0625 46.578125 19.921875 
z
M 44.578125 55.328125 
Q 44.578125 61.96875 41.203125 65.671875 
Q 37.84375 69.390625 31.78125 69.390625 
Q 25.78125 69.390625 22.390625 65.671875 
Q 19 61.96875 19 55.328125 
Q 19 48.640625 22.390625 44.921875 
Q 25.78125 41.21875 31.78125 41.21875 
Q 37.84375 41.21875 41.203125 44.921875 
Q 44.578125 48.640625 44.578125 55.328125 
z
M 39.3125 38.8125 
Q 47.609375 37.703125 52.25 32.6875 
Q 56.890625 27.6875 56.890625 19.921875 
Q 56.890625 9.671875 50.390625 4.125 
Q 43.890625 -1.421875 31.78125 -1.421875 
Q 19.734375 -1.421875 13.203125 4.125 
Q 6.6875 9.671875 6.6875 19.921875 
Q 6.6875 27.6875 11.328125 32.6875 
Q 15.96875 37.703125 24.3125 38.8125 
Q 16.9375 40.140625 13 44.40625 
Q 9.078125 48.6875 9.078125 55.328125 
Q 9.078125 64.109375 15.125 69.15625 
Q 21.1875 74.21875 31.78125 74.21875 
Q 42.390625 74.21875 48.4375 69.15625 
Q 54.5 64.109375 54.5 55.328125 
Q 54.5 48.6875 50.5625 44.40625 
Q 46.625 40.140625 39.3125 38.8125 
z
" id="DejaVuSerif-56"/>
      </defs>
      <g transform="translate(42.17 75.309655)scale(0.2 -0.2)">
       <use xlink:href="#DejaVuSerif-48"/>
       <use x="63.623047" xlink:href="#DejaVuSerif-46"/>
       <use x="95.410156" xlink:href="#DejaVuSerif-56"/>
      </g>
     </g>
    </g>
    <g id="ytick_6">
     <g id="line2d_11">
      <g>
       <use style="stroke:#000000;stroke-width:0.8;" x="77.47625" xlink:href="#me133100a63" y="19.296"/>
      </g>
     </g>
     <g id="text_12">
      <!-- 1.0 -->
      <g transform="translate(42.17 26.894437)scale(0.2 -0.2)">
       <use xlink:href="#DejaVuSerif-49"/>
       <use x="63.623047" xlink:href="#DejaVuSerif-46"/>
       <use x="95.410156" xlink:href="#DejaVuSerif-48"/>
      </g>
     </g>
    </g>
    <g id="text_13">
     <!-- Diff -->
     <defs>
      <path d="M 24.703125 5.171875 
L 33.796875 5.171875 
Q 48 5.171875 55.59375 13.28125 
Q 63.1875 21.390625 63.1875 36.53125 
Q 63.1875 51.65625 55.609375 59.65625 
Q 48.046875 67.671875 33.796875 67.671875 
L 24.703125 67.671875 
z
M 5.515625 0 
L 5.515625 5.171875 
L 14.796875 5.171875 
L 14.796875 67.671875 
L 5.515625 67.671875 
L 5.515625 72.90625 
L 34.515625 72.90625 
Q 53.375 72.90625 63.890625 63.28125 
Q 74.421875 53.65625 74.421875 36.53125 
Q 74.421875 19.34375 63.875 9.671875 
Q 53.328125 0 34.515625 0 
z
" id="DejaVuSerif-68"/>
      <path d="M 43.015625 63.71875 
L 38.28125 63.71875 
Q 38.234375 67.390625 36.203125 69.28125 
Q 34.1875 71.1875 30.328125 71.1875 
Q 25.296875 71.1875 23.234375 68.421875 
Q 21.1875 65.671875 21.1875 58.59375 
L 21.1875 51.90625 
L 35.6875 51.90625 
L 35.6875 46.6875 
L 21.1875 46.6875 
L 21.1875 5.171875 
L 32.71875 5.171875 
L 32.71875 0 
L 3.609375 0 
L 3.609375 5.171875 
L 12.203125 5.171875 
L 12.203125 46.6875 
L 3.609375 46.6875 
L 3.609375 51.90625 
L 12.203125 51.90625 
L 12.203125 58.40625 
Q 12.203125 67.09375 16.71875 71.53125 
Q 21.234375 75.984375 29.984375 75.984375 
Q 33.25 75.984375 36.515625 75.390625 
Q 39.796875 74.8125 43.015625 73.578125 
z
" id="DejaVuSerif-102"/>
     </defs>
     <g transform="translate(31.515 170.046)rotate(-90)scale(0.32 -0.32)">
      <use xlink:href="#DejaVuSerif-68"/>
      <use x="80.175781" xlink:href="#DejaVuSerif-105"/>
      <use x="112.158203" xlink:href="#DejaVuSerif-102"/>
      <use x="149.169922" xlink:href="#DejaVuSerif-102"/>
     </g>
    </g>
   </g>
   <g id="line2d_12">
    <path clip-path="url(#pcf0fefa27c)" d="M 93.708977 19.296 
L 101.825341 30.142956 
L 109.941705 41.01119 
L 118.058068 52.774851 
L 126.174432 65.585932 
L 134.290795 79.374258 
L 142.407159 93.99113 
L 150.523523 109.238339 
L 158.639886 124.898299 
L 166.75625 140.747118 
L 174.872614 156.56953 
L 182.988977 172.159827 
L 191.105341 187.325652 
L 199.221705 201.889225 
L 207.338068 215.689706 
L 215.454432 228.590768 
L 223.570795 240.495047 
L 231.687159 251.360958 
L 239.803523 261.216 
L 247.919886 252.587244 
L 256.03625 244.41029 
L 264.152614 236.822045 
L 272.268977 223.531839 
L 280.385341 208.052685 
L 288.501705 192.852866 
L 296.618068 178.186569 
L 304.734432 164.122267 
L 312.850795 150.69662 
L 320.967159 137.376332 
L 329.083523 124.741802 
L 337.199886 112.799071 
L 345.31625 101.539704 
L 353.432614 90.943863 
L 361.548977 80.984683 
L 369.665341 70.93236 
L 377.781705 60.842142 
L 385.898068 51.400506 
L 394.014432 42.565017 
L 402.130795 34.295005 
L 410.247159 26.550886 
L 418.363523 19.296 
" style="fill:none;stroke:#e41a1c;stroke-dasharray:3,4.95;stroke-dashoffset:0;stroke-opacity:0.7;stroke-width:3;"/>
    <defs>
     <path d="M 0 3 
C 0.795609 3 1.55874 2.683901 2.12132 2.12132 
C 2.683901 1.55874 3 0.795609 3 0 
C 3 -0.795609 2.683901 -1.55874 2.12132 -2.12132 
C 1.55874 -2.683901 0.795609 -3 0 -3 
C -0.795609 -3 -1.55874 -2.683901 -2.12132 -2.12132 
C -2.683901 -1.55874 -3 -0.795609 -3 0 
C -3 0.795609 -2.683901 1.55874 -2.12132 2.12132 
C -1.55874 2.683901 -0.795609 3 0 3 
z
" id="mae2d50ae47" style="stroke:#e41a1c;stroke-opacity:0.7;"/>
    </defs>
    <g clip-path="url(#pcf0fefa27c)">
     <use style="fill:#e41a1c;fill-opacity:0.7;stroke:#e41a1c;stroke-opacity:0.7;" x="93.708977" xlink:href="#mae2d50ae47" y="19.296"/>
     <use style="fill:#e41a1c;fill-opacity:0.7;stroke:#e41a1c;stroke-opacity:0.7;" x="101.825341" xlink:href="#mae2d50ae47" y="30.142956"/>
     <use style="fill:#e41a1c;fill-opacity:0.7;stroke:#e41a1c;stroke-opacity:0.7;" x="109.941705" xlink:href="#mae2d50ae47" y="41.01119"/>
     <use style="fill:#e41a1c;fill-opacity:0.7;stroke:#e41a1c;stroke-opacity:0.7;" x="118.058068" xlink:href="#mae2d50ae47" y="52.774851"/>
     <use style="fill:#e41a1c;fill-opacity:0.7;stroke:#e41a1c;stroke-opacity:0.7;" x="126.174432" xlink:href="#mae2d50ae47" y="65.585932"/>
     <use style="fill:#e41a1c;fill-opacity:0.7;stroke:#e41a1c;stroke-opacity:0.7;" x="134.290795" xlink:href="#mae2d50ae47" y="79.374258"/>
     <use style="fill:#e41a1c;fill-opacity:0.7;stroke:#e41a1c;stroke-opacity:0.7;" x="142.407159" xlink:href="#mae2d50ae47" y="93.99113"/>
     <use style="fill:#e41a1c;fill-opacity:0.7;stroke:#e41a1c;stroke-opacity:0.7;" x="150.523523" xlink:href="#mae2d50ae47" y="109.238339"/>
     <use style="fill:#e41a1c;fill-opacity:0.7;stroke:#e41a1c;stroke-opacity:0.7;" x="158.639886" xlink:href="#mae2d50ae47" y="124.898299"/>
     <use style="fill:#e41a1c;fill-opacity:0.7;stroke:#e41a1c;stroke-opacity:0.7;" x="166.75625" xlink:href="#mae2d50ae47" y="140.747118"/>
     <use style="fill:#e41a1c;fill-opacity:0.7;stroke:#e41a1c;stroke-opacity:0.7;" x="174.872614" xlink:href="#mae2d50ae47" y="156.56953"/>
     <use style="fill:#e41a1c;fill-opacity:0.7;stroke:#e41a1c;stroke-opacity:0.7;" x="182.988977" xlink:href="#mae2d50ae47" y="172.159827"/>
     <use style="fill:#e41a1c;fill-opacity:0.7;stroke:#e41a1c;stroke-opacity:0.7;" x="191.105341" xlink:href="#mae2d50ae47" y="187.325652"/>
     <use style="fill:#e41a1c;fill-opacity:0.7;stroke:#e41a1c;stroke-opacity:0.7;" x="199.221705" xlink:href="#mae2d50ae47" y="201.889225"/>
     <use style="fill:#e41a1c;fill-opacity:0.7;stroke:#e41a1c;stroke-opacity:0.7;" x="207.338068" xlink:href="#mae2d50ae47" y="215.689706"/>
     <use style="fill:#e41a1c;fill-opacity:0.7;stroke:#e41a1c;stroke-opacity:0.7;" x="215.454432" xlink:href="#mae2d50ae47" y="228.590768"/>
     <use style="fill:#e41a1c;fill-opacity:0.7;stroke:#e41a1c;stroke-opacity:0.7;" x="223.570795" xlink:href="#mae2d50ae47" y="240.495047"/>
     <use style="fill:#e41a1c;fill-opacity:0.7;stroke:#e41a1c;stroke-opacity:0.7;" x="231.687159" xlink:href="#mae2d50ae47" y="251.360958"/>
     <use style="fill:#e41a1c;fill-opacity:0.7;stroke:#e41a1c;stroke-opacity:0.7;" x="239.803523" xlink:href="#mae2d50ae47" y="261.216"/>
     <use style="fill:#e41a1c;fill-opacity:0.7;stroke:#e41a1c;stroke-opacity:0.7;" x="247.919886" xlink:href="#mae2d50ae47" y="252.587244"/>
     <use style="fill:#e41a1c;fill-opacity:0.7;stroke:#e41a1c;stroke-opacity:0.7;" x="256.03625" xlink:href="#mae2d50ae47" y="244.41029"/>
     <use style="fill:#e41a1c;fill-opacity:0.7;stroke:#e41a1c;stroke-opacity:0.7;" x="264.152614" xlink:href="#mae2d50ae47" y="236.822045"/>
     <use style="fill:#e41a1c;fill-opacity:0.7;stroke:#e41a1c;stroke-opacity:0.7;" x="272.268977" xlink:href="#mae2d50ae47" y="223.531839"/>
     <use style="fill:#e41a1c;fill-opacity:0.7;stroke:#e41a1c;stroke-opacity:0.7;" x="280.385341" xlink:href="#mae2d50ae47" y="208.052685"/>
     <use style="fill:#e41a1c;fill-opacity:0.7;stroke:#e41a1c;stroke-opacity:0.7;" x="288.501705" xlink:href="#mae2d50ae47" y="192.852866"/>
     <use style="fill:#e41a1c;fill-opacity:0.7;stroke:#e41a1c;stroke-opacity:0.7;" x="296.618068" xlink:href="#mae2d50ae47" y="178.186569"/>
     <use style="fill:#e41a1c;fill-opacity:0.7;stroke:#e41a1c;stroke-opacity:0.7;" x="304.734432" xlink:href="#mae2d50ae47" y="164.122267"/>
     <use style="fill:#e41a1c;fill-opacity:0.7;stroke:#e41a1c;stroke-opacity:0.7;" x="312.850795" xlink:href="#mae2d50ae47" y="150.69662"/>
     <use style="fill:#e41a1c;fill-opacity:0.7;stroke:#e41a1c;stroke-opacity:0.7;" x="320.967159" xlink:href="#mae2d50ae47" y="137.376332"/>
     <use style="fill:#e41a1c;fill-opacity:0.7;stroke:#e41a1c;stroke-opacity:0.7;" x="329.083523" xlink:href="#mae2d50ae47" y="124.741802"/>
     <use style="fill:#e41a1c;fill-opacity:0.7;stroke:#e41a1c;stroke-opacity:0.7;" x="337.199886" xlink:href="#mae2d50ae47" y="112.799071"/>
     <use style="fill:#e41a1c;fill-opacity:0.7;stroke:#e41a1c;stroke-opacity:0.7;" x="345.31625" xlink:href="#mae2d50ae47" y="101.539704"/>
     <use style="fill:#e41a1c;fill-opacity:0.7;stroke:#e41a1c;stroke-opacity:0.7;" x="353.432614" xlink:href="#mae2d50ae47" y="90.943863"/>
     <use style="fill:#e41a1c;fill-opacity:0.7;stroke:#e41a1c;stroke-opacity:0.7;" x="361.548977" xlink:href="#mae2d50ae47" y="80.984683"/>
     <use style="fill:#e41a1c;fill-opacity:0.7;stroke:#e41a1c;stroke-opacity:0.7;" x="369.665341" xlink:href="#mae2d50ae47" y="70.93236"/>
     <use style="fill:#e41a1c;fill-opacity:0.7;stroke:#e41a1c;stroke-opacity:0.7;" x="377.781705" xlink:href="#mae2d50ae47" y="60.842142"/>
     <use style="fill:#e41a1c;fill-opacity:0.7;stroke:#e41a1c;stroke-opacity:0.7;" x="385.898068" xlink:href="#mae2d50ae47" y="51.400506"/>
     <use style="fill:#e41a1c;fill-opacity:0.7;stroke:#e41a1c;stroke-opacity:0.7;" x="394.014432" xlink:href="#mae2d50ae47" y="42.565017"/>
     <use style="fill:#e41a1c;fill-opacity:0.7;stroke:#e41a1c;stroke-opacity:0.7;" x="402.130795" xlink:href="#mae2d50ae47" y="34.295005"/>
     <use style="fill:#e41a1c;fill-opacity:0.7;stroke:#e41a1c;stroke-opacity:0.7;" x="410.247159" xlink:href="#mae2d50ae47" y="26.550886"/>
     <use style="fill:#e41a1c;fill-opacity:0.7;stroke:#e41a1c;stroke-opacity:0.7;" x="418.363523" xlink:href="#mae2d50ae47" y="19.296"/>
    </g>
   </g>
   <g id="line2d_13">
    <path clip-path="url(#pcf0fefa27c)" d="M 93.708977 19.296 
L 101.825341 29.157099 
L 109.941705 39.139487 
L 118.058068 50.037766 
L 126.174432 61.998575 
L 134.290795 74.972315 
L 142.407159 88.843182 
L 150.523523 103.457272 
L 158.639886 118.647541 
L 166.75625 134.250934 
L 174.872614 150.116839 
L 182.988977 166.109089 
L 191.105341 182.105173 
L 199.221705 197.988876 
L 207.338068 213.641762 
L 215.454432 228.9363 
L 223.570795 243.738772 
L 231.687159 257.921282 
L 239.803523 251.358804 
L 247.919886 238.661699 
L 256.03625 226.721341 
L 264.152614 215.47804 
L 272.268977 204.845885 
L 280.385341 194.737523 
L 288.501705 185.081599 
L 296.618068 174.797262 
L 304.734432 159.919659 
L 312.850795 145.774561 
L 320.967159 132.084389 
L 329.083523 119.112448 
L 337.199886 106.89792 
L 345.31625 95.420694 
L 353.432614 84.650821 
L 361.548977 74.551622 
L 369.665341 65.083229 
L 377.781705 56.204576 
L 385.898068 47.875094 
L 394.014432 40.055537 
L 402.130795 32.708703 
L 410.247159 25.799644 
L 418.363523 19.296 
" style="fill:none;stroke:#377eb8;stroke-dasharray:3,4.95;stroke-dashoffset:0;stroke-opacity:0.7;stroke-width:3;"/>
    <defs>
     <path d="M 0 3 
C 0.795609 3 1.55874 2.683901 2.12132 2.12132 
C 2.683901 1.55874 3 0.795609 3 0 
C 3 -0.795609 2.683901 -1.55874 2.12132 -2.12132 
C 1.55874 -2.683901 0.795609 -3 0 -3 
C -0.795609 -3 -1.55874 -2.683901 -2.12132 -2.12132 
C -2.683901 -1.55874 -3 -0.795609 -3 0 
C -3 0.795609 -2.683901 1.55874 -2.12132 2.12132 
C -1.55874 2.683901 -0.795609 3 0 3 
z
" id="m3d24a6fd9f" style="stroke:#377eb8;stroke-opacity:0.7;"/>
    </defs>
    <g clip-path="url(#pcf0fefa27c)">
     <use style="fill:#377eb8;fill-opacity:0.7;stroke:#377eb8;stroke-opacity:0.7;" x="93.708977" xlink:href="#m3d24a6fd9f" y="19.296"/>
     <use style="fill:#377eb8;fill-opacity:0.7;stroke:#377eb8;stroke-opacity:0.7;" x="101.825341" xlink:href="#m3d24a6fd9f" y="29.157099"/>
     <use style="fill:#377eb8;fill-opacity:0.7;stroke:#377eb8;stroke-opacity:0.7;" x="109.941705" xlink:href="#m3d24a6fd9f" y="39.139487"/>
     <use style="fill:#377eb8;fill-opacity:0.7;stroke:#377eb8;stroke-opacity:0.7;" x="118.058068" xlink:href="#m3d24a6fd9f" y="50.037766"/>
     <use style="fill:#377eb8;fill-opacity:0.7;stroke:#377eb8;stroke-opacity:0.7;" x="126.174432" xlink:href="#m3d24a6fd9f" y="61.998575"/>
     <use style="fill:#377eb8;fill-opacity:0.7;stroke:#377eb8;stroke-opacity:0.7;" x="134.290795" xlink:href="#m3d24a6fd9f" y="74.972315"/>
     <use style="fill:#377eb8;fill-opacity:0.7;stroke:#377eb8;stroke-opacity:0.7;" x="142.407159" xlink:href="#m3d24a6fd9f" y="88.843182"/>
     <use style="fill:#377eb8;fill-opacity:0.7;stroke:#377eb8;stroke-opacity:0.7;" x="150.523523" xlink:href="#m3d24a6fd9f" y="103.457272"/>
     <use style="fill:#377eb8;fill-opacity:0.7;stroke:#377eb8;stroke-opacity:0.7;" x="158.639886" xlink:href="#m3d24a6fd9f" y="118.647541"/>
     <use style="fill:#377eb8;fill-opacity:0.7;stroke:#377eb8;stroke-opacity:0.7;" x="166.75625" xlink:href="#m3d24a6fd9f" y="134.250934"/>
     <use style="fill:#377eb8;fill-opacity:0.7;stroke:#377eb8;stroke-opacity:0.7;" x="174.872614" xlink:href="#m3d24a6fd9f" y="150.116839"/>
     <use style="fill:#377eb8;fill-opacity:0.7;stroke:#377eb8;stroke-opacity:0.7;" x="182.988977" xlink:href="#m3d24a6fd9f" y="166.109089"/>
     <use style="fill:#377eb8;fill-opacity:0.7;stroke:#377eb8;stroke-opacity:0.7;" x="191.105341" xlink:href="#m3d24a6fd9f" y="182.105173"/>
     <use style="fill:#377eb8;fill-opacity:0.7;stroke:#377eb8;stroke-opacity:0.7;" x="199.221705" xlink:href="#m3d24a6fd9f" y="197.988876"/>
     <use style="fill:#377eb8;fill-opacity:0.7;stroke:#377eb8;stroke-opacity:0.7;" x="207.338068" xlink:href="#m3d24a6fd9f" y="213.641762"/>
     <use style="fill:#377eb8;fill-opacity:0.7;stroke:#377eb8;stroke-opacity:0.7;" x="215.454432" xlink:href="#m3d24a6fd9f" y="228.9363"/>
     <use style="fill:#377eb8;fill-opacity:0.7;stroke:#377eb8;stroke-opacity:0.7;" x="223.570795" xlink:href="#m3d24a6fd9f" y="243.738772"/>
     <use style="fill:#377eb8;fill-opacity:0.7;stroke:#377eb8;stroke-opacity:0.7;" x="231.687159" xlink:href="#m3d24a6fd9f" y="257.921282"/>
     <use style="fill:#377eb8;fill-opacity:0.7;stroke:#377eb8;stroke-opacity:0.7;" x="239.803523" xlink:href="#m3d24a6fd9f" y="251.358804"/>
     <use style="fill:#377eb8;fill-opacity:0.7;stroke:#377eb8;stroke-opacity:0.7;" x="247.919886" xlink:href="#m3d24a6fd9f" y="238.661699"/>
     <use style="fill:#377eb8;fill-opacity:0.7;stroke:#377eb8;stroke-opacity:0.7;" x="256.03625" xlink:href="#m3d24a6fd9f" y="226.721341"/>
     <use style="fill:#377eb8;fill-opacity:0.7;stroke:#377eb8;stroke-opacity:0.7;" x="264.152614" xlink:href="#m3d24a6fd9f" y="215.47804"/>
     <use style="fill:#377eb8;fill-opacity:0.7;stroke:#377eb8;stroke-opacity:0.7;" x="272.268977" xlink:href="#m3d24a6fd9f" y="204.845885"/>
     <use style="fill:#377eb8;fill-opacity:0.7;stroke:#377eb8;stroke-opacity:0.7;" x="280.385341" xlink:href="#m3d24a6fd9f" y="194.737523"/>
     <use style="fill:#377eb8;fill-opacity:0.7;stroke:#377eb8;stroke-opacity:0.7;" x="288.501705" xlink:href="#m3d24a6fd9f" y="185.081599"/>
     <use style="fill:#377eb8;fill-opacity:0.7;stroke:#377eb8;stroke-opacity:0.7;" x="296.618068" xlink:href="#m3d24a6fd9f" y="174.797262"/>
     <use style="fill:#377eb8;fill-opacity:0.7;stroke:#377eb8;stroke-opacity:0.7;" x="304.734432" xlink:href="#m3d24a6fd9f" y="159.919659"/>
     <use style="fill:#377eb8;fill-opacity:0.7;stroke:#377eb8;stroke-opacity:0.7;" x="312.850795" xlink:href="#m3d24a6fd9f" y="145.774561"/>
     <use style="fill:#377eb8;fill-opacity:0.7;stroke:#377eb8;stroke-opacity:0.7;" x="320.967159" xlink:href="#m3d24a6fd9f" y="132.084389"/>
     <use style="fill:#377eb8;fill-opacity:0.7;stroke:#377eb8;stroke-opacity:0.7;" x="329.083523" xlink:href="#m3d24a6fd9f" y="119.112448"/>
     <use style="fill:#377eb8;fill-opacity:0.7;stroke:#377eb8;stroke-opacity:0.7;" x="337.199886" xlink:href="#m3d24a6fd9f" y="106.89792"/>
     <use style="fill:#377eb8;fill-opacity:0.7;stroke:#377eb8;stroke-opacity:0.7;" x="345.31625" xlink:href="#m3d24a6fd9f" y="95.420694"/>
     <use style="fill:#377eb8;fill-opacity:0.7;stroke:#377eb8;stroke-opacity:0.7;" x="353.432614" xlink:href="#m3d24a6fd9f" y="84.650821"/>
     <use style="fill:#377eb8;fill-opacity:0.7;stroke:#377eb8;stroke-opacity:0.7;" x="361.548977" xlink:href="#m3d24a6fd9f" y="74.551622"/>
     <use style="fill:#377eb8;fill-opacity:0.7;stroke:#377eb8;stroke-opacity:0.7;" x="369.665341" xlink:href="#m3d24a6fd9f" y="65.083229"/>
     <use style="fill:#377eb8;fill-opacity:0.7;stroke:#377eb8;stroke-opacity:0.7;" x="377.781705" xlink:href="#m3d24a6fd9f" y="56.204576"/>
     <use style="fill:#377eb8;fill-opacity:0.7;stroke:#377eb8;stroke-opacity:0.7;" x="385.898068" xlink:href="#m3d24a6fd9f" y="47.875094"/>
     <use style="fill:#377eb8;fill-opacity:0.7;stroke:#377eb8;stroke-opacity:0.7;" x="394.014432" xlink:href="#m3d24a6fd9f" y="40.055537"/>
     <use style="fill:#377eb8;fill-opacity:0.7;stroke:#377eb8;stroke-opacity:0.7;" x="402.130795" xlink:href="#m3d24a6fd9f" y="32.708703"/>
     <use style="fill:#377eb8;fill-opacity:0.7;stroke:#377eb8;stroke-opacity:0.7;" x="410.247159" xlink:href="#m3d24a6fd9f" y="25.799644"/>
     <use style="fill:#377eb8;fill-opacity:0.7;stroke:#377eb8;stroke-opacity:0.7;" x="418.363523" xlink:href="#m3d24a6fd9f" y="19.296"/>
    </g>
   </g>
   <g id="line2d_14">
    <path clip-path="url(#pcf0fefa27c)" d="M 93.708977 19.296 
L 101.825341 28.204496 
L 109.941705 37.287121 
L 118.058068 47.261371 
L 126.174432 58.266031 
L 134.290795 70.265771 
L 142.407159 83.169411 
L 150.523523 96.856254 
L 158.639886 111.197224 
L 166.75625 126.074047 
L 174.872614 141.384526 
L 182.988977 157.04654 
L 191.105341 172.994428 
L 199.221705 189.170179 
L 207.338068 205.507371 
L 215.454432 221.914759 
L 223.570795 238.264259 
L 231.687159 254.392562 
L 239.803523 252.623298 
L 247.919886 237.456998 
L 256.03625 222.967354 
L 264.152614 209.207919 
L 272.268977 196.178649 
L 280.385341 183.847487 
L 288.501705 172.171558 
L 296.618068 161.110968 
L 304.734432 150.633867 
L 312.850795 140.714384 
L 320.967159 131.039659 
L 329.083523 118.090016 
L 337.199886 105.934967 
L 345.31625 94.543611 
L 353.432614 83.876265 
L 361.548977 73.88863 
L 369.665341 64.534474 
L 377.781705 55.768234 
L 385.898068 47.545564 
L 394.014432 39.824494 
L 402.130795 32.566224 
L 410.247159 25.734458 
L 418.363523 19.296 
" style="fill:none;stroke:#4daf4a;stroke-dasharray:3,4.95;stroke-dashoffset:0;stroke-opacity:0.7;stroke-width:3;"/>
    <defs>
     <path d="M 0 3 
C 0.795609 3 1.55874 2.683901 2.12132 2.12132 
C 2.683901 1.55874 3 0.795609 3 0 
C 3 -0.795609 2.683901 -1.55874 2.12132 -2.12132 
C 1.55874 -2.683901 0.795609 -3 0 -3 
C -0.795609 -3 -1.55874 -2.683901 -2.12132 -2.12132 
C -2.683901 -1.55874 -3 -0.795609 -3 0 
C -3 0.795609 -2.683901 1.55874 -2.12132 2.12132 
C -1.55874 2.683901 -0.795609 3 0 3 
z
" id="m2e7088e7b2" style="stroke:#4daf4a;stroke-opacity:0.7;"/>
    </defs>
    <g clip-path="url(#pcf0fefa27c)">
     <use style="fill:#4daf4a;fill-opacity:0.7;stroke:#4daf4a;stroke-opacity:0.7;" x="93.708977" xlink:href="#m2e7088e7b2" y="19.296"/>
     <use style="fill:#4daf4a;fill-opacity:0.7;stroke:#4daf4a;stroke-opacity:0.7;" x="101.825341" xlink:href="#m2e7088e7b2" y="28.204496"/>
     <use style="fill:#4daf4a;fill-opacity:0.7;stroke:#4daf4a;stroke-opacity:0.7;" x="109.941705" xlink:href="#m2e7088e7b2" y="37.287121"/>
     <use style="fill:#4daf4a;fill-opacity:0.7;stroke:#4daf4a;stroke-opacity:0.7;" x="118.058068" xlink:href="#m2e7088e7b2" y="47.261371"/>
     <use style="fill:#4daf4a;fill-opacity:0.7;stroke:#4daf4a;stroke-opacity:0.7;" x="126.174432" xlink:href="#m2e7088e7b2" y="58.266031"/>
     <use style="fill:#4daf4a;fill-opacity:0.7;stroke:#4daf4a;stroke-opacity:0.7;" x="134.290795" xlink:href="#m2e7088e7b2" y="70.265771"/>
     <use style="fill:#4daf4a;fill-opacity:0.7;stroke:#4daf4a;stroke-opacity:0.7;" x="142.407159" xlink:href="#m2e7088e7b2" y="83.169411"/>
     <use style="fill:#4daf4a;fill-opacity:0.7;stroke:#4daf4a;stroke-opacity:0.7;" x="150.523523" xlink:href="#m2e7088e7b2" y="96.856254"/>
     <use style="fill:#4daf4a;fill-opacity:0.7;stroke:#4daf4a;stroke-opacity:0.7;" x="158.639886" xlink:href="#m2e7088e7b2" y="111.197224"/>
     <use style="fill:#4daf4a;fill-opacity:0.7;stroke:#4daf4a;stroke-opacity:0.7;" x="166.75625" xlink:href="#m2e7088e7b2" y="126.074047"/>
     <use style="fill:#4daf4a;fill-opacity:0.7;stroke:#4daf4a;stroke-opacity:0.7;" x="174.872614" xlink:href="#m2e7088e7b2" y="141.384526"/>
     <use style="fill:#4daf4a;fill-opacity:0.7;stroke:#4daf4a;stroke-opacity:0.7;" x="182.988977" xlink:href="#m2e7088e7b2" y="157.04654"/>
     <use style="fill:#4daf4a;fill-opacity:0.7;stroke:#4daf4a;stroke-opacity:0.7;" x="191.105341" xlink:href="#m2e7088e7b2" y="172.994428"/>
     <use style="fill:#4daf4a;fill-opacity:0.7;stroke:#4daf4a;stroke-opacity:0.7;" x="199.221705" xlink:href="#m2e7088e7b2" y="189.170179"/>
     <use style="fill:#4daf4a;fill-opacity:0.7;stroke:#4daf4a;stroke-opacity:0.7;" x="207.338068" xlink:href="#m2e7088e7b2" y="205.507371"/>
     <use style="fill:#4daf4a;fill-opacity:0.7;stroke:#4daf4a;stroke-opacity:0.7;" x="215.454432" xlink:href="#m2e7088e7b2" y="221.914759"/>
     <use style="fill:#4daf4a;fill-opacity:0.7;stroke:#4daf4a;stroke-opacity:0.7;" x="223.570795" xlink:href="#m2e7088e7b2" y="238.264259"/>
     <use style="fill:#4daf4a;fill-opacity:0.7;stroke:#4daf4a;stroke-opacity:0.7;" x="231.687159" xlink:href="#m2e7088e7b2" y="254.392562"/>
     <use style="fill:#4daf4a;fill-opacity:0.7;stroke:#4daf4a;stroke-opacity:0.7;" x="239.803523" xlink:href="#m2e7088e7b2" y="252.623298"/>
     <use style="fill:#4daf4a;fill-opacity:0.7;stroke:#4daf4a;stroke-opacity:0.7;" x="247.919886" xlink:href="#m2e7088e7b2" y="237.456998"/>
     <use style="fill:#4daf4a;fill-opacity:0.7;stroke:#4daf4a;stroke-opacity:0.7;" x="256.03625" xlink:href="#m2e7088e7b2" y="222.967354"/>
     <use style="fill:#4daf4a;fill-opacity:0.7;stroke:#4daf4a;stroke-opacity:0.7;" x="264.152614" xlink:href="#m2e7088e7b2" y="209.207919"/>
     <use style="fill:#4daf4a;fill-opacity:0.7;stroke:#4daf4a;stroke-opacity:0.7;" x="272.268977" xlink:href="#m2e7088e7b2" y="196.178649"/>
     <use style="fill:#4daf4a;fill-opacity:0.7;stroke:#4daf4a;stroke-opacity:0.7;" x="280.385341" xlink:href="#m2e7088e7b2" y="183.847487"/>
     <use style="fill:#4daf4a;fill-opacity:0.7;stroke:#4daf4a;stroke-opacity:0.7;" x="288.501705" xlink:href="#m2e7088e7b2" y="172.171558"/>
     <use style="fill:#4daf4a;fill-opacity:0.7;stroke:#4daf4a;stroke-opacity:0.7;" x="296.618068" xlink:href="#m2e7088e7b2" y="161.110968"/>
     <use style="fill:#4daf4a;fill-opacity:0.7;stroke:#4daf4a;stroke-opacity:0.7;" x="304.734432" xlink:href="#m2e7088e7b2" y="150.633867"/>
     <use style="fill:#4daf4a;fill-opacity:0.7;stroke:#4daf4a;stroke-opacity:0.7;" x="312.850795" xlink:href="#m2e7088e7b2" y="140.714384"/>
     <use style="fill:#4daf4a;fill-opacity:0.7;stroke:#4daf4a;stroke-opacity:0.7;" x="320.967159" xlink:href="#m2e7088e7b2" y="131.039659"/>
     <use style="fill:#4daf4a;fill-opacity:0.7;stroke:#4daf4a;stroke-opacity:0.7;" x="329.083523" xlink:href="#m2e7088e7b2" y="118.090016"/>
     <use style="fill:#4daf4a;fill-opacity:0.7;stroke:#4daf4a;stroke-opacity:0.7;" x="337.199886" xlink:href="#m2e7088e7b2" y="105.934967"/>
     <use style="fill:#4daf4a;fill-opacity:0.7;stroke:#4daf4a;stroke-opacity:0.7;" x="345.31625" xlink:href="#m2e7088e7b2" y="94.543611"/>
     <use style="fill:#4daf4a;fill-opacity:0.7;stroke:#4daf4a;stroke-opacity:0.7;" x="353.432614" xlink:href="#m2e7088e7b2" y="83.876265"/>
     <use style="fill:#4daf4a;fill-opacity:0.7;stroke:#4daf4a;stroke-opacity:0.7;" x="361.548977" xlink:href="#m2e7088e7b2" y="73.88863"/>
     <use style="fill:#4daf4a;fill-opacity:0.7;stroke:#4daf4a;stroke-opacity:0.7;" x="369.665341" xlink:href="#m2e7088e7b2" y="64.534474"/>
     <use style="fill:#4daf4a;fill-opacity:0.7;stroke:#4daf4a;stroke-opacity:0.7;" x="377.781705" xlink:href="#m2e7088e7b2" y="55.768234"/>
     <use style="fill:#4daf4a;fill-opacity:0.7;stroke:#4daf4a;stroke-opacity:0.7;" x="385.898068" xlink:href="#m2e7088e7b2" y="47.545564"/>
     <use style="fill:#4daf4a;fill-opacity:0.7;stroke:#4daf4a;stroke-opacity:0.7;" x="394.014432" xlink:href="#m2e7088e7b2" y="39.824494"/>
     <use style="fill:#4daf4a;fill-opacity:0.7;stroke:#4daf4a;stroke-opacity:0.7;" x="402.130795" xlink:href="#m2e7088e7b2" y="32.566224"/>
     <use style="fill:#4daf4a;fill-opacity:0.7;stroke:#4daf4a;stroke-opacity:0.7;" x="410.247159" xlink:href="#m2e7088e7b2" y="25.734458"/>
     <use style="fill:#4daf4a;fill-opacity:0.7;stroke:#4daf4a;stroke-opacity:0.7;" x="418.363523" xlink:href="#m2e7088e7b2" y="19.296"/>
    </g>
   </g>
   <g id="line2d_15">
    <path clip-path="url(#pcf0fefa27c)" d="M 93.708977 19.296 
L 101.825341 27.440961 
L 109.941705 35.78828 
L 118.058068 44.99437 
L 126.174432 55.190338 
L 134.290795 66.350803 
L 142.407159 78.402049 
L 150.523523 91.246566 
L 158.639886 104.782774 
L 166.75625 118.923283 
L 174.872614 133.600655 
L 182.988977 148.770949 
L 191.105341 164.411503 
L 199.221705 180.510396 
L 207.338068 197.048993 
L 215.454432 213.978662 
L 223.570795 231.197836 
L 231.687159 248.540068 
L 239.803523 256.96061 
L 247.919886 240.059449 
L 256.03625 223.71986 
L 264.152614 208.099487 
L 272.268977 193.282632 
L 280.385341 179.292926 
L 288.501705 166.116454 
L 296.618068 153.722415 
L 304.734432 142.074241 
L 312.850795 131.13434 
L 320.967159 120.864682 
L 329.083523 111.226923 
L 337.199886 102.182289 
L 345.31625 93.640715 
L 353.432614 83.087214 
L 361.548977 73.218203 
L 369.665341 63.982255 
L 377.781705 55.329908 
L 385.898068 47.214237 
L 394.014432 39.591607 
L 402.130795 32.421668 
L 410.247159 25.667696 
L 418.363523 19.296 
" style="fill:none;stroke:#984ea3;stroke-dasharray:3,4.95;stroke-dashoffset:0;stroke-opacity:0.7;stroke-width:3;"/>
    <defs>
     <path d="M 0 3 
C 0.795609 3 1.55874 2.683901 2.12132 2.12132 
C 2.683901 1.55874 3 0.795609 3 0 
C 3 -0.795609 2.683901 -1.55874 2.12132 -2.12132 
C 1.55874 -2.683901 0.795609 -3 0 -3 
C -0.795609 -3 -1.55874 -2.683901 -2.12132 -2.12132 
C -2.683901 -1.55874 -3 -0.795609 -3 0 
C -3 0.795609 -2.683901 1.55874 -2.12132 2.12132 
C -1.55874 2.683901 -0.795609 3 0 3 
z
" id="meab306f90a" style="stroke:#984ea3;stroke-opacity:0.7;"/>
    </defs>
    <g clip-path="url(#pcf0fefa27c)">
     <use style="fill:#984ea3;fill-opacity:0.7;stroke:#984ea3;stroke-opacity:0.7;" x="93.708977" xlink:href="#meab306f90a" y="19.296"/>
     <use style="fill:#984ea3;fill-opacity:0.7;stroke:#984ea3;stroke-opacity:0.7;" x="101.825341" xlink:href="#meab306f90a" y="27.440961"/>
     <use style="fill:#984ea3;fill-opacity:0.7;stroke:#984ea3;stroke-opacity:0.7;" x="109.941705" xlink:href="#meab306f90a" y="35.78828"/>
     <use style="fill:#984ea3;fill-opacity:0.7;stroke:#984ea3;stroke-opacity:0.7;" x="118.058068" xlink:href="#meab306f90a" y="44.99437"/>
     <use style="fill:#984ea3;fill-opacity:0.7;stroke:#984ea3;stroke-opacity:0.7;" x="126.174432" xlink:href="#meab306f90a" y="55.190338"/>
     <use style="fill:#984ea3;fill-opacity:0.7;stroke:#984ea3;stroke-opacity:0.7;" x="134.290795" xlink:href="#meab306f90a" y="66.350803"/>
     <use style="fill:#984ea3;fill-opacity:0.7;stroke:#984ea3;stroke-opacity:0.7;" x="142.407159" xlink:href="#meab306f90a" y="78.402049"/>
     <use style="fill:#984ea3;fill-opacity:0.7;stroke:#984ea3;stroke-opacity:0.7;" x="150.523523" xlink:href="#meab306f90a" y="91.246566"/>
     <use style="fill:#984ea3;fill-opacity:0.7;stroke:#984ea3;stroke-opacity:0.7;" x="158.639886" xlink:href="#meab306f90a" y="104.782774"/>
     <use style="fill:#984ea3;fill-opacity:0.7;stroke:#984ea3;stroke-opacity:0.7;" x="166.75625" xlink:href="#meab306f90a" y="118.923283"/>
     <use style="fill:#984ea3;fill-opacity:0.7;stroke:#984ea3;stroke-opacity:0.7;" x="174.872614" xlink:href="#meab306f90a" y="133.600655"/>
     <use style="fill:#984ea3;fill-opacity:0.7;stroke:#984ea3;stroke-opacity:0.7;" x="182.988977" xlink:href="#meab306f90a" y="148.770949"/>
     <use style="fill:#984ea3;fill-opacity:0.7;stroke:#984ea3;stroke-opacity:0.7;" x="191.105341" xlink:href="#meab306f90a" y="164.411503"/>
     <use style="fill:#984ea3;fill-opacity:0.7;stroke:#984ea3;stroke-opacity:0.7;" x="199.221705" xlink:href="#meab306f90a" y="180.510396"/>
     <use style="fill:#984ea3;fill-opacity:0.7;stroke:#984ea3;stroke-opacity:0.7;" x="207.338068" xlink:href="#meab306f90a" y="197.048993"/>
     <use style="fill:#984ea3;fill-opacity:0.7;stroke:#984ea3;stroke-opacity:0.7;" x="215.454432" xlink:href="#meab306f90a" y="213.978662"/>
     <use style="fill:#984ea3;fill-opacity:0.7;stroke:#984ea3;stroke-opacity:0.7;" x="223.570795" xlink:href="#meab306f90a" y="231.197836"/>
     <use style="fill:#984ea3;fill-opacity:0.7;stroke:#984ea3;stroke-opacity:0.7;" x="231.687159" xlink:href="#meab306f90a" y="248.540068"/>
     <use style="fill:#984ea3;fill-opacity:0.7;stroke:#984ea3;stroke-opacity:0.7;" x="239.803523" xlink:href="#meab306f90a" y="256.96061"/>
     <use style="fill:#984ea3;fill-opacity:0.7;stroke:#984ea3;stroke-opacity:0.7;" x="247.919886" xlink:href="#meab306f90a" y="240.059449"/>
     <use style="fill:#984ea3;fill-opacity:0.7;stroke:#984ea3;stroke-opacity:0.7;" x="256.03625" xlink:href="#meab306f90a" y="223.71986"/>
     <use style="fill:#984ea3;fill-opacity:0.7;stroke:#984ea3;stroke-opacity:0.7;" x="264.152614" xlink:href="#meab306f90a" y="208.099487"/>
     <use style="fill:#984ea3;fill-opacity:0.7;stroke:#984ea3;stroke-opacity:0.7;" x="272.268977" xlink:href="#meab306f90a" y="193.282632"/>
     <use style="fill:#984ea3;fill-opacity:0.7;stroke:#984ea3;stroke-opacity:0.7;" x="280.385341" xlink:href="#meab306f90a" y="179.292926"/>
     <use style="fill:#984ea3;fill-opacity:0.7;stroke:#984ea3;stroke-opacity:0.7;" x="288.501705" xlink:href="#meab306f90a" y="166.116454"/>
     <use style="fill:#984ea3;fill-opacity:0.7;stroke:#984ea3;stroke-opacity:0.7;" x="296.618068" xlink:href="#meab306f90a" y="153.722415"/>
     <use style="fill:#984ea3;fill-opacity:0.7;stroke:#984ea3;stroke-opacity:0.7;" x="304.734432" xlink:href="#meab306f90a" y="142.074241"/>
     <use style="fill:#984ea3;fill-opacity:0.7;stroke:#984ea3;stroke-opacity:0.7;" x="312.850795" xlink:href="#meab306f90a" y="131.13434"/>
     <use style="fill:#984ea3;fill-opacity:0.7;stroke:#984ea3;stroke-opacity:0.7;" x="320.967159" xlink:href="#meab306f90a" y="120.864682"/>
     <use style="fill:#984ea3;fill-opacity:0.7;stroke:#984ea3;stroke-opacity:0.7;" x="329.083523" xlink:href="#meab306f90a" y="111.226923"/>
     <use style="fill:#984ea3;fill-opacity:0.7;stroke:#984ea3;stroke-opacity:0.7;" x="337.199886" xlink:href="#meab306f90a" y="102.182289"/>
     <use style="fill:#984ea3;fill-opacity:0.7;stroke:#984ea3;stroke-opacity:0.7;" x="345.31625" xlink:href="#meab306f90a" y="93.640715"/>
     <use style="fill:#984ea3;fill-opacity:0.7;stroke:#984ea3;stroke-opacity:0.7;" x="353.432614" xlink:href="#meab306f90a" y="83.087214"/>
     <use style="fill:#984ea3;fill-opacity:0.7;stroke:#984ea3;stroke-opacity:0.7;" x="361.548977" xlink:href="#meab306f90a" y="73.218203"/>
     <use style="fill:#984ea3;fill-opacity:0.7;stroke:#984ea3;stroke-opacity:0.7;" x="369.665341" xlink:href="#meab306f90a" y="63.982255"/>
     <use style="fill:#984ea3;fill-opacity:0.7;stroke:#984ea3;stroke-opacity:0.7;" x="377.781705" xlink:href="#meab306f90a" y="55.329908"/>
     <use style="fill:#984ea3;fill-opacity:0.7;stroke:#984ea3;stroke-opacity:0.7;" x="385.898068" xlink:href="#meab306f90a" y="47.214237"/>
     <use style="fill:#984ea3;fill-opacity:0.7;stroke:#984ea3;stroke-opacity:0.7;" x="394.014432" xlink:href="#meab306f90a" y="39.591607"/>
     <use style="fill:#984ea3;fill-opacity:0.7;stroke:#984ea3;stroke-opacity:0.7;" x="402.130795" xlink:href="#meab306f90a" y="32.421668"/>
     <use style="fill:#984ea3;fill-opacity:0.7;stroke:#984ea3;stroke-opacity:0.7;" x="410.247159" xlink:href="#meab306f90a" y="25.667696"/>
     <use style="fill:#984ea3;fill-opacity:0.7;stroke:#984ea3;stroke-opacity:0.7;" x="418.363523" xlink:href="#meab306f90a" y="19.296"/>
    </g>
   </g>
   <g id="line2d_16">
    <path clip-path="url(#pcf0fefa27c)" d="M 93.708977 19.296 
L 101.825341 26.827225 
L 109.941705 34.576419 
L 118.058068 43.150741 
L 126.174432 52.674544 
L 134.290795 63.129307 
L 142.407159 74.454083 
L 150.523523 86.568413 
L 158.639886 99.390271 
L 166.75625 112.854869 
L 174.872614 126.919496 
L 182.988977 141.56797 
L 191.105341 156.809065 
L 199.221705 172.666709 
L 207.338068 189.16228 
L 215.454432 206.288202 
L 223.570795 223.977586 
L 231.687159 242.079914 
L 239.803523 260.357436 
L 247.919886 244.231855 
L 256.03625 226.503292 
L 264.152614 209.452842 
L 272.268977 193.246467 
L 280.385341 177.964139 
L 288.501705 163.621613 
L 296.618068 150.197664 
L 304.734432 137.652114 
L 312.850795 125.936377 
L 320.967159 114.998385 
L 329.083523 104.784924 
L 337.199886 95.242959 
L 345.31625 86.320999 
L 353.432614 77.969771 
L 361.548977 70.143045 
L 369.665341 62.797823 
L 377.781705 54.967787 
L 385.898068 46.940619 
L 394.014432 39.399114 
L 402.130795 32.302146 
L 410.247159 25.612366 
L 418.363523 19.296 
" style="fill:none;stroke:#ff7f00;stroke-dasharray:3,4.95;stroke-dashoffset:0;stroke-opacity:0.7;stroke-width:3;"/>
    <defs>
     <path d="M 0 3 
C 0.795609 3 1.55874 2.683901 2.12132 2.12132 
C 2.683901 1.55874 3 0.795609 3 0 
C 3 -0.795609 2.683901 -1.55874 2.12132 -2.12132 
C 1.55874 -2.683901 0.795609 -3 0 -3 
C -0.795609 -3 -1.55874 -2.683901 -2.12132 -2.12132 
C -2.683901 -1.55874 -3 -0.795609 -3 0 
C -3 0.795609 -2.683901 1.55874 -2.12132 2.12132 
C -1.55874 2.683901 -0.795609 3 0 3 
z
" id="m83aaac88f4" style="stroke:#ff7f00;stroke-opacity:0.7;"/>
    </defs>
    <g clip-path="url(#pcf0fefa27c)">
     <use style="fill:#ff7f00;fill-opacity:0.7;stroke:#ff7f00;stroke-opacity:0.7;" x="93.708977" xlink:href="#m83aaac88f4" y="19.296"/>
     <use style="fill:#ff7f00;fill-opacity:0.7;stroke:#ff7f00;stroke-opacity:0.7;" x="101.825341" xlink:href="#m83aaac88f4" y="26.827225"/>
     <use style="fill:#ff7f00;fill-opacity:0.7;stroke:#ff7f00;stroke-opacity:0.7;" x="109.941705" xlink:href="#m83aaac88f4" y="34.576419"/>
     <use style="fill:#ff7f00;fill-opacity:0.7;stroke:#ff7f00;stroke-opacity:0.7;" x="118.058068" xlink:href="#m83aaac88f4" y="43.150741"/>
     <use style="fill:#ff7f00;fill-opacity:0.7;stroke:#ff7f00;stroke-opacity:0.7;" x="126.174432" xlink:href="#m83aaac88f4" y="52.674544"/>
     <use style="fill:#ff7f00;fill-opacity:0.7;stroke:#ff7f00;stroke-opacity:0.7;" x="134.290795" xlink:href="#m83aaac88f4" y="63.129307"/>
     <use style="fill:#ff7f00;fill-opacity:0.7;stroke:#ff7f00;stroke-opacity:0.7;" x="142.407159" xlink:href="#m83aaac88f4" y="74.454083"/>
     <use style="fill:#ff7f00;fill-opacity:0.7;stroke:#ff7f00;stroke-opacity:0.7;" x="150.523523" xlink:href="#m83aaac88f4" y="86.568413"/>
     <use style="fill:#ff7f00;fill-opacity:0.7;stroke:#ff7f00;stroke-opacity:0.7;" x="158.639886" xlink:href="#m83aaac88f4" y="99.390271"/>
     <use style="fill:#ff7f00;fill-opacity:0.7;stroke:#ff7f00;stroke-opacity:0.7;" x="166.75625" xlink:href="#m83aaac88f4" y="112.854869"/>
     <use style="fill:#ff7f00;fill-opacity:0.7;stroke:#ff7f00;stroke-opacity:0.7;" x="174.872614" xlink:href="#m83aaac88f4" y="126.919496"/>
     <use style="fill:#ff7f00;fill-opacity:0.7;stroke:#ff7f00;stroke-opacity:0.7;" x="182.988977" xlink:href="#m83aaac88f4" y="141.56797"/>
     <use style="fill:#ff7f00;fill-opacity:0.7;stroke:#ff7f00;stroke-opacity:0.7;" x="191.105341" xlink:href="#m83aaac88f4" y="156.809065"/>
     <use style="fill:#ff7f00;fill-opacity:0.7;stroke:#ff7f00;stroke-opacity:0.7;" x="199.221705" xlink:href="#m83aaac88f4" y="172.666709"/>
     <use style="fill:#ff7f00;fill-opacity:0.7;stroke:#ff7f00;stroke-opacity:0.7;" x="207.338068" xlink:href="#m83aaac88f4" y="189.16228"/>
     <use style="fill:#ff7f00;fill-opacity:0.7;stroke:#ff7f00;stroke-opacity:0.7;" x="215.454432" xlink:href="#m83aaac88f4" y="206.288202"/>
     <use style="fill:#ff7f00;fill-opacity:0.7;stroke:#ff7f00;stroke-opacity:0.7;" x="223.570795" xlink:href="#m83aaac88f4" y="223.977586"/>
     <use style="fill:#ff7f00;fill-opacity:0.7;stroke:#ff7f00;stroke-opacity:0.7;" x="231.687159" xlink:href="#m83aaac88f4" y="242.079914"/>
     <use style="fill:#ff7f00;fill-opacity:0.7;stroke:#ff7f00;stroke-opacity:0.7;" x="239.803523" xlink:href="#m83aaac88f4" y="260.357436"/>
     <use style="fill:#ff7f00;fill-opacity:0.7;stroke:#ff7f00;stroke-opacity:0.7;" x="247.919886" xlink:href="#m83aaac88f4" y="244.231855"/>
     <use style="fill:#ff7f00;fill-opacity:0.7;stroke:#ff7f00;stroke-opacity:0.7;" x="256.03625" xlink:href="#m83aaac88f4" y="226.503292"/>
     <use style="fill:#ff7f00;fill-opacity:0.7;stroke:#ff7f00;stroke-opacity:0.7;" x="264.152614" xlink:href="#m83aaac88f4" y="209.452842"/>
     <use style="fill:#ff7f00;fill-opacity:0.7;stroke:#ff7f00;stroke-opacity:0.7;" x="272.268977" xlink:href="#m83aaac88f4" y="193.246467"/>
     <use style="fill:#ff7f00;fill-opacity:0.7;stroke:#ff7f00;stroke-opacity:0.7;" x="280.385341" xlink:href="#m83aaac88f4" y="177.964139"/>
     <use style="fill:#ff7f00;fill-opacity:0.7;stroke:#ff7f00;stroke-opacity:0.7;" x="288.501705" xlink:href="#m83aaac88f4" y="163.621613"/>
     <use style="fill:#ff7f00;fill-opacity:0.7;stroke:#ff7f00;stroke-opacity:0.7;" x="296.618068" xlink:href="#m83aaac88f4" y="150.197664"/>
     <use style="fill:#ff7f00;fill-opacity:0.7;stroke:#ff7f00;stroke-opacity:0.7;" x="304.734432" xlink:href="#m83aaac88f4" y="137.652114"/>
     <use style="fill:#ff7f00;fill-opacity:0.7;stroke:#ff7f00;stroke-opacity:0.7;" x="312.850795" xlink:href="#m83aaac88f4" y="125.936377"/>
     <use style="fill:#ff7f00;fill-opacity:0.7;stroke:#ff7f00;stroke-opacity:0.7;" x="320.967159" xlink:href="#m83aaac88f4" y="114.998385"/>
     <use style="fill:#ff7f00;fill-opacity:0.7;stroke:#ff7f00;stroke-opacity:0.7;" x="329.083523" xlink:href="#m83aaac88f4" y="104.784924"/>
     <use style="fill:#ff7f00;fill-opacity:0.7;stroke:#ff7f00;stroke-opacity:0.7;" x="337.199886" xlink:href="#m83aaac88f4" y="95.242959"/>
     <use style="fill:#ff7f00;fill-opacity:0.7;stroke:#ff7f00;stroke-opacity:0.7;" x="345.31625" xlink:href="#m83aaac88f4" y="86.320999"/>
     <use style="fill:#ff7f00;fill-opacity:0.7;stroke:#ff7f00;stroke-opacity:0.7;" x="353.432614" xlink:href="#m83aaac88f4" y="77.969771"/>
     <use style="fill:#ff7f00;fill-opacity:0.7;stroke:#ff7f00;stroke-opacity:0.7;" x="361.548977" xlink:href="#m83aaac88f4" y="70.143045"/>
     <use style="fill:#ff7f00;fill-opacity:0.7;stroke:#ff7f00;stroke-opacity:0.7;" x="369.665341" xlink:href="#m83aaac88f4" y="62.797823"/>
     <use style="fill:#ff7f00;fill-opacity:0.7;stroke:#ff7f00;stroke-opacity:0.7;" x="377.781705" xlink:href="#m83aaac88f4" y="54.967787"/>
     <use style="fill:#ff7f00;fill-opacity:0.7;stroke:#ff7f00;stroke-opacity:0.7;" x="385.898068" xlink:href="#m83aaac88f4" y="46.940619"/>
     <use style="fill:#ff7f00;fill-opacity:0.7;stroke:#ff7f00;stroke-opacity:0.7;" x="394.014432" xlink:href="#m83aaac88f4" y="39.399114"/>
     <use style="fill:#ff7f00;fill-opacity:0.7;stroke:#ff7f00;stroke-opacity:0.7;" x="402.130795" xlink:href="#m83aaac88f4" y="32.302146"/>
     <use style="fill:#ff7f00;fill-opacity:0.7;stroke:#ff7f00;stroke-opacity:0.7;" x="410.247159" xlink:href="#m83aaac88f4" y="25.612366"/>
     <use style="fill:#ff7f00;fill-opacity:0.7;stroke:#ff7f00;stroke-opacity:0.7;" x="418.363523" xlink:href="#m83aaac88f4" y="19.296"/>
    </g>
   </g>
   <g id="patch_3">
    <path d="M 77.47625 273.312 
L 77.47625 7.2 
" style="fill:none;stroke:#000000;stroke-linecap:square;stroke-linejoin:miter;stroke-width:0.8;"/>
   </g>
   <g id="patch_4">
    <path d="M 434.59625 273.312 
L 434.59625 7.2 
" style="fill:none;stroke:#000000;stroke-linecap:square;stroke-linejoin:miter;stroke-width:0.8;"/>
   </g>
   <g id="patch_5">
    <path d="M 77.47625 273.312 
L 434.59625 273.312 
" style="fill:none;stroke:#000000;stroke-linecap:square;stroke-linejoin:miter;stroke-width:0.8;"/>
   </g>
   <g id="patch_6">
    <path d="M 77.47625 7.2 
L 434.59625 7.2 
" style="fill:none;stroke:#000000;stroke-linecap:square;stroke-linejoin:miter;stroke-width:0.8;"/>
   </g>
   <g id="legend_1">
    <g id="patch_7">
     <path d="M 323.454688 264.312 
L 421.99625 264.312 
Q 425.59625 264.312 425.59625 260.712 
L 425.59625 130.408875 
Q 425.59625 126.808875 421.99625 126.808875 
L 323.454688 126.808875 
Q 319.854688 126.808875 319.854688 130.408875 
L 319.854688 260.712 
Q 319.854688 264.312 323.454688 264.312 
z
" style="fill:#ffffff;opacity:0.8;stroke:#cccccc;stroke-linejoin:miter;"/>
    </g>
    <g id="line2d_17">
     <path d="M 327.054688 141.386062 
L 363.054688 141.386062 
" style="fill:none;stroke:#e41a1c;stroke-dasharray:3,4.95;stroke-dashoffset:0;stroke-opacity:0.7;stroke-width:3;"/>
    </g>
    <g id="line2d_18">
     <g>
      <use style="fill:#e41a1c;fill-opacity:0.7;stroke:#e41a1c;stroke-opacity:0.7;" x="345.054688" xlink:href="#mae2d50ae47" y="141.386062"/>
     </g>
    </g>
    <g id="text_14">
     <!-- L-12 -->
     <defs>
      <path d="M 5.515625 0 
L 5.515625 5.171875 
L 14.796875 5.171875 
L 14.796875 67.671875 
L 5.515625 67.671875 
L 5.515625 72.90625 
L 33.984375 72.90625 
L 33.984375 67.671875 
L 24.703125 67.671875 
L 24.703125 6 
L 58.015625 6 
L 58.015625 18.21875 
L 64.015625 18.21875 
L 64.015625 0 
z
" id="DejaVuSerif-76"/>
      <path d="M 4.390625 30.609375 
L 29.390625 30.609375 
L 29.390625 23 
L 4.390625 23 
z
" id="DejaVuSerif-45"/>
     </defs>
     <g transform="translate(377.454688 147.686062)scale(0.18 -0.18)">
      <use xlink:href="#DejaVuSerif-76"/>
      <use x="66.40625" xlink:href="#DejaVuSerif-45"/>
      <use x="100.195312" xlink:href="#DejaVuSerif-49"/>
      <use x="163.818359" xlink:href="#DejaVuSerif-50"/>
     </g>
    </g>
    <g id="line2d_19">
     <path d="M 327.054688 167.806687 
L 363.054688 167.806687 
" style="fill:none;stroke:#377eb8;stroke-dasharray:3,4.95;stroke-dashoffset:0;stroke-opacity:0.7;stroke-width:3;"/>
    </g>
    <g id="line2d_20">
     <g>
      <use style="fill:#377eb8;fill-opacity:0.7;stroke:#377eb8;stroke-opacity:0.7;" x="345.054688" xlink:href="#m3d24a6fd9f" y="167.806687"/>
     </g>
    </g>
    <g id="text_15">
     <!-- L-14 -->
     <g transform="translate(377.454688 174.106687)scale(0.18 -0.18)">
      <use xlink:href="#DejaVuSerif-76"/>
      <use x="66.40625" xlink:href="#DejaVuSerif-45"/>
      <use x="100.195312" xlink:href="#DejaVuSerif-49"/>
      <use x="163.818359" xlink:href="#DejaVuSerif-52"/>
     </g>
    </g>
    <g id="line2d_21">
     <path d="M 327.054688 194.227312 
L 363.054688 194.227312 
" style="fill:none;stroke:#4daf4a;stroke-dasharray:3,4.95;stroke-dashoffset:0;stroke-opacity:0.7;stroke-width:3;"/>
    </g>
    <g id="line2d_22">
     <g>
      <use style="fill:#4daf4a;fill-opacity:0.7;stroke:#4daf4a;stroke-opacity:0.7;" x="345.054688" xlink:href="#m2e7088e7b2" y="194.227312"/>
     </g>
    </g>
    <g id="text_16">
     <!-- L-16 -->
     <g transform="translate(377.454688 200.527312)scale(0.18 -0.18)">
      <use xlink:href="#DejaVuSerif-76"/>
      <use x="66.40625" xlink:href="#DejaVuSerif-45"/>
      <use x="100.195312" xlink:href="#DejaVuSerif-49"/>
      <use x="163.818359" xlink:href="#DejaVuSerif-54"/>
     </g>
    </g>
    <g id="line2d_23">
     <path d="M 327.054688 220.647937 
L 363.054688 220.647937 
" style="fill:none;stroke:#984ea3;stroke-dasharray:3,4.95;stroke-dashoffset:0;stroke-opacity:0.7;stroke-width:3;"/>
    </g>
    <g id="line2d_24">
     <g>
      <use style="fill:#984ea3;fill-opacity:0.7;stroke:#984ea3;stroke-opacity:0.7;" x="345.054688" xlink:href="#meab306f90a" y="220.647937"/>
     </g>
    </g>
    <g id="text_17">
     <!-- L-18 -->
     <g transform="translate(377.454688 226.947937)scale(0.18 -0.18)">
      <use xlink:href="#DejaVuSerif-76"/>
      <use x="66.40625" xlink:href="#DejaVuSerif-45"/>
      <use x="100.195312" xlink:href="#DejaVuSerif-49"/>
      <use x="163.818359" xlink:href="#DejaVuSerif-56"/>
     </g>
    </g>
    <g id="line2d_25">
     <path d="M 327.054688 247.068562 
L 363.054688 247.068562 
" style="fill:none;stroke:#ff7f00;stroke-dasharray:3,4.95;stroke-dashoffset:0;stroke-opacity:0.7;stroke-width:3;"/>
    </g>
    <g id="line2d_26">
     <g>
      <use style="fill:#ff7f00;fill-opacity:0.7;stroke:#ff7f00;stroke-opacity:0.7;" x="345.054688" xlink:href="#m83aaac88f4" y="247.068562"/>
     </g>
    </g>
    <g id="text_18">
     <!-- L-20 -->
     <g transform="translate(377.454688 253.368562)scale(0.18 -0.18)">
      <use xlink:href="#DejaVuSerif-76"/>
      <use x="66.40625" xlink:href="#DejaVuSerif-45"/>
      <use x="100.195312" xlink:href="#DejaVuSerif-50"/>
      <use x="163.818359" xlink:href="#DejaVuSerif-48"/>
     </g>
    </g>
   </g>
  </g>
 </g>
 <defs>
  <clipPath id="pcf0fefa27c">
   <rect height="266.112" width="357.12" x="77.47625" y="7.2"/>
  </clipPath>
 </defs>
</svg>
