<?xml version="1.0" encoding="utf-8" standalone="no"?>
<!DOCTYPE svg PUBLIC "-//W3C//DTD SVG 1.1//EN"
  "http://www.w3.org/Graphics/SVG/1.1/DTD/svg11.dtd">
<!-- Created with matplotlib (https://matplotlib.org/) -->
<svg height="335.64825pt" version="1.1" viewBox="0 0 437.925 335.64825" width="437.925pt" xmlns="http://www.w3.org/2000/svg" xmlns:xlink="http://www.w3.org/1999/xlink">
 <defs>
  <style type="text/css">
*{stroke-linecap:butt;stroke-linejoin:round;}
  </style>
 </defs>
 <g id="figure_1">
  <g id="patch_1">
   <path d="M 0 335.64825 
L 437.925 335.64825 
L 437.925 0 
L 0 0 
z
" style="fill:#ffffff;"/>
  </g>
  <g id="axes_1">
   <g id="patch_2">
    <path d="M 73.605 273.312 
L 430.725 273.312 
L 430.725 7.2 
L 73.605 7.2 
z
" style="fill:#ffffff;"/>
   </g>
   <g id="matplotlib.axis_1">
    <g id="xtick_1">
     <g id="line2d_1">
      <defs>
       <path d="M 0 0 
L 0 -8 
" id="m4d87b8b85c" style="stroke:#000000;stroke-width:0.8;"/>
      </defs>
      <g>
       <use style="stroke:#000000;stroke-width:0.8;" x="81.721364" xlink:href="#m4d87b8b85c" y="273.312"/>
      </g>
     </g>
     <g id="text_1">
      <!-- 0.0 -->
      <defs>
       <path d="M 31.78125 3.421875 
Q 39.265625 3.421875 42.96875 11.625 
Q 46.6875 19.828125 46.6875 36.375 
Q 46.6875 52.984375 42.96875 61.1875 
Q 39.265625 69.390625 31.78125 69.390625 
Q 24.3125 69.390625 20.59375 61.1875 
Q 16.890625 52.984375 16.890625 36.375 
Q 16.890625 19.828125 20.59375 11.625 
Q 24.3125 3.421875 31.78125 3.421875 
z
M 31.78125 -1.421875 
Q 19.921875 -1.421875 13.25 8.53125 
Q 6.59375 18.5 6.59375 36.375 
Q 6.59375 54.296875 13.25 64.25 
Q 19.921875 74.21875 31.78125 74.21875 
Q 43.703125 74.21875 50.34375 64.25 
Q 56.984375 54.296875 56.984375 36.375 
Q 56.984375 18.5 50.34375 8.53125 
Q 43.703125 -1.421875 31.78125 -1.421875 
z
" id="DejaVuSerif-48"/>
       <path d="M 9.421875 5.078125 
Q 9.421875 7.8125 11.28125 9.71875 
Q 13.140625 11.625 15.921875 11.625 
Q 18.609375 11.625 20.5 9.71875 
Q 22.40625 7.8125 22.40625 5.078125 
Q 22.40625 2.390625 20.5 0.484375 
Q 18.609375 -1.421875 15.921875 -1.421875 
Q 13.140625 -1.421875 11.28125 0.453125 
Q 9.421875 2.34375 9.421875 5.078125 
z
" id="DejaVuSerif-46"/>
      </defs>
      <g transform="translate(65.818239 292.008875)scale(0.2 -0.2)">
       <use xlink:href="#DejaVuSerif-48"/>
       <use x="63.623047" xlink:href="#DejaVuSerif-46"/>
       <use x="95.410156" xlink:href="#DejaVuSerif-48"/>
      </g>
     </g>
    </g>
    <g id="xtick_2">
     <g id="line2d_2">
      <g>
       <use style="stroke:#000000;stroke-width:0.8;" x="162.885" xlink:href="#m4d87b8b85c" y="273.312"/>
      </g>
     </g>
     <g id="text_2">
      <!-- 0.1 -->
      <defs>
       <path d="M 14.203125 0 
L 14.203125 5.171875 
L 26.90625 5.171875 
L 26.90625 65.828125 
L 12.203125 56.296875 
L 12.203125 62.703125 
L 29.984375 74.21875 
L 36.71875 74.21875 
L 36.71875 5.171875 
L 49.421875 5.171875 
L 49.421875 0 
z
" id="DejaVuSerif-49"/>
      </defs>
      <g transform="translate(146.981875 292.008875)scale(0.2 -0.2)">
       <use xlink:href="#DejaVuSerif-48"/>
       <use x="63.623047" xlink:href="#DejaVuSerif-46"/>
       <use x="95.410156" xlink:href="#DejaVuSerif-49"/>
      </g>
     </g>
    </g>
    <g id="xtick_3">
     <g id="line2d_3">
      <g>
       <use style="stroke:#000000;stroke-width:0.8;" x="244.048636" xlink:href="#m4d87b8b85c" y="273.312"/>
      </g>
     </g>
     <g id="text_3">
      <!-- 0.2 -->
      <defs>
       <path d="M 12.796875 55.515625 
L 7.328125 55.515625 
L 7.328125 68.5 
Q 12.546875 71.296875 17.84375 72.75 
Q 23.140625 74.21875 28.21875 74.21875 
Q 39.59375 74.21875 46.1875 68.703125 
Q 52.78125 63.1875 52.78125 53.71875 
Q 52.78125 43.015625 37.84375 28.125 
Q 36.671875 27 36.078125 26.421875 
L 17.671875 8.015625 
L 48.09375 8.015625 
L 48.09375 17 
L 53.8125 17 
L 53.8125 0 
L 6.78125 0 
L 6.78125 5.328125 
L 28.90625 27.390625 
Q 36.234375 34.71875 39.359375 40.84375 
Q 42.484375 46.96875 42.484375 53.71875 
Q 42.484375 61.078125 38.640625 65.234375 
Q 34.8125 69.390625 28.078125 69.390625 
Q 21.09375 69.390625 17.28125 65.921875 
Q 13.484375 62.453125 12.796875 55.515625 
z
" id="DejaVuSerif-50"/>
      </defs>
      <g transform="translate(228.145511 292.008875)scale(0.2 -0.2)">
       <use xlink:href="#DejaVuSerif-48"/>
       <use x="63.623047" xlink:href="#DejaVuSerif-46"/>
       <use x="95.410156" xlink:href="#DejaVuSerif-50"/>
      </g>
     </g>
    </g>
    <g id="xtick_4">
     <g id="line2d_4">
      <g>
       <use style="stroke:#000000;stroke-width:0.8;" x="325.212273" xlink:href="#m4d87b8b85c" y="273.312"/>
      </g>
     </g>
     <g id="text_4">
      <!-- 0.3 -->
      <defs>
       <path d="M 9.71875 69.828125 
Q 15.4375 71.96875 20.671875 73.09375 
Q 25.921875 74.21875 30.515625 74.21875 
Q 41.21875 74.21875 47.21875 69.59375 
Q 53.21875 64.984375 53.21875 56.78125 
Q 53.21875 50.203125 49.0625 45.78125 
Q 44.921875 41.359375 37.3125 39.796875 
Q 46.296875 38.53125 51.25 33.28125 
Q 56.203125 28.03125 56.203125 19.671875 
Q 56.203125 9.46875 49.34375 4.015625 
Q 42.484375 -1.421875 29.59375 -1.421875 
Q 23.875 -1.421875 18.421875 -0.1875 
Q 12.984375 1.03125 7.625 3.515625 
L 7.625 17.671875 
L 13.09375 17.671875 
Q 13.578125 10.640625 17.828125 7.03125 
Q 22.078125 3.421875 29.78125 3.421875 
Q 37.25 3.421875 41.578125 7.734375 
Q 45.90625 12.0625 45.90625 19.578125 
Q 45.90625 28.171875 41.453125 32.59375 
Q 37.015625 37.015625 28.421875 37.015625 
L 23.78125 37.015625 
L 23.78125 42 
L 26.21875 42 
Q 34.765625 42 39.03125 45.53125 
Q 43.3125 49.078125 43.3125 56.203125 
Q 43.3125 62.59375 39.796875 65.984375 
Q 36.28125 69.390625 29.6875 69.390625 
Q 23.09375 69.390625 19.453125 66.265625 
Q 15.828125 63.140625 15.1875 56.984375 
L 9.71875 56.984375 
z
" id="DejaVuSerif-51"/>
      </defs>
      <g transform="translate(309.309148 292.008875)scale(0.2 -0.2)">
       <use xlink:href="#DejaVuSerif-48"/>
       <use x="63.623047" xlink:href="#DejaVuSerif-46"/>
       <use x="95.410156" xlink:href="#DejaVuSerif-51"/>
      </g>
     </g>
    </g>
    <g id="xtick_5">
     <g id="line2d_5">
      <g>
       <use style="stroke:#000000;stroke-width:0.8;" x="406.375909" xlink:href="#m4d87b8b85c" y="273.312"/>
      </g>
     </g>
     <g id="text_5">
      <!-- 0.4 -->
      <defs>
       <path d="M 34.90625 24.703125 
L 34.90625 63.484375 
L 10.015625 24.703125 
z
M 56.390625 0 
L 23.1875 0 
L 23.1875 5.171875 
L 34.90625 5.171875 
L 34.90625 19.484375 
L 3.078125 19.484375 
L 3.078125 24.8125 
L 35.015625 74.21875 
L 44.671875 74.21875 
L 44.671875 24.703125 
L 58.59375 24.703125 
L 58.59375 19.484375 
L 44.671875 19.484375 
L 44.671875 5.171875 
L 56.390625 5.171875 
z
" id="DejaVuSerif-52"/>
      </defs>
      <g transform="translate(390.472784 292.008875)scale(0.2 -0.2)">
       <use xlink:href="#DejaVuSerif-48"/>
       <use x="63.623047" xlink:href="#DejaVuSerif-46"/>
       <use x="95.410156" xlink:href="#DejaVuSerif-52"/>
      </g>
     </g>
    </g>
    <g id="text_6">
     <!-- Tunneling $J/U$ -->
     <defs>
      <path d="M 19.09375 0 
L 19.09375 5.171875 
L 28.421875 5.171875 
L 28.421875 67.09375 
L 6.984375 67.09375 
L 6.984375 55.71875 
L 0.984375 55.71875 
L 0.984375 72.90625 
L 65.71875 72.90625 
L 65.71875 55.71875 
L 59.71875 55.71875 
L 59.71875 67.09375 
L 38.28125 67.09375 
L 38.28125 5.171875 
L 47.609375 5.171875 
L 47.609375 0 
z
" id="DejaVuSerif-84"/>
      <path d="M 35.40625 51.90625 
L 52.203125 51.90625 
L 52.203125 5.171875 
L 60.6875 5.171875 
L 60.6875 0 
L 43.21875 0 
L 43.21875 9.1875 
Q 40.71875 4 36.765625 1.28125 
Q 32.8125 -1.421875 27.59375 -1.421875 
Q 18.953125 -1.421875 14.875 3.484375 
Q 10.796875 8.40625 10.796875 18.890625 
L 10.796875 46.6875 
L 2.6875 46.6875 
L 2.6875 51.90625 
L 19.828125 51.90625 
L 19.828125 21.6875 
Q 19.828125 12.203125 22.140625 8.6875 
Q 24.46875 5.171875 30.421875 5.171875 
Q 36.671875 5.171875 39.9375 9.765625 
Q 43.21875 14.359375 43.21875 23.09375 
L 43.21875 46.6875 
L 35.40625 46.6875 
z
" id="DejaVuSerif-117"/>
      <path d="M 4.109375 0 
L 4.109375 5.171875 
L 12.203125 5.171875 
L 12.203125 46.6875 
L 3.609375 46.6875 
L 3.609375 51.90625 
L 21.1875 51.90625 
L 21.1875 42.671875 
Q 23.6875 47.953125 27.65625 50.640625 
Q 31.640625 53.328125 36.921875 53.328125 
Q 45.515625 53.328125 49.5625 48.390625 
Q 53.609375 43.453125 53.609375 33.015625 
L 53.609375 5.171875 
L 61.625 5.171875 
L 61.625 0 
L 36.8125 0 
L 36.8125 5.171875 
L 44.578125 5.171875 
L 44.578125 30.171875 
Q 44.578125 39.703125 42.234375 43.234375 
Q 39.890625 46.78125 33.984375 46.78125 
Q 27.734375 46.78125 24.453125 42.203125 
Q 21.1875 37.640625 21.1875 28.90625 
L 21.1875 5.171875 
L 29 5.171875 
L 29 0 
z
" id="DejaVuSerif-110"/>
      <path d="M 54.203125 25 
L 15.484375 25 
L 15.484375 24.609375 
Q 15.484375 14.109375 19.4375 8.765625 
Q 23.390625 3.421875 31.109375 3.421875 
Q 37.015625 3.421875 40.796875 6.515625 
Q 44.578125 9.625 46.09375 15.71875 
L 53.328125 15.71875 
Q 51.171875 7.171875 45.375 2.875 
Q 39.59375 -1.421875 30.171875 -1.421875 
Q 18.796875 -1.421875 11.890625 6.078125 
Q 4.984375 13.578125 4.984375 25.984375 
Q 4.984375 38.28125 11.765625 45.796875 
Q 18.5625 53.328125 29.59375 53.328125 
Q 41.359375 53.328125 47.65625 46.0625 
Q 53.953125 38.8125 54.203125 25 
z
M 43.609375 30.171875 
Q 43.3125 39.265625 39.765625 43.875 
Q 36.234375 48.484375 29.59375 48.484375 
Q 23.390625 48.484375 19.828125 43.84375 
Q 16.265625 39.203125 15.484375 30.171875 
z
" id="DejaVuSerif-101"/>
      <path d="M 20.515625 5.171875 
L 29 5.171875 
L 29 0 
L 2.875 0 
L 2.875 5.171875 
L 11.53125 5.171875 
L 11.53125 70.796875 
L 2.875 70.796875 
L 2.875 75.984375 
L 20.515625 75.984375 
z
" id="DejaVuSerif-108"/>
      <path d="M 9.71875 68.015625 
Q 9.71875 70.265625 11.34375 71.921875 
Q 12.984375 73.578125 15.28125 73.578125 
Q 17.53125 73.578125 19.15625 71.921875 
Q 20.796875 70.265625 20.796875 68.015625 
Q 20.796875 65.71875 19.1875 64.109375 
Q 17.578125 62.5 15.28125 62.5 
Q 12.984375 62.5 11.34375 64.109375 
Q 9.71875 65.71875 9.71875 68.015625 
z
M 21.1875 5.171875 
L 29.6875 5.171875 
L 29.6875 0 
L 3.609375 0 
L 3.609375 5.171875 
L 12.203125 5.171875 
L 12.203125 46.6875 
L 3.609375 46.6875 
L 3.609375 51.90625 
L 21.1875 51.90625 
z
" id="DejaVuSerif-105"/>
      <path d="M 52.484375 46.6875 
L 52.484375 1.125 
Q 52.484375 -10.0625 46.328125 -16.140625 
Q 40.1875 -22.21875 28.8125 -22.21875 
Q 23.6875 -22.21875 19 -21.28125 
Q 14.3125 -20.359375 10.015625 -18.5 
L 10.015625 -7.625 
L 14.703125 -7.625 
Q 15.578125 -12.703125 18.84375 -15.046875 
Q 22.125 -17.390625 28.21875 -17.390625 
Q 36.140625 -17.390625 39.8125 -12.921875 
Q 43.5 -8.453125 43.5 1.125 
L 43.5 8.109375 
Q 40.875 3.21875 36.796875 0.890625 
Q 32.71875 -1.421875 26.703125 -1.421875 
Q 17.140625 -1.421875 11.0625 6.171875 
Q 4.984375 13.765625 4.984375 25.984375 
Q 4.984375 38.1875 11.03125 45.75 
Q 17.09375 53.328125 26.703125 53.328125 
Q 32.71875 53.328125 36.796875 51 
Q 40.875 48.6875 43.5 43.796875 
L 43.5 51.90625 
L 61.078125 51.90625 
L 61.078125 46.6875 
z
M 43.5 28.515625 
Q 43.5 37.84375 39.90625 42.765625 
Q 36.328125 47.703125 29.5 47.703125 
Q 22.5625 47.703125 19.015625 42.234375 
Q 15.484375 36.765625 15.484375 25.984375 
Q 15.484375 15.234375 19.015625 9.71875 
Q 22.5625 4.203125 29.5 4.203125 
Q 36.328125 4.203125 39.90625 9.109375 
Q 43.5 14.015625 43.5 23.390625 
z
" id="DejaVuSerif-103"/>
      <path id="DejaVuSerif-32"/>
      <path d="M 10.890625 6 
Q 11.859375 3.21875 14.5 1.796875 
Q 17.140625 0.390625 20.21875 0.390625 
Q 23.34375 0.390625 26.25 2.5625 
Q 29.15625 4.734375 31.171875 8 
Q 33.203125 11.28125 33.984375 14.5 
L 45.796875 61.8125 
Q 45.90625 62.203125 45.921875 62.390625 
Q 45.953125 62.59375 46 62.796875 
Q 46 63.875 45.21875 64.109375 
Q 42.578125 64.796875 34.515625 64.796875 
Q 33.5 64.796875 33.5 66.109375 
Q 33.6875 66.890625 33.8125 67.328125 
Q 33.9375 67.78125 34.25 68.046875 
Q 34.578125 68.3125 35.203125 68.3125 
L 62.3125 68.3125 
Q 63.28125 68.3125 63.28125 67 
Q 62.890625 64.796875 62.015625 64.796875 
Q 58.5 64.796875 56.6875 64.25 
Q 54.890625 63.71875 54.203125 61.375 
L 42.390625 14.109375 
Q 41.265625 9.46875 37.8125 5.734375 
Q 34.375 2 29.640625 -0.09375 
Q 24.90625 -2.203125 20.125 -2.203125 
Q 14.84375 -2.203125 10.859375 0.71875 
Q 6.890625 3.65625 6.890625 8.6875 
Q 6.890625 12.015625 8.6875 14.40625 
Q 10.5 16.796875 13.8125 16.796875 
Q 15.71875 16.796875 17.015625 15.625 
Q 18.3125 14.453125 18.3125 12.59375 
Q 18.3125 9.90625 16.3125 7.90625 
Q 14.3125 5.90625 11.625 5.90625 
Q 11.078125 5.90625 10.890625 6 
z
" id="Cmmi10-74"/>
      <path d="M 5.609375 -23 
Q 5.609375 -22.703125 5.71875 -22.609375 
L 40.484375 73.78125 
Q 40.671875 74.359375 41.15625 74.671875 
Q 41.65625 75 42.28125 75 
Q 43.171875 75 43.71875 74.453125 
Q 44.28125 73.921875 44.28125 73 
L 44.28125 72.609375 
L 9.515625 -23.78125 
Q 8.9375 -25 7.625 -25 
Q 6.78125 -25 6.1875 -24.40625 
Q 5.609375 -23.828125 5.609375 -23 
z
" id="Cmmi10-61"/>
      <path d="M 14.703125 13.921875 
Q 14.703125 10.25 16.140625 7.375 
Q 17.578125 4.5 20.3125 2.90625 
Q 23.046875 1.3125 26.703125 1.3125 
Q 31 1.3125 35.078125 3.0625 
Q 39.15625 4.828125 42.421875 7.953125 
Q 45.703125 11.078125 48.015625 15.078125 
Q 50.34375 19.09375 51.3125 23 
L 60.296875 59.078125 
Q 60.5 60.15625 60.5 60.59375 
Q 60.5 64.796875 52.78125 64.796875 
Q 51.8125 64.796875 51.8125 66.109375 
Q 52.15625 67.390625 52.34375 67.84375 
Q 52.546875 68.3125 53.515625 68.3125 
L 75.203125 68.3125 
Q 75.640625 68.3125 75.921875 67.875 
Q 76.21875 67.4375 76.21875 67 
Q 76.21875 66.9375 76.015625 66.234375 
Q 75.828125 65.53125 75.5625 65.15625 
Q 75.296875 64.796875 74.90625 64.796875 
Q 65.328125 64.796875 63.8125 58.6875 
L 54.78125 22.609375 
Q 53.65625 17.921875 51 13.5 
Q 48.34375 9.078125 44.453125 5.484375 
Q 40.578125 1.90625 35.90625 -0.140625 
Q 31.25 -2.203125 26.421875 -2.203125 
Q 20.90625 -2.203125 16.328125 0.21875 
Q 11.765625 2.640625 9.171875 6.984375 
Q 6.59375 11.328125 6.59375 17 
Q 6.59375 20.265625 7.328125 23 
L 17 61.8125 
Q 17.1875 62.796875 17.1875 63.1875 
Q 17.1875 64.265625 16.015625 64.40625 
Q 14.109375 64.796875 8.796875 64.796875 
Q 7.8125 64.796875 7.8125 66.109375 
Q 8.15625 67.390625 8.34375 67.84375 
Q 8.546875 68.3125 9.515625 68.3125 
L 36.375 68.3125 
Q 37.40625 68.3125 37.40625 67 
Q 37.359375 66.75 37.203125 66.15625 
Q 37.0625 65.578125 36.8125 65.1875 
Q 36.578125 64.796875 36.078125 64.796875 
Q 29.984375 64.796875 27.59375 64.109375 
Q 26.265625 63.625 25.6875 61.375 
L 16.015625 22.609375 
Q 14.703125 17.328125 14.703125 13.921875 
z
" id="Cmmi10-85"/>
     </defs>
     <g transform="translate(151.785 321.44825)scale(0.28 -0.28)">
      <use transform="translate(0 0.015625)" xlink:href="#DejaVuSerif-84"/>
      <use transform="translate(66.699219 0.015625)" xlink:href="#DejaVuSerif-117"/>
      <use transform="translate(131.103516 0.015625)" xlink:href="#DejaVuSerif-110"/>
      <use transform="translate(195.507812 0.015625)" xlink:href="#DejaVuSerif-110"/>
      <use transform="translate(259.912109 0.015625)" xlink:href="#DejaVuSerif-101"/>
      <use transform="translate(319.091797 0.015625)" xlink:href="#DejaVuSerif-108"/>
      <use transform="translate(351.074219 0.015625)" xlink:href="#DejaVuSerif-105"/>
      <use transform="translate(383.056641 0.015625)" xlink:href="#DejaVuSerif-110"/>
      <use transform="translate(447.460938 0.015625)" xlink:href="#DejaVuSerif-103"/>
      <use transform="translate(511.474609 0.015625)" xlink:href="#DejaVuSerif-32"/>
      <use transform="translate(543.261719 0.015625)" xlink:href="#Cmmi10-74"/>
      <use transform="translate(598.681641 0.015625)" xlink:href="#Cmmi10-61"/>
      <use transform="translate(648.681641 0.015625)" xlink:href="#Cmmi10-85"/>
     </g>
    </g>
   </g>
   <g id="matplotlib.axis_2">
    <g id="ytick_1">
     <g id="line2d_6">
      <defs>
       <path d="M 0 0 
L 8 0 
" id="m7592d8cde8" style="stroke:#000000;stroke-width:0.8;"/>
      </defs>
      <g>
       <use style="stroke:#000000;stroke-width:0.8;" x="73.605" xlink:href="#m7592d8cde8" y="262.426658"/>
      </g>
     </g>
     <g id="text_7">
      <!-- 0.0 -->
      <g transform="translate(38.29875 270.025095)scale(0.2 -0.2)">
       <use xlink:href="#DejaVuSerif-48"/>
       <use x="63.623047" xlink:href="#DejaVuSerif-46"/>
       <use x="95.410156" xlink:href="#DejaVuSerif-48"/>
      </g>
     </g>
    </g>
    <g id="ytick_2">
     <g id="line2d_7">
      <g>
       <use style="stroke:#000000;stroke-width:0.8;" x="73.605" xlink:href="#m7592d8cde8" y="213.800526"/>
      </g>
     </g>
     <g id="text_8">
      <!-- 0.2 -->
      <g transform="translate(38.29875 221.398964)scale(0.2 -0.2)">
       <use xlink:href="#DejaVuSerif-48"/>
       <use x="63.623047" xlink:href="#DejaVuSerif-46"/>
       <use x="95.410156" xlink:href="#DejaVuSerif-50"/>
      </g>
     </g>
    </g>
    <g id="ytick_3">
     <g id="line2d_8">
      <g>
       <use style="stroke:#000000;stroke-width:0.8;" x="73.605" xlink:href="#m7592d8cde8" y="165.174395"/>
      </g>
     </g>
     <g id="text_9">
      <!-- 0.4 -->
      <g transform="translate(38.29875 172.772832)scale(0.2 -0.2)">
       <use xlink:href="#DejaVuSerif-48"/>
       <use x="63.623047" xlink:href="#DejaVuSerif-46"/>
       <use x="95.410156" xlink:href="#DejaVuSerif-52"/>
      </g>
     </g>
    </g>
    <g id="ytick_4">
     <g id="line2d_9">
      <g>
       <use style="stroke:#000000;stroke-width:0.8;" x="73.605" xlink:href="#m7592d8cde8" y="116.548263"/>
      </g>
     </g>
     <g id="text_10">
      <!-- 0.6 -->
      <defs>
       <path d="M 32.71875 3.421875 
Q 39.59375 3.421875 43.296875 8.46875 
Q 47.015625 13.53125 47.015625 23 
Q 47.015625 32.46875 43.296875 37.515625 
Q 39.59375 42.578125 32.71875 42.578125 
Q 25.734375 42.578125 22.0625 37.6875 
Q 18.40625 32.8125 18.40625 23.578125 
Q 18.40625 13.875 22.109375 8.640625 
Q 25.828125 3.421875 32.71875 3.421875 
z
M 16.796875 40.140625 
Q 20.125 43.796875 24.3125 45.59375 
Q 28.515625 47.40625 33.796875 47.40625 
Q 44.671875 47.40625 51 40.859375 
Q 57.328125 34.328125 57.328125 23 
Q 57.328125 11.921875 50.515625 5.25 
Q 43.703125 -1.421875 32.328125 -1.421875 
Q 19.96875 -1.421875 13.328125 7.78125 
Q 6.6875 17 6.6875 34.078125 
Q 6.6875 53.21875 14.546875 63.71875 
Q 22.40625 74.21875 36.71875 74.21875 
Q 40.578125 74.21875 44.828125 73.484375 
Q 49.078125 72.75 53.515625 71.296875 
L 53.515625 59.28125 
L 48 59.28125 
Q 47.40625 64.203125 44.234375 66.796875 
Q 41.0625 69.390625 35.6875 69.390625 
Q 26.21875 69.390625 21.578125 62.203125 
Q 16.9375 55.03125 16.796875 40.140625 
z
" id="DejaVuSerif-54"/>
      </defs>
      <g transform="translate(38.29875 124.146701)scale(0.2 -0.2)">
       <use xlink:href="#DejaVuSerif-48"/>
       <use x="63.623047" xlink:href="#DejaVuSerif-46"/>
       <use x="95.410156" xlink:href="#DejaVuSerif-54"/>
      </g>
     </g>
    </g>
    <g id="ytick_5">
     <g id="line2d_10">
      <g>
       <use style="stroke:#000000;stroke-width:0.8;" x="73.605" xlink:href="#m7592d8cde8" y="67.922132"/>
      </g>
     </g>
     <g id="text_11">
      <!-- 0.8 -->
      <defs>
       <path d="M 46.578125 19.921875 
Q 46.578125 27.734375 42.6875 32.046875 
Q 38.8125 36.375 31.78125 36.375 
Q 24.75 36.375 20.875 32.046875 
Q 17 27.734375 17 19.921875 
Q 17 12.0625 20.875 7.734375 
Q 24.75 3.421875 31.78125 3.421875 
Q 38.8125 3.421875 42.6875 7.734375 
Q 46.578125 12.0625 46.578125 19.921875 
z
M 44.578125 55.328125 
Q 44.578125 61.96875 41.203125 65.671875 
Q 37.84375 69.390625 31.78125 69.390625 
Q 25.78125 69.390625 22.390625 65.671875 
Q 19 61.96875 19 55.328125 
Q 19 48.640625 22.390625 44.921875 
Q 25.78125 41.21875 31.78125 41.21875 
Q 37.84375 41.21875 41.203125 44.921875 
Q 44.578125 48.640625 44.578125 55.328125 
z
M 39.3125 38.8125 
Q 47.609375 37.703125 52.25 32.6875 
Q 56.890625 27.6875 56.890625 19.921875 
Q 56.890625 9.671875 50.390625 4.125 
Q 43.890625 -1.421875 31.78125 -1.421875 
Q 19.734375 -1.421875 13.203125 4.125 
Q 6.6875 9.671875 6.6875 19.921875 
Q 6.6875 27.6875 11.328125 32.6875 
Q 15.96875 37.703125 24.3125 38.8125 
Q 16.9375 40.140625 13 44.40625 
Q 9.078125 48.6875 9.078125 55.328125 
Q 9.078125 64.109375 15.125 69.15625 
Q 21.1875 74.21875 31.78125 74.21875 
Q 42.390625 74.21875 48.4375 69.15625 
Q 54.5 64.109375 54.5 55.328125 
Q 54.5 48.6875 50.5625 44.40625 
Q 46.625 40.140625 39.3125 38.8125 
z
" id="DejaVuSerif-56"/>
      </defs>
      <g transform="translate(38.29875 75.520569)scale(0.2 -0.2)">
       <use xlink:href="#DejaVuSerif-48"/>
       <use x="63.623047" xlink:href="#DejaVuSerif-46"/>
       <use x="95.410156" xlink:href="#DejaVuSerif-56"/>
      </g>
     </g>
    </g>
    <g id="ytick_6">
     <g id="line2d_11">
      <g>
       <use style="stroke:#000000;stroke-width:0.8;" x="73.605" xlink:href="#m7592d8cde8" y="19.296"/>
      </g>
     </g>
     <g id="text_12">
      <!-- 1.0 -->
      <g transform="translate(38.29875 26.894437)scale(0.2 -0.2)">
       <use xlink:href="#DejaVuSerif-49"/>
       <use x="63.623047" xlink:href="#DejaVuSerif-46"/>
       <use x="95.410156" xlink:href="#DejaVuSerif-48"/>
      </g>
     </g>
    </g>
    <g id="text_13">
     <!-- Diff -->
     <defs>
      <path d="M 24.703125 5.171875 
L 33.796875 5.171875 
Q 48 5.171875 55.59375 13.28125 
Q 63.1875 21.390625 63.1875 36.53125 
Q 63.1875 51.65625 55.609375 59.65625 
Q 48.046875 67.671875 33.796875 67.671875 
L 24.703125 67.671875 
z
M 5.515625 0 
L 5.515625 5.171875 
L 14.796875 5.171875 
L 14.796875 67.671875 
L 5.515625 67.671875 
L 5.515625 72.90625 
L 34.515625 72.90625 
Q 53.375 72.90625 63.890625 63.28125 
Q 74.421875 53.65625 74.421875 36.53125 
Q 74.421875 19.34375 63.875 9.671875 
Q 53.328125 0 34.515625 0 
z
" id="DejaVuSerif-68"/>
      <path d="M 43.015625 63.71875 
L 38.28125 63.71875 
Q 38.234375 67.390625 36.203125 69.28125 
Q 34.1875 71.1875 30.328125 71.1875 
Q 25.296875 71.1875 23.234375 68.421875 
Q 21.1875 65.671875 21.1875 58.59375 
L 21.1875 51.90625 
L 35.6875 51.90625 
L 35.6875 46.6875 
L 21.1875 46.6875 
L 21.1875 5.171875 
L 32.71875 5.171875 
L 32.71875 0 
L 3.609375 0 
L 3.609375 5.171875 
L 12.203125 5.171875 
L 12.203125 46.6875 
L 3.609375 46.6875 
L 3.609375 51.90625 
L 12.203125 51.90625 
L 12.203125 58.40625 
Q 12.203125 67.09375 16.71875 71.53125 
Q 21.234375 75.984375 29.984375 75.984375 
Q 33.25 75.984375 36.515625 75.390625 
Q 39.796875 74.8125 43.015625 73.578125 
z
" id="DejaVuSerif-102"/>
     </defs>
     <g transform="translate(28.475625 166.32225)rotate(-90)scale(0.28 -0.28)">
      <use xlink:href="#DejaVuSerif-68"/>
      <use x="80.175781" xlink:href="#DejaVuSerif-105"/>
      <use x="112.158203" xlink:href="#DejaVuSerif-102"/>
      <use x="149.169922" xlink:href="#DejaVuSerif-102"/>
     </g>
    </g>
   </g>
   <g id="line2d_12">
    <path clip-path="url(#p46fbe00837)" d="M 89.837727 19.296 
L 97.954091 24.945397 
L 106.070455 30.822947 
L 114.186818 37.384368 
L 122.303182 44.729905 
L 130.419545 52.857906 
L 138.535909 61.737772 
L 146.652273 71.330071 
L 154.768636 81.601762 
L 162.885 92.540023 
L 171.001364 104.158693 
L 179.117727 116.504305 
L 187.234091 129.657537 
L 195.350455 143.728921 
L 203.466818 158.847327 
L 211.583182 175.1377 
L 219.699545 192.685971 
L 227.815909 211.490928 
L 235.932273 231.410764 
L 244.048636 252.125953 
L 252.165 251.700057 
L 260.281364 230.922486 
L 268.397727 210.905629 
L 276.514091 192.008398 
L 284.630455 174.411513 
L 292.746818 158.154693 
L 300.863182 143.191177 
L 308.979545 129.432217 
L 317.095909 116.77291 
L 325.212273 105.106404 
L 333.328636 94.330784 
L 341.445 84.352415 
L 349.561364 75.087025 
L 357.677727 66.459793 
L 365.794091 58.404782 
L 373.910455 50.864065 
L 382.026818 43.78669 
L 390.143182 37.128169 
L 398.259545 30.849244 
L 406.375909 24.915413 
L 414.492273 19.296 
" style="fill:none;stroke:#e41a1c;stroke-dasharray:14.8,6.4;stroke-dashoffset:0;stroke-opacity:0.7;stroke-width:4;"/>
   </g>
   <g id="line2d_13">
    <path clip-path="url(#p46fbe00837)" d="M 89.837727 19.296 
L 97.954091 24.061617 
L 106.070455 29.044759 
L 114.186818 34.630379 
L 122.303182 40.905658 
L 130.419545 47.873921 
L 138.535909 55.516184 
L 146.652273 63.807288 
L 154.768636 72.731829 
L 162.885 82.293827 
L 171.001364 92.524673 
L 179.117727 103.489533 
L 187.234091 115.289824 
L 195.350455 128.062759 
L 203.466818 141.974163 
L 211.583182 157.203431 
L 219.699545 173.916019 
L 227.815909 192.220226 
L 235.932273 212.105497 
L 244.048636 233.369729 
L 252.165 255.566623 
L 260.281364 246.821448 
L 268.397727 224.829105 
L 276.514091 203.927805 
L 284.630455 184.486041 
L 292.746818 166.627984 
L 300.863182 150.317247 
L 308.979545 135.438582 
L 317.095909 121.849478 
L 325.212273 109.406247 
L 333.328636 97.974648 
L 341.445 87.434919 
L 349.561364 77.682038 
L 357.677727 68.624912 
L 365.794091 60.184988 
L 373.910455 52.294593 
L 382.026818 44.895362 
L 390.143182 37.936881 
L 398.259545 31.375401 
L 406.375909 25.172895 
L 414.492273 19.296 
" style="fill:none;stroke:#e41a1c;stroke-dasharray:14.8,6.4;stroke-dashoffset:0;stroke-opacity:0.7;stroke-width:4;"/>
   </g>
   <g id="line2d_14">
    <path clip-path="url(#p46fbe00837)" d="M 89.837727 19.296 
L 97.954091 23.551685 
L 106.070455 28.01463 
L 114.186818 33.028527 
L 122.303182 38.672968 
L 130.419545 44.953231 
L 138.535909 51.855791 
L 146.652273 59.363011 
L 154.768636 67.467064 
L 162.885 76.17985 
L 171.001364 85.539872 
L 179.117727 95.619209 
L 187.234091 106.526927 
L 195.350455 118.409745 
L 203.466818 131.448353 
L 211.583182 145.846557 
L 219.699545 161.810294 
L 227.815909 179.512201 
L 235.932273 199.035531 
L 244.048636 220.294792 
L 252.165 242.946194 
L 260.281364 258.510626 
L 268.397727 235.231353 
L 276.514091 212.905104 
L 284.630455 192.09874 
L 292.746818 173.042803 
L 300.863182 155.724633 
L 308.979545 140.011157 
L 317.095909 125.729689 
L 325.212273 112.707375 
L 333.328636 100.784918 
L 341.445 89.82247 
L 349.561364 79.700331 
L 357.677727 70.315172 
L 365.794091 61.57913 
L 373.910455 53.417835 
L 382.026818 45.767691 
L 390.143182 38.574215 
L 398.259545 31.790513 
L 406.375909 25.37607 
L 414.492273 19.296 
" style="fill:none;stroke:#e41a1c;stroke-dasharray:14.8,6.4;stroke-dashoffset:0;stroke-opacity:0.7;stroke-width:4;"/>
   </g>
   <g id="line2d_15">
    <path clip-path="url(#p46fbe00837)" d="M 89.837727 19.296 
L 97.954091 23.213042 
L 106.070455 27.328831 
L 114.186818 31.958922 
L 122.303182 37.178405 
L 130.419545 42.993384 
L 138.535909 49.393375 
L 146.652273 56.364885 
L 154.768636 63.904755 
L 162.885 72.02854 
L 171.001364 80.778385 
L 179.117727 90.229121 
L 187.234091 100.492375 
L 195.350455 111.718459 
L 203.466818 124.094161 
L 211.583182 137.835014 
L 219.699545 153.168943 
L 227.815909 170.307085 
L 235.932273 189.395501 
L 244.048636 210.440077 
L 252.165 233.204375 
L 260.281364 257.114743 
L 268.397727 243.580723 
L 276.514091 220.174496 
L 284.630455 198.282131 
L 292.746818 178.257052 
L 300.863182 160.122367 
L 308.979545 143.733846 
L 317.095909 128.893606 
L 325.212273 115.404275 
L 333.328636 103.085798 
L 341.445 91.78175 
L 349.561364 81.360365 
L 357.677727 71.696767 
L 365.794091 62.720231 
L 373.910455 54.338426 
L 382.026818 46.483259 
L 390.143182 39.097486 
L 398.259545 32.131742 
L 406.375909 25.543018 
L 414.492273 19.296 
" style="fill:none;stroke:#e41a1c;stroke-dasharray:14.8,6.4;stroke-dashoffset:0;stroke-opacity:0.7;stroke-width:4;"/>
   </g>
   <g id="line2d_16">
    <path clip-path="url(#p46fbe00837)" d="M 89.837727 19.296 
L 97.954091 22.96902 
L 106.070455 26.833396 
L 114.186818 31.186175 
L 122.303182 36.095292 
L 130.419545 41.570466 
L 138.535909 47.602433 
L 146.652273 54.180156 
L 154.768636 61.30322 
L 162.885 68.989546 
L 171.001364 77.282975 
L 179.117727 86.259391 
L 187.234091 96.030971 
L 195.350455 106.748971 
L 203.466818 118.602489 
L 211.583182 131.812763 
L 219.699545 146.620199 
L 227.815909 163.26011 
L 235.932273 181.921106 
L 244.048636 202.677215 
L 252.165 225.385775 
L 260.281364 249.564681 
L 268.397727 250.51811 
L 276.514091 226.263944 
L 284.630455 203.470695 
L 292.746818 182.626252 
L 300.863182 163.800269 
L 308.979545 146.842978 
L 317.095909 131.533942 
L 325.212273 117.653379 
L 333.328636 105.003427 
L 341.445 93.413976 
L 349.561364 82.741476 
L 357.677727 72.865572 
L 365.794091 63.685561 
L 373.910455 55.116912 
L 382.026818 47.088431 
L 390.143182 39.539827 
L 398.259545 32.419814 
L 406.375909 25.684456 
L 414.492273 19.296 
" style="fill:none;stroke:#e41a1c;stroke-dasharray:14.8,6.4;stroke-dashoffset:0;stroke-opacity:0.7;stroke-width:4;"/>
   </g>
   <g id="line2d_17">
    <path clip-path="url(#p46fbe00837)" d="M 89.837727 19.296 
L 97.954091 22.781706 
L 106.070455 26.452571 
L 114.186818 30.590421 
L 122.303182 35.260347 
L 130.419545 40.472233 
L 138.535909 46.218014 
L 146.652273 52.488763 
L 154.768636 59.285717 
L 162.885 66.62845 
L 171.001364 74.561302 
L 179.117727 83.16057 
L 187.234091 92.537972 
L 195.350455 102.844423 
L 203.466818 114.269385 
L 211.583182 127.03655 
L 219.699545 141.393621 
L 227.815909 157.591454 
L 235.932273 175.84828 
L 244.048636 196.288923 
L 252.165 218.847962 
L 260.281364 243.13537 
L 268.397727 256.52732 
L 276.514091 231.601787 
L 284.630455 208.045242 
L 292.746818 186.486927 
L 300.863182 167.053019 
L 308.979545 149.583477 
L 317.095909 133.860655 
L 325.212273 119.635862 
L 333.328636 106.692954 
L 341.445 94.852727 
L 349.561364 83.960964 
L 357.677727 73.887178 
L 365.794091 64.530494 
L 373.910455 55.799183 
L 382.026818 47.618829 
L 390.143182 39.927099 
L 398.259545 32.671769 
L 406.375909 25.807972 
L 414.492273 19.296 
" style="fill:none;stroke:#e41a1c;stroke-dasharray:14.8,6.4;stroke-dashoffset:0;stroke-opacity:0.7;stroke-width:4;"/>
   </g>
   <g id="line2d_18">
    <path clip-path="url(#p46fbe00837)" d="M 89.837727 19.296 
L 97.954091 21.905414 
L 106.070455 24.664152 
L 114.186818 27.783288 
L 122.303182 31.313043 
L 130.419545 35.262515 
L 138.535909 39.628734 
L 146.652273 44.40924 
L 154.768636 49.610152 
L 162.885 55.253181 
L 171.001364 61.381111 
L 179.117727 68.063411 
L 187.234091 75.400691 
L 195.350455 83.528664 
L 203.466818 92.620548 
L 211.583182 102.888144 
L 219.699545 114.580114 
L 227.815909 127.976438 
L 235.932273 143.377339 
L 244.048636 161.082103 
L 252.165 181.349202 
L 260.281364 204.321523 
L 268.397727 229.879146 
L 276.514091 257.369922 
L 284.630455 239.536119 
L 292.746818 213.06129 
L 300.863182 189.24813 
L 308.979545 168.201894 
L 317.095909 149.572827 
L 325.212273 132.963374 
L 333.328636 118.028578 
L 341.445 104.486471 
L 349.561364 92.110717 
L 357.677727 80.72113 
L 365.794091 70.172594 
L 373.910455 60.348668 
L 382.026818 51.154045 
L 390.143182 42.510889 
L 398.259545 34.354629 
L 406.375909 26.631473 
L 414.492273 19.296 
" style="fill:none;stroke:#377eb8;stroke-dasharray:14.8,6.4;stroke-dashoffset:0;stroke-opacity:0.7;stroke-width:4;"/>
   </g>
   <g id="line2d_19">
    <path clip-path="url(#p46fbe00837)" d="M 89.837727 19.296 
L 97.954091 21.655253 
L 106.070455 24.151517 
L 114.186818 26.975759 
L 122.303182 30.173396 
L 130.419545 33.753354 
L 138.535909 37.713191 
L 146.652273 42.051594 
L 154.768636 46.77508 
L 162.885 51.904712 
L 171.001364 57.48092 
L 179.117727 63.568911 
L 187.234091 70.262896 
L 195.350455 77.690063 
L 203.466818 86.013201 
L 211.583182 95.432516 
L 219.699545 106.185573 
L 227.815909 118.544496 
L 235.932273 132.809987 
L 244.048636 149.298693 
L 252.165 168.320282 
L 260.281364 190.131806 
L 268.397727 214.842726 
L 276.514091 242.202556 
L 284.630455 253.678993 
L 292.746818 225.211439 
L 300.863182 199.298295 
L 308.979545 176.509346 
L 317.095909 156.50053 
L 325.212273 138.786887 
L 333.328636 122.950689 
L 341.445 108.650419 
L 349.561364 95.622014 
L 357.677727 83.656885 
L 365.794091 72.59251 
L 373.910455 62.298573 
L 382.026818 52.668094 
L 390.143182 43.6153 
L 398.259545 35.0729 
L 406.375909 26.983207 
L 414.492273 19.296 
" style="fill:none;stroke:#377eb8;stroke-dasharray:14.8,6.4;stroke-dashoffset:0;stroke-opacity:0.7;stroke-width:4;"/>
   </g>
   <g id="line2d_20">
    <path clip-path="url(#p46fbe00837)" d="M 89.837727 19.296 
L 97.954091 21.508202 
L 106.070455 23.84983 
L 114.186818 26.500016 
L 122.303182 29.501375 
L 130.419545 32.862357 
L 138.535909 36.581014 
L 146.652273 40.65643 
L 154.768636 45.095263 
L 162.885 49.917714 
L 171.001364 55.162601 
L 179.117727 60.892232 
L 187.234091 67.196334 
L 195.350455 74.196237 
L 203.466818 82.047396 
L 211.583182 90.941567 
L 219.699545 101.107296 
L 227.815909 112.808512 
L 235.932273 126.340891 
L 244.048636 142.023179 
L 252.165 160.182262 
L 260.281364 181.12297 
L 268.397727 205.063542 
L 276.514091 231.979529 
L 284.630455 261.216 
L 292.746818 233.992074 
L 300.863182 206.549418 
L 308.979545 182.445376 
L 317.095909 161.408939 
L 325.212273 142.887 
L 333.328636 126.399992 
L 341.445 111.559782 
L 349.561364 98.069426 
L 357.677727 85.697636 
L 365.794091 74.273358 
L 373.910455 63.650741 
L 382.026818 53.71573 
L 390.143182 44.380043 
L 398.259545 35.569629 
L 406.375909 27.225287 
L 414.492273 19.296 
" style="fill:none;stroke:#377eb8;stroke-dasharray:14.8,6.4;stroke-dashoffset:0;stroke-opacity:0.7;stroke-width:4;"/>
   </g>
   <g id="line2d_21">
    <path clip-path="url(#p46fbe00837)" d="M 89.837727 19.296 
L 97.954091 21.406906 
L 106.070455 23.641888 
L 114.186818 26.171749 
L 122.303182 29.037311 
L 130.419545 32.246662 
L 138.535909 35.798204 
L 146.652273 39.691004 
L 154.768636 43.931913 
L 162.885 48.540387 
L 171.001364 53.554128 
L 179.117727 59.032957 
L 187.234091 65.063488 
L 195.350455 71.762492 
L 203.466818 79.279995 
L 211.583182 87.801099 
L 219.699545 97.547213 
L 227.815909 108.775097 
L 235.932273 121.774538 
L 244.048636 136.862123 
L 252.165 154.370894 
L 260.281364 174.628958 
L 268.397727 197.914272 
L 276.514091 224.338359 
L 284.630455 253.522725 
L 292.746818 240.985814 
L 300.863182 212.369507 
L 308.979545 187.200673 
L 317.095909 165.336831 
L 325.212273 146.175408 
L 333.328636 129.17838 
L 341.445 113.925509 
L 349.561364 99.94481 
L 357.677727 87.268826 
L 365.794091 75.578367 
L 373.910455 64.708312 
L 382.026818 54.549397 
L 390.143182 44.992377 
L 398.259545 35.965357 
L 406.375909 27.410439 
L 414.492273 19.296 
" style="fill:none;stroke:#377eb8;stroke-dasharray:14.8,6.4;stroke-dashoffset:0;stroke-opacity:0.7;stroke-width:4;"/>
   </g>
   <g id="line2d_22">
    <path clip-path="url(#p46fbe00837)" d="M 89.837727 19.296 
L 97.954091 21.332027 
L 106.070455 23.487961 
L 114.186818 25.928718 
L 122.303182 28.693599 
L 130.419545 31.790439 
L 138.535909 35.217814 
L 146.652273 38.975024 
L 154.768636 43.068687 
L 162.885 47.517917 
L 171.001364 52.359175 
L 179.117727 57.650788 
L 187.234091 63.476625 
L 195.350455 69.950063 
L 203.466818 77.216802 
L 211.583182 85.456856 
L 219.699545 94.885616 
L 227.815909 105.754007 
L 235.932273 118.346221 
L 244.048636 132.975724 
L 252.165 149.977017 
L 260.281364 169.690971 
L 268.397727 192.43144 
L 276.514091 218.398167 
L 284.630455 247.410552 
L 292.746818 246.674926 
L 300.863182 217.114512 
L 308.979545 191.029476 
L 317.095909 168.450381 
L 325.212273 148.747594 
L 333.328636 131.200005 
L 341.445 115.614415 
L 349.561364 101.484958 
L 357.677727 88.547385 
L 365.794091 76.607921 
L 373.910455 65.505485 
L 382.026818 55.192339 
L 390.143182 45.463029 
L 398.259545 36.291094 
L 406.375909 27.598316 
L 414.492273 19.296 
" style="fill:none;stroke:#377eb8;stroke-dasharray:14.8,6.4;stroke-dashoffset:0;stroke-opacity:0.7;stroke-width:4;"/>
   </g>
   <g id="line2d_23">
    <path clip-path="url(#p46fbe00837)" d="M 89.837727 19.296 
L 97.954091 21.273343 
L 106.070455 23.367395 
L 114.186818 25.738167 
L 122.303182 28.424089 
L 130.419545 31.432621 
L 138.535909 34.762436 
L 146.652273 38.413038 
L 154.768636 42.390862 
L 162.885 46.714732 
L 171.001364 51.420141 
L 179.117727 56.564012 
L 187.234091 62.228149 
L 195.350455 68.523221 
L 203.466818 75.591263 
L 211.583182 83.608065 
L 219.699545 92.784258 
L 227.815909 103.365608 
L 235.932273 115.631399 
L 244.048636 129.891397 
L 252.165 146.479903 
L 260.281364 165.74466 
L 268.397727 188.022926 
L 276.514091 213.574666 
L 284.630455 242.364519 
L 292.746818 251.476365 
L 300.863182 221.145988 
L 308.979545 194.249148 
L 317.095909 171.039205 
L 325.212273 150.734621 
L 333.328636 132.947777 
L 341.445 117.055658 
L 349.561364 102.683037 
L 357.677727 89.528512 
L 365.794091 77.377532 
L 373.910455 66.096024 
L 382.026818 55.586734 
L 390.143182 45.76516 
L 398.259545 36.41209 
L 406.375909 27.565122 
L 414.492273 19.296 
" style="fill:none;stroke:#377eb8;stroke-dasharray:14.8,6.4;stroke-dashoffset:0;stroke-opacity:0.7;stroke-width:4;"/>
   </g>
   <g id="patch_3">
    <path d="M 73.605 273.312 
L 73.605 7.2 
" style="fill:none;stroke:#000000;stroke-linecap:square;stroke-linejoin:miter;stroke-width:0.8;"/>
   </g>
   <g id="patch_4">
    <path d="M 430.725 273.312 
L 430.725 7.2 
" style="fill:none;stroke:#000000;stroke-linecap:square;stroke-linejoin:miter;stroke-width:0.8;"/>
   </g>
   <g id="patch_5">
    <path d="M 73.605 273.312 
L 430.725 273.312 
" style="fill:none;stroke:#000000;stroke-linecap:square;stroke-linejoin:miter;stroke-width:0.8;"/>
   </g>
   <g id="patch_6">
    <path d="M 73.605 7.2 
L 430.725 7.2 
" style="fill:none;stroke:#000000;stroke-linecap:square;stroke-linejoin:miter;stroke-width:0.8;"/>
   </g>
  </g>
 </g>
 <defs>
  <clipPath id="p46fbe00837">
   <rect height="266.112" width="357.12" x="73.605" y="7.2"/>
  </clipPath>
 </defs>
</svg>
