<?xml version="1.0" encoding="utf-8" standalone="no"?>
<!DOCTYPE svg PUBLIC "-//W3C//DTD SVG 1.1//EN"
  "http://www.w3.org/Graphics/SVG/1.1/DTD/svg11.dtd">
<!-- Created with matplotlib (https://matplotlib.org/) -->
<svg height="339.68825pt" version="1.1" viewBox="0 0 441.79625 339.68825" width="441.79625pt" xmlns="http://www.w3.org/2000/svg" xmlns:xlink="http://www.w3.org/1999/xlink">
 <defs>
  <style type="text/css">
*{stroke-linecap:butt;stroke-linejoin:round;}
  </style>
 </defs>
 <g id="figure_1">
  <g id="patch_1">
   <path d="M 0 339.68825 
L 441.79625 339.68825 
L 441.79625 0 
L 0 0 
z
" style="fill:#ffffff;"/>
  </g>
  <g id="axes_1">
   <g id="patch_2">
    <path d="M 77.47625 273.312 
L 434.59625 273.312 
L 434.59625 7.2 
L 77.47625 7.2 
z
" style="fill:#ffffff;"/>
   </g>
   <g id="matplotlib.axis_1">
    <g id="xtick_1">
     <g id="line2d_1">
      <defs>
       <path d="M 0 0 
L 0 -8 
" id="mb6c90834af" style="stroke:#000000;stroke-width:0.8;"/>
      </defs>
      <g>
       <use style="stroke:#000000;stroke-width:0.8;" x="85.592614" xlink:href="#mb6c90834af" y="273.312"/>
      </g>
     </g>
     <g id="text_1">
      <!-- 0.0 -->
      <defs>
       <path d="M 31.78125 3.421875 
Q 39.265625 3.421875 42.96875 11.625 
Q 46.6875 19.828125 46.6875 36.375 
Q 46.6875 52.984375 42.96875 61.1875 
Q 39.265625 69.390625 31.78125 69.390625 
Q 24.3125 69.390625 20.59375 61.1875 
Q 16.890625 52.984375 16.890625 36.375 
Q 16.890625 19.828125 20.59375 11.625 
Q 24.3125 3.421875 31.78125 3.421875 
z
M 31.78125 -1.421875 
Q 19.921875 -1.421875 13.25 8.53125 
Q 6.59375 18.5 6.59375 36.375 
Q 6.59375 54.296875 13.25 64.25 
Q 19.921875 74.21875 31.78125 74.21875 
Q 43.703125 74.21875 50.34375 64.25 
Q 56.984375 54.296875 56.984375 36.375 
Q 56.984375 18.5 50.34375 8.53125 
Q 43.703125 -1.421875 31.78125 -1.421875 
z
" id="DejaVuSerif-48"/>
       <path d="M 9.421875 5.078125 
Q 9.421875 7.8125 11.28125 9.71875 
Q 13.140625 11.625 15.921875 11.625 
Q 18.609375 11.625 20.5 9.71875 
Q 22.40625 7.8125 22.40625 5.078125 
Q 22.40625 2.390625 20.5 0.484375 
Q 18.609375 -1.421875 15.921875 -1.421875 
Q 13.140625 -1.421875 11.28125 0.453125 
Q 9.421875 2.34375 9.421875 5.078125 
z
" id="DejaVuSerif-46"/>
      </defs>
      <g transform="translate(69.689489 292.008875)scale(0.2 -0.2)">
       <use xlink:href="#DejaVuSerif-48"/>
       <use x="63.623047" xlink:href="#DejaVuSerif-46"/>
       <use x="95.410156" xlink:href="#DejaVuSerif-48"/>
      </g>
     </g>
    </g>
    <g id="xtick_2">
     <g id="line2d_2">
      <g>
       <use style="stroke:#000000;stroke-width:0.8;" x="166.75625" xlink:href="#mb6c90834af" y="273.312"/>
      </g>
     </g>
     <g id="text_2">
      <!-- 0.1 -->
      <defs>
       <path d="M 14.203125 0 
L 14.203125 5.171875 
L 26.90625 5.171875 
L 26.90625 65.828125 
L 12.203125 56.296875 
L 12.203125 62.703125 
L 29.984375 74.21875 
L 36.71875 74.21875 
L 36.71875 5.171875 
L 49.421875 5.171875 
L 49.421875 0 
z
" id="DejaVuSerif-49"/>
      </defs>
      <g transform="translate(150.853125 292.008875)scale(0.2 -0.2)">
       <use xlink:href="#DejaVuSerif-48"/>
       <use x="63.623047" xlink:href="#DejaVuSerif-46"/>
       <use x="95.410156" xlink:href="#DejaVuSerif-49"/>
      </g>
     </g>
    </g>
    <g id="xtick_3">
     <g id="line2d_3">
      <g>
       <use style="stroke:#000000;stroke-width:0.8;" x="247.919886" xlink:href="#mb6c90834af" y="273.312"/>
      </g>
     </g>
     <g id="text_3">
      <!-- 0.2 -->
      <defs>
       <path d="M 12.796875 55.515625 
L 7.328125 55.515625 
L 7.328125 68.5 
Q 12.546875 71.296875 17.84375 72.75 
Q 23.140625 74.21875 28.21875 74.21875 
Q 39.59375 74.21875 46.1875 68.703125 
Q 52.78125 63.1875 52.78125 53.71875 
Q 52.78125 43.015625 37.84375 28.125 
Q 36.671875 27 36.078125 26.421875 
L 17.671875 8.015625 
L 48.09375 8.015625 
L 48.09375 17 
L 53.8125 17 
L 53.8125 0 
L 6.78125 0 
L 6.78125 5.328125 
L 28.90625 27.390625 
Q 36.234375 34.71875 39.359375 40.84375 
Q 42.484375 46.96875 42.484375 53.71875 
Q 42.484375 61.078125 38.640625 65.234375 
Q 34.8125 69.390625 28.078125 69.390625 
Q 21.09375 69.390625 17.28125 65.921875 
Q 13.484375 62.453125 12.796875 55.515625 
z
" id="DejaVuSerif-50"/>
      </defs>
      <g transform="translate(232.016761 292.008875)scale(0.2 -0.2)">
       <use xlink:href="#DejaVuSerif-48"/>
       <use x="63.623047" xlink:href="#DejaVuSerif-46"/>
       <use x="95.410156" xlink:href="#DejaVuSerif-50"/>
      </g>
     </g>
    </g>
    <g id="xtick_4">
     <g id="line2d_4">
      <g>
       <use style="stroke:#000000;stroke-width:0.8;" x="329.083523" xlink:href="#mb6c90834af" y="273.312"/>
      </g>
     </g>
     <g id="text_4">
      <!-- 0.3 -->
      <defs>
       <path d="M 9.71875 69.828125 
Q 15.4375 71.96875 20.671875 73.09375 
Q 25.921875 74.21875 30.515625 74.21875 
Q 41.21875 74.21875 47.21875 69.59375 
Q 53.21875 64.984375 53.21875 56.78125 
Q 53.21875 50.203125 49.0625 45.78125 
Q 44.921875 41.359375 37.3125 39.796875 
Q 46.296875 38.53125 51.25 33.28125 
Q 56.203125 28.03125 56.203125 19.671875 
Q 56.203125 9.46875 49.34375 4.015625 
Q 42.484375 -1.421875 29.59375 -1.421875 
Q 23.875 -1.421875 18.421875 -0.1875 
Q 12.984375 1.03125 7.625 3.515625 
L 7.625 17.671875 
L 13.09375 17.671875 
Q 13.578125 10.640625 17.828125 7.03125 
Q 22.078125 3.421875 29.78125 3.421875 
Q 37.25 3.421875 41.578125 7.734375 
Q 45.90625 12.0625 45.90625 19.578125 
Q 45.90625 28.171875 41.453125 32.59375 
Q 37.015625 37.015625 28.421875 37.015625 
L 23.78125 37.015625 
L 23.78125 42 
L 26.21875 42 
Q 34.765625 42 39.03125 45.53125 
Q 43.3125 49.078125 43.3125 56.203125 
Q 43.3125 62.59375 39.796875 65.984375 
Q 36.28125 69.390625 29.6875 69.390625 
Q 23.09375 69.390625 19.453125 66.265625 
Q 15.828125 63.140625 15.1875 56.984375 
L 9.71875 56.984375 
z
" id="DejaVuSerif-51"/>
      </defs>
      <g transform="translate(313.180398 292.008875)scale(0.2 -0.2)">
       <use xlink:href="#DejaVuSerif-48"/>
       <use x="63.623047" xlink:href="#DejaVuSerif-46"/>
       <use x="95.410156" xlink:href="#DejaVuSerif-51"/>
      </g>
     </g>
    </g>
    <g id="xtick_5">
     <g id="line2d_5">
      <g>
       <use style="stroke:#000000;stroke-width:0.8;" x="410.247159" xlink:href="#mb6c90834af" y="273.312"/>
      </g>
     </g>
     <g id="text_5">
      <!-- 0.4 -->
      <defs>
       <path d="M 34.90625 24.703125 
L 34.90625 63.484375 
L 10.015625 24.703125 
z
M 56.390625 0 
L 23.1875 0 
L 23.1875 5.171875 
L 34.90625 5.171875 
L 34.90625 19.484375 
L 3.078125 19.484375 
L 3.078125 24.8125 
L 35.015625 74.21875 
L 44.671875 74.21875 
L 44.671875 24.703125 
L 58.59375 24.703125 
L 58.59375 19.484375 
L 44.671875 19.484375 
L 44.671875 5.171875 
L 56.390625 5.171875 
z
" id="DejaVuSerif-52"/>
      </defs>
      <g transform="translate(394.344034 292.008875)scale(0.2 -0.2)">
       <use xlink:href="#DejaVuSerif-48"/>
       <use x="63.623047" xlink:href="#DejaVuSerif-46"/>
       <use x="95.410156" xlink:href="#DejaVuSerif-52"/>
      </g>
     </g>
    </g>
    <g id="text_6">
     <!-- Tunneling $J/U$ -->
     <defs>
      <path d="M 19.09375 0 
L 19.09375 5.171875 
L 28.421875 5.171875 
L 28.421875 67.09375 
L 6.984375 67.09375 
L 6.984375 55.71875 
L 0.984375 55.71875 
L 0.984375 72.90625 
L 65.71875 72.90625 
L 65.71875 55.71875 
L 59.71875 55.71875 
L 59.71875 67.09375 
L 38.28125 67.09375 
L 38.28125 5.171875 
L 47.609375 5.171875 
L 47.609375 0 
z
" id="DejaVuSerif-84"/>
      <path d="M 35.40625 51.90625 
L 52.203125 51.90625 
L 52.203125 5.171875 
L 60.6875 5.171875 
L 60.6875 0 
L 43.21875 0 
L 43.21875 9.1875 
Q 40.71875 4 36.765625 1.28125 
Q 32.8125 -1.421875 27.59375 -1.421875 
Q 18.953125 -1.421875 14.875 3.484375 
Q 10.796875 8.40625 10.796875 18.890625 
L 10.796875 46.6875 
L 2.6875 46.6875 
L 2.6875 51.90625 
L 19.828125 51.90625 
L 19.828125 21.6875 
Q 19.828125 12.203125 22.140625 8.6875 
Q 24.46875 5.171875 30.421875 5.171875 
Q 36.671875 5.171875 39.9375 9.765625 
Q 43.21875 14.359375 43.21875 23.09375 
L 43.21875 46.6875 
L 35.40625 46.6875 
z
" id="DejaVuSerif-117"/>
      <path d="M 4.109375 0 
L 4.109375 5.171875 
L 12.203125 5.171875 
L 12.203125 46.6875 
L 3.609375 46.6875 
L 3.609375 51.90625 
L 21.1875 51.90625 
L 21.1875 42.671875 
Q 23.6875 47.953125 27.65625 50.640625 
Q 31.640625 53.328125 36.921875 53.328125 
Q 45.515625 53.328125 49.5625 48.390625 
Q 53.609375 43.453125 53.609375 33.015625 
L 53.609375 5.171875 
L 61.625 5.171875 
L 61.625 0 
L 36.8125 0 
L 36.8125 5.171875 
L 44.578125 5.171875 
L 44.578125 30.171875 
Q 44.578125 39.703125 42.234375 43.234375 
Q 39.890625 46.78125 33.984375 46.78125 
Q 27.734375 46.78125 24.453125 42.203125 
Q 21.1875 37.640625 21.1875 28.90625 
L 21.1875 5.171875 
L 29 5.171875 
L 29 0 
z
" id="DejaVuSerif-110"/>
      <path d="M 54.203125 25 
L 15.484375 25 
L 15.484375 24.609375 
Q 15.484375 14.109375 19.4375 8.765625 
Q 23.390625 3.421875 31.109375 3.421875 
Q 37.015625 3.421875 40.796875 6.515625 
Q 44.578125 9.625 46.09375 15.71875 
L 53.328125 15.71875 
Q 51.171875 7.171875 45.375 2.875 
Q 39.59375 -1.421875 30.171875 -1.421875 
Q 18.796875 -1.421875 11.890625 6.078125 
Q 4.984375 13.578125 4.984375 25.984375 
Q 4.984375 38.28125 11.765625 45.796875 
Q 18.5625 53.328125 29.59375 53.328125 
Q 41.359375 53.328125 47.65625 46.0625 
Q 53.953125 38.8125 54.203125 25 
z
M 43.609375 30.171875 
Q 43.3125 39.265625 39.765625 43.875 
Q 36.234375 48.484375 29.59375 48.484375 
Q 23.390625 48.484375 19.828125 43.84375 
Q 16.265625 39.203125 15.484375 30.171875 
z
" id="DejaVuSerif-101"/>
      <path d="M 20.515625 5.171875 
L 29 5.171875 
L 29 0 
L 2.875 0 
L 2.875 5.171875 
L 11.53125 5.171875 
L 11.53125 70.796875 
L 2.875 70.796875 
L 2.875 75.984375 
L 20.515625 75.984375 
z
" id="DejaVuSerif-108"/>
      <path d="M 9.71875 68.015625 
Q 9.71875 70.265625 11.34375 71.921875 
Q 12.984375 73.578125 15.28125 73.578125 
Q 17.53125 73.578125 19.15625 71.921875 
Q 20.796875 70.265625 20.796875 68.015625 
Q 20.796875 65.71875 19.1875 64.109375 
Q 17.578125 62.5 15.28125 62.5 
Q 12.984375 62.5 11.34375 64.109375 
Q 9.71875 65.71875 9.71875 68.015625 
z
M 21.1875 5.171875 
L 29.6875 5.171875 
L 29.6875 0 
L 3.609375 0 
L 3.609375 5.171875 
L 12.203125 5.171875 
L 12.203125 46.6875 
L 3.609375 46.6875 
L 3.609375 51.90625 
L 21.1875 51.90625 
z
" id="DejaVuSerif-105"/>
      <path d="M 52.484375 46.6875 
L 52.484375 1.125 
Q 52.484375 -10.0625 46.328125 -16.140625 
Q 40.1875 -22.21875 28.8125 -22.21875 
Q 23.6875 -22.21875 19 -21.28125 
Q 14.3125 -20.359375 10.015625 -18.5 
L 10.015625 -7.625 
L 14.703125 -7.625 
Q 15.578125 -12.703125 18.84375 -15.046875 
Q 22.125 -17.390625 28.21875 -17.390625 
Q 36.140625 -17.390625 39.8125 -12.921875 
Q 43.5 -8.453125 43.5 1.125 
L 43.5 8.109375 
Q 40.875 3.21875 36.796875 0.890625 
Q 32.71875 -1.421875 26.703125 -1.421875 
Q 17.140625 -1.421875 11.0625 6.171875 
Q 4.984375 13.765625 4.984375 25.984375 
Q 4.984375 38.1875 11.03125 45.75 
Q 17.09375 53.328125 26.703125 53.328125 
Q 32.71875 53.328125 36.796875 51 
Q 40.875 48.6875 43.5 43.796875 
L 43.5 51.90625 
L 61.078125 51.90625 
L 61.078125 46.6875 
z
M 43.5 28.515625 
Q 43.5 37.84375 39.90625 42.765625 
Q 36.328125 47.703125 29.5 47.703125 
Q 22.5625 47.703125 19.015625 42.234375 
Q 15.484375 36.765625 15.484375 25.984375 
Q 15.484375 15.234375 19.015625 9.71875 
Q 22.5625 4.203125 29.5 4.203125 
Q 36.328125 4.203125 39.90625 9.109375 
Q 43.5 14.015625 43.5 23.390625 
z
" id="DejaVuSerif-103"/>
      <path id="DejaVuSerif-32"/>
      <path d="M 10.890625 6 
Q 11.859375 3.21875 14.5 1.796875 
Q 17.140625 0.390625 20.21875 0.390625 
Q 23.34375 0.390625 26.25 2.5625 
Q 29.15625 4.734375 31.171875 8 
Q 33.203125 11.28125 33.984375 14.5 
L 45.796875 61.8125 
Q 45.90625 62.203125 45.921875 62.390625 
Q 45.953125 62.59375 46 62.796875 
Q 46 63.875 45.21875 64.109375 
Q 42.578125 64.796875 34.515625 64.796875 
Q 33.5 64.796875 33.5 66.109375 
Q 33.6875 66.890625 33.8125 67.328125 
Q 33.9375 67.78125 34.25 68.046875 
Q 34.578125 68.3125 35.203125 68.3125 
L 62.3125 68.3125 
Q 63.28125 68.3125 63.28125 67 
Q 62.890625 64.796875 62.015625 64.796875 
Q 58.5 64.796875 56.6875 64.25 
Q 54.890625 63.71875 54.203125 61.375 
L 42.390625 14.109375 
Q 41.265625 9.46875 37.8125 5.734375 
Q 34.375 2 29.640625 -0.09375 
Q 24.90625 -2.203125 20.125 -2.203125 
Q 14.84375 -2.203125 10.859375 0.71875 
Q 6.890625 3.65625 6.890625 8.6875 
Q 6.890625 12.015625 8.6875 14.40625 
Q 10.5 16.796875 13.8125 16.796875 
Q 15.71875 16.796875 17.015625 15.625 
Q 18.3125 14.453125 18.3125 12.59375 
Q 18.3125 9.90625 16.3125 7.90625 
Q 14.3125 5.90625 11.625 5.90625 
Q 11.078125 5.90625 10.890625 6 
z
" id="Cmmi10-74"/>
      <path d="M 5.609375 -23 
Q 5.609375 -22.703125 5.71875 -22.609375 
L 40.484375 73.78125 
Q 40.671875 74.359375 41.15625 74.671875 
Q 41.65625 75 42.28125 75 
Q 43.171875 75 43.71875 74.453125 
Q 44.28125 73.921875 44.28125 73 
L 44.28125 72.609375 
L 9.515625 -23.78125 
Q 8.9375 -25 7.625 -25 
Q 6.78125 -25 6.1875 -24.40625 
Q 5.609375 -23.828125 5.609375 -23 
z
" id="Cmmi10-61"/>
      <path d="M 14.703125 13.921875 
Q 14.703125 10.25 16.140625 7.375 
Q 17.578125 4.5 20.3125 2.90625 
Q 23.046875 1.3125 26.703125 1.3125 
Q 31 1.3125 35.078125 3.0625 
Q 39.15625 4.828125 42.421875 7.953125 
Q 45.703125 11.078125 48.015625 15.078125 
Q 50.34375 19.09375 51.3125 23 
L 60.296875 59.078125 
Q 60.5 60.15625 60.5 60.59375 
Q 60.5 64.796875 52.78125 64.796875 
Q 51.8125 64.796875 51.8125 66.109375 
Q 52.15625 67.390625 52.34375 67.84375 
Q 52.546875 68.3125 53.515625 68.3125 
L 75.203125 68.3125 
Q 75.640625 68.3125 75.921875 67.875 
Q 76.21875 67.4375 76.21875 67 
Q 76.21875 66.9375 76.015625 66.234375 
Q 75.828125 65.53125 75.5625 65.15625 
Q 75.296875 64.796875 74.90625 64.796875 
Q 65.328125 64.796875 63.8125 58.6875 
L 54.78125 22.609375 
Q 53.65625 17.921875 51 13.5 
Q 48.34375 9.078125 44.453125 5.484375 
Q 40.578125 1.90625 35.90625 -0.140625 
Q 31.25 -2.203125 26.421875 -2.203125 
Q 20.90625 -2.203125 16.328125 0.21875 
Q 11.765625 2.640625 9.171875 6.984375 
Q 6.59375 11.328125 6.59375 17 
Q 6.59375 20.265625 7.328125 23 
L 17 61.8125 
Q 17.1875 62.796875 17.1875 63.1875 
Q 17.1875 64.265625 16.015625 64.40625 
Q 14.109375 64.796875 8.796875 64.796875 
Q 7.8125 64.796875 7.8125 66.109375 
Q 8.15625 67.390625 8.34375 67.84375 
Q 8.546875 68.3125 9.515625 68.3125 
L 36.375 68.3125 
Q 37.40625 68.3125 37.40625 67 
Q 37.359375 66.75 37.203125 66.15625 
Q 37.0625 65.578125 36.8125 65.1875 
Q 36.578125 64.796875 36.078125 64.796875 
Q 29.984375 64.796875 27.59375 64.109375 
Q 26.265625 63.625 25.6875 61.375 
L 16.015625 22.609375 
Q 14.703125 17.328125 14.703125 13.921875 
z
" id="Cmmi10-85"/>
     </defs>
     <g transform="translate(141.31625 324.48825)scale(0.32 -0.32)">
      <use transform="translate(0 0.015625)" xlink:href="#DejaVuSerif-84"/>
      <use transform="translate(66.699219 0.015625)" xlink:href="#DejaVuSerif-117"/>
      <use transform="translate(131.103516 0.015625)" xlink:href="#DejaVuSerif-110"/>
      <use transform="translate(195.507812 0.015625)" xlink:href="#DejaVuSerif-110"/>
      <use transform="translate(259.912109 0.015625)" xlink:href="#DejaVuSerif-101"/>
      <use transform="translate(319.091797 0.015625)" xlink:href="#DejaVuSerif-108"/>
      <use transform="translate(351.074219 0.015625)" xlink:href="#DejaVuSerif-105"/>
      <use transform="translate(383.056641 0.015625)" xlink:href="#DejaVuSerif-110"/>
      <use transform="translate(447.460938 0.015625)" xlink:href="#DejaVuSerif-103"/>
      <use transform="translate(511.474609 0.015625)" xlink:href="#DejaVuSerif-32"/>
      <use transform="translate(543.261719 0.015625)" xlink:href="#Cmmi10-74"/>
      <use transform="translate(598.681641 0.015625)" xlink:href="#Cmmi10-61"/>
      <use transform="translate(648.681641 0.015625)" xlink:href="#Cmmi10-85"/>
     </g>
    </g>
   </g>
   <g id="matplotlib.axis_2">
    <g id="ytick_1">
     <g id="line2d_6">
      <defs>
       <path d="M 0 0 
L 8 0 
" id="m6984afa1f7" style="stroke:#000000;stroke-width:0.8;"/>
      </defs>
      <g>
       <use style="stroke:#000000;stroke-width:0.8;" x="77.47625" xlink:href="#m6984afa1f7" y="261.216"/>
      </g>
     </g>
     <g id="text_7">
      <!-- 0.0 -->
      <g transform="translate(42.17 268.814437)scale(0.2 -0.2)">
       <use xlink:href="#DejaVuSerif-48"/>
       <use x="63.623047" xlink:href="#DejaVuSerif-46"/>
       <use x="95.410156" xlink:href="#DejaVuSerif-48"/>
      </g>
     </g>
    </g>
    <g id="ytick_2">
     <g id="line2d_7">
      <g>
       <use style="stroke:#000000;stroke-width:0.8;" x="77.47625" xlink:href="#m6984afa1f7" y="212.832"/>
      </g>
     </g>
     <g id="text_8">
      <!-- 0.2 -->
      <g transform="translate(42.17 220.430437)scale(0.2 -0.2)">
       <use xlink:href="#DejaVuSerif-48"/>
       <use x="63.623047" xlink:href="#DejaVuSerif-46"/>
       <use x="95.410156" xlink:href="#DejaVuSerif-50"/>
      </g>
     </g>
    </g>
    <g id="ytick_3">
     <g id="line2d_8">
      <g>
       <use style="stroke:#000000;stroke-width:0.8;" x="77.47625" xlink:href="#m6984afa1f7" y="164.448"/>
      </g>
     </g>
     <g id="text_9">
      <!-- 0.4 -->
      <g transform="translate(42.17 172.046437)scale(0.2 -0.2)">
       <use xlink:href="#DejaVuSerif-48"/>
       <use x="63.623047" xlink:href="#DejaVuSerif-46"/>
       <use x="95.410156" xlink:href="#DejaVuSerif-52"/>
      </g>
     </g>
    </g>
    <g id="ytick_4">
     <g id="line2d_9">
      <g>
       <use style="stroke:#000000;stroke-width:0.8;" x="77.47625" xlink:href="#m6984afa1f7" y="116.064"/>
      </g>
     </g>
     <g id="text_10">
      <!-- 0.6 -->
      <defs>
       <path d="M 32.71875 3.421875 
Q 39.59375 3.421875 43.296875 8.46875 
Q 47.015625 13.53125 47.015625 23 
Q 47.015625 32.46875 43.296875 37.515625 
Q 39.59375 42.578125 32.71875 42.578125 
Q 25.734375 42.578125 22.0625 37.6875 
Q 18.40625 32.8125 18.40625 23.578125 
Q 18.40625 13.875 22.109375 8.640625 
Q 25.828125 3.421875 32.71875 3.421875 
z
M 16.796875 40.140625 
Q 20.125 43.796875 24.3125 45.59375 
Q 28.515625 47.40625 33.796875 47.40625 
Q 44.671875 47.40625 51 40.859375 
Q 57.328125 34.328125 57.328125 23 
Q 57.328125 11.921875 50.515625 5.25 
Q 43.703125 -1.421875 32.328125 -1.421875 
Q 19.96875 -1.421875 13.328125 7.78125 
Q 6.6875 17 6.6875 34.078125 
Q 6.6875 53.21875 14.546875 63.71875 
Q 22.40625 74.21875 36.71875 74.21875 
Q 40.578125 74.21875 44.828125 73.484375 
Q 49.078125 72.75 53.515625 71.296875 
L 53.515625 59.28125 
L 48 59.28125 
Q 47.40625 64.203125 44.234375 66.796875 
Q 41.0625 69.390625 35.6875 69.390625 
Q 26.21875 69.390625 21.578125 62.203125 
Q 16.9375 55.03125 16.796875 40.140625 
z
" id="DejaVuSerif-54"/>
      </defs>
      <g transform="translate(42.17 123.662437)scale(0.2 -0.2)">
       <use xlink:href="#DejaVuSerif-48"/>
       <use x="63.623047" xlink:href="#DejaVuSerif-46"/>
       <use x="95.410156" xlink:href="#DejaVuSerif-54"/>
      </g>
     </g>
    </g>
    <g id="ytick_5">
     <g id="line2d_10">
      <g>
       <use style="stroke:#000000;stroke-width:0.8;" x="77.47625" xlink:href="#m6984afa1f7" y="67.68"/>
      </g>
     </g>
     <g id="text_11">
      <!-- 0.8 -->
      <defs>
       <path d="M 46.578125 19.921875 
Q 46.578125 27.734375 42.6875 32.046875 
Q 38.8125 36.375 31.78125 36.375 
Q 24.75 36.375 20.875 32.046875 
Q 17 27.734375 17 19.921875 
Q 17 12.0625 20.875 7.734375 
Q 24.75 3.421875 31.78125 3.421875 
Q 38.8125 3.421875 42.6875 7.734375 
Q 46.578125 12.0625 46.578125 19.921875 
z
M 44.578125 55.328125 
Q 44.578125 61.96875 41.203125 65.671875 
Q 37.84375 69.390625 31.78125 69.390625 
Q 25.78125 69.390625 22.390625 65.671875 
Q 19 61.96875 19 55.328125 
Q 19 48.640625 22.390625 44.921875 
Q 25.78125 41.21875 31.78125 41.21875 
Q 37.84375 41.21875 41.203125 44.921875 
Q 44.578125 48.640625 44.578125 55.328125 
z
M 39.3125 38.8125 
Q 47.609375 37.703125 52.25 32.6875 
Q 56.890625 27.6875 56.890625 19.921875 
Q 56.890625 9.671875 50.390625 4.125 
Q 43.890625 -1.421875 31.78125 -1.421875 
Q 19.734375 -1.421875 13.203125 4.125 
Q 6.6875 9.671875 6.6875 19.921875 
Q 6.6875 27.6875 11.328125 32.6875 
Q 15.96875 37.703125 24.3125 38.8125 
Q 16.9375 40.140625 13 44.40625 
Q 9.078125 48.6875 9.078125 55.328125 
Q 9.078125 64.109375 15.125 69.15625 
Q 21.1875 74.21875 31.78125 74.21875 
Q 42.390625 74.21875 48.4375 69.15625 
Q 54.5 64.109375 54.5 55.328125 
Q 54.5 48.6875 50.5625 44.40625 
Q 46.625 40.140625 39.3125 38.8125 
z
" id="DejaVuSerif-56"/>
      </defs>
      <g transform="translate(42.17 75.278437)scale(0.2 -0.2)">
       <use xlink:href="#DejaVuSerif-48"/>
       <use x="63.623047" xlink:href="#DejaVuSerif-46"/>
       <use x="95.410156" xlink:href="#DejaVuSerif-56"/>
      </g>
     </g>
    </g>
    <g id="ytick_6">
     <g id="line2d_11">
      <g>
       <use style="stroke:#000000;stroke-width:0.8;" x="77.47625" xlink:href="#m6984afa1f7" y="19.296"/>
      </g>
     </g>
     <g id="text_12">
      <!-- 1.0 -->
      <g transform="translate(42.17 26.894437)scale(0.2 -0.2)">
       <use xlink:href="#DejaVuSerif-49"/>
       <use x="63.623047" xlink:href="#DejaVuSerif-46"/>
       <use x="95.410156" xlink:href="#DejaVuSerif-48"/>
      </g>
     </g>
    </g>
    <g id="text_13">
     <!-- Pentropy -->
     <defs>
      <path d="M 24.703125 37.109375 
L 37.59375 37.109375 
Q 44.875 37.109375 48.671875 41.03125 
Q 52.484375 44.96875 52.484375 52.390625 
Q 52.484375 59.859375 48.671875 63.765625 
Q 44.875 67.671875 37.59375 67.671875 
L 24.703125 67.671875 
z
M 5.515625 0 
L 5.515625 5.171875 
L 14.796875 5.171875 
L 14.796875 67.671875 
L 5.515625 67.671875 
L 5.515625 72.90625 
L 39.984375 72.90625 
Q 50.921875 72.90625 57.3125 67.359375 
Q 63.71875 61.8125 63.71875 52.390625 
Q 63.71875 43.015625 57.3125 37.453125 
Q 50.921875 31.890625 39.984375 31.890625 
L 24.703125 31.890625 
L 24.703125 5.171875 
L 35.984375 5.171875 
L 35.984375 0 
z
" id="DejaVuSerif-80"/>
      <path d="M 10.796875 46.6875 
L 2.875 46.6875 
L 2.875 51.90625 
L 10.796875 51.90625 
L 10.796875 68.015625 
L 19.828125 68.015625 
L 19.828125 51.90625 
L 36.71875 51.90625 
L 36.71875 46.6875 
L 19.828125 46.6875 
L 19.828125 13.71875 
Q 19.828125 7.125 21.09375 5.265625 
Q 22.359375 3.421875 25.78125 3.421875 
Q 29.296875 3.421875 30.90625 5.484375 
Q 32.515625 7.5625 32.625 12.203125 
L 39.40625 12.203125 
Q 39.015625 5.125 35.546875 1.84375 
Q 32.078125 -1.421875 25 -1.421875 
Q 17.234375 -1.421875 14.015625 2.015625 
Q 10.796875 5.46875 10.796875 13.71875 
z
" id="DejaVuSerif-116"/>
      <path d="M 47.796875 52 
L 47.796875 39.015625 
L 42.625 39.015625 
Q 42.390625 42.875 40.484375 44.78125 
Q 38.578125 46.6875 34.90625 46.6875 
Q 28.265625 46.6875 24.71875 42.09375 
Q 21.1875 37.5 21.1875 28.90625 
L 21.1875 5.171875 
L 31.59375 5.171875 
L 31.59375 0 
L 4.109375 0 
L 4.109375 5.171875 
L 12.203125 5.171875 
L 12.203125 46.78125 
L 3.609375 46.78125 
L 3.609375 51.90625 
L 21.1875 51.90625 
L 21.1875 42.671875 
Q 23.828125 48.09375 27.96875 50.703125 
Q 32.125 53.328125 38.09375 53.328125 
Q 40.28125 53.328125 42.703125 52.984375 
Q 45.125 52.640625 47.796875 52 
z
" id="DejaVuSerif-114"/>
      <path d="M 30.078125 3.421875 
Q 37.3125 3.421875 40.984375 9.125 
Q 44.671875 14.84375 44.671875 25.984375 
Q 44.671875 37.109375 40.984375 42.796875 
Q 37.3125 48.484375 30.078125 48.484375 
Q 22.859375 48.484375 19.171875 42.796875 
Q 15.484375 37.109375 15.484375 25.984375 
Q 15.484375 14.84375 19.1875 9.125 
Q 22.90625 3.421875 30.078125 3.421875 
z
M 30.078125 -1.421875 
Q 18.75 -1.421875 11.859375 6.078125 
Q 4.984375 13.578125 4.984375 25.984375 
Q 4.984375 38.375 11.84375 45.84375 
Q 18.703125 53.328125 30.078125 53.328125 
Q 41.453125 53.328125 48.3125 45.84375 
Q 55.171875 38.375 55.171875 25.984375 
Q 55.171875 13.578125 48.3125 6.078125 
Q 41.453125 -1.421875 30.078125 -1.421875 
z
" id="DejaVuSerif-111"/>
      <path d="M 20.515625 28.515625 
L 20.515625 23.390625 
Q 20.515625 14.015625 24.09375 9.109375 
Q 27.6875 4.203125 34.515625 4.203125 
Q 41.40625 4.203125 44.9375 9.71875 
Q 48.484375 15.234375 48.484375 25.984375 
Q 48.484375 36.765625 44.9375 42.234375 
Q 41.40625 47.703125 34.515625 47.703125 
Q 27.6875 47.703125 24.09375 42.765625 
Q 20.515625 37.84375 20.515625 28.515625 
z
M 11.53125 46.6875 
L 2.875 46.6875 
L 2.875 51.90625 
L 20.515625 51.90625 
L 20.515625 43.796875 
Q 23.140625 48.6875 27.21875 51 
Q 31.296875 53.328125 37.3125 53.328125 
Q 46.875 53.328125 52.921875 45.75 
Q 58.984375 38.1875 58.984375 25.984375 
Q 58.984375 13.765625 52.921875 6.171875 
Q 46.875 -1.421875 37.3125 -1.421875 
Q 31.296875 -1.421875 27.21875 0.890625 
Q 23.140625 3.21875 20.515625 8.109375 
L 20.515625 -15.578125 
L 29 -15.578125 
L 29 -20.796875 
L 2.875 -20.796875 
L 2.875 -15.578125 
L 11.53125 -15.578125 
z
" id="DejaVuSerif-112"/>
      <path d="M 21.578125 -9.515625 
L 25 -0.875 
L 5.609375 46.6875 
L -0.296875 46.6875 
L -0.296875 51.90625 
L 23.578125 51.90625 
L 23.578125 46.6875 
L 15.28125 46.6875 
L 29.890625 10.984375 
L 44.484375 46.6875 
L 36.71875 46.6875 
L 36.71875 51.90625 
L 56.203125 51.90625 
L 56.203125 46.6875 
L 50.390625 46.6875 
L 26.609375 -11.71875 
Q 24.171875 -17.78125 21.1875 -20 
Q 18.21875 -22.21875 12.796875 -22.21875 
Q 10.5 -22.21875 8.078125 -21.828125 
Q 5.671875 -21.4375 3.21875 -20.703125 
L 3.21875 -10.796875 
L 7.8125 -10.796875 
Q 8.109375 -14.109375 9.5 -15.546875 
Q 10.890625 -17 13.8125 -17 
Q 16.5 -17 18.140625 -15.5 
Q 19.78125 -14.015625 21.578125 -9.515625 
z
" id="DejaVuSerif-121"/>
     </defs>
     <g transform="translate(31.06 213.7785)rotate(-90)scale(0.32 -0.32)">
      <use xlink:href="#DejaVuSerif-80"/>
      <use x="67.222656" xlink:href="#DejaVuSerif-101"/>
      <use x="126.402344" xlink:href="#DejaVuSerif-110"/>
      <use x="190.806641" xlink:href="#DejaVuSerif-116"/>
      <use x="230.992188" xlink:href="#DejaVuSerif-114"/>
      <use x="278.794922" xlink:href="#DejaVuSerif-111"/>
      <use x="339" xlink:href="#DejaVuSerif-112"/>
      <use x="403.013672" xlink:href="#DejaVuSerif-121"/>
     </g>
    </g>
   </g>
   <g id="line2d_12">
    <path clip-path="url(#p3550c56de3)" d="M 93.708977 261.216 
L 101.825341 260.227957 
L 109.941705 259.180716 
L 118.058068 257.993625 
L 126.174432 256.646696 
L 134.290795 255.135076 
L 142.407159 253.458555 
L 150.523523 251.616319 
L 158.639886 249.60408 
L 166.75625 247.411143 
L 174.872614 245.018194 
L 182.988977 242.39476 
L 191.105341 239.497055 
L 199.221705 236.265802 
L 207.338068 232.624456 
L 215.454432 228.477541 
L 223.570795 223.709522 
L 231.687159 218.184523 
L 239.803523 211.747071 
L 247.919886 204.225481 
L 256.03625 195.439808 
L 264.152614 185.220871 
L 272.268977 173.454858 
L 280.385341 160.191119 
L 288.501705 145.871889 
L 296.618068 131.524144 
L 304.734432 118.2218 
L 312.850795 106.330609 
L 320.967159 95.740269 
L 329.083523 86.247216 
L 337.199886 77.666529 
L 345.31625 69.841758 
L 353.432614 62.649695 
L 361.548977 55.991348 
L 369.665341 49.788774 
L 377.781705 43.978772 
L 385.898068 38.50884 
L 394.014432 33.33665 
L 402.130795 28.429025 
L 410.247159 23.757237 
L 418.363523 19.296 
" style="fill:none;stroke:#e41a1c;stroke-dasharray:3,4.95;stroke-dashoffset:0;stroke-opacity:0.7;stroke-width:3;"/>
    <defs>
     <path d="M 0 3 
C 0.795609 3 1.55874 2.683901 2.12132 2.12132 
C 2.683901 1.55874 3 0.795609 3 0 
C 3 -0.795609 2.683901 -1.55874 2.12132 -2.12132 
C 1.55874 -2.683901 0.795609 -3 0 -3 
C -0.795609 -3 -1.55874 -2.683901 -2.12132 -2.12132 
C -2.683901 -1.55874 -3 -0.795609 -3 0 
C -3 0.795609 -2.683901 1.55874 -2.12132 2.12132 
C -1.55874 2.683901 -0.795609 3 0 3 
z
" id="me189a87baa" style="stroke:#e41a1c;stroke-opacity:0.7;"/>
    </defs>
    <g clip-path="url(#p3550c56de3)">
     <use style="fill:#e41a1c;fill-opacity:0.7;stroke:#e41a1c;stroke-opacity:0.7;" x="93.708977" xlink:href="#me189a87baa" y="261.216"/>
     <use style="fill:#e41a1c;fill-opacity:0.7;stroke:#e41a1c;stroke-opacity:0.7;" x="101.825341" xlink:href="#me189a87baa" y="260.227957"/>
     <use style="fill:#e41a1c;fill-opacity:0.7;stroke:#e41a1c;stroke-opacity:0.7;" x="109.941705" xlink:href="#me189a87baa" y="259.180716"/>
     <use style="fill:#e41a1c;fill-opacity:0.7;stroke:#e41a1c;stroke-opacity:0.7;" x="118.058068" xlink:href="#me189a87baa" y="257.993625"/>
     <use style="fill:#e41a1c;fill-opacity:0.7;stroke:#e41a1c;stroke-opacity:0.7;" x="126.174432" xlink:href="#me189a87baa" y="256.646696"/>
     <use style="fill:#e41a1c;fill-opacity:0.7;stroke:#e41a1c;stroke-opacity:0.7;" x="134.290795" xlink:href="#me189a87baa" y="255.135076"/>
     <use style="fill:#e41a1c;fill-opacity:0.7;stroke:#e41a1c;stroke-opacity:0.7;" x="142.407159" xlink:href="#me189a87baa" y="253.458555"/>
     <use style="fill:#e41a1c;fill-opacity:0.7;stroke:#e41a1c;stroke-opacity:0.7;" x="150.523523" xlink:href="#me189a87baa" y="251.616319"/>
     <use style="fill:#e41a1c;fill-opacity:0.7;stroke:#e41a1c;stroke-opacity:0.7;" x="158.639886" xlink:href="#me189a87baa" y="249.60408"/>
     <use style="fill:#e41a1c;fill-opacity:0.7;stroke:#e41a1c;stroke-opacity:0.7;" x="166.75625" xlink:href="#me189a87baa" y="247.411143"/>
     <use style="fill:#e41a1c;fill-opacity:0.7;stroke:#e41a1c;stroke-opacity:0.7;" x="174.872614" xlink:href="#me189a87baa" y="245.018194"/>
     <use style="fill:#e41a1c;fill-opacity:0.7;stroke:#e41a1c;stroke-opacity:0.7;" x="182.988977" xlink:href="#me189a87baa" y="242.39476"/>
     <use style="fill:#e41a1c;fill-opacity:0.7;stroke:#e41a1c;stroke-opacity:0.7;" x="191.105341" xlink:href="#me189a87baa" y="239.497055"/>
     <use style="fill:#e41a1c;fill-opacity:0.7;stroke:#e41a1c;stroke-opacity:0.7;" x="199.221705" xlink:href="#me189a87baa" y="236.265802"/>
     <use style="fill:#e41a1c;fill-opacity:0.7;stroke:#e41a1c;stroke-opacity:0.7;" x="207.338068" xlink:href="#me189a87baa" y="232.624456"/>
     <use style="fill:#e41a1c;fill-opacity:0.7;stroke:#e41a1c;stroke-opacity:0.7;" x="215.454432" xlink:href="#me189a87baa" y="228.477541"/>
     <use style="fill:#e41a1c;fill-opacity:0.7;stroke:#e41a1c;stroke-opacity:0.7;" x="223.570795" xlink:href="#me189a87baa" y="223.709522"/>
     <use style="fill:#e41a1c;fill-opacity:0.7;stroke:#e41a1c;stroke-opacity:0.7;" x="231.687159" xlink:href="#me189a87baa" y="218.184523"/>
     <use style="fill:#e41a1c;fill-opacity:0.7;stroke:#e41a1c;stroke-opacity:0.7;" x="239.803523" xlink:href="#me189a87baa" y="211.747071"/>
     <use style="fill:#e41a1c;fill-opacity:0.7;stroke:#e41a1c;stroke-opacity:0.7;" x="247.919886" xlink:href="#me189a87baa" y="204.225481"/>
     <use style="fill:#e41a1c;fill-opacity:0.7;stroke:#e41a1c;stroke-opacity:0.7;" x="256.03625" xlink:href="#me189a87baa" y="195.439808"/>
     <use style="fill:#e41a1c;fill-opacity:0.7;stroke:#e41a1c;stroke-opacity:0.7;" x="264.152614" xlink:href="#me189a87baa" y="185.220871"/>
     <use style="fill:#e41a1c;fill-opacity:0.7;stroke:#e41a1c;stroke-opacity:0.7;" x="272.268977" xlink:href="#me189a87baa" y="173.454858"/>
     <use style="fill:#e41a1c;fill-opacity:0.7;stroke:#e41a1c;stroke-opacity:0.7;" x="280.385341" xlink:href="#me189a87baa" y="160.191119"/>
     <use style="fill:#e41a1c;fill-opacity:0.7;stroke:#e41a1c;stroke-opacity:0.7;" x="288.501705" xlink:href="#me189a87baa" y="145.871889"/>
     <use style="fill:#e41a1c;fill-opacity:0.7;stroke:#e41a1c;stroke-opacity:0.7;" x="296.618068" xlink:href="#me189a87baa" y="131.524144"/>
     <use style="fill:#e41a1c;fill-opacity:0.7;stroke:#e41a1c;stroke-opacity:0.7;" x="304.734432" xlink:href="#me189a87baa" y="118.2218"/>
     <use style="fill:#e41a1c;fill-opacity:0.7;stroke:#e41a1c;stroke-opacity:0.7;" x="312.850795" xlink:href="#me189a87baa" y="106.330609"/>
     <use style="fill:#e41a1c;fill-opacity:0.7;stroke:#e41a1c;stroke-opacity:0.7;" x="320.967159" xlink:href="#me189a87baa" y="95.740269"/>
     <use style="fill:#e41a1c;fill-opacity:0.7;stroke:#e41a1c;stroke-opacity:0.7;" x="329.083523" xlink:href="#me189a87baa" y="86.247216"/>
     <use style="fill:#e41a1c;fill-opacity:0.7;stroke:#e41a1c;stroke-opacity:0.7;" x="337.199886" xlink:href="#me189a87baa" y="77.666529"/>
     <use style="fill:#e41a1c;fill-opacity:0.7;stroke:#e41a1c;stroke-opacity:0.7;" x="345.31625" xlink:href="#me189a87baa" y="69.841758"/>
     <use style="fill:#e41a1c;fill-opacity:0.7;stroke:#e41a1c;stroke-opacity:0.7;" x="353.432614" xlink:href="#me189a87baa" y="62.649695"/>
     <use style="fill:#e41a1c;fill-opacity:0.7;stroke:#e41a1c;stroke-opacity:0.7;" x="361.548977" xlink:href="#me189a87baa" y="55.991348"/>
     <use style="fill:#e41a1c;fill-opacity:0.7;stroke:#e41a1c;stroke-opacity:0.7;" x="369.665341" xlink:href="#me189a87baa" y="49.788774"/>
     <use style="fill:#e41a1c;fill-opacity:0.7;stroke:#e41a1c;stroke-opacity:0.7;" x="377.781705" xlink:href="#me189a87baa" y="43.978772"/>
     <use style="fill:#e41a1c;fill-opacity:0.7;stroke:#e41a1c;stroke-opacity:0.7;" x="385.898068" xlink:href="#me189a87baa" y="38.50884"/>
     <use style="fill:#e41a1c;fill-opacity:0.7;stroke:#e41a1c;stroke-opacity:0.7;" x="394.014432" xlink:href="#me189a87baa" y="33.33665"/>
     <use style="fill:#e41a1c;fill-opacity:0.7;stroke:#e41a1c;stroke-opacity:0.7;" x="402.130795" xlink:href="#me189a87baa" y="28.429025"/>
     <use style="fill:#e41a1c;fill-opacity:0.7;stroke:#e41a1c;stroke-opacity:0.7;" x="410.247159" xlink:href="#me189a87baa" y="23.757237"/>
     <use style="fill:#e41a1c;fill-opacity:0.7;stroke:#e41a1c;stroke-opacity:0.7;" x="418.363523" xlink:href="#me189a87baa" y="19.296"/>
    </g>
   </g>
   <g id="line2d_13">
    <path clip-path="url(#p3550c56de3)" d="M 93.708977 261.216 
L 101.825341 260.300011 
L 109.941705 259.32875 
L 118.058068 258.227418 
L 126.174432 256.977472 
L 134.290795 255.574377 
L 142.407159 254.017792 
L 150.523523 252.306826 
L 158.639886 250.437267 
L 166.75625 248.398998 
L 174.872614 246.173715 
L 182.988977 243.732648 
L 191.105341 241.034576 
L 199.221705 238.023605 
L 207.338068 234.62747 
L 215.454432 230.755777 
L 223.570795 226.298664 
L 231.687159 221.125933 
L 239.803523 215.086733 
L 247.919886 208.011028 
L 256.03625 199.713533 
L 264.152614 190.004666 
L 272.268977 178.718687 
L 280.385341 165.789844 
L 288.501705 151.454579 
L 296.618068 136.604628 
L 304.734432 122.572463 
L 312.850795 110.01833 
L 320.967159 98.885211 
L 329.083523 88.945685 
L 337.199886 79.989662 
L 345.31625 71.840494 
L 353.432614 64.360234 
L 361.548977 57.439489 
L 369.665341 50.99705 
L 377.781705 44.962029 
L 385.898068 39.278642 
L 394.014432 33.903666 
L 402.130795 28.800467 
L 410.247159 23.939746 
L 418.363523 19.296 
" style="fill:none;stroke:#377eb8;stroke-dasharray:3,4.95;stroke-dashoffset:0;stroke-opacity:0.7;stroke-width:3;"/>
    <defs>
     <path d="M 0 3 
C 0.795609 3 1.55874 2.683901 2.12132 2.12132 
C 2.683901 1.55874 3 0.795609 3 0 
C 3 -0.795609 2.683901 -1.55874 2.12132 -2.12132 
C 1.55874 -2.683901 0.795609 -3 0 -3 
C -0.795609 -3 -1.55874 -2.683901 -2.12132 -2.12132 
C -2.683901 -1.55874 -3 -0.795609 -3 0 
C -3 0.795609 -2.683901 1.55874 -2.12132 2.12132 
C -1.55874 2.683901 -0.795609 3 0 3 
z
" id="m431750d82a" style="stroke:#377eb8;stroke-opacity:0.7;"/>
    </defs>
    <g clip-path="url(#p3550c56de3)">
     <use style="fill:#377eb8;fill-opacity:0.7;stroke:#377eb8;stroke-opacity:0.7;" x="93.708977" xlink:href="#m431750d82a" y="261.216"/>
     <use style="fill:#377eb8;fill-opacity:0.7;stroke:#377eb8;stroke-opacity:0.7;" x="101.825341" xlink:href="#m431750d82a" y="260.300011"/>
     <use style="fill:#377eb8;fill-opacity:0.7;stroke:#377eb8;stroke-opacity:0.7;" x="109.941705" xlink:href="#m431750d82a" y="259.32875"/>
     <use style="fill:#377eb8;fill-opacity:0.7;stroke:#377eb8;stroke-opacity:0.7;" x="118.058068" xlink:href="#m431750d82a" y="258.227418"/>
     <use style="fill:#377eb8;fill-opacity:0.7;stroke:#377eb8;stroke-opacity:0.7;" x="126.174432" xlink:href="#m431750d82a" y="256.977472"/>
     <use style="fill:#377eb8;fill-opacity:0.7;stroke:#377eb8;stroke-opacity:0.7;" x="134.290795" xlink:href="#m431750d82a" y="255.574377"/>
     <use style="fill:#377eb8;fill-opacity:0.7;stroke:#377eb8;stroke-opacity:0.7;" x="142.407159" xlink:href="#m431750d82a" y="254.017792"/>
     <use style="fill:#377eb8;fill-opacity:0.7;stroke:#377eb8;stroke-opacity:0.7;" x="150.523523" xlink:href="#m431750d82a" y="252.306826"/>
     <use style="fill:#377eb8;fill-opacity:0.7;stroke:#377eb8;stroke-opacity:0.7;" x="158.639886" xlink:href="#m431750d82a" y="250.437267"/>
     <use style="fill:#377eb8;fill-opacity:0.7;stroke:#377eb8;stroke-opacity:0.7;" x="166.75625" xlink:href="#m431750d82a" y="248.398998"/>
     <use style="fill:#377eb8;fill-opacity:0.7;stroke:#377eb8;stroke-opacity:0.7;" x="174.872614" xlink:href="#m431750d82a" y="246.173715"/>
     <use style="fill:#377eb8;fill-opacity:0.7;stroke:#377eb8;stroke-opacity:0.7;" x="182.988977" xlink:href="#m431750d82a" y="243.732648"/>
     <use style="fill:#377eb8;fill-opacity:0.7;stroke:#377eb8;stroke-opacity:0.7;" x="191.105341" xlink:href="#m431750d82a" y="241.034576"/>
     <use style="fill:#377eb8;fill-opacity:0.7;stroke:#377eb8;stroke-opacity:0.7;" x="199.221705" xlink:href="#m431750d82a" y="238.023605"/>
     <use style="fill:#377eb8;fill-opacity:0.7;stroke:#377eb8;stroke-opacity:0.7;" x="207.338068" xlink:href="#m431750d82a" y="234.62747"/>
     <use style="fill:#377eb8;fill-opacity:0.7;stroke:#377eb8;stroke-opacity:0.7;" x="215.454432" xlink:href="#m431750d82a" y="230.755777"/>
     <use style="fill:#377eb8;fill-opacity:0.7;stroke:#377eb8;stroke-opacity:0.7;" x="223.570795" xlink:href="#m431750d82a" y="226.298664"/>
     <use style="fill:#377eb8;fill-opacity:0.7;stroke:#377eb8;stroke-opacity:0.7;" x="231.687159" xlink:href="#m431750d82a" y="221.125933"/>
     <use style="fill:#377eb8;fill-opacity:0.7;stroke:#377eb8;stroke-opacity:0.7;" x="239.803523" xlink:href="#m431750d82a" y="215.086733"/>
     <use style="fill:#377eb8;fill-opacity:0.7;stroke:#377eb8;stroke-opacity:0.7;" x="247.919886" xlink:href="#m431750d82a" y="208.011028"/>
     <use style="fill:#377eb8;fill-opacity:0.7;stroke:#377eb8;stroke-opacity:0.7;" x="256.03625" xlink:href="#m431750d82a" y="199.713533"/>
     <use style="fill:#377eb8;fill-opacity:0.7;stroke:#377eb8;stroke-opacity:0.7;" x="264.152614" xlink:href="#m431750d82a" y="190.004666"/>
     <use style="fill:#377eb8;fill-opacity:0.7;stroke:#377eb8;stroke-opacity:0.7;" x="272.268977" xlink:href="#m431750d82a" y="178.718687"/>
     <use style="fill:#377eb8;fill-opacity:0.7;stroke:#377eb8;stroke-opacity:0.7;" x="280.385341" xlink:href="#m431750d82a" y="165.789844"/>
     <use style="fill:#377eb8;fill-opacity:0.7;stroke:#377eb8;stroke-opacity:0.7;" x="288.501705" xlink:href="#m431750d82a" y="151.454579"/>
     <use style="fill:#377eb8;fill-opacity:0.7;stroke:#377eb8;stroke-opacity:0.7;" x="296.618068" xlink:href="#m431750d82a" y="136.604628"/>
     <use style="fill:#377eb8;fill-opacity:0.7;stroke:#377eb8;stroke-opacity:0.7;" x="304.734432" xlink:href="#m431750d82a" y="122.572463"/>
     <use style="fill:#377eb8;fill-opacity:0.7;stroke:#377eb8;stroke-opacity:0.7;" x="312.850795" xlink:href="#m431750d82a" y="110.01833"/>
     <use style="fill:#377eb8;fill-opacity:0.7;stroke:#377eb8;stroke-opacity:0.7;" x="320.967159" xlink:href="#m431750d82a" y="98.885211"/>
     <use style="fill:#377eb8;fill-opacity:0.7;stroke:#377eb8;stroke-opacity:0.7;" x="329.083523" xlink:href="#m431750d82a" y="88.945685"/>
     <use style="fill:#377eb8;fill-opacity:0.7;stroke:#377eb8;stroke-opacity:0.7;" x="337.199886" xlink:href="#m431750d82a" y="79.989662"/>
     <use style="fill:#377eb8;fill-opacity:0.7;stroke:#377eb8;stroke-opacity:0.7;" x="345.31625" xlink:href="#m431750d82a" y="71.840494"/>
     <use style="fill:#377eb8;fill-opacity:0.7;stroke:#377eb8;stroke-opacity:0.7;" x="353.432614" xlink:href="#m431750d82a" y="64.360234"/>
     <use style="fill:#377eb8;fill-opacity:0.7;stroke:#377eb8;stroke-opacity:0.7;" x="361.548977" xlink:href="#m431750d82a" y="57.439489"/>
     <use style="fill:#377eb8;fill-opacity:0.7;stroke:#377eb8;stroke-opacity:0.7;" x="369.665341" xlink:href="#m431750d82a" y="50.99705"/>
     <use style="fill:#377eb8;fill-opacity:0.7;stroke:#377eb8;stroke-opacity:0.7;" x="377.781705" xlink:href="#m431750d82a" y="44.962029"/>
     <use style="fill:#377eb8;fill-opacity:0.7;stroke:#377eb8;stroke-opacity:0.7;" x="385.898068" xlink:href="#m431750d82a" y="39.278642"/>
     <use style="fill:#377eb8;fill-opacity:0.7;stroke:#377eb8;stroke-opacity:0.7;" x="394.014432" xlink:href="#m431750d82a" y="33.903666"/>
     <use style="fill:#377eb8;fill-opacity:0.7;stroke:#377eb8;stroke-opacity:0.7;" x="402.130795" xlink:href="#m431750d82a" y="28.800467"/>
     <use style="fill:#377eb8;fill-opacity:0.7;stroke:#377eb8;stroke-opacity:0.7;" x="410.247159" xlink:href="#m431750d82a" y="23.939746"/>
     <use style="fill:#377eb8;fill-opacity:0.7;stroke:#377eb8;stroke-opacity:0.7;" x="418.363523" xlink:href="#m431750d82a" y="19.296"/>
    </g>
   </g>
   <g id="line2d_14">
    <path clip-path="url(#p3550c56de3)" d="M 93.708977 261.216 
L 101.825341 260.34963 
L 109.941705 259.430748 
L 118.058068 258.388661 
L 126.174432 257.205762 
L 134.290795 255.877751 
L 142.407159 254.404198 
L 150.523523 252.78428 
L 158.639886 251.013804 
L 166.75625 249.083119 
L 174.872614 246.974627 
L 182.988977 244.660949 
L 191.105341 242.10266 
L 199.221705 239.246437 
L 207.338068 236.023164 
L 215.454432 232.346353 
L 223.570795 228.110528 
L 231.687159 223.190193 
L 239.803523 217.43895 
L 247.919886 210.68983 
L 256.03625 202.756993 
L 264.152614 193.442154 
L 272.268977 182.552513 
L 280.385341 169.955045 
L 288.501705 155.741087 
L 296.618068 140.622745 
L 304.734432 126.044458 
L 312.850795 112.961588 
L 320.967159 101.3965 
L 329.083523 91.106829 
L 337.199886 81.858415 
L 345.31625 73.461781 
L 353.432614 65.684646 
L 361.548977 58.565895 
L 369.665341 51.943778 
L 377.781705 45.737374 
L 385.898068 39.89421 
L 394.014432 34.359482 
L 402.130795 29.098025 
L 410.247159 24.08151 
L 418.363523 19.296 
" style="fill:none;stroke:#4daf4a;stroke-dasharray:3,4.95;stroke-dashoffset:0;stroke-opacity:0.7;stroke-width:3;"/>
    <defs>
     <path d="M 0 3 
C 0.795609 3 1.55874 2.683901 2.12132 2.12132 
C 2.683901 1.55874 3 0.795609 3 0 
C 3 -0.795609 2.683901 -1.55874 2.12132 -2.12132 
C 1.55874 -2.683901 0.795609 -3 0 -3 
C -0.795609 -3 -1.55874 -2.683901 -2.12132 -2.12132 
C -2.683901 -1.55874 -3 -0.795609 -3 0 
C -3 0.795609 -2.683901 1.55874 -2.12132 2.12132 
C -1.55874 2.683901 -0.795609 3 0 3 
z
" id="m591d019147" style="stroke:#4daf4a;stroke-opacity:0.7;"/>
    </defs>
    <g clip-path="url(#p3550c56de3)">
     <use style="fill:#4daf4a;fill-opacity:0.7;stroke:#4daf4a;stroke-opacity:0.7;" x="93.708977" xlink:href="#m591d019147" y="261.216"/>
     <use style="fill:#4daf4a;fill-opacity:0.7;stroke:#4daf4a;stroke-opacity:0.7;" x="101.825341" xlink:href="#m591d019147" y="260.34963"/>
     <use style="fill:#4daf4a;fill-opacity:0.7;stroke:#4daf4a;stroke-opacity:0.7;" x="109.941705" xlink:href="#m591d019147" y="259.430748"/>
     <use style="fill:#4daf4a;fill-opacity:0.7;stroke:#4daf4a;stroke-opacity:0.7;" x="118.058068" xlink:href="#m591d019147" y="258.388661"/>
     <use style="fill:#4daf4a;fill-opacity:0.7;stroke:#4daf4a;stroke-opacity:0.7;" x="126.174432" xlink:href="#m591d019147" y="257.205762"/>
     <use style="fill:#4daf4a;fill-opacity:0.7;stroke:#4daf4a;stroke-opacity:0.7;" x="134.290795" xlink:href="#m591d019147" y="255.877751"/>
     <use style="fill:#4daf4a;fill-opacity:0.7;stroke:#4daf4a;stroke-opacity:0.7;" x="142.407159" xlink:href="#m591d019147" y="254.404198"/>
     <use style="fill:#4daf4a;fill-opacity:0.7;stroke:#4daf4a;stroke-opacity:0.7;" x="150.523523" xlink:href="#m591d019147" y="252.78428"/>
     <use style="fill:#4daf4a;fill-opacity:0.7;stroke:#4daf4a;stroke-opacity:0.7;" x="158.639886" xlink:href="#m591d019147" y="251.013804"/>
     <use style="fill:#4daf4a;fill-opacity:0.7;stroke:#4daf4a;stroke-opacity:0.7;" x="166.75625" xlink:href="#m591d019147" y="249.083119"/>
     <use style="fill:#4daf4a;fill-opacity:0.7;stroke:#4daf4a;stroke-opacity:0.7;" x="174.872614" xlink:href="#m591d019147" y="246.974627"/>
     <use style="fill:#4daf4a;fill-opacity:0.7;stroke:#4daf4a;stroke-opacity:0.7;" x="182.988977" xlink:href="#m591d019147" y="244.660949"/>
     <use style="fill:#4daf4a;fill-opacity:0.7;stroke:#4daf4a;stroke-opacity:0.7;" x="191.105341" xlink:href="#m591d019147" y="242.10266"/>
     <use style="fill:#4daf4a;fill-opacity:0.7;stroke:#4daf4a;stroke-opacity:0.7;" x="199.221705" xlink:href="#m591d019147" y="239.246437"/>
     <use style="fill:#4daf4a;fill-opacity:0.7;stroke:#4daf4a;stroke-opacity:0.7;" x="207.338068" xlink:href="#m591d019147" y="236.023164"/>
     <use style="fill:#4daf4a;fill-opacity:0.7;stroke:#4daf4a;stroke-opacity:0.7;" x="215.454432" xlink:href="#m591d019147" y="232.346353"/>
     <use style="fill:#4daf4a;fill-opacity:0.7;stroke:#4daf4a;stroke-opacity:0.7;" x="223.570795" xlink:href="#m591d019147" y="228.110528"/>
     <use style="fill:#4daf4a;fill-opacity:0.7;stroke:#4daf4a;stroke-opacity:0.7;" x="231.687159" xlink:href="#m591d019147" y="223.190193"/>
     <use style="fill:#4daf4a;fill-opacity:0.7;stroke:#4daf4a;stroke-opacity:0.7;" x="239.803523" xlink:href="#m591d019147" y="217.43895"/>
     <use style="fill:#4daf4a;fill-opacity:0.7;stroke:#4daf4a;stroke-opacity:0.7;" x="247.919886" xlink:href="#m591d019147" y="210.68983"/>
     <use style="fill:#4daf4a;fill-opacity:0.7;stroke:#4daf4a;stroke-opacity:0.7;" x="256.03625" xlink:href="#m591d019147" y="202.756993"/>
     <use style="fill:#4daf4a;fill-opacity:0.7;stroke:#4daf4a;stroke-opacity:0.7;" x="264.152614" xlink:href="#m591d019147" y="193.442154"/>
     <use style="fill:#4daf4a;fill-opacity:0.7;stroke:#4daf4a;stroke-opacity:0.7;" x="272.268977" xlink:href="#m591d019147" y="182.552513"/>
     <use style="fill:#4daf4a;fill-opacity:0.7;stroke:#4daf4a;stroke-opacity:0.7;" x="280.385341" xlink:href="#m591d019147" y="169.955045"/>
     <use style="fill:#4daf4a;fill-opacity:0.7;stroke:#4daf4a;stroke-opacity:0.7;" x="288.501705" xlink:href="#m591d019147" y="155.741087"/>
     <use style="fill:#4daf4a;fill-opacity:0.7;stroke:#4daf4a;stroke-opacity:0.7;" x="296.618068" xlink:href="#m591d019147" y="140.622745"/>
     <use style="fill:#4daf4a;fill-opacity:0.7;stroke:#4daf4a;stroke-opacity:0.7;" x="304.734432" xlink:href="#m591d019147" y="126.044458"/>
     <use style="fill:#4daf4a;fill-opacity:0.7;stroke:#4daf4a;stroke-opacity:0.7;" x="312.850795" xlink:href="#m591d019147" y="112.961588"/>
     <use style="fill:#4daf4a;fill-opacity:0.7;stroke:#4daf4a;stroke-opacity:0.7;" x="320.967159" xlink:href="#m591d019147" y="101.3965"/>
     <use style="fill:#4daf4a;fill-opacity:0.7;stroke:#4daf4a;stroke-opacity:0.7;" x="329.083523" xlink:href="#m591d019147" y="91.106829"/>
     <use style="fill:#4daf4a;fill-opacity:0.7;stroke:#4daf4a;stroke-opacity:0.7;" x="337.199886" xlink:href="#m591d019147" y="81.858415"/>
     <use style="fill:#4daf4a;fill-opacity:0.7;stroke:#4daf4a;stroke-opacity:0.7;" x="345.31625" xlink:href="#m591d019147" y="73.461781"/>
     <use style="fill:#4daf4a;fill-opacity:0.7;stroke:#4daf4a;stroke-opacity:0.7;" x="353.432614" xlink:href="#m591d019147" y="65.684646"/>
     <use style="fill:#4daf4a;fill-opacity:0.7;stroke:#4daf4a;stroke-opacity:0.7;" x="361.548977" xlink:href="#m591d019147" y="58.565895"/>
     <use style="fill:#4daf4a;fill-opacity:0.7;stroke:#4daf4a;stroke-opacity:0.7;" x="369.665341" xlink:href="#m591d019147" y="51.943778"/>
     <use style="fill:#4daf4a;fill-opacity:0.7;stroke:#4daf4a;stroke-opacity:0.7;" x="377.781705" xlink:href="#m591d019147" y="45.737374"/>
     <use style="fill:#4daf4a;fill-opacity:0.7;stroke:#4daf4a;stroke-opacity:0.7;" x="385.898068" xlink:href="#m591d019147" y="39.89421"/>
     <use style="fill:#4daf4a;fill-opacity:0.7;stroke:#4daf4a;stroke-opacity:0.7;" x="394.014432" xlink:href="#m591d019147" y="34.359482"/>
     <use style="fill:#4daf4a;fill-opacity:0.7;stroke:#4daf4a;stroke-opacity:0.7;" x="402.130795" xlink:href="#m591d019147" y="29.098025"/>
     <use style="fill:#4daf4a;fill-opacity:0.7;stroke:#4daf4a;stroke-opacity:0.7;" x="410.247159" xlink:href="#m591d019147" y="24.08151"/>
     <use style="fill:#4daf4a;fill-opacity:0.7;stroke:#4daf4a;stroke-opacity:0.7;" x="418.363523" xlink:href="#m591d019147" y="19.296"/>
    </g>
   </g>
   <g id="line2d_15">
    <path clip-path="url(#p3550c56de3)" d="M 93.708977 261.216 
L 101.825341 260.386301 
L 109.941705 259.506221 
L 118.058068 258.507987 
L 126.174432 257.374769 
L 134.290795 256.102435 
L 142.407159 254.690521 
L 150.523523 253.13816 
L 158.639886 251.441326 
L 166.75625 249.590632 
L 174.872614 247.569178 
L 182.988977 245.350475 
L 191.105341 242.896616 
L 199.221705 240.156204 
L 207.338068 237.062598 
L 215.454432 233.532291 
L 223.570795 229.463408 
L 231.687159 224.734218 
L 239.803523 219.20225 
L 247.919886 212.703636 
L 256.03625 205.053776 
L 264.152614 196.050437 
L 272.268977 185.485457 
L 280.385341 173.183352 
L 288.501705 159.133506 
L 296.618068 143.876811 
L 304.734432 128.867981 
L 312.850795 115.334323 
L 320.967159 103.39817 
L 329.083523 92.813375 
L 337.199886 83.253122 
L 345.31625 74.655815 
L 353.432614 66.775374 
L 361.548977 59.487447 
L 369.665341 52.700335 
L 377.781705 46.33604 
L 385.898068 40.378166 
L 394.014432 34.717107 
L 402.130795 29.344227 
L 410.247159 24.219662 
L 418.363523 19.296 
" style="fill:none;stroke:#984ea3;stroke-dasharray:3,4.95;stroke-dashoffset:0;stroke-opacity:0.7;stroke-width:3;"/>
    <defs>
     <path d="M 0 3 
C 0.795609 3 1.55874 2.683901 2.12132 2.12132 
C 2.683901 1.55874 3 0.795609 3 0 
C 3 -0.795609 2.683901 -1.55874 2.12132 -2.12132 
C 1.55874 -2.683901 0.795609 -3 0 -3 
C -0.795609 -3 -1.55874 -2.683901 -2.12132 -2.12132 
C -2.683901 -1.55874 -3 -0.795609 -3 0 
C -3 0.795609 -2.683901 1.55874 -2.12132 2.12132 
C -1.55874 2.683901 -0.795609 3 0 3 
z
" id="m2d85e1a4a2" style="stroke:#984ea3;stroke-opacity:0.7;"/>
    </defs>
    <g clip-path="url(#p3550c56de3)">
     <use style="fill:#984ea3;fill-opacity:0.7;stroke:#984ea3;stroke-opacity:0.7;" x="93.708977" xlink:href="#m2d85e1a4a2" y="261.216"/>
     <use style="fill:#984ea3;fill-opacity:0.7;stroke:#984ea3;stroke-opacity:0.7;" x="101.825341" xlink:href="#m2d85e1a4a2" y="260.386301"/>
     <use style="fill:#984ea3;fill-opacity:0.7;stroke:#984ea3;stroke-opacity:0.7;" x="109.941705" xlink:href="#m2d85e1a4a2" y="259.506221"/>
     <use style="fill:#984ea3;fill-opacity:0.7;stroke:#984ea3;stroke-opacity:0.7;" x="118.058068" xlink:href="#m2d85e1a4a2" y="258.507987"/>
     <use style="fill:#984ea3;fill-opacity:0.7;stroke:#984ea3;stroke-opacity:0.7;" x="126.174432" xlink:href="#m2d85e1a4a2" y="257.374769"/>
     <use style="fill:#984ea3;fill-opacity:0.7;stroke:#984ea3;stroke-opacity:0.7;" x="134.290795" xlink:href="#m2d85e1a4a2" y="256.102435"/>
     <use style="fill:#984ea3;fill-opacity:0.7;stroke:#984ea3;stroke-opacity:0.7;" x="142.407159" xlink:href="#m2d85e1a4a2" y="254.690521"/>
     <use style="fill:#984ea3;fill-opacity:0.7;stroke:#984ea3;stroke-opacity:0.7;" x="150.523523" xlink:href="#m2d85e1a4a2" y="253.13816"/>
     <use style="fill:#984ea3;fill-opacity:0.7;stroke:#984ea3;stroke-opacity:0.7;" x="158.639886" xlink:href="#m2d85e1a4a2" y="251.441326"/>
     <use style="fill:#984ea3;fill-opacity:0.7;stroke:#984ea3;stroke-opacity:0.7;" x="166.75625" xlink:href="#m2d85e1a4a2" y="249.590632"/>
     <use style="fill:#984ea3;fill-opacity:0.7;stroke:#984ea3;stroke-opacity:0.7;" x="174.872614" xlink:href="#m2d85e1a4a2" y="247.569178"/>
     <use style="fill:#984ea3;fill-opacity:0.7;stroke:#984ea3;stroke-opacity:0.7;" x="182.988977" xlink:href="#m2d85e1a4a2" y="245.350475"/>
     <use style="fill:#984ea3;fill-opacity:0.7;stroke:#984ea3;stroke-opacity:0.7;" x="191.105341" xlink:href="#m2d85e1a4a2" y="242.896616"/>
     <use style="fill:#984ea3;fill-opacity:0.7;stroke:#984ea3;stroke-opacity:0.7;" x="199.221705" xlink:href="#m2d85e1a4a2" y="240.156204"/>
     <use style="fill:#984ea3;fill-opacity:0.7;stroke:#984ea3;stroke-opacity:0.7;" x="207.338068" xlink:href="#m2d85e1a4a2" y="237.062598"/>
     <use style="fill:#984ea3;fill-opacity:0.7;stroke:#984ea3;stroke-opacity:0.7;" x="215.454432" xlink:href="#m2d85e1a4a2" y="233.532291"/>
     <use style="fill:#984ea3;fill-opacity:0.7;stroke:#984ea3;stroke-opacity:0.7;" x="223.570795" xlink:href="#m2d85e1a4a2" y="229.463408"/>
     <use style="fill:#984ea3;fill-opacity:0.7;stroke:#984ea3;stroke-opacity:0.7;" x="231.687159" xlink:href="#m2d85e1a4a2" y="224.734218"/>
     <use style="fill:#984ea3;fill-opacity:0.7;stroke:#984ea3;stroke-opacity:0.7;" x="239.803523" xlink:href="#m2d85e1a4a2" y="219.20225"/>
     <use style="fill:#984ea3;fill-opacity:0.7;stroke:#984ea3;stroke-opacity:0.7;" x="247.919886" xlink:href="#m2d85e1a4a2" y="212.703636"/>
     <use style="fill:#984ea3;fill-opacity:0.7;stroke:#984ea3;stroke-opacity:0.7;" x="256.03625" xlink:href="#m2d85e1a4a2" y="205.053776"/>
     <use style="fill:#984ea3;fill-opacity:0.7;stroke:#984ea3;stroke-opacity:0.7;" x="264.152614" xlink:href="#m2d85e1a4a2" y="196.050437"/>
     <use style="fill:#984ea3;fill-opacity:0.7;stroke:#984ea3;stroke-opacity:0.7;" x="272.268977" xlink:href="#m2d85e1a4a2" y="185.485457"/>
     <use style="fill:#984ea3;fill-opacity:0.7;stroke:#984ea3;stroke-opacity:0.7;" x="280.385341" xlink:href="#m2d85e1a4a2" y="173.183352"/>
     <use style="fill:#984ea3;fill-opacity:0.7;stroke:#984ea3;stroke-opacity:0.7;" x="288.501705" xlink:href="#m2d85e1a4a2" y="159.133506"/>
     <use style="fill:#984ea3;fill-opacity:0.7;stroke:#984ea3;stroke-opacity:0.7;" x="296.618068" xlink:href="#m2d85e1a4a2" y="143.876811"/>
     <use style="fill:#984ea3;fill-opacity:0.7;stroke:#984ea3;stroke-opacity:0.7;" x="304.734432" xlink:href="#m2d85e1a4a2" y="128.867981"/>
     <use style="fill:#984ea3;fill-opacity:0.7;stroke:#984ea3;stroke-opacity:0.7;" x="312.850795" xlink:href="#m2d85e1a4a2" y="115.334323"/>
     <use style="fill:#984ea3;fill-opacity:0.7;stroke:#984ea3;stroke-opacity:0.7;" x="320.967159" xlink:href="#m2d85e1a4a2" y="103.39817"/>
     <use style="fill:#984ea3;fill-opacity:0.7;stroke:#984ea3;stroke-opacity:0.7;" x="329.083523" xlink:href="#m2d85e1a4a2" y="92.813375"/>
     <use style="fill:#984ea3;fill-opacity:0.7;stroke:#984ea3;stroke-opacity:0.7;" x="337.199886" xlink:href="#m2d85e1a4a2" y="83.253122"/>
     <use style="fill:#984ea3;fill-opacity:0.7;stroke:#984ea3;stroke-opacity:0.7;" x="345.31625" xlink:href="#m2d85e1a4a2" y="74.655815"/>
     <use style="fill:#984ea3;fill-opacity:0.7;stroke:#984ea3;stroke-opacity:0.7;" x="353.432614" xlink:href="#m2d85e1a4a2" y="66.775374"/>
     <use style="fill:#984ea3;fill-opacity:0.7;stroke:#984ea3;stroke-opacity:0.7;" x="361.548977" xlink:href="#m2d85e1a4a2" y="59.487447"/>
     <use style="fill:#984ea3;fill-opacity:0.7;stroke:#984ea3;stroke-opacity:0.7;" x="369.665341" xlink:href="#m2d85e1a4a2" y="52.700335"/>
     <use style="fill:#984ea3;fill-opacity:0.7;stroke:#984ea3;stroke-opacity:0.7;" x="377.781705" xlink:href="#m2d85e1a4a2" y="46.33604"/>
     <use style="fill:#984ea3;fill-opacity:0.7;stroke:#984ea3;stroke-opacity:0.7;" x="385.898068" xlink:href="#m2d85e1a4a2" y="40.378166"/>
     <use style="fill:#984ea3;fill-opacity:0.7;stroke:#984ea3;stroke-opacity:0.7;" x="394.014432" xlink:href="#m2d85e1a4a2" y="34.717107"/>
     <use style="fill:#984ea3;fill-opacity:0.7;stroke:#984ea3;stroke-opacity:0.7;" x="402.130795" xlink:href="#m2d85e1a4a2" y="29.344227"/>
     <use style="fill:#984ea3;fill-opacity:0.7;stroke:#984ea3;stroke-opacity:0.7;" x="410.247159" xlink:href="#m2d85e1a4a2" y="24.219662"/>
     <use style="fill:#984ea3;fill-opacity:0.7;stroke:#984ea3;stroke-opacity:0.7;" x="418.363523" xlink:href="#m2d85e1a4a2" y="19.296"/>
    </g>
   </g>
   <g id="line2d_16">
    <path clip-path="url(#p3550c56de3)" d="M 93.708977 261.216 
L 101.825341 260.415036 
L 109.941705 259.565334 
L 118.058068 258.601528 
L 126.174432 257.507266 
L 134.290795 256.278618 
L 142.407159 254.915115 
L 150.523523 253.415842 
L 158.639886 251.776909 
L 166.75625 249.989143 
L 174.872614 248.036194 
L 182.988977 245.892369 
L 191.105341 243.520921 
L 199.221705 240.871984 
L 207.338068 237.880982 
L 215.454432 234.466861 
L 223.570795 230.530603 
L 231.687159 225.953713 
L 239.803523 220.597077 
L 247.919886 214.299895 
L 256.03625 206.879288 
L 264.152614 198.131612 
L 272.268977 187.839334 
L 280.385341 175.798785 
L 288.501705 161.925747 
L 296.618068 146.612534 
L 304.734432 131.260097 
L 312.850795 117.330164 
L 320.967159 105.068538 
L 329.083523 94.157221 
L 337.199886 84.456411 
L 345.31625 75.675937 
L 353.432614 67.642796 
L 361.548977 60.213519 
L 369.665341 53.285535 
L 377.781705 46.796823 
L 385.898068 40.703204 
L 394.014432 34.965386 
L 402.130795 29.463086 
L 410.247159 24.223889 
L 418.363523 19.296 
" style="fill:none;stroke:#ff7f00;stroke-dasharray:3,4.95;stroke-dashoffset:0;stroke-opacity:0.7;stroke-width:3;"/>
    <defs>
     <path d="M 0 3 
C 0.795609 3 1.55874 2.683901 2.12132 2.12132 
C 2.683901 1.55874 3 0.795609 3 0 
C 3 -0.795609 2.683901 -1.55874 2.12132 -2.12132 
C 1.55874 -2.683901 0.795609 -3 0 -3 
C -0.795609 -3 -1.55874 -2.683901 -2.12132 -2.12132 
C -2.683901 -1.55874 -3 -0.795609 -3 0 
C -3 0.795609 -2.683901 1.55874 -2.12132 2.12132 
C -1.55874 2.683901 -0.795609 3 0 3 
z
" id="m93832cd074" style="stroke:#ff7f00;stroke-opacity:0.7;"/>
    </defs>
    <g clip-path="url(#p3550c56de3)">
     <use style="fill:#ff7f00;fill-opacity:0.7;stroke:#ff7f00;stroke-opacity:0.7;" x="93.708977" xlink:href="#m93832cd074" y="261.216"/>
     <use style="fill:#ff7f00;fill-opacity:0.7;stroke:#ff7f00;stroke-opacity:0.7;" x="101.825341" xlink:href="#m93832cd074" y="260.415036"/>
     <use style="fill:#ff7f00;fill-opacity:0.7;stroke:#ff7f00;stroke-opacity:0.7;" x="109.941705" xlink:href="#m93832cd074" y="259.565334"/>
     <use style="fill:#ff7f00;fill-opacity:0.7;stroke:#ff7f00;stroke-opacity:0.7;" x="118.058068" xlink:href="#m93832cd074" y="258.601528"/>
     <use style="fill:#ff7f00;fill-opacity:0.7;stroke:#ff7f00;stroke-opacity:0.7;" x="126.174432" xlink:href="#m93832cd074" y="257.507266"/>
     <use style="fill:#ff7f00;fill-opacity:0.7;stroke:#ff7f00;stroke-opacity:0.7;" x="134.290795" xlink:href="#m93832cd074" y="256.278618"/>
     <use style="fill:#ff7f00;fill-opacity:0.7;stroke:#ff7f00;stroke-opacity:0.7;" x="142.407159" xlink:href="#m93832cd074" y="254.915115"/>
     <use style="fill:#ff7f00;fill-opacity:0.7;stroke:#ff7f00;stroke-opacity:0.7;" x="150.523523" xlink:href="#m93832cd074" y="253.415842"/>
     <use style="fill:#ff7f00;fill-opacity:0.7;stroke:#ff7f00;stroke-opacity:0.7;" x="158.639886" xlink:href="#m93832cd074" y="251.776909"/>
     <use style="fill:#ff7f00;fill-opacity:0.7;stroke:#ff7f00;stroke-opacity:0.7;" x="166.75625" xlink:href="#m93832cd074" y="249.989143"/>
     <use style="fill:#ff7f00;fill-opacity:0.7;stroke:#ff7f00;stroke-opacity:0.7;" x="174.872614" xlink:href="#m93832cd074" y="248.036194"/>
     <use style="fill:#ff7f00;fill-opacity:0.7;stroke:#ff7f00;stroke-opacity:0.7;" x="182.988977" xlink:href="#m93832cd074" y="245.892369"/>
     <use style="fill:#ff7f00;fill-opacity:0.7;stroke:#ff7f00;stroke-opacity:0.7;" x="191.105341" xlink:href="#m93832cd074" y="243.520921"/>
     <use style="fill:#ff7f00;fill-opacity:0.7;stroke:#ff7f00;stroke-opacity:0.7;" x="199.221705" xlink:href="#m93832cd074" y="240.871984"/>
     <use style="fill:#ff7f00;fill-opacity:0.7;stroke:#ff7f00;stroke-opacity:0.7;" x="207.338068" xlink:href="#m93832cd074" y="237.880982"/>
     <use style="fill:#ff7f00;fill-opacity:0.7;stroke:#ff7f00;stroke-opacity:0.7;" x="215.454432" xlink:href="#m93832cd074" y="234.466861"/>
     <use style="fill:#ff7f00;fill-opacity:0.7;stroke:#ff7f00;stroke-opacity:0.7;" x="223.570795" xlink:href="#m93832cd074" y="230.530603"/>
     <use style="fill:#ff7f00;fill-opacity:0.7;stroke:#ff7f00;stroke-opacity:0.7;" x="231.687159" xlink:href="#m93832cd074" y="225.953713"/>
     <use style="fill:#ff7f00;fill-opacity:0.7;stroke:#ff7f00;stroke-opacity:0.7;" x="239.803523" xlink:href="#m93832cd074" y="220.597077"/>
     <use style="fill:#ff7f00;fill-opacity:0.7;stroke:#ff7f00;stroke-opacity:0.7;" x="247.919886" xlink:href="#m93832cd074" y="214.299895"/>
     <use style="fill:#ff7f00;fill-opacity:0.7;stroke:#ff7f00;stroke-opacity:0.7;" x="256.03625" xlink:href="#m93832cd074" y="206.879288"/>
     <use style="fill:#ff7f00;fill-opacity:0.7;stroke:#ff7f00;stroke-opacity:0.7;" x="264.152614" xlink:href="#m93832cd074" y="198.131612"/>
     <use style="fill:#ff7f00;fill-opacity:0.7;stroke:#ff7f00;stroke-opacity:0.7;" x="272.268977" xlink:href="#m93832cd074" y="187.839334"/>
     <use style="fill:#ff7f00;fill-opacity:0.7;stroke:#ff7f00;stroke-opacity:0.7;" x="280.385341" xlink:href="#m93832cd074" y="175.798785"/>
     <use style="fill:#ff7f00;fill-opacity:0.7;stroke:#ff7f00;stroke-opacity:0.7;" x="288.501705" xlink:href="#m93832cd074" y="161.925747"/>
     <use style="fill:#ff7f00;fill-opacity:0.7;stroke:#ff7f00;stroke-opacity:0.7;" x="296.618068" xlink:href="#m93832cd074" y="146.612534"/>
     <use style="fill:#ff7f00;fill-opacity:0.7;stroke:#ff7f00;stroke-opacity:0.7;" x="304.734432" xlink:href="#m93832cd074" y="131.260097"/>
     <use style="fill:#ff7f00;fill-opacity:0.7;stroke:#ff7f00;stroke-opacity:0.7;" x="312.850795" xlink:href="#m93832cd074" y="117.330164"/>
     <use style="fill:#ff7f00;fill-opacity:0.7;stroke:#ff7f00;stroke-opacity:0.7;" x="320.967159" xlink:href="#m93832cd074" y="105.068538"/>
     <use style="fill:#ff7f00;fill-opacity:0.7;stroke:#ff7f00;stroke-opacity:0.7;" x="329.083523" xlink:href="#m93832cd074" y="94.157221"/>
     <use style="fill:#ff7f00;fill-opacity:0.7;stroke:#ff7f00;stroke-opacity:0.7;" x="337.199886" xlink:href="#m93832cd074" y="84.456411"/>
     <use style="fill:#ff7f00;fill-opacity:0.7;stroke:#ff7f00;stroke-opacity:0.7;" x="345.31625" xlink:href="#m93832cd074" y="75.675937"/>
     <use style="fill:#ff7f00;fill-opacity:0.7;stroke:#ff7f00;stroke-opacity:0.7;" x="353.432614" xlink:href="#m93832cd074" y="67.642796"/>
     <use style="fill:#ff7f00;fill-opacity:0.7;stroke:#ff7f00;stroke-opacity:0.7;" x="361.548977" xlink:href="#m93832cd074" y="60.213519"/>
     <use style="fill:#ff7f00;fill-opacity:0.7;stroke:#ff7f00;stroke-opacity:0.7;" x="369.665341" xlink:href="#m93832cd074" y="53.285535"/>
     <use style="fill:#ff7f00;fill-opacity:0.7;stroke:#ff7f00;stroke-opacity:0.7;" x="377.781705" xlink:href="#m93832cd074" y="46.796823"/>
     <use style="fill:#ff7f00;fill-opacity:0.7;stroke:#ff7f00;stroke-opacity:0.7;" x="385.898068" xlink:href="#m93832cd074" y="40.703204"/>
     <use style="fill:#ff7f00;fill-opacity:0.7;stroke:#ff7f00;stroke-opacity:0.7;" x="394.014432" xlink:href="#m93832cd074" y="34.965386"/>
     <use style="fill:#ff7f00;fill-opacity:0.7;stroke:#ff7f00;stroke-opacity:0.7;" x="402.130795" xlink:href="#m93832cd074" y="29.463086"/>
     <use style="fill:#ff7f00;fill-opacity:0.7;stroke:#ff7f00;stroke-opacity:0.7;" x="410.247159" xlink:href="#m93832cd074" y="24.223889"/>
     <use style="fill:#ff7f00;fill-opacity:0.7;stroke:#ff7f00;stroke-opacity:0.7;" x="418.363523" xlink:href="#m93832cd074" y="19.296"/>
    </g>
   </g>
   <g id="patch_3">
    <path d="M 77.47625 273.312 
L 77.47625 7.2 
" style="fill:none;stroke:#000000;stroke-linecap:square;stroke-linejoin:miter;stroke-width:0.8;"/>
   </g>
   <g id="patch_4">
    <path d="M 434.59625 273.312 
L 434.59625 7.2 
" style="fill:none;stroke:#000000;stroke-linecap:square;stroke-linejoin:miter;stroke-width:0.8;"/>
   </g>
   <g id="patch_5">
    <path d="M 77.47625 273.312 
L 434.59625 273.312 
" style="fill:none;stroke:#000000;stroke-linecap:square;stroke-linejoin:miter;stroke-width:0.8;"/>
   </g>
   <g id="patch_6">
    <path d="M 77.47625 7.2 
L 434.59625 7.2 
" style="fill:none;stroke:#000000;stroke-linecap:square;stroke-linejoin:miter;stroke-width:0.8;"/>
   </g>
   <g id="legend_1">
    <g id="patch_7">
     <path d="M 90.07625 153.703125 
L 200.070313 153.703125 
Q 203.670313 153.703125 203.670313 150.103125 
L 203.670313 19.8 
Q 203.670313 16.2 200.070313 16.2 
L 90.07625 16.2 
Q 86.47625 16.2 86.47625 19.8 
L 86.47625 150.103125 
Q 86.47625 153.703125 90.07625 153.703125 
z
" style="fill:#ffffff;opacity:0.8;stroke:#cccccc;stroke-linejoin:miter;"/>
    </g>
    <g id="line2d_17">
     <path d="M 93.67625 30.777187 
L 129.67625 30.777187 
" style="fill:none;stroke:#e41a1c;stroke-dasharray:3,4.95;stroke-dashoffset:0;stroke-opacity:0.7;stroke-width:3;"/>
    </g>
    <g id="line2d_18">
     <g>
      <use style="fill:#e41a1c;fill-opacity:0.7;stroke:#e41a1c;stroke-opacity:0.7;" x="111.67625" xlink:href="#me189a87baa" y="30.777187"/>
     </g>
    </g>
    <g id="text_14">
     <!-- L-300 -->
     <defs>
      <path d="M 5.515625 0 
L 5.515625 5.171875 
L 14.796875 5.171875 
L 14.796875 67.671875 
L 5.515625 67.671875 
L 5.515625 72.90625 
L 33.984375 72.90625 
L 33.984375 67.671875 
L 24.703125 67.671875 
L 24.703125 6 
L 58.015625 6 
L 58.015625 18.21875 
L 64.015625 18.21875 
L 64.015625 0 
z
" id="DejaVuSerif-76"/>
      <path d="M 4.390625 30.609375 
L 29.390625 30.609375 
L 29.390625 23 
L 4.390625 23 
z
" id="DejaVuSerif-45"/>
     </defs>
     <g transform="translate(144.07625 37.077187)scale(0.18 -0.18)">
      <use xlink:href="#DejaVuSerif-76"/>
      <use x="66.40625" xlink:href="#DejaVuSerif-45"/>
      <use x="100.195312" xlink:href="#DejaVuSerif-51"/>
      <use x="163.818359" xlink:href="#DejaVuSerif-48"/>
      <use x="227.441406" xlink:href="#DejaVuSerif-48"/>
     </g>
    </g>
    <g id="line2d_19">
     <path d="M 93.67625 57.197812 
L 129.67625 57.197812 
" style="fill:none;stroke:#377eb8;stroke-dasharray:3,4.95;stroke-dashoffset:0;stroke-opacity:0.7;stroke-width:3;"/>
    </g>
    <g id="line2d_20">
     <g>
      <use style="fill:#377eb8;fill-opacity:0.7;stroke:#377eb8;stroke-opacity:0.7;" x="111.67625" xlink:href="#m431750d82a" y="57.197812"/>
     </g>
    </g>
    <g id="text_15">
     <!-- L-400 -->
     <g transform="translate(144.07625 63.497812)scale(0.18 -0.18)">
      <use xlink:href="#DejaVuSerif-76"/>
      <use x="66.40625" xlink:href="#DejaVuSerif-45"/>
      <use x="100.195312" xlink:href="#DejaVuSerif-52"/>
      <use x="163.818359" xlink:href="#DejaVuSerif-48"/>
      <use x="227.441406" xlink:href="#DejaVuSerif-48"/>
     </g>
    </g>
    <g id="line2d_21">
     <path d="M 93.67625 83.618437 
L 129.67625 83.618437 
" style="fill:none;stroke:#4daf4a;stroke-dasharray:3,4.95;stroke-dashoffset:0;stroke-opacity:0.7;stroke-width:3;"/>
    </g>
    <g id="line2d_22">
     <g>
      <use style="fill:#4daf4a;fill-opacity:0.7;stroke:#4daf4a;stroke-opacity:0.7;" x="111.67625" xlink:href="#m591d019147" y="83.618437"/>
     </g>
    </g>
    <g id="text_16">
     <!-- L-500 -->
     <defs>
      <path d="M 50.296875 72.90625 
L 50.296875 64.890625 
L 16.890625 64.890625 
L 16.890625 44 
Q 19.4375 45.75 22.828125 46.625 
Q 26.21875 47.515625 30.421875 47.515625 
Q 42.234375 47.515625 49.0625 40.96875 
Q 55.90625 34.421875 55.90625 23.09375 
Q 55.90625 11.53125 49 5.046875 
Q 42.09375 -1.421875 29.59375 -1.421875 
Q 24.5625 -1.421875 19.28125 -0.1875 
Q 14.015625 1.03125 8.5 3.515625 
L 8.5 17.671875 
L 14.015625 17.671875 
Q 14.453125 10.75 18.421875 7.078125 
Q 22.40625 3.421875 29.59375 3.421875 
Q 37.3125 3.421875 41.453125 8.5 
Q 45.609375 13.578125 45.609375 23.09375 
Q 45.609375 32.5625 41.484375 37.609375 
Q 37.359375 42.671875 29.59375 42.671875 
Q 25.203125 42.671875 21.84375 41.109375 
Q 18.5 39.546875 15.921875 36.28125 
L 11.71875 36.28125 
L 11.71875 72.90625 
z
" id="DejaVuSerif-53"/>
     </defs>
     <g transform="translate(144.07625 89.918437)scale(0.18 -0.18)">
      <use xlink:href="#DejaVuSerif-76"/>
      <use x="66.40625" xlink:href="#DejaVuSerif-45"/>
      <use x="100.195312" xlink:href="#DejaVuSerif-53"/>
      <use x="163.818359" xlink:href="#DejaVuSerif-48"/>
      <use x="227.441406" xlink:href="#DejaVuSerif-48"/>
     </g>
    </g>
    <g id="line2d_23">
     <path d="M 93.67625 110.039062 
L 129.67625 110.039062 
" style="fill:none;stroke:#984ea3;stroke-dasharray:3,4.95;stroke-dashoffset:0;stroke-opacity:0.7;stroke-width:3;"/>
    </g>
    <g id="line2d_24">
     <g>
      <use style="fill:#984ea3;fill-opacity:0.7;stroke:#984ea3;stroke-opacity:0.7;" x="111.67625" xlink:href="#m2d85e1a4a2" y="110.039062"/>
     </g>
    </g>
    <g id="text_17">
     <!-- L-600 -->
     <g transform="translate(144.07625 116.339062)scale(0.18 -0.18)">
      <use xlink:href="#DejaVuSerif-76"/>
      <use x="66.40625" xlink:href="#DejaVuSerif-45"/>
      <use x="100.195312" xlink:href="#DejaVuSerif-54"/>
      <use x="163.818359" xlink:href="#DejaVuSerif-48"/>
      <use x="227.441406" xlink:href="#DejaVuSerif-48"/>
     </g>
    </g>
    <g id="line2d_25">
     <path d="M 93.67625 136.459687 
L 129.67625 136.459687 
" style="fill:none;stroke:#ff7f00;stroke-dasharray:3,4.95;stroke-dashoffset:0;stroke-opacity:0.7;stroke-width:3;"/>
    </g>
    <g id="line2d_26">
     <g>
      <use style="fill:#ff7f00;fill-opacity:0.7;stroke:#ff7f00;stroke-opacity:0.7;" x="111.67625" xlink:href="#m93832cd074" y="136.459687"/>
     </g>
    </g>
    <g id="text_18">
     <!-- L-700 -->
     <defs>
      <path d="M 56.390625 67.921875 
L 27.875 0 
L 20.609375 0 
L 47.796875 64.890625 
L 14.109375 64.890625 
L 14.109375 55.90625 
L 8.40625 55.90625 
L 8.40625 72.90625 
L 56.390625 72.90625 
z
" id="DejaVuSerif-55"/>
     </defs>
     <g transform="translate(144.07625 142.759687)scale(0.18 -0.18)">
      <use xlink:href="#DejaVuSerif-76"/>
      <use x="66.40625" xlink:href="#DejaVuSerif-45"/>
      <use x="100.195312" xlink:href="#DejaVuSerif-55"/>
      <use x="163.818359" xlink:href="#DejaVuSerif-48"/>
      <use x="227.441406" xlink:href="#DejaVuSerif-48"/>
     </g>
    </g>
   </g>
  </g>
 </g>
 <defs>
  <clipPath id="p3550c56de3">
   <rect height="266.112" width="357.12" x="77.47625" y="7.2"/>
  </clipPath>
 </defs>
</svg>
