<?xml version="1.0" encoding="utf-8" standalone="no"?>
<!DOCTYPE svg PUBLIC "-//W3C//DTD SVG 1.1//EN"
  "http://www.w3.org/Graphics/SVG/1.1/DTD/svg11.dtd">
<!-- Created with matplotlib (https://matplotlib.org/) -->
<svg height="335.64825pt" version="1.1" viewBox="0 0 437.925 335.64825" width="437.925pt" xmlns="http://www.w3.org/2000/svg" xmlns:xlink="http://www.w3.org/1999/xlink">
 <defs>
  <style type="text/css">
*{stroke-linecap:butt;stroke-linejoin:round;}
  </style>
 </defs>
 <g id="figure_1">
  <g id="patch_1">
   <path d="M 0 335.64825 
L 437.925 335.64825 
L 437.925 0 
L 0 0 
z
" style="fill:#ffffff;"/>
  </g>
  <g id="axes_1">
   <g id="patch_2">
    <path d="M 73.605 273.312 
L 430.725 273.312 
L 430.725 7.2 
L 73.605 7.2 
z
" style="fill:#ffffff;"/>
   </g>
   <g id="matplotlib.axis_1">
    <g id="xtick_1">
     <g id="line2d_1">
      <defs>
       <path d="M 0 0 
L 0 -8 
" id="mf065416965" style="stroke:#000000;stroke-width:0.8;"/>
      </defs>
      <g>
       <use style="stroke:#000000;stroke-width:0.8;" x="81.721364" xlink:href="#mf065416965" y="273.312"/>
      </g>
     </g>
     <g id="text_1">
      <!-- 0.0 -->
      <defs>
       <path d="M 31.78125 3.421875 
Q 39.265625 3.421875 42.96875 11.625 
Q 46.6875 19.828125 46.6875 36.375 
Q 46.6875 52.984375 42.96875 61.1875 
Q 39.265625 69.390625 31.78125 69.390625 
Q 24.3125 69.390625 20.59375 61.1875 
Q 16.890625 52.984375 16.890625 36.375 
Q 16.890625 19.828125 20.59375 11.625 
Q 24.3125 3.421875 31.78125 3.421875 
z
M 31.78125 -1.421875 
Q 19.921875 -1.421875 13.25 8.53125 
Q 6.59375 18.5 6.59375 36.375 
Q 6.59375 54.296875 13.25 64.25 
Q 19.921875 74.21875 31.78125 74.21875 
Q 43.703125 74.21875 50.34375 64.25 
Q 56.984375 54.296875 56.984375 36.375 
Q 56.984375 18.5 50.34375 8.53125 
Q 43.703125 -1.421875 31.78125 -1.421875 
z
" id="DejaVuSerif-48"/>
       <path d="M 9.421875 5.078125 
Q 9.421875 7.8125 11.28125 9.71875 
Q 13.140625 11.625 15.921875 11.625 
Q 18.609375 11.625 20.5 9.71875 
Q 22.40625 7.8125 22.40625 5.078125 
Q 22.40625 2.390625 20.5 0.484375 
Q 18.609375 -1.421875 15.921875 -1.421875 
Q 13.140625 -1.421875 11.28125 0.453125 
Q 9.421875 2.34375 9.421875 5.078125 
z
" id="DejaVuSerif-46"/>
      </defs>
      <g transform="translate(65.818239 292.008875)scale(0.2 -0.2)">
       <use xlink:href="#DejaVuSerif-48"/>
       <use x="63.623047" xlink:href="#DejaVuSerif-46"/>
       <use x="95.410156" xlink:href="#DejaVuSerif-48"/>
      </g>
     </g>
    </g>
    <g id="xtick_2">
     <g id="line2d_2">
      <g>
       <use style="stroke:#000000;stroke-width:0.8;" x="162.885" xlink:href="#mf065416965" y="273.312"/>
      </g>
     </g>
     <g id="text_2">
      <!-- 0.1 -->
      <defs>
       <path d="M 14.203125 0 
L 14.203125 5.171875 
L 26.90625 5.171875 
L 26.90625 65.828125 
L 12.203125 56.296875 
L 12.203125 62.703125 
L 29.984375 74.21875 
L 36.71875 74.21875 
L 36.71875 5.171875 
L 49.421875 5.171875 
L 49.421875 0 
z
" id="DejaVuSerif-49"/>
      </defs>
      <g transform="translate(146.981875 292.008875)scale(0.2 -0.2)">
       <use xlink:href="#DejaVuSerif-48"/>
       <use x="63.623047" xlink:href="#DejaVuSerif-46"/>
       <use x="95.410156" xlink:href="#DejaVuSerif-49"/>
      </g>
     </g>
    </g>
    <g id="xtick_3">
     <g id="line2d_3">
      <g>
       <use style="stroke:#000000;stroke-width:0.8;" x="244.048636" xlink:href="#mf065416965" y="273.312"/>
      </g>
     </g>
     <g id="text_3">
      <!-- 0.2 -->
      <defs>
       <path d="M 12.796875 55.515625 
L 7.328125 55.515625 
L 7.328125 68.5 
Q 12.546875 71.296875 17.84375 72.75 
Q 23.140625 74.21875 28.21875 74.21875 
Q 39.59375 74.21875 46.1875 68.703125 
Q 52.78125 63.1875 52.78125 53.71875 
Q 52.78125 43.015625 37.84375 28.125 
Q 36.671875 27 36.078125 26.421875 
L 17.671875 8.015625 
L 48.09375 8.015625 
L 48.09375 17 
L 53.8125 17 
L 53.8125 0 
L 6.78125 0 
L 6.78125 5.328125 
L 28.90625 27.390625 
Q 36.234375 34.71875 39.359375 40.84375 
Q 42.484375 46.96875 42.484375 53.71875 
Q 42.484375 61.078125 38.640625 65.234375 
Q 34.8125 69.390625 28.078125 69.390625 
Q 21.09375 69.390625 17.28125 65.921875 
Q 13.484375 62.453125 12.796875 55.515625 
z
" id="DejaVuSerif-50"/>
      </defs>
      <g transform="translate(228.145511 292.008875)scale(0.2 -0.2)">
       <use xlink:href="#DejaVuSerif-48"/>
       <use x="63.623047" xlink:href="#DejaVuSerif-46"/>
       <use x="95.410156" xlink:href="#DejaVuSerif-50"/>
      </g>
     </g>
    </g>
    <g id="xtick_4">
     <g id="line2d_4">
      <g>
       <use style="stroke:#000000;stroke-width:0.8;" x="325.212273" xlink:href="#mf065416965" y="273.312"/>
      </g>
     </g>
     <g id="text_4">
      <!-- 0.3 -->
      <defs>
       <path d="M 9.71875 69.828125 
Q 15.4375 71.96875 20.671875 73.09375 
Q 25.921875 74.21875 30.515625 74.21875 
Q 41.21875 74.21875 47.21875 69.59375 
Q 53.21875 64.984375 53.21875 56.78125 
Q 53.21875 50.203125 49.0625 45.78125 
Q 44.921875 41.359375 37.3125 39.796875 
Q 46.296875 38.53125 51.25 33.28125 
Q 56.203125 28.03125 56.203125 19.671875 
Q 56.203125 9.46875 49.34375 4.015625 
Q 42.484375 -1.421875 29.59375 -1.421875 
Q 23.875 -1.421875 18.421875 -0.1875 
Q 12.984375 1.03125 7.625 3.515625 
L 7.625 17.671875 
L 13.09375 17.671875 
Q 13.578125 10.640625 17.828125 7.03125 
Q 22.078125 3.421875 29.78125 3.421875 
Q 37.25 3.421875 41.578125 7.734375 
Q 45.90625 12.0625 45.90625 19.578125 
Q 45.90625 28.171875 41.453125 32.59375 
Q 37.015625 37.015625 28.421875 37.015625 
L 23.78125 37.015625 
L 23.78125 42 
L 26.21875 42 
Q 34.765625 42 39.03125 45.53125 
Q 43.3125 49.078125 43.3125 56.203125 
Q 43.3125 62.59375 39.796875 65.984375 
Q 36.28125 69.390625 29.6875 69.390625 
Q 23.09375 69.390625 19.453125 66.265625 
Q 15.828125 63.140625 15.1875 56.984375 
L 9.71875 56.984375 
z
" id="DejaVuSerif-51"/>
      </defs>
      <g transform="translate(309.309148 292.008875)scale(0.2 -0.2)">
       <use xlink:href="#DejaVuSerif-48"/>
       <use x="63.623047" xlink:href="#DejaVuSerif-46"/>
       <use x="95.410156" xlink:href="#DejaVuSerif-51"/>
      </g>
     </g>
    </g>
    <g id="xtick_5">
     <g id="line2d_5">
      <g>
       <use style="stroke:#000000;stroke-width:0.8;" x="406.375909" xlink:href="#mf065416965" y="273.312"/>
      </g>
     </g>
     <g id="text_5">
      <!-- 0.4 -->
      <defs>
       <path d="M 34.90625 24.703125 
L 34.90625 63.484375 
L 10.015625 24.703125 
z
M 56.390625 0 
L 23.1875 0 
L 23.1875 5.171875 
L 34.90625 5.171875 
L 34.90625 19.484375 
L 3.078125 19.484375 
L 3.078125 24.8125 
L 35.015625 74.21875 
L 44.671875 74.21875 
L 44.671875 24.703125 
L 58.59375 24.703125 
L 58.59375 19.484375 
L 44.671875 19.484375 
L 44.671875 5.171875 
L 56.390625 5.171875 
z
" id="DejaVuSerif-52"/>
      </defs>
      <g transform="translate(390.472784 292.008875)scale(0.2 -0.2)">
       <use xlink:href="#DejaVuSerif-48"/>
       <use x="63.623047" xlink:href="#DejaVuSerif-46"/>
       <use x="95.410156" xlink:href="#DejaVuSerif-52"/>
      </g>
     </g>
    </g>
    <g id="text_6">
     <!-- Tunneling $J/U$ -->
     <defs>
      <path d="M 19.09375 0 
L 19.09375 5.171875 
L 28.421875 5.171875 
L 28.421875 67.09375 
L 6.984375 67.09375 
L 6.984375 55.71875 
L 0.984375 55.71875 
L 0.984375 72.90625 
L 65.71875 72.90625 
L 65.71875 55.71875 
L 59.71875 55.71875 
L 59.71875 67.09375 
L 38.28125 67.09375 
L 38.28125 5.171875 
L 47.609375 5.171875 
L 47.609375 0 
z
" id="DejaVuSerif-84"/>
      <path d="M 35.40625 51.90625 
L 52.203125 51.90625 
L 52.203125 5.171875 
L 60.6875 5.171875 
L 60.6875 0 
L 43.21875 0 
L 43.21875 9.1875 
Q 40.71875 4 36.765625 1.28125 
Q 32.8125 -1.421875 27.59375 -1.421875 
Q 18.953125 -1.421875 14.875 3.484375 
Q 10.796875 8.40625 10.796875 18.890625 
L 10.796875 46.6875 
L 2.6875 46.6875 
L 2.6875 51.90625 
L 19.828125 51.90625 
L 19.828125 21.6875 
Q 19.828125 12.203125 22.140625 8.6875 
Q 24.46875 5.171875 30.421875 5.171875 
Q 36.671875 5.171875 39.9375 9.765625 
Q 43.21875 14.359375 43.21875 23.09375 
L 43.21875 46.6875 
L 35.40625 46.6875 
z
" id="DejaVuSerif-117"/>
      <path d="M 4.109375 0 
L 4.109375 5.171875 
L 12.203125 5.171875 
L 12.203125 46.6875 
L 3.609375 46.6875 
L 3.609375 51.90625 
L 21.1875 51.90625 
L 21.1875 42.671875 
Q 23.6875 47.953125 27.65625 50.640625 
Q 31.640625 53.328125 36.921875 53.328125 
Q 45.515625 53.328125 49.5625 48.390625 
Q 53.609375 43.453125 53.609375 33.015625 
L 53.609375 5.171875 
L 61.625 5.171875 
L 61.625 0 
L 36.8125 0 
L 36.8125 5.171875 
L 44.578125 5.171875 
L 44.578125 30.171875 
Q 44.578125 39.703125 42.234375 43.234375 
Q 39.890625 46.78125 33.984375 46.78125 
Q 27.734375 46.78125 24.453125 42.203125 
Q 21.1875 37.640625 21.1875 28.90625 
L 21.1875 5.171875 
L 29 5.171875 
L 29 0 
z
" id="DejaVuSerif-110"/>
      <path d="M 54.203125 25 
L 15.484375 25 
L 15.484375 24.609375 
Q 15.484375 14.109375 19.4375 8.765625 
Q 23.390625 3.421875 31.109375 3.421875 
Q 37.015625 3.421875 40.796875 6.515625 
Q 44.578125 9.625 46.09375 15.71875 
L 53.328125 15.71875 
Q 51.171875 7.171875 45.375 2.875 
Q 39.59375 -1.421875 30.171875 -1.421875 
Q 18.796875 -1.421875 11.890625 6.078125 
Q 4.984375 13.578125 4.984375 25.984375 
Q 4.984375 38.28125 11.765625 45.796875 
Q 18.5625 53.328125 29.59375 53.328125 
Q 41.359375 53.328125 47.65625 46.0625 
Q 53.953125 38.8125 54.203125 25 
z
M 43.609375 30.171875 
Q 43.3125 39.265625 39.765625 43.875 
Q 36.234375 48.484375 29.59375 48.484375 
Q 23.390625 48.484375 19.828125 43.84375 
Q 16.265625 39.203125 15.484375 30.171875 
z
" id="DejaVuSerif-101"/>
      <path d="M 20.515625 5.171875 
L 29 5.171875 
L 29 0 
L 2.875 0 
L 2.875 5.171875 
L 11.53125 5.171875 
L 11.53125 70.796875 
L 2.875 70.796875 
L 2.875 75.984375 
L 20.515625 75.984375 
z
" id="DejaVuSerif-108"/>
      <path d="M 9.71875 68.015625 
Q 9.71875 70.265625 11.34375 71.921875 
Q 12.984375 73.578125 15.28125 73.578125 
Q 17.53125 73.578125 19.15625 71.921875 
Q 20.796875 70.265625 20.796875 68.015625 
Q 20.796875 65.71875 19.1875 64.109375 
Q 17.578125 62.5 15.28125 62.5 
Q 12.984375 62.5 11.34375 64.109375 
Q 9.71875 65.71875 9.71875 68.015625 
z
M 21.1875 5.171875 
L 29.6875 5.171875 
L 29.6875 0 
L 3.609375 0 
L 3.609375 5.171875 
L 12.203125 5.171875 
L 12.203125 46.6875 
L 3.609375 46.6875 
L 3.609375 51.90625 
L 21.1875 51.90625 
z
" id="DejaVuSerif-105"/>
      <path d="M 52.484375 46.6875 
L 52.484375 1.125 
Q 52.484375 -10.0625 46.328125 -16.140625 
Q 40.1875 -22.21875 28.8125 -22.21875 
Q 23.6875 -22.21875 19 -21.28125 
Q 14.3125 -20.359375 10.015625 -18.5 
L 10.015625 -7.625 
L 14.703125 -7.625 
Q 15.578125 -12.703125 18.84375 -15.046875 
Q 22.125 -17.390625 28.21875 -17.390625 
Q 36.140625 -17.390625 39.8125 -12.921875 
Q 43.5 -8.453125 43.5 1.125 
L 43.5 8.109375 
Q 40.875 3.21875 36.796875 0.890625 
Q 32.71875 -1.421875 26.703125 -1.421875 
Q 17.140625 -1.421875 11.0625 6.171875 
Q 4.984375 13.765625 4.984375 25.984375 
Q 4.984375 38.1875 11.03125 45.75 
Q 17.09375 53.328125 26.703125 53.328125 
Q 32.71875 53.328125 36.796875 51 
Q 40.875 48.6875 43.5 43.796875 
L 43.5 51.90625 
L 61.078125 51.90625 
L 61.078125 46.6875 
z
M 43.5 28.515625 
Q 43.5 37.84375 39.90625 42.765625 
Q 36.328125 47.703125 29.5 47.703125 
Q 22.5625 47.703125 19.015625 42.234375 
Q 15.484375 36.765625 15.484375 25.984375 
Q 15.484375 15.234375 19.015625 9.71875 
Q 22.5625 4.203125 29.5 4.203125 
Q 36.328125 4.203125 39.90625 9.109375 
Q 43.5 14.015625 43.5 23.390625 
z
" id="DejaVuSerif-103"/>
      <path id="DejaVuSerif-32"/>
      <path d="M 10.890625 6 
Q 11.859375 3.21875 14.5 1.796875 
Q 17.140625 0.390625 20.21875 0.390625 
Q 23.34375 0.390625 26.25 2.5625 
Q 29.15625 4.734375 31.171875 8 
Q 33.203125 11.28125 33.984375 14.5 
L 45.796875 61.8125 
Q 45.90625 62.203125 45.921875 62.390625 
Q 45.953125 62.59375 46 62.796875 
Q 46 63.875 45.21875 64.109375 
Q 42.578125 64.796875 34.515625 64.796875 
Q 33.5 64.796875 33.5 66.109375 
Q 33.6875 66.890625 33.8125 67.328125 
Q 33.9375 67.78125 34.25 68.046875 
Q 34.578125 68.3125 35.203125 68.3125 
L 62.3125 68.3125 
Q 63.28125 68.3125 63.28125 67 
Q 62.890625 64.796875 62.015625 64.796875 
Q 58.5 64.796875 56.6875 64.25 
Q 54.890625 63.71875 54.203125 61.375 
L 42.390625 14.109375 
Q 41.265625 9.46875 37.8125 5.734375 
Q 34.375 2 29.640625 -0.09375 
Q 24.90625 -2.203125 20.125 -2.203125 
Q 14.84375 -2.203125 10.859375 0.71875 
Q 6.890625 3.65625 6.890625 8.6875 
Q 6.890625 12.015625 8.6875 14.40625 
Q 10.5 16.796875 13.8125 16.796875 
Q 15.71875 16.796875 17.015625 15.625 
Q 18.3125 14.453125 18.3125 12.59375 
Q 18.3125 9.90625 16.3125 7.90625 
Q 14.3125 5.90625 11.625 5.90625 
Q 11.078125 5.90625 10.890625 6 
z
" id="Cmmi10-74"/>
      <path d="M 5.609375 -23 
Q 5.609375 -22.703125 5.71875 -22.609375 
L 40.484375 73.78125 
Q 40.671875 74.359375 41.15625 74.671875 
Q 41.65625 75 42.28125 75 
Q 43.171875 75 43.71875 74.453125 
Q 44.28125 73.921875 44.28125 73 
L 44.28125 72.609375 
L 9.515625 -23.78125 
Q 8.9375 -25 7.625 -25 
Q 6.78125 -25 6.1875 -24.40625 
Q 5.609375 -23.828125 5.609375 -23 
z
" id="Cmmi10-61"/>
      <path d="M 14.703125 13.921875 
Q 14.703125 10.25 16.140625 7.375 
Q 17.578125 4.5 20.3125 2.90625 
Q 23.046875 1.3125 26.703125 1.3125 
Q 31 1.3125 35.078125 3.0625 
Q 39.15625 4.828125 42.421875 7.953125 
Q 45.703125 11.078125 48.015625 15.078125 
Q 50.34375 19.09375 51.3125 23 
L 60.296875 59.078125 
Q 60.5 60.15625 60.5 60.59375 
Q 60.5 64.796875 52.78125 64.796875 
Q 51.8125 64.796875 51.8125 66.109375 
Q 52.15625 67.390625 52.34375 67.84375 
Q 52.546875 68.3125 53.515625 68.3125 
L 75.203125 68.3125 
Q 75.640625 68.3125 75.921875 67.875 
Q 76.21875 67.4375 76.21875 67 
Q 76.21875 66.9375 76.015625 66.234375 
Q 75.828125 65.53125 75.5625 65.15625 
Q 75.296875 64.796875 74.90625 64.796875 
Q 65.328125 64.796875 63.8125 58.6875 
L 54.78125 22.609375 
Q 53.65625 17.921875 51 13.5 
Q 48.34375 9.078125 44.453125 5.484375 
Q 40.578125 1.90625 35.90625 -0.140625 
Q 31.25 -2.203125 26.421875 -2.203125 
Q 20.90625 -2.203125 16.328125 0.21875 
Q 11.765625 2.640625 9.171875 6.984375 
Q 6.59375 11.328125 6.59375 17 
Q 6.59375 20.265625 7.328125 23 
L 17 61.8125 
Q 17.1875 62.796875 17.1875 63.1875 
Q 17.1875 64.265625 16.015625 64.40625 
Q 14.109375 64.796875 8.796875 64.796875 
Q 7.8125 64.796875 7.8125 66.109375 
Q 8.15625 67.390625 8.34375 67.84375 
Q 8.546875 68.3125 9.515625 68.3125 
L 36.375 68.3125 
Q 37.40625 68.3125 37.40625 67 
Q 37.359375 66.75 37.203125 66.15625 
Q 37.0625 65.578125 36.8125 65.1875 
Q 36.578125 64.796875 36.078125 64.796875 
Q 29.984375 64.796875 27.59375 64.109375 
Q 26.265625 63.625 25.6875 61.375 
L 16.015625 22.609375 
Q 14.703125 17.328125 14.703125 13.921875 
z
" id="Cmmi10-85"/>
     </defs>
     <g transform="translate(151.785 321.44825)scale(0.28 -0.28)">
      <use transform="translate(0 0.015625)" xlink:href="#DejaVuSerif-84"/>
      <use transform="translate(66.699219 0.015625)" xlink:href="#DejaVuSerif-117"/>
      <use transform="translate(131.103516 0.015625)" xlink:href="#DejaVuSerif-110"/>
      <use transform="translate(195.507812 0.015625)" xlink:href="#DejaVuSerif-110"/>
      <use transform="translate(259.912109 0.015625)" xlink:href="#DejaVuSerif-101"/>
      <use transform="translate(319.091797 0.015625)" xlink:href="#DejaVuSerif-108"/>
      <use transform="translate(351.074219 0.015625)" xlink:href="#DejaVuSerif-105"/>
      <use transform="translate(383.056641 0.015625)" xlink:href="#DejaVuSerif-110"/>
      <use transform="translate(447.460938 0.015625)" xlink:href="#DejaVuSerif-103"/>
      <use transform="translate(511.474609 0.015625)" xlink:href="#DejaVuSerif-32"/>
      <use transform="translate(543.261719 0.015625)" xlink:href="#Cmmi10-74"/>
      <use transform="translate(598.681641 0.015625)" xlink:href="#Cmmi10-61"/>
      <use transform="translate(648.681641 0.015625)" xlink:href="#Cmmi10-85"/>
     </g>
    </g>
   </g>
   <g id="matplotlib.axis_2">
    <g id="ytick_1">
     <g id="line2d_6">
      <defs>
       <path d="M 0 0 
L 8 0 
" id="m8d19617bba" style="stroke:#000000;stroke-width:0.8;"/>
      </defs>
      <g>
       <use style="stroke:#000000;stroke-width:0.8;" x="73.605" xlink:href="#m8d19617bba" y="261.372088"/>
      </g>
     </g>
     <g id="text_7">
      <!-- 0.0 -->
      <g transform="translate(38.29875 268.970526)scale(0.2 -0.2)">
       <use xlink:href="#DejaVuSerif-48"/>
       <use x="63.623047" xlink:href="#DejaVuSerif-46"/>
       <use x="95.410156" xlink:href="#DejaVuSerif-48"/>
      </g>
     </g>
    </g>
    <g id="ytick_2">
     <g id="line2d_7">
      <g>
       <use style="stroke:#000000;stroke-width:0.8;" x="73.605" xlink:href="#m8d19617bba" y="212.956871"/>
      </g>
     </g>
     <g id="text_8">
      <!-- 0.2 -->
      <g transform="translate(38.29875 220.555308)scale(0.2 -0.2)">
       <use xlink:href="#DejaVuSerif-48"/>
       <use x="63.623047" xlink:href="#DejaVuSerif-46"/>
       <use x="95.410156" xlink:href="#DejaVuSerif-50"/>
      </g>
     </g>
    </g>
    <g id="ytick_3">
     <g id="line2d_8">
      <g>
       <use style="stroke:#000000;stroke-width:0.8;" x="73.605" xlink:href="#m8d19617bba" y="164.541653"/>
      </g>
     </g>
     <g id="text_9">
      <!-- 0.4 -->
      <g transform="translate(38.29875 172.14009)scale(0.2 -0.2)">
       <use xlink:href="#DejaVuSerif-48"/>
       <use x="63.623047" xlink:href="#DejaVuSerif-46"/>
       <use x="95.410156" xlink:href="#DejaVuSerif-52"/>
      </g>
     </g>
    </g>
    <g id="ytick_4">
     <g id="line2d_9">
      <g>
       <use style="stroke:#000000;stroke-width:0.8;" x="73.605" xlink:href="#m8d19617bba" y="116.126435"/>
      </g>
     </g>
     <g id="text_10">
      <!-- 0.6 -->
      <defs>
       <path d="M 32.71875 3.421875 
Q 39.59375 3.421875 43.296875 8.46875 
Q 47.015625 13.53125 47.015625 23 
Q 47.015625 32.46875 43.296875 37.515625 
Q 39.59375 42.578125 32.71875 42.578125 
Q 25.734375 42.578125 22.0625 37.6875 
Q 18.40625 32.8125 18.40625 23.578125 
Q 18.40625 13.875 22.109375 8.640625 
Q 25.828125 3.421875 32.71875 3.421875 
z
M 16.796875 40.140625 
Q 20.125 43.796875 24.3125 45.59375 
Q 28.515625 47.40625 33.796875 47.40625 
Q 44.671875 47.40625 51 40.859375 
Q 57.328125 34.328125 57.328125 23 
Q 57.328125 11.921875 50.515625 5.25 
Q 43.703125 -1.421875 32.328125 -1.421875 
Q 19.96875 -1.421875 13.328125 7.78125 
Q 6.6875 17 6.6875 34.078125 
Q 6.6875 53.21875 14.546875 63.71875 
Q 22.40625 74.21875 36.71875 74.21875 
Q 40.578125 74.21875 44.828125 73.484375 
Q 49.078125 72.75 53.515625 71.296875 
L 53.515625 59.28125 
L 48 59.28125 
Q 47.40625 64.203125 44.234375 66.796875 
Q 41.0625 69.390625 35.6875 69.390625 
Q 26.21875 69.390625 21.578125 62.203125 
Q 16.9375 55.03125 16.796875 40.140625 
z
" id="DejaVuSerif-54"/>
      </defs>
      <g transform="translate(38.29875 123.724873)scale(0.2 -0.2)">
       <use xlink:href="#DejaVuSerif-48"/>
       <use x="63.623047" xlink:href="#DejaVuSerif-46"/>
       <use x="95.410156" xlink:href="#DejaVuSerif-54"/>
      </g>
     </g>
    </g>
    <g id="ytick_5">
     <g id="line2d_10">
      <g>
       <use style="stroke:#000000;stroke-width:0.8;" x="73.605" xlink:href="#m8d19617bba" y="67.711218"/>
      </g>
     </g>
     <g id="text_11">
      <!-- 0.8 -->
      <defs>
       <path d="M 46.578125 19.921875 
Q 46.578125 27.734375 42.6875 32.046875 
Q 38.8125 36.375 31.78125 36.375 
Q 24.75 36.375 20.875 32.046875 
Q 17 27.734375 17 19.921875 
Q 17 12.0625 20.875 7.734375 
Q 24.75 3.421875 31.78125 3.421875 
Q 38.8125 3.421875 42.6875 7.734375 
Q 46.578125 12.0625 46.578125 19.921875 
z
M 44.578125 55.328125 
Q 44.578125 61.96875 41.203125 65.671875 
Q 37.84375 69.390625 31.78125 69.390625 
Q 25.78125 69.390625 22.390625 65.671875 
Q 19 61.96875 19 55.328125 
Q 19 48.640625 22.390625 44.921875 
Q 25.78125 41.21875 31.78125 41.21875 
Q 37.84375 41.21875 41.203125 44.921875 
Q 44.578125 48.640625 44.578125 55.328125 
z
M 39.3125 38.8125 
Q 47.609375 37.703125 52.25 32.6875 
Q 56.890625 27.6875 56.890625 19.921875 
Q 56.890625 9.671875 50.390625 4.125 
Q 43.890625 -1.421875 31.78125 -1.421875 
Q 19.734375 -1.421875 13.203125 4.125 
Q 6.6875 9.671875 6.6875 19.921875 
Q 6.6875 27.6875 11.328125 32.6875 
Q 15.96875 37.703125 24.3125 38.8125 
Q 16.9375 40.140625 13 44.40625 
Q 9.078125 48.6875 9.078125 55.328125 
Q 9.078125 64.109375 15.125 69.15625 
Q 21.1875 74.21875 31.78125 74.21875 
Q 42.390625 74.21875 48.4375 69.15625 
Q 54.5 64.109375 54.5 55.328125 
Q 54.5 48.6875 50.5625 44.40625 
Q 46.625 40.140625 39.3125 38.8125 
z
" id="DejaVuSerif-56"/>
      </defs>
      <g transform="translate(38.29875 75.309655)scale(0.2 -0.2)">
       <use xlink:href="#DejaVuSerif-48"/>
       <use x="63.623047" xlink:href="#DejaVuSerif-46"/>
       <use x="95.410156" xlink:href="#DejaVuSerif-56"/>
      </g>
     </g>
    </g>
    <g id="ytick_6">
     <g id="line2d_11">
      <g>
       <use style="stroke:#000000;stroke-width:0.8;" x="73.605" xlink:href="#m8d19617bba" y="19.296"/>
      </g>
     </g>
     <g id="text_12">
      <!-- 1.0 -->
      <g transform="translate(38.29875 26.894437)scale(0.2 -0.2)">
       <use xlink:href="#DejaVuSerif-49"/>
       <use x="63.623047" xlink:href="#DejaVuSerif-46"/>
       <use x="95.410156" xlink:href="#DejaVuSerif-48"/>
      </g>
     </g>
    </g>
    <g id="text_13">
     <!-- Diff -->
     <defs>
      <path d="M 24.703125 5.171875 
L 33.796875 5.171875 
Q 48 5.171875 55.59375 13.28125 
Q 63.1875 21.390625 63.1875 36.53125 
Q 63.1875 51.65625 55.609375 59.65625 
Q 48.046875 67.671875 33.796875 67.671875 
L 24.703125 67.671875 
z
M 5.515625 0 
L 5.515625 5.171875 
L 14.796875 5.171875 
L 14.796875 67.671875 
L 5.515625 67.671875 
L 5.515625 72.90625 
L 34.515625 72.90625 
Q 53.375 72.90625 63.890625 63.28125 
Q 74.421875 53.65625 74.421875 36.53125 
Q 74.421875 19.34375 63.875 9.671875 
Q 53.328125 0 34.515625 0 
z
" id="DejaVuSerif-68"/>
      <path d="M 43.015625 63.71875 
L 38.28125 63.71875 
Q 38.234375 67.390625 36.203125 69.28125 
Q 34.1875 71.1875 30.328125 71.1875 
Q 25.296875 71.1875 23.234375 68.421875 
Q 21.1875 65.671875 21.1875 58.59375 
L 21.1875 51.90625 
L 35.6875 51.90625 
L 35.6875 46.6875 
L 21.1875 46.6875 
L 21.1875 5.171875 
L 32.71875 5.171875 
L 32.71875 0 
L 3.609375 0 
L 3.609375 5.171875 
L 12.203125 5.171875 
L 12.203125 46.6875 
L 3.609375 46.6875 
L 3.609375 51.90625 
L 12.203125 51.90625 
L 12.203125 58.40625 
Q 12.203125 67.09375 16.71875 71.53125 
Q 21.234375 75.984375 29.984375 75.984375 
Q 33.25 75.984375 36.515625 75.390625 
Q 39.796875 74.8125 43.015625 73.578125 
z
" id="DejaVuSerif-102"/>
     </defs>
     <g transform="translate(28.475625 166.32225)rotate(-90)scale(0.28 -0.28)">
      <use xlink:href="#DejaVuSerif-68"/>
      <use x="80.175781" xlink:href="#DejaVuSerif-105"/>
      <use x="112.158203" xlink:href="#DejaVuSerif-102"/>
      <use x="149.169922" xlink:href="#DejaVuSerif-102"/>
     </g>
    </g>
   </g>
   <g id="line2d_12">
    <path clip-path="url(#pf7b95a9773)" d="M 89.837727 19.296 
L 97.954091 30.142956 
L 106.070455 41.01119 
L 114.186818 52.774851 
L 122.303182 65.585932 
L 130.419545 79.374258 
L 138.535909 93.99113 
L 146.652273 109.238339 
L 154.768636 124.898299 
L 162.885 140.747118 
L 171.001364 156.56953 
L 179.117727 172.159827 
L 187.234091 187.325652 
L 195.350455 201.889225 
L 203.466818 215.689706 
L 211.583182 228.590768 
L 219.699545 240.495047 
L 227.815909 251.360958 
L 235.932273 261.216 
L 244.048636 252.587244 
L 252.165 244.41029 
L 260.281364 236.822045 
L 268.397727 223.531839 
L 276.514091 208.052685 
L 284.630455 192.852866 
L 292.746818 178.186569 
L 300.863182 164.122267 
L 308.979545 150.69662 
L 317.095909 137.376332 
L 325.212273 124.741802 
L 333.328636 112.799071 
L 341.445 101.539704 
L 349.561364 90.943863 
L 357.677727 80.984683 
L 365.794091 70.93236 
L 373.910455 60.842142 
L 382.026818 51.400506 
L 390.143182 42.565017 
L 398.259545 34.295005 
L 406.375909 26.550886 
L 414.492273 19.296 
" style="fill:none;stroke:#e41a1c;stroke-dasharray:14.8,6.4;stroke-dashoffset:0;stroke-opacity:0.7;stroke-width:4;"/>
   </g>
   <g id="line2d_13">
    <path clip-path="url(#pf7b95a9773)" d="M 89.837727 19.296 
L 97.954091 29.157099 
L 106.070455 39.139487 
L 114.186818 50.037766 
L 122.303182 61.998575 
L 130.419545 74.972315 
L 138.535909 88.843182 
L 146.652273 103.457272 
L 154.768636 118.647541 
L 162.885 134.250934 
L 171.001364 150.116839 
L 179.117727 166.109089 
L 187.234091 182.105173 
L 195.350455 197.988876 
L 203.466818 213.641762 
L 211.583182 228.9363 
L 219.699545 243.738772 
L 227.815909 257.921282 
L 235.932273 251.358804 
L 244.048636 238.661699 
L 252.165 226.721341 
L 260.281364 215.47804 
L 268.397727 204.845885 
L 276.514091 194.737523 
L 284.630455 185.081599 
L 292.746818 174.797262 
L 300.863182 159.919659 
L 308.979545 145.774561 
L 317.095909 132.084389 
L 325.212273 119.112448 
L 333.328636 106.89792 
L 341.445 95.420694 
L 349.561364 84.650821 
L 357.677727 74.551622 
L 365.794091 65.083229 
L 373.910455 56.204576 
L 382.026818 47.875094 
L 390.143182 40.055537 
L 398.259545 32.708703 
L 406.375909 25.799644 
L 414.492273 19.296 
" style="fill:none;stroke:#e41a1c;stroke-dasharray:14.8,6.4;stroke-dashoffset:0;stroke-opacity:0.7;stroke-width:4;"/>
   </g>
   <g id="line2d_14">
    <path clip-path="url(#pf7b95a9773)" d="M 89.837727 19.296 
L 97.954091 28.204496 
L 106.070455 37.287121 
L 114.186818 47.261371 
L 122.303182 58.266031 
L 130.419545 70.265771 
L 138.535909 83.169411 
L 146.652273 96.856254 
L 154.768636 111.197224 
L 162.885 126.074047 
L 171.001364 141.384526 
L 179.117727 157.04654 
L 187.234091 172.994428 
L 195.350455 189.170179 
L 203.466818 205.507371 
L 211.583182 221.914759 
L 219.699545 238.264259 
L 227.815909 254.392562 
L 235.932273 252.623298 
L 244.048636 237.456998 
L 252.165 222.967354 
L 260.281364 209.207919 
L 268.397727 196.178649 
L 276.514091 183.847487 
L 284.630455 172.171558 
L 292.746818 161.110968 
L 300.863182 150.633867 
L 308.979545 140.714384 
L 317.095909 131.039659 
L 325.212273 118.090016 
L 333.328636 105.934967 
L 341.445 94.543611 
L 349.561364 83.876265 
L 357.677727 73.88863 
L 365.794091 64.534474 
L 373.910455 55.768234 
L 382.026818 47.545564 
L 390.143182 39.824494 
L 398.259545 32.566224 
L 406.375909 25.734458 
L 414.492273 19.296 
" style="fill:none;stroke:#e41a1c;stroke-dasharray:14.8,6.4;stroke-dashoffset:0;stroke-opacity:0.7;stroke-width:4;"/>
   </g>
   <g id="line2d_15">
    <path clip-path="url(#pf7b95a9773)" d="M 89.837727 19.296 
L 97.954091 27.440961 
L 106.070455 35.78828 
L 114.186818 44.99437 
L 122.303182 55.190338 
L 130.419545 66.350803 
L 138.535909 78.402049 
L 146.652273 91.246566 
L 154.768636 104.782774 
L 162.885 118.923283 
L 171.001364 133.600655 
L 179.117727 148.770949 
L 187.234091 164.411503 
L 195.350455 180.510396 
L 203.466818 197.048993 
L 211.583182 213.978662 
L 219.699545 231.197836 
L 227.815909 248.540068 
L 235.932273 256.96061 
L 244.048636 240.059449 
L 252.165 223.71986 
L 260.281364 208.099487 
L 268.397727 193.282632 
L 276.514091 179.292926 
L 284.630455 166.116454 
L 292.746818 153.722415 
L 300.863182 142.074241 
L 308.979545 131.13434 
L 317.095909 120.864682 
L 325.212273 111.226923 
L 333.328636 102.182289 
L 341.445 93.640715 
L 349.561364 83.087214 
L 357.677727 73.218203 
L 365.794091 63.982255 
L 373.910455 55.329908 
L 382.026818 47.214237 
L 390.143182 39.591607 
L 398.259545 32.421668 
L 406.375909 25.667696 
L 414.492273 19.296 
" style="fill:none;stroke:#e41a1c;stroke-dasharray:14.8,6.4;stroke-dashoffset:0;stroke-opacity:0.7;stroke-width:4;"/>
   </g>
   <g id="line2d_16">
    <path clip-path="url(#pf7b95a9773)" d="M 89.837727 19.296 
L 97.954091 26.827225 
L 106.070455 34.576419 
L 114.186818 43.150741 
L 122.303182 52.674544 
L 130.419545 63.129307 
L 138.535909 74.454083 
L 146.652273 86.568413 
L 154.768636 99.390271 
L 162.885 112.854869 
L 171.001364 126.919496 
L 179.117727 141.56797 
L 187.234091 156.809065 
L 195.350455 172.666709 
L 203.466818 189.16228 
L 211.583182 206.288202 
L 219.699545 223.977586 
L 227.815909 242.079914 
L 235.932273 260.357436 
L 244.048636 244.231855 
L 252.165 226.503292 
L 260.281364 209.452842 
L 268.397727 193.246467 
L 276.514091 177.964139 
L 284.630455 163.621613 
L 292.746818 150.197664 
L 300.863182 137.652114 
L 308.979545 125.936377 
L 317.095909 114.998385 
L 325.212273 104.784924 
L 333.328636 95.242959 
L 341.445 86.320999 
L 349.561364 77.969771 
L 357.677727 70.143045 
L 365.794091 62.797823 
L 373.910455 54.967787 
L 382.026818 46.940619 
L 390.143182 39.399114 
L 398.259545 32.302146 
L 406.375909 25.612366 
L 414.492273 19.296 
" style="fill:none;stroke:#e41a1c;stroke-dasharray:14.8,6.4;stroke-dashoffset:0;stroke-opacity:0.7;stroke-width:4;"/>
   </g>
   <g id="line2d_17">
    <path clip-path="url(#pf7b95a9773)" d="M 89.837727 19.296 
L 97.954091 24.040947 
L 106.070455 29.002474 
L 114.186818 34.563866 
L 122.303182 40.811927 
L 130.419545 47.749965 
L 138.535909 55.35908 
L 146.652273 63.614222 
L 154.768636 72.500053 
L 162.885 82.020576 
L 171.001364 92.207047 
L 179.117727 103.124347 
L 187.234091 114.873454 
L 195.350455 127.590988 
L 203.466818 141.442052 
L 211.583182 156.605263 
L 219.699545 173.245361 
L 227.815909 191.470174 
L 235.932273 211.269194 
L 244.048636 232.441193 
L 252.165 254.541809 
L 260.281364 245.834565 
L 268.397727 223.937614 
L 276.514091 203.126972 
L 284.630455 183.769536 
L 292.746818 165.988937 
L 300.863182 149.748948 
L 308.979545 134.934819 
L 317.095909 121.404656 
L 325.212273 109.015398 
L 333.328636 97.633383 
L 341.445 87.13937 
L 349.561364 77.428791 
L 357.677727 68.41095 
L 365.794091 60.007633 
L 373.910455 52.151463 
L 382.026818 44.784326 
L 390.143182 37.856027 
L 398.259545 31.323007 
L 406.375909 25.147404 
L 414.492273 19.296 
" style="fill:none;stroke:#377eb8;stroke-dasharray:14.8,6.4;stroke-dashoffset:0;stroke-opacity:0.7;stroke-width:4;"/>
   </g>
   <g id="line2d_18">
    <path clip-path="url(#pf7b95a9773)" d="M 89.837727 19.296 
L 97.954091 23.533226 
L 106.070455 27.976813 
L 114.186818 32.968962 
L 122.303182 38.588922 
L 130.419545 44.841944 
L 138.535909 51.714564 
L 146.652273 59.189222 
L 154.768636 67.258124 
L 162.885 75.933119 
L 171.001364 85.252541 
L 179.117727 95.288161 
L 187.234091 106.148567 
L 195.350455 117.979843 
L 203.466818 130.961897 
L 211.583182 145.297649 
L 219.699545 161.192144 
L 227.815909 178.817269 
L 235.932273 198.255918 
L 244.048636 219.422967 
L 252.165 241.976121 
L 260.281364 257.473043 
L 268.397727 234.294743 
L 276.514091 212.065333 
L 284.630455 191.349215 
L 292.746818 172.375933 
L 300.863182 155.132879 
L 308.979545 139.48756 
L 317.095909 125.268037 
L 325.212273 112.302207 
L 333.328636 100.431463 
L 341.445 89.516564 
L 349.561364 79.438329 
L 357.677727 70.093878 
L 365.794091 61.395728 
L 373.910455 53.269832 
L 382.026818 45.652871 
L 390.143182 38.490596 
L 398.259545 31.736319 
L 406.375909 25.349698 
L 414.492273 19.296 
" style="fill:none;stroke:#377eb8;stroke-dasharray:14.8,6.4;stroke-dashoffset:0;stroke-opacity:0.7;stroke-width:4;"/>
   </g>
   <g id="line2d_19">
    <path clip-path="url(#pf7b95a9773)" d="M 89.837727 19.296 
L 97.954091 23.196052 
L 106.070455 27.293989 
L 114.186818 31.903997 
L 122.303182 37.100841 
L 130.419545 42.890598 
L 138.535909 49.262829 
L 146.652273 56.2041 
L 154.768636 63.711266 
L 162.885 71.799815 
L 171.001364 80.511708 
L 179.117727 89.921452 
L 187.234091 100.14019 
L 195.350455 111.31758 
L 203.466818 123.639603 
L 211.583182 137.320856 
L 219.699545 152.588274 
L 227.815909 169.652081 
L 235.932273 188.657701 
L 244.048636 209.610997 
L 252.165 232.276556 
L 260.281364 256.083214 
L 268.397727 242.607897 
L 276.514091 219.303193 
L 284.630455 197.505786 
L 292.746818 177.567565 
L 300.863182 159.511538 
L 308.979545 143.194102 
L 317.095909 128.41823 
L 325.212273 114.987409 
L 333.328636 102.722363 
L 341.445 91.467346 
L 349.561364 81.091163 
L 357.677727 71.469481 
L 365.794091 62.531881 
L 373.910455 54.186431 
L 382.026818 46.365335 
L 390.143182 39.011597 
L 398.259545 32.076067 
L 406.375909 25.515922 
L 414.492273 19.296 
" style="fill:none;stroke:#377eb8;stroke-dasharray:14.8,6.4;stroke-dashoffset:0;stroke-opacity:0.7;stroke-width:4;"/>
   </g>
   <g id="line2d_20">
    <path clip-path="url(#pf7b95a9773)" d="M 89.837727 19.296 
L 97.954091 22.953088 
L 106.070455 26.800703 
L 114.186818 31.134602 
L 122.303182 36.022426 
L 130.419545 41.473851 
L 138.535909 47.479655 
L 146.652273 54.028848 
L 154.768636 61.121016 
L 162.885 68.774002 
L 171.001364 77.031459 
L 179.117727 85.96894 
L 187.234091 95.698136 
L 195.350455 106.369647 
L 203.466818 118.171751 
L 211.583182 131.324727 
L 219.699545 146.067935 
L 227.815909 162.635671 
L 235.932273 181.215727 
L 244.048636 201.881806 
L 252.165 224.491869 
L 260.281364 248.5659 
L 268.397727 249.515194 
L 276.514091 225.366229 
L 284.630455 202.671845 
L 292.746818 181.917814 
L 300.863182 163.173488 
L 308.979545 146.289748 
L 317.095909 131.047115 
L 325.212273 117.226758 
L 333.328636 104.631674 
L 341.445 93.092492 
L 349.561364 82.466284 
L 357.677727 72.633216 
L 365.794091 63.493023 
L 373.910455 54.961541 
L 382.026818 46.967883 
L 390.143182 39.452021 
L 398.259545 32.36289 
L 406.375909 25.656746 
L 414.492273 19.296 
" style="fill:none;stroke:#377eb8;stroke-dasharray:14.8,6.4;stroke-dashoffset:0;stroke-opacity:0.7;stroke-width:4;"/>
   </g>
   <g id="line2d_21">
    <path clip-path="url(#pf7b95a9773)" d="M 89.837727 19.296 
L 97.954091 22.766587 
L 106.070455 26.42153 
L 114.186818 30.541432 
L 122.303182 35.191102 
L 130.419545 40.380382 
L 138.535909 46.101241 
L 146.652273 52.344791 
L 154.768636 59.112263 
L 162.885 66.423147 
L 171.001364 74.321591 
L 179.117727 82.88356 
L 187.234091 92.220288 
L 195.350455 102.482035 
L 203.466818 113.857442 
L 211.583182 126.56923 
L 219.699545 140.864027 
L 227.815909 156.991603 
L 235.932273 175.16924 
L 244.048636 195.521223 
L 252.165 217.982414 
L 260.281364 242.164476 
L 268.397727 255.498339 
L 276.514091 230.680919 
L 284.630455 207.226549 
L 292.746818 185.761743 
L 300.863182 166.412129 
L 308.979545 149.01836 
L 317.095909 133.363736 
L 325.212273 119.200642 
L 333.328636 106.313873 
L 341.445 94.525003 
L 349.561364 83.680482 
L 357.677727 73.650391 
L 365.794091 64.334291 
L 373.910455 55.640852 
L 382.026818 47.49598 
L 390.143182 39.837613 
L 398.259545 32.613752 
L 406.375909 25.779726 
L 414.492273 19.296 
" style="fill:none;stroke:#377eb8;stroke-dasharray:14.8,6.4;stroke-dashoffset:0;stroke-opacity:0.7;stroke-width:4;"/>
   </g>
   <g id="line2d_22">
    <path clip-path="url(#pf7b95a9773)" d="M 89.837727 19.296 
L 97.954091 21.64502 
L 106.070455 24.130456 
L 114.186818 26.942448 
L 122.303182 30.126216 
L 130.419545 33.690646 
L 138.535909 37.633307 
L 146.652273 41.952893 
L 154.768636 46.655891 
L 162.885 51.763273 
L 171.001364 57.315295 
L 179.117727 63.376879 
L 187.234091 70.041829 
L 195.350455 77.436781 
L 203.466818 85.723817 
L 211.583182 95.102277 
L 219.699545 105.808693 
L 227.815909 118.11401 
L 235.932273 132.317625 
L 244.048636 148.734811 
L 252.165 167.673895 
L 260.281364 189.390813 
L 268.397727 213.99455 
L 276.514091 241.235708 
L 284.630455 252.662366 
L 292.746818 224.31829 
L 300.863182 198.517542 
L 308.979545 175.827439 
L 317.095909 155.905411 
L 325.212273 138.2686 
L 333.328636 122.501091 
L 341.445 108.262848 
L 349.561364 95.290953 
L 357.677727 83.377722 
L 365.794091 72.361338 
L 373.910455 62.112051 
L 382.026818 52.523344 
L 390.143182 43.509816 
L 398.259545 35.004468 
L 406.375909 26.949864 
L 414.492273 19.296 
" style="fill:none;stroke:#4daf4a;stroke-dasharray:14.8,6.4;stroke-dashoffset:0;stroke-opacity:0.7;stroke-width:4;"/>
   </g>
   <g id="line2d_23">
    <path clip-path="url(#pf7b95a9773)" d="M 89.837727 19.296 
L 97.954091 21.498606 
L 106.070455 23.830078 
L 114.186818 26.468769 
L 122.303182 29.45711 
L 130.419545 32.803513 
L 138.535909 36.506041 
L 146.652273 40.56378 
L 154.768636 44.98336 
L 162.885 49.784893 
L 171.001364 55.007032 
L 179.117727 60.71181 
L 187.234091 66.988569 
L 195.350455 73.958109 
L 203.466818 81.775215 
L 211.583182 90.630808 
L 219.699545 100.752443 
L 227.815909 112.402905 
L 235.932273 125.876588 
L 244.048636 141.490855 
L 252.165 159.571174 
L 260.281364 180.421052 
L 268.397727 204.257783 
L 276.514091 231.057022 
L 284.630455 260.166682 
L 292.746818 233.060838 
L 300.863182 205.737214 
L 308.979545 181.737723 
L 317.095909 160.79253 
L 325.212273 142.350929 
L 333.328636 125.935433 
L 341.445 111.159591 
L 349.561364 97.727749 
L 357.677727 85.409622 
L 365.794091 74.034896 
L 373.910455 63.458354 
L 382.026818 53.566435 
L 390.143182 44.271242 
L 398.259545 35.499042 
L 406.375909 27.190895 
L 414.492273 19.296 
" style="fill:none;stroke:#4daf4a;stroke-dasharray:14.8,6.4;stroke-dashoffset:0;stroke-opacity:0.7;stroke-width:4;"/>
   </g>
   <g id="line2d_24">
    <path clip-path="url(#pf7b95a9773)" d="M 89.837727 19.296 
L 97.954091 21.39775 
L 106.070455 23.623038 
L 114.186818 26.141926 
L 122.303182 28.995058 
L 130.419545 32.190489 
L 138.535909 35.726626 
L 146.652273 39.602541 
L 154.768636 43.825055 
L 162.885 48.413541 
L 171.001364 53.405535 
L 179.117727 58.8606 
L 187.234091 64.864973 
L 195.350455 71.53492 
L 203.466818 79.019817 
L 211.583182 87.503961 
L 219.699545 97.207801 
L 227.815909 108.386985 
L 235.932273 121.330041 
L 244.048636 136.352185 
L 252.165 153.785012 
L 260.281364 173.955208 
L 268.397727 197.139522 
L 276.514091 223.448996 
L 284.630455 252.506776 
L 292.746818 240.024244 
L 300.863182 211.532058 
L 308.979545 186.472394 
L 317.095909 164.703384 
L 325.212273 145.625073 
L 333.328636 128.701769 
L 341.445 113.515057 
L 349.561364 99.595 
L 357.677727 86.973997 
L 365.794091 75.334245 
L 373.910455 64.511338 
L 382.026818 54.396487 
L 390.143182 44.88092 
L 398.259545 35.893054 
L 406.375909 27.375243 
L 414.492273 19.296 
" style="fill:none;stroke:#4daf4a;stroke-dasharray:14.8,6.4;stroke-dashoffset:0;stroke-opacity:0.7;stroke-width:4;"/>
   </g>
   <g id="line2d_25">
    <path clip-path="url(#pf7b95a9773)" d="M 89.837727 19.296 
L 97.954091 21.323196 
L 106.070455 23.469779 
L 114.186818 25.899949 
L 122.303182 28.652837 
L 130.419545 31.736244 
L 138.535909 35.148754 
L 146.652273 38.889667 
L 154.768636 42.965574 
L 162.885 47.395506 
L 171.001364 52.215765 
L 179.117727 57.484426 
L 187.234091 63.284993 
L 195.350455 69.730353 
L 203.466818 76.965573 
L 211.583182 85.169886 
L 219.699545 94.557749 
L 227.815909 105.378999 
L 235.932273 117.916595 
L 244.048636 132.482642 
L 252.165 149.410193 
L 260.281364 169.038639 
L 268.397727 191.680472 
L 276.514091 217.53457 
L 284.630455 246.421114 
L 292.746818 245.688679 
L 300.863182 216.256482 
L 308.979545 190.284589 
L 317.095909 167.80343 
L 325.212273 148.186103 
L 333.328636 130.714626 
L 341.445 115.196637 
L 349.561364 101.128467 
L 357.677727 88.247009 
L 365.794091 76.359333 
L 373.910455 65.305053 
L 382.026818 55.03664 
L 390.143182 45.349531 
L 398.259545 36.217379 
L 406.375909 27.562305 
L 414.492273 19.296 
" style="fill:none;stroke:#4daf4a;stroke-dasharray:14.8,6.4;stroke-dashoffset:0;stroke-opacity:0.7;stroke-width:4;"/>
   </g>
   <g id="line2d_26">
    <path clip-path="url(#pf7b95a9773)" d="M 89.837727 19.296 
L 97.954091 21.264767 
L 106.070455 23.349736 
L 114.186818 25.710224 
L 122.303182 28.384496 
L 130.419545 31.379979 
L 138.535909 34.695351 
L 146.652273 38.330118 
L 154.768636 42.290689 
L 162.885 46.595804 
L 171.001364 51.280804 
L 179.117727 56.402363 
L 187.234091 62.041933 
L 195.350455 68.3097 
L 203.466818 75.347085 
L 211.583182 83.329114 
L 219.699545 92.465506 
L 227.815909 103.00096 
L 235.932273 115.213548 
L 244.048636 129.411694 
L 252.165 145.928248 
L 260.281364 165.109445 
L 268.397727 187.291079 
L 276.514091 212.73199 
L 284.630455 241.396968 
L 292.746818 250.469292 
L 300.863182 220.270472 
L 308.979545 193.490296 
L 317.095909 170.381025 
L 325.212273 150.164511 
L 333.328636 132.454817 
L 341.445 116.631629 
L 349.561364 102.32135 
L 357.677727 89.223881 
L 365.794091 77.125606 
L 373.910455 65.893031 
L 382.026818 55.429325 
L 390.143182 45.650352 
L 398.259545 36.33785 
L 406.375909 27.529255 
L 414.492273 19.296 
" style="fill:none;stroke:#4daf4a;stroke-dasharray:14.8,6.4;stroke-dashoffset:0;stroke-opacity:0.7;stroke-width:4;"/>
   </g>
   <g id="patch_3">
    <path d="M 73.605 273.312 
L 73.605 7.2 
" style="fill:none;stroke:#000000;stroke-linecap:square;stroke-linejoin:miter;stroke-width:0.8;"/>
   </g>
   <g id="patch_4">
    <path d="M 430.725 273.312 
L 430.725 7.2 
" style="fill:none;stroke:#000000;stroke-linecap:square;stroke-linejoin:miter;stroke-width:0.8;"/>
   </g>
   <g id="patch_5">
    <path d="M 73.605 273.312 
L 430.725 273.312 
" style="fill:none;stroke:#000000;stroke-linecap:square;stroke-linejoin:miter;stroke-width:0.8;"/>
   </g>
   <g id="patch_6">
    <path d="M 73.605 7.2 
L 430.725 7.2 
" style="fill:none;stroke:#000000;stroke-linecap:square;stroke-linejoin:miter;stroke-width:0.8;"/>
   </g>
  </g>
 </g>
 <defs>
  <clipPath id="pf7b95a9773">
   <rect height="266.112" width="357.12" x="73.605" y="7.2"/>
  </clipPath>
 </defs>
</svg>
