<?xml version="1.0" encoding="utf-8" standalone="no"?>
<!DOCTYPE svg PUBLIC "-//W3C//DTD SVG 1.1//EN"
  "http://www.w3.org/Graphics/SVG/1.1/DTD/svg11.dtd">
<!-- Created with matplotlib (https://matplotlib.org/) -->
<svg height="316.710125pt" version="1.1" viewBox="0 0 413.908125 316.710125" width="413.908125pt" xmlns="http://www.w3.org/2000/svg" xmlns:xlink="http://www.w3.org/1999/xlink">
 <defs>
  <style type="text/css">
*{stroke-linecap:butt;stroke-linejoin:round;}
  </style>
 </defs>
 <g id="figure_1">
  <g id="patch_1">
   <path d="M 0 316.710125 
L 413.908125 316.710125 
L 413.908125 0 
L 0 0 
z
" style="fill:#ffffff;"/>
  </g>
  <g id="axes_1">
   <g id="patch_2">
    <path d="M 49.588125 273.312 
L 406.708125 273.312 
L 406.708125 7.2 
L 49.588125 7.2 
z
" style="fill:#ffffff;"/>
   </g>
   <g id="PathCollection_1">
    <defs>
     <path d="M 0 3.872983 
C 1.027127 3.872983 2.012324 3.464901 2.738613 2.738613 
C 3.464901 2.012324 3.872983 1.027127 3.872983 0 
C 3.872983 -1.027127 3.464901 -2.012324 2.738613 -2.738613 
C 2.012324 -3.464901 1.027127 -3.872983 0 -3.872983 
C -1.027127 -3.872983 -2.012324 -3.464901 -2.738613 -2.738613 
C -3.464901 -2.012324 -3.872983 -1.027127 -3.872983 0 
C -3.872983 1.027127 -3.464901 2.012324 -2.738613 2.738613 
C -2.012324 3.464901 -1.027127 3.872983 0 3.872983 
z
" id="mbd2bea7519" style="stroke:#000000;stroke-opacity:0.7;"/>
    </defs>
    <g clip-path="url(#pe7e2b04137)">
     <use style="fill:#0072b2;fill-opacity:0.7;stroke:#000000;stroke-opacity:0.7;" x="68.6094" xlink:href="#mbd2bea7519" y="258.427452"/>
     <use style="fill:#0072b2;fill-opacity:0.7;stroke:#000000;stroke-opacity:0.7;" x="76.586337" xlink:href="#mbd2bea7519" y="257.74917"/>
     <use style="fill:#0072b2;fill-opacity:0.7;stroke:#000000;stroke-opacity:0.7;" x="84.563273" xlink:href="#mbd2bea7519" y="257.050552"/>
     <use style="fill:#0072b2;fill-opacity:0.7;stroke:#000000;stroke-opacity:0.7;" x="92.540209" xlink:href="#mbd2bea7519" y="256.213548"/>
     <use style="fill:#0072b2;fill-opacity:0.7;stroke:#000000;stroke-opacity:0.7;" x="100.517145" xlink:href="#mbd2bea7519" y="254.820297"/>
     <use style="fill:#0072b2;fill-opacity:0.7;stroke:#000000;stroke-opacity:0.7;" x="108.494081" xlink:href="#mbd2bea7519" y="252.728799"/>
     <use style="fill:#0072b2;fill-opacity:0.7;stroke:#000000;stroke-opacity:0.7;" x="116.471018" xlink:href="#mbd2bea7519" y="249.779154"/>
     <use style="fill:#0072b2;fill-opacity:0.7;stroke:#000000;stroke-opacity:0.7;" x="124.447954" xlink:href="#mbd2bea7519" y="245.78904"/>
     <use style="fill:#0072b2;fill-opacity:0.7;stroke:#000000;stroke-opacity:0.7;" x="132.42489" xlink:href="#mbd2bea7519" y="240.55024"/>
     <use style="fill:#0072b2;fill-opacity:0.7;stroke:#000000;stroke-opacity:0.7;" x="140.401826" xlink:href="#mbd2bea7519" y="233.82476"/>
     <use style="fill:#0072b2;fill-opacity:0.7;stroke:#000000;stroke-opacity:0.7;" x="148.378763" xlink:href="#mbd2bea7519" y="225.339032"/>
     <use style="fill:#0072b2;fill-opacity:0.7;stroke:#000000;stroke-opacity:0.7;" x="156.355699" xlink:href="#mbd2bea7519" y="215.465873"/>
     <use style="fill:#0072b2;fill-opacity:0.7;stroke:#000000;stroke-opacity:0.7;" x="164.332635" xlink:href="#mbd2bea7519" y="206.485095"/>
     <use style="fill:#0072b2;fill-opacity:0.7;stroke:#000000;stroke-opacity:0.7;" x="172.309571" xlink:href="#mbd2bea7519" y="195.726066"/>
     <use style="fill:#0072b2;fill-opacity:0.7;stroke:#000000;stroke-opacity:0.7;" x="180.286508" xlink:href="#mbd2bea7519" y="181.62555"/>
     <use style="fill:#0072b2;fill-opacity:0.7;stroke:#000000;stroke-opacity:0.7;" x="188.263444" xlink:href="#mbd2bea7519" y="165.265996"/>
     <use style="fill:#0072b2;fill-opacity:0.7;stroke:#000000;stroke-opacity:0.7;" x="196.24038" xlink:href="#mbd2bea7519" y="144.967064"/>
     <use style="fill:#0072b2;fill-opacity:0.7;stroke:#000000;stroke-opacity:0.7;" x="204.217316" xlink:href="#mbd2bea7519" y="121.412415"/>
     <use style="fill:#0072b2;fill-opacity:0.7;stroke:#000000;stroke-opacity:0.7;" x="212.194253" xlink:href="#mbd2bea7519" y="99.228836"/>
     <use style="fill:#0072b2;fill-opacity:0.7;stroke:#000000;stroke-opacity:0.7;" x="220.171189" xlink:href="#mbd2bea7519" y="83.259768"/>
     <use style="fill:#0072b2;fill-opacity:0.7;stroke:#000000;stroke-opacity:0.7;" x="228.148125" xlink:href="#mbd2bea7519" y="71.897657"/>
     <use style="fill:#0072b2;fill-opacity:0.7;stroke:#000000;stroke-opacity:0.7;" x="236.125061" xlink:href="#mbd2bea7519" y="63.545814"/>
     <use style="fill:#0072b2;fill-opacity:0.7;stroke:#000000;stroke-opacity:0.7;" x="244.101997" xlink:href="#mbd2bea7519" y="57.166391"/>
     <use style="fill:#0072b2;fill-opacity:0.7;stroke:#000000;stroke-opacity:0.7;" x="252.078934" xlink:href="#mbd2bea7519" y="52.116874"/>
     <use style="fill:#0072b2;fill-opacity:0.7;stroke:#000000;stroke-opacity:0.7;" x="260.05587" xlink:href="#mbd2bea7519" y="47.998883"/>
     <use style="fill:#0072b2;fill-opacity:0.7;stroke:#000000;stroke-opacity:0.7;" x="268.032806" xlink:href="#mbd2bea7519" y="44.558264"/>
     <use style="fill:#0072b2;fill-opacity:0.7;stroke:#000000;stroke-opacity:0.7;" x="276.009742" xlink:href="#mbd2bea7519" y="41.626958"/>
     <use style="fill:#0072b2;fill-opacity:0.7;stroke:#000000;stroke-opacity:0.7;" x="283.986679" xlink:href="#mbd2bea7519" y="39.089834"/>
     <use style="fill:#0072b2;fill-opacity:0.7;stroke:#000000;stroke-opacity:0.7;" x="291.963615" xlink:href="#mbd2bea7519" y="36.865436"/>
     <use style="fill:#0072b2;fill-opacity:0.7;stroke:#000000;stroke-opacity:0.7;" x="299.940551" xlink:href="#mbd2bea7519" y="34.894429"/>
     <use style="fill:#0072b2;fill-opacity:0.7;stroke:#000000;stroke-opacity:0.7;" x="307.917487" xlink:href="#mbd2bea7519" y="33.132466"/>
     <use style="fill:#0072b2;fill-opacity:0.7;stroke:#000000;stroke-opacity:0.7;" x="315.894424" xlink:href="#mbd2bea7519" y="31.545629"/>
     <use style="fill:#0072b2;fill-opacity:0.7;stroke:#000000;stroke-opacity:0.7;" x="323.87136" xlink:href="#mbd2bea7519" y="30.107462"/>
     <use style="fill:#0072b2;fill-opacity:0.7;stroke:#000000;stroke-opacity:0.7;" x="331.848296" xlink:href="#mbd2bea7519" y="28.796935"/>
     <use style="fill:#0072b2;fill-opacity:0.7;stroke:#000000;stroke-opacity:0.7;" x="339.825232" xlink:href="#mbd2bea7519" y="27.597073"/>
     <use style="fill:#0072b2;fill-opacity:0.7;stroke:#000000;stroke-opacity:0.7;" x="347.802169" xlink:href="#mbd2bea7519" y="26.493976"/>
     <use style="fill:#0072b2;fill-opacity:0.7;stroke:#000000;stroke-opacity:0.7;" x="355.779105" xlink:href="#mbd2bea7519" y="25.47613"/>
     <use style="fill:#0072b2;fill-opacity:0.7;stroke:#000000;stroke-opacity:0.7;" x="363.756041" xlink:href="#mbd2bea7519" y="24.533866"/>
     <use style="fill:#0072b2;fill-opacity:0.7;stroke:#000000;stroke-opacity:0.7;" x="371.732977" xlink:href="#mbd2bea7519" y="23.659006"/>
     <use style="fill:#0072b2;fill-opacity:0.7;stroke:#000000;stroke-opacity:0.7;" x="379.709913" xlink:href="#mbd2bea7519" y="22.844572"/>
     <use style="fill:#0072b2;fill-opacity:0.7;stroke:#000000;stroke-opacity:0.7;" x="387.68685" xlink:href="#mbd2bea7519" y="22.084548"/>
    </g>
   </g>
   <g id="PathCollection_2">
    <defs>
     <path d="M 0 3.872983 
C 1.027127 3.872983 2.012324 3.464901 2.738613 2.738613 
C 3.464901 2.012324 3.872983 1.027127 3.872983 0 
C 3.872983 -1.027127 3.464901 -2.012324 2.738613 -2.738613 
C 2.012324 -3.464901 1.027127 -3.872983 0 -3.872983 
C -1.027127 -3.872983 -2.012324 -3.464901 -2.738613 -2.738613 
C -3.464901 -2.012324 -3.872983 -1.027127 -3.872983 0 
C -3.872983 1.027127 -3.464901 2.012324 -2.738613 2.738613 
C -2.012324 3.464901 -1.027127 3.872983 0 3.872983 
z
" id="mf12c4c6b0a" style="stroke:#000000;stroke-opacity:0.7;"/>
    </defs>
    <g clip-path="url(#pe7e2b04137)">
     <use style="fill:#009e73;fill-opacity:0.7;stroke:#000000;stroke-opacity:0.7;" x="68.6094" xlink:href="#mf12c4c6b0a" y="258.427452"/>
     <use style="fill:#009e73;fill-opacity:0.7;stroke:#000000;stroke-opacity:0.7;" x="76.586337" xlink:href="#mf12c4c6b0a" y="257.999519"/>
     <use style="fill:#009e73;fill-opacity:0.7;stroke:#000000;stroke-opacity:0.7;" x="84.563273" xlink:href="#mf12c4c6b0a" y="257.359816"/>
     <use style="fill:#009e73;fill-opacity:0.7;stroke:#000000;stroke-opacity:0.7;" x="92.540209" xlink:href="#mf12c4c6b0a" y="256.778218"/>
     <use style="fill:#009e73;fill-opacity:0.7;stroke:#000000;stroke-opacity:0.7;" x="100.517145" xlink:href="#mf12c4c6b0a" y="255.868811"/>
     <use style="fill:#009e73;fill-opacity:0.7;stroke:#000000;stroke-opacity:0.7;" x="108.494081" xlink:href="#mf12c4c6b0a" y="254.502964"/>
     <use style="fill:#009e73;fill-opacity:0.7;stroke:#000000;stroke-opacity:0.7;" x="116.471018" xlink:href="#mf12c4c6b0a" y="252.574194"/>
     <use style="fill:#009e73;fill-opacity:0.7;stroke:#000000;stroke-opacity:0.7;" x="124.447954" xlink:href="#mf12c4c6b0a" y="249.96105"/>
     <use style="fill:#009e73;fill-opacity:0.7;stroke:#000000;stroke-opacity:0.7;" x="132.42489" xlink:href="#mf12c4c6b0a" y="246.525249"/>
     <use style="fill:#009e73;fill-opacity:0.7;stroke:#000000;stroke-opacity:0.7;" x="140.401826" xlink:href="#mf12c4c6b0a" y="242.109462"/>
     <use style="fill:#009e73;fill-opacity:0.7;stroke:#000000;stroke-opacity:0.7;" x="148.378763" xlink:href="#mf12c4c6b0a" y="236.917395"/>
     <use style="fill:#009e73;fill-opacity:0.7;stroke:#000000;stroke-opacity:0.7;" x="156.355699" xlink:href="#mf12c4c6b0a" y="230.787514"/>
     <use style="fill:#009e73;fill-opacity:0.7;stroke:#000000;stroke-opacity:0.7;" x="164.332635" xlink:href="#mf12c4c6b0a" y="225.241726"/>
     <use style="fill:#009e73;fill-opacity:0.7;stroke:#000000;stroke-opacity:0.7;" x="172.309571" xlink:href="#mf12c4c6b0a" y="218.511535"/>
     <use style="fill:#009e73;fill-opacity:0.7;stroke:#000000;stroke-opacity:0.7;" x="180.286508" xlink:href="#mf12c4c6b0a" y="209.55748"/>
     <use style="fill:#009e73;fill-opacity:0.7;stroke:#000000;stroke-opacity:0.7;" x="188.263444" xlink:href="#mf12c4c6b0a" y="199.036771"/>
     <use style="fill:#009e73;fill-opacity:0.7;stroke:#000000;stroke-opacity:0.7;" x="196.24038" xlink:href="#mf12c4c6b0a" y="186.829498"/>
     <use style="fill:#009e73;fill-opacity:0.7;stroke:#000000;stroke-opacity:0.7;" x="204.217316" xlink:href="#mf12c4c6b0a" y="161.087927"/>
     <use style="fill:#009e73;fill-opacity:0.7;stroke:#000000;stroke-opacity:0.7;" x="212.194253" xlink:href="#mf12c4c6b0a" y="119.164015"/>
     <use style="fill:#009e73;fill-opacity:0.7;stroke:#000000;stroke-opacity:0.7;" x="220.171189" xlink:href="#mf12c4c6b0a" y="92.377881"/>
     <use style="fill:#009e73;fill-opacity:0.7;stroke:#000000;stroke-opacity:0.7;" x="228.148125" xlink:href="#mf12c4c6b0a" y="76.625625"/>
     <use style="fill:#009e73;fill-opacity:0.7;stroke:#000000;stroke-opacity:0.7;" x="236.125061" xlink:href="#mf12c4c6b0a" y="66.250118"/>
     <use style="fill:#009e73;fill-opacity:0.7;stroke:#000000;stroke-opacity:0.7;" x="244.101997" xlink:href="#mf12c4c6b0a" y="58.801478"/>
     <use style="fill:#009e73;fill-opacity:0.7;stroke:#000000;stroke-opacity:0.7;" x="252.078934" xlink:href="#mf12c4c6b0a" y="53.129893"/>
     <use style="fill:#009e73;fill-opacity:0.7;stroke:#000000;stroke-opacity:0.7;" x="260.05587" xlink:href="#mf12c4c6b0a" y="48.626367"/>
     <use style="fill:#009e73;fill-opacity:0.7;stroke:#000000;stroke-opacity:0.7;" x="268.032806" xlink:href="#mf12c4c6b0a" y="44.93696"/>
     <use style="fill:#009e73;fill-opacity:0.7;stroke:#000000;stroke-opacity:0.7;" x="276.009742" xlink:href="#mf12c4c6b0a" y="41.841218"/>
     <use style="fill:#009e73;fill-opacity:0.7;stroke:#000000;stroke-opacity:0.7;" x="283.986679" xlink:href="#mf12c4c6b0a" y="39.194259"/>
     <use style="fill:#009e73;fill-opacity:0.7;stroke:#000000;stroke-opacity:0.7;" x="291.963615" xlink:href="#mf12c4c6b0a" y="36.896667"/>
     <use style="fill:#009e73;fill-opacity:0.7;stroke:#000000;stroke-opacity:0.7;" x="299.940551" xlink:href="#mf12c4c6b0a" y="34.877751"/>
     <use style="fill:#009e73;fill-opacity:0.7;stroke:#000000;stroke-opacity:0.7;" x="307.917487" xlink:href="#mf12c4c6b0a" y="33.085683"/>
     <use style="fill:#009e73;fill-opacity:0.7;stroke:#000000;stroke-opacity:0.7;" x="315.894424" xlink:href="#mf12c4c6b0a" y="31.481505"/>
     <use style="fill:#009e73;fill-opacity:0.7;stroke:#000000;stroke-opacity:0.7;" x="323.87136" xlink:href="#mf12c4c6b0a" y="30.035223"/>
     <use style="fill:#009e73;fill-opacity:0.7;stroke:#000000;stroke-opacity:0.7;" x="331.848296" xlink:href="#mf12c4c6b0a" y="28.723303"/>
     <use style="fill:#009e73;fill-opacity:0.7;stroke:#000000;stroke-opacity:0.7;" x="339.825232" xlink:href="#mf12c4c6b0a" y="27.52698"/>
     <use style="fill:#009e73;fill-opacity:0.7;stroke:#000000;stroke-opacity:0.7;" x="347.802169" xlink:href="#mf12c4c6b0a" y="26.431039"/>
     <use style="fill:#009e73;fill-opacity:0.7;stroke:#000000;stroke-opacity:0.7;" x="355.779105" xlink:href="#mf12c4c6b0a" y="25.422964"/>
     <use style="fill:#009e73;fill-opacity:0.7;stroke:#000000;stroke-opacity:0.7;" x="363.756041" xlink:href="#mf12c4c6b0a" y="24.492376"/>
     <use style="fill:#009e73;fill-opacity:0.7;stroke:#000000;stroke-opacity:0.7;" x="371.732977" xlink:href="#mf12c4c6b0a" y="23.630539"/>
     <use style="fill:#009e73;fill-opacity:0.7;stroke:#000000;stroke-opacity:0.7;" x="379.709913" xlink:href="#mf12c4c6b0a" y="22.830039"/>
     <use style="fill:#009e73;fill-opacity:0.7;stroke:#000000;stroke-opacity:0.7;" x="387.68685" xlink:href="#mf12c4c6b0a" y="22.084548"/>
    </g>
   </g>
   <g id="PathCollection_3">
    <defs>
     <path d="M 0 3.872983 
C 1.027127 3.872983 2.012324 3.464901 2.738613 2.738613 
C 3.464901 2.012324 3.872983 1.027127 3.872983 0 
C 3.872983 -1.027127 3.464901 -2.012324 2.738613 -2.738613 
C 2.012324 -3.464901 1.027127 -3.872983 0 -3.872983 
C -1.027127 -3.872983 -2.012324 -3.464901 -2.738613 -2.738613 
C -3.464901 -2.012324 -3.872983 -1.027127 -3.872983 0 
C -3.872983 1.027127 -3.464901 2.012324 -2.738613 2.738613 
C -2.012324 3.464901 -1.027127 3.872983 0 3.872983 
z
" id="m6c85dbd0b6" style="stroke:#000000;stroke-opacity:0.7;"/>
    </defs>
    <g clip-path="url(#pe7e2b04137)">
     <use style="fill:#d55e00;fill-opacity:0.7;stroke:#000000;stroke-opacity:0.7;" x="68.6094" xlink:href="#m6c85dbd0b6" y="258.427452"/>
     <use style="fill:#d55e00;fill-opacity:0.7;stroke:#000000;stroke-opacity:0.7;" x="76.586337" xlink:href="#m6c85dbd0b6" y="258.146274"/>
     <use style="fill:#d55e00;fill-opacity:0.7;stroke:#000000;stroke-opacity:0.7;" x="84.563273" xlink:href="#m6c85dbd0b6" y="257.725592"/>
     <use style="fill:#d55e00;fill-opacity:0.7;stroke:#000000;stroke-opacity:0.7;" x="92.540209" xlink:href="#m6c85dbd0b6" y="257.258817"/>
     <use style="fill:#d55e00;fill-opacity:0.7;stroke:#000000;stroke-opacity:0.7;" x="100.517145" xlink:href="#m6c85dbd0b6" y="256.651771"/>
     <use style="fill:#d55e00;fill-opacity:0.7;stroke:#000000;stroke-opacity:0.7;" x="108.494081" xlink:href="#m6c85dbd0b6" y="255.738512"/>
     <use style="fill:#d55e00;fill-opacity:0.7;stroke:#000000;stroke-opacity:0.7;" x="116.471018" xlink:href="#m6c85dbd0b6" y="254.447008"/>
     <use style="fill:#d55e00;fill-opacity:0.7;stroke:#000000;stroke-opacity:0.7;" x="124.447954" xlink:href="#m6c85dbd0b6" y="252.695247"/>
     <use style="fill:#d55e00;fill-opacity:0.7;stroke:#000000;stroke-opacity:0.7;" x="132.42489" xlink:href="#m6c85dbd0b6" y="250.390239"/>
     <use style="fill:#d55e00;fill-opacity:0.7;stroke:#000000;stroke-opacity:0.7;" x="140.401826" xlink:href="#m6c85dbd0b6" y="247.476604"/>
     <use style="fill:#d55e00;fill-opacity:0.7;stroke:#000000;stroke-opacity:0.7;" x="148.378763" xlink:href="#m6c85dbd0b6" y="244.167002"/>
     <use style="fill:#d55e00;fill-opacity:0.7;stroke:#000000;stroke-opacity:0.7;" x="156.355699" xlink:href="#m6c85dbd0b6" y="240.08765"/>
     <use style="fill:#d55e00;fill-opacity:0.7;stroke:#000000;stroke-opacity:0.7;" x="164.332635" xlink:href="#m6c85dbd0b6" y="236.515332"/>
     <use style="fill:#d55e00;fill-opacity:0.7;stroke:#000000;stroke-opacity:0.7;" x="172.309571" xlink:href="#m6c85dbd0b6" y="232.143015"/>
     <use style="fill:#d55e00;fill-opacity:0.7;stroke:#000000;stroke-opacity:0.7;" x="180.286508" xlink:href="#m6c85dbd0b6" y="226.259675"/>
     <use style="fill:#d55e00;fill-opacity:0.7;stroke:#000000;stroke-opacity:0.7;" x="188.263444" xlink:href="#m6c85dbd0b6" y="219.344572"/>
     <use style="fill:#d55e00;fill-opacity:0.7;stroke:#000000;stroke-opacity:0.7;" x="196.24038" xlink:href="#m6c85dbd0b6" y="211.541143"/>
     <use style="fill:#d55e00;fill-opacity:0.7;stroke:#000000;stroke-opacity:0.7;" x="204.217316" xlink:href="#m6c85dbd0b6" y="193.847563"/>
     <use style="fill:#d55e00;fill-opacity:0.7;stroke:#000000;stroke-opacity:0.7;" x="212.194253" xlink:href="#m6c85dbd0b6" y="134.593047"/>
     <use style="fill:#d55e00;fill-opacity:0.7;stroke:#000000;stroke-opacity:0.7;" x="220.171189" xlink:href="#m6c85dbd0b6" y="96.119603"/>
     <use style="fill:#d55e00;fill-opacity:0.7;stroke:#000000;stroke-opacity:0.7;" x="228.148125" xlink:href="#m6c85dbd0b6" y="77.918182"/>
     <use style="fill:#d55e00;fill-opacity:0.7;stroke:#000000;stroke-opacity:0.7;" x="236.125061" xlink:href="#m6c85dbd0b6" y="66.694752"/>
     <use style="fill:#d55e00;fill-opacity:0.7;stroke:#000000;stroke-opacity:0.7;" x="244.101997" xlink:href="#m6c85dbd0b6" y="58.871314"/>
     <use style="fill:#d55e00;fill-opacity:0.7;stroke:#000000;stroke-opacity:0.7;" x="252.078934" xlink:href="#m6c85dbd0b6" y="53.01572"/>
     <use style="fill:#d55e00;fill-opacity:0.7;stroke:#000000;stroke-opacity:0.7;" x="260.05587" xlink:href="#m6c85dbd0b6" y="48.419489"/>
     <use style="fill:#d55e00;fill-opacity:0.7;stroke:#000000;stroke-opacity:0.7;" x="268.032806" xlink:href="#m6c85dbd0b6" y="44.68593"/>
     <use style="fill:#d55e00;fill-opacity:0.7;stroke:#000000;stroke-opacity:0.7;" x="276.009742" xlink:href="#m6c85dbd0b6" y="41.573641"/>
     <use style="fill:#d55e00;fill-opacity:0.7;stroke:#000000;stroke-opacity:0.7;" x="283.986679" xlink:href="#m6c85dbd0b6" y="38.926537"/>
     <use style="fill:#d55e00;fill-opacity:0.7;stroke:#000000;stroke-opacity:0.7;" x="291.963615" xlink:href="#m6c85dbd0b6" y="36.63878"/>
     <use style="fill:#d55e00;fill-opacity:0.7;stroke:#000000;stroke-opacity:0.7;" x="299.940551" xlink:href="#m6c85dbd0b6" y="34.635813"/>
     <use style="fill:#d55e00;fill-opacity:0.7;stroke:#000000;stroke-opacity:0.7;" x="307.917487" xlink:href="#m6c85dbd0b6" y="32.863432"/>
     <use style="fill:#d55e00;fill-opacity:0.7;stroke:#000000;stroke-opacity:0.7;" x="315.894424" xlink:href="#m6c85dbd0b6" y="31.281087"/>
     <use style="fill:#d55e00;fill-opacity:0.7;stroke:#000000;stroke-opacity:0.7;" x="323.87136" xlink:href="#m6c85dbd0b6" y="29.857807"/>
     <use style="fill:#d55e00;fill-opacity:0.7;stroke:#000000;stroke-opacity:0.7;" x="331.848296" xlink:href="#m6c85dbd0b6" y="28.569366"/>
     <use style="fill:#d55e00;fill-opacity:0.7;stroke:#000000;stroke-opacity:0.7;" x="339.825232" xlink:href="#m6c85dbd0b6" y="27.396558"/>
     <use style="fill:#d55e00;fill-opacity:0.7;stroke:#000000;stroke-opacity:0.7;" x="347.802169" xlink:href="#m6c85dbd0b6" y="26.323853"/>
     <use style="fill:#d55e00;fill-opacity:0.7;stroke:#000000;stroke-opacity:0.7;" x="355.779105" xlink:href="#m6c85dbd0b6" y="25.338548"/>
     <use style="fill:#d55e00;fill-opacity:0.7;stroke:#000000;stroke-opacity:0.7;" x="363.756041" xlink:href="#m6c85dbd0b6" y="24.430125"/>
     <use style="fill:#d55e00;fill-opacity:0.7;stroke:#000000;stroke-opacity:0.7;" x="371.732977" xlink:href="#m6c85dbd0b6" y="23.589761"/>
     <use style="fill:#d55e00;fill-opacity:0.7;stroke:#000000;stroke-opacity:0.7;" x="379.709913" xlink:href="#m6c85dbd0b6" y="22.810026"/>
     <use style="fill:#d55e00;fill-opacity:0.7;stroke:#000000;stroke-opacity:0.7;" x="387.68685" xlink:href="#m6c85dbd0b6" y="22.084548"/>
    </g>
   </g>
   <g id="PathCollection_4">
    <defs>
     <path d="M 0 3.872983 
C 1.027127 3.872983 2.012324 3.464901 2.738613 2.738613 
C 3.464901 2.012324 3.872983 1.027127 3.872983 0 
C 3.872983 -1.027127 3.464901 -2.012324 2.738613 -2.738613 
C 2.012324 -3.464901 1.027127 -3.872983 0 -3.872983 
C -1.027127 -3.872983 -2.012324 -3.464901 -2.738613 -2.738613 
C -3.464901 -2.012324 -3.872983 -1.027127 -3.872983 0 
C -3.872983 1.027127 -3.464901 2.012324 -2.738613 2.738613 
C -2.012324 3.464901 -1.027127 3.872983 0 3.872983 
z
" id="ma1ee716ce4" style="stroke:#000000;stroke-opacity:0.7;"/>
    </defs>
    <g clip-path="url(#pe7e2b04137)">
     <use style="fill:#cc79a7;fill-opacity:0.7;stroke:#000000;stroke-opacity:0.7;" x="68.6094" xlink:href="#ma1ee716ce4" y="258.427452"/>
     <use style="fill:#cc79a7;fill-opacity:0.7;stroke:#000000;stroke-opacity:0.7;" x="76.586337" xlink:href="#ma1ee716ce4" y="258.237835"/>
     <use style="fill:#cc79a7;fill-opacity:0.7;stroke:#000000;stroke-opacity:0.7;" x="84.563273" xlink:href="#ma1ee716ce4" y="257.954004"/>
     <use style="fill:#cc79a7;fill-opacity:0.7;stroke:#000000;stroke-opacity:0.7;" x="92.540209" xlink:href="#ma1ee716ce4" y="257.609992"/>
     <use style="fill:#cc79a7;fill-opacity:0.7;stroke:#000000;stroke-opacity:0.7;" x="100.517145" xlink:href="#ma1ee716ce4" y="257.197648"/>
     <use style="fill:#cc79a7;fill-opacity:0.7;stroke:#000000;stroke-opacity:0.7;" x="108.494081" xlink:href="#ma1ee716ce4" y="256.576368"/>
     <use style="fill:#cc79a7;fill-opacity:0.7;stroke:#000000;stroke-opacity:0.7;" x="116.471018" xlink:href="#ma1ee716ce4" y="255.696823"/>
     <use style="fill:#cc79a7;fill-opacity:0.7;stroke:#000000;stroke-opacity:0.7;" x="124.447954" xlink:href="#ma1ee716ce4" y="254.502959"/>
     <use style="fill:#cc79a7;fill-opacity:0.7;stroke:#000000;stroke-opacity:0.7;" x="132.42489" xlink:href="#ma1ee716ce4" y="252.931424"/>
     <use style="fill:#cc79a7;fill-opacity:0.7;stroke:#000000;stroke-opacity:0.7;" x="140.401826" xlink:href="#ma1ee716ce4" y="251.012056"/>
     <use style="fill:#cc79a7;fill-opacity:0.7;stroke:#000000;stroke-opacity:0.7;" x="148.378763" xlink:href="#ma1ee716ce4" y="248.767118"/>
     <use style="fill:#cc79a7;fill-opacity:0.7;stroke:#000000;stroke-opacity:0.7;" x="156.355699" xlink:href="#ma1ee716ce4" y="246.000334"/>
     <use style="fill:#cc79a7;fill-opacity:0.7;stroke:#000000;stroke-opacity:0.7;" x="164.332635" xlink:href="#ma1ee716ce4" y="243.625209"/>
     <use style="fill:#cc79a7;fill-opacity:0.7;stroke:#000000;stroke-opacity:0.7;" x="172.309571" xlink:href="#ma1ee716ce4" y="240.706954"/>
     <use style="fill:#cc79a7;fill-opacity:0.7;stroke:#000000;stroke-opacity:0.7;" x="180.286508" xlink:href="#ma1ee716ce4" y="236.761884"/>
     <use style="fill:#cc79a7;fill-opacity:0.7;stroke:#000000;stroke-opacity:0.7;" x="188.263444" xlink:href="#ma1ee716ce4" y="232.144852"/>
     <use style="fill:#cc79a7;fill-opacity:0.7;stroke:#000000;stroke-opacity:0.7;" x="196.24038" xlink:href="#ma1ee716ce4" y="227.045211"/>
     <use style="fill:#cc79a7;fill-opacity:0.7;stroke:#000000;stroke-opacity:0.7;" x="204.217316" xlink:href="#ma1ee716ce4" y="215.095476"/>
     <use style="fill:#cc79a7;fill-opacity:0.7;stroke:#000000;stroke-opacity:0.7;" x="212.194253" xlink:href="#ma1ee716ce4" y="146.905078"/>
     <use style="fill:#cc79a7;fill-opacity:0.7;stroke:#000000;stroke-opacity:0.7;" x="220.171189" xlink:href="#ma1ee716ce4" y="97.174018"/>
     <use style="fill:#cc79a7;fill-opacity:0.7;stroke:#000000;stroke-opacity:0.7;" x="228.148125" xlink:href="#ma1ee716ce4" y="77.896668"/>
     <use style="fill:#cc79a7;fill-opacity:0.7;stroke:#000000;stroke-opacity:0.7;" x="236.125061" xlink:href="#ma1ee716ce4" y="66.391065"/>
     <use style="fill:#cc79a7;fill-opacity:0.7;stroke:#000000;stroke-opacity:0.7;" x="244.101997" xlink:href="#ma1ee716ce4" y="58.480461"/>
     <use style="fill:#cc79a7;fill-opacity:0.7;stroke:#000000;stroke-opacity:0.7;" x="252.078934" xlink:href="#ma1ee716ce4" y="52.606449"/>
     <use style="fill:#cc79a7;fill-opacity:0.7;stroke:#000000;stroke-opacity:0.7;" x="260.05587" xlink:href="#ma1ee716ce4" y="48.020342"/>
     <use style="fill:#cc79a7;fill-opacity:0.7;stroke:#000000;stroke-opacity:0.7;" x="268.032806" xlink:href="#ma1ee716ce4" y="44.309571"/>
     <use style="fill:#cc79a7;fill-opacity:0.7;stroke:#000000;stroke-opacity:0.7;" x="276.009742" xlink:href="#ma1ee716ce4" y="41.225686"/>
     <use style="fill:#cc79a7;fill-opacity:0.7;stroke:#000000;stroke-opacity:0.7;" x="283.986679" xlink:href="#ma1ee716ce4" y="38.609169"/>
     <use style="fill:#cc79a7;fill-opacity:0.7;stroke:#000000;stroke-opacity:0.7;" x="291.963615" xlink:href="#ma1ee716ce4" y="36.352423"/>
     <use style="fill:#cc79a7;fill-opacity:0.7;stroke:#000000;stroke-opacity:0.7;" x="299.940551" xlink:href="#ma1ee716ce4" y="34.379982"/>
     <use style="fill:#cc79a7;fill-opacity:0.7;stroke:#000000;stroke-opacity:0.7;" x="307.917487" xlink:href="#ma1ee716ce4" y="32.637136"/>
     <use style="fill:#cc79a7;fill-opacity:0.7;stroke:#000000;stroke-opacity:0.7;" x="315.894424" xlink:href="#ma1ee716ce4" y="31.083108"/>
     <use style="fill:#cc79a7;fill-opacity:0.7;stroke:#000000;stroke-opacity:0.7;" x="323.87136" xlink:href="#ma1ee716ce4" y="29.686821"/>
     <use style="fill:#cc79a7;fill-opacity:0.7;stroke:#000000;stroke-opacity:0.7;" x="331.848296" xlink:href="#ma1ee716ce4" y="28.424045"/>
     <use style="fill:#cc79a7;fill-opacity:0.7;stroke:#000000;stroke-opacity:0.7;" x="339.825232" xlink:href="#ma1ee716ce4" y="27.27555"/>
     <use style="fill:#cc79a7;fill-opacity:0.7;stroke:#000000;stroke-opacity:0.7;" x="347.802169" xlink:href="#ma1ee716ce4" y="26.225872"/>
     <use style="fill:#cc79a7;fill-opacity:0.7;stroke:#000000;stroke-opacity:0.7;" x="355.779105" xlink:href="#ma1ee716ce4" y="25.262374"/>
     <use style="fill:#cc79a7;fill-opacity:0.7;stroke:#000000;stroke-opacity:0.7;" x="363.756041" xlink:href="#ma1ee716ce4" y="24.374586"/>
     <use style="fill:#cc79a7;fill-opacity:0.7;stroke:#000000;stroke-opacity:0.7;" x="371.732977" xlink:href="#ma1ee716ce4" y="23.553751"/>
     <use style="fill:#cc79a7;fill-opacity:0.7;stroke:#000000;stroke-opacity:0.7;" x="379.709913" xlink:href="#ma1ee716ce4" y="22.792512"/>
     <use style="fill:#cc79a7;fill-opacity:0.7;stroke:#000000;stroke-opacity:0.7;" x="387.68685" xlink:href="#ma1ee716ce4" y="22.084548"/>
    </g>
   </g>
   <g id="PathCollection_5">
    <defs>
     <path d="M 0 3.872983 
C 1.027127 3.872983 2.012324 3.464901 2.738613 2.738613 
C 3.464901 2.012324 3.872983 1.027127 3.872983 0 
C 3.872983 -1.027127 3.464901 -2.012324 2.738613 -2.738613 
C 2.012324 -3.464901 1.027127 -3.872983 0 -3.872983 
C -1.027127 -3.872983 -2.012324 -3.464901 -2.738613 -2.738613 
C -3.464901 -2.012324 -3.872983 -1.027127 -3.872983 0 
C -3.872983 1.027127 -3.464901 2.012324 -2.738613 2.738613 
C -2.012324 3.464901 -1.027127 3.872983 0 3.872983 
z
" id="m504dc5783c" style="stroke:#000000;stroke-opacity:0.7;"/>
    </defs>
    <g clip-path="url(#pe7e2b04137)">
     <use style="fill:#f0e442;fill-opacity:0.7;stroke:#000000;stroke-opacity:0.7;" x="68.6094" xlink:href="#m504dc5783c" y="258.427452"/>
     <use style="fill:#f0e442;fill-opacity:0.7;stroke:#000000;stroke-opacity:0.7;" x="76.586337" xlink:href="#m504dc5783c" y="258.297485"/>
     <use style="fill:#f0e442;fill-opacity:0.7;stroke:#000000;stroke-opacity:0.7;" x="84.563273" xlink:href="#m504dc5783c" y="258.102889"/>
     <use style="fill:#f0e442;fill-opacity:0.7;stroke:#000000;stroke-opacity:0.7;" x="92.540209" xlink:href="#m504dc5783c" y="257.8569"/>
     <use style="fill:#f0e442;fill-opacity:0.7;stroke:#000000;stroke-opacity:0.7;" x="100.517145" xlink:href="#m504dc5783c" y="257.573354"/>
     <use style="fill:#f0e442;fill-opacity:0.7;stroke:#000000;stroke-opacity:0.7;" x="108.494081" xlink:href="#m504dc5783c" y="257.145669"/>
     <use style="fill:#f0e442;fill-opacity:0.7;stroke:#000000;stroke-opacity:0.7;" x="116.471018" xlink:href="#m504dc5783c" y="256.53976"/>
     <use style="fill:#f0e442;fill-opacity:0.7;stroke:#000000;stroke-opacity:0.7;" x="124.447954" xlink:href="#m504dc5783c" y="255.716956"/>
     <use style="fill:#f0e442;fill-opacity:0.7;stroke:#000000;stroke-opacity:0.7;" x="132.42489" xlink:href="#m504dc5783c" y="254.633642"/>
     <use style="fill:#f0e442;fill-opacity:0.7;stroke:#000000;stroke-opacity:0.7;" x="140.401826" xlink:href="#m504dc5783c" y="253.334083"/>
     <use style="fill:#f0e442;fill-opacity:0.7;stroke:#000000;stroke-opacity:0.7;" x="148.378763" xlink:href="#m504dc5783c" y="251.791123"/>
     <use style="fill:#f0e442;fill-opacity:0.7;stroke:#000000;stroke-opacity:0.7;" x="156.355699" xlink:href="#m504dc5783c" y="249.889926"/>
     <use style="fill:#f0e442;fill-opacity:0.7;stroke:#000000;stroke-opacity:0.7;" x="164.332635" xlink:href="#m504dc5783c" y="248.276614"/>
     <use style="fill:#f0e442;fill-opacity:0.7;stroke:#000000;stroke-opacity:0.7;" x="172.309571" xlink:href="#m504dc5783c" y="246.291214"/>
     <use style="fill:#f0e442;fill-opacity:0.7;stroke:#000000;stroke-opacity:0.7;" x="180.286508" xlink:href="#m504dc5783c" y="243.602286"/>
     <use style="fill:#f0e442;fill-opacity:0.7;stroke:#000000;stroke-opacity:0.7;" x="188.263444" xlink:href="#m504dc5783c" y="240.469386"/>
     <use style="fill:#f0e442;fill-opacity:0.7;stroke:#000000;stroke-opacity:0.7;" x="196.24038" xlink:href="#m504dc5783c" y="237.074719"/>
     <use style="fill:#f0e442;fill-opacity:0.7;stroke:#000000;stroke-opacity:0.7;" x="204.217316" xlink:href="#m504dc5783c" y="229.030927"/>
     <use style="fill:#f0e442;fill-opacity:0.7;stroke:#000000;stroke-opacity:0.7;" x="212.194253" xlink:href="#m504dc5783c" y="156.966284"/>
     <use style="fill:#f0e442;fill-opacity:0.7;stroke:#000000;stroke-opacity:0.7;" x="220.171189" xlink:href="#m504dc5783c" y="97.123191"/>
     <use style="fill:#f0e442;fill-opacity:0.7;stroke:#000000;stroke-opacity:0.7;" x="228.148125" xlink:href="#m504dc5783c" y="77.457305"/>
     <use style="fill:#f0e442;fill-opacity:0.7;stroke:#000000;stroke-opacity:0.7;" x="236.125061" xlink:href="#m504dc5783c" y="65.904122"/>
     <use style="fill:#f0e442;fill-opacity:0.7;stroke:#000000;stroke-opacity:0.7;" x="244.101997" xlink:href="#m504dc5783c" y="58.013107"/>
     <use style="fill:#f0e442;fill-opacity:0.7;stroke:#000000;stroke-opacity:0.7;" x="252.078934" xlink:href="#m504dc5783c" y="52.175946"/>
     <use style="fill:#f0e442;fill-opacity:0.7;stroke:#000000;stroke-opacity:0.7;" x="260.05587" xlink:href="#m504dc5783c" y="47.630273"/>
     <use style="fill:#f0e442;fill-opacity:0.7;stroke:#000000;stroke-opacity:0.7;" x="268.032806" xlink:href="#m504dc5783c" y="43.959173"/>
     <use style="fill:#f0e442;fill-opacity:0.7;stroke:#000000;stroke-opacity:0.7;" x="276.009742" xlink:href="#m504dc5783c" y="40.912722"/>
     <use style="fill:#f0e442;fill-opacity:0.7;stroke:#000000;stroke-opacity:0.7;" x="283.986679" xlink:href="#m504dc5783c" y="38.331005"/>
     <use style="fill:#f0e442;fill-opacity:0.7;stroke:#000000;stroke-opacity:0.7;" x="291.963615" xlink:href="#m504dc5783c" y="36.106468"/>
     <use style="fill:#f0e442;fill-opacity:0.7;stroke:#000000;stroke-opacity:0.7;" x="299.940551" xlink:href="#m504dc5783c" y="34.163775"/>
     <use style="fill:#f0e442;fill-opacity:0.7;stroke:#000000;stroke-opacity:0.7;" x="307.917487" xlink:href="#m504dc5783c" y="32.448421"/>
     <use style="fill:#f0e442;fill-opacity:0.7;stroke:#000000;stroke-opacity:0.7;" x="315.894424" xlink:href="#m504dc5783c" y="30.919851"/>
     <use style="fill:#f0e442;fill-opacity:0.7;stroke:#000000;stroke-opacity:0.7;" x="323.87136" xlink:href="#m504dc5783c" y="29.547163"/>
     <use style="fill:#f0e442;fill-opacity:0.7;stroke:#000000;stroke-opacity:0.7;" x="331.848296" xlink:href="#m504dc5783c" y="28.306282"/>
     <use style="fill:#f0e442;fill-opacity:0.7;stroke:#000000;stroke-opacity:0.7;" x="339.825232" xlink:href="#m504dc5783c" y="27.17818"/>
     <use style="fill:#f0e442;fill-opacity:0.7;stroke:#000000;stroke-opacity:0.7;" x="347.802169" xlink:href="#m504dc5783c" y="26.147534"/>
     <use style="fill:#f0e442;fill-opacity:0.7;stroke:#000000;stroke-opacity:0.7;" x="355.779105" xlink:href="#m504dc5783c" y="25.201792"/>
     <use style="fill:#f0e442;fill-opacity:0.7;stroke:#000000;stroke-opacity:0.7;" x="363.756041" xlink:href="#m504dc5783c" y="24.330623"/>
     <use style="fill:#f0e442;fill-opacity:0.7;stroke:#000000;stroke-opacity:0.7;" x="371.732977" xlink:href="#m504dc5783c" y="23.525376"/>
     <use style="fill:#f0e442;fill-opacity:0.7;stroke:#000000;stroke-opacity:0.7;" x="379.709913" xlink:href="#m504dc5783c" y="22.778757"/>
     <use style="fill:#f0e442;fill-opacity:0.7;stroke:#000000;stroke-opacity:0.7;" x="387.68685" xlink:href="#m504dc5783c" y="22.084548"/>
    </g>
   </g>
   <g id="PathCollection_6">
    <defs>
     <path d="M 0 3.872983 
C 1.027127 3.872983 2.012324 3.464901 2.738613 2.738613 
C 3.464901 2.012324 3.872983 1.027127 3.872983 0 
C 3.872983 -1.027127 3.464901 -2.012324 2.738613 -2.738613 
C 2.012324 -3.464901 1.027127 -3.872983 0 -3.872983 
C -1.027127 -3.872983 -2.012324 -3.464901 -2.738613 -2.738613 
C -3.464901 -2.012324 -3.872983 -1.027127 -3.872983 0 
C -3.872983 1.027127 -3.464901 2.012324 -2.738613 2.738613 
C -2.012324 3.464901 -1.027127 3.872983 0 3.872983 
z
" id="md6c23e6a91" style="stroke:#000000;stroke-opacity:0.7;"/>
    </defs>
    <g clip-path="url(#pe7e2b04137)">
     <use style="fill:#56b4e9;fill-opacity:0.7;stroke:#000000;stroke-opacity:0.7;" x="68.6094" xlink:href="#md6c23e6a91" y="258.427452"/>
     <use style="fill:#56b4e9;fill-opacity:0.7;stroke:#000000;stroke-opacity:0.7;" x="76.586337" xlink:href="#md6c23e6a91" y="258.337446"/>
     <use style="fill:#56b4e9;fill-opacity:0.7;stroke:#000000;stroke-opacity:0.7;" x="84.563273" xlink:href="#md6c23e6a91" y="258.202664"/>
     <use style="fill:#56b4e9;fill-opacity:0.7;stroke:#000000;stroke-opacity:0.7;" x="92.540209" xlink:href="#md6c23e6a91" y="258.028742"/>
     <use style="fill:#56b4e9;fill-opacity:0.7;stroke:#000000;stroke-opacity:0.7;" x="100.517145" xlink:href="#md6c23e6a91" y="257.832101"/>
     <use style="fill:#56b4e9;fill-opacity:0.7;stroke:#000000;stroke-opacity:0.7;" x="108.494081" xlink:href="#md6c23e6a91" y="257.535287"/>
     <use style="fill:#56b4e9;fill-opacity:0.7;stroke:#000000;stroke-opacity:0.7;" x="116.471018" xlink:href="#md6c23e6a91" y="257.114598"/>
     <use style="fill:#56b4e9;fill-opacity:0.7;stroke:#000000;stroke-opacity:0.7;" x="124.447954" xlink:href="#md6c23e6a91" y="256.543168"/>
     <use style="fill:#56b4e9;fill-opacity:0.7;stroke:#000000;stroke-opacity:0.7;" x="132.42489" xlink:href="#md6c23e6a91" y="255.790736"/>
     <use style="fill:#56b4e9;fill-opacity:0.7;stroke:#000000;stroke-opacity:0.7;" x="140.401826" xlink:href="#md6c23e6a91" y="254.896401"/>
     <use style="fill:#56b4e9;fill-opacity:0.7;stroke:#000000;stroke-opacity:0.7;" x="148.378763" xlink:href="#md6c23e6a91" y="253.826491"/>
     <use style="fill:#56b4e9;fill-opacity:0.7;stroke:#000000;stroke-opacity:0.7;" x="156.355699" xlink:href="#md6c23e6a91" y="252.508432"/>
     <use style="fill:#56b4e9;fill-opacity:0.7;stroke:#000000;stroke-opacity:0.7;" x="164.332635" xlink:href="#md6c23e6a91" y="251.397209"/>
     <use style="fill:#56b4e9;fill-opacity:0.7;stroke:#000000;stroke-opacity:0.7;" x="172.309571" xlink:href="#md6c23e6a91" y="250.028888"/>
     <use style="fill:#56b4e9;fill-opacity:0.7;stroke:#000000;stroke-opacity:0.7;" x="180.286508" xlink:href="#md6c23e6a91" y="248.174443"/>
     <use style="fill:#56b4e9;fill-opacity:0.7;stroke:#000000;stroke-opacity:0.7;" x="188.263444" xlink:href="#md6c23e6a91" y="246.021105"/>
     <use style="fill:#56b4e9;fill-opacity:0.7;stroke:#000000;stroke-opacity:0.7;" x="196.24038" xlink:href="#md6c23e6a91" y="243.720057"/>
     <use style="fill:#56b4e9;fill-opacity:0.7;stroke:#000000;stroke-opacity:0.7;" x="204.217316" xlink:href="#md6c23e6a91" y="238.263903"/>
     <use style="fill:#56b4e9;fill-opacity:0.7;stroke:#000000;stroke-opacity:0.7;" x="212.194253" xlink:href="#md6c23e6a91" y="165.345208"/>
     <use style="fill:#56b4e9;fill-opacity:0.7;stroke:#000000;stroke-opacity:0.7;" x="220.171189" xlink:href="#md6c23e6a91" y="96.701553"/>
     <use style="fill:#56b4e9;fill-opacity:0.7;stroke:#000000;stroke-opacity:0.7;" x="228.148125" xlink:href="#md6c23e6a91" y="76.948642"/>
     <use style="fill:#56b4e9;fill-opacity:0.7;stroke:#000000;stroke-opacity:0.7;" x="236.125061" xlink:href="#md6c23e6a91" y="65.434141"/>
     <use style="fill:#56b4e9;fill-opacity:0.7;stroke:#000000;stroke-opacity:0.7;" x="244.101997" xlink:href="#md6c23e6a91" y="57.594973"/>
     <use style="fill:#56b4e9;fill-opacity:0.7;stroke:#000000;stroke-opacity:0.7;" x="252.078934" xlink:href="#md6c23e6a91" y="51.806964"/>
     <use style="fill:#56b4e9;fill-opacity:0.7;stroke:#000000;stroke-opacity:0.7;" x="260.05587" xlink:href="#md6c23e6a91" y="47.305239"/>
     <use style="fill:#56b4e9;fill-opacity:0.7;stroke:#000000;stroke-opacity:0.7;" x="268.032806" xlink:href="#md6c23e6a91" y="43.672991"/>
     <use style="fill:#56b4e9;fill-opacity:0.7;stroke:#000000;stroke-opacity:0.7;" x="276.009742" xlink:href="#md6c23e6a91" y="40.660968"/>
     <use style="fill:#56b4e9;fill-opacity:0.7;stroke:#000000;stroke-opacity:0.7;" x="283.986679" xlink:href="#md6c23e6a91" y="38.109899"/>
     <use style="fill:#56b4e9;fill-opacity:0.7;stroke:#000000;stroke-opacity:0.7;" x="291.963615" xlink:href="#md6c23e6a91" y="35.91282"/>
     <use style="fill:#56b4e9;fill-opacity:0.7;stroke:#000000;stroke-opacity:0.7;" x="299.940551" xlink:href="#md6c23e6a91" y="33.994899"/>
     <use style="fill:#56b4e9;fill-opacity:0.7;stroke:#000000;stroke-opacity:0.7;" x="307.917487" xlink:href="#md6c23e6a91" y="32.301997"/>
     <use style="fill:#56b4e9;fill-opacity:0.7;stroke:#000000;stroke-opacity:0.7;" x="315.894424" xlink:href="#md6c23e6a91" y="30.793873"/>
     <use style="fill:#56b4e9;fill-opacity:0.7;stroke:#000000;stroke-opacity:0.7;" x="323.87136" xlink:href="#md6c23e6a91" y="29.439905"/>
     <use style="fill:#56b4e9;fill-opacity:0.7;stroke:#000000;stroke-opacity:0.7;" x="331.848296" xlink:href="#md6c23e6a91" y="28.216247"/>
     <use style="fill:#56b4e9;fill-opacity:0.7;stroke:#000000;stroke-opacity:0.7;" x="339.825232" xlink:href="#md6c23e6a91" y="27.104018"/>
     <use style="fill:#56b4e9;fill-opacity:0.7;stroke:#000000;stroke-opacity:0.7;" x="347.802169" xlink:href="#md6c23e6a91" y="26.088032"/>
     <use style="fill:#56b4e9;fill-opacity:0.7;stroke:#000000;stroke-opacity:0.7;" x="355.779105" xlink:href="#md6c23e6a91" y="25.155919"/>
     <use style="fill:#56b4e9;fill-opacity:0.7;stroke:#000000;stroke-opacity:0.7;" x="363.756041" xlink:href="#md6c23e6a91" y="24.297411"/>
     <use style="fill:#56b4e9;fill-opacity:0.7;stroke:#000000;stroke-opacity:0.7;" x="371.732977" xlink:href="#md6c23e6a91" y="23.50398"/>
     <use style="fill:#56b4e9;fill-opacity:0.7;stroke:#000000;stroke-opacity:0.7;" x="379.709913" xlink:href="#md6c23e6a91" y="22.768413"/>
     <use style="fill:#56b4e9;fill-opacity:0.7;stroke:#000000;stroke-opacity:0.7;" x="387.68685" xlink:href="#md6c23e6a91" y="22.084548"/>
    </g>
   </g>
   <g id="matplotlib.axis_1">
    <g id="xtick_1">
     <g id="line2d_1">
      <defs>
       <path d="M 0 0 
L 0 3.5 
" id="m8dfcf93ded" style="stroke:#000000;stroke-width:0.8;"/>
      </defs>
      <g>
       <use style="stroke:#000000;stroke-width:0.8;" x="52.655528" xlink:href="#m8dfcf93ded" y="273.312"/>
      </g>
     </g>
     <g id="text_1">
      <!-- 0.00 -->
      <defs>
       <path d="M 31.78125 3.421875 
Q 39.265625 3.421875 42.96875 11.625 
Q 46.6875 19.828125 46.6875 36.375 
Q 46.6875 52.984375 42.96875 61.1875 
Q 39.265625 69.390625 31.78125 69.390625 
Q 24.3125 69.390625 20.59375 61.1875 
Q 16.890625 52.984375 16.890625 36.375 
Q 16.890625 19.828125 20.59375 11.625 
Q 24.3125 3.421875 31.78125 3.421875 
z
M 31.78125 -1.421875 
Q 19.921875 -1.421875 13.25 8.53125 
Q 6.59375 18.5 6.59375 36.375 
Q 6.59375 54.296875 13.25 64.25 
Q 19.921875 74.21875 31.78125 74.21875 
Q 43.703125 74.21875 50.34375 64.25 
Q 56.984375 54.296875 56.984375 36.375 
Q 56.984375 18.5 50.34375 8.53125 
Q 43.703125 -1.421875 31.78125 -1.421875 
z
" id="DejaVuSerif-48"/>
       <path d="M 9.421875 5.078125 
Q 9.421875 7.8125 11.28125 9.71875 
Q 13.140625 11.625 15.921875 11.625 
Q 18.609375 11.625 20.5 9.71875 
Q 22.40625 7.8125 22.40625 5.078125 
Q 22.40625 2.390625 20.5 0.484375 
Q 18.609375 -1.421875 15.921875 -1.421875 
Q 13.140625 -1.421875 11.28125 0.453125 
Q 9.421875 2.34375 9.421875 5.078125 
z
" id="DejaVuSerif-46"/>
      </defs>
      <g transform="translate(41.522715 287.910437)scale(0.1 -0.1)">
       <use xlink:href="#DejaVuSerif-48"/>
       <use x="63.623047" xlink:href="#DejaVuSerif-46"/>
       <use x="95.410156" xlink:href="#DejaVuSerif-48"/>
       <use x="159.033203" xlink:href="#DejaVuSerif-48"/>
      </g>
     </g>
    </g>
    <g id="xtick_2">
     <g id="line2d_2">
      <g>
       <use style="stroke:#000000;stroke-width:0.8;" x="92.540209" xlink:href="#m8dfcf93ded" y="273.312"/>
      </g>
     </g>
     <g id="text_2">
      <!-- 0.25 -->
      <defs>
       <path d="M 12.796875 55.515625 
L 7.328125 55.515625 
L 7.328125 68.5 
Q 12.546875 71.296875 17.84375 72.75 
Q 23.140625 74.21875 28.21875 74.21875 
Q 39.59375 74.21875 46.1875 68.703125 
Q 52.78125 63.1875 52.78125 53.71875 
Q 52.78125 43.015625 37.84375 28.125 
Q 36.671875 27 36.078125 26.421875 
L 17.671875 8.015625 
L 48.09375 8.015625 
L 48.09375 17 
L 53.8125 17 
L 53.8125 0 
L 6.78125 0 
L 6.78125 5.328125 
L 28.90625 27.390625 
Q 36.234375 34.71875 39.359375 40.84375 
Q 42.484375 46.96875 42.484375 53.71875 
Q 42.484375 61.078125 38.640625 65.234375 
Q 34.8125 69.390625 28.078125 69.390625 
Q 21.09375 69.390625 17.28125 65.921875 
Q 13.484375 62.453125 12.796875 55.515625 
z
" id="DejaVuSerif-50"/>
       <path d="M 50.296875 72.90625 
L 50.296875 64.890625 
L 16.890625 64.890625 
L 16.890625 44 
Q 19.4375 45.75 22.828125 46.625 
Q 26.21875 47.515625 30.421875 47.515625 
Q 42.234375 47.515625 49.0625 40.96875 
Q 55.90625 34.421875 55.90625 23.09375 
Q 55.90625 11.53125 49 5.046875 
Q 42.09375 -1.421875 29.59375 -1.421875 
Q 24.5625 -1.421875 19.28125 -0.1875 
Q 14.015625 1.03125 8.5 3.515625 
L 8.5 17.671875 
L 14.015625 17.671875 
Q 14.453125 10.75 18.421875 7.078125 
Q 22.40625 3.421875 29.59375 3.421875 
Q 37.3125 3.421875 41.453125 8.5 
Q 45.609375 13.578125 45.609375 23.09375 
Q 45.609375 32.5625 41.484375 37.609375 
Q 37.359375 42.671875 29.59375 42.671875 
Q 25.203125 42.671875 21.84375 41.109375 
Q 18.5 39.546875 15.921875 36.28125 
L 11.71875 36.28125 
L 11.71875 72.90625 
z
" id="DejaVuSerif-53"/>
      </defs>
      <g transform="translate(81.407396 287.910437)scale(0.1 -0.1)">
       <use xlink:href="#DejaVuSerif-48"/>
       <use x="63.623047" xlink:href="#DejaVuSerif-46"/>
       <use x="95.410156" xlink:href="#DejaVuSerif-50"/>
       <use x="159.033203" xlink:href="#DejaVuSerif-53"/>
      </g>
     </g>
    </g>
    <g id="xtick_3">
     <g id="line2d_3">
      <g>
       <use style="stroke:#000000;stroke-width:0.8;" x="132.42489" xlink:href="#m8dfcf93ded" y="273.312"/>
      </g>
     </g>
     <g id="text_3">
      <!-- 0.50 -->
      <g transform="translate(121.292078 287.910437)scale(0.1 -0.1)">
       <use xlink:href="#DejaVuSerif-48"/>
       <use x="63.623047" xlink:href="#DejaVuSerif-46"/>
       <use x="95.410156" xlink:href="#DejaVuSerif-53"/>
       <use x="159.033203" xlink:href="#DejaVuSerif-48"/>
      </g>
     </g>
    </g>
    <g id="xtick_4">
     <g id="line2d_4">
      <g>
       <use style="stroke:#000000;stroke-width:0.8;" x="172.309571" xlink:href="#m8dfcf93ded" y="273.312"/>
      </g>
     </g>
     <g id="text_4">
      <!-- 0.75 -->
      <defs>
       <path d="M 56.390625 67.921875 
L 27.875 0 
L 20.609375 0 
L 47.796875 64.890625 
L 14.109375 64.890625 
L 14.109375 55.90625 
L 8.40625 55.90625 
L 8.40625 72.90625 
L 56.390625 72.90625 
z
" id="DejaVuSerif-55"/>
      </defs>
      <g transform="translate(161.176759 287.910437)scale(0.1 -0.1)">
       <use xlink:href="#DejaVuSerif-48"/>
       <use x="63.623047" xlink:href="#DejaVuSerif-46"/>
       <use x="95.410156" xlink:href="#DejaVuSerif-55"/>
       <use x="159.033203" xlink:href="#DejaVuSerif-53"/>
      </g>
     </g>
    </g>
    <g id="xtick_5">
     <g id="line2d_5">
      <g>
       <use style="stroke:#000000;stroke-width:0.8;" x="212.194253" xlink:href="#m8dfcf93ded" y="273.312"/>
      </g>
     </g>
     <g id="text_5">
      <!-- 1.00 -->
      <defs>
       <path d="M 14.203125 0 
L 14.203125 5.171875 
L 26.90625 5.171875 
L 26.90625 65.828125 
L 12.203125 56.296875 
L 12.203125 62.703125 
L 29.984375 74.21875 
L 36.71875 74.21875 
L 36.71875 5.171875 
L 49.421875 5.171875 
L 49.421875 0 
z
" id="DejaVuSerif-49"/>
      </defs>
      <g transform="translate(201.06144 287.910437)scale(0.1 -0.1)">
       <use xlink:href="#DejaVuSerif-49"/>
       <use x="63.623047" xlink:href="#DejaVuSerif-46"/>
       <use x="95.410156" xlink:href="#DejaVuSerif-48"/>
       <use x="159.033203" xlink:href="#DejaVuSerif-48"/>
      </g>
     </g>
    </g>
    <g id="xtick_6">
     <g id="line2d_6">
      <g>
       <use style="stroke:#000000;stroke-width:0.8;" x="252.078934" xlink:href="#m8dfcf93ded" y="273.312"/>
      </g>
     </g>
     <g id="text_6">
      <!-- 1.25 -->
      <g transform="translate(240.946121 287.910437)scale(0.1 -0.1)">
       <use xlink:href="#DejaVuSerif-49"/>
       <use x="63.623047" xlink:href="#DejaVuSerif-46"/>
       <use x="95.410156" xlink:href="#DejaVuSerif-50"/>
       <use x="159.033203" xlink:href="#DejaVuSerif-53"/>
      </g>
     </g>
    </g>
    <g id="xtick_7">
     <g id="line2d_7">
      <g>
       <use style="stroke:#000000;stroke-width:0.8;" x="291.963615" xlink:href="#m8dfcf93ded" y="273.312"/>
      </g>
     </g>
     <g id="text_7">
      <!-- 1.50 -->
      <g transform="translate(280.830802 287.910437)scale(0.1 -0.1)">
       <use xlink:href="#DejaVuSerif-49"/>
       <use x="63.623047" xlink:href="#DejaVuSerif-46"/>
       <use x="95.410156" xlink:href="#DejaVuSerif-53"/>
       <use x="159.033203" xlink:href="#DejaVuSerif-48"/>
      </g>
     </g>
    </g>
    <g id="xtick_8">
     <g id="line2d_8">
      <g>
       <use style="stroke:#000000;stroke-width:0.8;" x="331.848296" xlink:href="#m8dfcf93ded" y="273.312"/>
      </g>
     </g>
     <g id="text_8">
      <!-- 1.75 -->
      <g transform="translate(320.715484 287.910437)scale(0.1 -0.1)">
       <use xlink:href="#DejaVuSerif-49"/>
       <use x="63.623047" xlink:href="#DejaVuSerif-46"/>
       <use x="95.410156" xlink:href="#DejaVuSerif-55"/>
       <use x="159.033203" xlink:href="#DejaVuSerif-53"/>
      </g>
     </g>
    </g>
    <g id="xtick_9">
     <g id="line2d_9">
      <g>
       <use style="stroke:#000000;stroke-width:0.8;" x="371.732977" xlink:href="#m8dfcf93ded" y="273.312"/>
      </g>
     </g>
     <g id="text_9">
      <!-- 2.00 -->
      <g transform="translate(360.600165 287.910437)scale(0.1 -0.1)">
       <use xlink:href="#DejaVuSerif-50"/>
       <use x="63.623047" xlink:href="#DejaVuSerif-46"/>
       <use x="95.410156" xlink:href="#DejaVuSerif-48"/>
       <use x="159.033203" xlink:href="#DejaVuSerif-48"/>
      </g>
     </g>
    </g>
    <g id="text_10">
     <!-- Transverse Field $g$ -->
     <defs>
      <path d="M 19.09375 0 
L 19.09375 5.171875 
L 28.421875 5.171875 
L 28.421875 67.09375 
L 6.984375 67.09375 
L 6.984375 55.71875 
L 0.984375 55.71875 
L 0.984375 72.90625 
L 65.71875 72.90625 
L 65.71875 55.71875 
L 59.71875 55.71875 
L 59.71875 67.09375 
L 38.28125 67.09375 
L 38.28125 5.171875 
L 47.609375 5.171875 
L 47.609375 0 
z
" id="DejaVuSerif-84"/>
      <path d="M 47.796875 52 
L 47.796875 39.015625 
L 42.625 39.015625 
Q 42.390625 42.875 40.484375 44.78125 
Q 38.578125 46.6875 34.90625 46.6875 
Q 28.265625 46.6875 24.71875 42.09375 
Q 21.1875 37.5 21.1875 28.90625 
L 21.1875 5.171875 
L 31.59375 5.171875 
L 31.59375 0 
L 4.109375 0 
L 4.109375 5.171875 
L 12.203125 5.171875 
L 12.203125 46.78125 
L 3.609375 46.78125 
L 3.609375 51.90625 
L 21.1875 51.90625 
L 21.1875 42.671875 
Q 23.828125 48.09375 27.96875 50.703125 
Q 32.125 53.328125 38.09375 53.328125 
Q 40.28125 53.328125 42.703125 52.984375 
Q 45.125 52.640625 47.796875 52 
z
" id="DejaVuSerif-114"/>
      <path d="M 39.796875 16.3125 
L 39.796875 27.296875 
L 28.21875 27.296875 
Q 21.53125 27.296875 18.25 24.40625 
Q 14.984375 21.53125 14.984375 15.578125 
Q 14.984375 10.15625 18.296875 6.984375 
Q 21.625 3.8125 27.296875 3.8125 
Q 32.90625 3.8125 36.34375 7.28125 
Q 39.796875 10.75 39.796875 16.3125 
z
M 48.78125 32.421875 
L 48.78125 5.171875 
L 56.78125 5.171875 
L 56.78125 0 
L 39.796875 0 
L 39.796875 5.609375 
Q 36.8125 2 32.90625 0.28125 
Q 29 -1.421875 23.78125 -1.421875 
Q 15.140625 -1.421875 10.0625 3.171875 
Q 4.984375 7.765625 4.984375 15.578125 
Q 4.984375 23.640625 10.796875 28.078125 
Q 16.609375 32.515625 27.203125 32.515625 
L 39.796875 32.515625 
L 39.796875 36.078125 
Q 39.796875 42 36.203125 45.234375 
Q 32.625 48.484375 26.125 48.484375 
Q 20.75 48.484375 17.578125 46.046875 
Q 14.40625 43.609375 13.625 38.8125 
L 8.984375 38.8125 
L 8.984375 49.3125 
Q 13.671875 51.3125 18.09375 52.3125 
Q 22.515625 53.328125 26.703125 53.328125 
Q 37.5 53.328125 43.140625 47.96875 
Q 48.78125 42.625 48.78125 32.421875 
z
" id="DejaVuSerif-97"/>
      <path d="M 4.109375 0 
L 4.109375 5.171875 
L 12.203125 5.171875 
L 12.203125 46.6875 
L 3.609375 46.6875 
L 3.609375 51.90625 
L 21.1875 51.90625 
L 21.1875 42.671875 
Q 23.6875 47.953125 27.65625 50.640625 
Q 31.640625 53.328125 36.921875 53.328125 
Q 45.515625 53.328125 49.5625 48.390625 
Q 53.609375 43.453125 53.609375 33.015625 
L 53.609375 5.171875 
L 61.625 5.171875 
L 61.625 0 
L 36.8125 0 
L 36.8125 5.171875 
L 44.578125 5.171875 
L 44.578125 30.171875 
Q 44.578125 39.703125 42.234375 43.234375 
Q 39.890625 46.78125 33.984375 46.78125 
Q 27.734375 46.78125 24.453125 42.203125 
Q 21.1875 37.640625 21.1875 28.90625 
L 21.1875 5.171875 
L 29 5.171875 
L 29 0 
z
" id="DejaVuSerif-110"/>
      <path d="M 5.609375 2.875 
L 5.609375 14.984375 
L 10.796875 14.984375 
Q 10.984375 9.1875 14.421875 6.296875 
Q 17.875 3.421875 24.609375 3.421875 
Q 30.671875 3.421875 33.84375 5.6875 
Q 37.015625 7.953125 37.015625 12.3125 
Q 37.015625 15.71875 34.6875 17.8125 
Q 32.375 19.921875 24.90625 22.3125 
L 18.40625 24.515625 
Q 11.71875 26.65625 8.71875 29.875 
Q 5.71875 33.109375 5.71875 38.09375 
Q 5.71875 45.21875 10.9375 49.265625 
Q 16.15625 53.328125 25.390625 53.328125 
Q 29.5 53.328125 34.03125 52.25 
Q 38.578125 51.171875 43.40625 49.125 
L 43.40625 37.796875 
L 38.234375 37.796875 
Q 38.03125 42.828125 34.703125 45.65625 
Q 31.390625 48.484375 25.6875 48.484375 
Q 20.015625 48.484375 17.109375 46.484375 
Q 14.203125 44.484375 14.203125 40.484375 
Q 14.203125 37.203125 16.40625 35.21875 
Q 18.609375 33.25 25.203125 31.203125 
L 32.328125 29 
Q 39.703125 26.703125 42.9375 23.265625 
Q 46.1875 19.828125 46.1875 14.40625 
Q 46.1875 7.03125 40.546875 2.796875 
Q 34.90625 -1.421875 25 -1.421875 
Q 19.96875 -1.421875 15.1875 -0.34375 
Q 10.40625 0.734375 5.609375 2.875 
z
" id="DejaVuSerif-115"/>
      <path d="M 24.703125 0 
L 5.609375 46.6875 
L -0.296875 46.6875 
L -0.296875 51.90625 
L 23.578125 51.90625 
L 23.578125 46.6875 
L 15.28125 46.6875 
L 29.890625 10.984375 
L 44.484375 46.6875 
L 36.71875 46.6875 
L 36.71875 51.90625 
L 56.203125 51.90625 
L 56.203125 46.6875 
L 50.390625 46.6875 
L 31.296875 0 
z
" id="DejaVuSerif-118"/>
      <path d="M 54.203125 25 
L 15.484375 25 
L 15.484375 24.609375 
Q 15.484375 14.109375 19.4375 8.765625 
Q 23.390625 3.421875 31.109375 3.421875 
Q 37.015625 3.421875 40.796875 6.515625 
Q 44.578125 9.625 46.09375 15.71875 
L 53.328125 15.71875 
Q 51.171875 7.171875 45.375 2.875 
Q 39.59375 -1.421875 30.171875 -1.421875 
Q 18.796875 -1.421875 11.890625 6.078125 
Q 4.984375 13.578125 4.984375 25.984375 
Q 4.984375 38.28125 11.765625 45.796875 
Q 18.5625 53.328125 29.59375 53.328125 
Q 41.359375 53.328125 47.65625 46.0625 
Q 53.953125 38.8125 54.203125 25 
z
M 43.609375 30.171875 
Q 43.3125 39.265625 39.765625 43.875 
Q 36.234375 48.484375 29.59375 48.484375 
Q 23.390625 48.484375 19.828125 43.84375 
Q 16.265625 39.203125 15.484375 30.171875 
z
" id="DejaVuSerif-101"/>
      <path id="DejaVuSerif-32"/>
      <path d="M 5.515625 0 
L 5.515625 5.171875 
L 14.796875 5.171875 
L 14.796875 67.671875 
L 5.515625 67.671875 
L 5.515625 72.90625 
L 65.1875 72.90625 
L 65.1875 56.6875 
L 59.1875 56.6875 
L 59.1875 66.890625 
L 24.703125 66.890625 
L 24.703125 42.484375 
L 49.609375 42.484375 
L 49.609375 51.609375 
L 55.609375 51.609375 
L 55.609375 27.390625 
L 49.609375 27.390625 
L 49.609375 36.53125 
L 24.703125 36.53125 
L 24.703125 5.171875 
L 36.375 5.171875 
L 36.375 0 
z
" id="DejaVuSerif-70"/>
      <path d="M 9.71875 68.015625 
Q 9.71875 70.265625 11.34375 71.921875 
Q 12.984375 73.578125 15.28125 73.578125 
Q 17.53125 73.578125 19.15625 71.921875 
Q 20.796875 70.265625 20.796875 68.015625 
Q 20.796875 65.71875 19.1875 64.109375 
Q 17.578125 62.5 15.28125 62.5 
Q 12.984375 62.5 11.34375 64.109375 
Q 9.71875 65.71875 9.71875 68.015625 
z
M 21.1875 5.171875 
L 29.6875 5.171875 
L 29.6875 0 
L 3.609375 0 
L 3.609375 5.171875 
L 12.203125 5.171875 
L 12.203125 46.6875 
L 3.609375 46.6875 
L 3.609375 51.90625 
L 21.1875 51.90625 
z
" id="DejaVuSerif-105"/>
      <path d="M 20.515625 5.171875 
L 29 5.171875 
L 29 0 
L 2.875 0 
L 2.875 5.171875 
L 11.53125 5.171875 
L 11.53125 70.796875 
L 2.875 70.796875 
L 2.875 75.984375 
L 20.515625 75.984375 
z
" id="DejaVuSerif-108"/>
      <path d="M 52.484375 5.171875 
L 61.078125 5.171875 
L 61.078125 0 
L 43.5 0 
L 43.5 8.109375 
Q 40.875 3.21875 36.796875 0.890625 
Q 32.71875 -1.421875 26.703125 -1.421875 
Q 17.140625 -1.421875 11.0625 6.171875 
Q 4.984375 13.765625 4.984375 25.984375 
Q 4.984375 38.1875 11.03125 45.75 
Q 17.09375 53.328125 26.703125 53.328125 
Q 32.71875 53.328125 36.796875 51 
Q 40.875 48.6875 43.5 43.796875 
L 43.5 70.796875 
L 35.015625 70.796875 
L 35.015625 75.984375 
L 52.484375 75.984375 
z
M 43.5 23.390625 
L 43.5 28.515625 
Q 43.5 37.84375 39.90625 42.765625 
Q 36.328125 47.703125 29.5 47.703125 
Q 22.5625 47.703125 19.015625 42.234375 
Q 15.484375 36.765625 15.484375 25.984375 
Q 15.484375 15.234375 19.015625 9.71875 
Q 22.5625 4.203125 29.5 4.203125 
Q 36.328125 4.203125 39.90625 9.109375 
Q 43.5 14.015625 43.5 23.390625 
z
" id="DejaVuSerif-100"/>
      <path d="M 1.421875 -14.3125 
Q 1.421875 -11.859375 3.09375 -10.03125 
Q 4.78125 -8.203125 7.171875 -8.203125 
Q 8.796875 -8.203125 9.890625 -9.203125 
Q 10.984375 -10.203125 10.984375 -11.8125 
Q 10.984375 -13.625 9.953125 -15.0625 
Q 8.9375 -16.5 7.328125 -17.09375 
Q 10.015625 -17.921875 15.71875 -17.921875 
Q 20.3125 -17.921875 24.125 -14.375 
Q 27.9375 -10.84375 29.109375 -6.203125 
L 31.984375 5.515625 
Q 26.5625 0 20.703125 0 
Q 16.40625 0 13.34375 2.1875 
Q 10.296875 4.390625 8.6875 8.046875 
Q 7.078125 11.71875 7.078125 15.828125 
Q 7.078125 20.40625 8.953125 25.4375 
Q 10.84375 30.46875 14.234375 34.765625 
Q 17.625 39.0625 22.015625 41.625 
Q 26.421875 44.1875 31.296875 44.1875 
Q 34.234375 44.1875 36.578125 42.578125 
Q 38.921875 40.96875 40.28125 38.28125 
Q 41.265625 42.1875 44.578125 42.1875 
Q 45.84375 42.1875 46.71875 41.421875 
Q 47.609375 40.671875 47.609375 39.40625 
Q 47.609375 39.109375 47.578125 38.953125 
Q 47.5625 38.8125 47.515625 38.625 
L 36.078125 -6.78125 
Q 35.296875 -9.90625 33.203125 -12.5 
Q 31.109375 -15.09375 28.265625 -16.828125 
Q 25.4375 -18.5625 22.0625 -19.53125 
Q 18.703125 -20.515625 15.578125 -20.515625 
Q 9.859375 -20.515625 5.640625 -19.40625 
Q 1.421875 -18.3125 1.421875 -14.3125 
z
M 20.90625 2.59375 
Q 27.296875 2.59375 33.5 11.375 
L 39.015625 33.203125 
Q 38.328125 36.671875 36.28125 39.140625 
Q 34.234375 41.609375 31.109375 41.609375 
Q 27.78125 41.609375 24.828125 38.890625 
Q 21.875 36.1875 19.921875 32.421875 
Q 18.0625 28.8125 16.328125 22.046875 
Q 14.59375 15.28125 14.59375 11.375 
Q 14.59375 7.953125 16.15625 5.265625 
Q 17.71875 2.59375 20.90625 2.59375 
z
" id="Cmmi10-103"/>
     </defs>
     <g transform="translate(153.588125 306.150125)scale(0.16 -0.16)">
      <use transform="translate(0 0.015625)" xlink:href="#DejaVuSerif-84"/>
      <use transform="translate(66.699219 0.015625)" xlink:href="#DejaVuSerif-114"/>
      <use transform="translate(114.501953 0.015625)" xlink:href="#DejaVuSerif-97"/>
      <use transform="translate(174.121094 0.015625)" xlink:href="#DejaVuSerif-110"/>
      <use transform="translate(238.525391 0.015625)" xlink:href="#DejaVuSerif-115"/>
      <use transform="translate(289.84375 0.015625)" xlink:href="#DejaVuSerif-118"/>
      <use transform="translate(346.337891 0.015625)" xlink:href="#DejaVuSerif-101"/>
      <use transform="translate(405.517578 0.015625)" xlink:href="#DejaVuSerif-114"/>
      <use transform="translate(453.320312 0.015625)" xlink:href="#DejaVuSerif-115"/>
      <use transform="translate(504.638672 0.015625)" xlink:href="#DejaVuSerif-101"/>
      <use transform="translate(563.818359 0.015625)" xlink:href="#DejaVuSerif-32"/>
      <use transform="translate(595.605469 0.015625)" xlink:href="#DejaVuSerif-70"/>
      <use transform="translate(664.990234 0.015625)" xlink:href="#DejaVuSerif-105"/>
      <use transform="translate(696.972656 0.015625)" xlink:href="#DejaVuSerif-101"/>
      <use transform="translate(756.152344 0.015625)" xlink:href="#DejaVuSerif-108"/>
      <use transform="translate(788.134766 0.015625)" xlink:href="#DejaVuSerif-100"/>
      <use transform="translate(852.148438 0.015625)" xlink:href="#DejaVuSerif-32"/>
      <use transform="translate(883.935547 0.015625)" xlink:href="#Cmmi10-103"/>
     </g>
    </g>
   </g>
   <g id="matplotlib.axis_2">
    <g id="ytick_1">
     <g id="line2d_10">
      <defs>
       <path d="M 0 0 
L -3.5 0 
" id="mf128888243" style="stroke:#000000;stroke-width:0.8;"/>
      </defs>
      <g>
       <use style="stroke:#000000;stroke-width:0.8;" x="49.588125" xlink:href="#mf128888243" y="258.427452"/>
      </g>
     </g>
     <g id="text_11">
      <!-- 0.0 -->
      <g transform="translate(26.685 262.226671)scale(0.1 -0.1)">
       <use xlink:href="#DejaVuSerif-48"/>
       <use x="63.623047" xlink:href="#DejaVuSerif-46"/>
       <use x="95.410156" xlink:href="#DejaVuSerif-48"/>
      </g>
     </g>
    </g>
    <g id="ytick_2">
     <g id="line2d_11">
      <g>
       <use style="stroke:#000000;stroke-width:0.8;" x="49.588125" xlink:href="#mf128888243" y="211.158871"/>
      </g>
     </g>
     <g id="text_12">
      <!-- 0.2 -->
      <g transform="translate(26.685 214.95809)scale(0.1 -0.1)">
       <use xlink:href="#DejaVuSerif-48"/>
       <use x="63.623047" xlink:href="#DejaVuSerif-46"/>
       <use x="95.410156" xlink:href="#DejaVuSerif-50"/>
      </g>
     </g>
    </g>
    <g id="ytick_3">
     <g id="line2d_12">
      <g>
       <use style="stroke:#000000;stroke-width:0.8;" x="49.588125" xlink:href="#mf128888243" y="163.89029"/>
      </g>
     </g>
     <g id="text_13">
      <!-- 0.4 -->
      <defs>
       <path d="M 34.90625 24.703125 
L 34.90625 63.484375 
L 10.015625 24.703125 
z
M 56.390625 0 
L 23.1875 0 
L 23.1875 5.171875 
L 34.90625 5.171875 
L 34.90625 19.484375 
L 3.078125 19.484375 
L 3.078125 24.8125 
L 35.015625 74.21875 
L 44.671875 74.21875 
L 44.671875 24.703125 
L 58.59375 24.703125 
L 58.59375 19.484375 
L 44.671875 19.484375 
L 44.671875 5.171875 
L 56.390625 5.171875 
z
" id="DejaVuSerif-52"/>
      </defs>
      <g transform="translate(26.685 167.689509)scale(0.1 -0.1)">
       <use xlink:href="#DejaVuSerif-48"/>
       <use x="63.623047" xlink:href="#DejaVuSerif-46"/>
       <use x="95.410156" xlink:href="#DejaVuSerif-52"/>
      </g>
     </g>
    </g>
    <g id="ytick_4">
     <g id="line2d_13">
      <g>
       <use style="stroke:#000000;stroke-width:0.8;" x="49.588125" xlink:href="#mf128888243" y="116.62171"/>
      </g>
     </g>
     <g id="text_14">
      <!-- 0.6 -->
      <defs>
       <path d="M 32.71875 3.421875 
Q 39.59375 3.421875 43.296875 8.46875 
Q 47.015625 13.53125 47.015625 23 
Q 47.015625 32.46875 43.296875 37.515625 
Q 39.59375 42.578125 32.71875 42.578125 
Q 25.734375 42.578125 22.0625 37.6875 
Q 18.40625 32.8125 18.40625 23.578125 
Q 18.40625 13.875 22.109375 8.640625 
Q 25.828125 3.421875 32.71875 3.421875 
z
M 16.796875 40.140625 
Q 20.125 43.796875 24.3125 45.59375 
Q 28.515625 47.40625 33.796875 47.40625 
Q 44.671875 47.40625 51 40.859375 
Q 57.328125 34.328125 57.328125 23 
Q 57.328125 11.921875 50.515625 5.25 
Q 43.703125 -1.421875 32.328125 -1.421875 
Q 19.96875 -1.421875 13.328125 7.78125 
Q 6.6875 17 6.6875 34.078125 
Q 6.6875 53.21875 14.546875 63.71875 
Q 22.40625 74.21875 36.71875 74.21875 
Q 40.578125 74.21875 44.828125 73.484375 
Q 49.078125 72.75 53.515625 71.296875 
L 53.515625 59.28125 
L 48 59.28125 
Q 47.40625 64.203125 44.234375 66.796875 
Q 41.0625 69.390625 35.6875 69.390625 
Q 26.21875 69.390625 21.578125 62.203125 
Q 16.9375 55.03125 16.796875 40.140625 
z
" id="DejaVuSerif-54"/>
      </defs>
      <g transform="translate(26.685 120.420928)scale(0.1 -0.1)">
       <use xlink:href="#DejaVuSerif-48"/>
       <use x="63.623047" xlink:href="#DejaVuSerif-46"/>
       <use x="95.410156" xlink:href="#DejaVuSerif-54"/>
      </g>
     </g>
    </g>
    <g id="ytick_5">
     <g id="line2d_14">
      <g>
       <use style="stroke:#000000;stroke-width:0.8;" x="49.588125" xlink:href="#mf128888243" y="69.353129"/>
      </g>
     </g>
     <g id="text_15">
      <!-- 0.8 -->
      <defs>
       <path d="M 46.578125 19.921875 
Q 46.578125 27.734375 42.6875 32.046875 
Q 38.8125 36.375 31.78125 36.375 
Q 24.75 36.375 20.875 32.046875 
Q 17 27.734375 17 19.921875 
Q 17 12.0625 20.875 7.734375 
Q 24.75 3.421875 31.78125 3.421875 
Q 38.8125 3.421875 42.6875 7.734375 
Q 46.578125 12.0625 46.578125 19.921875 
z
M 44.578125 55.328125 
Q 44.578125 61.96875 41.203125 65.671875 
Q 37.84375 69.390625 31.78125 69.390625 
Q 25.78125 69.390625 22.390625 65.671875 
Q 19 61.96875 19 55.328125 
Q 19 48.640625 22.390625 44.921875 
Q 25.78125 41.21875 31.78125 41.21875 
Q 37.84375 41.21875 41.203125 44.921875 
Q 44.578125 48.640625 44.578125 55.328125 
z
M 39.3125 38.8125 
Q 47.609375 37.703125 52.25 32.6875 
Q 56.890625 27.6875 56.890625 19.921875 
Q 56.890625 9.671875 50.390625 4.125 
Q 43.890625 -1.421875 31.78125 -1.421875 
Q 19.734375 -1.421875 13.203125 4.125 
Q 6.6875 9.671875 6.6875 19.921875 
Q 6.6875 27.6875 11.328125 32.6875 
Q 15.96875 37.703125 24.3125 38.8125 
Q 16.9375 40.140625 13 44.40625 
Q 9.078125 48.6875 9.078125 55.328125 
Q 9.078125 64.109375 15.125 69.15625 
Q 21.1875 74.21875 31.78125 74.21875 
Q 42.390625 74.21875 48.4375 69.15625 
Q 54.5 64.109375 54.5 55.328125 
Q 54.5 48.6875 50.5625 44.40625 
Q 46.625 40.140625 39.3125 38.8125 
z
" id="DejaVuSerif-56"/>
      </defs>
      <g transform="translate(26.685 73.152348)scale(0.1 -0.1)">
       <use xlink:href="#DejaVuSerif-48"/>
       <use x="63.623047" xlink:href="#DejaVuSerif-46"/>
       <use x="95.410156" xlink:href="#DejaVuSerif-56"/>
      </g>
     </g>
    </g>
    <g id="ytick_6">
     <g id="line2d_15">
      <g>
       <use style="stroke:#000000;stroke-width:0.8;" x="49.588125" xlink:href="#mf128888243" y="22.084548"/>
      </g>
     </g>
     <g id="text_16">
      <!-- 1.0 -->
      <g transform="translate(26.685 25.883767)scale(0.1 -0.1)">
       <use xlink:href="#DejaVuSerif-49"/>
       <use x="63.623047" xlink:href="#DejaVuSerif-46"/>
       <use x="95.410156" xlink:href="#DejaVuSerif-48"/>
      </g>
     </g>
    </g>
    <g id="text_17">
     <!-- Persistent Measures (pnorm) -->
     <defs>
      <path d="M 24.703125 37.109375 
L 37.59375 37.109375 
Q 44.875 37.109375 48.671875 41.03125 
Q 52.484375 44.96875 52.484375 52.390625 
Q 52.484375 59.859375 48.671875 63.765625 
Q 44.875 67.671875 37.59375 67.671875 
L 24.703125 67.671875 
z
M 5.515625 0 
L 5.515625 5.171875 
L 14.796875 5.171875 
L 14.796875 67.671875 
L 5.515625 67.671875 
L 5.515625 72.90625 
L 39.984375 72.90625 
Q 50.921875 72.90625 57.3125 67.359375 
Q 63.71875 61.8125 63.71875 52.390625 
Q 63.71875 43.015625 57.3125 37.453125 
Q 50.921875 31.890625 39.984375 31.890625 
L 24.703125 31.890625 
L 24.703125 5.171875 
L 35.984375 5.171875 
L 35.984375 0 
z
" id="DejaVuSerif-80"/>
      <path d="M 10.796875 46.6875 
L 2.875 46.6875 
L 2.875 51.90625 
L 10.796875 51.90625 
L 10.796875 68.015625 
L 19.828125 68.015625 
L 19.828125 51.90625 
L 36.71875 51.90625 
L 36.71875 46.6875 
L 19.828125 46.6875 
L 19.828125 13.71875 
Q 19.828125 7.125 21.09375 5.265625 
Q 22.359375 3.421875 25.78125 3.421875 
Q 29.296875 3.421875 30.90625 5.484375 
Q 32.515625 7.5625 32.625 12.203125 
L 39.40625 12.203125 
Q 39.015625 5.125 35.546875 1.84375 
Q 32.078125 -1.421875 25 -1.421875 
Q 17.234375 -1.421875 14.015625 2.015625 
Q 10.796875 5.46875 10.796875 13.71875 
z
" id="DejaVuSerif-116"/>
      <path d="M 5.515625 0 
L 5.515625 5.171875 
L 14.796875 5.171875 
L 14.796875 67.671875 
L 4.984375 67.671875 
L 4.984375 72.90625 
L 26.21875 72.90625 
L 51.8125 21 
L 77.390625 72.90625 
L 97.3125 72.90625 
L 97.3125 67.671875 
L 87.59375 67.671875 
L 87.59375 5.171875 
L 96.921875 5.171875 
L 96.921875 0 
L 68.40625 0 
L 68.40625 5.171875 
L 77.6875 5.171875 
L 77.6875 61.53125 
L 52.6875 10.6875 
L 45.796875 10.6875 
L 20.796875 61.53125 
L 20.796875 5.171875 
L 30.078125 5.171875 
L 30.078125 0 
z
" id="DejaVuSerif-77"/>
      <path d="M 35.40625 51.90625 
L 52.203125 51.90625 
L 52.203125 5.171875 
L 60.6875 5.171875 
L 60.6875 0 
L 43.21875 0 
L 43.21875 9.1875 
Q 40.71875 4 36.765625 1.28125 
Q 32.8125 -1.421875 27.59375 -1.421875 
Q 18.953125 -1.421875 14.875 3.484375 
Q 10.796875 8.40625 10.796875 18.890625 
L 10.796875 46.6875 
L 2.6875 46.6875 
L 2.6875 51.90625 
L 19.828125 51.90625 
L 19.828125 21.6875 
Q 19.828125 12.203125 22.140625 8.6875 
Q 24.46875 5.171875 30.421875 5.171875 
Q 36.671875 5.171875 39.9375 9.765625 
Q 43.21875 14.359375 43.21875 23.09375 
L 43.21875 46.6875 
L 35.40625 46.6875 
z
" id="DejaVuSerif-117"/>
      <path d="M 31.890625 -15.578125 
Q 20.015625 -10.25 13.953125 1.296875 
Q 7.90625 12.84375 7.90625 30.171875 
Q 7.90625 47.5625 13.953125 59.109375 
Q 20.015625 70.65625 31.890625 75.984375 
L 31.890625 71.1875 
Q 24.359375 66.015625 21.09375 56.609375 
Q 17.828125 47.21875 17.828125 30.171875 
Q 17.828125 13.1875 21.09375 3.78125 
Q 24.359375 -5.609375 31.890625 -10.796875 
z
" id="DejaVuSerif-40"/>
      <path d="M 20.515625 28.515625 
L 20.515625 23.390625 
Q 20.515625 14.015625 24.09375 9.109375 
Q 27.6875 4.203125 34.515625 4.203125 
Q 41.40625 4.203125 44.9375 9.71875 
Q 48.484375 15.234375 48.484375 25.984375 
Q 48.484375 36.765625 44.9375 42.234375 
Q 41.40625 47.703125 34.515625 47.703125 
Q 27.6875 47.703125 24.09375 42.765625 
Q 20.515625 37.84375 20.515625 28.515625 
z
M 11.53125 46.6875 
L 2.875 46.6875 
L 2.875 51.90625 
L 20.515625 51.90625 
L 20.515625 43.796875 
Q 23.140625 48.6875 27.21875 51 
Q 31.296875 53.328125 37.3125 53.328125 
Q 46.875 53.328125 52.921875 45.75 
Q 58.984375 38.1875 58.984375 25.984375 
Q 58.984375 13.765625 52.921875 6.171875 
Q 46.875 -1.421875 37.3125 -1.421875 
Q 31.296875 -1.421875 27.21875 0.890625 
Q 23.140625 3.21875 20.515625 8.109375 
L 20.515625 -15.578125 
L 29 -15.578125 
L 29 -20.796875 
L 2.875 -20.796875 
L 2.875 -15.578125 
L 11.53125 -15.578125 
z
" id="DejaVuSerif-112"/>
      <path d="M 30.078125 3.421875 
Q 37.3125 3.421875 40.984375 9.125 
Q 44.671875 14.84375 44.671875 25.984375 
Q 44.671875 37.109375 40.984375 42.796875 
Q 37.3125 48.484375 30.078125 48.484375 
Q 22.859375 48.484375 19.171875 42.796875 
Q 15.484375 37.109375 15.484375 25.984375 
Q 15.484375 14.84375 19.1875 9.125 
Q 22.90625 3.421875 30.078125 3.421875 
z
M 30.078125 -1.421875 
Q 18.75 -1.421875 11.859375 6.078125 
Q 4.984375 13.578125 4.984375 25.984375 
Q 4.984375 38.375 11.84375 45.84375 
Q 18.703125 53.328125 30.078125 53.328125 
Q 41.453125 53.328125 48.3125 45.84375 
Q 55.171875 38.375 55.171875 25.984375 
Q 55.171875 13.578125 48.3125 6.078125 
Q 41.453125 -1.421875 30.078125 -1.421875 
z
" id="DejaVuSerif-111"/>
      <path d="M 51.8125 41.796875 
Q 54.390625 47.515625 58.421875 50.421875 
Q 62.453125 53.328125 67.828125 53.328125 
Q 75.984375 53.328125 79.984375 48.265625 
Q 83.984375 43.21875 83.984375 33.015625 
L 83.984375 5.171875 
L 92.09375 5.171875 
L 92.09375 0 
L 67.1875 0 
L 67.1875 5.171875 
L 75 5.171875 
L 75 31.984375 
Q 75 39.9375 72.65625 43.3125 
Q 70.3125 46.6875 64.890625 46.6875 
Q 58.890625 46.6875 55.734375 42.140625 
Q 52.59375 37.59375 52.59375 28.90625 
L 52.59375 5.171875 
L 60.40625 5.171875 
L 60.40625 0 
L 35.796875 0 
L 35.796875 5.171875 
L 43.609375 5.171875 
L 43.609375 32.328125 
Q 43.609375 40.09375 41.265625 43.390625 
Q 38.921875 46.6875 33.5 46.6875 
Q 27.484375 46.6875 24.328125 42.140625 
Q 21.1875 37.59375 21.1875 28.90625 
L 21.1875 5.171875 
L 29 5.171875 
L 29 0 
L 4.109375 0 
L 4.109375 5.171875 
L 12.203125 5.171875 
L 12.203125 46.78125 
L 3.609375 46.78125 
L 3.609375 51.90625 
L 21.1875 51.90625 
L 21.1875 42.671875 
Q 23.6875 47.859375 27.53125 50.59375 
Q 31.390625 53.328125 36.28125 53.328125 
Q 42.328125 53.328125 46.375 50.3125 
Q 50.4375 47.3125 51.8125 41.796875 
z
" id="DejaVuSerif-109"/>
      <path d="M 7.078125 -15.578125 
L 7.078125 -10.796875 
Q 14.59375 -5.609375 17.890625 3.78125 
Q 21.1875 13.1875 21.1875 30.171875 
Q 21.1875 47.21875 17.890625 56.609375 
Q 14.59375 66.015625 7.078125 71.1875 
L 7.078125 75.984375 
Q 19 70.65625 25.046875 59.109375 
Q 31.109375 47.5625 31.109375 30.171875 
Q 31.109375 12.84375 25.046875 1.296875 
Q 19 -10.25 7.078125 -15.578125 
z
" id="DejaVuSerif-41"/>
     </defs>
     <g transform="translate(19.3575 258.7235)rotate(-90)scale(0.16 -0.16)">
      <use xlink:href="#DejaVuSerif-80"/>
      <use x="67.222656" xlink:href="#DejaVuSerif-101"/>
      <use x="126.402344" xlink:href="#DejaVuSerif-114"/>
      <use x="174.205078" xlink:href="#DejaVuSerif-115"/>
      <use x="225.523438" xlink:href="#DejaVuSerif-105"/>
      <use x="257.505859" xlink:href="#DejaVuSerif-115"/>
      <use x="308.824219" xlink:href="#DejaVuSerif-116"/>
      <use x="349.009766" xlink:href="#DejaVuSerif-101"/>
      <use x="408.189453" xlink:href="#DejaVuSerif-110"/>
      <use x="472.59375" xlink:href="#DejaVuSerif-116"/>
      <use x="512.779297" xlink:href="#DejaVuSerif-32"/>
      <use x="544.566406" xlink:href="#DejaVuSerif-77"/>
      <use x="646.958984" xlink:href="#DejaVuSerif-101"/>
      <use x="706.138672" xlink:href="#DejaVuSerif-97"/>
      <use x="765.757812" xlink:href="#DejaVuSerif-115"/>
      <use x="817.076172" xlink:href="#DejaVuSerif-117"/>
      <use x="881.480469" xlink:href="#DejaVuSerif-114"/>
      <use x="929.283203" xlink:href="#DejaVuSerif-101"/>
      <use x="988.462891" xlink:href="#DejaVuSerif-115"/>
      <use x="1039.78125" xlink:href="#DejaVuSerif-32"/>
      <use x="1071.568359" xlink:href="#DejaVuSerif-40"/>
      <use x="1110.582031" xlink:href="#DejaVuSerif-112"/>
      <use x="1174.595703" xlink:href="#DejaVuSerif-110"/>
      <use x="1239" xlink:href="#DejaVuSerif-111"/>
      <use x="1299.205078" xlink:href="#DejaVuSerif-114"/>
      <use x="1347.007812" xlink:href="#DejaVuSerif-109"/>
      <use x="1441.832031" xlink:href="#DejaVuSerif-41"/>
     </g>
    </g>
   </g>
   <g id="patch_3">
    <path d="M 49.588125 273.312 
L 49.588125 7.2 
" style="fill:none;stroke:#000000;stroke-linecap:square;stroke-linejoin:miter;stroke-width:0.8;"/>
   </g>
   <g id="patch_4">
    <path d="M 406.708125 273.312 
L 406.708125 7.2 
" style="fill:none;stroke:#000000;stroke-linecap:square;stroke-linejoin:miter;stroke-width:0.8;"/>
   </g>
   <g id="patch_5">
    <path d="M 49.588125 273.312 
L 406.708125 273.312 
" style="fill:none;stroke:#000000;stroke-linecap:square;stroke-linejoin:miter;stroke-width:0.8;"/>
   </g>
   <g id="patch_6">
    <path d="M 49.588125 7.2 
L 406.708125 7.2 
" style="fill:none;stroke:#000000;stroke-linecap:square;stroke-linejoin:miter;stroke-width:0.8;"/>
   </g>
   <g id="legend_1">
    <g id="patch_7">
     <path d="M 57.988125 122.4825 
L 138.9525 122.4825 
Q 141.3525 122.4825 141.3525 120.0825 
L 141.3525 15.6 
Q 141.3525 13.2 138.9525 13.2 
L 57.988125 13.2 
Q 55.588125 13.2 55.588125 15.6 
L 55.588125 120.0825 
Q 55.588125 122.4825 57.988125 122.4825 
z
" style="fill:#ffffff;opacity:0.8;stroke:#cccccc;stroke-linejoin:miter;"/>
    </g>
    <g id="PathCollection_7">
     <g>
      <use style="fill:#0072b2;fill-opacity:0.7;stroke:#000000;stroke-opacity:0.7;" x="72.388125" xlink:href="#mbd2bea7519" y="23.968125"/>
     </g>
    </g>
    <g id="text_18">
     <!-- L-32 -->
     <defs>
      <path d="M 5.515625 0 
L 5.515625 5.171875 
L 14.796875 5.171875 
L 14.796875 67.671875 
L 5.515625 67.671875 
L 5.515625 72.90625 
L 33.984375 72.90625 
L 33.984375 67.671875 
L 24.703125 67.671875 
L 24.703125 6 
L 58.015625 6 
L 58.015625 18.21875 
L 64.015625 18.21875 
L 64.015625 0 
z
" id="DejaVuSerif-76"/>
      <path d="M 4.390625 30.609375 
L 29.390625 30.609375 
L 29.390625 23 
L 4.390625 23 
z
" id="DejaVuSerif-45"/>
      <path d="M 9.71875 69.828125 
Q 15.4375 71.96875 20.671875 73.09375 
Q 25.921875 74.21875 30.515625 74.21875 
Q 41.21875 74.21875 47.21875 69.59375 
Q 53.21875 64.984375 53.21875 56.78125 
Q 53.21875 50.203125 49.0625 45.78125 
Q 44.921875 41.359375 37.3125 39.796875 
Q 46.296875 38.53125 51.25 33.28125 
Q 56.203125 28.03125 56.203125 19.671875 
Q 56.203125 9.46875 49.34375 4.015625 
Q 42.484375 -1.421875 29.59375 -1.421875 
Q 23.875 -1.421875 18.421875 -0.1875 
Q 12.984375 1.03125 7.625 3.515625 
L 7.625 17.671875 
L 13.09375 17.671875 
Q 13.578125 10.640625 17.828125 7.03125 
Q 22.078125 3.421875 29.78125 3.421875 
Q 37.25 3.421875 41.578125 7.734375 
Q 45.90625 12.0625 45.90625 19.578125 
Q 45.90625 28.171875 41.453125 32.59375 
Q 37.015625 37.015625 28.421875 37.015625 
L 23.78125 37.015625 
L 23.78125 42 
L 26.21875 42 
Q 34.765625 42 39.03125 45.53125 
Q 43.3125 49.078125 43.3125 56.203125 
Q 43.3125 62.59375 39.796875 65.984375 
Q 36.28125 69.390625 29.6875 69.390625 
Q 23.09375 69.390625 19.453125 66.265625 
Q 15.828125 63.140625 15.1875 56.984375 
L 9.71875 56.984375 
z
" id="DejaVuSerif-51"/>
     </defs>
     <g transform="translate(93.988125 27.118125)scale(0.12 -0.12)">
      <use xlink:href="#DejaVuSerif-76"/>
      <use x="66.40625" xlink:href="#DejaVuSerif-45"/>
      <use x="100.195312" xlink:href="#DejaVuSerif-51"/>
      <use x="163.818359" xlink:href="#DejaVuSerif-50"/>
     </g>
    </g>
    <g id="PathCollection_8">
     <g>
      <use style="fill:#009e73;fill-opacity:0.7;stroke:#000000;stroke-opacity:0.7;" x="72.388125" xlink:href="#mf12c4c6b0a" y="41.581875"/>
     </g>
    </g>
    <g id="text_19">
     <!-- L-64 -->
     <g transform="translate(93.988125 44.731875)scale(0.12 -0.12)">
      <use xlink:href="#DejaVuSerif-76"/>
      <use x="66.40625" xlink:href="#DejaVuSerif-45"/>
      <use x="100.195312" xlink:href="#DejaVuSerif-54"/>
      <use x="163.818359" xlink:href="#DejaVuSerif-52"/>
     </g>
    </g>
    <g id="PathCollection_9">
     <g>
      <use style="fill:#d55e00;fill-opacity:0.7;stroke:#000000;stroke-opacity:0.7;" x="72.388125" xlink:href="#m6c85dbd0b6" y="59.195625"/>
     </g>
    </g>
    <g id="text_20">
     <!-- L-128 -->
     <g transform="translate(93.988125 62.345625)scale(0.12 -0.12)">
      <use xlink:href="#DejaVuSerif-76"/>
      <use x="66.40625" xlink:href="#DejaVuSerif-45"/>
      <use x="100.195312" xlink:href="#DejaVuSerif-49"/>
      <use x="163.818359" xlink:href="#DejaVuSerif-50"/>
      <use x="227.441406" xlink:href="#DejaVuSerif-56"/>
     </g>
    </g>
    <g id="PathCollection_10">
     <g>
      <use style="fill:#cc79a7;fill-opacity:0.7;stroke:#000000;stroke-opacity:0.7;" x="72.388125" xlink:href="#ma1ee716ce4" y="76.809375"/>
     </g>
    </g>
    <g id="text_21">
     <!-- L-256 -->
     <g transform="translate(93.988125 79.959375)scale(0.12 -0.12)">
      <use xlink:href="#DejaVuSerif-76"/>
      <use x="66.40625" xlink:href="#DejaVuSerif-45"/>
      <use x="100.195312" xlink:href="#DejaVuSerif-50"/>
      <use x="163.818359" xlink:href="#DejaVuSerif-53"/>
      <use x="227.441406" xlink:href="#DejaVuSerif-54"/>
     </g>
    </g>
    <g id="PathCollection_11">
     <g>
      <use style="fill:#f0e442;fill-opacity:0.7;stroke:#000000;stroke-opacity:0.7;" x="72.388125" xlink:href="#m504dc5783c" y="94.423125"/>
     </g>
    </g>
    <g id="text_22">
     <!-- L-512 -->
     <g transform="translate(93.988125 97.573125)scale(0.12 -0.12)">
      <use xlink:href="#DejaVuSerif-76"/>
      <use x="66.40625" xlink:href="#DejaVuSerif-45"/>
      <use x="100.195312" xlink:href="#DejaVuSerif-53"/>
      <use x="163.818359" xlink:href="#DejaVuSerif-49"/>
      <use x="227.441406" xlink:href="#DejaVuSerif-50"/>
     </g>
    </g>
    <g id="PathCollection_12">
     <g>
      <use style="fill:#56b4e9;fill-opacity:0.7;stroke:#000000;stroke-opacity:0.7;" x="72.388125" xlink:href="#md6c23e6a91" y="112.036875"/>
     </g>
    </g>
    <g id="text_23">
     <!-- L-1024 -->
     <g transform="translate(93.988125 115.186875)scale(0.12 -0.12)">
      <use xlink:href="#DejaVuSerif-76"/>
      <use x="66.40625" xlink:href="#DejaVuSerif-45"/>
      <use x="100.195312" xlink:href="#DejaVuSerif-49"/>
      <use x="163.818359" xlink:href="#DejaVuSerif-48"/>
      <use x="227.441406" xlink:href="#DejaVuSerif-50"/>
      <use x="291.064453" xlink:href="#DejaVuSerif-52"/>
     </g>
    </g>
   </g>
  </g>
 </g>
 <defs>
  <clipPath id="pe7e2b04137">
   <rect height="266.112" width="357.12" x="49.588125" y="7.2"/>
  </clipPath>
 </defs>
</svg>
