<?xml version="1.0" encoding="utf-8" standalone="no"?>
<!DOCTYPE svg PUBLIC "-//W3C//DTD SVG 1.1//EN"
  "http://www.w3.org/Graphics/SVG/1.1/DTD/svg11.dtd">
<!-- Created with matplotlib (https://matplotlib.org/) -->
<svg height="317.350125pt" version="1.1" viewBox="0 0 456.52375 317.350125" width="456.52375pt" xmlns="http://www.w3.org/2000/svg" xmlns:xlink="http://www.w3.org/1999/xlink">
 <defs>
  <style type="text/css">
*{stroke-linecap:butt;stroke-linejoin:round;}
  </style>
 </defs>
 <g id="figure_1">
  <g id="patch_1">
   <path d="M 0 317.350125 
L 456.52375 317.350125 
L 456.52375 0 
L 0 0 
z
" style="fill:#ffffff;"/>
  </g>
  <g id="axes_1">
   <g id="patch_2">
    <path d="M 49.815625 273.312 
L 406.935625 273.312 
L 406.935625 7.2 
L 49.815625 7.2 
z
" style="fill:#ffffff;"/>
   </g>
   <g id="PathCollection_1">
    <defs>
     <path d="M 0 3.872983 
C 1.027127 3.872983 2.012324 3.464901 2.738613 2.738613 
C 3.464901 2.012324 3.872983 1.027127 3.872983 0 
C 3.872983 -1.027127 3.464901 -2.012324 2.738613 -2.738613 
C 2.012324 -3.464901 1.027127 -3.872983 0 -3.872983 
C -1.027127 -3.872983 -2.012324 -3.464901 -2.738613 -2.738613 
C -3.464901 -2.012324 -3.872983 -1.027127 -3.872983 0 
C -3.872983 1.027127 -3.464901 2.012324 -2.738613 2.738613 
C -2.012324 3.464901 -1.027127 3.872983 0 3.872983 
z
" id="ma814981cec" style="stroke:#000000;stroke-opacity:0.7;"/>
    </defs>
    <g clip-path="url(#pb4e061e06e)">
     <use style="fill:#0072b2;fill-opacity:0.7;stroke:#000000;stroke-opacity:0.7;" x="72.147825" xlink:href="#ma814981cec" y="258.732994"/>
     <use style="fill:#0072b2;fill-opacity:0.7;stroke:#000000;stroke-opacity:0.7;" x="79.959215" xlink:href="#ma814981cec" y="254.698591"/>
     <use style="fill:#0072b2;fill-opacity:0.7;stroke:#000000;stroke-opacity:0.7;" x="87.770605" xlink:href="#ma814981cec" y="250.529608"/>
     <use style="fill:#0072b2;fill-opacity:0.7;stroke:#000000;stroke-opacity:0.7;" x="95.581995" xlink:href="#ma814981cec" y="245.921607"/>
     <use style="fill:#0072b2;fill-opacity:0.7;stroke:#000000;stroke-opacity:0.7;" x="103.393385" xlink:href="#ma814981cec" y="240.837832"/>
     <use style="fill:#0072b2;fill-opacity:0.7;stroke:#000000;stroke-opacity:0.7;" x="111.204775" xlink:href="#ma814981cec" y="235.325803"/>
     <use style="fill:#0072b2;fill-opacity:0.7;stroke:#000000;stroke-opacity:0.7;" x="119.016165" xlink:href="#ma814981cec" y="229.463485"/>
     <use style="fill:#0072b2;fill-opacity:0.7;stroke:#000000;stroke-opacity:0.7;" x="126.827555" xlink:href="#ma814981cec" y="223.350107"/>
     <use style="fill:#0072b2;fill-opacity:0.7;stroke:#000000;stroke-opacity:0.7;" x="134.638945" xlink:href="#ma814981cec" y="217.092406"/>
     <use style="fill:#0072b2;fill-opacity:0.7;stroke:#000000;stroke-opacity:0.7;" x="142.450335" xlink:href="#ma814981cec" y="210.800668"/>
     <use style="fill:#0072b2;fill-opacity:0.7;stroke:#000000;stroke-opacity:0.7;" x="150.261725" xlink:href="#ma814981cec" y="204.58189"/>
     <use style="fill:#0072b2;fill-opacity:0.7;stroke:#000000;stroke-opacity:0.7;" x="158.073115" xlink:href="#ma814981cec" y="198.5357"/>
     <use style="fill:#0072b2;fill-opacity:0.7;stroke:#000000;stroke-opacity:0.7;" x="165.884505" xlink:href="#ma814981cec" y="192.75165"/>
     <use style="fill:#0072b2;fill-opacity:0.7;stroke:#000000;stroke-opacity:0.7;" x="173.695895" xlink:href="#ma814981cec" y="187.305537"/>
     <use style="fill:#0072b2;fill-opacity:0.7;stroke:#000000;stroke-opacity:0.7;" x="181.507285" xlink:href="#ma814981cec" y="182.256256"/>
     <use style="fill:#0072b2;fill-opacity:0.7;stroke:#000000;stroke-opacity:0.7;" x="189.318675" xlink:href="#ma814981cec" y="177.643562"/>
     <use style="fill:#0072b2;fill-opacity:0.7;stroke:#000000;stroke-opacity:0.7;" x="197.130065" xlink:href="#ma814981cec" y="172.77196"/>
     <use style="fill:#0072b2;fill-opacity:0.7;stroke:#000000;stroke-opacity:0.7;" x="204.941455" xlink:href="#ma814981cec" y="164.640066"/>
     <use style="fill:#0072b2;fill-opacity:0.7;stroke:#000000;stroke-opacity:0.7;" x="212.752845" xlink:href="#ma814981cec" y="156.859655"/>
     <use style="fill:#0072b2;fill-opacity:0.7;stroke:#000000;stroke-opacity:0.7;" x="220.564235" xlink:href="#ma814981cec" y="147.605255"/>
     <use style="fill:#0072b2;fill-opacity:0.7;stroke:#000000;stroke-opacity:0.7;" x="228.375625" xlink:href="#ma814981cec" y="138.826918"/>
     <use style="fill:#0072b2;fill-opacity:0.7;stroke:#000000;stroke-opacity:0.7;" x="236.187015" xlink:href="#ma814981cec" y="129.817272"/>
     <use style="fill:#0072b2;fill-opacity:0.7;stroke:#000000;stroke-opacity:0.7;" x="243.998405" xlink:href="#ma814981cec" y="119.652595"/>
     <use style="fill:#0072b2;fill-opacity:0.7;stroke:#000000;stroke-opacity:0.7;" x="251.809795" xlink:href="#ma814981cec" y="109.430973"/>
     <use style="fill:#0072b2;fill-opacity:0.7;stroke:#000000;stroke-opacity:0.7;" x="259.621185" xlink:href="#ma814981cec" y="99.986738"/>
     <use style="fill:#0072b2;fill-opacity:0.7;stroke:#000000;stroke-opacity:0.7;" x="267.432575" xlink:href="#ma814981cec" y="91.356406"/>
     <use style="fill:#0072b2;fill-opacity:0.7;stroke:#000000;stroke-opacity:0.7;" x="275.243965" xlink:href="#ma814981cec" y="83.547488"/>
     <use style="fill:#0072b2;fill-opacity:0.7;stroke:#000000;stroke-opacity:0.7;" x="283.055355" xlink:href="#ma814981cec" y="76.543881"/>
     <use style="fill:#0072b2;fill-opacity:0.7;stroke:#000000;stroke-opacity:0.7;" x="290.866745" xlink:href="#ma814981cec" y="70.310833"/>
     <use style="fill:#0072b2;fill-opacity:0.7;stroke:#000000;stroke-opacity:0.7;" x="298.678135" xlink:href="#ma814981cec" y="64.801095"/>
     <use style="fill:#0072b2;fill-opacity:0.7;stroke:#000000;stroke-opacity:0.7;" x="306.489525" xlink:href="#ma814981cec" y="59.959427"/>
     <use style="fill:#0072b2;fill-opacity:0.7;stroke:#000000;stroke-opacity:0.7;" x="314.300915" xlink:href="#ma814981cec" y="55.72733"/>
     <use style="fill:#0072b2;fill-opacity:0.7;stroke:#000000;stroke-opacity:0.7;" x="322.112305" xlink:href="#ma814981cec" y="51.991165"/>
     <use style="fill:#0072b2;fill-opacity:0.7;stroke:#000000;stroke-opacity:0.7;" x="329.923695" xlink:href="#ma814981cec" y="47.21722"/>
     <use style="fill:#0072b2;fill-opacity:0.7;stroke:#000000;stroke-opacity:0.7;" x="337.735085" xlink:href="#ma814981cec" y="43.038592"/>
     <use style="fill:#0072b2;fill-opacity:0.7;stroke:#000000;stroke-opacity:0.7;" x="345.546475" xlink:href="#ma814981cec" y="39.39799"/>
     <use style="fill:#0072b2;fill-opacity:0.7;stroke:#000000;stroke-opacity:0.7;" x="353.357865" xlink:href="#ma814981cec" y="36.241906"/>
     <use style="fill:#0072b2;fill-opacity:0.7;stroke:#000000;stroke-opacity:0.7;" x="361.169255" xlink:href="#ma814981cec" y="33.521341"/>
     <use style="fill:#0072b2;fill-opacity:0.7;stroke:#000000;stroke-opacity:0.7;" x="368.980645" xlink:href="#ma814981cec" y="30.115725"/>
     <use style="fill:#0072b2;fill-opacity:0.7;stroke:#000000;stroke-opacity:0.7;" x="376.792035" xlink:href="#ma814981cec" y="25.753893"/>
     <use style="fill:#0072b2;fill-opacity:0.7;stroke:#000000;stroke-opacity:0.7;" x="384.603425" xlink:href="#ma814981cec" y="21.779006"/>
    </g>
   </g>
   <g id="matplotlib.axis_1">
    <g id="xtick_1">
     <g id="line2d_1">
      <defs>
       <path d="M 0 0 
L 0 3.5 
" id="m82897a3406" style="stroke:#000000;stroke-width:0.8;"/>
      </defs>
      <g>
       <use style="stroke:#000000;stroke-width:0.8;" x="64.336435" xlink:href="#m82897a3406" y="273.312"/>
      </g>
     </g>
     <g id="text_1">
      <!-- 0.0 -->
      <defs>
       <path d="M 31.78125 3.421875 
Q 39.265625 3.421875 42.96875 11.625 
Q 46.6875 19.828125 46.6875 36.375 
Q 46.6875 52.984375 42.96875 61.1875 
Q 39.265625 69.390625 31.78125 69.390625 
Q 24.3125 69.390625 20.59375 61.1875 
Q 16.890625 52.984375 16.890625 36.375 
Q 16.890625 19.828125 20.59375 11.625 
Q 24.3125 3.421875 31.78125 3.421875 
z
M 31.78125 -1.421875 
Q 19.921875 -1.421875 13.25 8.53125 
Q 6.59375 18.5 6.59375 36.375 
Q 6.59375 54.296875 13.25 64.25 
Q 19.921875 74.21875 31.78125 74.21875 
Q 43.703125 74.21875 50.34375 64.25 
Q 56.984375 54.296875 56.984375 36.375 
Q 56.984375 18.5 50.34375 8.53125 
Q 43.703125 -1.421875 31.78125 -1.421875 
z
" id="DejaVuSerif-48"/>
       <path d="M 9.421875 5.078125 
Q 9.421875 7.8125 11.28125 9.71875 
Q 13.140625 11.625 15.921875 11.625 
Q 18.609375 11.625 20.5 9.71875 
Q 22.40625 7.8125 22.40625 5.078125 
Q 22.40625 2.390625 20.5 0.484375 
Q 18.609375 -1.421875 15.921875 -1.421875 
Q 13.140625 -1.421875 11.28125 0.453125 
Q 9.421875 2.34375 9.421875 5.078125 
z
" id="DejaVuSerif-46"/>
      </defs>
      <g transform="translate(56.384872 287.910437)scale(0.1 -0.1)">
       <use xlink:href="#DejaVuSerif-48"/>
       <use x="63.623047" xlink:href="#DejaVuSerif-46"/>
       <use x="95.410156" xlink:href="#DejaVuSerif-48"/>
      </g>
     </g>
    </g>
    <g id="xtick_2">
     <g id="line2d_2">
      <g>
       <use style="stroke:#000000;stroke-width:0.8;" x="142.450335" xlink:href="#m82897a3406" y="273.312"/>
      </g>
     </g>
     <g id="text_2">
      <!-- 0.1 -->
      <defs>
       <path d="M 14.203125 0 
L 14.203125 5.171875 
L 26.90625 5.171875 
L 26.90625 65.828125 
L 12.203125 56.296875 
L 12.203125 62.703125 
L 29.984375 74.21875 
L 36.71875 74.21875 
L 36.71875 5.171875 
L 49.421875 5.171875 
L 49.421875 0 
z
" id="DejaVuSerif-49"/>
      </defs>
      <g transform="translate(134.498772 287.910437)scale(0.1 -0.1)">
       <use xlink:href="#DejaVuSerif-48"/>
       <use x="63.623047" xlink:href="#DejaVuSerif-46"/>
       <use x="95.410156" xlink:href="#DejaVuSerif-49"/>
      </g>
     </g>
    </g>
    <g id="xtick_3">
     <g id="line2d_3">
      <g>
       <use style="stroke:#000000;stroke-width:0.8;" x="220.564235" xlink:href="#m82897a3406" y="273.312"/>
      </g>
     </g>
     <g id="text_3">
      <!-- 0.2 -->
      <defs>
       <path d="M 12.796875 55.515625 
L 7.328125 55.515625 
L 7.328125 68.5 
Q 12.546875 71.296875 17.84375 72.75 
Q 23.140625 74.21875 28.21875 74.21875 
Q 39.59375 74.21875 46.1875 68.703125 
Q 52.78125 63.1875 52.78125 53.71875 
Q 52.78125 43.015625 37.84375 28.125 
Q 36.671875 27 36.078125 26.421875 
L 17.671875 8.015625 
L 48.09375 8.015625 
L 48.09375 17 
L 53.8125 17 
L 53.8125 0 
L 6.78125 0 
L 6.78125 5.328125 
L 28.90625 27.390625 
Q 36.234375 34.71875 39.359375 40.84375 
Q 42.484375 46.96875 42.484375 53.71875 
Q 42.484375 61.078125 38.640625 65.234375 
Q 34.8125 69.390625 28.078125 69.390625 
Q 21.09375 69.390625 17.28125 65.921875 
Q 13.484375 62.453125 12.796875 55.515625 
z
" id="DejaVuSerif-50"/>
      </defs>
      <g transform="translate(212.612672 287.910437)scale(0.1 -0.1)">
       <use xlink:href="#DejaVuSerif-48"/>
       <use x="63.623047" xlink:href="#DejaVuSerif-46"/>
       <use x="95.410156" xlink:href="#DejaVuSerif-50"/>
      </g>
     </g>
    </g>
    <g id="xtick_4">
     <g id="line2d_4">
      <g>
       <use style="stroke:#000000;stroke-width:0.8;" x="298.678135" xlink:href="#m82897a3406" y="273.312"/>
      </g>
     </g>
     <g id="text_4">
      <!-- 0.3 -->
      <defs>
       <path d="M 9.71875 69.828125 
Q 15.4375 71.96875 20.671875 73.09375 
Q 25.921875 74.21875 30.515625 74.21875 
Q 41.21875 74.21875 47.21875 69.59375 
Q 53.21875 64.984375 53.21875 56.78125 
Q 53.21875 50.203125 49.0625 45.78125 
Q 44.921875 41.359375 37.3125 39.796875 
Q 46.296875 38.53125 51.25 33.28125 
Q 56.203125 28.03125 56.203125 19.671875 
Q 56.203125 9.46875 49.34375 4.015625 
Q 42.484375 -1.421875 29.59375 -1.421875 
Q 23.875 -1.421875 18.421875 -0.1875 
Q 12.984375 1.03125 7.625 3.515625 
L 7.625 17.671875 
L 13.09375 17.671875 
Q 13.578125 10.640625 17.828125 7.03125 
Q 22.078125 3.421875 29.78125 3.421875 
Q 37.25 3.421875 41.578125 7.734375 
Q 45.90625 12.0625 45.90625 19.578125 
Q 45.90625 28.171875 41.453125 32.59375 
Q 37.015625 37.015625 28.421875 37.015625 
L 23.78125 37.015625 
L 23.78125 42 
L 26.21875 42 
Q 34.765625 42 39.03125 45.53125 
Q 43.3125 49.078125 43.3125 56.203125 
Q 43.3125 62.59375 39.796875 65.984375 
Q 36.28125 69.390625 29.6875 69.390625 
Q 23.09375 69.390625 19.453125 66.265625 
Q 15.828125 63.140625 15.1875 56.984375 
L 9.71875 56.984375 
z
" id="DejaVuSerif-51"/>
      </defs>
      <g transform="translate(290.726573 287.910437)scale(0.1 -0.1)">
       <use xlink:href="#DejaVuSerif-48"/>
       <use x="63.623047" xlink:href="#DejaVuSerif-46"/>
       <use x="95.410156" xlink:href="#DejaVuSerif-51"/>
      </g>
     </g>
    </g>
    <g id="xtick_5">
     <g id="line2d_5">
      <g>
       <use style="stroke:#000000;stroke-width:0.8;" x="376.792035" xlink:href="#m82897a3406" y="273.312"/>
      </g>
     </g>
     <g id="text_5">
      <!-- 0.4 -->
      <defs>
       <path d="M 34.90625 24.703125 
L 34.90625 63.484375 
L 10.015625 24.703125 
z
M 56.390625 0 
L 23.1875 0 
L 23.1875 5.171875 
L 34.90625 5.171875 
L 34.90625 19.484375 
L 3.078125 19.484375 
L 3.078125 24.8125 
L 35.015625 74.21875 
L 44.671875 74.21875 
L 44.671875 24.703125 
L 58.59375 24.703125 
L 58.59375 19.484375 
L 44.671875 19.484375 
L 44.671875 5.171875 
L 56.390625 5.171875 
z
" id="DejaVuSerif-52"/>
      </defs>
      <g transform="translate(368.840473 287.910437)scale(0.1 -0.1)">
       <use xlink:href="#DejaVuSerif-48"/>
       <use x="63.623047" xlink:href="#DejaVuSerif-46"/>
       <use x="95.410156" xlink:href="#DejaVuSerif-52"/>
      </g>
     </g>
    </g>
    <g id="text_6">
     <!-- Tunneling $J/U$ -->
     <defs>
      <path d="M 19.09375 0 
L 19.09375 5.171875 
L 28.421875 5.171875 
L 28.421875 67.09375 
L 6.984375 67.09375 
L 6.984375 55.71875 
L 0.984375 55.71875 
L 0.984375 72.90625 
L 65.71875 72.90625 
L 65.71875 55.71875 
L 59.71875 55.71875 
L 59.71875 67.09375 
L 38.28125 67.09375 
L 38.28125 5.171875 
L 47.609375 5.171875 
L 47.609375 0 
z
" id="DejaVuSerif-84"/>
      <path d="M 35.40625 51.90625 
L 52.203125 51.90625 
L 52.203125 5.171875 
L 60.6875 5.171875 
L 60.6875 0 
L 43.21875 0 
L 43.21875 9.1875 
Q 40.71875 4 36.765625 1.28125 
Q 32.8125 -1.421875 27.59375 -1.421875 
Q 18.953125 -1.421875 14.875 3.484375 
Q 10.796875 8.40625 10.796875 18.890625 
L 10.796875 46.6875 
L 2.6875 46.6875 
L 2.6875 51.90625 
L 19.828125 51.90625 
L 19.828125 21.6875 
Q 19.828125 12.203125 22.140625 8.6875 
Q 24.46875 5.171875 30.421875 5.171875 
Q 36.671875 5.171875 39.9375 9.765625 
Q 43.21875 14.359375 43.21875 23.09375 
L 43.21875 46.6875 
L 35.40625 46.6875 
z
" id="DejaVuSerif-117"/>
      <path d="M 4.109375 0 
L 4.109375 5.171875 
L 12.203125 5.171875 
L 12.203125 46.6875 
L 3.609375 46.6875 
L 3.609375 51.90625 
L 21.1875 51.90625 
L 21.1875 42.671875 
Q 23.6875 47.953125 27.65625 50.640625 
Q 31.640625 53.328125 36.921875 53.328125 
Q 45.515625 53.328125 49.5625 48.390625 
Q 53.609375 43.453125 53.609375 33.015625 
L 53.609375 5.171875 
L 61.625 5.171875 
L 61.625 0 
L 36.8125 0 
L 36.8125 5.171875 
L 44.578125 5.171875 
L 44.578125 30.171875 
Q 44.578125 39.703125 42.234375 43.234375 
Q 39.890625 46.78125 33.984375 46.78125 
Q 27.734375 46.78125 24.453125 42.203125 
Q 21.1875 37.640625 21.1875 28.90625 
L 21.1875 5.171875 
L 29 5.171875 
L 29 0 
z
" id="DejaVuSerif-110"/>
      <path d="M 54.203125 25 
L 15.484375 25 
L 15.484375 24.609375 
Q 15.484375 14.109375 19.4375 8.765625 
Q 23.390625 3.421875 31.109375 3.421875 
Q 37.015625 3.421875 40.796875 6.515625 
Q 44.578125 9.625 46.09375 15.71875 
L 53.328125 15.71875 
Q 51.171875 7.171875 45.375 2.875 
Q 39.59375 -1.421875 30.171875 -1.421875 
Q 18.796875 -1.421875 11.890625 6.078125 
Q 4.984375 13.578125 4.984375 25.984375 
Q 4.984375 38.28125 11.765625 45.796875 
Q 18.5625 53.328125 29.59375 53.328125 
Q 41.359375 53.328125 47.65625 46.0625 
Q 53.953125 38.8125 54.203125 25 
z
M 43.609375 30.171875 
Q 43.3125 39.265625 39.765625 43.875 
Q 36.234375 48.484375 29.59375 48.484375 
Q 23.390625 48.484375 19.828125 43.84375 
Q 16.265625 39.203125 15.484375 30.171875 
z
" id="DejaVuSerif-101"/>
      <path d="M 20.515625 5.171875 
L 29 5.171875 
L 29 0 
L 2.875 0 
L 2.875 5.171875 
L 11.53125 5.171875 
L 11.53125 70.796875 
L 2.875 70.796875 
L 2.875 75.984375 
L 20.515625 75.984375 
z
" id="DejaVuSerif-108"/>
      <path d="M 9.71875 68.015625 
Q 9.71875 70.265625 11.34375 71.921875 
Q 12.984375 73.578125 15.28125 73.578125 
Q 17.53125 73.578125 19.15625 71.921875 
Q 20.796875 70.265625 20.796875 68.015625 
Q 20.796875 65.71875 19.1875 64.109375 
Q 17.578125 62.5 15.28125 62.5 
Q 12.984375 62.5 11.34375 64.109375 
Q 9.71875 65.71875 9.71875 68.015625 
z
M 21.1875 5.171875 
L 29.6875 5.171875 
L 29.6875 0 
L 3.609375 0 
L 3.609375 5.171875 
L 12.203125 5.171875 
L 12.203125 46.6875 
L 3.609375 46.6875 
L 3.609375 51.90625 
L 21.1875 51.90625 
z
" id="DejaVuSerif-105"/>
      <path d="M 52.484375 46.6875 
L 52.484375 1.125 
Q 52.484375 -10.0625 46.328125 -16.140625 
Q 40.1875 -22.21875 28.8125 -22.21875 
Q 23.6875 -22.21875 19 -21.28125 
Q 14.3125 -20.359375 10.015625 -18.5 
L 10.015625 -7.625 
L 14.703125 -7.625 
Q 15.578125 -12.703125 18.84375 -15.046875 
Q 22.125 -17.390625 28.21875 -17.390625 
Q 36.140625 -17.390625 39.8125 -12.921875 
Q 43.5 -8.453125 43.5 1.125 
L 43.5 8.109375 
Q 40.875 3.21875 36.796875 0.890625 
Q 32.71875 -1.421875 26.703125 -1.421875 
Q 17.140625 -1.421875 11.0625 6.171875 
Q 4.984375 13.765625 4.984375 25.984375 
Q 4.984375 38.1875 11.03125 45.75 
Q 17.09375 53.328125 26.703125 53.328125 
Q 32.71875 53.328125 36.796875 51 
Q 40.875 48.6875 43.5 43.796875 
L 43.5 51.90625 
L 61.078125 51.90625 
L 61.078125 46.6875 
z
M 43.5 28.515625 
Q 43.5 37.84375 39.90625 42.765625 
Q 36.328125 47.703125 29.5 47.703125 
Q 22.5625 47.703125 19.015625 42.234375 
Q 15.484375 36.765625 15.484375 25.984375 
Q 15.484375 15.234375 19.015625 9.71875 
Q 22.5625 4.203125 29.5 4.203125 
Q 36.328125 4.203125 39.90625 9.109375 
Q 43.5 14.015625 43.5 23.390625 
z
" id="DejaVuSerif-103"/>
      <path id="DejaVuSerif-32"/>
      <path d="M 10.890625 6 
Q 11.859375 3.21875 14.5 1.796875 
Q 17.140625 0.390625 20.21875 0.390625 
Q 23.34375 0.390625 26.25 2.5625 
Q 29.15625 4.734375 31.171875 8 
Q 33.203125 11.28125 33.984375 14.5 
L 45.796875 61.8125 
Q 45.90625 62.203125 45.921875 62.390625 
Q 45.953125 62.59375 46 62.796875 
Q 46 63.875 45.21875 64.109375 
Q 42.578125 64.796875 34.515625 64.796875 
Q 33.5 64.796875 33.5 66.109375 
Q 33.6875 66.890625 33.8125 67.328125 
Q 33.9375 67.78125 34.25 68.046875 
Q 34.578125 68.3125 35.203125 68.3125 
L 62.3125 68.3125 
Q 63.28125 68.3125 63.28125 67 
Q 62.890625 64.796875 62.015625 64.796875 
Q 58.5 64.796875 56.6875 64.25 
Q 54.890625 63.71875 54.203125 61.375 
L 42.390625 14.109375 
Q 41.265625 9.46875 37.8125 5.734375 
Q 34.375 2 29.640625 -0.09375 
Q 24.90625 -2.203125 20.125 -2.203125 
Q 14.84375 -2.203125 10.859375 0.71875 
Q 6.890625 3.65625 6.890625 8.6875 
Q 6.890625 12.015625 8.6875 14.40625 
Q 10.5 16.796875 13.8125 16.796875 
Q 15.71875 16.796875 17.015625 15.625 
Q 18.3125 14.453125 18.3125 12.59375 
Q 18.3125 9.90625 16.3125 7.90625 
Q 14.3125 5.90625 11.625 5.90625 
Q 11.078125 5.90625 10.890625 6 
z
" id="Cmmi10-74"/>
      <path d="M 5.609375 -23 
Q 5.609375 -22.703125 5.71875 -22.609375 
L 40.484375 73.78125 
Q 40.671875 74.359375 41.15625 74.671875 
Q 41.65625 75 42.28125 75 
Q 43.171875 75 43.71875 74.453125 
Q 44.28125 73.921875 44.28125 73 
L 44.28125 72.609375 
L 9.515625 -23.78125 
Q 8.9375 -25 7.625 -25 
Q 6.78125 -25 6.1875 -24.40625 
Q 5.609375 -23.828125 5.609375 -23 
z
" id="Cmmi10-61"/>
      <path d="M 14.703125 13.921875 
Q 14.703125 10.25 16.140625 7.375 
Q 17.578125 4.5 20.3125 2.90625 
Q 23.046875 1.3125 26.703125 1.3125 
Q 31 1.3125 35.078125 3.0625 
Q 39.15625 4.828125 42.421875 7.953125 
Q 45.703125 11.078125 48.015625 15.078125 
Q 50.34375 19.09375 51.3125 23 
L 60.296875 59.078125 
Q 60.5 60.15625 60.5 60.59375 
Q 60.5 64.796875 52.78125 64.796875 
Q 51.8125 64.796875 51.8125 66.109375 
Q 52.15625 67.390625 52.34375 67.84375 
Q 52.546875 68.3125 53.515625 68.3125 
L 75.203125 68.3125 
Q 75.640625 68.3125 75.921875 67.875 
Q 76.21875 67.4375 76.21875 67 
Q 76.21875 66.9375 76.015625 66.234375 
Q 75.828125 65.53125 75.5625 65.15625 
Q 75.296875 64.796875 74.90625 64.796875 
Q 65.328125 64.796875 63.8125 58.6875 
L 54.78125 22.609375 
Q 53.65625 17.921875 51 13.5 
Q 48.34375 9.078125 44.453125 5.484375 
Q 40.578125 1.90625 35.90625 -0.140625 
Q 31.25 -2.203125 26.421875 -2.203125 
Q 20.90625 -2.203125 16.328125 0.21875 
Q 11.765625 2.640625 9.171875 6.984375 
Q 6.59375 11.328125 6.59375 17 
Q 6.59375 20.265625 7.328125 23 
L 17 61.8125 
Q 17.1875 62.796875 17.1875 63.1875 
Q 17.1875 64.265625 16.015625 64.40625 
Q 14.109375 64.796875 8.796875 64.796875 
Q 7.8125 64.796875 7.8125 66.109375 
Q 8.15625 67.390625 8.34375 67.84375 
Q 8.546875 68.3125 9.515625 68.3125 
L 36.375 68.3125 
Q 37.40625 68.3125 37.40625 67 
Q 37.359375 66.75 37.203125 66.15625 
Q 37.0625 65.578125 36.8125 65.1875 
Q 36.578125 64.796875 36.078125 64.796875 
Q 29.984375 64.796875 27.59375 64.109375 
Q 26.265625 63.625 25.6875 61.375 
L 16.015625 22.609375 
Q 14.703125 17.328125 14.703125 13.921875 
z
" id="Cmmi10-85"/>
     </defs>
     <g transform="translate(171.015625 306.150125)scale(0.16 -0.16)">
      <use transform="translate(0 0.015625)" xlink:href="#DejaVuSerif-84"/>
      <use transform="translate(66.699219 0.015625)" xlink:href="#DejaVuSerif-117"/>
      <use transform="translate(131.103516 0.015625)" xlink:href="#DejaVuSerif-110"/>
      <use transform="translate(195.507812 0.015625)" xlink:href="#DejaVuSerif-110"/>
      <use transform="translate(259.912109 0.015625)" xlink:href="#DejaVuSerif-101"/>
      <use transform="translate(319.091797 0.015625)" xlink:href="#DejaVuSerif-108"/>
      <use transform="translate(351.074219 0.015625)" xlink:href="#DejaVuSerif-105"/>
      <use transform="translate(383.056641 0.015625)" xlink:href="#DejaVuSerif-110"/>
      <use transform="translate(447.460938 0.015625)" xlink:href="#DejaVuSerif-103"/>
      <use transform="translate(511.474609 0.015625)" xlink:href="#DejaVuSerif-32"/>
      <use transform="translate(543.261719 0.015625)" xlink:href="#Cmmi10-74"/>
      <use transform="translate(598.681641 0.015625)" xlink:href="#Cmmi10-61"/>
      <use transform="translate(648.681641 0.015625)" xlink:href="#Cmmi10-85"/>
     </g>
    </g>
   </g>
   <g id="matplotlib.axis_2">
    <g id="ytick_1">
     <g id="line2d_6">
      <defs>
       <path d="M 0 0 
L -3.5 0 
" id="me6b83bae0a" style="stroke:#000000;stroke-width:0.8;"/>
      </defs>
      <g>
       <use style="stroke:#000000;stroke-width:0.8;" x="49.815625" xlink:href="#me6b83bae0a" y="258.732994"/>
      </g>
     </g>
     <g id="text_7">
      <!-- 0.0 -->
      <g transform="translate(26.9125 262.532213)scale(0.1 -0.1)">
       <use xlink:href="#DejaVuSerif-48"/>
       <use x="63.623047" xlink:href="#DejaVuSerif-46"/>
       <use x="95.410156" xlink:href="#DejaVuSerif-48"/>
      </g>
     </g>
    </g>
    <g id="ytick_2">
     <g id="line2d_7">
      <g>
       <use style="stroke:#000000;stroke-width:0.8;" x="49.815625" xlink:href="#me6b83bae0a" y="211.342197"/>
      </g>
     </g>
     <g id="text_8">
      <!-- 0.2 -->
      <g transform="translate(26.9125 215.141415)scale(0.1 -0.1)">
       <use xlink:href="#DejaVuSerif-48"/>
       <use x="63.623047" xlink:href="#DejaVuSerif-46"/>
       <use x="95.410156" xlink:href="#DejaVuSerif-50"/>
      </g>
     </g>
    </g>
    <g id="ytick_3">
     <g id="line2d_8">
      <g>
       <use style="stroke:#000000;stroke-width:0.8;" x="49.815625" xlink:href="#me6b83bae0a" y="163.951399"/>
      </g>
     </g>
     <g id="text_9">
      <!-- 0.4 -->
      <g transform="translate(26.9125 167.750618)scale(0.1 -0.1)">
       <use xlink:href="#DejaVuSerif-48"/>
       <use x="63.623047" xlink:href="#DejaVuSerif-46"/>
       <use x="95.410156" xlink:href="#DejaVuSerif-52"/>
      </g>
     </g>
    </g>
    <g id="ytick_4">
     <g id="line2d_9">
      <g>
       <use style="stroke:#000000;stroke-width:0.8;" x="49.815625" xlink:href="#me6b83bae0a" y="116.560601"/>
      </g>
     </g>
     <g id="text_10">
      <!-- 0.6 -->
      <defs>
       <path d="M 32.71875 3.421875 
Q 39.59375 3.421875 43.296875 8.46875 
Q 47.015625 13.53125 47.015625 23 
Q 47.015625 32.46875 43.296875 37.515625 
Q 39.59375 42.578125 32.71875 42.578125 
Q 25.734375 42.578125 22.0625 37.6875 
Q 18.40625 32.8125 18.40625 23.578125 
Q 18.40625 13.875 22.109375 8.640625 
Q 25.828125 3.421875 32.71875 3.421875 
z
M 16.796875 40.140625 
Q 20.125 43.796875 24.3125 45.59375 
Q 28.515625 47.40625 33.796875 47.40625 
Q 44.671875 47.40625 51 40.859375 
Q 57.328125 34.328125 57.328125 23 
Q 57.328125 11.921875 50.515625 5.25 
Q 43.703125 -1.421875 32.328125 -1.421875 
Q 19.96875 -1.421875 13.328125 7.78125 
Q 6.6875 17 6.6875 34.078125 
Q 6.6875 53.21875 14.546875 63.71875 
Q 22.40625 74.21875 36.71875 74.21875 
Q 40.578125 74.21875 44.828125 73.484375 
Q 49.078125 72.75 53.515625 71.296875 
L 53.515625 59.28125 
L 48 59.28125 
Q 47.40625 64.203125 44.234375 66.796875 
Q 41.0625 69.390625 35.6875 69.390625 
Q 26.21875 69.390625 21.578125 62.203125 
Q 16.9375 55.03125 16.796875 40.140625 
z
" id="DejaVuSerif-54"/>
      </defs>
      <g transform="translate(26.9125 120.35982)scale(0.1 -0.1)">
       <use xlink:href="#DejaVuSerif-48"/>
       <use x="63.623047" xlink:href="#DejaVuSerif-46"/>
       <use x="95.410156" xlink:href="#DejaVuSerif-54"/>
      </g>
     </g>
    </g>
    <g id="ytick_5">
     <g id="line2d_10">
      <g>
       <use style="stroke:#000000;stroke-width:0.8;" x="49.815625" xlink:href="#me6b83bae0a" y="69.169803"/>
      </g>
     </g>
     <g id="text_11">
      <!-- 0.8 -->
      <defs>
       <path d="M 46.578125 19.921875 
Q 46.578125 27.734375 42.6875 32.046875 
Q 38.8125 36.375 31.78125 36.375 
Q 24.75 36.375 20.875 32.046875 
Q 17 27.734375 17 19.921875 
Q 17 12.0625 20.875 7.734375 
Q 24.75 3.421875 31.78125 3.421875 
Q 38.8125 3.421875 42.6875 7.734375 
Q 46.578125 12.0625 46.578125 19.921875 
z
M 44.578125 55.328125 
Q 44.578125 61.96875 41.203125 65.671875 
Q 37.84375 69.390625 31.78125 69.390625 
Q 25.78125 69.390625 22.390625 65.671875 
Q 19 61.96875 19 55.328125 
Q 19 48.640625 22.390625 44.921875 
Q 25.78125 41.21875 31.78125 41.21875 
Q 37.84375 41.21875 41.203125 44.921875 
Q 44.578125 48.640625 44.578125 55.328125 
z
M 39.3125 38.8125 
Q 47.609375 37.703125 52.25 32.6875 
Q 56.890625 27.6875 56.890625 19.921875 
Q 56.890625 9.671875 50.390625 4.125 
Q 43.890625 -1.421875 31.78125 -1.421875 
Q 19.734375 -1.421875 13.203125 4.125 
Q 6.6875 9.671875 6.6875 19.921875 
Q 6.6875 27.6875 11.328125 32.6875 
Q 15.96875 37.703125 24.3125 38.8125 
Q 16.9375 40.140625 13 44.40625 
Q 9.078125 48.6875 9.078125 55.328125 
Q 9.078125 64.109375 15.125 69.15625 
Q 21.1875 74.21875 31.78125 74.21875 
Q 42.390625 74.21875 48.4375 69.15625 
Q 54.5 64.109375 54.5 55.328125 
Q 54.5 48.6875 50.5625 44.40625 
Q 46.625 40.140625 39.3125 38.8125 
z
" id="DejaVuSerif-56"/>
      </defs>
      <g transform="translate(26.9125 72.969022)scale(0.1 -0.1)">
       <use xlink:href="#DejaVuSerif-48"/>
       <use x="63.623047" xlink:href="#DejaVuSerif-46"/>
       <use x="95.410156" xlink:href="#DejaVuSerif-56"/>
      </g>
     </g>
    </g>
    <g id="ytick_6">
     <g id="line2d_11">
      <g>
       <use style="stroke:#000000;stroke-width:0.8;" x="49.815625" xlink:href="#me6b83bae0a" y="21.779006"/>
      </g>
     </g>
     <g id="text_12">
      <!-- 1.0 -->
      <g transform="translate(26.9125 25.578224)scale(0.1 -0.1)">
       <use xlink:href="#DejaVuSerif-49"/>
       <use x="63.623047" xlink:href="#DejaVuSerif-46"/>
       <use x="95.410156" xlink:href="#DejaVuSerif-48"/>
      </g>
     </g>
    </g>
    <g id="text_13">
     <!-- Normalize persistent entropy -->
     <defs>
      <path d="M 4.890625 0 
L 4.890625 5.171875 
L 14.703125 5.171875 
L 14.703125 67.671875 
L 4.890625 67.671875 
L 4.890625 72.90625 
L 23.578125 72.90625 
L 67.28125 15.375 
L 67.28125 67.671875 
L 57.515625 67.671875 
L 57.515625 72.90625 
L 83.109375 72.90625 
L 83.109375 67.671875 
L 73.296875 67.671875 
L 73.296875 -1.421875 
L 67.390625 -1.421875 
L 20.703125 60.015625 
L 20.703125 5.171875 
L 30.515625 5.171875 
L 30.515625 0 
z
" id="DejaVuSerif-78"/>
      <path d="M 30.078125 3.421875 
Q 37.3125 3.421875 40.984375 9.125 
Q 44.671875 14.84375 44.671875 25.984375 
Q 44.671875 37.109375 40.984375 42.796875 
Q 37.3125 48.484375 30.078125 48.484375 
Q 22.859375 48.484375 19.171875 42.796875 
Q 15.484375 37.109375 15.484375 25.984375 
Q 15.484375 14.84375 19.1875 9.125 
Q 22.90625 3.421875 30.078125 3.421875 
z
M 30.078125 -1.421875 
Q 18.75 -1.421875 11.859375 6.078125 
Q 4.984375 13.578125 4.984375 25.984375 
Q 4.984375 38.375 11.84375 45.84375 
Q 18.703125 53.328125 30.078125 53.328125 
Q 41.453125 53.328125 48.3125 45.84375 
Q 55.171875 38.375 55.171875 25.984375 
Q 55.171875 13.578125 48.3125 6.078125 
Q 41.453125 -1.421875 30.078125 -1.421875 
z
" id="DejaVuSerif-111"/>
      <path d="M 47.796875 52 
L 47.796875 39.015625 
L 42.625 39.015625 
Q 42.390625 42.875 40.484375 44.78125 
Q 38.578125 46.6875 34.90625 46.6875 
Q 28.265625 46.6875 24.71875 42.09375 
Q 21.1875 37.5 21.1875 28.90625 
L 21.1875 5.171875 
L 31.59375 5.171875 
L 31.59375 0 
L 4.109375 0 
L 4.109375 5.171875 
L 12.203125 5.171875 
L 12.203125 46.78125 
L 3.609375 46.78125 
L 3.609375 51.90625 
L 21.1875 51.90625 
L 21.1875 42.671875 
Q 23.828125 48.09375 27.96875 50.703125 
Q 32.125 53.328125 38.09375 53.328125 
Q 40.28125 53.328125 42.703125 52.984375 
Q 45.125 52.640625 47.796875 52 
z
" id="DejaVuSerif-114"/>
      <path d="M 51.8125 41.796875 
Q 54.390625 47.515625 58.421875 50.421875 
Q 62.453125 53.328125 67.828125 53.328125 
Q 75.984375 53.328125 79.984375 48.265625 
Q 83.984375 43.21875 83.984375 33.015625 
L 83.984375 5.171875 
L 92.09375 5.171875 
L 92.09375 0 
L 67.1875 0 
L 67.1875 5.171875 
L 75 5.171875 
L 75 31.984375 
Q 75 39.9375 72.65625 43.3125 
Q 70.3125 46.6875 64.890625 46.6875 
Q 58.890625 46.6875 55.734375 42.140625 
Q 52.59375 37.59375 52.59375 28.90625 
L 52.59375 5.171875 
L 60.40625 5.171875 
L 60.40625 0 
L 35.796875 0 
L 35.796875 5.171875 
L 43.609375 5.171875 
L 43.609375 32.328125 
Q 43.609375 40.09375 41.265625 43.390625 
Q 38.921875 46.6875 33.5 46.6875 
Q 27.484375 46.6875 24.328125 42.140625 
Q 21.1875 37.59375 21.1875 28.90625 
L 21.1875 5.171875 
L 29 5.171875 
L 29 0 
L 4.109375 0 
L 4.109375 5.171875 
L 12.203125 5.171875 
L 12.203125 46.78125 
L 3.609375 46.78125 
L 3.609375 51.90625 
L 21.1875 51.90625 
L 21.1875 42.671875 
Q 23.6875 47.859375 27.53125 50.59375 
Q 31.390625 53.328125 36.28125 53.328125 
Q 42.328125 53.328125 46.375 50.3125 
Q 50.4375 47.3125 51.8125 41.796875 
z
" id="DejaVuSerif-109"/>
      <path d="M 39.796875 16.3125 
L 39.796875 27.296875 
L 28.21875 27.296875 
Q 21.53125 27.296875 18.25 24.40625 
Q 14.984375 21.53125 14.984375 15.578125 
Q 14.984375 10.15625 18.296875 6.984375 
Q 21.625 3.8125 27.296875 3.8125 
Q 32.90625 3.8125 36.34375 7.28125 
Q 39.796875 10.75 39.796875 16.3125 
z
M 48.78125 32.421875 
L 48.78125 5.171875 
L 56.78125 5.171875 
L 56.78125 0 
L 39.796875 0 
L 39.796875 5.609375 
Q 36.8125 2 32.90625 0.28125 
Q 29 -1.421875 23.78125 -1.421875 
Q 15.140625 -1.421875 10.0625 3.171875 
Q 4.984375 7.765625 4.984375 15.578125 
Q 4.984375 23.640625 10.796875 28.078125 
Q 16.609375 32.515625 27.203125 32.515625 
L 39.796875 32.515625 
L 39.796875 36.078125 
Q 39.796875 42 36.203125 45.234375 
Q 32.625 48.484375 26.125 48.484375 
Q 20.75 48.484375 17.578125 46.046875 
Q 14.40625 43.609375 13.625 38.8125 
L 8.984375 38.8125 
L 8.984375 49.3125 
Q 13.671875 51.3125 18.09375 52.3125 
Q 22.515625 53.328125 26.703125 53.328125 
Q 37.5 53.328125 43.140625 47.96875 
Q 48.78125 42.625 48.78125 32.421875 
z
" id="DejaVuSerif-97"/>
      <path d="M 4 0 
L 4 4.203125 
L 36.53125 46.6875 
L 10.796875 46.6875 
L 10.796875 37.703125 
L 5.609375 37.703125 
L 5.609375 51.90625 
L 48.09375 51.90625 
L 48.09375 47.703125 
L 15.578125 5.171875 
L 43.796875 5.171875 
L 43.796875 14.59375 
L 49.03125 14.59375 
L 49.03125 0 
z
" id="DejaVuSerif-122"/>
      <path d="M 20.515625 28.515625 
L 20.515625 23.390625 
Q 20.515625 14.015625 24.09375 9.109375 
Q 27.6875 4.203125 34.515625 4.203125 
Q 41.40625 4.203125 44.9375 9.71875 
Q 48.484375 15.234375 48.484375 25.984375 
Q 48.484375 36.765625 44.9375 42.234375 
Q 41.40625 47.703125 34.515625 47.703125 
Q 27.6875 47.703125 24.09375 42.765625 
Q 20.515625 37.84375 20.515625 28.515625 
z
M 11.53125 46.6875 
L 2.875 46.6875 
L 2.875 51.90625 
L 20.515625 51.90625 
L 20.515625 43.796875 
Q 23.140625 48.6875 27.21875 51 
Q 31.296875 53.328125 37.3125 53.328125 
Q 46.875 53.328125 52.921875 45.75 
Q 58.984375 38.1875 58.984375 25.984375 
Q 58.984375 13.765625 52.921875 6.171875 
Q 46.875 -1.421875 37.3125 -1.421875 
Q 31.296875 -1.421875 27.21875 0.890625 
Q 23.140625 3.21875 20.515625 8.109375 
L 20.515625 -15.578125 
L 29 -15.578125 
L 29 -20.796875 
L 2.875 -20.796875 
L 2.875 -15.578125 
L 11.53125 -15.578125 
z
" id="DejaVuSerif-112"/>
      <path d="M 5.609375 2.875 
L 5.609375 14.984375 
L 10.796875 14.984375 
Q 10.984375 9.1875 14.421875 6.296875 
Q 17.875 3.421875 24.609375 3.421875 
Q 30.671875 3.421875 33.84375 5.6875 
Q 37.015625 7.953125 37.015625 12.3125 
Q 37.015625 15.71875 34.6875 17.8125 
Q 32.375 19.921875 24.90625 22.3125 
L 18.40625 24.515625 
Q 11.71875 26.65625 8.71875 29.875 
Q 5.71875 33.109375 5.71875 38.09375 
Q 5.71875 45.21875 10.9375 49.265625 
Q 16.15625 53.328125 25.390625 53.328125 
Q 29.5 53.328125 34.03125 52.25 
Q 38.578125 51.171875 43.40625 49.125 
L 43.40625 37.796875 
L 38.234375 37.796875 
Q 38.03125 42.828125 34.703125 45.65625 
Q 31.390625 48.484375 25.6875 48.484375 
Q 20.015625 48.484375 17.109375 46.484375 
Q 14.203125 44.484375 14.203125 40.484375 
Q 14.203125 37.203125 16.40625 35.21875 
Q 18.609375 33.25 25.203125 31.203125 
L 32.328125 29 
Q 39.703125 26.703125 42.9375 23.265625 
Q 46.1875 19.828125 46.1875 14.40625 
Q 46.1875 7.03125 40.546875 2.796875 
Q 34.90625 -1.421875 25 -1.421875 
Q 19.96875 -1.421875 15.1875 -0.34375 
Q 10.40625 0.734375 5.609375 2.875 
z
" id="DejaVuSerif-115"/>
      <path d="M 10.796875 46.6875 
L 2.875 46.6875 
L 2.875 51.90625 
L 10.796875 51.90625 
L 10.796875 68.015625 
L 19.828125 68.015625 
L 19.828125 51.90625 
L 36.71875 51.90625 
L 36.71875 46.6875 
L 19.828125 46.6875 
L 19.828125 13.71875 
Q 19.828125 7.125 21.09375 5.265625 
Q 22.359375 3.421875 25.78125 3.421875 
Q 29.296875 3.421875 30.90625 5.484375 
Q 32.515625 7.5625 32.625 12.203125 
L 39.40625 12.203125 
Q 39.015625 5.125 35.546875 1.84375 
Q 32.078125 -1.421875 25 -1.421875 
Q 17.234375 -1.421875 14.015625 2.015625 
Q 10.796875 5.46875 10.796875 13.71875 
z
" id="DejaVuSerif-116"/>
      <path d="M 21.578125 -9.515625 
L 25 -0.875 
L 5.609375 46.6875 
L -0.296875 46.6875 
L -0.296875 51.90625 
L 23.578125 51.90625 
L 23.578125 46.6875 
L 15.28125 46.6875 
L 29.890625 10.984375 
L 44.484375 46.6875 
L 36.71875 46.6875 
L 36.71875 51.90625 
L 56.203125 51.90625 
L 56.203125 46.6875 
L 50.390625 46.6875 
L 26.609375 -11.71875 
Q 24.171875 -17.78125 21.1875 -20 
Q 18.21875 -22.21875 12.796875 -22.21875 
Q 10.5 -22.21875 8.078125 -21.828125 
Q 5.671875 -21.4375 3.21875 -20.703125 
L 3.21875 -10.796875 
L 7.8125 -10.796875 
Q 8.109375 -14.109375 9.5 -15.546875 
Q 10.890625 -17 13.8125 -17 
Q 16.5 -17 18.140625 -15.5 
Q 19.78125 -14.015625 21.578125 -9.515625 
z
" id="DejaVuSerif-121"/>
     </defs>
     <g transform="translate(19.3575 259.55475)rotate(-90)scale(0.16 -0.16)">
      <use xlink:href="#DejaVuSerif-78"/>
      <use x="87.5" xlink:href="#DejaVuSerif-111"/>
      <use x="147.705078" xlink:href="#DejaVuSerif-114"/>
      <use x="195.507812" xlink:href="#DejaVuSerif-109"/>
      <use x="290.332031" xlink:href="#DejaVuSerif-97"/>
      <use x="349.951172" xlink:href="#DejaVuSerif-108"/>
      <use x="381.933594" xlink:href="#DejaVuSerif-105"/>
      <use x="413.916016" xlink:href="#DejaVuSerif-122"/>
      <use x="466.601562" xlink:href="#DejaVuSerif-101"/>
      <use x="525.78125" xlink:href="#DejaVuSerif-32"/>
      <use x="557.568359" xlink:href="#DejaVuSerif-112"/>
      <use x="621.582031" xlink:href="#DejaVuSerif-101"/>
      <use x="680.761719" xlink:href="#DejaVuSerif-114"/>
      <use x="728.564453" xlink:href="#DejaVuSerif-115"/>
      <use x="779.882812" xlink:href="#DejaVuSerif-105"/>
      <use x="811.865234" xlink:href="#DejaVuSerif-115"/>
      <use x="863.183594" xlink:href="#DejaVuSerif-116"/>
      <use x="903.369141" xlink:href="#DejaVuSerif-101"/>
      <use x="962.548828" xlink:href="#DejaVuSerif-110"/>
      <use x="1026.953125" xlink:href="#DejaVuSerif-116"/>
      <use x="1067.138672" xlink:href="#DejaVuSerif-32"/>
      <use x="1098.925781" xlink:href="#DejaVuSerif-101"/>
      <use x="1158.105469" xlink:href="#DejaVuSerif-110"/>
      <use x="1222.509766" xlink:href="#DejaVuSerif-116"/>
      <use x="1262.695312" xlink:href="#DejaVuSerif-114"/>
      <use x="1310.498047" xlink:href="#DejaVuSerif-111"/>
      <use x="1370.703125" xlink:href="#DejaVuSerif-112"/>
      <use x="1434.716797" xlink:href="#DejaVuSerif-121"/>
     </g>
    </g>
   </g>
   <g id="patch_3">
    <path d="M 49.815625 273.312 
L 49.815625 7.2 
" style="fill:none;stroke:#000000;stroke-linecap:square;stroke-linejoin:miter;stroke-width:0.8;"/>
   </g>
   <g id="patch_4">
    <path d="M 406.935625 273.312 
L 406.935625 7.2 
" style="fill:none;stroke:#000000;stroke-linecap:square;stroke-linejoin:miter;stroke-width:0.8;"/>
   </g>
   <g id="patch_5">
    <path d="M 49.815625 273.312 
L 406.935625 273.312 
" style="fill:none;stroke:#000000;stroke-linecap:square;stroke-linejoin:miter;stroke-width:0.8;"/>
   </g>
   <g id="patch_6">
    <path d="M 49.815625 7.2 
L 406.935625 7.2 
" style="fill:none;stroke:#000000;stroke-linecap:square;stroke-linejoin:miter;stroke-width:0.8;"/>
   </g>
   <g id="legend_1">
    <g id="patch_7">
     <path d="M 268.530625 97.6448 
L 387.735625 97.6448 
Q 390.935625 97.6448 390.935625 94.4448 
L 390.935625 72.5598 
Q 390.935625 69.3598 387.735625 69.3598 
L 268.530625 69.3598 
Q 265.330625 69.3598 265.330625 72.5598 
L 265.330625 94.4448 
Q 265.330625 97.6448 268.530625 97.6448 
z
" style="fill:#ffffff;opacity:0.8;stroke:#cccccc;stroke-linejoin:miter;"/>
    </g>
    <g id="PathCollection_2">
     <g>
      <use style="fill:#0072b2;fill-opacity:0.7;stroke:#000000;stroke-opacity:0.7;" x="287.730625" xlink:href="#ma814981cec" y="83.7173"/>
     </g>
    </g>
    <g id="text_14">
     <!-- ent-L-10 -->
     <defs>
      <path d="M 4.390625 30.609375 
L 29.390625 30.609375 
L 29.390625 23 
L 4.390625 23 
z
" id="DejaVuSerif-45"/>
      <path d="M 5.515625 0 
L 5.515625 5.171875 
L 14.796875 5.171875 
L 14.796875 67.671875 
L 5.515625 67.671875 
L 5.515625 72.90625 
L 33.984375 72.90625 
L 33.984375 67.671875 
L 24.703125 67.671875 
L 24.703125 6 
L 58.015625 6 
L 58.015625 18.21875 
L 64.015625 18.21875 
L 64.015625 0 
z
" id="DejaVuSerif-76"/>
     </defs>
     <g transform="translate(316.530625 87.9173)scale(0.16 -0.16)">
      <use xlink:href="#DejaVuSerif-101"/>
      <use x="59.179688" xlink:href="#DejaVuSerif-110"/>
      <use x="123.583984" xlink:href="#DejaVuSerif-116"/>
      <use x="163.769531" xlink:href="#DejaVuSerif-45"/>
      <use x="197.558594" xlink:href="#DejaVuSerif-76"/>
      <use x="263.964844" xlink:href="#DejaVuSerif-45"/>
      <use x="297.753906" xlink:href="#DejaVuSerif-49"/>
      <use x="361.376953" xlink:href="#DejaVuSerif-48"/>
     </g>
    </g>
   </g>
  </g>
  <g id="axes_2">
   <g id="PathCollection_3">
    <defs>
     <path d="M 0 3.872983 
C 1.027127 3.872983 2.012324 3.464901 2.738613 2.738613 
C 3.464901 2.012324 3.872983 1.027127 3.872983 0 
C 3.872983 -1.027127 3.464901 -2.012324 2.738613 -2.738613 
C 2.012324 -3.464901 1.027127 -3.872983 0 -3.872983 
C -1.027127 -3.872983 -2.012324 -3.464901 -2.738613 -2.738613 
C -3.464901 -2.012324 -3.872983 -1.027127 -3.872983 0 
C -3.872983 1.027127 -3.464901 2.012324 -2.738613 2.738613 
C -2.012324 3.464901 -1.027127 3.872983 0 3.872983 
z
" id="mdd77c9fadc" style="stroke:#000000;stroke-opacity:0.7;"/>
    </defs>
    <g clip-path="url(#pb4e061e06e)">
     <use style="fill:#d55e00;fill-opacity:0.7;stroke:#000000;stroke-opacity:0.7;" x="72.147825" xlink:href="#mdd77c9fadc" y="21.779006"/>
     <use style="fill:#d55e00;fill-opacity:0.7;stroke:#000000;stroke-opacity:0.7;" x="79.959215" xlink:href="#mdd77c9fadc" y="27.082528"/>
     <use style="fill:#d55e00;fill-opacity:0.7;stroke:#000000;stroke-opacity:0.7;" x="87.770605" xlink:href="#mdd77c9fadc" y="32.523133"/>
     <use style="fill:#d55e00;fill-opacity:0.7;stroke:#000000;stroke-opacity:0.7;" x="95.581995" xlink:href="#mdd77c9fadc" y="38.48356"/>
     <use style="fill:#d55e00;fill-opacity:0.7;stroke:#000000;stroke-opacity:0.7;" x="103.393385" xlink:href="#mdd77c9fadc" y="44.990067"/>
     <use style="fill:#d55e00;fill-opacity:0.7;stroke:#000000;stroke-opacity:0.7;" x="111.204775" xlink:href="#mdd77c9fadc" y="51.960342"/>
     <use style="fill:#d55e00;fill-opacity:0.7;stroke:#000000;stroke-opacity:0.7;" x="119.016165" xlink:href="#mdd77c9fadc" y="59.27708"/>
     <use style="fill:#d55e00;fill-opacity:0.7;stroke:#000000;stroke-opacity:0.7;" x="126.827555" xlink:href="#mdd77c9fadc" y="66.802363"/>
     <use style="fill:#d55e00;fill-opacity:0.7;stroke:#000000;stroke-opacity:0.7;" x="134.638945" xlink:href="#mdd77c9fadc" y="74.396625"/>
     <use style="fill:#d55e00;fill-opacity:0.7;stroke:#000000;stroke-opacity:0.7;" x="142.450335" xlink:href="#mdd77c9fadc" y="81.924184"/>
     <use style="fill:#d55e00;fill-opacity:0.7;stroke:#000000;stroke-opacity:0.7;" x="150.261725" xlink:href="#mdd77c9fadc" y="89.261427"/>
     <use style="fill:#d55e00;fill-opacity:0.7;stroke:#000000;stroke-opacity:0.7;" x="158.073115" xlink:href="#mdd77c9fadc" y="96.300677"/>
     <use style="fill:#d55e00;fill-opacity:0.7;stroke:#000000;stroke-opacity:0.7;" x="165.884505" xlink:href="#mdd77c9fadc" y="102.951866"/>
     <use style="fill:#d55e00;fill-opacity:0.7;stroke:#000000;stroke-opacity:0.7;" x="173.695895" xlink:href="#mdd77c9fadc" y="109.144855"/>
     <use style="fill:#d55e00;fill-opacity:0.7;stroke:#000000;stroke-opacity:0.7;" x="181.507285" xlink:href="#mdd77c9fadc" y="114.830777"/>
     <use style="fill:#d55e00;fill-opacity:0.7;stroke:#000000;stroke-opacity:0.7;" x="189.318675" xlink:href="#mdd77c9fadc" y="119.982269"/>
     <use style="fill:#d55e00;fill-opacity:0.7;stroke:#000000;stroke-opacity:0.7;" x="197.130065" xlink:href="#mdd77c9fadc" y="125.379684"/>
     <use style="fill:#d55e00;fill-opacity:0.7;stroke:#000000;stroke-opacity:0.7;" x="204.941455" xlink:href="#mdd77c9fadc" y="134.250119"/>
     <use style="fill:#d55e00;fill-opacity:0.7;stroke:#000000;stroke-opacity:0.7;" x="212.752845" xlink:href="#mdd77c9fadc" y="142.573007"/>
     <use style="fill:#d55e00;fill-opacity:0.7;stroke:#000000;stroke-opacity:0.7;" x="220.564235" xlink:href="#mdd77c9fadc" y="152.238337"/>
     <use style="fill:#d55e00;fill-opacity:0.7;stroke:#000000;stroke-opacity:0.7;" x="228.375625" xlink:href="#mdd77c9fadc" y="161.180453"/>
     <use style="fill:#d55e00;fill-opacity:0.7;stroke:#000000;stroke-opacity:0.7;" x="236.187015" xlink:href="#mdd77c9fadc" y="170.167953"/>
     <use style="fill:#d55e00;fill-opacity:0.7;stroke:#000000;stroke-opacity:0.7;" x="243.998405" xlink:href="#mdd77c9fadc" y="180.090481"/>
     <use style="fill:#d55e00;fill-opacity:0.7;stroke:#000000;stroke-opacity:0.7;" x="251.809795" xlink:href="#mdd77c9fadc" y="189.810169"/>
     <use style="fill:#d55e00;fill-opacity:0.7;stroke:#000000;stroke-opacity:0.7;" x="259.621185" xlink:href="#mdd77c9fadc" y="198.545505"/>
     <use style="fill:#d55e00;fill-opacity:0.7;stroke:#000000;stroke-opacity:0.7;" x="267.432575" xlink:href="#mdd77c9fadc" y="206.309653"/>
     <use style="fill:#d55e00;fill-opacity:0.7;stroke:#000000;stroke-opacity:0.7;" x="275.243965" xlink:href="#mdd77c9fadc" y="213.139671"/>
     <use style="fill:#d55e00;fill-opacity:0.7;stroke:#000000;stroke-opacity:0.7;" x="283.055355" xlink:href="#mdd77c9fadc" y="219.090007"/>
     <use style="fill:#d55e00;fill-opacity:0.7;stroke:#000000;stroke-opacity:0.7;" x="290.866745" xlink:href="#mdd77c9fadc" y="224.227129"/>
     <use style="fill:#d55e00;fill-opacity:0.7;stroke:#000000;stroke-opacity:0.7;" x="298.678135" xlink:href="#mdd77c9fadc" y="228.623729"/>
     <use style="fill:#d55e00;fill-opacity:0.7;stroke:#000000;stroke-opacity:0.7;" x="306.489525" xlink:href="#mdd77c9fadc" y="232.354735"/>
     <use style="fill:#d55e00;fill-opacity:0.7;stroke:#000000;stroke-opacity:0.7;" x="314.300915" xlink:href="#mdd77c9fadc" y="235.493493"/>
     <use style="fill:#d55e00;fill-opacity:0.7;stroke:#000000;stroke-opacity:0.7;" x="322.112305" xlink:href="#mdd77c9fadc" y="238.156238"/>
     <use style="fill:#d55e00;fill-opacity:0.7;stroke:#000000;stroke-opacity:0.7;" x="329.923695" xlink:href="#mdd77c9fadc" y="241.645296"/>
     <use style="fill:#d55e00;fill-opacity:0.7;stroke:#000000;stroke-opacity:0.7;" x="337.735085" xlink:href="#mdd77c9fadc" y="244.573967"/>
     <use style="fill:#d55e00;fill-opacity:0.7;stroke:#000000;stroke-opacity:0.7;" x="345.546475" xlink:href="#mdd77c9fadc" y="247.009865"/>
     <use style="fill:#d55e00;fill-opacity:0.7;stroke:#000000;stroke-opacity:0.7;" x="353.357865" xlink:href="#mdd77c9fadc" y="249.013458"/>
     <use style="fill:#d55e00;fill-opacity:0.7;stroke:#000000;stroke-opacity:0.7;" x="361.169255" xlink:href="#mdd77c9fadc" y="250.638113"/>
     <use style="fill:#d55e00;fill-opacity:0.7;stroke:#000000;stroke-opacity:0.7;" x="368.980645" xlink:href="#mdd77c9fadc" y="252.875227"/>
     <use style="fill:#d55e00;fill-opacity:0.7;stroke:#000000;stroke-opacity:0.7;" x="376.792035" xlink:href="#mdd77c9fadc" y="255.96491"/>
     <use style="fill:#d55e00;fill-opacity:0.7;stroke:#000000;stroke-opacity:0.7;" x="384.603425" xlink:href="#mdd77c9fadc" y="258.732994"/>
    </g>
   </g>
   <g id="matplotlib.axis_3">
    <g id="ytick_7">
     <g id="line2d_12">
      <defs>
       <path d="M 0 0 
L 3.5 0 
" id="m4269c689cf" style="stroke:#000000;stroke-width:0.8;"/>
      </defs>
      <g>
       <use style="stroke:#000000;stroke-width:0.8;" x="406.935625" xlink:href="#m4269c689cf" y="258.732994"/>
      </g>
     </g>
     <g id="text_15">
      <!-- 0.0 -->
      <g transform="translate(413.935625 262.532213)scale(0.1 -0.1)">
       <use xlink:href="#DejaVuSerif-48"/>
       <use x="63.623047" xlink:href="#DejaVuSerif-46"/>
       <use x="95.410156" xlink:href="#DejaVuSerif-48"/>
      </g>
     </g>
    </g>
    <g id="ytick_8">
     <g id="line2d_13">
      <g>
       <use style="stroke:#000000;stroke-width:0.8;" x="406.935625" xlink:href="#m4269c689cf" y="211.342197"/>
      </g>
     </g>
     <g id="text_16">
      <!-- 0.2 -->
      <g transform="translate(413.935625 215.141415)scale(0.1 -0.1)">
       <use xlink:href="#DejaVuSerif-48"/>
       <use x="63.623047" xlink:href="#DejaVuSerif-46"/>
       <use x="95.410156" xlink:href="#DejaVuSerif-50"/>
      </g>
     </g>
    </g>
    <g id="ytick_9">
     <g id="line2d_14">
      <g>
       <use style="stroke:#000000;stroke-width:0.8;" x="406.935625" xlink:href="#m4269c689cf" y="163.951399"/>
      </g>
     </g>
     <g id="text_17">
      <!-- 0.4 -->
      <g transform="translate(413.935625 167.750618)scale(0.1 -0.1)">
       <use xlink:href="#DejaVuSerif-48"/>
       <use x="63.623047" xlink:href="#DejaVuSerif-46"/>
       <use x="95.410156" xlink:href="#DejaVuSerif-52"/>
      </g>
     </g>
    </g>
    <g id="ytick_10">
     <g id="line2d_15">
      <g>
       <use style="stroke:#000000;stroke-width:0.8;" x="406.935625" xlink:href="#m4269c689cf" y="116.560601"/>
      </g>
     </g>
     <g id="text_18">
      <!-- 0.6 -->
      <g transform="translate(413.935625 120.35982)scale(0.1 -0.1)">
       <use xlink:href="#DejaVuSerif-48"/>
       <use x="63.623047" xlink:href="#DejaVuSerif-46"/>
       <use x="95.410156" xlink:href="#DejaVuSerif-54"/>
      </g>
     </g>
    </g>
    <g id="ytick_11">
     <g id="line2d_16">
      <g>
       <use style="stroke:#000000;stroke-width:0.8;" x="406.935625" xlink:href="#m4269c689cf" y="69.169803"/>
      </g>
     </g>
     <g id="text_19">
      <!-- 0.8 -->
      <g transform="translate(413.935625 72.969022)scale(0.1 -0.1)">
       <use xlink:href="#DejaVuSerif-48"/>
       <use x="63.623047" xlink:href="#DejaVuSerif-46"/>
       <use x="95.410156" xlink:href="#DejaVuSerif-56"/>
      </g>
     </g>
    </g>
    <g id="ytick_12">
     <g id="line2d_17">
      <g>
       <use style="stroke:#000000;stroke-width:0.8;" x="406.935625" xlink:href="#m4269c689cf" y="21.779006"/>
      </g>
     </g>
     <g id="text_20">
      <!-- 1.0 -->
      <g transform="translate(413.935625 25.578224)scale(0.1 -0.1)">
       <use xlink:href="#DejaVuSerif-49"/>
       <use x="63.623047" xlink:href="#DejaVuSerif-46"/>
       <use x="95.410156" xlink:href="#DejaVuSerif-48"/>
      </g>
     </g>
    </g>
    <g id="text_21">
     <!-- p-norm persistence -->
     <defs>
      <path d="M 51.421875 15.578125 
Q 49.515625 7.28125 44.09375 2.921875 
Q 38.671875 -1.421875 30.078125 -1.421875 
Q 18.75 -1.421875 11.859375 6.078125 
Q 4.984375 13.578125 4.984375 25.984375 
Q 4.984375 38.421875 11.859375 45.875 
Q 18.75 53.328125 30.078125 53.328125 
Q 35.015625 53.328125 39.890625 52.171875 
Q 44.78125 51.03125 49.703125 48.6875 
L 49.703125 35.40625 
L 44.484375 35.40625 
Q 43.453125 42.234375 40.015625 45.359375 
Q 36.578125 48.484375 30.171875 48.484375 
Q 22.90625 48.484375 19.1875 42.84375 
Q 15.484375 37.203125 15.484375 25.984375 
Q 15.484375 14.75 19.171875 9.078125 
Q 22.859375 3.421875 30.171875 3.421875 
Q 35.984375 3.421875 39.453125 6.4375 
Q 42.921875 9.46875 44.1875 15.578125 
z
" id="DejaVuSerif-99"/>
     </defs>
     <g transform="translate(445.99625 218.7685)rotate(-90)scale(0.16 -0.16)">
      <use xlink:href="#DejaVuSerif-112"/>
      <use x="64.013672" xlink:href="#DejaVuSerif-45"/>
      <use x="97.802734" xlink:href="#DejaVuSerif-110"/>
      <use x="162.207031" xlink:href="#DejaVuSerif-111"/>
      <use x="222.412109" xlink:href="#DejaVuSerif-114"/>
      <use x="270.214844" xlink:href="#DejaVuSerif-109"/>
      <use x="365.039062" xlink:href="#DejaVuSerif-32"/>
      <use x="396.826172" xlink:href="#DejaVuSerif-112"/>
      <use x="460.839844" xlink:href="#DejaVuSerif-101"/>
      <use x="520.019531" xlink:href="#DejaVuSerif-114"/>
      <use x="567.822266" xlink:href="#DejaVuSerif-115"/>
      <use x="619.140625" xlink:href="#DejaVuSerif-105"/>
      <use x="651.123047" xlink:href="#DejaVuSerif-115"/>
      <use x="702.441406" xlink:href="#DejaVuSerif-116"/>
      <use x="742.626953" xlink:href="#DejaVuSerif-101"/>
      <use x="801.806641" xlink:href="#DejaVuSerif-110"/>
      <use x="866.210938" xlink:href="#DejaVuSerif-99"/>
      <use x="922.216797" xlink:href="#DejaVuSerif-101"/>
     </g>
    </g>
   </g>
   <g id="patch_8">
    <path d="M 49.815625 273.312 
L 49.815625 7.2 
" style="fill:none;stroke:#000000;stroke-linecap:square;stroke-linejoin:miter;stroke-width:0.8;"/>
   </g>
   <g id="patch_9">
    <path d="M 406.935625 273.312 
L 406.935625 7.2 
" style="fill:none;stroke:#000000;stroke-linecap:square;stroke-linejoin:miter;stroke-width:0.8;"/>
   </g>
   <g id="patch_10">
    <path d="M 49.815625 273.312 
L 406.935625 273.312 
" style="fill:none;stroke:#000000;stroke-linecap:square;stroke-linejoin:miter;stroke-width:0.8;"/>
   </g>
   <g id="patch_11">
    <path d="M 49.815625 7.2 
L 406.935625 7.2 
" style="fill:none;stroke:#000000;stroke-linecap:square;stroke-linejoin:miter;stroke-width:0.8;"/>
   </g>
   <g id="legend_2">
    <g id="patch_12">
     <path d="M 241.735625 211.1522 
L 387.735625 211.1522 
Q 390.935625 211.1522 390.935625 207.9522 
L 390.935625 186.0672 
Q 390.935625 182.8672 387.735625 182.8672 
L 241.735625 182.8672 
Q 238.535625 182.8672 238.535625 186.0672 
L 238.535625 207.9522 
Q 238.535625 211.1522 241.735625 211.1522 
z
" style="fill:#ffffff;opacity:0.8;stroke:#cccccc;stroke-linejoin:miter;"/>
    </g>
    <g id="PathCollection_4">
     <g>
      <use style="fill:#d55e00;fill-opacity:0.7;stroke:#000000;stroke-opacity:0.7;" x="260.935625" xlink:href="#mdd77c9fadc" y="197.2247"/>
     </g>
    </g>
    <g id="text_22">
     <!-- pnorm-L-10 -->
     <g transform="translate(289.735625 201.4247)scale(0.16 -0.16)">
      <use xlink:href="#DejaVuSerif-112"/>
      <use x="64.013672" xlink:href="#DejaVuSerif-110"/>
      <use x="128.417969" xlink:href="#DejaVuSerif-111"/>
      <use x="188.623047" xlink:href="#DejaVuSerif-114"/>
      <use x="236.425781" xlink:href="#DejaVuSerif-109"/>
      <use x="331.25" xlink:href="#DejaVuSerif-45"/>
      <use x="365.039062" xlink:href="#DejaVuSerif-76"/>
      <use x="431.445312" xlink:href="#DejaVuSerif-45"/>
      <use x="465.234375" xlink:href="#DejaVuSerif-49"/>
      <use x="528.857422" xlink:href="#DejaVuSerif-48"/>
     </g>
    </g>
   </g>
  </g>
 </g>
 <defs>
  <clipPath id="pb4e061e06e">
   <rect height="266.112" width="357.12" x="49.815625" y="7.2"/>
  </clipPath>
 </defs>
</svg>
