<?xml version="1.0" encoding="utf-8" standalone="no"?>
<!DOCTYPE svg PUBLIC "-//W3C//DTD SVG 1.1//EN"
  "http://www.w3.org/Graphics/SVG/1.1/DTD/svg11.dtd">
<!-- Created with matplotlib (https://matplotlib.org/) -->
<svg height="330.64825pt" version="1.1" viewBox="0 0 426.31125 330.64825" width="426.31125pt" xmlns="http://www.w3.org/2000/svg" xmlns:xlink="http://www.w3.org/1999/xlink">
 <defs>
  <style type="text/css">
*{stroke-linecap:butt;stroke-linejoin:round;}
  </style>
 </defs>
 <g id="figure_1">
  <g id="patch_1">
   <path d="M 0 330.64825 
L 426.31125 330.64825 
L 426.31125 0 
L 0 0 
z
" style="fill:#ffffff;"/>
  </g>
  <g id="axes_1">
   <g id="patch_2">
    <path d="M 61.99125 273.312 
L 419.11125 273.312 
L 419.11125 7.2 
L 61.99125 7.2 
z
" style="fill:#ffffff;"/>
   </g>
   <g id="PathCollection_1">
    <defs>
     <path d="M 0 4.472136 
C 1.186024 4.472136 2.323632 4.000923 3.162278 3.162278 
C 4.000923 2.323632 4.472136 1.186024 4.472136 0 
C 4.472136 -1.186024 4.000923 -2.323632 3.162278 -3.162278 
C 2.323632 -4.000923 1.186024 -4.472136 0 -4.472136 
C -1.186024 -4.472136 -2.323632 -4.000923 -3.162278 -3.162278 
C -4.000923 -2.323632 -4.472136 -1.186024 -4.472136 0 
C -4.472136 1.186024 -4.000923 2.323632 -3.162278 3.162278 
C -2.323632 4.000923 -1.186024 4.472136 0 4.472136 
z
" id="m3e904c46ea" style="stroke:#000000;stroke-opacity:0.7;"/>
    </defs>
    <g clip-path="url(#pf1cc87b0df)">
     <use style="fill:#0072b2;fill-opacity:0.7;stroke:#000000;stroke-opacity:0.7;" x="81.443915" xlink:href="#m3e904c46ea" y="257.996062"/>
     <use style="fill:#0072b2;fill-opacity:0.7;stroke:#000000;stroke-opacity:0.7;" x="89.399282" xlink:href="#m3e904c46ea" y="257.320256"/>
     <use style="fill:#0072b2;fill-opacity:0.7;stroke:#000000;stroke-opacity:0.7;" x="97.354649" xlink:href="#m3e904c46ea" y="256.624188"/>
     <use style="fill:#0072b2;fill-opacity:0.7;stroke:#000000;stroke-opacity:0.7;" x="105.310015" xlink:href="#m3e904c46ea" y="255.79024"/>
     <use style="fill:#0072b2;fill-opacity:0.7;stroke:#000000;stroke-opacity:0.7;" x="113.265382" xlink:href="#m3e904c46ea" y="254.402076"/>
     <use style="fill:#0072b2;fill-opacity:0.7;stroke:#000000;stroke-opacity:0.7;" x="121.220749" xlink:href="#m3e904c46ea" y="252.318212"/>
     <use style="fill:#0072b2;fill-opacity:0.7;stroke:#000000;stroke-opacity:0.7;" x="129.176116" xlink:href="#m3e904c46ea" y="249.379335"/>
     <use style="fill:#0072b2;fill-opacity:0.7;stroke:#000000;stroke-opacity:0.7;" x="137.131482" xlink:href="#m3e904c46ea" y="245.403788"/>
     <use style="fill:#0072b2;fill-opacity:0.7;stroke:#000000;stroke-opacity:0.7;" x="145.086849" xlink:href="#m3e904c46ea" y="240.184112"/>
     <use style="fill:#0072b2;fill-opacity:0.7;stroke:#000000;stroke-opacity:0.7;" x="153.042216" xlink:href="#m3e904c46ea" y="233.483183"/>
     <use style="fill:#0072b2;fill-opacity:0.7;stroke:#000000;stroke-opacity:0.7;" x="160.997583" xlink:href="#m3e904c46ea" y="225.028433"/>
     <use style="fill:#0072b2;fill-opacity:0.7;stroke:#000000;stroke-opacity:0.7;" x="168.952949" xlink:href="#m3e904c46ea" y="215.191316"/>
     <use style="fill:#0072b2;fill-opacity:0.7;stroke:#000000;stroke-opacity:0.7;" x="176.908316" xlink:href="#m3e904c46ea" y="206.243323"/>
     <use style="fill:#0072b2;fill-opacity:0.7;stroke:#000000;stroke-opacity:0.7;" x="184.863683" xlink:href="#m3e904c46ea" y="195.52357"/>
     <use style="fill:#0072b2;fill-opacity:0.7;stroke:#000000;stroke-opacity:0.7;" x="192.81905" xlink:href="#m3e904c46ea" y="181.474528"/>
     <use style="fill:#0072b2;fill-opacity:0.7;stroke:#000000;stroke-opacity:0.7;" x="200.774416" xlink:href="#m3e904c46ea" y="165.174696"/>
     <use style="fill:#0072b2;fill-opacity:0.7;stroke:#000000;stroke-opacity:0.7;" x="208.729783" xlink:href="#m3e904c46ea" y="144.949866"/>
     <use style="fill:#0072b2;fill-opacity:0.7;stroke:#000000;stroke-opacity:0.7;" x="216.68515" xlink:href="#m3e904c46ea" y="121.481204"/>
     <use style="fill:#0072b2;fill-opacity:0.7;stroke:#000000;stroke-opacity:0.7;" x="224.640517" xlink:href="#m3e904c46ea" y="99.378607"/>
     <use style="fill:#0072b2;fill-opacity:0.7;stroke:#000000;stroke-opacity:0.7;" x="232.595883" xlink:href="#m3e904c46ea" y="83.467835"/>
     <use style="fill:#0072b2;fill-opacity:0.7;stroke:#000000;stroke-opacity:0.7;" x="240.55125" xlink:href="#m3e904c46ea" y="72.147202"/>
     <use style="fill:#0072b2;fill-opacity:0.7;stroke:#000000;stroke-opacity:0.7;" x="248.506617" xlink:href="#m3e904c46ea" y="63.825848"/>
     <use style="fill:#0072b2;fill-opacity:0.7;stroke:#000000;stroke-opacity:0.7;" x="256.461983" xlink:href="#m3e904c46ea" y="57.469713"/>
     <use style="fill:#0072b2;fill-opacity:0.7;stroke:#000000;stroke-opacity:0.7;" x="264.41735" xlink:href="#m3e904c46ea" y="52.43863"/>
     <use style="fill:#0072b2;fill-opacity:0.7;stroke:#000000;stroke-opacity:0.7;" x="272.372717" xlink:href="#m3e904c46ea" y="48.335671"/>
     <use style="fill:#0072b2;fill-opacity:0.7;stroke:#000000;stroke-opacity:0.7;" x="280.328084" xlink:href="#m3e904c46ea" y="44.907613"/>
     <use style="fill:#0072b2;fill-opacity:0.7;stroke:#000000;stroke-opacity:0.7;" x="288.28345" xlink:href="#m3e904c46ea" y="41.987008"/>
     <use style="fill:#0072b2;fill-opacity:0.7;stroke:#000000;stroke-opacity:0.7;" x="296.238817" xlink:href="#m3e904c46ea" y="39.459145"/>
     <use style="fill:#0072b2;fill-opacity:0.7;stroke:#000000;stroke-opacity:0.7;" x="304.194184" xlink:href="#m3e904c46ea" y="37.242867"/>
     <use style="fill:#0072b2;fill-opacity:0.7;stroke:#000000;stroke-opacity:0.7;" x="312.149551" xlink:href="#m3e904c46ea" y="35.279056"/>
     <use style="fill:#0072b2;fill-opacity:0.7;stroke:#000000;stroke-opacity:0.7;" x="320.104917" xlink:href="#m3e904c46ea" y="33.523525"/>
     <use style="fill:#0072b2;fill-opacity:0.7;stroke:#000000;stroke-opacity:0.7;" x="328.060284" xlink:href="#m3e904c46ea" y="31.942481"/>
     <use style="fill:#0072b2;fill-opacity:0.7;stroke:#000000;stroke-opacity:0.7;" x="336.015651" xlink:href="#m3e904c46ea" y="30.509564"/>
     <use style="fill:#0072b2;fill-opacity:0.7;stroke:#000000;stroke-opacity:0.7;" x="343.971018" xlink:href="#m3e904c46ea" y="29.203821"/>
     <use style="fill:#0072b2;fill-opacity:0.7;stroke:#000000;stroke-opacity:0.7;" x="351.926384" xlink:href="#m3e904c46ea" y="28.008339"/>
     <use style="fill:#0072b2;fill-opacity:0.7;stroke:#000000;stroke-opacity:0.7;" x="359.881751" xlink:href="#m3e904c46ea" y="26.909269"/>
     <use style="fill:#0072b2;fill-opacity:0.7;stroke:#000000;stroke-opacity:0.7;" x="367.837118" xlink:href="#m3e904c46ea" y="25.895139"/>
     <use style="fill:#0072b2;fill-opacity:0.7;stroke:#000000;stroke-opacity:0.7;" x="375.792485" xlink:href="#m3e904c46ea" y="24.956315"/>
     <use style="fill:#0072b2;fill-opacity:0.7;stroke:#000000;stroke-opacity:0.7;" x="383.747851" xlink:href="#m3e904c46ea" y="24.084648"/>
     <use style="fill:#0072b2;fill-opacity:0.7;stroke:#000000;stroke-opacity:0.7;" x="391.703218" xlink:href="#m3e904c46ea" y="23.273188"/>
     <use style="fill:#0072b2;fill-opacity:0.7;stroke:#000000;stroke-opacity:0.7;" x="399.658585" xlink:href="#m3e904c46ea" y="22.515938"/>
    </g>
   </g>
   <g id="PathCollection_2">
    <defs>
     <path d="M 0 4.472136 
C 1.186024 4.472136 2.323632 4.000923 3.162278 3.162278 
C 4.000923 2.323632 4.472136 1.186024 4.472136 0 
C 4.472136 -1.186024 4.000923 -2.323632 3.162278 -3.162278 
C 2.323632 -4.000923 1.186024 -4.472136 0 -4.472136 
C -1.186024 -4.472136 -2.323632 -4.000923 -3.162278 -3.162278 
C -4.000923 -2.323632 -4.472136 -1.186024 -4.472136 0 
C -4.472136 1.186024 -4.000923 2.323632 -3.162278 3.162278 
C -2.323632 4.000923 -1.186024 4.472136 0 4.472136 
z
" id="m9b70c7fabb" style="stroke:#000000;stroke-opacity:0.7;"/>
    </defs>
    <g clip-path="url(#pf1cc87b0df)">
     <use style="fill:#009e73;fill-opacity:0.7;stroke:#000000;stroke-opacity:0.7;" x="81.443915" xlink:href="#m9b70c7fabb" y="257.996062"/>
     <use style="fill:#009e73;fill-opacity:0.7;stroke:#000000;stroke-opacity:0.7;" x="89.399282" xlink:href="#m9b70c7fabb" y="257.569692"/>
     <use style="fill:#009e73;fill-opacity:0.7;stroke:#000000;stroke-opacity:0.7;" x="97.354649" xlink:href="#m9b70c7fabb" y="256.932323"/>
     <use style="fill:#009e73;fill-opacity:0.7;stroke:#000000;stroke-opacity:0.7;" x="105.310015" xlink:href="#m9b70c7fabb" y="256.352849"/>
     <use style="fill:#009e73;fill-opacity:0.7;stroke:#000000;stroke-opacity:0.7;" x="113.265382" xlink:href="#m9b70c7fabb" y="255.446761"/>
     <use style="fill:#009e73;fill-opacity:0.7;stroke:#000000;stroke-opacity:0.7;" x="121.220749" xlink:href="#m9b70c7fabb" y="254.085901"/>
     <use style="fill:#009e73;fill-opacity:0.7;stroke:#000000;stroke-opacity:0.7;" x="129.176116" xlink:href="#m9b70c7fabb" y="252.164172"/>
     <use style="fill:#009e73;fill-opacity:0.7;stroke:#000000;stroke-opacity:0.7;" x="137.131482" xlink:href="#m9b70c7fabb" y="249.560567"/>
     <use style="fill:#009e73;fill-opacity:0.7;stroke:#000000;stroke-opacity:0.7;" x="145.086849" xlink:href="#m9b70c7fabb" y="246.137308"/>
     <use style="fill:#009e73;fill-opacity:0.7;stroke:#000000;stroke-opacity:0.7;" x="153.042216" xlink:href="#m9b70c7fabb" y="241.737642"/>
     <use style="fill:#009e73;fill-opacity:0.7;stroke:#000000;stroke-opacity:0.7;" x="160.997583" xlink:href="#m9b70c7fabb" y="236.564528"/>
     <use style="fill:#009e73;fill-opacity:0.7;stroke:#000000;stroke-opacity:0.7;" x="168.952949" xlink:href="#m9b70c7fabb" y="230.457025"/>
     <use style="fill:#009e73;fill-opacity:0.7;stroke:#000000;stroke-opacity:0.7;" x="176.908316" xlink:href="#m9b70c7fabb" y="224.931482"/>
     <use style="fill:#009e73;fill-opacity:0.7;stroke:#000000;stroke-opacity:0.7;" x="184.863683" xlink:href="#m9b70c7fabb" y="218.22586"/>
     <use style="fill:#009e73;fill-opacity:0.7;stroke:#000000;stroke-opacity:0.7;" x="192.81905" xlink:href="#m9b70c7fabb" y="209.304492"/>
     <use style="fill:#009e73;fill-opacity:0.7;stroke:#000000;stroke-opacity:0.7;" x="200.774416" xlink:href="#m9b70c7fabb" y="198.822189"/>
     <use style="fill:#009e73;fill-opacity:0.7;stroke:#000000;stroke-opacity:0.7;" x="208.729783" xlink:href="#m9b70c7fabb" y="186.659479"/>
     <use style="fill:#009e73;fill-opacity:0.7;stroke:#000000;stroke-opacity:0.7;" x="216.68515" xlink:href="#m9b70c7fabb" y="161.011879"/>
     <use style="fill:#009e73;fill-opacity:0.7;stroke:#000000;stroke-opacity:0.7;" x="224.640517" xlink:href="#m9b70c7fabb" y="119.241012"/>
     <use style="fill:#009e73;fill-opacity:0.7;stroke:#000000;stroke-opacity:0.7;" x="232.595883" xlink:href="#m9b70c7fabb" y="92.552662"/>
     <use style="fill:#009e73;fill-opacity:0.7;stroke:#000000;stroke-opacity:0.7;" x="240.55125" xlink:href="#m9b70c7fabb" y="76.857911"/>
     <use style="fill:#009e73;fill-opacity:0.7;stroke:#000000;stroke-opacity:0.7;" x="248.506617" xlink:href="#m9b70c7fabb" y="66.52028"/>
     <use style="fill:#009e73;fill-opacity:0.7;stroke:#000000;stroke-opacity:0.7;" x="256.461983" xlink:href="#m9b70c7fabb" y="59.098832"/>
     <use style="fill:#009e73;fill-opacity:0.7;stroke:#000000;stroke-opacity:0.7;" x="264.41735" xlink:href="#m9b70c7fabb" y="53.44795"/>
     <use style="fill:#009e73;fill-opacity:0.7;stroke:#000000;stroke-opacity:0.7;" x="272.372717" xlink:href="#m9b70c7fabb" y="48.960865"/>
     <use style="fill:#009e73;fill-opacity:0.7;stroke:#000000;stroke-opacity:0.7;" x="280.328084" xlink:href="#m9b70c7fabb" y="45.284926"/>
     <use style="fill:#009e73;fill-opacity:0.7;stroke:#000000;stroke-opacity:0.7;" x="288.28345" xlink:href="#m9b70c7fabb" y="42.200486"/>
     <use style="fill:#009e73;fill-opacity:0.7;stroke:#000000;stroke-opacity:0.7;" x="296.238817" xlink:href="#m9b70c7fabb" y="39.563189"/>
     <use style="fill:#009e73;fill-opacity:0.7;stroke:#000000;stroke-opacity:0.7;" x="304.194184" xlink:href="#m9b70c7fabb" y="37.273985"/>
     <use style="fill:#009e73;fill-opacity:0.7;stroke:#000000;stroke-opacity:0.7;" x="312.149551" xlink:href="#m9b70c7fabb" y="35.262439"/>
     <use style="fill:#009e73;fill-opacity:0.7;stroke:#000000;stroke-opacity:0.7;" x="320.104917" xlink:href="#m9b70c7fabb" y="33.476913"/>
     <use style="fill:#009e73;fill-opacity:0.7;stroke:#000000;stroke-opacity:0.7;" x="328.060284" xlink:href="#m9b70c7fabb" y="31.878591"/>
     <use style="fill:#009e73;fill-opacity:0.7;stroke:#000000;stroke-opacity:0.7;" x="336.015651" xlink:href="#m9b70c7fabb" y="30.437588"/>
     <use style="fill:#009e73;fill-opacity:0.7;stroke:#000000;stroke-opacity:0.7;" x="343.971018" xlink:href="#m9b70c7fabb" y="29.130458"/>
     <use style="fill:#009e73;fill-opacity:0.7;stroke:#000000;stroke-opacity:0.7;" x="351.926384" xlink:href="#m9b70c7fabb" y="27.938502"/>
     <use style="fill:#009e73;fill-opacity:0.7;stroke:#000000;stroke-opacity:0.7;" x="359.881751" xlink:href="#m9b70c7fabb" y="26.846562"/>
     <use style="fill:#009e73;fill-opacity:0.7;stroke:#000000;stroke-opacity:0.7;" x="367.837118" xlink:href="#m9b70c7fabb" y="25.842167"/>
     <use style="fill:#009e73;fill-opacity:0.7;stroke:#000000;stroke-opacity:0.7;" x="375.792485" xlink:href="#m9b70c7fabb" y="24.914976"/>
     <use style="fill:#009e73;fill-opacity:0.7;stroke:#000000;stroke-opacity:0.7;" x="383.747851" xlink:href="#m9b70c7fabb" y="24.056285"/>
     <use style="fill:#009e73;fill-opacity:0.7;stroke:#000000;stroke-opacity:0.7;" x="391.703218" xlink:href="#m9b70c7fabb" y="23.258707"/>
     <use style="fill:#009e73;fill-opacity:0.7;stroke:#000000;stroke-opacity:0.7;" x="399.658585" xlink:href="#m9b70c7fabb" y="22.515938"/>
    </g>
   </g>
   <g id="PathCollection_3">
    <defs>
     <path d="M 0 4.472136 
C 1.186024 4.472136 2.323632 4.000923 3.162278 3.162278 
C 4.000923 2.323632 4.472136 1.186024 4.472136 0 
C 4.472136 -1.186024 4.000923 -2.323632 3.162278 -3.162278 
C 2.323632 -4.000923 1.186024 -4.472136 0 -4.472136 
C -1.186024 -4.472136 -2.323632 -4.000923 -3.162278 -3.162278 
C -4.000923 -2.323632 -4.472136 -1.186024 -4.472136 0 
C -4.472136 1.186024 -4.000923 2.323632 -3.162278 3.162278 
C -2.323632 4.000923 -1.186024 4.472136 0 4.472136 
z
" id="md17960232e" style="stroke:#000000;stroke-opacity:0.7;"/>
    </defs>
    <g clip-path="url(#pf1cc87b0df)">
     <use style="fill:#d55e00;fill-opacity:0.7;stroke:#000000;stroke-opacity:0.7;" x="81.443915" xlink:href="#md17960232e" y="257.996062"/>
     <use style="fill:#d55e00;fill-opacity:0.7;stroke:#000000;stroke-opacity:0.7;" x="89.399282" xlink:href="#md17960232e" y="257.715911"/>
     <use style="fill:#d55e00;fill-opacity:0.7;stroke:#000000;stroke-opacity:0.7;" x="97.354649" xlink:href="#md17960232e" y="257.296764"/>
     <use style="fill:#d55e00;fill-opacity:0.7;stroke:#000000;stroke-opacity:0.7;" x="105.310015" xlink:href="#md17960232e" y="256.831694"/>
     <use style="fill:#d55e00;fill-opacity:0.7;stroke:#000000;stroke-opacity:0.7;" x="113.265382" xlink:href="#md17960232e" y="256.226863"/>
     <use style="fill:#d55e00;fill-opacity:0.7;stroke:#000000;stroke-opacity:0.7;" x="121.220749" xlink:href="#md17960232e" y="255.316938"/>
     <use style="fill:#d55e00;fill-opacity:0.7;stroke:#000000;stroke-opacity:0.7;" x="129.176116" xlink:href="#md17960232e" y="254.030148"/>
     <use style="fill:#d55e00;fill-opacity:0.7;stroke:#000000;stroke-opacity:0.7;" x="137.131482" xlink:href="#md17960232e" y="252.284783"/>
     <use style="fill:#d55e00;fill-opacity:0.7;stroke:#000000;stroke-opacity:0.7;" x="145.086849" xlink:href="#md17960232e" y="249.988189"/>
     <use style="fill:#d55e00;fill-opacity:0.7;stroke:#000000;stroke-opacity:0.7;" x="153.042216" xlink:href="#md17960232e" y="247.08519"/>
     <use style="fill:#d55e00;fill-opacity:0.7;stroke:#000000;stroke-opacity:0.7;" x="160.997583" xlink:href="#md17960232e" y="243.787671"/>
     <use style="fill:#d55e00;fill-opacity:0.7;stroke:#000000;stroke-opacity:0.7;" x="168.952949" xlink:href="#md17960232e" y="239.72321"/>
     <use style="fill:#d55e00;fill-opacity:0.7;stroke:#000000;stroke-opacity:0.7;" x="176.908316" xlink:href="#md17960232e" y="236.163934"/>
     <use style="fill:#d55e00;fill-opacity:0.7;stroke:#000000;stroke-opacity:0.7;" x="184.863683" xlink:href="#md17960232e" y="231.807578"/>
     <use style="fill:#d55e00;fill-opacity:0.7;stroke:#000000;stroke-opacity:0.7;" x="192.81905" xlink:href="#md17960232e" y="225.945715"/>
     <use style="fill:#d55e00;fill-opacity:0.7;stroke:#000000;stroke-opacity:0.7;" x="200.774416" xlink:href="#md17960232e" y="219.055856"/>
     <use style="fill:#d55e00;fill-opacity:0.7;stroke:#000000;stroke-opacity:0.7;" x="208.729783" xlink:href="#md17960232e" y="211.280913"/>
     <use style="fill:#d55e00;fill-opacity:0.7;stroke:#000000;stroke-opacity:0.7;" x="216.68515" xlink:href="#md17960232e" y="193.651924"/>
     <use style="fill:#d55e00;fill-opacity:0.7;stroke:#000000;stroke-opacity:0.7;" x="224.640517" xlink:href="#md17960232e" y="134.61372"/>
     <use style="fill:#d55e00;fill-opacity:0.7;stroke:#000000;stroke-opacity:0.7;" x="232.595883" xlink:href="#md17960232e" y="96.280724"/>
     <use style="fill:#d55e00;fill-opacity:0.7;stroke:#000000;stroke-opacity:0.7;" x="240.55125" xlink:href="#md17960232e" y="78.145749"/>
     <use style="fill:#d55e00;fill-opacity:0.7;stroke:#000000;stroke-opacity:0.7;" x="248.506617" xlink:href="#md17960232e" y="66.96329"/>
     <use style="fill:#d55e00;fill-opacity:0.7;stroke:#000000;stroke-opacity:0.7;" x="256.461983" xlink:href="#md17960232e" y="59.168413"/>
     <use style="fill:#d55e00;fill-opacity:0.7;stroke:#000000;stroke-opacity:0.7;" x="264.41735" xlink:href="#md17960232e" y="53.334195"/>
     <use style="fill:#d55e00;fill-opacity:0.7;stroke:#000000;stroke-opacity:0.7;" x="272.372717" xlink:href="#md17960232e" y="48.754743"/>
     <use style="fill:#d55e00;fill-opacity:0.7;stroke:#000000;stroke-opacity:0.7;" x="280.328084" xlink:href="#md17960232e" y="45.034812"/>
     <use style="fill:#d55e00;fill-opacity:0.7;stroke:#000000;stroke-opacity:0.7;" x="288.28345" xlink:href="#md17960232e" y="41.933886"/>
     <use style="fill:#d55e00;fill-opacity:0.7;stroke:#000000;stroke-opacity:0.7;" x="296.238817" xlink:href="#md17960232e" y="39.296445"/>
     <use style="fill:#d55e00;fill-opacity:0.7;stroke:#000000;stroke-opacity:0.7;" x="304.194184" xlink:href="#md17960232e" y="37.017039"/>
     <use style="fill:#d55e00;fill-opacity:0.7;stroke:#000000;stroke-opacity:0.7;" x="312.149551" xlink:href="#md17960232e" y="35.021384"/>
     <use style="fill:#d55e00;fill-opacity:0.7;stroke:#000000;stroke-opacity:0.7;" x="320.104917" xlink:href="#md17960232e" y="33.255473"/>
     <use style="fill:#d55e00;fill-opacity:0.7;stroke:#000000;stroke-opacity:0.7;" x="328.060284" xlink:href="#md17960232e" y="31.678905"/>
     <use style="fill:#d55e00;fill-opacity:0.7;stroke:#000000;stroke-opacity:0.7;" x="336.015651" xlink:href="#md17960232e" y="30.26082"/>
     <use style="fill:#d55e00;fill-opacity:0.7;stroke:#000000;stroke-opacity:0.7;" x="343.971018" xlink:href="#md17960232e" y="28.977082"/>
     <use style="fill:#d55e00;fill-opacity:0.7;stroke:#000000;stroke-opacity:0.7;" x="351.926384" xlink:href="#md17960232e" y="27.808556"/>
     <use style="fill:#d55e00;fill-opacity:0.7;stroke:#000000;stroke-opacity:0.7;" x="359.881751" xlink:href="#md17960232e" y="26.739767"/>
     <use style="fill:#d55e00;fill-opacity:0.7;stroke:#000000;stroke-opacity:0.7;" x="367.837118" xlink:href="#md17960232e" y="25.758059"/>
     <use style="fill:#d55e00;fill-opacity:0.7;stroke:#000000;stroke-opacity:0.7;" x="375.792485" xlink:href="#md17960232e" y="24.852953"/>
     <use style="fill:#d55e00;fill-opacity:0.7;stroke:#000000;stroke-opacity:0.7;" x="383.747851" xlink:href="#md17960232e" y="24.015656"/>
     <use style="fill:#d55e00;fill-opacity:0.7;stroke:#000000;stroke-opacity:0.7;" x="391.703218" xlink:href="#md17960232e" y="23.238768"/>
     <use style="fill:#d55e00;fill-opacity:0.7;stroke:#000000;stroke-opacity:0.7;" x="399.658585" xlink:href="#md17960232e" y="22.515938"/>
    </g>
   </g>
   <g id="PathCollection_4">
    <defs>
     <path d="M 0 4.472136 
C 1.186024 4.472136 2.323632 4.000923 3.162278 3.162278 
C 4.000923 2.323632 4.472136 1.186024 4.472136 0 
C 4.472136 -1.186024 4.000923 -2.323632 3.162278 -3.162278 
C 2.323632 -4.000923 1.186024 -4.472136 0 -4.472136 
C -1.186024 -4.472136 -2.323632 -4.000923 -3.162278 -3.162278 
C -4.000923 -2.323632 -4.472136 -1.186024 -4.472136 0 
C -4.472136 1.186024 -4.000923 2.323632 -3.162278 3.162278 
C -2.323632 4.000923 -1.186024 4.472136 0 4.472136 
z
" id="m7df739b0ad" style="stroke:#000000;stroke-opacity:0.7;"/>
    </defs>
    <g clip-path="url(#pf1cc87b0df)">
     <use style="fill:#cc79a7;fill-opacity:0.7;stroke:#000000;stroke-opacity:0.7;" x="81.443915" xlink:href="#m7df739b0ad" y="257.996062"/>
     <use style="fill:#cc79a7;fill-opacity:0.7;stroke:#000000;stroke-opacity:0.7;" x="89.399282" xlink:href="#m7df739b0ad" y="257.807137"/>
     <use style="fill:#cc79a7;fill-opacity:0.7;stroke:#000000;stroke-opacity:0.7;" x="97.354649" xlink:href="#m7df739b0ad" y="257.524342"/>
     <use style="fill:#cc79a7;fill-opacity:0.7;stroke:#000000;stroke-opacity:0.7;" x="105.310015" xlink:href="#m7df739b0ad" y="257.181586"/>
     <use style="fill:#cc79a7;fill-opacity:0.7;stroke:#000000;stroke-opacity:0.7;" x="113.265382" xlink:href="#m7df739b0ad" y="256.770747"/>
     <use style="fill:#cc79a7;fill-opacity:0.7;stroke:#000000;stroke-opacity:0.7;" x="121.220749" xlink:href="#m7df739b0ad" y="256.151736"/>
     <use style="fill:#cc79a7;fill-opacity:0.7;stroke:#000000;stroke-opacity:0.7;" x="129.176116" xlink:href="#m7df739b0ad" y="255.275401"/>
     <use style="fill:#cc79a7;fill-opacity:0.7;stroke:#000000;stroke-opacity:0.7;" x="137.131482" xlink:href="#m7df739b0ad" y="254.085896"/>
     <use style="fill:#cc79a7;fill-opacity:0.7;stroke:#000000;stroke-opacity:0.7;" x="145.086849" xlink:href="#m7df739b0ad" y="252.520098"/>
     <use style="fill:#cc79a7;fill-opacity:0.7;stroke:#000000;stroke-opacity:0.7;" x="153.042216" xlink:href="#m7df739b0ad" y="250.607737"/>
     <use style="fill:#cc79a7;fill-opacity:0.7;stroke:#000000;stroke-opacity:0.7;" x="160.997583" xlink:href="#m7df739b0ad" y="248.370993"/>
     <use style="fill:#cc79a7;fill-opacity:0.7;stroke:#000000;stroke-opacity:0.7;" x="168.952949" xlink:href="#m7df739b0ad" y="245.61431"/>
     <use style="fill:#cc79a7;fill-opacity:0.7;stroke:#000000;stroke-opacity:0.7;" x="176.908316" xlink:href="#m7df739b0ad" y="243.247856"/>
     <use style="fill:#cc79a7;fill-opacity:0.7;stroke:#000000;stroke-opacity:0.7;" x="184.863683" xlink:href="#m7df739b0ad" y="240.340254"/>
     <use style="fill:#cc79a7;fill-opacity:0.7;stroke:#000000;stroke-opacity:0.7;" x="192.81905" xlink:href="#m7df739b0ad" y="236.409585"/>
     <use style="fill:#cc79a7;fill-opacity:0.7;stroke:#000000;stroke-opacity:0.7;" x="200.774416" xlink:href="#m7df739b0ad" y="231.809408"/>
     <use style="fill:#cc79a7;fill-opacity:0.7;stroke:#000000;stroke-opacity:0.7;" x="208.729783" xlink:href="#m7df739b0ad" y="226.728383"/>
     <use style="fill:#cc79a7;fill-opacity:0.7;stroke:#000000;stroke-opacity:0.7;" x="216.68515" xlink:href="#m7df739b0ad" y="214.822272"/>
     <use style="fill:#cc79a7;fill-opacity:0.7;stroke:#000000;stroke-opacity:0.7;" x="224.640517" xlink:href="#m7df739b0ad" y="146.880805"/>
     <use style="fill:#cc79a7;fill-opacity:0.7;stroke:#000000;stroke-opacity:0.7;" x="232.595883" xlink:href="#m7df739b0ad" y="97.33129"/>
     <use style="fill:#cc79a7;fill-opacity:0.7;stroke:#000000;stroke-opacity:0.7;" x="240.55125" xlink:href="#m7df739b0ad" y="78.124313"/>
     <use style="fill:#cc79a7;fill-opacity:0.7;stroke:#000000;stroke-opacity:0.7;" x="248.506617" xlink:href="#m7df739b0ad" y="66.660712"/>
     <use style="fill:#cc79a7;fill-opacity:0.7;stroke:#000000;stroke-opacity:0.7;" x="256.461983" xlink:href="#m7df739b0ad" y="58.778986"/>
     <use style="fill:#cc79a7;fill-opacity:0.7;stroke:#000000;stroke-opacity:0.7;" x="264.41735" xlink:href="#m7df739b0ad" y="52.926417"/>
     <use style="fill:#cc79a7;fill-opacity:0.7;stroke:#000000;stroke-opacity:0.7;" x="272.372717" xlink:href="#m7df739b0ad" y="48.357052"/>
     <use style="fill:#cc79a7;fill-opacity:0.7;stroke:#000000;stroke-opacity:0.7;" x="280.328084" xlink:href="#m7df739b0ad" y="44.659828"/>
     <use style="fill:#cc79a7;fill-opacity:0.7;stroke:#000000;stroke-opacity:0.7;" x="288.28345" xlink:href="#m7df739b0ad" y="41.5872"/>
     <use style="fill:#cc79a7;fill-opacity:0.7;stroke:#000000;stroke-opacity:0.7;" x="296.238817" xlink:href="#m7df739b0ad" y="38.980235"/>
     <use style="fill:#cc79a7;fill-opacity:0.7;stroke:#000000;stroke-opacity:0.7;" x="304.194184" xlink:href="#m7df739b0ad" y="36.731728"/>
     <use style="fill:#cc79a7;fill-opacity:0.7;stroke:#000000;stroke-opacity:0.7;" x="312.149551" xlink:href="#m7df739b0ad" y="34.766487"/>
     <use style="fill:#cc79a7;fill-opacity:0.7;stroke:#000000;stroke-opacity:0.7;" x="320.104917" xlink:href="#m7df739b0ad" y="33.030003"/>
     <use style="fill:#cc79a7;fill-opacity:0.7;stroke:#000000;stroke-opacity:0.7;" x="328.060284" xlink:href="#m7df739b0ad" y="31.481648"/>
     <use style="fill:#cc79a7;fill-opacity:0.7;stroke:#000000;stroke-opacity:0.7;" x="336.015651" xlink:href="#m7df739b0ad" y="30.090458"/>
     <use style="fill:#cc79a7;fill-opacity:0.7;stroke:#000000;stroke-opacity:0.7;" x="343.971018" xlink:href="#m7df739b0ad" y="28.832293"/>
     <use style="fill:#cc79a7;fill-opacity:0.7;stroke:#000000;stroke-opacity:0.7;" x="351.926384" xlink:href="#m7df739b0ad" y="27.68799"/>
     <use style="fill:#cc79a7;fill-opacity:0.7;stroke:#000000;stroke-opacity:0.7;" x="359.881751" xlink:href="#m7df739b0ad" y="26.642144"/>
     <use style="fill:#cc79a7;fill-opacity:0.7;stroke:#000000;stroke-opacity:0.7;" x="367.837118" xlink:href="#m7df739b0ad" y="25.682163"/>
     <use style="fill:#cc79a7;fill-opacity:0.7;stroke:#000000;stroke-opacity:0.7;" x="375.792485" xlink:href="#m7df739b0ad" y="24.797616"/>
     <use style="fill:#cc79a7;fill-opacity:0.7;stroke:#000000;stroke-opacity:0.7;" x="383.747851" xlink:href="#m7df739b0ad" y="23.979778"/>
     <use style="fill:#cc79a7;fill-opacity:0.7;stroke:#000000;stroke-opacity:0.7;" x="391.703218" xlink:href="#m7df739b0ad" y="23.221317"/>
     <use style="fill:#cc79a7;fill-opacity:0.7;stroke:#000000;stroke-opacity:0.7;" x="399.658585" xlink:href="#m7df739b0ad" y="22.515938"/>
    </g>
   </g>
   <g id="PathCollection_5">
    <defs>
     <path d="M 0 4.472136 
C 1.186024 4.472136 2.323632 4.000923 3.162278 3.162278 
C 4.000923 2.323632 4.472136 1.186024 4.472136 0 
C 4.472136 -1.186024 4.000923 -2.323632 3.162278 -3.162278 
C 2.323632 -4.000923 1.186024 -4.472136 0 -4.472136 
C -1.186024 -4.472136 -2.323632 -4.000923 -3.162278 -3.162278 
C -4.000923 -2.323632 -4.472136 -1.186024 -4.472136 0 
C -4.472136 1.186024 -4.000923 2.323632 -3.162278 3.162278 
C -2.323632 4.000923 -1.186024 4.472136 0 4.472136 
z
" id="ma12f891f17" style="stroke:#000000;stroke-opacity:0.7;"/>
    </defs>
    <g clip-path="url(#pf1cc87b0df)">
     <use style="fill:#f0e442;fill-opacity:0.7;stroke:#000000;stroke-opacity:0.7;" x="81.443915" xlink:href="#ma12f891f17" y="257.996062"/>
     <use style="fill:#f0e442;fill-opacity:0.7;stroke:#000000;stroke-opacity:0.7;" x="89.399282" xlink:href="#ma12f891f17" y="257.866569"/>
     <use style="fill:#f0e442;fill-opacity:0.7;stroke:#000000;stroke-opacity:0.7;" x="97.354649" xlink:href="#ma12f891f17" y="257.672684"/>
     <use style="fill:#f0e442;fill-opacity:0.7;stroke:#000000;stroke-opacity:0.7;" x="105.310015" xlink:href="#ma12f891f17" y="257.427593"/>
     <use style="fill:#f0e442;fill-opacity:0.7;stroke:#000000;stroke-opacity:0.7;" x="113.265382" xlink:href="#ma12f891f17" y="257.145082"/>
     <use style="fill:#f0e442;fill-opacity:0.7;stroke:#000000;stroke-opacity:0.7;" x="121.220749" xlink:href="#ma12f891f17" y="256.718958"/>
     <use style="fill:#f0e442;fill-opacity:0.7;stroke:#000000;stroke-opacity:0.7;" x="129.176116" xlink:href="#ma12f891f17" y="256.115261"/>
     <use style="fill:#f0e442;fill-opacity:0.7;stroke:#000000;stroke-opacity:0.7;" x="137.131482" xlink:href="#ma12f891f17" y="255.295461"/>
     <use style="fill:#f0e442;fill-opacity:0.7;stroke:#000000;stroke-opacity:0.7;" x="145.086849" xlink:href="#ma12f891f17" y="254.216102"/>
     <use style="fill:#f0e442;fill-opacity:0.7;stroke:#000000;stroke-opacity:0.7;" x="153.042216" xlink:href="#ma12f891f17" y="252.921286"/>
     <use style="fill:#f0e442;fill-opacity:0.7;stroke:#000000;stroke-opacity:0.7;" x="160.997583" xlink:href="#ma12f891f17" y="251.38396"/>
     <use style="fill:#f0e442;fill-opacity:0.7;stroke:#000000;stroke-opacity:0.7;" x="168.952949" xlink:href="#ma12f891f17" y="249.489703"/>
     <use style="fill:#f0e442;fill-opacity:0.7;stroke:#000000;stroke-opacity:0.7;" x="176.908316" xlink:href="#ma12f891f17" y="247.88228"/>
     <use style="fill:#f0e442;fill-opacity:0.7;stroke:#000000;stroke-opacity:0.7;" x="184.863683" xlink:href="#ma12f891f17" y="245.904127"/>
     <use style="fill:#f0e442;fill-opacity:0.7;stroke:#000000;stroke-opacity:0.7;" x="192.81905" xlink:href="#ma12f891f17" y="243.225016"/>
     <use style="fill:#f0e442;fill-opacity:0.7;stroke:#000000;stroke-opacity:0.7;" x="200.774416" xlink:href="#ma12f891f17" y="240.103552"/>
     <use style="fill:#f0e442;fill-opacity:0.7;stroke:#000000;stroke-opacity:0.7;" x="208.729783" xlink:href="#ma12f891f17" y="236.721278"/>
     <use style="fill:#f0e442;fill-opacity:0.7;stroke:#000000;stroke-opacity:0.7;" x="216.68515" xlink:href="#ma12f891f17" y="228.70685"/>
     <use style="fill:#f0e442;fill-opacity:0.7;stroke:#000000;stroke-opacity:0.7;" x="224.640517" xlink:href="#ma12f891f17" y="156.905282"/>
     <use style="fill:#f0e442;fill-opacity:0.7;stroke:#000000;stroke-opacity:0.7;" x="232.595883" xlink:href="#ma12f891f17" y="97.280649"/>
     <use style="fill:#f0e442;fill-opacity:0.7;stroke:#000000;stroke-opacity:0.7;" x="240.55125" xlink:href="#ma12f891f17" y="77.686554"/>
     <use style="fill:#f0e442;fill-opacity:0.7;stroke:#000000;stroke-opacity:0.7;" x="248.506617" xlink:href="#ma12f891f17" y="66.175546"/>
     <use style="fill:#f0e442;fill-opacity:0.7;stroke:#000000;stroke-opacity:0.7;" x="256.461983" xlink:href="#ma12f891f17" y="58.313338"/>
     <use style="fill:#f0e442;fill-opacity:0.7;stroke:#000000;stroke-opacity:0.7;" x="264.41735" xlink:href="#ma12f891f17" y="52.497486"/>
     <use style="fill:#f0e442;fill-opacity:0.7;stroke:#000000;stroke-opacity:0.7;" x="272.372717" xlink:href="#ma12f891f17" y="47.968407"/>
     <use style="fill:#f0e442;fill-opacity:0.7;stroke:#000000;stroke-opacity:0.7;" x="280.328084" xlink:href="#ma12f891f17" y="44.310709"/>
     <use style="fill:#f0e442;fill-opacity:0.7;stroke:#000000;stroke-opacity:0.7;" x="288.28345" xlink:href="#ma12f891f17" y="41.275379"/>
     <use style="fill:#f0e442;fill-opacity:0.7;stroke:#000000;stroke-opacity:0.7;" x="296.238817" xlink:href="#ma12f891f17" y="38.703086"/>
     <use style="fill:#f0e442;fill-opacity:0.7;stroke:#000000;stroke-opacity:0.7;" x="304.194184" xlink:href="#ma12f891f17" y="36.48667"/>
     <use style="fill:#f0e442;fill-opacity:0.7;stroke:#000000;stroke-opacity:0.7;" x="312.149551" xlink:href="#ma12f891f17" y="34.55107"/>
     <use style="fill:#f0e442;fill-opacity:0.7;stroke:#000000;stroke-opacity:0.7;" x="320.104917" xlink:href="#ma12f891f17" y="32.841977"/>
     <use style="fill:#f0e442;fill-opacity:0.7;stroke:#000000;stroke-opacity:0.7;" x="328.060284" xlink:href="#ma12f891f17" y="31.318987"/>
     <use style="fill:#f0e442;fill-opacity:0.7;stroke:#000000;stroke-opacity:0.7;" x="336.015651" xlink:href="#ma12f891f17" y="29.95131"/>
     <use style="fill:#f0e442;fill-opacity:0.7;stroke:#000000;stroke-opacity:0.7;" x="343.971018" xlink:href="#ma12f891f17" y="28.714959"/>
     <use style="fill:#f0e442;fill-opacity:0.7;stroke:#000000;stroke-opacity:0.7;" x="351.926384" xlink:href="#ma12f891f17" y="27.590976"/>
     <use style="fill:#f0e442;fill-opacity:0.7;stroke:#000000;stroke-opacity:0.7;" x="359.881751" xlink:href="#ma12f891f17" y="26.564091"/>
     <use style="fill:#f0e442;fill-opacity:0.7;stroke:#000000;stroke-opacity:0.7;" x="367.837118" xlink:href="#ma12f891f17" y="25.621802"/>
     <use style="fill:#f0e442;fill-opacity:0.7;stroke:#000000;stroke-opacity:0.7;" x="375.792485" xlink:href="#ma12f891f17" y="24.753814"/>
     <use style="fill:#f0e442;fill-opacity:0.7;stroke:#000000;stroke-opacity:0.7;" x="383.747851" xlink:href="#ma12f891f17" y="23.951507"/>
     <use style="fill:#f0e442;fill-opacity:0.7;stroke:#000000;stroke-opacity:0.7;" x="391.703218" xlink:href="#ma12f891f17" y="23.207613"/>
     <use style="fill:#f0e442;fill-opacity:0.7;stroke:#000000;stroke-opacity:0.7;" x="399.658585" xlink:href="#ma12f891f17" y="22.515938"/>
    </g>
   </g>
   <g id="PathCollection_6">
    <defs>
     <path d="M 0 4.472136 
C 1.186024 4.472136 2.323632 4.000923 3.162278 3.162278 
C 4.000923 2.323632 4.472136 1.186024 4.472136 0 
C 4.472136 -1.186024 4.000923 -2.323632 3.162278 -3.162278 
C 2.323632 -4.000923 1.186024 -4.472136 0 -4.472136 
C -1.186024 -4.472136 -2.323632 -4.000923 -3.162278 -3.162278 
C -4.000923 -2.323632 -4.472136 -1.186024 -4.472136 0 
C -4.472136 1.186024 -4.000923 2.323632 -3.162278 3.162278 
C -2.323632 4.000923 -1.186024 4.472136 0 4.472136 
z
" id="m9ad660d232" style="stroke:#000000;stroke-opacity:0.7;"/>
    </defs>
    <g clip-path="url(#pf1cc87b0df)">
     <use style="fill:#56b4e9;fill-opacity:0.7;stroke:#000000;stroke-opacity:0.7;" x="81.443915" xlink:href="#m9ad660d232" y="257.996062"/>
     <use style="fill:#56b4e9;fill-opacity:0.7;stroke:#000000;stroke-opacity:0.7;" x="89.399282" xlink:href="#m9ad660d232" y="257.906385"/>
     <use style="fill:#56b4e9;fill-opacity:0.7;stroke:#000000;stroke-opacity:0.7;" x="97.354649" xlink:href="#m9ad660d232" y="257.772095"/>
     <use style="fill:#56b4e9;fill-opacity:0.7;stroke:#000000;stroke-opacity:0.7;" x="105.310015" xlink:href="#m9ad660d232" y="257.598808"/>
     <use style="fill:#56b4e9;fill-opacity:0.7;stroke:#000000;stroke-opacity:0.7;" x="113.265382" xlink:href="#m9ad660d232" y="257.402884"/>
     <use style="fill:#56b4e9;fill-opacity:0.7;stroke:#000000;stroke-opacity:0.7;" x="121.220749" xlink:href="#m9ad660d232" y="257.107154"/>
     <use style="fill:#56b4e9;fill-opacity:0.7;stroke:#000000;stroke-opacity:0.7;" x="129.176116" xlink:href="#m9ad660d232" y="256.688001"/>
     <use style="fill:#56b4e9;fill-opacity:0.7;stroke:#000000;stroke-opacity:0.7;" x="137.131482" xlink:href="#m9ad660d232" y="256.118656"/>
     <use style="fill:#56b4e9;fill-opacity:0.7;stroke:#000000;stroke-opacity:0.7;" x="145.086849" xlink:href="#m9ad660d232" y="255.368971"/>
     <use style="fill:#56b4e9;fill-opacity:0.7;stroke:#000000;stroke-opacity:0.7;" x="153.042216" xlink:href="#m9ad660d232" y="254.477902"/>
     <use style="fill:#56b4e9;fill-opacity:0.7;stroke:#000000;stroke-opacity:0.7;" x="160.997583" xlink:href="#m9ad660d232" y="253.411897"/>
     <use style="fill:#56b4e9;fill-opacity:0.7;stroke:#000000;stroke-opacity:0.7;" x="168.952949" xlink:href="#m9ad660d232" y="252.09865"/>
     <use style="fill:#56b4e9;fill-opacity:0.7;stroke:#000000;stroke-opacity:0.7;" x="176.908316" xlink:href="#m9ad660d232" y="250.991483"/>
     <use style="fill:#56b4e9;fill-opacity:0.7;stroke:#000000;stroke-opacity:0.7;" x="184.863683" xlink:href="#m9ad660d232" y="249.628158"/>
     <use style="fill:#56b4e9;fill-opacity:0.7;stroke:#000000;stroke-opacity:0.7;" x="192.81905" xlink:href="#m9ad660d232" y="247.780482"/>
     <use style="fill:#56b4e9;fill-opacity:0.7;stroke:#000000;stroke-opacity:0.7;" x="200.774416" xlink:href="#m9ad660d232" y="245.635005"/>
     <use style="fill:#56b4e9;fill-opacity:0.7;stroke:#000000;stroke-opacity:0.7;" x="208.729783" xlink:href="#m9ad660d232" y="243.342357"/>
     <use style="fill:#56b4e9;fill-opacity:0.7;stroke:#000000;stroke-opacity:0.7;" x="216.68515" xlink:href="#m9ad660d232" y="237.906121"/>
     <use style="fill:#56b4e9;fill-opacity:0.7;stroke:#000000;stroke-opacity:0.7;" x="224.640517" xlink:href="#m9ad660d232" y="165.253619"/>
     <use style="fill:#56b4e9;fill-opacity:0.7;stroke:#000000;stroke-opacity:0.7;" x="232.595883" xlink:href="#m9ad660d232" y="96.860551"/>
     <use style="fill:#56b4e9;fill-opacity:0.7;stroke:#000000;stroke-opacity:0.7;" x="240.55125" xlink:href="#m9ad660d232" y="77.179749"/>
     <use style="fill:#56b4e9;fill-opacity:0.7;stroke:#000000;stroke-opacity:0.7;" x="248.506617" xlink:href="#m9ad660d232" y="65.707282"/>
     <use style="fill:#56b4e9;fill-opacity:0.7;stroke:#000000;stroke-opacity:0.7;" x="256.461983" xlink:href="#m9ad660d232" y="57.896731"/>
     <use style="fill:#56b4e9;fill-opacity:0.7;stroke:#000000;stroke-opacity:0.7;" x="264.41735" xlink:href="#m9ad660d232" y="52.129851"/>
     <use style="fill:#56b4e9;fill-opacity:0.7;stroke:#000000;stroke-opacity:0.7;" x="272.372717" xlink:href="#m9ad660d232" y="47.64456"/>
     <use style="fill:#56b4e9;fill-opacity:0.7;stroke:#000000;stroke-opacity:0.7;" x="280.328084" xlink:href="#m9ad660d232" y="44.025572"/>
     <use style="fill:#56b4e9;fill-opacity:0.7;stroke:#000000;stroke-opacity:0.7;" x="288.28345" xlink:href="#m9ad660d232" y="41.024544"/>
     <use style="fill:#56b4e9;fill-opacity:0.7;stroke:#000000;stroke-opacity:0.7;" x="296.238817" xlink:href="#m9ad660d232" y="38.482787"/>
     <use style="fill:#56b4e9;fill-opacity:0.7;stroke:#000000;stroke-opacity:0.7;" x="304.194184" xlink:href="#m9ad660d232" y="36.293729"/>
     <use style="fill:#56b4e9;fill-opacity:0.7;stroke:#000000;stroke-opacity:0.7;" x="312.149551" xlink:href="#m9ad660d232" y="34.38281"/>
     <use style="fill:#56b4e9;fill-opacity:0.7;stroke:#000000;stroke-opacity:0.7;" x="320.104917" xlink:href="#m9ad660d232" y="32.696087"/>
     <use style="fill:#56b4e9;fill-opacity:0.7;stroke:#000000;stroke-opacity:0.7;" x="328.060284" xlink:href="#m9ad660d232" y="31.19347"/>
     <use style="fill:#56b4e9;fill-opacity:0.7;stroke:#000000;stroke-opacity:0.7;" x="336.015651" xlink:href="#m9ad660d232" y="29.844444"/>
     <use style="fill:#56b4e9;fill-opacity:0.7;stroke:#000000;stroke-opacity:0.7;" x="343.971018" xlink:href="#m9ad660d232" y="28.625253"/>
     <use style="fill:#56b4e9;fill-opacity:0.7;stroke:#000000;stroke-opacity:0.7;" x="351.926384" xlink:href="#m9ad660d232" y="27.517084"/>
     <use style="fill:#56b4e9;fill-opacity:0.7;stroke:#000000;stroke-opacity:0.7;" x="359.881751" xlink:href="#m9ad660d232" y="26.504807"/>
     <use style="fill:#56b4e9;fill-opacity:0.7;stroke:#000000;stroke-opacity:0.7;" x="367.837118" xlink:href="#m9ad660d232" y="25.576097"/>
     <use style="fill:#56b4e9;fill-opacity:0.7;stroke:#000000;stroke-opacity:0.7;" x="375.792485" xlink:href="#m9ad660d232" y="24.720723"/>
     <use style="fill:#56b4e9;fill-opacity:0.7;stroke:#000000;stroke-opacity:0.7;" x="383.747851" xlink:href="#m9ad660d232" y="23.930188"/>
     <use style="fill:#56b4e9;fill-opacity:0.7;stroke:#000000;stroke-opacity:0.7;" x="391.703218" xlink:href="#m9ad660d232" y="23.197307"/>
     <use style="fill:#56b4e9;fill-opacity:0.7;stroke:#000000;stroke-opacity:0.7;" x="399.658585" xlink:href="#m9ad660d232" y="22.515938"/>
    </g>
   </g>
   <g id="matplotlib.axis_1">
    <g id="xtick_1">
     <g id="line2d_1">
      <defs>
       <path d="M 0 0 
L 0 -8 
" id="m07bf2d3100" style="stroke:#000000;stroke-width:0.8;"/>
      </defs>
      <g>
       <use style="stroke:#000000;stroke-width:0.8;" x="65.533182" xlink:href="#m07bf2d3100" y="273.312"/>
      </g>
     </g>
     <g id="text_1">
      <!-- 0.0 -->
      <defs>
       <path d="M 31.78125 3.421875 
Q 39.265625 3.421875 42.96875 11.625 
Q 46.6875 19.828125 46.6875 36.375 
Q 46.6875 52.984375 42.96875 61.1875 
Q 39.265625 69.390625 31.78125 69.390625 
Q 24.3125 69.390625 20.59375 61.1875 
Q 16.890625 52.984375 16.890625 36.375 
Q 16.890625 19.828125 20.59375 11.625 
Q 24.3125 3.421875 31.78125 3.421875 
z
M 31.78125 -1.421875 
Q 19.921875 -1.421875 13.25 8.53125 
Q 6.59375 18.5 6.59375 36.375 
Q 6.59375 54.296875 13.25 64.25 
Q 19.921875 74.21875 31.78125 74.21875 
Q 43.703125 74.21875 50.34375 64.25 
Q 56.984375 54.296875 56.984375 36.375 
Q 56.984375 18.5 50.34375 8.53125 
Q 43.703125 -1.421875 31.78125 -1.421875 
z
" id="DejaVuSerif-48"/>
       <path d="M 9.421875 5.078125 
Q 9.421875 7.8125 11.28125 9.71875 
Q 13.140625 11.625 15.921875 11.625 
Q 18.609375 11.625 20.5 9.71875 
Q 22.40625 7.8125 22.40625 5.078125 
Q 22.40625 2.390625 20.5 0.484375 
Q 18.609375 -1.421875 15.921875 -1.421875 
Q 13.140625 -1.421875 11.28125 0.453125 
Q 9.421875 2.34375 9.421875 5.078125 
z
" id="DejaVuSerif-46"/>
      </defs>
      <g transform="translate(49.630057 292.008875)scale(0.2 -0.2)">
       <use xlink:href="#DejaVuSerif-48"/>
       <use x="63.623047" xlink:href="#DejaVuSerif-46"/>
       <use x="95.410156" xlink:href="#DejaVuSerif-48"/>
      </g>
     </g>
    </g>
    <g id="xtick_2">
     <g id="line2d_2">
      <g>
       <use style="stroke:#000000;stroke-width:0.8;" x="145.086849" xlink:href="#m07bf2d3100" y="273.312"/>
      </g>
     </g>
     <g id="text_2">
      <!-- 0.5 -->
      <defs>
       <path d="M 50.296875 72.90625 
L 50.296875 64.890625 
L 16.890625 64.890625 
L 16.890625 44 
Q 19.4375 45.75 22.828125 46.625 
Q 26.21875 47.515625 30.421875 47.515625 
Q 42.234375 47.515625 49.0625 40.96875 
Q 55.90625 34.421875 55.90625 23.09375 
Q 55.90625 11.53125 49 5.046875 
Q 42.09375 -1.421875 29.59375 -1.421875 
Q 24.5625 -1.421875 19.28125 -0.1875 
Q 14.015625 1.03125 8.5 3.515625 
L 8.5 17.671875 
L 14.015625 17.671875 
Q 14.453125 10.75 18.421875 7.078125 
Q 22.40625 3.421875 29.59375 3.421875 
Q 37.3125 3.421875 41.453125 8.5 
Q 45.609375 13.578125 45.609375 23.09375 
Q 45.609375 32.5625 41.484375 37.609375 
Q 37.359375 42.671875 29.59375 42.671875 
Q 25.203125 42.671875 21.84375 41.109375 
Q 18.5 39.546875 15.921875 36.28125 
L 11.71875 36.28125 
L 11.71875 72.90625 
z
" id="DejaVuSerif-53"/>
      </defs>
      <g transform="translate(129.183724 292.008875)scale(0.2 -0.2)">
       <use xlink:href="#DejaVuSerif-48"/>
       <use x="63.623047" xlink:href="#DejaVuSerif-46"/>
       <use x="95.410156" xlink:href="#DejaVuSerif-53"/>
      </g>
     </g>
    </g>
    <g id="xtick_3">
     <g id="line2d_3">
      <g>
       <use style="stroke:#000000;stroke-width:0.8;" x="224.640517" xlink:href="#m07bf2d3100" y="273.312"/>
      </g>
     </g>
     <g id="text_3">
      <!-- 1.0 -->
      <defs>
       <path d="M 14.203125 0 
L 14.203125 5.171875 
L 26.90625 5.171875 
L 26.90625 65.828125 
L 12.203125 56.296875 
L 12.203125 62.703125 
L 29.984375 74.21875 
L 36.71875 74.21875 
L 36.71875 5.171875 
L 49.421875 5.171875 
L 49.421875 0 
z
" id="DejaVuSerif-49"/>
      </defs>
      <g transform="translate(208.737392 292.008875)scale(0.2 -0.2)">
       <use xlink:href="#DejaVuSerif-49"/>
       <use x="63.623047" xlink:href="#DejaVuSerif-46"/>
       <use x="95.410156" xlink:href="#DejaVuSerif-48"/>
      </g>
     </g>
    </g>
    <g id="xtick_4">
     <g id="line2d_4">
      <g>
       <use style="stroke:#000000;stroke-width:0.8;" x="304.194184" xlink:href="#m07bf2d3100" y="273.312"/>
      </g>
     </g>
     <g id="text_4">
      <!-- 1.5 -->
      <g transform="translate(288.291059 292.008875)scale(0.2 -0.2)">
       <use xlink:href="#DejaVuSerif-49"/>
       <use x="63.623047" xlink:href="#DejaVuSerif-46"/>
       <use x="95.410156" xlink:href="#DejaVuSerif-53"/>
      </g>
     </g>
    </g>
    <g id="xtick_5">
     <g id="line2d_5">
      <g>
       <use style="stroke:#000000;stroke-width:0.8;" x="383.747851" xlink:href="#m07bf2d3100" y="273.312"/>
      </g>
     </g>
     <g id="text_5">
      <!-- 2.0 -->
      <defs>
       <path d="M 12.796875 55.515625 
L 7.328125 55.515625 
L 7.328125 68.5 
Q 12.546875 71.296875 17.84375 72.75 
Q 23.140625 74.21875 28.21875 74.21875 
Q 39.59375 74.21875 46.1875 68.703125 
Q 52.78125 63.1875 52.78125 53.71875 
Q 52.78125 43.015625 37.84375 28.125 
Q 36.671875 27 36.078125 26.421875 
L 17.671875 8.015625 
L 48.09375 8.015625 
L 48.09375 17 
L 53.8125 17 
L 53.8125 0 
L 6.78125 0 
L 6.78125 5.328125 
L 28.90625 27.390625 
Q 36.234375 34.71875 39.359375 40.84375 
Q 42.484375 46.96875 42.484375 53.71875 
Q 42.484375 61.078125 38.640625 65.234375 
Q 34.8125 69.390625 28.078125 69.390625 
Q 21.09375 69.390625 17.28125 65.921875 
Q 13.484375 62.453125 12.796875 55.515625 
z
" id="DejaVuSerif-50"/>
      </defs>
      <g transform="translate(367.844726 292.008875)scale(0.2 -0.2)">
       <use xlink:href="#DejaVuSerif-50"/>
       <use x="63.623047" xlink:href="#DejaVuSerif-46"/>
       <use x="95.410156" xlink:href="#DejaVuSerif-48"/>
      </g>
     </g>
    </g>
    <g id="text_6">
     <!-- Transverse Field $g$ -->
     <defs>
      <path d="M 19.09375 0 
L 19.09375 5.171875 
L 28.421875 5.171875 
L 28.421875 67.09375 
L 6.984375 67.09375 
L 6.984375 55.71875 
L 0.984375 55.71875 
L 0.984375 72.90625 
L 65.71875 72.90625 
L 65.71875 55.71875 
L 59.71875 55.71875 
L 59.71875 67.09375 
L 38.28125 67.09375 
L 38.28125 5.171875 
L 47.609375 5.171875 
L 47.609375 0 
z
" id="DejaVuSerif-84"/>
      <path d="M 47.796875 52 
L 47.796875 39.015625 
L 42.625 39.015625 
Q 42.390625 42.875 40.484375 44.78125 
Q 38.578125 46.6875 34.90625 46.6875 
Q 28.265625 46.6875 24.71875 42.09375 
Q 21.1875 37.5 21.1875 28.90625 
L 21.1875 5.171875 
L 31.59375 5.171875 
L 31.59375 0 
L 4.109375 0 
L 4.109375 5.171875 
L 12.203125 5.171875 
L 12.203125 46.78125 
L 3.609375 46.78125 
L 3.609375 51.90625 
L 21.1875 51.90625 
L 21.1875 42.671875 
Q 23.828125 48.09375 27.96875 50.703125 
Q 32.125 53.328125 38.09375 53.328125 
Q 40.28125 53.328125 42.703125 52.984375 
Q 45.125 52.640625 47.796875 52 
z
" id="DejaVuSerif-114"/>
      <path d="M 39.796875 16.3125 
L 39.796875 27.296875 
L 28.21875 27.296875 
Q 21.53125 27.296875 18.25 24.40625 
Q 14.984375 21.53125 14.984375 15.578125 
Q 14.984375 10.15625 18.296875 6.984375 
Q 21.625 3.8125 27.296875 3.8125 
Q 32.90625 3.8125 36.34375 7.28125 
Q 39.796875 10.75 39.796875 16.3125 
z
M 48.78125 32.421875 
L 48.78125 5.171875 
L 56.78125 5.171875 
L 56.78125 0 
L 39.796875 0 
L 39.796875 5.609375 
Q 36.8125 2 32.90625 0.28125 
Q 29 -1.421875 23.78125 -1.421875 
Q 15.140625 -1.421875 10.0625 3.171875 
Q 4.984375 7.765625 4.984375 15.578125 
Q 4.984375 23.640625 10.796875 28.078125 
Q 16.609375 32.515625 27.203125 32.515625 
L 39.796875 32.515625 
L 39.796875 36.078125 
Q 39.796875 42 36.203125 45.234375 
Q 32.625 48.484375 26.125 48.484375 
Q 20.75 48.484375 17.578125 46.046875 
Q 14.40625 43.609375 13.625 38.8125 
L 8.984375 38.8125 
L 8.984375 49.3125 
Q 13.671875 51.3125 18.09375 52.3125 
Q 22.515625 53.328125 26.703125 53.328125 
Q 37.5 53.328125 43.140625 47.96875 
Q 48.78125 42.625 48.78125 32.421875 
z
" id="DejaVuSerif-97"/>
      <path d="M 4.109375 0 
L 4.109375 5.171875 
L 12.203125 5.171875 
L 12.203125 46.6875 
L 3.609375 46.6875 
L 3.609375 51.90625 
L 21.1875 51.90625 
L 21.1875 42.671875 
Q 23.6875 47.953125 27.65625 50.640625 
Q 31.640625 53.328125 36.921875 53.328125 
Q 45.515625 53.328125 49.5625 48.390625 
Q 53.609375 43.453125 53.609375 33.015625 
L 53.609375 5.171875 
L 61.625 5.171875 
L 61.625 0 
L 36.8125 0 
L 36.8125 5.171875 
L 44.578125 5.171875 
L 44.578125 30.171875 
Q 44.578125 39.703125 42.234375 43.234375 
Q 39.890625 46.78125 33.984375 46.78125 
Q 27.734375 46.78125 24.453125 42.203125 
Q 21.1875 37.640625 21.1875 28.90625 
L 21.1875 5.171875 
L 29 5.171875 
L 29 0 
z
" id="DejaVuSerif-110"/>
      <path d="M 5.609375 2.875 
L 5.609375 14.984375 
L 10.796875 14.984375 
Q 10.984375 9.1875 14.421875 6.296875 
Q 17.875 3.421875 24.609375 3.421875 
Q 30.671875 3.421875 33.84375 5.6875 
Q 37.015625 7.953125 37.015625 12.3125 
Q 37.015625 15.71875 34.6875 17.8125 
Q 32.375 19.921875 24.90625 22.3125 
L 18.40625 24.515625 
Q 11.71875 26.65625 8.71875 29.875 
Q 5.71875 33.109375 5.71875 38.09375 
Q 5.71875 45.21875 10.9375 49.265625 
Q 16.15625 53.328125 25.390625 53.328125 
Q 29.5 53.328125 34.03125 52.25 
Q 38.578125 51.171875 43.40625 49.125 
L 43.40625 37.796875 
L 38.234375 37.796875 
Q 38.03125 42.828125 34.703125 45.65625 
Q 31.390625 48.484375 25.6875 48.484375 
Q 20.015625 48.484375 17.109375 46.484375 
Q 14.203125 44.484375 14.203125 40.484375 
Q 14.203125 37.203125 16.40625 35.21875 
Q 18.609375 33.25 25.203125 31.203125 
L 32.328125 29 
Q 39.703125 26.703125 42.9375 23.265625 
Q 46.1875 19.828125 46.1875 14.40625 
Q 46.1875 7.03125 40.546875 2.796875 
Q 34.90625 -1.421875 25 -1.421875 
Q 19.96875 -1.421875 15.1875 -0.34375 
Q 10.40625 0.734375 5.609375 2.875 
z
" id="DejaVuSerif-115"/>
      <path d="M 24.703125 0 
L 5.609375 46.6875 
L -0.296875 46.6875 
L -0.296875 51.90625 
L 23.578125 51.90625 
L 23.578125 46.6875 
L 15.28125 46.6875 
L 29.890625 10.984375 
L 44.484375 46.6875 
L 36.71875 46.6875 
L 36.71875 51.90625 
L 56.203125 51.90625 
L 56.203125 46.6875 
L 50.390625 46.6875 
L 31.296875 0 
z
" id="DejaVuSerif-118"/>
      <path d="M 54.203125 25 
L 15.484375 25 
L 15.484375 24.609375 
Q 15.484375 14.109375 19.4375 8.765625 
Q 23.390625 3.421875 31.109375 3.421875 
Q 37.015625 3.421875 40.796875 6.515625 
Q 44.578125 9.625 46.09375 15.71875 
L 53.328125 15.71875 
Q 51.171875 7.171875 45.375 2.875 
Q 39.59375 -1.421875 30.171875 -1.421875 
Q 18.796875 -1.421875 11.890625 6.078125 
Q 4.984375 13.578125 4.984375 25.984375 
Q 4.984375 38.28125 11.765625 45.796875 
Q 18.5625 53.328125 29.59375 53.328125 
Q 41.359375 53.328125 47.65625 46.0625 
Q 53.953125 38.8125 54.203125 25 
z
M 43.609375 30.171875 
Q 43.3125 39.265625 39.765625 43.875 
Q 36.234375 48.484375 29.59375 48.484375 
Q 23.390625 48.484375 19.828125 43.84375 
Q 16.265625 39.203125 15.484375 30.171875 
z
" id="DejaVuSerif-101"/>
      <path id="DejaVuSerif-32"/>
      <path d="M 5.515625 0 
L 5.515625 5.171875 
L 14.796875 5.171875 
L 14.796875 67.671875 
L 5.515625 67.671875 
L 5.515625 72.90625 
L 65.1875 72.90625 
L 65.1875 56.6875 
L 59.1875 56.6875 
L 59.1875 66.890625 
L 24.703125 66.890625 
L 24.703125 42.484375 
L 49.609375 42.484375 
L 49.609375 51.609375 
L 55.609375 51.609375 
L 55.609375 27.390625 
L 49.609375 27.390625 
L 49.609375 36.53125 
L 24.703125 36.53125 
L 24.703125 5.171875 
L 36.375 5.171875 
L 36.375 0 
z
" id="DejaVuSerif-70"/>
      <path d="M 9.71875 68.015625 
Q 9.71875 70.265625 11.34375 71.921875 
Q 12.984375 73.578125 15.28125 73.578125 
Q 17.53125 73.578125 19.15625 71.921875 
Q 20.796875 70.265625 20.796875 68.015625 
Q 20.796875 65.71875 19.1875 64.109375 
Q 17.578125 62.5 15.28125 62.5 
Q 12.984375 62.5 11.34375 64.109375 
Q 9.71875 65.71875 9.71875 68.015625 
z
M 21.1875 5.171875 
L 29.6875 5.171875 
L 29.6875 0 
L 3.609375 0 
L 3.609375 5.171875 
L 12.203125 5.171875 
L 12.203125 46.6875 
L 3.609375 46.6875 
L 3.609375 51.90625 
L 21.1875 51.90625 
z
" id="DejaVuSerif-105"/>
      <path d="M 20.515625 5.171875 
L 29 5.171875 
L 29 0 
L 2.875 0 
L 2.875 5.171875 
L 11.53125 5.171875 
L 11.53125 70.796875 
L 2.875 70.796875 
L 2.875 75.984375 
L 20.515625 75.984375 
z
" id="DejaVuSerif-108"/>
      <path d="M 52.484375 5.171875 
L 61.078125 5.171875 
L 61.078125 0 
L 43.5 0 
L 43.5 8.109375 
Q 40.875 3.21875 36.796875 0.890625 
Q 32.71875 -1.421875 26.703125 -1.421875 
Q 17.140625 -1.421875 11.0625 6.171875 
Q 4.984375 13.765625 4.984375 25.984375 
Q 4.984375 38.1875 11.03125 45.75 
Q 17.09375 53.328125 26.703125 53.328125 
Q 32.71875 53.328125 36.796875 51 
Q 40.875 48.6875 43.5 43.796875 
L 43.5 70.796875 
L 35.015625 70.796875 
L 35.015625 75.984375 
L 52.484375 75.984375 
z
M 43.5 23.390625 
L 43.5 28.515625 
Q 43.5 37.84375 39.90625 42.765625 
Q 36.328125 47.703125 29.5 47.703125 
Q 22.5625 47.703125 19.015625 42.234375 
Q 15.484375 36.765625 15.484375 25.984375 
Q 15.484375 15.234375 19.015625 9.71875 
Q 22.5625 4.203125 29.5 4.203125 
Q 36.328125 4.203125 39.90625 9.109375 
Q 43.5 14.015625 43.5 23.390625 
z
" id="DejaVuSerif-100"/>
      <path d="M 1.421875 -14.3125 
Q 1.421875 -11.859375 3.09375 -10.03125 
Q 4.78125 -8.203125 7.171875 -8.203125 
Q 8.796875 -8.203125 9.890625 -9.203125 
Q 10.984375 -10.203125 10.984375 -11.8125 
Q 10.984375 -13.625 9.953125 -15.0625 
Q 8.9375 -16.5 7.328125 -17.09375 
Q 10.015625 -17.921875 15.71875 -17.921875 
Q 20.3125 -17.921875 24.125 -14.375 
Q 27.9375 -10.84375 29.109375 -6.203125 
L 31.984375 5.515625 
Q 26.5625 0 20.703125 0 
Q 16.40625 0 13.34375 2.1875 
Q 10.296875 4.390625 8.6875 8.046875 
Q 7.078125 11.71875 7.078125 15.828125 
Q 7.078125 20.40625 8.953125 25.4375 
Q 10.84375 30.46875 14.234375 34.765625 
Q 17.625 39.0625 22.015625 41.625 
Q 26.421875 44.1875 31.296875 44.1875 
Q 34.234375 44.1875 36.578125 42.578125 
Q 38.921875 40.96875 40.28125 38.28125 
Q 41.265625 42.1875 44.578125 42.1875 
Q 45.84375 42.1875 46.71875 41.421875 
Q 47.609375 40.671875 47.609375 39.40625 
Q 47.609375 39.109375 47.578125 38.953125 
Q 47.5625 38.8125 47.515625 38.625 
L 36.078125 -6.78125 
Q 35.296875 -9.90625 33.203125 -12.5 
Q 31.109375 -15.09375 28.265625 -16.828125 
Q 25.4375 -18.5625 22.0625 -19.53125 
Q 18.703125 -20.515625 15.578125 -20.515625 
Q 9.859375 -20.515625 5.640625 -19.40625 
Q 1.421875 -18.3125 1.421875 -14.3125 
z
M 20.90625 2.59375 
Q 27.296875 2.59375 33.5 11.375 
L 39.015625 33.203125 
Q 38.328125 36.671875 36.28125 39.140625 
Q 34.234375 41.609375 31.109375 41.609375 
Q 27.78125 41.609375 24.828125 38.890625 
Q 21.875 36.1875 19.921875 32.421875 
Q 18.0625 28.8125 16.328125 22.046875 
Q 14.59375 15.28125 14.59375 11.375 
Q 14.59375 7.953125 16.15625 5.265625 
Q 17.71875 2.59375 20.90625 2.59375 
z
" id="Cmmi10-103"/>
     </defs>
     <g transform="translate(128.71125 318.40825)scale(0.24 -0.24)">
      <use transform="translate(0 0.015625)" xlink:href="#DejaVuSerif-84"/>
      <use transform="translate(66.699219 0.015625)" xlink:href="#DejaVuSerif-114"/>
      <use transform="translate(114.501953 0.015625)" xlink:href="#DejaVuSerif-97"/>
      <use transform="translate(174.121094 0.015625)" xlink:href="#DejaVuSerif-110"/>
      <use transform="translate(238.525391 0.015625)" xlink:href="#DejaVuSerif-115"/>
      <use transform="translate(289.84375 0.015625)" xlink:href="#DejaVuSerif-118"/>
      <use transform="translate(346.337891 0.015625)" xlink:href="#DejaVuSerif-101"/>
      <use transform="translate(405.517578 0.015625)" xlink:href="#DejaVuSerif-114"/>
      <use transform="translate(453.320312 0.015625)" xlink:href="#DejaVuSerif-115"/>
      <use transform="translate(504.638672 0.015625)" xlink:href="#DejaVuSerif-101"/>
      <use transform="translate(563.818359 0.015625)" xlink:href="#DejaVuSerif-32"/>
      <use transform="translate(595.605469 0.015625)" xlink:href="#DejaVuSerif-70"/>
      <use transform="translate(664.990234 0.015625)" xlink:href="#DejaVuSerif-105"/>
      <use transform="translate(696.972656 0.015625)" xlink:href="#DejaVuSerif-101"/>
      <use transform="translate(756.152344 0.015625)" xlink:href="#DejaVuSerif-108"/>
      <use transform="translate(788.134766 0.015625)" xlink:href="#DejaVuSerif-100"/>
      <use transform="translate(852.148438 0.015625)" xlink:href="#DejaVuSerif-32"/>
      <use transform="translate(883.935547 0.015625)" xlink:href="#Cmmi10-103"/>
     </g>
    </g>
   </g>
   <g id="matplotlib.axis_2">
    <g id="ytick_1">
     <g id="line2d_6">
      <defs>
       <path d="M 0 0 
L 8 0 
" id="m0678aacf5c" style="stroke:#000000;stroke-width:0.8;"/>
      </defs>
      <g>
       <use style="stroke:#000000;stroke-width:0.8;" x="61.99125" xlink:href="#m0678aacf5c" y="257.996062"/>
      </g>
     </g>
     <g id="text_7">
      <!-- 0.0 -->
      <g transform="translate(26.685 265.5945)scale(0.2 -0.2)">
       <use xlink:href="#DejaVuSerif-48"/>
       <use x="63.623047" xlink:href="#DejaVuSerif-46"/>
       <use x="95.410156" xlink:href="#DejaVuSerif-48"/>
      </g>
     </g>
    </g>
    <g id="ytick_2">
     <g id="line2d_7">
      <g>
       <use style="stroke:#000000;stroke-width:0.8;" x="61.99125" xlink:href="#m0678aacf5c" y="210.900037"/>
      </g>
     </g>
     <g id="text_8">
      <!-- 0.2 -->
      <g transform="translate(26.685 218.498475)scale(0.2 -0.2)">
       <use xlink:href="#DejaVuSerif-48"/>
       <use x="63.623047" xlink:href="#DejaVuSerif-46"/>
       <use x="95.410156" xlink:href="#DejaVuSerif-50"/>
      </g>
     </g>
    </g>
    <g id="ytick_3">
     <g id="line2d_8">
      <g>
       <use style="stroke:#000000;stroke-width:0.8;" x="61.99125" xlink:href="#m0678aacf5c" y="163.804012"/>
      </g>
     </g>
     <g id="text_9">
      <!-- 0.4 -->
      <defs>
       <path d="M 34.90625 24.703125 
L 34.90625 63.484375 
L 10.015625 24.703125 
z
M 56.390625 0 
L 23.1875 0 
L 23.1875 5.171875 
L 34.90625 5.171875 
L 34.90625 19.484375 
L 3.078125 19.484375 
L 3.078125 24.8125 
L 35.015625 74.21875 
L 44.671875 74.21875 
L 44.671875 24.703125 
L 58.59375 24.703125 
L 58.59375 19.484375 
L 44.671875 19.484375 
L 44.671875 5.171875 
L 56.390625 5.171875 
z
" id="DejaVuSerif-52"/>
      </defs>
      <g transform="translate(26.685 171.40245)scale(0.2 -0.2)">
       <use xlink:href="#DejaVuSerif-48"/>
       <use x="63.623047" xlink:href="#DejaVuSerif-46"/>
       <use x="95.410156" xlink:href="#DejaVuSerif-52"/>
      </g>
     </g>
    </g>
    <g id="ytick_4">
     <g id="line2d_9">
      <g>
       <use style="stroke:#000000;stroke-width:0.8;" x="61.99125" xlink:href="#m0678aacf5c" y="116.707988"/>
      </g>
     </g>
     <g id="text_10">
      <!-- 0.6 -->
      <defs>
       <path d="M 32.71875 3.421875 
Q 39.59375 3.421875 43.296875 8.46875 
Q 47.015625 13.53125 47.015625 23 
Q 47.015625 32.46875 43.296875 37.515625 
Q 39.59375 42.578125 32.71875 42.578125 
Q 25.734375 42.578125 22.0625 37.6875 
Q 18.40625 32.8125 18.40625 23.578125 
Q 18.40625 13.875 22.109375 8.640625 
Q 25.828125 3.421875 32.71875 3.421875 
z
M 16.796875 40.140625 
Q 20.125 43.796875 24.3125 45.59375 
Q 28.515625 47.40625 33.796875 47.40625 
Q 44.671875 47.40625 51 40.859375 
Q 57.328125 34.328125 57.328125 23 
Q 57.328125 11.921875 50.515625 5.25 
Q 43.703125 -1.421875 32.328125 -1.421875 
Q 19.96875 -1.421875 13.328125 7.78125 
Q 6.6875 17 6.6875 34.078125 
Q 6.6875 53.21875 14.546875 63.71875 
Q 22.40625 74.21875 36.71875 74.21875 
Q 40.578125 74.21875 44.828125 73.484375 
Q 49.078125 72.75 53.515625 71.296875 
L 53.515625 59.28125 
L 48 59.28125 
Q 47.40625 64.203125 44.234375 66.796875 
Q 41.0625 69.390625 35.6875 69.390625 
Q 26.21875 69.390625 21.578125 62.203125 
Q 16.9375 55.03125 16.796875 40.140625 
z
" id="DejaVuSerif-54"/>
      </defs>
      <g transform="translate(26.685 124.306425)scale(0.2 -0.2)">
       <use xlink:href="#DejaVuSerif-48"/>
       <use x="63.623047" xlink:href="#DejaVuSerif-46"/>
       <use x="95.410156" xlink:href="#DejaVuSerif-54"/>
      </g>
     </g>
    </g>
    <g id="ytick_5">
     <g id="line2d_10">
      <g>
       <use style="stroke:#000000;stroke-width:0.8;" x="61.99125" xlink:href="#m0678aacf5c" y="69.611963"/>
      </g>
     </g>
     <g id="text_11">
      <!-- 0.8 -->
      <defs>
       <path d="M 46.578125 19.921875 
Q 46.578125 27.734375 42.6875 32.046875 
Q 38.8125 36.375 31.78125 36.375 
Q 24.75 36.375 20.875 32.046875 
Q 17 27.734375 17 19.921875 
Q 17 12.0625 20.875 7.734375 
Q 24.75 3.421875 31.78125 3.421875 
Q 38.8125 3.421875 42.6875 7.734375 
Q 46.578125 12.0625 46.578125 19.921875 
z
M 44.578125 55.328125 
Q 44.578125 61.96875 41.203125 65.671875 
Q 37.84375 69.390625 31.78125 69.390625 
Q 25.78125 69.390625 22.390625 65.671875 
Q 19 61.96875 19 55.328125 
Q 19 48.640625 22.390625 44.921875 
Q 25.78125 41.21875 31.78125 41.21875 
Q 37.84375 41.21875 41.203125 44.921875 
Q 44.578125 48.640625 44.578125 55.328125 
z
M 39.3125 38.8125 
Q 47.609375 37.703125 52.25 32.6875 
Q 56.890625 27.6875 56.890625 19.921875 
Q 56.890625 9.671875 50.390625 4.125 
Q 43.890625 -1.421875 31.78125 -1.421875 
Q 19.734375 -1.421875 13.203125 4.125 
Q 6.6875 9.671875 6.6875 19.921875 
Q 6.6875 27.6875 11.328125 32.6875 
Q 15.96875 37.703125 24.3125 38.8125 
Q 16.9375 40.140625 13 44.40625 
Q 9.078125 48.6875 9.078125 55.328125 
Q 9.078125 64.109375 15.125 69.15625 
Q 21.1875 74.21875 31.78125 74.21875 
Q 42.390625 74.21875 48.4375 69.15625 
Q 54.5 64.109375 54.5 55.328125 
Q 54.5 48.6875 50.5625 44.40625 
Q 46.625 40.140625 39.3125 38.8125 
z
" id="DejaVuSerif-56"/>
      </defs>
      <g transform="translate(26.685 77.2104)scale(0.2 -0.2)">
       <use xlink:href="#DejaVuSerif-48"/>
       <use x="63.623047" xlink:href="#DejaVuSerif-46"/>
       <use x="95.410156" xlink:href="#DejaVuSerif-56"/>
      </g>
     </g>
    </g>
    <g id="ytick_6">
     <g id="line2d_11">
      <g>
       <use style="stroke:#000000;stroke-width:0.8;" x="61.99125" xlink:href="#m0678aacf5c" y="22.515938"/>
      </g>
     </g>
     <g id="text_12">
      <!-- 1.0 -->
      <g transform="translate(26.685 30.114375)scale(0.2 -0.2)">
       <use xlink:href="#DejaVuSerif-49"/>
       <use x="63.623047" xlink:href="#DejaVuSerif-46"/>
       <use x="95.410156" xlink:href="#DejaVuSerif-48"/>
      </g>
     </g>
    </g>
    <g id="text_13">
     <!-- pnorm -->
     <defs>
      <path d="M 20.515625 28.515625 
L 20.515625 23.390625 
Q 20.515625 14.015625 24.09375 9.109375 
Q 27.6875 4.203125 34.515625 4.203125 
Q 41.40625 4.203125 44.9375 9.71875 
Q 48.484375 15.234375 48.484375 25.984375 
Q 48.484375 36.765625 44.9375 42.234375 
Q 41.40625 47.703125 34.515625 47.703125 
Q 27.6875 47.703125 24.09375 42.765625 
Q 20.515625 37.84375 20.515625 28.515625 
z
M 11.53125 46.6875 
L 2.875 46.6875 
L 2.875 51.90625 
L 20.515625 51.90625 
L 20.515625 43.796875 
Q 23.140625 48.6875 27.21875 51 
Q 31.296875 53.328125 37.3125 53.328125 
Q 46.875 53.328125 52.921875 45.75 
Q 58.984375 38.1875 58.984375 25.984375 
Q 58.984375 13.765625 52.921875 6.171875 
Q 46.875 -1.421875 37.3125 -1.421875 
Q 31.296875 -1.421875 27.21875 0.890625 
Q 23.140625 3.21875 20.515625 8.109375 
L 20.515625 -15.578125 
L 29 -15.578125 
L 29 -20.796875 
L 2.875 -20.796875 
L 2.875 -15.578125 
L 11.53125 -15.578125 
z
" id="DejaVuSerif-112"/>
      <path d="M 30.078125 3.421875 
Q 37.3125 3.421875 40.984375 9.125 
Q 44.671875 14.84375 44.671875 25.984375 
Q 44.671875 37.109375 40.984375 42.796875 
Q 37.3125 48.484375 30.078125 48.484375 
Q 22.859375 48.484375 19.171875 42.796875 
Q 15.484375 37.109375 15.484375 25.984375 
Q 15.484375 14.84375 19.1875 9.125 
Q 22.90625 3.421875 30.078125 3.421875 
z
M 30.078125 -1.421875 
Q 18.75 -1.421875 11.859375 6.078125 
Q 4.984375 13.578125 4.984375 25.984375 
Q 4.984375 38.375 11.84375 45.84375 
Q 18.703125 53.328125 30.078125 53.328125 
Q 41.453125 53.328125 48.3125 45.84375 
Q 55.171875 38.375 55.171875 25.984375 
Q 55.171875 13.578125 48.3125 6.078125 
Q 41.453125 -1.421875 30.078125 -1.421875 
z
" id="DejaVuSerif-111"/>
      <path d="M 51.8125 41.796875 
Q 54.390625 47.515625 58.421875 50.421875 
Q 62.453125 53.328125 67.828125 53.328125 
Q 75.984375 53.328125 79.984375 48.265625 
Q 83.984375 43.21875 83.984375 33.015625 
L 83.984375 5.171875 
L 92.09375 5.171875 
L 92.09375 0 
L 67.1875 0 
L 67.1875 5.171875 
L 75 5.171875 
L 75 31.984375 
Q 75 39.9375 72.65625 43.3125 
Q 70.3125 46.6875 64.890625 46.6875 
Q 58.890625 46.6875 55.734375 42.140625 
Q 52.59375 37.59375 52.59375 28.90625 
L 52.59375 5.171875 
L 60.40625 5.171875 
L 60.40625 0 
L 35.796875 0 
L 35.796875 5.171875 
L 43.609375 5.171875 
L 43.609375 32.328125 
Q 43.609375 40.09375 41.265625 43.390625 
Q 38.921875 46.6875 33.5 46.6875 
Q 27.484375 46.6875 24.328125 42.140625 
Q 21.1875 37.59375 21.1875 28.90625 
L 21.1875 5.171875 
L 29 5.171875 
L 29 0 
L 4.109375 0 
L 4.109375 5.171875 
L 12.203125 5.171875 
L 12.203125 46.78125 
L 3.609375 46.78125 
L 3.609375 51.90625 
L 21.1875 51.90625 
L 21.1875 42.671875 
Q 23.6875 47.859375 27.53125 50.59375 
Q 31.390625 53.328125 36.28125 53.328125 
Q 42.328125 53.328125 46.375 50.3125 
Q 50.4375 47.3125 51.8125 41.796875 
z
" id="DejaVuSerif-109"/>
     </defs>
     <g transform="translate(19.3575 166.756)rotate(-90)scale(0.16 -0.16)">
      <use xlink:href="#DejaVuSerif-112"/>
      <use x="64.013672" xlink:href="#DejaVuSerif-110"/>
      <use x="128.417969" xlink:href="#DejaVuSerif-111"/>
      <use x="188.623047" xlink:href="#DejaVuSerif-114"/>
      <use x="236.425781" xlink:href="#DejaVuSerif-109"/>
     </g>
    </g>
   </g>
   <g id="patch_3">
    <path d="M 61.99125 273.312 
L 61.99125 7.2 
" style="fill:none;stroke:#000000;stroke-linecap:square;stroke-linejoin:miter;stroke-width:0.8;"/>
   </g>
   <g id="patch_4">
    <path d="M 419.11125 273.312 
L 419.11125 7.2 
" style="fill:none;stroke:#000000;stroke-linecap:square;stroke-linejoin:miter;stroke-width:0.8;"/>
   </g>
   <g id="patch_5">
    <path d="M 61.99125 273.312 
L 419.11125 273.312 
" style="fill:none;stroke:#000000;stroke-linecap:square;stroke-linejoin:miter;stroke-width:0.8;"/>
   </g>
   <g id="patch_6">
    <path d="M 61.99125 7.2 
L 419.11125 7.2 
" style="fill:none;stroke:#000000;stroke-linecap:square;stroke-linejoin:miter;stroke-width:0.8;"/>
   </g>
   <g id="legend_1">
    <g id="patch_7">
     <path d="M 74.59125 180.12375 
L 196.037813 180.12375 
Q 199.637812 180.12375 199.637812 176.52375 
L 199.637812 19.8 
Q 199.637812 16.2 196.037813 16.2 
L 74.59125 16.2 
Q 70.99125 16.2 70.99125 19.8 
L 70.99125 176.52375 
Q 70.99125 180.12375 74.59125 180.12375 
z
" style="fill:#ffffff;opacity:0.8;stroke:#cccccc;stroke-linejoin:miter;"/>
    </g>
    <g id="PathCollection_7">
     <g>
      <use style="fill:#0072b2;fill-opacity:0.7;stroke:#000000;stroke-opacity:0.7;" x="96.19125" xlink:href="#m3e904c46ea" y="32.352187"/>
     </g>
    </g>
    <g id="text_14">
     <!-- L-32 -->
     <defs>
      <path d="M 5.515625 0 
L 5.515625 5.171875 
L 14.796875 5.171875 
L 14.796875 67.671875 
L 5.515625 67.671875 
L 5.515625 72.90625 
L 33.984375 72.90625 
L 33.984375 67.671875 
L 24.703125 67.671875 
L 24.703125 6 
L 58.015625 6 
L 58.015625 18.21875 
L 64.015625 18.21875 
L 64.015625 0 
z
" id="DejaVuSerif-76"/>
      <path d="M 4.390625 30.609375 
L 29.390625 30.609375 
L 29.390625 23 
L 4.390625 23 
z
" id="DejaVuSerif-45"/>
      <path d="M 9.71875 69.828125 
Q 15.4375 71.96875 20.671875 73.09375 
Q 25.921875 74.21875 30.515625 74.21875 
Q 41.21875 74.21875 47.21875 69.59375 
Q 53.21875 64.984375 53.21875 56.78125 
Q 53.21875 50.203125 49.0625 45.78125 
Q 44.921875 41.359375 37.3125 39.796875 
Q 46.296875 38.53125 51.25 33.28125 
Q 56.203125 28.03125 56.203125 19.671875 
Q 56.203125 9.46875 49.34375 4.015625 
Q 42.484375 -1.421875 29.59375 -1.421875 
Q 23.875 -1.421875 18.421875 -0.1875 
Q 12.984375 1.03125 7.625 3.515625 
L 7.625 17.671875 
L 13.09375 17.671875 
Q 13.578125 10.640625 17.828125 7.03125 
Q 22.078125 3.421875 29.78125 3.421875 
Q 37.25 3.421875 41.578125 7.734375 
Q 45.90625 12.0625 45.90625 19.578125 
Q 45.90625 28.171875 41.453125 32.59375 
Q 37.015625 37.015625 28.421875 37.015625 
L 23.78125 37.015625 
L 23.78125 42 
L 26.21875 42 
Q 34.765625 42 39.03125 45.53125 
Q 43.3125 49.078125 43.3125 56.203125 
Q 43.3125 62.59375 39.796875 65.984375 
Q 36.28125 69.390625 29.6875 69.390625 
Q 23.09375 69.390625 19.453125 66.265625 
Q 15.828125 63.140625 15.1875 56.984375 
L 9.71875 56.984375 
z
" id="DejaVuSerif-51"/>
     </defs>
     <g transform="translate(128.59125 37.077187)scale(0.18 -0.18)">
      <use xlink:href="#DejaVuSerif-76"/>
      <use x="66.40625" xlink:href="#DejaVuSerif-45"/>
      <use x="100.195312" xlink:href="#DejaVuSerif-51"/>
      <use x="163.818359" xlink:href="#DejaVuSerif-50"/>
     </g>
    </g>
    <g id="PathCollection_8">
     <g>
      <use style="fill:#009e73;fill-opacity:0.7;stroke:#000000;stroke-opacity:0.7;" x="96.19125" xlink:href="#m9b70c7fabb" y="58.772812"/>
     </g>
    </g>
    <g id="text_15">
     <!-- L-64 -->
     <g transform="translate(128.59125 63.497812)scale(0.18 -0.18)">
      <use xlink:href="#DejaVuSerif-76"/>
      <use x="66.40625" xlink:href="#DejaVuSerif-45"/>
      <use x="100.195312" xlink:href="#DejaVuSerif-54"/>
      <use x="163.818359" xlink:href="#DejaVuSerif-52"/>
     </g>
    </g>
    <g id="PathCollection_9">
     <g>
      <use style="fill:#d55e00;fill-opacity:0.7;stroke:#000000;stroke-opacity:0.7;" x="96.19125" xlink:href="#md17960232e" y="85.193437"/>
     </g>
    </g>
    <g id="text_16">
     <!-- L-128 -->
     <g transform="translate(128.59125 89.918437)scale(0.18 -0.18)">
      <use xlink:href="#DejaVuSerif-76"/>
      <use x="66.40625" xlink:href="#DejaVuSerif-45"/>
      <use x="100.195312" xlink:href="#DejaVuSerif-49"/>
      <use x="163.818359" xlink:href="#DejaVuSerif-50"/>
      <use x="227.441406" xlink:href="#DejaVuSerif-56"/>
     </g>
    </g>
    <g id="PathCollection_10">
     <g>
      <use style="fill:#cc79a7;fill-opacity:0.7;stroke:#000000;stroke-opacity:0.7;" x="96.19125" xlink:href="#m7df739b0ad" y="111.614062"/>
     </g>
    </g>
    <g id="text_17">
     <!-- L-256 -->
     <g transform="translate(128.59125 116.339062)scale(0.18 -0.18)">
      <use xlink:href="#DejaVuSerif-76"/>
      <use x="66.40625" xlink:href="#DejaVuSerif-45"/>
      <use x="100.195312" xlink:href="#DejaVuSerif-50"/>
      <use x="163.818359" xlink:href="#DejaVuSerif-53"/>
      <use x="227.441406" xlink:href="#DejaVuSerif-54"/>
     </g>
    </g>
    <g id="PathCollection_11">
     <g>
      <use style="fill:#f0e442;fill-opacity:0.7;stroke:#000000;stroke-opacity:0.7;" x="96.19125" xlink:href="#ma12f891f17" y="138.034687"/>
     </g>
    </g>
    <g id="text_18">
     <!-- L-512 -->
     <g transform="translate(128.59125 142.759687)scale(0.18 -0.18)">
      <use xlink:href="#DejaVuSerif-76"/>
      <use x="66.40625" xlink:href="#DejaVuSerif-45"/>
      <use x="100.195312" xlink:href="#DejaVuSerif-53"/>
      <use x="163.818359" xlink:href="#DejaVuSerif-49"/>
      <use x="227.441406" xlink:href="#DejaVuSerif-50"/>
     </g>
    </g>
    <g id="PathCollection_12">
     <g>
      <use style="fill:#56b4e9;fill-opacity:0.7;stroke:#000000;stroke-opacity:0.7;" x="96.19125" xlink:href="#m9ad660d232" y="164.455312"/>
     </g>
    </g>
    <g id="text_19">
     <!-- L-1024 -->
     <g transform="translate(128.59125 169.180312)scale(0.18 -0.18)">
      <use xlink:href="#DejaVuSerif-76"/>
      <use x="66.40625" xlink:href="#DejaVuSerif-45"/>
      <use x="100.195312" xlink:href="#DejaVuSerif-49"/>
      <use x="163.818359" xlink:href="#DejaVuSerif-48"/>
      <use x="227.441406" xlink:href="#DejaVuSerif-50"/>
      <use x="291.064453" xlink:href="#DejaVuSerif-52"/>
     </g>
    </g>
   </g>
  </g>
 </g>
 <defs>
  <clipPath id="pf1cc87b0df">
   <rect height="266.112" width="357.12" x="61.99125" y="7.2"/>
  </clipPath>
 </defs>
</svg>
