<?xml version="1.0" encoding="utf-8" standalone="no"?>
<!DOCTYPE svg PUBLIC "-//W3C//DTD SVG 1.1//EN"
  "http://www.w3.org/Graphics/SVG/1.1/DTD/svg11.dtd">
<!-- Created with matplotlib (https://matplotlib.org/) -->
<svg height="317.350125pt" version="1.1" viewBox="0 0 413.908125 317.350125" width="413.908125pt" xmlns="http://www.w3.org/2000/svg" xmlns:xlink="http://www.w3.org/1999/xlink">
 <defs>
  <style type="text/css">
*{stroke-linecap:butt;stroke-linejoin:round;}
  </style>
 </defs>
 <g id="figure_1">
  <g id="patch_1">
   <path d="M 0 317.350125 
L 413.908125 317.350125 
L 413.908125 0 
L 0 0 
z
" style="fill:#ffffff;"/>
  </g>
  <g id="axes_1">
   <g id="patch_2">
    <path d="M 49.588125 273.312 
L 406.708125 273.312 
L 406.708125 7.2 
L 49.588125 7.2 
z
" style="fill:#ffffff;"/>
   </g>
   <g id="PathCollection_1">
    <defs>
     <path d="M 0 3.872983 
C 1.027127 3.872983 2.012324 3.464901 2.738613 2.738613 
C 3.464901 2.012324 3.872983 1.027127 3.872983 0 
C 3.872983 -1.027127 3.464901 -2.012324 2.738613 -2.738613 
C 2.012324 -3.464901 1.027127 -3.872983 0 -3.872983 
C -1.027127 -3.872983 -2.012324 -3.464901 -2.738613 -2.738613 
C -3.464901 -2.012324 -3.872983 -1.027127 -3.872983 0 
C -3.872983 1.027127 -3.464901 2.012324 -2.738613 2.738613 
C -2.012324 3.464901 -1.027127 3.872983 0 3.872983 
z
" id="mab81f86b9c" style="stroke:#000000;stroke-opacity:0.7;"/>
    </defs>
    <g clip-path="url(#pb6fca4eb00)">
     <use style="fill:#0072b2;fill-opacity:0.7;stroke:#000000;stroke-opacity:0.7;" x="71.920325" xlink:href="#mab81f86b9c" y="257.93102"/>
     <use style="fill:#0072b2;fill-opacity:0.7;stroke:#000000;stroke-opacity:0.7;" x="79.731715" xlink:href="#mab81f86b9c" y="257.818807"/>
     <use style="fill:#0072b2;fill-opacity:0.7;stroke:#000000;stroke-opacity:0.7;" x="87.543105" xlink:href="#mab81f86b9c" y="257.762847"/>
     <use style="fill:#0072b2;fill-opacity:0.7;stroke:#000000;stroke-opacity:0.7;" x="95.354495" xlink:href="#mab81f86b9c" y="257.760593"/>
     <use style="fill:#0072b2;fill-opacity:0.7;stroke:#000000;stroke-opacity:0.7;" x="103.165885" xlink:href="#mab81f86b9c" y="257.824001"/>
     <use style="fill:#0072b2;fill-opacity:0.7;stroke:#000000;stroke-opacity:0.7;" x="110.977275" xlink:href="#mab81f86b9c" y="257.973602"/>
     <use style="fill:#0072b2;fill-opacity:0.7;stroke:#000000;stroke-opacity:0.7;" x="118.788665" xlink:href="#mab81f86b9c" y="258.237229"/>
     <use style="fill:#0072b2;fill-opacity:0.7;stroke:#000000;stroke-opacity:0.7;" x="126.600055" xlink:href="#mab81f86b9c" y="258.427452"/>
     <use style="fill:#0072b2;fill-opacity:0.7;stroke:#000000;stroke-opacity:0.7;" x="134.411445" xlink:href="#mab81f86b9c" y="257.977375"/>
     <use style="fill:#0072b2;fill-opacity:0.7;stroke:#000000;stroke-opacity:0.7;" x="142.222835" xlink:href="#mab81f86b9c" y="257.347071"/>
     <use style="fill:#0072b2;fill-opacity:0.7;stroke:#000000;stroke-opacity:0.7;" x="150.034225" xlink:href="#mab81f86b9c" y="256.624449"/>
     <use style="fill:#0072b2;fill-opacity:0.7;stroke:#000000;stroke-opacity:0.7;" x="157.845615" xlink:href="#mab81f86b9c" y="255.734143"/>
     <use style="fill:#0072b2;fill-opacity:0.7;stroke:#000000;stroke-opacity:0.7;" x="165.657005" xlink:href="#mab81f86b9c" y="254.538805"/>
     <use style="fill:#0072b2;fill-opacity:0.7;stroke:#000000;stroke-opacity:0.7;" x="173.468395" xlink:href="#mab81f86b9c" y="251.96501"/>
     <use style="fill:#0072b2;fill-opacity:0.7;stroke:#000000;stroke-opacity:0.7;" x="181.279785" xlink:href="#mab81f86b9c" y="248.329798"/>
     <use style="fill:#0072b2;fill-opacity:0.7;stroke:#000000;stroke-opacity:0.7;" x="189.091175" xlink:href="#mab81f86b9c" y="243.513703"/>
     <use style="fill:#0072b2;fill-opacity:0.7;stroke:#000000;stroke-opacity:0.7;" x="196.902565" xlink:href="#mab81f86b9c" y="236.603487"/>
     <use style="fill:#0072b2;fill-opacity:0.7;stroke:#000000;stroke-opacity:0.7;" x="204.713955" xlink:href="#mab81f86b9c" y="227.050727"/>
     <use style="fill:#0072b2;fill-opacity:0.7;stroke:#000000;stroke-opacity:0.7;" x="212.525345" xlink:href="#mab81f86b9c" y="217.515216"/>
     <use style="fill:#0072b2;fill-opacity:0.7;stroke:#000000;stroke-opacity:0.7;" x="220.336735" xlink:href="#mab81f86b9c" y="208.48579"/>
     <use style="fill:#0072b2;fill-opacity:0.7;stroke:#000000;stroke-opacity:0.7;" x="228.148125" xlink:href="#mab81f86b9c" y="195.263517"/>
     <use style="fill:#0072b2;fill-opacity:0.7;stroke:#000000;stroke-opacity:0.7;" x="235.959515" xlink:href="#mab81f86b9c" y="177.218583"/>
     <use style="fill:#0072b2;fill-opacity:0.7;stroke:#000000;stroke-opacity:0.7;" x="243.770905" xlink:href="#mab81f86b9c" y="158.110418"/>
     <use style="fill:#0072b2;fill-opacity:0.7;stroke:#000000;stroke-opacity:0.7;" x="251.582295" xlink:href="#mab81f86b9c" y="141.666209"/>
     <use style="fill:#0072b2;fill-opacity:0.7;stroke:#000000;stroke-opacity:0.7;" x="259.393685" xlink:href="#mab81f86b9c" y="138.942226"/>
     <use style="fill:#0072b2;fill-opacity:0.7;stroke:#000000;stroke-opacity:0.7;" x="267.205075" xlink:href="#mab81f86b9c" y="121.61369"/>
     <use style="fill:#0072b2;fill-opacity:0.7;stroke:#000000;stroke-opacity:0.7;" x="275.016465" xlink:href="#mab81f86b9c" y="104.168679"/>
     <use style="fill:#0072b2;fill-opacity:0.7;stroke:#000000;stroke-opacity:0.7;" x="282.827855" xlink:href="#mab81f86b9c" y="87.538707"/>
     <use style="fill:#0072b2;fill-opacity:0.7;stroke:#000000;stroke-opacity:0.7;" x="290.639245" xlink:href="#mab81f86b9c" y="71.19451"/>
     <use style="fill:#0072b2;fill-opacity:0.7;stroke:#000000;stroke-opacity:0.7;" x="298.450635" xlink:href="#mab81f86b9c" y="66.917332"/>
     <use style="fill:#0072b2;fill-opacity:0.7;stroke:#000000;stroke-opacity:0.7;" x="306.262025" xlink:href="#mab81f86b9c" y="68.039021"/>
     <use style="fill:#0072b2;fill-opacity:0.7;stroke:#000000;stroke-opacity:0.7;" x="314.073415" xlink:href="#mab81f86b9c" y="63.046472"/>
     <use style="fill:#0072b2;fill-opacity:0.7;stroke:#000000;stroke-opacity:0.7;" x="321.884805" xlink:href="#mab81f86b9c" y="51.713249"/>
     <use style="fill:#0072b2;fill-opacity:0.7;stroke:#000000;stroke-opacity:0.7;" x="329.696195" xlink:href="#mab81f86b9c" y="41.196192"/>
     <use style="fill:#0072b2;fill-opacity:0.7;stroke:#000000;stroke-opacity:0.7;" x="337.507585" xlink:href="#mab81f86b9c" y="31.435814"/>
     <use style="fill:#0072b2;fill-opacity:0.7;stroke:#000000;stroke-opacity:0.7;" x="345.318975" xlink:href="#mab81f86b9c" y="26.986935"/>
     <use style="fill:#0072b2;fill-opacity:0.7;stroke:#000000;stroke-opacity:0.7;" x="353.130365" xlink:href="#mab81f86b9c" y="26.09266"/>
     <use style="fill:#0072b2;fill-opacity:0.7;stroke:#000000;stroke-opacity:0.7;" x="360.941755" xlink:href="#mab81f86b9c" y="25.122777"/>
     <use style="fill:#0072b2;fill-opacity:0.7;stroke:#000000;stroke-opacity:0.7;" x="368.753145" xlink:href="#mab81f86b9c" y="24.094337"/>
     <use style="fill:#0072b2;fill-opacity:0.7;stroke:#000000;stroke-opacity:0.7;" x="376.564535" xlink:href="#mab81f86b9c" y="23.020718"/>
     <use style="fill:#0072b2;fill-opacity:0.7;stroke:#000000;stroke-opacity:0.7;" x="384.375925" xlink:href="#mab81f86b9c" y="22.084548"/>
    </g>
   </g>
   <g id="PathCollection_2">
    <defs>
     <path d="M 0 3.872983 
C 1.027127 3.872983 2.012324 3.464901 2.738613 2.738613 
C 3.464901 2.012324 3.872983 1.027127 3.872983 0 
C 3.872983 -1.027127 3.464901 -2.012324 2.738613 -2.738613 
C 2.012324 -3.464901 1.027127 -3.872983 0 -3.872983 
C -1.027127 -3.872983 -2.012324 -3.464901 -2.738613 -2.738613 
C -3.464901 -2.012324 -3.872983 -1.027127 -3.872983 0 
C -3.872983 1.027127 -3.464901 2.012324 -2.738613 2.738613 
C -2.012324 3.464901 -1.027127 3.872983 0 3.872983 
z
" id="me615fdbe15" style="stroke:#000000;stroke-opacity:0.7;"/>
    </defs>
    <g clip-path="url(#pb6fca4eb00)">
     <use style="fill:#009e73;fill-opacity:0.7;stroke:#000000;stroke-opacity:0.7;" x="71.920325" xlink:href="#me615fdbe15" y="258.079037"/>
     <use style="fill:#009e73;fill-opacity:0.7;stroke:#000000;stroke-opacity:0.7;" x="79.731715" xlink:href="#me615fdbe15" y="258.00102"/>
     <use style="fill:#009e73;fill-opacity:0.7;stroke:#000000;stroke-opacity:0.7;" x="87.543105" xlink:href="#me615fdbe15" y="257.962399"/>
     <use style="fill:#009e73;fill-opacity:0.7;stroke:#000000;stroke-opacity:0.7;" x="95.354495" xlink:href="#me615fdbe15" y="257.961402"/>
     <use style="fill:#009e73;fill-opacity:0.7;stroke:#000000;stroke-opacity:0.7;" x="103.165885" xlink:href="#me615fdbe15" y="258.006284"/>
     <use style="fill:#009e73;fill-opacity:0.7;stroke:#000000;stroke-opacity:0.7;" x="110.977275" xlink:href="#me615fdbe15" y="258.110897"/>
     <use style="fill:#009e73;fill-opacity:0.7;stroke:#000000;stroke-opacity:0.7;" x="118.788665" xlink:href="#me615fdbe15" y="258.294857"/>
     <use style="fill:#009e73;fill-opacity:0.7;stroke:#000000;stroke-opacity:0.7;" x="126.600055" xlink:href="#me615fdbe15" y="258.427452"/>
     <use style="fill:#009e73;fill-opacity:0.7;stroke:#000000;stroke-opacity:0.7;" x="134.411445" xlink:href="#me615fdbe15" y="258.127686"/>
     <use style="fill:#009e73;fill-opacity:0.7;stroke:#000000;stroke-opacity:0.7;" x="142.222835" xlink:href="#me615fdbe15" y="257.726687"/>
     <use style="fill:#009e73;fill-opacity:0.7;stroke:#000000;stroke-opacity:0.7;" x="150.034225" xlink:href="#me615fdbe15" y="257.318816"/>
     <use style="fill:#009e73;fill-opacity:0.7;stroke:#000000;stroke-opacity:0.7;" x="157.845615" xlink:href="#me615fdbe15" y="256.910835"/>
     <use style="fill:#009e73;fill-opacity:0.7;stroke:#000000;stroke-opacity:0.7;" x="165.657005" xlink:href="#me615fdbe15" y="256.512606"/>
     <use style="fill:#009e73;fill-opacity:0.7;stroke:#000000;stroke-opacity:0.7;" x="173.468395" xlink:href="#me615fdbe15" y="256.076255"/>
     <use style="fill:#009e73;fill-opacity:0.7;stroke:#000000;stroke-opacity:0.7;" x="181.279785" xlink:href="#me615fdbe15" y="255.437105"/>
     <use style="fill:#009e73;fill-opacity:0.7;stroke:#000000;stroke-opacity:0.7;" x="189.091175" xlink:href="#me615fdbe15" y="254.529827"/>
     <use style="fill:#009e73;fill-opacity:0.7;stroke:#000000;stroke-opacity:0.7;" x="196.902565" xlink:href="#me615fdbe15" y="252.109767"/>
     <use style="fill:#009e73;fill-opacity:0.7;stroke:#000000;stroke-opacity:0.7;" x="204.713955" xlink:href="#me615fdbe15" y="248.605317"/>
     <use style="fill:#009e73;fill-opacity:0.7;stroke:#000000;stroke-opacity:0.7;" x="212.525345" xlink:href="#me615fdbe15" y="242.667232"/>
     <use style="fill:#009e73;fill-opacity:0.7;stroke:#000000;stroke-opacity:0.7;" x="220.336735" xlink:href="#me615fdbe15" y="233.761517"/>
     <use style="fill:#009e73;fill-opacity:0.7;stroke:#000000;stroke-opacity:0.7;" x="228.148125" xlink:href="#me615fdbe15" y="224.168668"/>
     <use style="fill:#009e73;fill-opacity:0.7;stroke:#000000;stroke-opacity:0.7;" x="235.959515" xlink:href="#me615fdbe15" y="211.897039"/>
     <use style="fill:#009e73;fill-opacity:0.7;stroke:#000000;stroke-opacity:0.7;" x="243.770905" xlink:href="#me615fdbe15" y="193.724061"/>
     <use style="fill:#009e73;fill-opacity:0.7;stroke:#000000;stroke-opacity:0.7;" x="251.582295" xlink:href="#me615fdbe15" y="183.137716"/>
     <use style="fill:#009e73;fill-opacity:0.7;stroke:#000000;stroke-opacity:0.7;" x="259.393685" xlink:href="#me615fdbe15" y="163.264162"/>
     <use style="fill:#009e73;fill-opacity:0.7;stroke:#000000;stroke-opacity:0.7;" x="267.205075" xlink:href="#me615fdbe15" y="145.241012"/>
     <use style="fill:#009e73;fill-opacity:0.7;stroke:#000000;stroke-opacity:0.7;" x="275.016465" xlink:href="#me615fdbe15" y="137.531757"/>
     <use style="fill:#009e73;fill-opacity:0.7;stroke:#000000;stroke-opacity:0.7;" x="282.827855" xlink:href="#me615fdbe15" y="118.550076"/>
     <use style="fill:#009e73;fill-opacity:0.7;stroke:#000000;stroke-opacity:0.7;" x="290.639245" xlink:href="#me615fdbe15" y="100.295148"/>
     <use style="fill:#009e73;fill-opacity:0.7;stroke:#000000;stroke-opacity:0.7;" x="298.450635" xlink:href="#me615fdbe15" y="97.517351"/>
     <use style="fill:#009e73;fill-opacity:0.7;stroke:#000000;stroke-opacity:0.7;" x="306.262025" xlink:href="#me615fdbe15" y="90.055778"/>
     <use style="fill:#009e73;fill-opacity:0.7;stroke:#000000;stroke-opacity:0.7;" x="314.073415" xlink:href="#me615fdbe15" y="76.647476"/>
     <use style="fill:#009e73;fill-opacity:0.7;stroke:#000000;stroke-opacity:0.7;" x="321.884805" xlink:href="#me615fdbe15" y="64.218871"/>
     <use style="fill:#009e73;fill-opacity:0.7;stroke:#000000;stroke-opacity:0.7;" x="329.696195" xlink:href="#me615fdbe15" y="52.48865"/>
     <use style="fill:#009e73;fill-opacity:0.7;stroke:#000000;stroke-opacity:0.7;" x="337.507585" xlink:href="#me615fdbe15" y="41.650081"/>
     <use style="fill:#009e73;fill-opacity:0.7;stroke:#000000;stroke-opacity:0.7;" x="345.318975" xlink:href="#me615fdbe15" y="32.466209"/>
     <use style="fill:#009e73;fill-opacity:0.7;stroke:#000000;stroke-opacity:0.7;" x="353.130365" xlink:href="#me615fdbe15" y="32.316548"/>
     <use style="fill:#009e73;fill-opacity:0.7;stroke:#000000;stroke-opacity:0.7;" x="360.941755" xlink:href="#me615fdbe15" y="32.206172"/>
     <use style="fill:#009e73;fill-opacity:0.7;stroke:#000000;stroke-opacity:0.7;" x="368.753145" xlink:href="#me615fdbe15" y="32.126881"/>
     <use style="fill:#009e73;fill-opacity:0.7;stroke:#000000;stroke-opacity:0.7;" x="376.564535" xlink:href="#me615fdbe15" y="28.760523"/>
     <use style="fill:#009e73;fill-opacity:0.7;stroke:#000000;stroke-opacity:0.7;" x="384.375925" xlink:href="#me615fdbe15" y="22.084548"/>
    </g>
   </g>
   <g id="PathCollection_3">
    <defs>
     <path d="M 0 3.872983 
C 1.027127 3.872983 2.012324 3.464901 2.738613 2.738613 
C 3.464901 2.012324 3.872983 1.027127 3.872983 0 
C 3.872983 -1.027127 3.464901 -2.012324 2.738613 -2.738613 
C 2.012324 -3.464901 1.027127 -3.872983 0 -3.872983 
C -1.027127 -3.872983 -2.012324 -3.464901 -2.738613 -2.738613 
C -3.464901 -2.012324 -3.872983 -1.027127 -3.872983 0 
C -3.872983 1.027127 -3.464901 2.012324 -2.738613 2.738613 
C -2.012324 3.464901 -1.027127 3.872983 0 3.872983 
z
" id="m9ddb8d80f0" style="stroke:#000000;stroke-opacity:0.7;"/>
    </defs>
    <g clip-path="url(#pb6fca4eb00)">
     <use style="fill:#d55e00;fill-opacity:0.7;stroke:#000000;stroke-opacity:0.7;" x="71.920325" xlink:href="#m9ddb8d80f0" y="258.159654"/>
     <use style="fill:#d55e00;fill-opacity:0.7;stroke:#000000;stroke-opacity:0.7;" x="79.731715" xlink:href="#m9ddb8d80f0" y="258.099823"/>
     <use style="fill:#d55e00;fill-opacity:0.7;stroke:#000000;stroke-opacity:0.7;" x="87.543105" xlink:href="#m9ddb8d80f0" y="258.070407"/>
     <use style="fill:#d55e00;fill-opacity:0.7;stroke:#000000;stroke-opacity:0.7;" x="95.354495" xlink:href="#m9ddb8d80f0" y="258.069819"/>
     <use style="fill:#d55e00;fill-opacity:0.7;stroke:#000000;stroke-opacity:0.7;" x="103.165885" xlink:href="#m9ddb8d80f0" y="258.10447"/>
     <use style="fill:#d55e00;fill-opacity:0.7;stroke:#000000;stroke-opacity:0.7;" x="110.977275" xlink:href="#m9ddb8d80f0" y="258.184892"/>
     <use style="fill:#d55e00;fill-opacity:0.7;stroke:#000000;stroke-opacity:0.7;" x="118.788665" xlink:href="#m9ddb8d80f0" y="258.325851"/>
     <use style="fill:#d55e00;fill-opacity:0.7;stroke:#000000;stroke-opacity:0.7;" x="126.600055" xlink:href="#m9ddb8d80f0" y="258.427452"/>
     <use style="fill:#d55e00;fill-opacity:0.7;stroke:#000000;stroke-opacity:0.7;" x="134.411445" xlink:href="#m9ddb8d80f0" y="258.1986"/>
     <use style="fill:#d55e00;fill-opacity:0.7;stroke:#000000;stroke-opacity:0.7;" x="142.222835" xlink:href="#m9ddb8d80f0" y="257.893267"/>
     <use style="fill:#d55e00;fill-opacity:0.7;stroke:#000000;stroke-opacity:0.7;" x="150.034225" xlink:href="#m9ddb8d80f0" y="257.584169"/>
     <use style="fill:#d55e00;fill-opacity:0.7;stroke:#000000;stroke-opacity:0.7;" x="157.845615" xlink:href="#m9ddb8d80f0" y="257.280778"/>
     <use style="fill:#d55e00;fill-opacity:0.7;stroke:#000000;stroke-opacity:0.7;" x="165.657005" xlink:href="#m9ddb8d80f0" y="256.996977"/>
     <use style="fill:#d55e00;fill-opacity:0.7;stroke:#000000;stroke-opacity:0.7;" x="173.468395" xlink:href="#m9ddb8d80f0" y="256.749592"/>
     <use style="fill:#d55e00;fill-opacity:0.7;stroke:#000000;stroke-opacity:0.7;" x="181.279785" xlink:href="#m9ddb8d80f0" y="256.543593"/>
     <use style="fill:#d55e00;fill-opacity:0.7;stroke:#000000;stroke-opacity:0.7;" x="189.091175" xlink:href="#m9ddb8d80f0" y="256.362763"/>
     <use style="fill:#d55e00;fill-opacity:0.7;stroke:#000000;stroke-opacity:0.7;" x="196.902565" xlink:href="#m9ddb8d80f0" y="255.968612"/>
     <use style="fill:#d55e00;fill-opacity:0.7;stroke:#000000;stroke-opacity:0.7;" x="204.713955" xlink:href="#m9ddb8d80f0" y="254.790876"/>
     <use style="fill:#d55e00;fill-opacity:0.7;stroke:#000000;stroke-opacity:0.7;" x="212.525345" xlink:href="#m9ddb8d80f0" y="252.546942"/>
     <use style="fill:#d55e00;fill-opacity:0.7;stroke:#000000;stroke-opacity:0.7;" x="220.336735" xlink:href="#m9ddb8d80f0" y="248.08579"/>
     <use style="fill:#d55e00;fill-opacity:0.7;stroke:#000000;stroke-opacity:0.7;" x="228.148125" xlink:href="#m9ddb8d80f0" y="240.171608"/>
     <use style="fill:#d55e00;fill-opacity:0.7;stroke:#000000;stroke-opacity:0.7;" x="235.959515" xlink:href="#m9ddb8d80f0" y="229.61021"/>
     <use style="fill:#d55e00;fill-opacity:0.7;stroke:#000000;stroke-opacity:0.7;" x="243.770905" xlink:href="#m9ddb8d80f0" y="216.059375"/>
     <use style="fill:#d55e00;fill-opacity:0.7;stroke:#000000;stroke-opacity:0.7;" x="251.582295" xlink:href="#m9ddb8d80f0" y="203.240279"/>
     <use style="fill:#d55e00;fill-opacity:0.7;stroke:#000000;stroke-opacity:0.7;" x="259.393685" xlink:href="#m9ddb8d80f0" y="182.31445"/>
     <use style="fill:#d55e00;fill-opacity:0.7;stroke:#000000;stroke-opacity:0.7;" x="267.205075" xlink:href="#m9ddb8d80f0" y="169.588248"/>
     <use style="fill:#d55e00;fill-opacity:0.7;stroke:#000000;stroke-opacity:0.7;" x="275.016465" xlink:href="#m9ddb8d80f0" y="152.594682"/>
     <use style="fill:#d55e00;fill-opacity:0.7;stroke:#000000;stroke-opacity:0.7;" x="282.827855" xlink:href="#m9ddb8d80f0" y="139.666808"/>
     <use style="fill:#d55e00;fill-opacity:0.7;stroke:#000000;stroke-opacity:0.7;" x="290.639245" xlink:href="#m9ddb8d80f0" y="120.824948"/>
     <use style="fill:#d55e00;fill-opacity:0.7;stroke:#000000;stroke-opacity:0.7;" x="298.450635" xlink:href="#m9ddb8d80f0" y="118.226501"/>
     <use style="fill:#d55e00;fill-opacity:0.7;stroke:#000000;stroke-opacity:0.7;" x="306.262025" xlink:href="#m9ddb8d80f0" y="102.879909"/>
     <use style="fill:#d55e00;fill-opacity:0.7;stroke:#000000;stroke-opacity:0.7;" x="314.073415" xlink:href="#m9ddb8d80f0" y="88.440019"/>
     <use style="fill:#d55e00;fill-opacity:0.7;stroke:#000000;stroke-opacity:0.7;" x="321.884805" xlink:href="#m9ddb8d80f0" y="75.234757"/>
     <use style="fill:#d55e00;fill-opacity:0.7;stroke:#000000;stroke-opacity:0.7;" x="329.696195" xlink:href="#m9ddb8d80f0" y="73.716859"/>
     <use style="fill:#d55e00;fill-opacity:0.7;stroke:#000000;stroke-opacity:0.7;" x="337.507585" xlink:href="#m9ddb8d80f0" y="72.123362"/>
     <use style="fill:#d55e00;fill-opacity:0.7;stroke:#000000;stroke-opacity:0.7;" x="345.318975" xlink:href="#m9ddb8d80f0" y="62.37695"/>
     <use style="fill:#d55e00;fill-opacity:0.7;stroke:#000000;stroke-opacity:0.7;" x="353.130365" xlink:href="#m9ddb8d80f0" y="53.223025"/>
     <use style="fill:#d55e00;fill-opacity:0.7;stroke:#000000;stroke-opacity:0.7;" x="360.941755" xlink:href="#m9ddb8d80f0" y="44.673176"/>
     <use style="fill:#d55e00;fill-opacity:0.7;stroke:#000000;stroke-opacity:0.7;" x="368.753145" xlink:href="#m9ddb8d80f0" y="36.674456"/>
     <use style="fill:#d55e00;fill-opacity:0.7;stroke:#000000;stroke-opacity:0.7;" x="376.564535" xlink:href="#m9ddb8d80f0" y="29.16321"/>
     <use style="fill:#d55e00;fill-opacity:0.7;stroke:#000000;stroke-opacity:0.7;" x="384.375925" xlink:href="#m9ddb8d80f0" y="22.084548"/>
    </g>
   </g>
   <g id="PathCollection_4">
    <defs>
     <path d="M 0 3.872983 
C 1.027127 3.872983 2.012324 3.464901 2.738613 2.738613 
C 3.464901 2.012324 3.872983 1.027127 3.872983 0 
C 3.872983 -1.027127 3.464901 -2.012324 2.738613 -2.738613 
C 2.012324 -3.464901 1.027127 -3.872983 0 -3.872983 
C -1.027127 -3.872983 -2.012324 -3.464901 -2.738613 -2.738613 
C -3.464901 -2.012324 -3.872983 -1.027127 -3.872983 0 
C -3.872983 1.027127 -3.464901 2.012324 -2.738613 2.738613 
C -2.012324 3.464901 -1.027127 3.872983 0 3.872983 
z
" id="m7267c3c2df" style="stroke:#000000;stroke-opacity:0.7;"/>
    </defs>
    <g clip-path="url(#pb6fca4eb00)">
     <use style="fill:#cc79a7;fill-opacity:0.7;stroke:#000000;stroke-opacity:0.7;" x="71.920325" xlink:href="#m7267c3c2df" y="258.18719"/>
     <use style="fill:#cc79a7;fill-opacity:0.7;stroke:#000000;stroke-opacity:0.7;" x="79.731715" xlink:href="#m7267c3c2df" y="258.133708"/>
     <use style="fill:#cc79a7;fill-opacity:0.7;stroke:#000000;stroke-opacity:0.7;" x="87.543105" xlink:href="#m7267c3c2df" y="258.107439"/>
     <use style="fill:#cc79a7;fill-opacity:0.7;stroke:#000000;stroke-opacity:0.7;" x="95.354495" xlink:href="#m7267c3c2df" y="258.106968"/>
     <use style="fill:#cc79a7;fill-opacity:0.7;stroke:#000000;stroke-opacity:0.7;" x="103.165885" xlink:href="#m7267c3c2df" y="258.138154"/>
     <use style="fill:#cc79a7;fill-opacity:0.7;stroke:#000000;stroke-opacity:0.7;" x="110.977275" xlink:href="#m7267c3c2df" y="258.210226"/>
     <use style="fill:#cc79a7;fill-opacity:0.7;stroke:#000000;stroke-opacity:0.7;" x="118.788665" xlink:href="#m7267c3c2df" y="258.336453"/>
     <use style="fill:#cc79a7;fill-opacity:0.7;stroke:#000000;stroke-opacity:0.7;" x="126.600055" xlink:href="#m7267c3c2df" y="258.427452"/>
     <use style="fill:#cc79a7;fill-opacity:0.7;stroke:#000000;stroke-opacity:0.7;" x="134.411445" xlink:href="#m7267c3c2df" y="258.223024"/>
     <use style="fill:#cc79a7;fill-opacity:0.7;stroke:#000000;stroke-opacity:0.7;" x="142.222835" xlink:href="#m7267c3c2df" y="257.950565"/>
     <use style="fill:#cc79a7;fill-opacity:0.7;stroke:#000000;stroke-opacity:0.7;" x="150.034225" xlink:href="#m7267c3c2df" y="257.675344"/>
     <use style="fill:#cc79a7;fill-opacity:0.7;stroke:#000000;stroke-opacity:0.7;" x="157.845615" xlink:href="#m7267c3c2df" y="257.406051"/>
     <use style="fill:#cc79a7;fill-opacity:0.7;stroke:#000000;stroke-opacity:0.7;" x="165.657005" xlink:href="#m7267c3c2df" y="257.155483"/>
     <use style="fill:#cc79a7;fill-opacity:0.7;stroke:#000000;stroke-opacity:0.7;" x="173.468395" xlink:href="#m7267c3c2df" y="256.938189"/>
     <use style="fill:#cc79a7;fill-opacity:0.7;stroke:#000000;stroke-opacity:0.7;" x="181.279785" xlink:href="#m7267c3c2df" y="256.760569"/>
     <use style="fill:#cc79a7;fill-opacity:0.7;stroke:#000000;stroke-opacity:0.7;" x="189.091175" xlink:href="#m7267c3c2df" y="256.647267"/>
     <use style="fill:#cc79a7;fill-opacity:0.7;stroke:#000000;stroke-opacity:0.7;" x="196.902565" xlink:href="#m7267c3c2df" y="256.675741"/>
     <use style="fill:#cc79a7;fill-opacity:0.7;stroke:#000000;stroke-opacity:0.7;" x="204.713955" xlink:href="#m7267c3c2df" y="256.689739"/>
     <use style="fill:#cc79a7;fill-opacity:0.7;stroke:#000000;stroke-opacity:0.7;" x="212.525345" xlink:href="#m7267c3c2df" y="255.662533"/>
     <use style="fill:#cc79a7;fill-opacity:0.7;stroke:#000000;stroke-opacity:0.7;" x="220.336735" xlink:href="#m7267c3c2df" y="253.085011"/>
     <use style="fill:#cc79a7;fill-opacity:0.7;stroke:#000000;stroke-opacity:0.7;" x="228.148125" xlink:href="#m7267c3c2df" y="247.463272"/>
     <use style="fill:#cc79a7;fill-opacity:0.7;stroke:#000000;stroke-opacity:0.7;" x="235.959515" xlink:href="#m7267c3c2df" y="239.617401"/>
     <use style="fill:#cc79a7;fill-opacity:0.7;stroke:#000000;stroke-opacity:0.7;" x="243.770905" xlink:href="#m7267c3c2df" y="227.955416"/>
     <use style="fill:#cc79a7;fill-opacity:0.7;stroke:#000000;stroke-opacity:0.7;" x="251.582295" xlink:href="#m7267c3c2df" y="211.971668"/>
     <use style="fill:#cc79a7;fill-opacity:0.7;stroke:#000000;stroke-opacity:0.7;" x="259.393685" xlink:href="#m7267c3c2df" y="193.909822"/>
     <use style="fill:#cc79a7;fill-opacity:0.7;stroke:#000000;stroke-opacity:0.7;" x="267.205075" xlink:href="#m7267c3c2df" y="173.715521"/>
     <use style="fill:#cc79a7;fill-opacity:0.7;stroke:#000000;stroke-opacity:0.7;" x="275.016465" xlink:href="#m7267c3c2df" y="157.30345"/>
     <use style="fill:#cc79a7;fill-opacity:0.7;stroke:#000000;stroke-opacity:0.7;" x="282.827855" xlink:href="#m7267c3c2df" y="144.358311"/>
     <use style="fill:#cc79a7;fill-opacity:0.7;stroke:#000000;stroke-opacity:0.7;" x="290.639245" xlink:href="#m7267c3c2df" y="122.865097"/>
     <use style="fill:#cc79a7;fill-opacity:0.7;stroke:#000000;stroke-opacity:0.7;" x="298.450635" xlink:href="#m7267c3c2df" y="115.782441"/>
     <use style="fill:#cc79a7;fill-opacity:0.7;stroke:#000000;stroke-opacity:0.7;" x="306.262025" xlink:href="#m7267c3c2df" y="98.081359"/>
     <use style="fill:#cc79a7;fill-opacity:0.7;stroke:#000000;stroke-opacity:0.7;" x="314.073415" xlink:href="#m7267c3c2df" y="84.426614"/>
     <use style="fill:#cc79a7;fill-opacity:0.7;stroke:#000000;stroke-opacity:0.7;" x="321.884805" xlink:href="#m7267c3c2df" y="82.960859"/>
     <use style="fill:#cc79a7;fill-opacity:0.7;stroke:#000000;stroke-opacity:0.7;" x="329.696195" xlink:href="#m7267c3c2df" y="69.794721"/>
     <use style="fill:#cc79a7;fill-opacity:0.7;stroke:#000000;stroke-opacity:0.7;" x="337.507585" xlink:href="#m7267c3c2df" y="57.666555"/>
     <use style="fill:#cc79a7;fill-opacity:0.7;stroke:#000000;stroke-opacity:0.7;" x="345.318975" xlink:href="#m7267c3c2df" y="46.455589"/>
     <use style="fill:#cc79a7;fill-opacity:0.7;stroke:#000000;stroke-opacity:0.7;" x="353.130365" xlink:href="#m7267c3c2df" y="36.051156"/>
     <use style="fill:#cc79a7;fill-opacity:0.7;stroke:#000000;stroke-opacity:0.7;" x="360.941755" xlink:href="#m7267c3c2df" y="34.099083"/>
     <use style="fill:#cc79a7;fill-opacity:0.7;stroke:#000000;stroke-opacity:0.7;" x="368.753145" xlink:href="#m7267c3c2df" y="33.010796"/>
     <use style="fill:#cc79a7;fill-opacity:0.7;stroke:#000000;stroke-opacity:0.7;" x="376.564535" xlink:href="#m7267c3c2df" y="29.822116"/>
     <use style="fill:#cc79a7;fill-opacity:0.7;stroke:#000000;stroke-opacity:0.7;" x="384.375925" xlink:href="#m7267c3c2df" y="22.084548"/>
    </g>
   </g>
   <g id="PathCollection_5">
    <defs>
     <path d="M 0 3.872983 
C 1.027127 3.872983 2.012324 3.464901 2.738613 2.738613 
C 3.464901 2.012324 3.872983 1.027127 3.872983 0 
C 3.872983 -1.027127 3.464901 -2.012324 2.738613 -2.738613 
C 2.012324 -3.464901 1.027127 -3.872983 0 -3.872983 
C -1.027127 -3.872983 -2.012324 -3.464901 -2.738613 -2.738613 
C -3.464901 -2.012324 -3.872983 -1.027127 -3.872983 0 
C -3.872983 1.027127 -3.464901 2.012324 -2.738613 2.738613 
C -2.012324 3.464901 -1.027127 3.872983 0 3.872983 
z
" id="m3928e9bcfa" style="stroke:#000000;stroke-opacity:0.7;"/>
    </defs>
    <g clip-path="url(#pb6fca4eb00)">
     <use style="fill:#f0e442;fill-opacity:0.7;stroke:#000000;stroke-opacity:0.7;" x="71.920325" xlink:href="#m3928e9bcfa" y="258.22507"/>
     <use style="fill:#f0e442;fill-opacity:0.7;stroke:#000000;stroke-opacity:0.7;" x="79.731715" xlink:href="#m3928e9bcfa" y="258.180065"/>
     <use style="fill:#f0e442;fill-opacity:0.7;stroke:#000000;stroke-opacity:0.7;" x="87.543105" xlink:href="#m3928e9bcfa" y="258.158046"/>
     <use style="fill:#f0e442;fill-opacity:0.7;stroke:#000000;stroke-opacity:0.7;" x="95.354495" xlink:href="#m3928e9bcfa" y="258.157701"/>
     <use style="fill:#f0e442;fill-opacity:0.7;stroke:#000000;stroke-opacity:0.7;" x="103.165885" xlink:href="#m3928e9bcfa" y="258.183931"/>
     <use style="fill:#f0e442;fill-opacity:0.7;stroke:#000000;stroke-opacity:0.7;" x="110.977275" xlink:href="#m3928e9bcfa" y="258.244742"/>
     <use style="fill:#f0e442;fill-opacity:0.7;stroke:#000000;stroke-opacity:0.7;" x="118.788665" xlink:href="#m3928e9bcfa" y="258.350972"/>
     <use style="fill:#f0e442;fill-opacity:0.7;stroke:#000000;stroke-opacity:0.7;" x="126.600055" xlink:href="#m3928e9bcfa" y="258.427452"/>
     <use style="fill:#f0e442;fill-opacity:0.7;stroke:#000000;stroke-opacity:0.7;" x="134.411445" xlink:href="#m3928e9bcfa" y="258.255717"/>
     <use style="fill:#f0e442;fill-opacity:0.7;stroke:#000000;stroke-opacity:0.7;" x="142.222835" xlink:href="#m3928e9bcfa" y="258.027036"/>
     <use style="fill:#f0e442;fill-opacity:0.7;stroke:#000000;stroke-opacity:0.7;" x="150.034225" xlink:href="#m3928e9bcfa" y="257.796353"/>
     <use style="fill:#f0e442;fill-opacity:0.7;stroke:#000000;stroke-opacity:0.7;" x="157.845615" xlink:href="#m3928e9bcfa" y="257.571054"/>
     <use style="fill:#f0e442;fill-opacity:0.7;stroke:#000000;stroke-opacity:0.7;" x="165.657005" xlink:href="#m3928e9bcfa" y="257.361976"/>
     <use style="fill:#f0e442;fill-opacity:0.7;stroke:#000000;stroke-opacity:0.7;" x="173.468395" xlink:href="#m3928e9bcfa" y="257.181337"/>
     <use style="fill:#f0e442;fill-opacity:0.7;stroke:#000000;stroke-opacity:0.7;" x="181.279785" xlink:href="#m3928e9bcfa" y="257.034727"/>
     <use style="fill:#f0e442;fill-opacity:0.7;stroke:#000000;stroke-opacity:0.7;" x="189.091175" xlink:href="#m3928e9bcfa" y="256.956659"/>
     <use style="fill:#f0e442;fill-opacity:0.7;stroke:#000000;stroke-opacity:0.7;" x="196.902565" xlink:href="#m3928e9bcfa" y="256.977279"/>
     <use style="fill:#f0e442;fill-opacity:0.7;stroke:#000000;stroke-opacity:0.7;" x="204.713955" xlink:href="#m3928e9bcfa" y="257.137515"/>
     <use style="fill:#f0e442;fill-opacity:0.7;stroke:#000000;stroke-opacity:0.7;" x="212.525345" xlink:href="#m3928e9bcfa" y="257.169275"/>
     <use style="fill:#f0e442;fill-opacity:0.7;stroke:#000000;stroke-opacity:0.7;" x="220.336735" xlink:href="#m3928e9bcfa" y="255.638622"/>
     <use style="fill:#f0e442;fill-opacity:0.7;stroke:#000000;stroke-opacity:0.7;" x="228.148125" xlink:href="#m3928e9bcfa" y="251.484251"/>
     <use style="fill:#f0e442;fill-opacity:0.7;stroke:#000000;stroke-opacity:0.7;" x="235.959515" xlink:href="#m3928e9bcfa" y="244.935264"/>
     <use style="fill:#f0e442;fill-opacity:0.7;stroke:#000000;stroke-opacity:0.7;" x="243.770905" xlink:href="#m3928e9bcfa" y="235.088306"/>
     <use style="fill:#f0e442;fill-opacity:0.7;stroke:#000000;stroke-opacity:0.7;" x="251.582295" xlink:href="#m3928e9bcfa" y="221.932473"/>
     <use style="fill:#f0e442;fill-opacity:0.7;stroke:#000000;stroke-opacity:0.7;" x="259.393685" xlink:href="#m3928e9bcfa" y="206.473068"/>
     <use style="fill:#f0e442;fill-opacity:0.7;stroke:#000000;stroke-opacity:0.7;" x="267.205075" xlink:href="#m3928e9bcfa" y="190.350667"/>
     <use style="fill:#f0e442;fill-opacity:0.7;stroke:#000000;stroke-opacity:0.7;" x="275.016465" xlink:href="#m3928e9bcfa" y="172.80158"/>
     <use style="fill:#f0e442;fill-opacity:0.7;stroke:#000000;stroke-opacity:0.7;" x="282.827855" xlink:href="#m3928e9bcfa" y="155.483176"/>
     <use style="fill:#f0e442;fill-opacity:0.7;stroke:#000000;stroke-opacity:0.7;" x="290.639245" xlink:href="#m3928e9bcfa" y="135.564516"/>
     <use style="fill:#f0e442;fill-opacity:0.7;stroke:#000000;stroke-opacity:0.7;" x="298.450635" xlink:href="#m3928e9bcfa" y="125.639699"/>
     <use style="fill:#f0e442;fill-opacity:0.7;stroke:#000000;stroke-opacity:0.7;" x="306.262025" xlink:href="#m3928e9bcfa" y="107.428037"/>
     <use style="fill:#f0e442;fill-opacity:0.7;stroke:#000000;stroke-opacity:0.7;" x="314.073415" xlink:href="#m3928e9bcfa" y="103.249929"/>
     <use style="fill:#f0e442;fill-opacity:0.7;stroke:#000000;stroke-opacity:0.7;" x="321.884805" xlink:href="#m3928e9bcfa" y="88.675906"/>
     <use style="fill:#f0e442;fill-opacity:0.7;stroke:#000000;stroke-opacity:0.7;" x="329.696195" xlink:href="#m3928e9bcfa" y="75.276764"/>
     <use style="fill:#f0e442;fill-opacity:0.7;stroke:#000000;stroke-opacity:0.7;" x="337.507585" xlink:href="#m3928e9bcfa" y="67.025192"/>
     <use style="fill:#f0e442;fill-opacity:0.7;stroke:#000000;stroke-opacity:0.7;" x="345.318975" xlink:href="#m3928e9bcfa" y="65.310877"/>
     <use style="fill:#f0e442;fill-opacity:0.7;stroke:#000000;stroke-opacity:0.7;" x="353.130365" xlink:href="#m3928e9bcfa" y="56.68498"/>
     <use style="fill:#f0e442;fill-opacity:0.7;stroke:#000000;stroke-opacity:0.7;" x="360.941755" xlink:href="#m3928e9bcfa" y="47.212624"/>
     <use style="fill:#f0e442;fill-opacity:0.7;stroke:#000000;stroke-opacity:0.7;" x="368.753145" xlink:href="#m3928e9bcfa" y="38.337062"/>
     <use style="fill:#f0e442;fill-opacity:0.7;stroke:#000000;stroke-opacity:0.7;" x="376.564535" xlink:href="#m3928e9bcfa" y="29.985679"/>
     <use style="fill:#f0e442;fill-opacity:0.7;stroke:#000000;stroke-opacity:0.7;" x="384.375925" xlink:href="#m3928e9bcfa" y="22.084548"/>
    </g>
   </g>
   <g id="matplotlib.axis_1">
    <g id="xtick_1">
     <g id="line2d_1">
      <defs>
       <path d="M 0 0 
L 0 3.5 
" id="m9fd7a3f518" style="stroke:#000000;stroke-width:0.8;"/>
      </defs>
      <g>
       <use style="stroke:#000000;stroke-width:0.8;" x="64.108935" xlink:href="#m9fd7a3f518" y="273.312"/>
      </g>
     </g>
     <g id="text_1">
      <!-- 0.0 -->
      <defs>
       <path d="M 31.78125 3.421875 
Q 39.265625 3.421875 42.96875 11.625 
Q 46.6875 19.828125 46.6875 36.375 
Q 46.6875 52.984375 42.96875 61.1875 
Q 39.265625 69.390625 31.78125 69.390625 
Q 24.3125 69.390625 20.59375 61.1875 
Q 16.890625 52.984375 16.890625 36.375 
Q 16.890625 19.828125 20.59375 11.625 
Q 24.3125 3.421875 31.78125 3.421875 
z
M 31.78125 -1.421875 
Q 19.921875 -1.421875 13.25 8.53125 
Q 6.59375 18.5 6.59375 36.375 
Q 6.59375 54.296875 13.25 64.25 
Q 19.921875 74.21875 31.78125 74.21875 
Q 43.703125 74.21875 50.34375 64.25 
Q 56.984375 54.296875 56.984375 36.375 
Q 56.984375 18.5 50.34375 8.53125 
Q 43.703125 -1.421875 31.78125 -1.421875 
z
" id="DejaVuSerif-48"/>
       <path d="M 9.421875 5.078125 
Q 9.421875 7.8125 11.28125 9.71875 
Q 13.140625 11.625 15.921875 11.625 
Q 18.609375 11.625 20.5 9.71875 
Q 22.40625 7.8125 22.40625 5.078125 
Q 22.40625 2.390625 20.5 0.484375 
Q 18.609375 -1.421875 15.921875 -1.421875 
Q 13.140625 -1.421875 11.28125 0.453125 
Q 9.421875 2.34375 9.421875 5.078125 
z
" id="DejaVuSerif-46"/>
      </defs>
      <g transform="translate(56.157372 287.910437)scale(0.1 -0.1)">
       <use xlink:href="#DejaVuSerif-48"/>
       <use x="63.623047" xlink:href="#DejaVuSerif-46"/>
       <use x="95.410156" xlink:href="#DejaVuSerif-48"/>
      </g>
     </g>
    </g>
    <g id="xtick_2">
     <g id="line2d_2">
      <g>
       <use style="stroke:#000000;stroke-width:0.8;" x="142.222835" xlink:href="#m9fd7a3f518" y="273.312"/>
      </g>
     </g>
     <g id="text_2">
      <!-- 0.1 -->
      <defs>
       <path d="M 14.203125 0 
L 14.203125 5.171875 
L 26.90625 5.171875 
L 26.90625 65.828125 
L 12.203125 56.296875 
L 12.203125 62.703125 
L 29.984375 74.21875 
L 36.71875 74.21875 
L 36.71875 5.171875 
L 49.421875 5.171875 
L 49.421875 0 
z
" id="DejaVuSerif-49"/>
      </defs>
      <g transform="translate(134.271272 287.910437)scale(0.1 -0.1)">
       <use xlink:href="#DejaVuSerif-48"/>
       <use x="63.623047" xlink:href="#DejaVuSerif-46"/>
       <use x="95.410156" xlink:href="#DejaVuSerif-49"/>
      </g>
     </g>
    </g>
    <g id="xtick_3">
     <g id="line2d_3">
      <g>
       <use style="stroke:#000000;stroke-width:0.8;" x="220.336735" xlink:href="#m9fd7a3f518" y="273.312"/>
      </g>
     </g>
     <g id="text_3">
      <!-- 0.2 -->
      <defs>
       <path d="M 12.796875 55.515625 
L 7.328125 55.515625 
L 7.328125 68.5 
Q 12.546875 71.296875 17.84375 72.75 
Q 23.140625 74.21875 28.21875 74.21875 
Q 39.59375 74.21875 46.1875 68.703125 
Q 52.78125 63.1875 52.78125 53.71875 
Q 52.78125 43.015625 37.84375 28.125 
Q 36.671875 27 36.078125 26.421875 
L 17.671875 8.015625 
L 48.09375 8.015625 
L 48.09375 17 
L 53.8125 17 
L 53.8125 0 
L 6.78125 0 
L 6.78125 5.328125 
L 28.90625 27.390625 
Q 36.234375 34.71875 39.359375 40.84375 
Q 42.484375 46.96875 42.484375 53.71875 
Q 42.484375 61.078125 38.640625 65.234375 
Q 34.8125 69.390625 28.078125 69.390625 
Q 21.09375 69.390625 17.28125 65.921875 
Q 13.484375 62.453125 12.796875 55.515625 
z
" id="DejaVuSerif-50"/>
      </defs>
      <g transform="translate(212.385172 287.910437)scale(0.1 -0.1)">
       <use xlink:href="#DejaVuSerif-48"/>
       <use x="63.623047" xlink:href="#DejaVuSerif-46"/>
       <use x="95.410156" xlink:href="#DejaVuSerif-50"/>
      </g>
     </g>
    </g>
    <g id="xtick_4">
     <g id="line2d_4">
      <g>
       <use style="stroke:#000000;stroke-width:0.8;" x="298.450635" xlink:href="#m9fd7a3f518" y="273.312"/>
      </g>
     </g>
     <g id="text_4">
      <!-- 0.3 -->
      <defs>
       <path d="M 9.71875 69.828125 
Q 15.4375 71.96875 20.671875 73.09375 
Q 25.921875 74.21875 30.515625 74.21875 
Q 41.21875 74.21875 47.21875 69.59375 
Q 53.21875 64.984375 53.21875 56.78125 
Q 53.21875 50.203125 49.0625 45.78125 
Q 44.921875 41.359375 37.3125 39.796875 
Q 46.296875 38.53125 51.25 33.28125 
Q 56.203125 28.03125 56.203125 19.671875 
Q 56.203125 9.46875 49.34375 4.015625 
Q 42.484375 -1.421875 29.59375 -1.421875 
Q 23.875 -1.421875 18.421875 -0.1875 
Q 12.984375 1.03125 7.625 3.515625 
L 7.625 17.671875 
L 13.09375 17.671875 
Q 13.578125 10.640625 17.828125 7.03125 
Q 22.078125 3.421875 29.78125 3.421875 
Q 37.25 3.421875 41.578125 7.734375 
Q 45.90625 12.0625 45.90625 19.578125 
Q 45.90625 28.171875 41.453125 32.59375 
Q 37.015625 37.015625 28.421875 37.015625 
L 23.78125 37.015625 
L 23.78125 42 
L 26.21875 42 
Q 34.765625 42 39.03125 45.53125 
Q 43.3125 49.078125 43.3125 56.203125 
Q 43.3125 62.59375 39.796875 65.984375 
Q 36.28125 69.390625 29.6875 69.390625 
Q 23.09375 69.390625 19.453125 66.265625 
Q 15.828125 63.140625 15.1875 56.984375 
L 9.71875 56.984375 
z
" id="DejaVuSerif-51"/>
      </defs>
      <g transform="translate(290.499073 287.910437)scale(0.1 -0.1)">
       <use xlink:href="#DejaVuSerif-48"/>
       <use x="63.623047" xlink:href="#DejaVuSerif-46"/>
       <use x="95.410156" xlink:href="#DejaVuSerif-51"/>
      </g>
     </g>
    </g>
    <g id="xtick_5">
     <g id="line2d_5">
      <g>
       <use style="stroke:#000000;stroke-width:0.8;" x="376.564535" xlink:href="#m9fd7a3f518" y="273.312"/>
      </g>
     </g>
     <g id="text_5">
      <!-- 0.4 -->
      <defs>
       <path d="M 34.90625 24.703125 
L 34.90625 63.484375 
L 10.015625 24.703125 
z
M 56.390625 0 
L 23.1875 0 
L 23.1875 5.171875 
L 34.90625 5.171875 
L 34.90625 19.484375 
L 3.078125 19.484375 
L 3.078125 24.8125 
L 35.015625 74.21875 
L 44.671875 74.21875 
L 44.671875 24.703125 
L 58.59375 24.703125 
L 58.59375 19.484375 
L 44.671875 19.484375 
L 44.671875 5.171875 
L 56.390625 5.171875 
z
" id="DejaVuSerif-52"/>
      </defs>
      <g transform="translate(368.612973 287.910437)scale(0.1 -0.1)">
       <use xlink:href="#DejaVuSerif-48"/>
       <use x="63.623047" xlink:href="#DejaVuSerif-46"/>
       <use x="95.410156" xlink:href="#DejaVuSerif-52"/>
      </g>
     </g>
    </g>
    <g id="text_6">
     <!-- Tunneling $J/U$ -->
     <defs>
      <path d="M 19.09375 0 
L 19.09375 5.171875 
L 28.421875 5.171875 
L 28.421875 67.09375 
L 6.984375 67.09375 
L 6.984375 55.71875 
L 0.984375 55.71875 
L 0.984375 72.90625 
L 65.71875 72.90625 
L 65.71875 55.71875 
L 59.71875 55.71875 
L 59.71875 67.09375 
L 38.28125 67.09375 
L 38.28125 5.171875 
L 47.609375 5.171875 
L 47.609375 0 
z
" id="DejaVuSerif-84"/>
      <path d="M 35.40625 51.90625 
L 52.203125 51.90625 
L 52.203125 5.171875 
L 60.6875 5.171875 
L 60.6875 0 
L 43.21875 0 
L 43.21875 9.1875 
Q 40.71875 4 36.765625 1.28125 
Q 32.8125 -1.421875 27.59375 -1.421875 
Q 18.953125 -1.421875 14.875 3.484375 
Q 10.796875 8.40625 10.796875 18.890625 
L 10.796875 46.6875 
L 2.6875 46.6875 
L 2.6875 51.90625 
L 19.828125 51.90625 
L 19.828125 21.6875 
Q 19.828125 12.203125 22.140625 8.6875 
Q 24.46875 5.171875 30.421875 5.171875 
Q 36.671875 5.171875 39.9375 9.765625 
Q 43.21875 14.359375 43.21875 23.09375 
L 43.21875 46.6875 
L 35.40625 46.6875 
z
" id="DejaVuSerif-117"/>
      <path d="M 4.109375 0 
L 4.109375 5.171875 
L 12.203125 5.171875 
L 12.203125 46.6875 
L 3.609375 46.6875 
L 3.609375 51.90625 
L 21.1875 51.90625 
L 21.1875 42.671875 
Q 23.6875 47.953125 27.65625 50.640625 
Q 31.640625 53.328125 36.921875 53.328125 
Q 45.515625 53.328125 49.5625 48.390625 
Q 53.609375 43.453125 53.609375 33.015625 
L 53.609375 5.171875 
L 61.625 5.171875 
L 61.625 0 
L 36.8125 0 
L 36.8125 5.171875 
L 44.578125 5.171875 
L 44.578125 30.171875 
Q 44.578125 39.703125 42.234375 43.234375 
Q 39.890625 46.78125 33.984375 46.78125 
Q 27.734375 46.78125 24.453125 42.203125 
Q 21.1875 37.640625 21.1875 28.90625 
L 21.1875 5.171875 
L 29 5.171875 
L 29 0 
z
" id="DejaVuSerif-110"/>
      <path d="M 54.203125 25 
L 15.484375 25 
L 15.484375 24.609375 
Q 15.484375 14.109375 19.4375 8.765625 
Q 23.390625 3.421875 31.109375 3.421875 
Q 37.015625 3.421875 40.796875 6.515625 
Q 44.578125 9.625 46.09375 15.71875 
L 53.328125 15.71875 
Q 51.171875 7.171875 45.375 2.875 
Q 39.59375 -1.421875 30.171875 -1.421875 
Q 18.796875 -1.421875 11.890625 6.078125 
Q 4.984375 13.578125 4.984375 25.984375 
Q 4.984375 38.28125 11.765625 45.796875 
Q 18.5625 53.328125 29.59375 53.328125 
Q 41.359375 53.328125 47.65625 46.0625 
Q 53.953125 38.8125 54.203125 25 
z
M 43.609375 30.171875 
Q 43.3125 39.265625 39.765625 43.875 
Q 36.234375 48.484375 29.59375 48.484375 
Q 23.390625 48.484375 19.828125 43.84375 
Q 16.265625 39.203125 15.484375 30.171875 
z
" id="DejaVuSerif-101"/>
      <path d="M 20.515625 5.171875 
L 29 5.171875 
L 29 0 
L 2.875 0 
L 2.875 5.171875 
L 11.53125 5.171875 
L 11.53125 70.796875 
L 2.875 70.796875 
L 2.875 75.984375 
L 20.515625 75.984375 
z
" id="DejaVuSerif-108"/>
      <path d="M 9.71875 68.015625 
Q 9.71875 70.265625 11.34375 71.921875 
Q 12.984375 73.578125 15.28125 73.578125 
Q 17.53125 73.578125 19.15625 71.921875 
Q 20.796875 70.265625 20.796875 68.015625 
Q 20.796875 65.71875 19.1875 64.109375 
Q 17.578125 62.5 15.28125 62.5 
Q 12.984375 62.5 11.34375 64.109375 
Q 9.71875 65.71875 9.71875 68.015625 
z
M 21.1875 5.171875 
L 29.6875 5.171875 
L 29.6875 0 
L 3.609375 0 
L 3.609375 5.171875 
L 12.203125 5.171875 
L 12.203125 46.6875 
L 3.609375 46.6875 
L 3.609375 51.90625 
L 21.1875 51.90625 
z
" id="DejaVuSerif-105"/>
      <path d="M 52.484375 46.6875 
L 52.484375 1.125 
Q 52.484375 -10.0625 46.328125 -16.140625 
Q 40.1875 -22.21875 28.8125 -22.21875 
Q 23.6875 -22.21875 19 -21.28125 
Q 14.3125 -20.359375 10.015625 -18.5 
L 10.015625 -7.625 
L 14.703125 -7.625 
Q 15.578125 -12.703125 18.84375 -15.046875 
Q 22.125 -17.390625 28.21875 -17.390625 
Q 36.140625 -17.390625 39.8125 -12.921875 
Q 43.5 -8.453125 43.5 1.125 
L 43.5 8.109375 
Q 40.875 3.21875 36.796875 0.890625 
Q 32.71875 -1.421875 26.703125 -1.421875 
Q 17.140625 -1.421875 11.0625 6.171875 
Q 4.984375 13.765625 4.984375 25.984375 
Q 4.984375 38.1875 11.03125 45.75 
Q 17.09375 53.328125 26.703125 53.328125 
Q 32.71875 53.328125 36.796875 51 
Q 40.875 48.6875 43.5 43.796875 
L 43.5 51.90625 
L 61.078125 51.90625 
L 61.078125 46.6875 
z
M 43.5 28.515625 
Q 43.5 37.84375 39.90625 42.765625 
Q 36.328125 47.703125 29.5 47.703125 
Q 22.5625 47.703125 19.015625 42.234375 
Q 15.484375 36.765625 15.484375 25.984375 
Q 15.484375 15.234375 19.015625 9.71875 
Q 22.5625 4.203125 29.5 4.203125 
Q 36.328125 4.203125 39.90625 9.109375 
Q 43.5 14.015625 43.5 23.390625 
z
" id="DejaVuSerif-103"/>
      <path id="DejaVuSerif-32"/>
      <path d="M 10.890625 6 
Q 11.859375 3.21875 14.5 1.796875 
Q 17.140625 0.390625 20.21875 0.390625 
Q 23.34375 0.390625 26.25 2.5625 
Q 29.15625 4.734375 31.171875 8 
Q 33.203125 11.28125 33.984375 14.5 
L 45.796875 61.8125 
Q 45.90625 62.203125 45.921875 62.390625 
Q 45.953125 62.59375 46 62.796875 
Q 46 63.875 45.21875 64.109375 
Q 42.578125 64.796875 34.515625 64.796875 
Q 33.5 64.796875 33.5 66.109375 
Q 33.6875 66.890625 33.8125 67.328125 
Q 33.9375 67.78125 34.25 68.046875 
Q 34.578125 68.3125 35.203125 68.3125 
L 62.3125 68.3125 
Q 63.28125 68.3125 63.28125 67 
Q 62.890625 64.796875 62.015625 64.796875 
Q 58.5 64.796875 56.6875 64.25 
Q 54.890625 63.71875 54.203125 61.375 
L 42.390625 14.109375 
Q 41.265625 9.46875 37.8125 5.734375 
Q 34.375 2 29.640625 -0.09375 
Q 24.90625 -2.203125 20.125 -2.203125 
Q 14.84375 -2.203125 10.859375 0.71875 
Q 6.890625 3.65625 6.890625 8.6875 
Q 6.890625 12.015625 8.6875 14.40625 
Q 10.5 16.796875 13.8125 16.796875 
Q 15.71875 16.796875 17.015625 15.625 
Q 18.3125 14.453125 18.3125 12.59375 
Q 18.3125 9.90625 16.3125 7.90625 
Q 14.3125 5.90625 11.625 5.90625 
Q 11.078125 5.90625 10.890625 6 
z
" id="Cmmi10-74"/>
      <path d="M 5.609375 -23 
Q 5.609375 -22.703125 5.71875 -22.609375 
L 40.484375 73.78125 
Q 40.671875 74.359375 41.15625 74.671875 
Q 41.65625 75 42.28125 75 
Q 43.171875 75 43.71875 74.453125 
Q 44.28125 73.921875 44.28125 73 
L 44.28125 72.609375 
L 9.515625 -23.78125 
Q 8.9375 -25 7.625 -25 
Q 6.78125 -25 6.1875 -24.40625 
Q 5.609375 -23.828125 5.609375 -23 
z
" id="Cmmi10-61"/>
      <path d="M 14.703125 13.921875 
Q 14.703125 10.25 16.140625 7.375 
Q 17.578125 4.5 20.3125 2.90625 
Q 23.046875 1.3125 26.703125 1.3125 
Q 31 1.3125 35.078125 3.0625 
Q 39.15625 4.828125 42.421875 7.953125 
Q 45.703125 11.078125 48.015625 15.078125 
Q 50.34375 19.09375 51.3125 23 
L 60.296875 59.078125 
Q 60.5 60.15625 60.5 60.59375 
Q 60.5 64.796875 52.78125 64.796875 
Q 51.8125 64.796875 51.8125 66.109375 
Q 52.15625 67.390625 52.34375 67.84375 
Q 52.546875 68.3125 53.515625 68.3125 
L 75.203125 68.3125 
Q 75.640625 68.3125 75.921875 67.875 
Q 76.21875 67.4375 76.21875 67 
Q 76.21875 66.9375 76.015625 66.234375 
Q 75.828125 65.53125 75.5625 65.15625 
Q 75.296875 64.796875 74.90625 64.796875 
Q 65.328125 64.796875 63.8125 58.6875 
L 54.78125 22.609375 
Q 53.65625 17.921875 51 13.5 
Q 48.34375 9.078125 44.453125 5.484375 
Q 40.578125 1.90625 35.90625 -0.140625 
Q 31.25 -2.203125 26.421875 -2.203125 
Q 20.90625 -2.203125 16.328125 0.21875 
Q 11.765625 2.640625 9.171875 6.984375 
Q 6.59375 11.328125 6.59375 17 
Q 6.59375 20.265625 7.328125 23 
L 17 61.8125 
Q 17.1875 62.796875 17.1875 63.1875 
Q 17.1875 64.265625 16.015625 64.40625 
Q 14.109375 64.796875 8.796875 64.796875 
Q 7.8125 64.796875 7.8125 66.109375 
Q 8.15625 67.390625 8.34375 67.84375 
Q 8.546875 68.3125 9.515625 68.3125 
L 36.375 68.3125 
Q 37.40625 68.3125 37.40625 67 
Q 37.359375 66.75 37.203125 66.15625 
Q 37.0625 65.578125 36.8125 65.1875 
Q 36.578125 64.796875 36.078125 64.796875 
Q 29.984375 64.796875 27.59375 64.109375 
Q 26.265625 63.625 25.6875 61.375 
L 16.015625 22.609375 
Q 14.703125 17.328125 14.703125 13.921875 
z
" id="Cmmi10-85"/>
     </defs>
     <g transform="translate(170.788125 306.150125)scale(0.16 -0.16)">
      <use transform="translate(0 0.015625)" xlink:href="#DejaVuSerif-84"/>
      <use transform="translate(66.699219 0.015625)" xlink:href="#DejaVuSerif-117"/>
      <use transform="translate(131.103516 0.015625)" xlink:href="#DejaVuSerif-110"/>
      <use transform="translate(195.507812 0.015625)" xlink:href="#DejaVuSerif-110"/>
      <use transform="translate(259.912109 0.015625)" xlink:href="#DejaVuSerif-101"/>
      <use transform="translate(319.091797 0.015625)" xlink:href="#DejaVuSerif-108"/>
      <use transform="translate(351.074219 0.015625)" xlink:href="#DejaVuSerif-105"/>
      <use transform="translate(383.056641 0.015625)" xlink:href="#DejaVuSerif-110"/>
      <use transform="translate(447.460938 0.015625)" xlink:href="#DejaVuSerif-103"/>
      <use transform="translate(511.474609 0.015625)" xlink:href="#DejaVuSerif-32"/>
      <use transform="translate(543.261719 0.015625)" xlink:href="#Cmmi10-74"/>
      <use transform="translate(598.681641 0.015625)" xlink:href="#Cmmi10-61"/>
      <use transform="translate(648.681641 0.015625)" xlink:href="#Cmmi10-85"/>
     </g>
    </g>
   </g>
   <g id="matplotlib.axis_2">
    <g id="ytick_1">
     <g id="line2d_6">
      <defs>
       <path d="M 0 0 
L -3.5 0 
" id="m53c3159e04" style="stroke:#000000;stroke-width:0.8;"/>
      </defs>
      <g>
       <use style="stroke:#000000;stroke-width:0.8;" x="49.588125" xlink:href="#m53c3159e04" y="258.427452"/>
      </g>
     </g>
     <g id="text_7">
      <!-- 0.0 -->
      <g transform="translate(26.685 262.226671)scale(0.1 -0.1)">
       <use xlink:href="#DejaVuSerif-48"/>
       <use x="63.623047" xlink:href="#DejaVuSerif-46"/>
       <use x="95.410156" xlink:href="#DejaVuSerif-48"/>
      </g>
     </g>
    </g>
    <g id="ytick_2">
     <g id="line2d_7">
      <g>
       <use style="stroke:#000000;stroke-width:0.8;" x="49.588125" xlink:href="#m53c3159e04" y="211.158871"/>
      </g>
     </g>
     <g id="text_8">
      <!-- 0.2 -->
      <g transform="translate(26.685 214.95809)scale(0.1 -0.1)">
       <use xlink:href="#DejaVuSerif-48"/>
       <use x="63.623047" xlink:href="#DejaVuSerif-46"/>
       <use x="95.410156" xlink:href="#DejaVuSerif-50"/>
      </g>
     </g>
    </g>
    <g id="ytick_3">
     <g id="line2d_8">
      <g>
       <use style="stroke:#000000;stroke-width:0.8;" x="49.588125" xlink:href="#m53c3159e04" y="163.89029"/>
      </g>
     </g>
     <g id="text_9">
      <!-- 0.4 -->
      <g transform="translate(26.685 167.689509)scale(0.1 -0.1)">
       <use xlink:href="#DejaVuSerif-48"/>
       <use x="63.623047" xlink:href="#DejaVuSerif-46"/>
       <use x="95.410156" xlink:href="#DejaVuSerif-52"/>
      </g>
     </g>
    </g>
    <g id="ytick_4">
     <g id="line2d_9">
      <g>
       <use style="stroke:#000000;stroke-width:0.8;" x="49.588125" xlink:href="#m53c3159e04" y="116.62171"/>
      </g>
     </g>
     <g id="text_10">
      <!-- 0.6 -->
      <defs>
       <path d="M 32.71875 3.421875 
Q 39.59375 3.421875 43.296875 8.46875 
Q 47.015625 13.53125 47.015625 23 
Q 47.015625 32.46875 43.296875 37.515625 
Q 39.59375 42.578125 32.71875 42.578125 
Q 25.734375 42.578125 22.0625 37.6875 
Q 18.40625 32.8125 18.40625 23.578125 
Q 18.40625 13.875 22.109375 8.640625 
Q 25.828125 3.421875 32.71875 3.421875 
z
M 16.796875 40.140625 
Q 20.125 43.796875 24.3125 45.59375 
Q 28.515625 47.40625 33.796875 47.40625 
Q 44.671875 47.40625 51 40.859375 
Q 57.328125 34.328125 57.328125 23 
Q 57.328125 11.921875 50.515625 5.25 
Q 43.703125 -1.421875 32.328125 -1.421875 
Q 19.96875 -1.421875 13.328125 7.78125 
Q 6.6875 17 6.6875 34.078125 
Q 6.6875 53.21875 14.546875 63.71875 
Q 22.40625 74.21875 36.71875 74.21875 
Q 40.578125 74.21875 44.828125 73.484375 
Q 49.078125 72.75 53.515625 71.296875 
L 53.515625 59.28125 
L 48 59.28125 
Q 47.40625 64.203125 44.234375 66.796875 
Q 41.0625 69.390625 35.6875 69.390625 
Q 26.21875 69.390625 21.578125 62.203125 
Q 16.9375 55.03125 16.796875 40.140625 
z
" id="DejaVuSerif-54"/>
      </defs>
      <g transform="translate(26.685 120.420928)scale(0.1 -0.1)">
       <use xlink:href="#DejaVuSerif-48"/>
       <use x="63.623047" xlink:href="#DejaVuSerif-46"/>
       <use x="95.410156" xlink:href="#DejaVuSerif-54"/>
      </g>
     </g>
    </g>
    <g id="ytick_5">
     <g id="line2d_10">
      <g>
       <use style="stroke:#000000;stroke-width:0.8;" x="49.588125" xlink:href="#m53c3159e04" y="69.353129"/>
      </g>
     </g>
     <g id="text_11">
      <!-- 0.8 -->
      <defs>
       <path d="M 46.578125 19.921875 
Q 46.578125 27.734375 42.6875 32.046875 
Q 38.8125 36.375 31.78125 36.375 
Q 24.75 36.375 20.875 32.046875 
Q 17 27.734375 17 19.921875 
Q 17 12.0625 20.875 7.734375 
Q 24.75 3.421875 31.78125 3.421875 
Q 38.8125 3.421875 42.6875 7.734375 
Q 46.578125 12.0625 46.578125 19.921875 
z
M 44.578125 55.328125 
Q 44.578125 61.96875 41.203125 65.671875 
Q 37.84375 69.390625 31.78125 69.390625 
Q 25.78125 69.390625 22.390625 65.671875 
Q 19 61.96875 19 55.328125 
Q 19 48.640625 22.390625 44.921875 
Q 25.78125 41.21875 31.78125 41.21875 
Q 37.84375 41.21875 41.203125 44.921875 
Q 44.578125 48.640625 44.578125 55.328125 
z
M 39.3125 38.8125 
Q 47.609375 37.703125 52.25 32.6875 
Q 56.890625 27.6875 56.890625 19.921875 
Q 56.890625 9.671875 50.390625 4.125 
Q 43.890625 -1.421875 31.78125 -1.421875 
Q 19.734375 -1.421875 13.203125 4.125 
Q 6.6875 9.671875 6.6875 19.921875 
Q 6.6875 27.6875 11.328125 32.6875 
Q 15.96875 37.703125 24.3125 38.8125 
Q 16.9375 40.140625 13 44.40625 
Q 9.078125 48.6875 9.078125 55.328125 
Q 9.078125 64.109375 15.125 69.15625 
Q 21.1875 74.21875 31.78125 74.21875 
Q 42.390625 74.21875 48.4375 69.15625 
Q 54.5 64.109375 54.5 55.328125 
Q 54.5 48.6875 50.5625 44.40625 
Q 46.625 40.140625 39.3125 38.8125 
z
" id="DejaVuSerif-56"/>
      </defs>
      <g transform="translate(26.685 73.152348)scale(0.1 -0.1)">
       <use xlink:href="#DejaVuSerif-48"/>
       <use x="63.623047" xlink:href="#DejaVuSerif-46"/>
       <use x="95.410156" xlink:href="#DejaVuSerif-56"/>
      </g>
     </g>
    </g>
    <g id="ytick_6">
     <g id="line2d_11">
      <g>
       <use style="stroke:#000000;stroke-width:0.8;" x="49.588125" xlink:href="#m53c3159e04" y="22.084548"/>
      </g>
     </g>
     <g id="text_12">
      <!-- 1.0 -->
      <g transform="translate(26.685 25.883767)scale(0.1 -0.1)">
       <use xlink:href="#DejaVuSerif-49"/>
       <use x="63.623047" xlink:href="#DejaVuSerif-46"/>
       <use x="95.410156" xlink:href="#DejaVuSerif-48"/>
      </g>
     </g>
    </g>
    <g id="text_13">
     <!-- Persistent Measures (pnorm) -->
     <defs>
      <path d="M 24.703125 37.109375 
L 37.59375 37.109375 
Q 44.875 37.109375 48.671875 41.03125 
Q 52.484375 44.96875 52.484375 52.390625 
Q 52.484375 59.859375 48.671875 63.765625 
Q 44.875 67.671875 37.59375 67.671875 
L 24.703125 67.671875 
z
M 5.515625 0 
L 5.515625 5.171875 
L 14.796875 5.171875 
L 14.796875 67.671875 
L 5.515625 67.671875 
L 5.515625 72.90625 
L 39.984375 72.90625 
Q 50.921875 72.90625 57.3125 67.359375 
Q 63.71875 61.8125 63.71875 52.390625 
Q 63.71875 43.015625 57.3125 37.453125 
Q 50.921875 31.890625 39.984375 31.890625 
L 24.703125 31.890625 
L 24.703125 5.171875 
L 35.984375 5.171875 
L 35.984375 0 
z
" id="DejaVuSerif-80"/>
      <path d="M 47.796875 52 
L 47.796875 39.015625 
L 42.625 39.015625 
Q 42.390625 42.875 40.484375 44.78125 
Q 38.578125 46.6875 34.90625 46.6875 
Q 28.265625 46.6875 24.71875 42.09375 
Q 21.1875 37.5 21.1875 28.90625 
L 21.1875 5.171875 
L 31.59375 5.171875 
L 31.59375 0 
L 4.109375 0 
L 4.109375 5.171875 
L 12.203125 5.171875 
L 12.203125 46.78125 
L 3.609375 46.78125 
L 3.609375 51.90625 
L 21.1875 51.90625 
L 21.1875 42.671875 
Q 23.828125 48.09375 27.96875 50.703125 
Q 32.125 53.328125 38.09375 53.328125 
Q 40.28125 53.328125 42.703125 52.984375 
Q 45.125 52.640625 47.796875 52 
z
" id="DejaVuSerif-114"/>
      <path d="M 5.609375 2.875 
L 5.609375 14.984375 
L 10.796875 14.984375 
Q 10.984375 9.1875 14.421875 6.296875 
Q 17.875 3.421875 24.609375 3.421875 
Q 30.671875 3.421875 33.84375 5.6875 
Q 37.015625 7.953125 37.015625 12.3125 
Q 37.015625 15.71875 34.6875 17.8125 
Q 32.375 19.921875 24.90625 22.3125 
L 18.40625 24.515625 
Q 11.71875 26.65625 8.71875 29.875 
Q 5.71875 33.109375 5.71875 38.09375 
Q 5.71875 45.21875 10.9375 49.265625 
Q 16.15625 53.328125 25.390625 53.328125 
Q 29.5 53.328125 34.03125 52.25 
Q 38.578125 51.171875 43.40625 49.125 
L 43.40625 37.796875 
L 38.234375 37.796875 
Q 38.03125 42.828125 34.703125 45.65625 
Q 31.390625 48.484375 25.6875 48.484375 
Q 20.015625 48.484375 17.109375 46.484375 
Q 14.203125 44.484375 14.203125 40.484375 
Q 14.203125 37.203125 16.40625 35.21875 
Q 18.609375 33.25 25.203125 31.203125 
L 32.328125 29 
Q 39.703125 26.703125 42.9375 23.265625 
Q 46.1875 19.828125 46.1875 14.40625 
Q 46.1875 7.03125 40.546875 2.796875 
Q 34.90625 -1.421875 25 -1.421875 
Q 19.96875 -1.421875 15.1875 -0.34375 
Q 10.40625 0.734375 5.609375 2.875 
z
" id="DejaVuSerif-115"/>
      <path d="M 10.796875 46.6875 
L 2.875 46.6875 
L 2.875 51.90625 
L 10.796875 51.90625 
L 10.796875 68.015625 
L 19.828125 68.015625 
L 19.828125 51.90625 
L 36.71875 51.90625 
L 36.71875 46.6875 
L 19.828125 46.6875 
L 19.828125 13.71875 
Q 19.828125 7.125 21.09375 5.265625 
Q 22.359375 3.421875 25.78125 3.421875 
Q 29.296875 3.421875 30.90625 5.484375 
Q 32.515625 7.5625 32.625 12.203125 
L 39.40625 12.203125 
Q 39.015625 5.125 35.546875 1.84375 
Q 32.078125 -1.421875 25 -1.421875 
Q 17.234375 -1.421875 14.015625 2.015625 
Q 10.796875 5.46875 10.796875 13.71875 
z
" id="DejaVuSerif-116"/>
      <path d="M 5.515625 0 
L 5.515625 5.171875 
L 14.796875 5.171875 
L 14.796875 67.671875 
L 4.984375 67.671875 
L 4.984375 72.90625 
L 26.21875 72.90625 
L 51.8125 21 
L 77.390625 72.90625 
L 97.3125 72.90625 
L 97.3125 67.671875 
L 87.59375 67.671875 
L 87.59375 5.171875 
L 96.921875 5.171875 
L 96.921875 0 
L 68.40625 0 
L 68.40625 5.171875 
L 77.6875 5.171875 
L 77.6875 61.53125 
L 52.6875 10.6875 
L 45.796875 10.6875 
L 20.796875 61.53125 
L 20.796875 5.171875 
L 30.078125 5.171875 
L 30.078125 0 
z
" id="DejaVuSerif-77"/>
      <path d="M 39.796875 16.3125 
L 39.796875 27.296875 
L 28.21875 27.296875 
Q 21.53125 27.296875 18.25 24.40625 
Q 14.984375 21.53125 14.984375 15.578125 
Q 14.984375 10.15625 18.296875 6.984375 
Q 21.625 3.8125 27.296875 3.8125 
Q 32.90625 3.8125 36.34375 7.28125 
Q 39.796875 10.75 39.796875 16.3125 
z
M 48.78125 32.421875 
L 48.78125 5.171875 
L 56.78125 5.171875 
L 56.78125 0 
L 39.796875 0 
L 39.796875 5.609375 
Q 36.8125 2 32.90625 0.28125 
Q 29 -1.421875 23.78125 -1.421875 
Q 15.140625 -1.421875 10.0625 3.171875 
Q 4.984375 7.765625 4.984375 15.578125 
Q 4.984375 23.640625 10.796875 28.078125 
Q 16.609375 32.515625 27.203125 32.515625 
L 39.796875 32.515625 
L 39.796875 36.078125 
Q 39.796875 42 36.203125 45.234375 
Q 32.625 48.484375 26.125 48.484375 
Q 20.75 48.484375 17.578125 46.046875 
Q 14.40625 43.609375 13.625 38.8125 
L 8.984375 38.8125 
L 8.984375 49.3125 
Q 13.671875 51.3125 18.09375 52.3125 
Q 22.515625 53.328125 26.703125 53.328125 
Q 37.5 53.328125 43.140625 47.96875 
Q 48.78125 42.625 48.78125 32.421875 
z
" id="DejaVuSerif-97"/>
      <path d="M 31.890625 -15.578125 
Q 20.015625 -10.25 13.953125 1.296875 
Q 7.90625 12.84375 7.90625 30.171875 
Q 7.90625 47.5625 13.953125 59.109375 
Q 20.015625 70.65625 31.890625 75.984375 
L 31.890625 71.1875 
Q 24.359375 66.015625 21.09375 56.609375 
Q 17.828125 47.21875 17.828125 30.171875 
Q 17.828125 13.1875 21.09375 3.78125 
Q 24.359375 -5.609375 31.890625 -10.796875 
z
" id="DejaVuSerif-40"/>
      <path d="M 20.515625 28.515625 
L 20.515625 23.390625 
Q 20.515625 14.015625 24.09375 9.109375 
Q 27.6875 4.203125 34.515625 4.203125 
Q 41.40625 4.203125 44.9375 9.71875 
Q 48.484375 15.234375 48.484375 25.984375 
Q 48.484375 36.765625 44.9375 42.234375 
Q 41.40625 47.703125 34.515625 47.703125 
Q 27.6875 47.703125 24.09375 42.765625 
Q 20.515625 37.84375 20.515625 28.515625 
z
M 11.53125 46.6875 
L 2.875 46.6875 
L 2.875 51.90625 
L 20.515625 51.90625 
L 20.515625 43.796875 
Q 23.140625 48.6875 27.21875 51 
Q 31.296875 53.328125 37.3125 53.328125 
Q 46.875 53.328125 52.921875 45.75 
Q 58.984375 38.1875 58.984375 25.984375 
Q 58.984375 13.765625 52.921875 6.171875 
Q 46.875 -1.421875 37.3125 -1.421875 
Q 31.296875 -1.421875 27.21875 0.890625 
Q 23.140625 3.21875 20.515625 8.109375 
L 20.515625 -15.578125 
L 29 -15.578125 
L 29 -20.796875 
L 2.875 -20.796875 
L 2.875 -15.578125 
L 11.53125 -15.578125 
z
" id="DejaVuSerif-112"/>
      <path d="M 30.078125 3.421875 
Q 37.3125 3.421875 40.984375 9.125 
Q 44.671875 14.84375 44.671875 25.984375 
Q 44.671875 37.109375 40.984375 42.796875 
Q 37.3125 48.484375 30.078125 48.484375 
Q 22.859375 48.484375 19.171875 42.796875 
Q 15.484375 37.109375 15.484375 25.984375 
Q 15.484375 14.84375 19.1875 9.125 
Q 22.90625 3.421875 30.078125 3.421875 
z
M 30.078125 -1.421875 
Q 18.75 -1.421875 11.859375 6.078125 
Q 4.984375 13.578125 4.984375 25.984375 
Q 4.984375 38.375 11.84375 45.84375 
Q 18.703125 53.328125 30.078125 53.328125 
Q 41.453125 53.328125 48.3125 45.84375 
Q 55.171875 38.375 55.171875 25.984375 
Q 55.171875 13.578125 48.3125 6.078125 
Q 41.453125 -1.421875 30.078125 -1.421875 
z
" id="DejaVuSerif-111"/>
      <path d="M 51.8125 41.796875 
Q 54.390625 47.515625 58.421875 50.421875 
Q 62.453125 53.328125 67.828125 53.328125 
Q 75.984375 53.328125 79.984375 48.265625 
Q 83.984375 43.21875 83.984375 33.015625 
L 83.984375 5.171875 
L 92.09375 5.171875 
L 92.09375 0 
L 67.1875 0 
L 67.1875 5.171875 
L 75 5.171875 
L 75 31.984375 
Q 75 39.9375 72.65625 43.3125 
Q 70.3125 46.6875 64.890625 46.6875 
Q 58.890625 46.6875 55.734375 42.140625 
Q 52.59375 37.59375 52.59375 28.90625 
L 52.59375 5.171875 
L 60.40625 5.171875 
L 60.40625 0 
L 35.796875 0 
L 35.796875 5.171875 
L 43.609375 5.171875 
L 43.609375 32.328125 
Q 43.609375 40.09375 41.265625 43.390625 
Q 38.921875 46.6875 33.5 46.6875 
Q 27.484375 46.6875 24.328125 42.140625 
Q 21.1875 37.59375 21.1875 28.90625 
L 21.1875 5.171875 
L 29 5.171875 
L 29 0 
L 4.109375 0 
L 4.109375 5.171875 
L 12.203125 5.171875 
L 12.203125 46.78125 
L 3.609375 46.78125 
L 3.609375 51.90625 
L 21.1875 51.90625 
L 21.1875 42.671875 
Q 23.6875 47.859375 27.53125 50.59375 
Q 31.390625 53.328125 36.28125 53.328125 
Q 42.328125 53.328125 46.375 50.3125 
Q 50.4375 47.3125 51.8125 41.796875 
z
" id="DejaVuSerif-109"/>
      <path d="M 7.078125 -15.578125 
L 7.078125 -10.796875 
Q 14.59375 -5.609375 17.890625 3.78125 
Q 21.1875 13.1875 21.1875 30.171875 
Q 21.1875 47.21875 17.890625 56.609375 
Q 14.59375 66.015625 7.078125 71.1875 
L 7.078125 75.984375 
Q 19 70.65625 25.046875 59.109375 
Q 31.109375 47.5625 31.109375 30.171875 
Q 31.109375 12.84375 25.046875 1.296875 
Q 19 -10.25 7.078125 -15.578125 
z
" id="DejaVuSerif-41"/>
     </defs>
     <g transform="translate(19.3575 258.7235)rotate(-90)scale(0.16 -0.16)">
      <use xlink:href="#DejaVuSerif-80"/>
      <use x="67.222656" xlink:href="#DejaVuSerif-101"/>
      <use x="126.402344" xlink:href="#DejaVuSerif-114"/>
      <use x="174.205078" xlink:href="#DejaVuSerif-115"/>
      <use x="225.523438" xlink:href="#DejaVuSerif-105"/>
      <use x="257.505859" xlink:href="#DejaVuSerif-115"/>
      <use x="308.824219" xlink:href="#DejaVuSerif-116"/>
      <use x="349.009766" xlink:href="#DejaVuSerif-101"/>
      <use x="408.189453" xlink:href="#DejaVuSerif-110"/>
      <use x="472.59375" xlink:href="#DejaVuSerif-116"/>
      <use x="512.779297" xlink:href="#DejaVuSerif-32"/>
      <use x="544.566406" xlink:href="#DejaVuSerif-77"/>
      <use x="646.958984" xlink:href="#DejaVuSerif-101"/>
      <use x="706.138672" xlink:href="#DejaVuSerif-97"/>
      <use x="765.757812" xlink:href="#DejaVuSerif-115"/>
      <use x="817.076172" xlink:href="#DejaVuSerif-117"/>
      <use x="881.480469" xlink:href="#DejaVuSerif-114"/>
      <use x="929.283203" xlink:href="#DejaVuSerif-101"/>
      <use x="988.462891" xlink:href="#DejaVuSerif-115"/>
      <use x="1039.78125" xlink:href="#DejaVuSerif-32"/>
      <use x="1071.568359" xlink:href="#DejaVuSerif-40"/>
      <use x="1110.582031" xlink:href="#DejaVuSerif-112"/>
      <use x="1174.595703" xlink:href="#DejaVuSerif-110"/>
      <use x="1239" xlink:href="#DejaVuSerif-111"/>
      <use x="1299.205078" xlink:href="#DejaVuSerif-114"/>
      <use x="1347.007812" xlink:href="#DejaVuSerif-109"/>
      <use x="1441.832031" xlink:href="#DejaVuSerif-41"/>
     </g>
    </g>
   </g>
   <g id="patch_3">
    <path d="M 49.588125 273.312 
L 49.588125 7.2 
" style="fill:none;stroke:#000000;stroke-linecap:square;stroke-linejoin:miter;stroke-width:0.8;"/>
   </g>
   <g id="patch_4">
    <path d="M 406.708125 273.312 
L 406.708125 7.2 
" style="fill:none;stroke:#000000;stroke-linecap:square;stroke-linejoin:miter;stroke-width:0.8;"/>
   </g>
   <g id="patch_5">
    <path d="M 49.588125 273.312 
L 406.708125 273.312 
" style="fill:none;stroke:#000000;stroke-linecap:square;stroke-linejoin:miter;stroke-width:0.8;"/>
   </g>
   <g id="patch_6">
    <path d="M 49.588125 7.2 
L 406.708125 7.2 
" style="fill:none;stroke:#000000;stroke-linecap:square;stroke-linejoin:miter;stroke-width:0.8;"/>
   </g>
   <g id="legend_1">
    <g id="patch_7">
     <path d="M 57.988125 104.86875 
L 123.6825 104.86875 
Q 126.0825 104.86875 126.0825 102.46875 
L 126.0825 15.6 
Q 126.0825 13.2 123.6825 13.2 
L 57.988125 13.2 
Q 55.588125 13.2 55.588125 15.6 
L 55.588125 102.46875 
Q 55.588125 104.86875 57.988125 104.86875 
z
" style="fill:#ffffff;opacity:0.8;stroke:#cccccc;stroke-linejoin:miter;"/>
    </g>
    <g id="PathCollection_6">
     <g>
      <use style="fill:#0072b2;fill-opacity:0.7;stroke:#000000;stroke-opacity:0.7;" x="72.388125" xlink:href="#mab81f86b9c" y="23.968125"/>
     </g>
    </g>
    <g id="text_14">
     <!-- L-20 -->
     <defs>
      <path d="M 5.515625 0 
L 5.515625 5.171875 
L 14.796875 5.171875 
L 14.796875 67.671875 
L 5.515625 67.671875 
L 5.515625 72.90625 
L 33.984375 72.90625 
L 33.984375 67.671875 
L 24.703125 67.671875 
L 24.703125 6 
L 58.015625 6 
L 58.015625 18.21875 
L 64.015625 18.21875 
L 64.015625 0 
z
" id="DejaVuSerif-76"/>
      <path d="M 4.390625 30.609375 
L 29.390625 30.609375 
L 29.390625 23 
L 4.390625 23 
z
" id="DejaVuSerif-45"/>
     </defs>
     <g transform="translate(93.988125 27.118125)scale(0.12 -0.12)">
      <use xlink:href="#DejaVuSerif-76"/>
      <use x="66.40625" xlink:href="#DejaVuSerif-45"/>
      <use x="100.195312" xlink:href="#DejaVuSerif-50"/>
      <use x="163.818359" xlink:href="#DejaVuSerif-48"/>
     </g>
    </g>
    <g id="PathCollection_7">
     <g>
      <use style="fill:#009e73;fill-opacity:0.7;stroke:#000000;stroke-opacity:0.7;" x="72.388125" xlink:href="#me615fdbe15" y="41.581875"/>
     </g>
    </g>
    <g id="text_15">
     <!-- L-30 -->
     <g transform="translate(93.988125 44.731875)scale(0.12 -0.12)">
      <use xlink:href="#DejaVuSerif-76"/>
      <use x="66.40625" xlink:href="#DejaVuSerif-45"/>
      <use x="100.195312" xlink:href="#DejaVuSerif-51"/>
      <use x="163.818359" xlink:href="#DejaVuSerif-48"/>
     </g>
    </g>
    <g id="PathCollection_8">
     <g>
      <use style="fill:#d55e00;fill-opacity:0.7;stroke:#000000;stroke-opacity:0.7;" x="72.388125" xlink:href="#m9ddb8d80f0" y="59.195625"/>
     </g>
    </g>
    <g id="text_16">
     <!-- L-40 -->
     <g transform="translate(93.988125 62.345625)scale(0.12 -0.12)">
      <use xlink:href="#DejaVuSerif-76"/>
      <use x="66.40625" xlink:href="#DejaVuSerif-45"/>
      <use x="100.195312" xlink:href="#DejaVuSerif-52"/>
      <use x="163.818359" xlink:href="#DejaVuSerif-48"/>
     </g>
    </g>
    <g id="PathCollection_9">
     <g>
      <use style="fill:#cc79a7;fill-opacity:0.7;stroke:#000000;stroke-opacity:0.7;" x="72.388125" xlink:href="#m7267c3c2df" y="76.809375"/>
     </g>
    </g>
    <g id="text_17">
     <!-- L-50 -->
     <defs>
      <path d="M 50.296875 72.90625 
L 50.296875 64.890625 
L 16.890625 64.890625 
L 16.890625 44 
Q 19.4375 45.75 22.828125 46.625 
Q 26.21875 47.515625 30.421875 47.515625 
Q 42.234375 47.515625 49.0625 40.96875 
Q 55.90625 34.421875 55.90625 23.09375 
Q 55.90625 11.53125 49 5.046875 
Q 42.09375 -1.421875 29.59375 -1.421875 
Q 24.5625 -1.421875 19.28125 -0.1875 
Q 14.015625 1.03125 8.5 3.515625 
L 8.5 17.671875 
L 14.015625 17.671875 
Q 14.453125 10.75 18.421875 7.078125 
Q 22.40625 3.421875 29.59375 3.421875 
Q 37.3125 3.421875 41.453125 8.5 
Q 45.609375 13.578125 45.609375 23.09375 
Q 45.609375 32.5625 41.484375 37.609375 
Q 37.359375 42.671875 29.59375 42.671875 
Q 25.203125 42.671875 21.84375 41.109375 
Q 18.5 39.546875 15.921875 36.28125 
L 11.71875 36.28125 
L 11.71875 72.90625 
z
" id="DejaVuSerif-53"/>
     </defs>
     <g transform="translate(93.988125 79.959375)scale(0.12 -0.12)">
      <use xlink:href="#DejaVuSerif-76"/>
      <use x="66.40625" xlink:href="#DejaVuSerif-45"/>
      <use x="100.195312" xlink:href="#DejaVuSerif-53"/>
      <use x="163.818359" xlink:href="#DejaVuSerif-48"/>
     </g>
    </g>
    <g id="PathCollection_10">
     <g>
      <use style="fill:#f0e442;fill-opacity:0.7;stroke:#000000;stroke-opacity:0.7;" x="72.388125" xlink:href="#m3928e9bcfa" y="94.423125"/>
     </g>
    </g>
    <g id="text_18">
     <!-- L-60 -->
     <g transform="translate(93.988125 97.573125)scale(0.12 -0.12)">
      <use xlink:href="#DejaVuSerif-76"/>
      <use x="66.40625" xlink:href="#DejaVuSerif-45"/>
      <use x="100.195312" xlink:href="#DejaVuSerif-54"/>
      <use x="163.818359" xlink:href="#DejaVuSerif-48"/>
     </g>
    </g>
   </g>
  </g>
 </g>
 <defs>
  <clipPath id="pb6fca4eb00">
   <rect height="266.112" width="357.12" x="49.588125" y="7.2"/>
  </clipPath>
 </defs>
</svg>
