<?xml version="1.0" encoding="utf-8" standalone="no"?>
<!DOCTYPE svg PUBLIC "-//W3C//DTD SVG 1.1//EN"
  "http://www.w3.org/Graphics/SVG/1.1/DTD/svg11.dtd">
<!-- Created with matplotlib (https://matplotlib.org/) -->
<svg height="317.350125pt" version="1.1" viewBox="0 0 414.135625 317.350125" width="414.135625pt" xmlns="http://www.w3.org/2000/svg" xmlns:xlink="http://www.w3.org/1999/xlink">
 <defs>
  <style type="text/css">
*{stroke-linecap:butt;stroke-linejoin:round;}
  </style>
 </defs>
 <g id="figure_1">
  <g id="patch_1">
   <path d="M 0 317.350125 
L 414.135625 317.350125 
L 414.135625 0 
L 0 0 
z
" style="fill:#ffffff;"/>
  </g>
  <g id="axes_1">
   <g id="patch_2">
    <path d="M 49.815625 273.312 
L 406.935625 273.312 
L 406.935625 7.2 
L 49.815625 7.2 
z
" style="fill:#ffffff;"/>
   </g>
   <g id="PathCollection_1">
    <defs>
     <path d="M 0 3.872983 
C 1.027127 3.872983 2.012324 3.464901 2.738613 2.738613 
C 3.464901 2.012324 3.872983 1.027127 3.872983 0 
C 3.872983 -1.027127 3.464901 -2.012324 2.738613 -2.738613 
C 2.012324 -3.464901 1.027127 -3.872983 0 -3.872983 
C -1.027127 -3.872983 -2.012324 -3.464901 -2.738613 -2.738613 
C -3.464901 -2.012324 -3.872983 -1.027127 -3.872983 0 
C -3.872983 1.027127 -3.464901 2.012324 -2.738613 2.738613 
C -2.012324 3.464901 -1.027127 3.872983 0 3.872983 
z
" id="m093f5b985f" style="stroke:#000000;stroke-opacity:0.7;"/>
    </defs>
    <g clip-path="url(#p04e26d63f5)">
     <use style="fill:#0072b2;fill-opacity:0.7;stroke:#000000;stroke-opacity:0.7;" x="72.147825" xlink:href="#m093f5b985f" y="258.427452"/>
     <use style="fill:#0072b2;fill-opacity:0.7;stroke:#000000;stroke-opacity:0.7;" x="79.959215" xlink:href="#m093f5b985f" y="254.528894"/>
     <use style="fill:#0072b2;fill-opacity:0.7;stroke:#000000;stroke-opacity:0.7;" x="87.770605" xlink:href="#m093f5b985f" y="250.678821"/>
     <use style="fill:#0072b2;fill-opacity:0.7;stroke:#000000;stroke-opacity:0.7;" x="95.581995" xlink:href="#m093f5b985f" y="246.546932"/>
     <use style="fill:#0072b2;fill-opacity:0.7;stroke:#000000;stroke-opacity:0.7;" x="103.393385" xlink:href="#m093f5b985f" y="242.059413"/>
     <use style="fill:#0072b2;fill-opacity:0.7;stroke:#000000;stroke-opacity:0.7;" x="111.204775" xlink:href="#m093f5b985f" y="236.553665"/>
     <use style="fill:#0072b2;fill-opacity:0.7;stroke:#000000;stroke-opacity:0.7;" x="119.016165" xlink:href="#m093f5b985f" y="229.866266"/>
     <use style="fill:#0072b2;fill-opacity:0.7;stroke:#000000;stroke-opacity:0.7;" x="126.827555" xlink:href="#m093f5b985f" y="222.395668"/>
     <use style="fill:#0072b2;fill-opacity:0.7;stroke:#000000;stroke-opacity:0.7;" x="134.638945" xlink:href="#m093f5b985f" y="213.613364"/>
     <use style="fill:#0072b2;fill-opacity:0.7;stroke:#000000;stroke-opacity:0.7;" x="142.450335" xlink:href="#m093f5b985f" y="204.250324"/>
     <use style="fill:#0072b2;fill-opacity:0.7;stroke:#000000;stroke-opacity:0.7;" x="150.261725" xlink:href="#m093f5b985f" y="194.449053"/>
     <use style="fill:#0072b2;fill-opacity:0.7;stroke:#000000;stroke-opacity:0.7;" x="158.073115" xlink:href="#m093f5b985f" y="184.087531"/>
     <use style="fill:#0072b2;fill-opacity:0.7;stroke:#000000;stroke-opacity:0.7;" x="165.884505" xlink:href="#m093f5b985f" y="173.13597"/>
     <use style="fill:#0072b2;fill-opacity:0.7;stroke:#000000;stroke-opacity:0.7;" x="173.695895" xlink:href="#m093f5b985f" y="162.072647"/>
     <use style="fill:#0072b2;fill-opacity:0.7;stroke:#000000;stroke-opacity:0.7;" x="181.507285" xlink:href="#m093f5b985f" y="151.098153"/>
     <use style="fill:#0072b2;fill-opacity:0.7;stroke:#000000;stroke-opacity:0.7;" x="189.318675" xlink:href="#m093f5b985f" y="140.426182"/>
     <use style="fill:#0072b2;fill-opacity:0.7;stroke:#000000;stroke-opacity:0.7;" x="197.130065" xlink:href="#m093f5b985f" y="130.271587"/>
     <use style="fill:#0072b2;fill-opacity:0.7;stroke:#000000;stroke-opacity:0.7;" x="204.941455" xlink:href="#m093f5b985f" y="120.836319"/>
     <use style="fill:#0072b2;fill-opacity:0.7;stroke:#000000;stroke-opacity:0.7;" x="212.752845" xlink:href="#m093f5b985f" y="111.399593"/>
     <use style="fill:#0072b2;fill-opacity:0.7;stroke:#000000;stroke-opacity:0.7;" x="220.564235" xlink:href="#m093f5b985f" y="101.782261"/>
     <use style="fill:#0072b2;fill-opacity:0.7;stroke:#000000;stroke-opacity:0.7;" x="228.375625" xlink:href="#m093f5b985f" y="92.888123"/>
     <use style="fill:#0072b2;fill-opacity:0.7;stroke:#000000;stroke-opacity:0.7;" x="236.187015" xlink:href="#m093f5b985f" y="84.815504"/>
     <use style="fill:#0072b2;fill-opacity:0.7;stroke:#000000;stroke-opacity:0.7;" x="243.998405" xlink:href="#m093f5b985f" y="77.633148"/>
     <use style="fill:#0072b2;fill-opacity:0.7;stroke:#000000;stroke-opacity:0.7;" x="251.809795" xlink:href="#m093f5b985f" y="71.377297"/>
     <use style="fill:#0072b2;fill-opacity:0.7;stroke:#000000;stroke-opacity:0.7;" x="259.621185" xlink:href="#m093f5b985f" y="66.051962"/>
     <use style="fill:#0072b2;fill-opacity:0.7;stroke:#000000;stroke-opacity:0.7;" x="267.432575" xlink:href="#m093f5b985f" y="61.632168"/>
     <use style="fill:#0072b2;fill-opacity:0.7;stroke:#000000;stroke-opacity:0.7;" x="275.243965" xlink:href="#m093f5b985f" y="58.06925"/>
     <use style="fill:#0072b2;fill-opacity:0.7;stroke:#000000;stroke-opacity:0.7;" x="283.055355" xlink:href="#m093f5b985f" y="55.297443"/>
     <use style="fill:#0072b2;fill-opacity:0.7;stroke:#000000;stroke-opacity:0.7;" x="290.866745" xlink:href="#m093f5b985f" y="53.240284"/>
     <use style="fill:#0072b2;fill-opacity:0.7;stroke:#000000;stroke-opacity:0.7;" x="298.678135" xlink:href="#m093f5b985f" y="51.816725"/>
     <use style="fill:#0072b2;fill-opacity:0.7;stroke:#000000;stroke-opacity:0.7;" x="306.489525" xlink:href="#m093f5b985f" y="50.945667"/>
     <use style="fill:#0072b2;fill-opacity:0.7;stroke:#000000;stroke-opacity:0.7;" x="314.300915" xlink:href="#m093f5b985f" y="48.122043"/>
     <use style="fill:#0072b2;fill-opacity:0.7;stroke:#000000;stroke-opacity:0.7;" x="322.112305" xlink:href="#m093f5b985f" y="44.725817"/>
     <use style="fill:#0072b2;fill-opacity:0.7;stroke:#000000;stroke-opacity:0.7;" x="329.923695" xlink:href="#m093f5b985f" y="41.749336"/>
     <use style="fill:#0072b2;fill-opacity:0.7;stroke:#000000;stroke-opacity:0.7;" x="337.735085" xlink:href="#m093f5b985f" y="39.150069"/>
     <use style="fill:#0072b2;fill-opacity:0.7;stroke:#000000;stroke-opacity:0.7;" x="345.546475" xlink:href="#m093f5b985f" y="36.88858"/>
     <use style="fill:#0072b2;fill-opacity:0.7;stroke:#000000;stroke-opacity:0.7;" x="353.357865" xlink:href="#m093f5b985f" y="33.271058"/>
     <use style="fill:#0072b2;fill-opacity:0.7;stroke:#000000;stroke-opacity:0.7;" x="361.169255" xlink:href="#m093f5b985f" y="29.902312"/>
     <use style="fill:#0072b2;fill-opacity:0.7;stroke:#000000;stroke-opacity:0.7;" x="368.980645" xlink:href="#m093f5b985f" y="26.938233"/>
     <use style="fill:#0072b2;fill-opacity:0.7;stroke:#000000;stroke-opacity:0.7;" x="376.792035" xlink:href="#m093f5b985f" y="24.343088"/>
     <use style="fill:#0072b2;fill-opacity:0.7;stroke:#000000;stroke-opacity:0.7;" x="384.603425" xlink:href="#m093f5b985f" y="22.084548"/>
    </g>
   </g>
   <g id="PathCollection_2">
    <defs>
     <path d="M 0 3.872983 
C 1.027127 3.872983 2.012324 3.464901 2.738613 2.738613 
C 3.464901 2.012324 3.872983 1.027127 3.872983 0 
C 3.872983 -1.027127 3.464901 -2.012324 2.738613 -2.738613 
C 2.012324 -3.464901 1.027127 -3.872983 0 -3.872983 
C -1.027127 -3.872983 -2.012324 -3.464901 -2.738613 -2.738613 
C -3.464901 -2.012324 -3.872983 -1.027127 -3.872983 0 
C -3.872983 1.027127 -3.464901 2.012324 -2.738613 2.738613 
C -2.012324 3.464901 -1.027127 3.872983 0 3.872983 
z
" id="m4cefd1ed5e" style="stroke:#000000;stroke-opacity:0.7;"/>
    </defs>
    <g clip-path="url(#p04e26d63f5)">
     <use style="fill:#009e73;fill-opacity:0.7;stroke:#000000;stroke-opacity:0.7;" x="72.147825" xlink:href="#m4cefd1ed5e" y="258.427452"/>
     <use style="fill:#009e73;fill-opacity:0.7;stroke:#000000;stroke-opacity:0.7;" x="79.959215" xlink:href="#m4cefd1ed5e" y="254.403453"/>
     <use style="fill:#009e73;fill-opacity:0.7;stroke:#000000;stroke-opacity:0.7;" x="87.770605" xlink:href="#m4cefd1ed5e" y="250.245221"/>
     <use style="fill:#009e73;fill-opacity:0.7;stroke:#000000;stroke-opacity:0.7;" x="95.581995" xlink:href="#m4cefd1ed5e" y="245.649104"/>
     <use style="fill:#009e73;fill-opacity:0.7;stroke:#000000;stroke-opacity:0.7;" x="103.393385" xlink:href="#m4cefd1ed5e" y="240.57844"/>
     <use style="fill:#009e73;fill-opacity:0.7;stroke:#000000;stroke-opacity:0.7;" x="111.204775" xlink:href="#m4cefd1ed5e" y="235.080626"/>
     <use style="fill:#009e73;fill-opacity:0.7;stroke:#000000;stroke-opacity:0.7;" x="119.016165" xlink:href="#m4cefd1ed5e" y="229.233426"/>
     <use style="fill:#009e73;fill-opacity:0.7;stroke:#000000;stroke-opacity:0.7;" x="126.827555" xlink:href="#m4cefd1ed5e" y="223.135815"/>
     <use style="fill:#009e73;fill-opacity:0.7;stroke:#000000;stroke-opacity:0.7;" x="134.638945" xlink:href="#m4cefd1ed5e" y="216.894251"/>
     <use style="fill:#009e73;fill-opacity:0.7;stroke:#000000;stroke-opacity:0.7;" x="142.450335" xlink:href="#m4cefd1ed5e" y="210.61874"/>
     <use style="fill:#009e73;fill-opacity:0.7;stroke:#000000;stroke-opacity:0.7;" x="150.261725" xlink:href="#m4cefd1ed5e" y="204.415999"/>
     <use style="fill:#009e73;fill-opacity:0.7;stroke:#000000;stroke-opacity:0.7;" x="158.073115" xlink:href="#m4cefd1ed5e" y="198.385401"/>
     <use style="fill:#009e73;fill-opacity:0.7;stroke:#000000;stroke-opacity:0.7;" x="165.884505" xlink:href="#m4cefd1ed5e" y="192.616268"/>
     <use style="fill:#009e73;fill-opacity:0.7;stroke:#000000;stroke-opacity:0.7;" x="173.695895" xlink:href="#m4cefd1ed5e" y="187.1842"/>
     <use style="fill:#009e73;fill-opacity:0.7;stroke:#000000;stroke-opacity:0.7;" x="181.507285" xlink:href="#m4cefd1ed5e" y="182.147941"/>
     <use style="fill:#009e73;fill-opacity:0.7;stroke:#000000;stroke-opacity:0.7;" x="189.318675" xlink:href="#m4cefd1ed5e" y="177.547143"/>
     <use style="fill:#009e73;fill-opacity:0.7;stroke:#000000;stroke-opacity:0.7;" x="197.130065" xlink:href="#m4cefd1ed5e" y="172.688104"/>
     <use style="fill:#009e73;fill-opacity:0.7;stroke:#000000;stroke-opacity:0.7;" x="204.941455" xlink:href="#m4cefd1ed5e" y="164.577182"/>
     <use style="fill:#009e73;fill-opacity:0.7;stroke:#000000;stroke-opacity:0.7;" x="212.752845" xlink:href="#m4cefd1ed5e" y="156.816836"/>
     <use style="fill:#009e73;fill-opacity:0.7;stroke:#000000;stroke-opacity:0.7;" x="220.564235" xlink:href="#m4cefd1ed5e" y="147.586302"/>
     <use style="fill:#009e73;fill-opacity:0.7;stroke:#000000;stroke-opacity:0.7;" x="228.375625" xlink:href="#m4cefd1ed5e" y="138.830603"/>
     <use style="fill:#009e73;fill-opacity:0.7;stroke:#000000;stroke-opacity:0.7;" x="236.187015" xlink:href="#m4cefd1ed5e" y="129.844193"/>
     <use style="fill:#009e73;fill-opacity:0.7;stroke:#000000;stroke-opacity:0.7;" x="243.998405" xlink:href="#m4cefd1ed5e" y="119.70573"/>
     <use style="fill:#009e73;fill-opacity:0.7;stroke:#000000;stroke-opacity:0.7;" x="251.809795" xlink:href="#m4cefd1ed5e" y="109.510469"/>
     <use style="fill:#009e73;fill-opacity:0.7;stroke:#000000;stroke-opacity:0.7;" x="259.621185" xlink:href="#m4cefd1ed5e" y="100.090589"/>
     <use style="fill:#009e73;fill-opacity:0.7;stroke:#000000;stroke-opacity:0.7;" x="267.432575" xlink:href="#m4cefd1ed5e" y="91.482514"/>
     <use style="fill:#009e73;fill-opacity:0.7;stroke:#000000;stroke-opacity:0.7;" x="275.243965" xlink:href="#m4cefd1ed5e" y="83.693734"/>
     <use style="fill:#009e73;fill-opacity:0.7;stroke:#000000;stroke-opacity:0.7;" x="283.055355" xlink:href="#m4cefd1ed5e" y="76.70819"/>
     <use style="fill:#009e73;fill-opacity:0.7;stroke:#000000;stroke-opacity:0.7;" x="290.866745" xlink:href="#m4cefd1ed5e" y="70.491216"/>
     <use style="fill:#009e73;fill-opacity:0.7;stroke:#000000;stroke-opacity:0.7;" x="298.678135" xlink:href="#m4cefd1ed5e" y="64.995687"/>
     <use style="fill:#009e73;fill-opacity:0.7;stroke:#000000;stroke-opacity:0.7;" x="306.489525" xlink:href="#m4cefd1ed5e" y="60.166505"/>
     <use style="fill:#009e73;fill-opacity:0.7;stroke:#000000;stroke-opacity:0.7;" x="314.300915" xlink:href="#m4cefd1ed5e" y="55.945322"/>
     <use style="fill:#009e73;fill-opacity:0.7;stroke:#000000;stroke-opacity:0.7;" x="322.112305" xlink:href="#m4cefd1ed5e" y="52.218793"/>
     <use style="fill:#009e73;fill-opacity:0.7;stroke:#000000;stroke-opacity:0.7;" x="329.923695" xlink:href="#m4cefd1ed5e" y="47.457159"/>
     <use style="fill:#009e73;fill-opacity:0.7;stroke:#000000;stroke-opacity:0.7;" x="337.735085" xlink:href="#m4cefd1ed5e" y="43.289308"/>
     <use style="fill:#009e73;fill-opacity:0.7;stroke:#000000;stroke-opacity:0.7;" x="345.546475" xlink:href="#m4cefd1ed5e" y="39.658095"/>
     <use style="fill:#009e73;fill-opacity:0.7;stroke:#000000;stroke-opacity:0.7;" x="353.357865" xlink:href="#m4cefd1ed5e" y="36.51015"/>
     <use style="fill:#009e73;fill-opacity:0.7;stroke:#000000;stroke-opacity:0.7;" x="361.169255" xlink:href="#m4cefd1ed5e" y="33.796601"/>
     <use style="fill:#009e73;fill-opacity:0.7;stroke:#000000;stroke-opacity:0.7;" x="368.980645" xlink:href="#m4cefd1ed5e" y="30.399768"/>
     <use style="fill:#009e73;fill-opacity:0.7;stroke:#000000;stroke-opacity:0.7;" x="376.792035" xlink:href="#m4cefd1ed5e" y="26.049185"/>
     <use style="fill:#009e73;fill-opacity:0.7;stroke:#000000;stroke-opacity:0.7;" x="384.603425" xlink:href="#m4cefd1ed5e" y="22.084548"/>
    </g>
   </g>
   <g id="PathCollection_3">
    <defs>
     <path d="M 0 3.872983 
C 1.027127 3.872983 2.012324 3.464901 2.738613 2.738613 
C 3.464901 2.012324 3.872983 1.027127 3.872983 0 
C 3.872983 -1.027127 3.464901 -2.012324 2.738613 -2.738613 
C 2.012324 -3.464901 1.027127 -3.872983 0 -3.872983 
C -1.027127 -3.872983 -2.012324 -3.464901 -2.738613 -2.738613 
C -3.464901 -2.012324 -3.872983 -1.027127 -3.872983 0 
C -3.872983 1.027127 -3.464901 2.012324 -2.738613 2.738613 
C -2.012324 3.464901 -1.027127 3.872983 0 3.872983 
z
" id="maebad0492f" style="stroke:#000000;stroke-opacity:0.7;"/>
    </defs>
    <g clip-path="url(#p04e26d63f5)">
     <use style="fill:#d55e00;fill-opacity:0.7;stroke:#000000;stroke-opacity:0.7;" x="72.147825" xlink:href="#maebad0492f" y="258.427452"/>
     <use style="fill:#d55e00;fill-opacity:0.7;stroke:#000000;stroke-opacity:0.7;" x="79.959215" xlink:href="#maebad0492f" y="253.873323"/>
     <use style="fill:#d55e00;fill-opacity:0.7;stroke:#000000;stroke-opacity:0.7;" x="87.770605" xlink:href="#maebad0492f" y="249.143653"/>
     <use style="fill:#d55e00;fill-opacity:0.7;stroke:#000000;stroke-opacity:0.7;" x="95.581995" xlink:href="#maebad0492f" y="243.88885"/>
     <use style="fill:#d55e00;fill-opacity:0.7;stroke:#000000;stroke-opacity:0.7;" x="103.393385" xlink:href="#maebad0492f" y="238.05636"/>
     <use style="fill:#d55e00;fill-opacity:0.7;stroke:#000000;stroke-opacity:0.7;" x="111.204775" xlink:href="#maebad0492f" y="231.685328"/>
     <use style="fill:#d55e00;fill-opacity:0.7;stroke:#000000;stroke-opacity:0.7;" x="119.016165" xlink:href="#maebad0492f" y="224.84609"/>
     <use style="fill:#d55e00;fill-opacity:0.7;stroke:#000000;stroke-opacity:0.7;" x="126.827555" xlink:href="#maebad0492f" y="217.628455"/>
     <use style="fill:#d55e00;fill-opacity:0.7;stroke:#000000;stroke-opacity:0.7;" x="134.638945" xlink:href="#maebad0492f" y="210.128662"/>
     <use style="fill:#d55e00;fill-opacity:0.7;stroke:#000000;stroke-opacity:0.7;" x="142.450335" xlink:href="#maebad0492f" y="202.444041"/>
     <use style="fill:#d55e00;fill-opacity:0.7;stroke:#000000;stroke-opacity:0.7;" x="150.261725" xlink:href="#maebad0492f" y="194.666053"/>
     <use style="fill:#d55e00;fill-opacity:0.7;stroke:#000000;stroke-opacity:0.7;" x="158.073115" xlink:href="#maebad0492f" y="186.880192"/>
     <use style="fill:#d55e00;fill-opacity:0.7;stroke:#000000;stroke-opacity:0.7;" x="165.884505" xlink:href="#maebad0492f" y="179.165098"/>
     <use style="fill:#d55e00;fill-opacity:0.7;stroke:#000000;stroke-opacity:0.7;" x="173.695895" xlink:href="#maebad0492f" y="171.593138"/>
     <use style="fill:#d55e00;fill-opacity:0.7;stroke:#000000;stroke-opacity:0.7;" x="181.507285" xlink:href="#maebad0492f" y="164.231716"/>
     <use style="fill:#d55e00;fill-opacity:0.7;stroke:#000000;stroke-opacity:0.7;" x="189.318675" xlink:href="#maebad0492f" y="157.143391"/>
     <use style="fill:#d55e00;fill-opacity:0.7;stroke:#000000;stroke-opacity:0.7;" x="197.130065" xlink:href="#maebad0492f" y="150.384118"/>
     <use style="fill:#d55e00;fill-opacity:0.7;stroke:#000000;stroke-opacity:0.7;" x="204.941455" xlink:href="#maebad0492f" y="144.000948"/>
     <use style="fill:#d55e00;fill-opacity:0.7;stroke:#000000;stroke-opacity:0.7;" x="212.752845" xlink:href="#maebad0492f" y="138.028691"/>
     <use style="fill:#d55e00;fill-opacity:0.7;stroke:#000000;stroke-opacity:0.7;" x="220.564235" xlink:href="#maebad0492f" y="132.488995"/>
     <use style="fill:#d55e00;fill-opacity:0.7;stroke:#000000;stroke-opacity:0.7;" x="228.375625" xlink:href="#maebad0492f" y="127.390774"/>
     <use style="fill:#d55e00;fill-opacity:0.7;stroke:#000000;stroke-opacity:0.7;" x="236.187015" xlink:href="#maebad0492f" y="122.732366"/>
     <use style="fill:#d55e00;fill-opacity:0.7;stroke:#000000;stroke-opacity:0.7;" x="243.998405" xlink:href="#maebad0492f" y="114.85138"/>
     <use style="fill:#d55e00;fill-opacity:0.7;stroke:#000000;stroke-opacity:0.7;" x="251.809795" xlink:href="#maebad0492f" y="105.905847"/>
     <use style="fill:#d55e00;fill-opacity:0.7;stroke:#000000;stroke-opacity:0.7;" x="259.621185" xlink:href="#maebad0492f" y="97.372925"/>
     <use style="fill:#d55e00;fill-opacity:0.7;stroke:#000000;stroke-opacity:0.7;" x="267.432575" xlink:href="#maebad0492f" y="89.405969"/>
     <use style="fill:#d55e00;fill-opacity:0.7;stroke:#000000;stroke-opacity:0.7;" x="275.243965" xlink:href="#maebad0492f" y="82.031129"/>
     <use style="fill:#d55e00;fill-opacity:0.7;stroke:#000000;stroke-opacity:0.7;" x="283.055355" xlink:href="#maebad0492f" y="75.247646"/>
     <use style="fill:#d55e00;fill-opacity:0.7;stroke:#000000;stroke-opacity:0.7;" x="290.866745" xlink:href="#maebad0492f" y="68.762533"/>
     <use style="fill:#d55e00;fill-opacity:0.7;stroke:#000000;stroke-opacity:0.7;" x="298.678135" xlink:href="#maebad0492f" y="62.847226"/>
     <use style="fill:#d55e00;fill-opacity:0.7;stroke:#000000;stroke-opacity:0.7;" x="306.489525" xlink:href="#maebad0492f" y="57.472006"/>
     <use style="fill:#d55e00;fill-opacity:0.7;stroke:#000000;stroke-opacity:0.7;" x="314.300915" xlink:href="#maebad0492f" y="52.600681"/>
     <use style="fill:#d55e00;fill-opacity:0.7;stroke:#000000;stroke-opacity:0.7;" x="322.112305" xlink:href="#maebad0492f" y="48.193977"/>
     <use style="fill:#d55e00;fill-opacity:0.7;stroke:#000000;stroke-opacity:0.7;" x="329.923695" xlink:href="#maebad0492f" y="44.212058"/>
     <use style="fill:#d55e00;fill-opacity:0.7;stroke:#000000;stroke-opacity:0.7;" x="337.735085" xlink:href="#maebad0492f" y="40.278683"/>
     <use style="fill:#d55e00;fill-opacity:0.7;stroke:#000000;stroke-opacity:0.7;" x="345.546475" xlink:href="#maebad0492f" y="36.410169"/>
     <use style="fill:#d55e00;fill-opacity:0.7;stroke:#000000;stroke-opacity:0.7;" x="353.357865" xlink:href="#maebad0492f" y="32.921968"/>
     <use style="fill:#d55e00;fill-opacity:0.7;stroke:#000000;stroke-opacity:0.7;" x="361.169255" xlink:href="#maebad0492f" y="29.776998"/>
     <use style="fill:#d55e00;fill-opacity:0.7;stroke:#000000;stroke-opacity:0.7;" x="368.980645" xlink:href="#maebad0492f" y="26.941844"/>
     <use style="fill:#d55e00;fill-opacity:0.7;stroke:#000000;stroke-opacity:0.7;" x="376.792035" xlink:href="#maebad0492f" y="24.38658"/>
     <use style="fill:#d55e00;fill-opacity:0.7;stroke:#000000;stroke-opacity:0.7;" x="384.603425" xlink:href="#maebad0492f" y="22.084548"/>
    </g>
   </g>
   <g id="PathCollection_4">
    <defs>
     <path d="M 0 3.872983 
C 1.027127 3.872983 2.012324 3.464901 2.738613 2.738613 
C 3.464901 2.012324 3.872983 1.027127 3.872983 0 
C 3.872983 -1.027127 3.464901 -2.012324 2.738613 -2.738613 
C 2.012324 -3.464901 1.027127 -3.872983 0 -3.872983 
C -1.027127 -3.872983 -2.012324 -3.464901 -2.738613 -2.738613 
C -3.464901 -2.012324 -3.872983 -1.027127 -3.872983 0 
C -3.872983 1.027127 -3.464901 2.012324 -2.738613 2.738613 
C -2.012324 3.464901 -1.027127 3.872983 0 3.872983 
z
" id="meab71d8e44" style="stroke:#000000;stroke-opacity:0.7;"/>
    </defs>
    <g clip-path="url(#p04e26d63f5)">
     <use style="fill:#cc79a7;fill-opacity:0.7;stroke:#000000;stroke-opacity:0.7;" x="72.147825" xlink:href="#meab71d8e44" y="258.427452"/>
     <use style="fill:#cc79a7;fill-opacity:0.7;stroke:#000000;stroke-opacity:0.7;" x="79.959215" xlink:href="#meab71d8e44" y="254.209119"/>
     <use style="fill:#cc79a7;fill-opacity:0.7;stroke:#000000;stroke-opacity:0.7;" x="87.770605" xlink:href="#meab71d8e44" y="249.813032"/>
     <use style="fill:#cc79a7;fill-opacity:0.7;stroke:#000000;stroke-opacity:0.7;" x="95.581995" xlink:href="#meab71d8e44" y="244.911756"/>
     <use style="fill:#cc79a7;fill-opacity:0.7;stroke:#000000;stroke-opacity:0.7;" x="103.393385" xlink:href="#meab71d8e44" y="239.449936"/>
     <use style="fill:#cc79a7;fill-opacity:0.7;stroke:#000000;stroke-opacity:0.7;" x="111.204775" xlink:href="#meab71d8e44" y="233.454792"/>
     <use style="fill:#cc79a7;fill-opacity:0.7;stroke:#000000;stroke-opacity:0.7;" x="119.016165" xlink:href="#meab71d8e44" y="226.980064"/>
     <use style="fill:#cc79a7;fill-opacity:0.7;stroke:#000000;stroke-opacity:0.7;" x="126.827555" xlink:href="#meab71d8e44" y="220.094367"/>
     <use style="fill:#cc79a7;fill-opacity:0.7;stroke:#000000;stroke-opacity:0.7;" x="134.638945" xlink:href="#meab71d8e44" y="212.870612"/>
     <use style="fill:#cc79a7;fill-opacity:0.7;stroke:#000000;stroke-opacity:0.7;" x="142.450335" xlink:href="#meab71d8e44" y="205.378132"/>
     <use style="fill:#cc79a7;fill-opacity:0.7;stroke:#000000;stroke-opacity:0.7;" x="150.261725" xlink:href="#meab71d8e44" y="197.67898"/>
     <use style="fill:#cc79a7;fill-opacity:0.7;stroke:#000000;stroke-opacity:0.7;" x="158.073115" xlink:href="#meab71d8e44" y="189.827329"/>
     <use style="fill:#cc79a7;fill-opacity:0.7;stroke:#000000;stroke-opacity:0.7;" x="165.884505" xlink:href="#meab71d8e44" y="181.870459"/>
     <use style="fill:#cc79a7;fill-opacity:0.7;stroke:#000000;stroke-opacity:0.7;" x="173.695895" xlink:href="#meab71d8e44" y="173.852766"/>
     <use style="fill:#cc79a7;fill-opacity:0.7;stroke:#000000;stroke-opacity:0.7;" x="181.507285" xlink:href="#meab71d8e44" y="165.821571"/>
     <use style="fill:#cc79a7;fill-opacity:0.7;stroke:#000000;stroke-opacity:0.7;" x="189.318675" xlink:href="#meab71d8e44" y="157.832158"/>
     <use style="fill:#cc79a7;fill-opacity:0.7;stroke:#000000;stroke-opacity:0.7;" x="197.130065" xlink:href="#meab71d8e44" y="149.950776"/>
     <use style="fill:#cc79a7;fill-opacity:0.7;stroke:#000000;stroke-opacity:0.7;" x="204.941455" xlink:href="#meab71d8e44" y="142.253123"/>
     <use style="fill:#cc79a7;fill-opacity:0.7;stroke:#000000;stroke-opacity:0.7;" x="212.752845" xlink:href="#meab71d8e44" y="134.818275"/>
     <use style="fill:#cc79a7;fill-opacity:0.7;stroke:#000000;stroke-opacity:0.7;" x="220.564235" xlink:href="#meab71d8e44" y="127.720443"/>
     <use style="fill:#cc79a7;fill-opacity:0.7;stroke:#000000;stroke-opacity:0.7;" x="228.375625" xlink:href="#meab71d8e44" y="121.021341"/>
     <use style="fill:#cc79a7;fill-opacity:0.7;stroke:#000000;stroke-opacity:0.7;" x="236.187015" xlink:href="#meab71d8e44" y="114.765356"/>
     <use style="fill:#cc79a7;fill-opacity:0.7;stroke:#000000;stroke-opacity:0.7;" x="243.998405" xlink:href="#meab71d8e44" y="108.978244"/>
     <use style="fill:#cc79a7;fill-opacity:0.7;stroke:#000000;stroke-opacity:0.7;" x="251.809795" xlink:href="#meab71d8e44" y="103.668177"/>
     <use style="fill:#cc79a7;fill-opacity:0.7;stroke:#000000;stroke-opacity:0.7;" x="259.621185" xlink:href="#meab71d8e44" y="98.82775"/>
     <use style="fill:#cc79a7;fill-opacity:0.7;stroke:#000000;stroke-opacity:0.7;" x="267.432575" xlink:href="#meab71d8e44" y="93.765961"/>
     <use style="fill:#cc79a7;fill-opacity:0.7;stroke:#000000;stroke-opacity:0.7;" x="275.243965" xlink:href="#meab71d8e44" y="85.873679"/>
     <use style="fill:#cc79a7;fill-opacity:0.7;stroke:#000000;stroke-opacity:0.7;" x="283.055355" xlink:href="#meab71d8e44" y="78.572714"/>
     <use style="fill:#cc79a7;fill-opacity:0.7;stroke:#000000;stroke-opacity:0.7;" x="290.866745" xlink:href="#meab71d8e44" y="71.666322"/>
     <use style="fill:#cc79a7;fill-opacity:0.7;stroke:#000000;stroke-opacity:0.7;" x="298.678135" xlink:href="#meab71d8e44" y="65.292067"/>
     <use style="fill:#cc79a7;fill-opacity:0.7;stroke:#000000;stroke-opacity:0.7;" x="306.489525" xlink:href="#meab71d8e44" y="59.44593"/>
     <use style="fill:#cc79a7;fill-opacity:0.7;stroke:#000000;stroke-opacity:0.7;" x="314.300915" xlink:href="#meab71d8e44" y="54.091519"/>
     <use style="fill:#cc79a7;fill-opacity:0.7;stroke:#000000;stroke-opacity:0.7;" x="322.112305" xlink:href="#meab71d8e44" y="49.190008"/>
     <use style="fill:#cc79a7;fill-opacity:0.7;stroke:#000000;stroke-opacity:0.7;" x="329.923695" xlink:href="#meab71d8e44" y="44.702533"/>
     <use style="fill:#cc79a7;fill-opacity:0.7;stroke:#000000;stroke-opacity:0.7;" x="337.735085" xlink:href="#meab71d8e44" y="40.591756"/>
     <use style="fill:#cc79a7;fill-opacity:0.7;stroke:#000000;stroke-opacity:0.7;" x="345.546475" xlink:href="#meab71d8e44" y="36.822767"/>
     <use style="fill:#cc79a7;fill-opacity:0.7;stroke:#000000;stroke-opacity:0.7;" x="353.357865" xlink:href="#meab71d8e44" y="33.3635"/>
     <use style="fill:#cc79a7;fill-opacity:0.7;stroke:#000000;stroke-opacity:0.7;" x="361.169255" xlink:href="#meab71d8e44" y="30.184866"/>
     <use style="fill:#cc79a7;fill-opacity:0.7;stroke:#000000;stroke-opacity:0.7;" x="368.980645" xlink:href="#meab71d8e44" y="27.260676"/>
     <use style="fill:#cc79a7;fill-opacity:0.7;stroke:#000000;stroke-opacity:0.7;" x="376.792035" xlink:href="#meab71d8e44" y="24.567528"/>
     <use style="fill:#cc79a7;fill-opacity:0.7;stroke:#000000;stroke-opacity:0.7;" x="384.603425" xlink:href="#meab71d8e44" y="22.084548"/>
    </g>
   </g>
   <g id="PathCollection_5">
    <defs>
     <path d="M 0 3.872983 
C 1.027127 3.872983 2.012324 3.464901 2.738613 2.738613 
C 3.464901 2.012324 3.872983 1.027127 3.872983 0 
C 3.872983 -1.027127 3.464901 -2.012324 2.738613 -2.738613 
C 2.012324 -3.464901 1.027127 -3.872983 0 -3.872983 
C -1.027127 -3.872983 -2.012324 -3.464901 -2.738613 -2.738613 
C -3.464901 -2.012324 -3.872983 -1.027127 -3.872983 0 
C -3.872983 1.027127 -3.464901 2.012324 -2.738613 2.738613 
C -2.012324 3.464901 -1.027127 3.872983 0 3.872983 
z
" id="m4998fe7213" style="stroke:#000000;stroke-opacity:0.7;"/>
    </defs>
    <g clip-path="url(#p04e26d63f5)">
     <use style="fill:#f0e442;fill-opacity:0.7;stroke:#000000;stroke-opacity:0.7;" x="72.147825" xlink:href="#m4998fe7213" y="258.427452"/>
     <use style="fill:#f0e442;fill-opacity:0.7;stroke:#000000;stroke-opacity:0.7;" x="79.959215" xlink:href="#m4998fe7213" y="254.54882"/>
     <use style="fill:#f0e442;fill-opacity:0.7;stroke:#000000;stroke-opacity:0.7;" x="87.770605" xlink:href="#m4998fe7213" y="250.496662"/>
     <use style="fill:#f0e442;fill-opacity:0.7;stroke:#000000;stroke-opacity:0.7;" x="95.581995" xlink:href="#m4998fe7213" y="245.967644"/>
     <use style="fill:#f0e442;fill-opacity:0.7;stroke:#000000;stroke-opacity:0.7;" x="103.393385" xlink:href="#m4998fe7213" y="240.906493"/>
     <use style="fill:#f0e442;fill-opacity:0.7;stroke:#000000;stroke-opacity:0.7;" x="111.204775" xlink:href="#m4998fe7213" y="235.332353"/>
     <use style="fill:#f0e442;fill-opacity:0.7;stroke:#000000;stroke-opacity:0.7;" x="119.016165" xlink:href="#m4998fe7213" y="229.287017"/>
     <use style="fill:#f0e442;fill-opacity:0.7;stroke:#000000;stroke-opacity:0.7;" x="126.827555" xlink:href="#m4998fe7213" y="222.823888"/>
     <use style="fill:#f0e442;fill-opacity:0.7;stroke:#000000;stroke-opacity:0.7;" x="134.638945" xlink:href="#m4998fe7213" y="215.998617"/>
     <use style="fill:#f0e442;fill-opacity:0.7;stroke:#000000;stroke-opacity:0.7;" x="142.450335" xlink:href="#m4998fe7213" y="208.860273"/>
     <use style="fill:#f0e442;fill-opacity:0.7;stroke:#000000;stroke-opacity:0.7;" x="150.261725" xlink:href="#m4998fe7213" y="201.449029"/>
     <use style="fill:#f0e442;fill-opacity:0.7;stroke:#000000;stroke-opacity:0.7;" x="158.073115" xlink:href="#m4998fe7213" y="193.794687"/>
     <use style="fill:#f0e442;fill-opacity:0.7;stroke:#000000;stroke-opacity:0.7;" x="165.884505" xlink:href="#m4998fe7213" y="185.918391"/>
     <use style="fill:#f0e442;fill-opacity:0.7;stroke:#000000;stroke-opacity:0.7;" x="173.695895" xlink:href="#m4998fe7213" y="177.837818"/>
     <use style="fill:#f0e442;fill-opacity:0.7;stroke:#000000;stroke-opacity:0.7;" x="181.507285" xlink:href="#m4998fe7213" y="169.575306"/>
     <use style="fill:#f0e442;fill-opacity:0.7;stroke:#000000;stroke-opacity:0.7;" x="189.318675" xlink:href="#m4998fe7213" y="161.167543"/>
     <use style="fill:#f0e442;fill-opacity:0.7;stroke:#000000;stroke-opacity:0.7;" x="197.130065" xlink:href="#m4998fe7213" y="152.673967"/>
     <use style="fill:#f0e442;fill-opacity:0.7;stroke:#000000;stroke-opacity:0.7;" x="204.941455" xlink:href="#m4998fe7213" y="144.179921"/>
     <use style="fill:#f0e442;fill-opacity:0.7;stroke:#000000;stroke-opacity:0.7;" x="212.752845" xlink:href="#m4998fe7213" y="135.792169"/>
     <use style="fill:#f0e442;fill-opacity:0.7;stroke:#000000;stroke-opacity:0.7;" x="220.564235" xlink:href="#m4998fe7213" y="127.62673"/>
     <use style="fill:#f0e442;fill-opacity:0.7;stroke:#000000;stroke-opacity:0.7;" x="228.375625" xlink:href="#m4998fe7213" y="119.793665"/>
     <use style="fill:#f0e442;fill-opacity:0.7;stroke:#000000;stroke-opacity:0.7;" x="236.187015" xlink:href="#m4998fe7213" y="112.383527"/>
     <use style="fill:#f0e442;fill-opacity:0.7;stroke:#000000;stroke-opacity:0.7;" x="243.998405" xlink:href="#m4998fe7213" y="105.459636"/>
     <use style="fill:#f0e442;fill-opacity:0.7;stroke:#000000;stroke-opacity:0.7;" x="251.809795" xlink:href="#m4998fe7213" y="99.056323"/>
     <use style="fill:#f0e442;fill-opacity:0.7;stroke:#000000;stroke-opacity:0.7;" x="259.621185" xlink:href="#m4998fe7213" y="93.181596"/>
     <use style="fill:#f0e442;fill-opacity:0.7;stroke:#000000;stroke-opacity:0.7;" x="267.432575" xlink:href="#m4998fe7213" y="87.822338"/>
     <use style="fill:#f0e442;fill-opacity:0.7;stroke:#000000;stroke-opacity:0.7;" x="275.243965" xlink:href="#m4998fe7213" y="82.950342"/>
     <use style="fill:#f0e442;fill-opacity:0.7;stroke:#000000;stroke-opacity:0.7;" x="283.055355" xlink:href="#m4998fe7213" y="78.528019"/>
     <use style="fill:#f0e442;fill-opacity:0.7;stroke:#000000;stroke-opacity:0.7;" x="290.866745" xlink:href="#m4998fe7213" y="74.308198"/>
     <use style="fill:#f0e442;fill-opacity:0.7;stroke:#000000;stroke-opacity:0.7;" x="298.678135" xlink:href="#m4998fe7213" y="67.767741"/>
     <use style="fill:#f0e442;fill-opacity:0.7;stroke:#000000;stroke-opacity:0.7;" x="306.489525" xlink:href="#m4998fe7213" y="61.747482"/>
     <use style="fill:#f0e442;fill-opacity:0.7;stroke:#000000;stroke-opacity:0.7;" x="314.300915" xlink:href="#m4998fe7213" y="56.208801"/>
     <use style="fill:#f0e442;fill-opacity:0.7;stroke:#000000;stroke-opacity:0.7;" x="322.112305" xlink:href="#m4998fe7213" y="51.111789"/>
     <use style="fill:#f0e442;fill-opacity:0.7;stroke:#000000;stroke-opacity:0.7;" x="329.923695" xlink:href="#m4998fe7213" y="46.417267"/>
     <use style="fill:#f0e442;fill-opacity:0.7;stroke:#000000;stroke-opacity:0.7;" x="337.735085" xlink:href="#m4998fe7213" y="42.088201"/>
     <use style="fill:#f0e442;fill-opacity:0.7;stroke:#000000;stroke-opacity:0.7;" x="345.546475" xlink:href="#m4998fe7213" y="38.09041"/>
     <use style="fill:#f0e442;fill-opacity:0.7;stroke:#000000;stroke-opacity:0.7;" x="353.357865" xlink:href="#m4998fe7213" y="34.392689"/>
     <use style="fill:#f0e442;fill-opacity:0.7;stroke:#000000;stroke-opacity:0.7;" x="361.169255" xlink:href="#m4998fe7213" y="30.967031"/>
     <use style="fill:#f0e442;fill-opacity:0.7;stroke:#000000;stroke-opacity:0.7;" x="368.980645" xlink:href="#m4998fe7213" y="27.7883"/>
     <use style="fill:#f0e442;fill-opacity:0.7;stroke:#000000;stroke-opacity:0.7;" x="376.792035" xlink:href="#m4998fe7213" y="24.834115"/>
     <use style="fill:#f0e442;fill-opacity:0.7;stroke:#000000;stroke-opacity:0.7;" x="384.603425" xlink:href="#m4998fe7213" y="22.084548"/>
    </g>
   </g>
   <g id="PathCollection_6">
    <defs>
     <path d="M 0 3.872983 
C 1.027127 3.872983 2.012324 3.464901 2.738613 2.738613 
C 3.464901 2.012324 3.872983 1.027127 3.872983 0 
C 3.872983 -1.027127 3.464901 -2.012324 2.738613 -2.738613 
C 2.012324 -3.464901 1.027127 -3.872983 0 -3.872983 
C -1.027127 -3.872983 -2.012324 -3.464901 -2.738613 -2.738613 
C -3.464901 -2.012324 -3.872983 -1.027127 -3.872983 0 
C -3.872983 1.027127 -3.464901 2.012324 -2.738613 2.738613 
C -2.012324 3.464901 -1.027127 3.872983 0 3.872983 
z
" id="m57ce2dccef" style="stroke:#000000;stroke-opacity:0.7;"/>
    </defs>
    <g clip-path="url(#p04e26d63f5)">
     <use style="fill:#56b4e9;fill-opacity:0.7;stroke:#000000;stroke-opacity:0.7;" x="72.147825" xlink:href="#m57ce2dccef" y="258.427452"/>
     <use style="fill:#56b4e9;fill-opacity:0.7;stroke:#000000;stroke-opacity:0.7;" x="79.959215" xlink:href="#m57ce2dccef" y="254.832575"/>
     <use style="fill:#56b4e9;fill-opacity:0.7;stroke:#000000;stroke-opacity:0.7;" x="87.770605" xlink:href="#m57ce2dccef" y="251.069756"/>
     <use style="fill:#56b4e9;fill-opacity:0.7;stroke:#000000;stroke-opacity:0.7;" x="95.581995" xlink:href="#m57ce2dccef" y="246.856396"/>
     <use style="fill:#56b4e9;fill-opacity:0.7;stroke:#000000;stroke-opacity:0.7;" x="103.393385" xlink:href="#m57ce2dccef" y="242.13829"/>
     <use style="fill:#56b4e9;fill-opacity:0.7;stroke:#000000;stroke-opacity:0.7;" x="111.204775" xlink:href="#m57ce2dccef" y="236.929076"/>
     <use style="fill:#56b4e9;fill-opacity:0.7;stroke:#000000;stroke-opacity:0.7;" x="119.016165" xlink:href="#m57ce2dccef" y="231.262242"/>
     <use style="fill:#56b4e9;fill-opacity:0.7;stroke:#000000;stroke-opacity:0.7;" x="126.827555" xlink:href="#m57ce2dccef" y="225.180529"/>
     <use style="fill:#56b4e9;fill-opacity:0.7;stroke:#000000;stroke-opacity:0.7;" x="134.638945" xlink:href="#m57ce2dccef" y="218.727145"/>
     <use style="fill:#56b4e9;fill-opacity:0.7;stroke:#000000;stroke-opacity:0.7;" x="142.450335" xlink:href="#m57ce2dccef" y="211.937239"/>
     <use style="fill:#56b4e9;fill-opacity:0.7;stroke:#000000;stroke-opacity:0.7;" x="150.261725" xlink:href="#m57ce2dccef" y="204.835341"/>
     <use style="fill:#56b4e9;fill-opacity:0.7;stroke:#000000;stroke-opacity:0.7;" x="158.073115" xlink:href="#m57ce2dccef" y="197.433685"/>
     <use style="fill:#56b4e9;fill-opacity:0.7;stroke:#000000;stroke-opacity:0.7;" x="165.884505" xlink:href="#m57ce2dccef" y="189.733615"/>
     <use style="fill:#56b4e9;fill-opacity:0.7;stroke:#000000;stroke-opacity:0.7;" x="173.695895" xlink:href="#m57ce2dccef" y="181.73098"/>
     <use style="fill:#56b4e9;fill-opacity:0.7;stroke:#000000;stroke-opacity:0.7;" x="181.507285" xlink:href="#m57ce2dccef" y="173.424972"/>
     <use style="fill:#56b4e9;fill-opacity:0.7;stroke:#000000;stroke-opacity:0.7;" x="189.318675" xlink:href="#m57ce2dccef" y="164.830629"/>
     <use style="fill:#56b4e9;fill-opacity:0.7;stroke:#000000;stroke-opacity:0.7;" x="197.130065" xlink:href="#m57ce2dccef" y="155.991916"/>
     <use style="fill:#56b4e9;fill-opacity:0.7;stroke:#000000;stroke-opacity:0.7;" x="204.941455" xlink:href="#m57ce2dccef" y="146.9907"/>
     <use style="fill:#56b4e9;fill-opacity:0.7;stroke:#000000;stroke-opacity:0.7;" x="212.752845" xlink:href="#m57ce2dccef" y="137.946862"/>
     <use style="fill:#56b4e9;fill-opacity:0.7;stroke:#000000;stroke-opacity:0.7;" x="220.564235" xlink:href="#m57ce2dccef" y="129.006428"/>
     <use style="fill:#56b4e9;fill-opacity:0.7;stroke:#000000;stroke-opacity:0.7;" x="228.375625" xlink:href="#m57ce2dccef" y="120.320781"/>
     <use style="fill:#56b4e9;fill-opacity:0.7;stroke:#000000;stroke-opacity:0.7;" x="236.187015" xlink:href="#m57ce2dccef" y="112.024253"/>
     <use style="fill:#56b4e9;fill-opacity:0.7;stroke:#000000;stroke-opacity:0.7;" x="243.998405" xlink:href="#m57ce2dccef" y="104.218093"/>
     <use style="fill:#56b4e9;fill-opacity:0.7;stroke:#000000;stroke-opacity:0.7;" x="251.809795" xlink:href="#m57ce2dccef" y="96.964022"/>
     <use style="fill:#56b4e9;fill-opacity:0.7;stroke:#000000;stroke-opacity:0.7;" x="259.621185" xlink:href="#m57ce2dccef" y="90.286187"/>
     <use style="fill:#56b4e9;fill-opacity:0.7;stroke:#000000;stroke-opacity:0.7;" x="267.432575" xlink:href="#m57ce2dccef" y="84.178598"/>
     <use style="fill:#56b4e9;fill-opacity:0.7;stroke:#000000;stroke-opacity:0.7;" x="275.243965" xlink:href="#m57ce2dccef" y="78.613589"/>
     <use style="fill:#56b4e9;fill-opacity:0.7;stroke:#000000;stroke-opacity:0.7;" x="283.055355" xlink:href="#m57ce2dccef" y="73.550547"/>
     <use style="fill:#56b4e9;fill-opacity:0.7;stroke:#000000;stroke-opacity:0.7;" x="290.866745" xlink:href="#m57ce2dccef" y="68.942669"/>
     <use style="fill:#56b4e9;fill-opacity:0.7;stroke:#000000;stroke-opacity:0.7;" x="298.678135" xlink:href="#m57ce2dccef" y="64.742165"/>
     <use style="fill:#56b4e9;fill-opacity:0.7;stroke:#000000;stroke-opacity:0.7;" x="306.489525" xlink:href="#m57ce2dccef" y="60.903409"/>
     <use style="fill:#56b4e9;fill-opacity:0.7;stroke:#000000;stroke-opacity:0.7;" x="314.300915" xlink:href="#m57ce2dccef" y="57.34574"/>
     <use style="fill:#56b4e9;fill-opacity:0.7;stroke:#000000;stroke-opacity:0.7;" x="322.112305" xlink:href="#m57ce2dccef" y="52.151383"/>
     <use style="fill:#56b4e9;fill-opacity:0.7;stroke:#000000;stroke-opacity:0.7;" x="329.923695" xlink:href="#m57ce2dccef" y="47.352058"/>
     <use style="fill:#56b4e9;fill-opacity:0.7;stroke:#000000;stroke-opacity:0.7;" x="337.735085" xlink:href="#m57ce2dccef" y="42.910383"/>
     <use style="fill:#56b4e9;fill-opacity:0.7;stroke:#000000;stroke-opacity:0.7;" x="345.546475" xlink:href="#m57ce2dccef" y="38.792179"/>
     <use style="fill:#56b4e9;fill-opacity:0.7;stroke:#000000;stroke-opacity:0.7;" x="353.357865" xlink:href="#m57ce2dccef" y="34.966673"/>
     <use style="fill:#56b4e9;fill-opacity:0.7;stroke:#000000;stroke-opacity:0.7;" x="361.169255" xlink:href="#m57ce2dccef" y="31.406314"/>
     <use style="fill:#56b4e9;fill-opacity:0.7;stroke:#000000;stroke-opacity:0.7;" x="368.980645" xlink:href="#m57ce2dccef" y="28.086622"/>
     <use style="fill:#56b4e9;fill-opacity:0.7;stroke:#000000;stroke-opacity:0.7;" x="376.792035" xlink:href="#m57ce2dccef" y="24.98581"/>
     <use style="fill:#56b4e9;fill-opacity:0.7;stroke:#000000;stroke-opacity:0.7;" x="384.603425" xlink:href="#m57ce2dccef" y="22.084548"/>
    </g>
   </g>
   <g id="PathCollection_7">
    <g clip-path="url(#p04e26d63f5)">
     <use style="fill:#0072b2;fill-opacity:0.7;stroke:#000000;stroke-opacity:0.7;" x="72.147825" xlink:href="#m093f5b985f" y="258.427452"/>
     <use style="fill:#0072b2;fill-opacity:0.7;stroke:#000000;stroke-opacity:0.7;" x="79.959215" xlink:href="#m093f5b985f" y="255.069528"/>
     <use style="fill:#0072b2;fill-opacity:0.7;stroke:#000000;stroke-opacity:0.7;" x="87.770605" xlink:href="#m093f5b985f" y="251.549598"/>
     <use style="fill:#0072b2;fill-opacity:0.7;stroke:#000000;stroke-opacity:0.7;" x="95.581995" xlink:href="#m093f5b985f" y="247.602626"/>
     <use style="fill:#0072b2;fill-opacity:0.7;stroke:#000000;stroke-opacity:0.7;" x="103.393385" xlink:href="#m093f5b985f" y="243.175867"/>
     <use style="fill:#0072b2;fill-opacity:0.7;stroke:#000000;stroke-opacity:0.7;" x="111.204775" xlink:href="#m093f5b985f" y="238.279123"/>
     <use style="fill:#0072b2;fill-opacity:0.7;stroke:#000000;stroke-opacity:0.7;" x="119.016165" xlink:href="#m093f5b985f" y="232.939858"/>
     <use style="fill:#0072b2;fill-opacity:0.7;stroke:#000000;stroke-opacity:0.7;" x="126.827555" xlink:href="#m093f5b985f" y="227.193048"/>
     <use style="fill:#0072b2;fill-opacity:0.7;stroke:#000000;stroke-opacity:0.7;" x="134.638945" xlink:href="#m093f5b985f" y="221.073006"/>
     <use style="fill:#0072b2;fill-opacity:0.7;stroke:#000000;stroke-opacity:0.7;" x="142.450335" xlink:href="#m093f5b985f" y="214.604762"/>
     <use style="fill:#0072b2;fill-opacity:0.7;stroke:#000000;stroke-opacity:0.7;" x="150.261725" xlink:href="#m093f5b985f" y="207.801619"/>
     <use style="fill:#0072b2;fill-opacity:0.7;stroke:#000000;stroke-opacity:0.7;" x="158.073115" xlink:href="#m093f5b985f" y="200.663139"/>
     <use style="fill:#0072b2;fill-opacity:0.7;stroke:#000000;stroke-opacity:0.7;" x="165.884505" xlink:href="#m093f5b985f" y="193.176056"/>
     <use style="fill:#0072b2;fill-opacity:0.7;stroke:#000000;stroke-opacity:0.7;" x="173.695895" xlink:href="#m093f5b985f" y="185.319085"/>
     <use style="fill:#0072b2;fill-opacity:0.7;stroke:#000000;stroke-opacity:0.7;" x="181.507285" xlink:href="#m093f5b985f" y="177.071907"/>
     <use style="fill:#0072b2;fill-opacity:0.7;stroke:#000000;stroke-opacity:0.7;" x="189.318675" xlink:href="#m093f5b985f" y="168.428741"/>
     <use style="fill:#0072b2;fill-opacity:0.7;stroke:#000000;stroke-opacity:0.7;" x="197.130065" xlink:href="#m093f5b985f" y="159.414622"/>
     <use style="fill:#0072b2;fill-opacity:0.7;stroke:#000000;stroke-opacity:0.7;" x="204.941455" xlink:href="#m093f5b985f" y="150.099872"/>
     <use style="fill:#0072b2;fill-opacity:0.7;stroke:#000000;stroke-opacity:0.7;" x="212.752845" xlink:href="#m093f5b985f" y="140.606286"/>
     <use style="fill:#0072b2;fill-opacity:0.7;stroke:#000000;stroke-opacity:0.7;" x="220.564235" xlink:href="#m093f5b985f" y="131.098774"/>
     <use style="fill:#0072b2;fill-opacity:0.7;stroke:#000000;stroke-opacity:0.7;" x="228.375625" xlink:href="#m093f5b985f" y="121.762096"/>
     <use style="fill:#0072b2;fill-opacity:0.7;stroke:#000000;stroke-opacity:0.7;" x="236.187015" xlink:href="#m093f5b985f" y="112.770703"/>
     <use style="fill:#0072b2;fill-opacity:0.7;stroke:#000000;stroke-opacity:0.7;" x="243.998405" xlink:href="#m093f5b985f" y="104.263214"/>
     <use style="fill:#0072b2;fill-opacity:0.7;stroke:#000000;stroke-opacity:0.7;" x="251.809795" xlink:href="#m093f5b985f" y="96.329402"/>
     <use style="fill:#0072b2;fill-opacity:0.7;stroke:#000000;stroke-opacity:0.7;" x="259.621185" xlink:href="#m093f5b985f" y="89.010415"/>
     <use style="fill:#0072b2;fill-opacity:0.7;stroke:#000000;stroke-opacity:0.7;" x="267.432575" xlink:href="#m093f5b985f" y="82.307756"/>
     <use style="fill:#0072b2;fill-opacity:0.7;stroke:#000000;stroke-opacity:0.7;" x="275.243965" xlink:href="#m093f5b985f" y="76.19465"/>
     <use style="fill:#0072b2;fill-opacity:0.7;stroke:#000000;stroke-opacity:0.7;" x="283.055355" xlink:href="#m093f5b985f" y="70.627638"/>
     <use style="fill:#0072b2;fill-opacity:0.7;stroke:#000000;stroke-opacity:0.7;" x="290.866745" xlink:href="#m093f5b985f" y="65.555445"/>
     <use style="fill:#0072b2;fill-opacity:0.7;stroke:#000000;stroke-opacity:0.7;" x="298.678135" xlink:href="#m093f5b985f" y="60.925477"/>
     <use style="fill:#0072b2;fill-opacity:0.7;stroke:#000000;stroke-opacity:0.7;" x="306.489525" xlink:href="#m093f5b985f" y="56.68764"/>
     <use style="fill:#0072b2;fill-opacity:0.7;stroke:#000000;stroke-opacity:0.7;" x="314.300915" xlink:href="#m093f5b985f" y="52.796322"/>
     <use style="fill:#0072b2;fill-opacity:0.7;stroke:#000000;stroke-opacity:0.7;" x="322.112305" xlink:href="#m093f5b985f" y="49.211183"/>
     <use style="fill:#0072b2;fill-opacity:0.7;stroke:#000000;stroke-opacity:0.7;" x="329.923695" xlink:href="#m093f5b985f" y="45.89715"/>
     <use style="fill:#0072b2;fill-opacity:0.7;stroke:#000000;stroke-opacity:0.7;" x="337.735085" xlink:href="#m093f5b985f" y="42.824026"/>
     <use style="fill:#0072b2;fill-opacity:0.7;stroke:#000000;stroke-opacity:0.7;" x="345.546475" xlink:href="#m093f5b985f" y="39.219845"/>
     <use style="fill:#0072b2;fill-opacity:0.7;stroke:#000000;stroke-opacity:0.7;" x="353.357865" xlink:href="#m093f5b985f" y="35.318456"/>
     <use style="fill:#0072b2;fill-opacity:0.7;stroke:#000000;stroke-opacity:0.7;" x="361.169255" xlink:href="#m093f5b985f" y="31.677039"/>
     <use style="fill:#0072b2;fill-opacity:0.7;stroke:#000000;stroke-opacity:0.7;" x="368.980645" xlink:href="#m093f5b985f" y="28.271451"/>
     <use style="fill:#0072b2;fill-opacity:0.7;stroke:#000000;stroke-opacity:0.7;" x="376.792035" xlink:href="#m093f5b985f" y="25.080246"/>
     <use style="fill:#0072b2;fill-opacity:0.7;stroke:#000000;stroke-opacity:0.7;" x="384.603425" xlink:href="#m093f5b985f" y="22.084548"/>
    </g>
   </g>
   <g id="matplotlib.axis_1">
    <g id="xtick_1">
     <g id="line2d_1">
      <defs>
       <path d="M 0 0 
L 0 3.5 
" id="m25660bc13d" style="stroke:#000000;stroke-width:0.8;"/>
      </defs>
      <g>
       <use style="stroke:#000000;stroke-width:0.8;" x="64.336435" xlink:href="#m25660bc13d" y="273.312"/>
      </g>
     </g>
     <g id="text_1">
      <!-- 0.0 -->
      <defs>
       <path d="M 31.78125 3.421875 
Q 39.265625 3.421875 42.96875 11.625 
Q 46.6875 19.828125 46.6875 36.375 
Q 46.6875 52.984375 42.96875 61.1875 
Q 39.265625 69.390625 31.78125 69.390625 
Q 24.3125 69.390625 20.59375 61.1875 
Q 16.890625 52.984375 16.890625 36.375 
Q 16.890625 19.828125 20.59375 11.625 
Q 24.3125 3.421875 31.78125 3.421875 
z
M 31.78125 -1.421875 
Q 19.921875 -1.421875 13.25 8.53125 
Q 6.59375 18.5 6.59375 36.375 
Q 6.59375 54.296875 13.25 64.25 
Q 19.921875 74.21875 31.78125 74.21875 
Q 43.703125 74.21875 50.34375 64.25 
Q 56.984375 54.296875 56.984375 36.375 
Q 56.984375 18.5 50.34375 8.53125 
Q 43.703125 -1.421875 31.78125 -1.421875 
z
" id="DejaVuSerif-48"/>
       <path d="M 9.421875 5.078125 
Q 9.421875 7.8125 11.28125 9.71875 
Q 13.140625 11.625 15.921875 11.625 
Q 18.609375 11.625 20.5 9.71875 
Q 22.40625 7.8125 22.40625 5.078125 
Q 22.40625 2.390625 20.5 0.484375 
Q 18.609375 -1.421875 15.921875 -1.421875 
Q 13.140625 -1.421875 11.28125 0.453125 
Q 9.421875 2.34375 9.421875 5.078125 
z
" id="DejaVuSerif-46"/>
      </defs>
      <g transform="translate(56.384872 287.910437)scale(0.1 -0.1)">
       <use xlink:href="#DejaVuSerif-48"/>
       <use x="63.623047" xlink:href="#DejaVuSerif-46"/>
       <use x="95.410156" xlink:href="#DejaVuSerif-48"/>
      </g>
     </g>
    </g>
    <g id="xtick_2">
     <g id="line2d_2">
      <g>
       <use style="stroke:#000000;stroke-width:0.8;" x="142.450335" xlink:href="#m25660bc13d" y="273.312"/>
      </g>
     </g>
     <g id="text_2">
      <!-- 0.1 -->
      <defs>
       <path d="M 14.203125 0 
L 14.203125 5.171875 
L 26.90625 5.171875 
L 26.90625 65.828125 
L 12.203125 56.296875 
L 12.203125 62.703125 
L 29.984375 74.21875 
L 36.71875 74.21875 
L 36.71875 5.171875 
L 49.421875 5.171875 
L 49.421875 0 
z
" id="DejaVuSerif-49"/>
      </defs>
      <g transform="translate(134.498772 287.910437)scale(0.1 -0.1)">
       <use xlink:href="#DejaVuSerif-48"/>
       <use x="63.623047" xlink:href="#DejaVuSerif-46"/>
       <use x="95.410156" xlink:href="#DejaVuSerif-49"/>
      </g>
     </g>
    </g>
    <g id="xtick_3">
     <g id="line2d_3">
      <g>
       <use style="stroke:#000000;stroke-width:0.8;" x="220.564235" xlink:href="#m25660bc13d" y="273.312"/>
      </g>
     </g>
     <g id="text_3">
      <!-- 0.2 -->
      <defs>
       <path d="M 12.796875 55.515625 
L 7.328125 55.515625 
L 7.328125 68.5 
Q 12.546875 71.296875 17.84375 72.75 
Q 23.140625 74.21875 28.21875 74.21875 
Q 39.59375 74.21875 46.1875 68.703125 
Q 52.78125 63.1875 52.78125 53.71875 
Q 52.78125 43.015625 37.84375 28.125 
Q 36.671875 27 36.078125 26.421875 
L 17.671875 8.015625 
L 48.09375 8.015625 
L 48.09375 17 
L 53.8125 17 
L 53.8125 0 
L 6.78125 0 
L 6.78125 5.328125 
L 28.90625 27.390625 
Q 36.234375 34.71875 39.359375 40.84375 
Q 42.484375 46.96875 42.484375 53.71875 
Q 42.484375 61.078125 38.640625 65.234375 
Q 34.8125 69.390625 28.078125 69.390625 
Q 21.09375 69.390625 17.28125 65.921875 
Q 13.484375 62.453125 12.796875 55.515625 
z
" id="DejaVuSerif-50"/>
      </defs>
      <g transform="translate(212.612672 287.910437)scale(0.1 -0.1)">
       <use xlink:href="#DejaVuSerif-48"/>
       <use x="63.623047" xlink:href="#DejaVuSerif-46"/>
       <use x="95.410156" xlink:href="#DejaVuSerif-50"/>
      </g>
     </g>
    </g>
    <g id="xtick_4">
     <g id="line2d_4">
      <g>
       <use style="stroke:#000000;stroke-width:0.8;" x="298.678135" xlink:href="#m25660bc13d" y="273.312"/>
      </g>
     </g>
     <g id="text_4">
      <!-- 0.3 -->
      <defs>
       <path d="M 9.71875 69.828125 
Q 15.4375 71.96875 20.671875 73.09375 
Q 25.921875 74.21875 30.515625 74.21875 
Q 41.21875 74.21875 47.21875 69.59375 
Q 53.21875 64.984375 53.21875 56.78125 
Q 53.21875 50.203125 49.0625 45.78125 
Q 44.921875 41.359375 37.3125 39.796875 
Q 46.296875 38.53125 51.25 33.28125 
Q 56.203125 28.03125 56.203125 19.671875 
Q 56.203125 9.46875 49.34375 4.015625 
Q 42.484375 -1.421875 29.59375 -1.421875 
Q 23.875 -1.421875 18.421875 -0.1875 
Q 12.984375 1.03125 7.625 3.515625 
L 7.625 17.671875 
L 13.09375 17.671875 
Q 13.578125 10.640625 17.828125 7.03125 
Q 22.078125 3.421875 29.78125 3.421875 
Q 37.25 3.421875 41.578125 7.734375 
Q 45.90625 12.0625 45.90625 19.578125 
Q 45.90625 28.171875 41.453125 32.59375 
Q 37.015625 37.015625 28.421875 37.015625 
L 23.78125 37.015625 
L 23.78125 42 
L 26.21875 42 
Q 34.765625 42 39.03125 45.53125 
Q 43.3125 49.078125 43.3125 56.203125 
Q 43.3125 62.59375 39.796875 65.984375 
Q 36.28125 69.390625 29.6875 69.390625 
Q 23.09375 69.390625 19.453125 66.265625 
Q 15.828125 63.140625 15.1875 56.984375 
L 9.71875 56.984375 
z
" id="DejaVuSerif-51"/>
      </defs>
      <g transform="translate(290.726573 287.910437)scale(0.1 -0.1)">
       <use xlink:href="#DejaVuSerif-48"/>
       <use x="63.623047" xlink:href="#DejaVuSerif-46"/>
       <use x="95.410156" xlink:href="#DejaVuSerif-51"/>
      </g>
     </g>
    </g>
    <g id="xtick_5">
     <g id="line2d_5">
      <g>
       <use style="stroke:#000000;stroke-width:0.8;" x="376.792035" xlink:href="#m25660bc13d" y="273.312"/>
      </g>
     </g>
     <g id="text_5">
      <!-- 0.4 -->
      <defs>
       <path d="M 34.90625 24.703125 
L 34.90625 63.484375 
L 10.015625 24.703125 
z
M 56.390625 0 
L 23.1875 0 
L 23.1875 5.171875 
L 34.90625 5.171875 
L 34.90625 19.484375 
L 3.078125 19.484375 
L 3.078125 24.8125 
L 35.015625 74.21875 
L 44.671875 74.21875 
L 44.671875 24.703125 
L 58.59375 24.703125 
L 58.59375 19.484375 
L 44.671875 19.484375 
L 44.671875 5.171875 
L 56.390625 5.171875 
z
" id="DejaVuSerif-52"/>
      </defs>
      <g transform="translate(368.840473 287.910437)scale(0.1 -0.1)">
       <use xlink:href="#DejaVuSerif-48"/>
       <use x="63.623047" xlink:href="#DejaVuSerif-46"/>
       <use x="95.410156" xlink:href="#DejaVuSerif-52"/>
      </g>
     </g>
    </g>
    <g id="text_6">
     <!-- Tunneling $J/U$ -->
     <defs>
      <path d="M 19.09375 0 
L 19.09375 5.171875 
L 28.421875 5.171875 
L 28.421875 67.09375 
L 6.984375 67.09375 
L 6.984375 55.71875 
L 0.984375 55.71875 
L 0.984375 72.90625 
L 65.71875 72.90625 
L 65.71875 55.71875 
L 59.71875 55.71875 
L 59.71875 67.09375 
L 38.28125 67.09375 
L 38.28125 5.171875 
L 47.609375 5.171875 
L 47.609375 0 
z
" id="DejaVuSerif-84"/>
      <path d="M 35.40625 51.90625 
L 52.203125 51.90625 
L 52.203125 5.171875 
L 60.6875 5.171875 
L 60.6875 0 
L 43.21875 0 
L 43.21875 9.1875 
Q 40.71875 4 36.765625 1.28125 
Q 32.8125 -1.421875 27.59375 -1.421875 
Q 18.953125 -1.421875 14.875 3.484375 
Q 10.796875 8.40625 10.796875 18.890625 
L 10.796875 46.6875 
L 2.6875 46.6875 
L 2.6875 51.90625 
L 19.828125 51.90625 
L 19.828125 21.6875 
Q 19.828125 12.203125 22.140625 8.6875 
Q 24.46875 5.171875 30.421875 5.171875 
Q 36.671875 5.171875 39.9375 9.765625 
Q 43.21875 14.359375 43.21875 23.09375 
L 43.21875 46.6875 
L 35.40625 46.6875 
z
" id="DejaVuSerif-117"/>
      <path d="M 4.109375 0 
L 4.109375 5.171875 
L 12.203125 5.171875 
L 12.203125 46.6875 
L 3.609375 46.6875 
L 3.609375 51.90625 
L 21.1875 51.90625 
L 21.1875 42.671875 
Q 23.6875 47.953125 27.65625 50.640625 
Q 31.640625 53.328125 36.921875 53.328125 
Q 45.515625 53.328125 49.5625 48.390625 
Q 53.609375 43.453125 53.609375 33.015625 
L 53.609375 5.171875 
L 61.625 5.171875 
L 61.625 0 
L 36.8125 0 
L 36.8125 5.171875 
L 44.578125 5.171875 
L 44.578125 30.171875 
Q 44.578125 39.703125 42.234375 43.234375 
Q 39.890625 46.78125 33.984375 46.78125 
Q 27.734375 46.78125 24.453125 42.203125 
Q 21.1875 37.640625 21.1875 28.90625 
L 21.1875 5.171875 
L 29 5.171875 
L 29 0 
z
" id="DejaVuSerif-110"/>
      <path d="M 54.203125 25 
L 15.484375 25 
L 15.484375 24.609375 
Q 15.484375 14.109375 19.4375 8.765625 
Q 23.390625 3.421875 31.109375 3.421875 
Q 37.015625 3.421875 40.796875 6.515625 
Q 44.578125 9.625 46.09375 15.71875 
L 53.328125 15.71875 
Q 51.171875 7.171875 45.375 2.875 
Q 39.59375 -1.421875 30.171875 -1.421875 
Q 18.796875 -1.421875 11.890625 6.078125 
Q 4.984375 13.578125 4.984375 25.984375 
Q 4.984375 38.28125 11.765625 45.796875 
Q 18.5625 53.328125 29.59375 53.328125 
Q 41.359375 53.328125 47.65625 46.0625 
Q 53.953125 38.8125 54.203125 25 
z
M 43.609375 30.171875 
Q 43.3125 39.265625 39.765625 43.875 
Q 36.234375 48.484375 29.59375 48.484375 
Q 23.390625 48.484375 19.828125 43.84375 
Q 16.265625 39.203125 15.484375 30.171875 
z
" id="DejaVuSerif-101"/>
      <path d="M 20.515625 5.171875 
L 29 5.171875 
L 29 0 
L 2.875 0 
L 2.875 5.171875 
L 11.53125 5.171875 
L 11.53125 70.796875 
L 2.875 70.796875 
L 2.875 75.984375 
L 20.515625 75.984375 
z
" id="DejaVuSerif-108"/>
      <path d="M 9.71875 68.015625 
Q 9.71875 70.265625 11.34375 71.921875 
Q 12.984375 73.578125 15.28125 73.578125 
Q 17.53125 73.578125 19.15625 71.921875 
Q 20.796875 70.265625 20.796875 68.015625 
Q 20.796875 65.71875 19.1875 64.109375 
Q 17.578125 62.5 15.28125 62.5 
Q 12.984375 62.5 11.34375 64.109375 
Q 9.71875 65.71875 9.71875 68.015625 
z
M 21.1875 5.171875 
L 29.6875 5.171875 
L 29.6875 0 
L 3.609375 0 
L 3.609375 5.171875 
L 12.203125 5.171875 
L 12.203125 46.6875 
L 3.609375 46.6875 
L 3.609375 51.90625 
L 21.1875 51.90625 
z
" id="DejaVuSerif-105"/>
      <path d="M 52.484375 46.6875 
L 52.484375 1.125 
Q 52.484375 -10.0625 46.328125 -16.140625 
Q 40.1875 -22.21875 28.8125 -22.21875 
Q 23.6875 -22.21875 19 -21.28125 
Q 14.3125 -20.359375 10.015625 -18.5 
L 10.015625 -7.625 
L 14.703125 -7.625 
Q 15.578125 -12.703125 18.84375 -15.046875 
Q 22.125 -17.390625 28.21875 -17.390625 
Q 36.140625 -17.390625 39.8125 -12.921875 
Q 43.5 -8.453125 43.5 1.125 
L 43.5 8.109375 
Q 40.875 3.21875 36.796875 0.890625 
Q 32.71875 -1.421875 26.703125 -1.421875 
Q 17.140625 -1.421875 11.0625 6.171875 
Q 4.984375 13.765625 4.984375 25.984375 
Q 4.984375 38.1875 11.03125 45.75 
Q 17.09375 53.328125 26.703125 53.328125 
Q 32.71875 53.328125 36.796875 51 
Q 40.875 48.6875 43.5 43.796875 
L 43.5 51.90625 
L 61.078125 51.90625 
L 61.078125 46.6875 
z
M 43.5 28.515625 
Q 43.5 37.84375 39.90625 42.765625 
Q 36.328125 47.703125 29.5 47.703125 
Q 22.5625 47.703125 19.015625 42.234375 
Q 15.484375 36.765625 15.484375 25.984375 
Q 15.484375 15.234375 19.015625 9.71875 
Q 22.5625 4.203125 29.5 4.203125 
Q 36.328125 4.203125 39.90625 9.109375 
Q 43.5 14.015625 43.5 23.390625 
z
" id="DejaVuSerif-103"/>
      <path id="DejaVuSerif-32"/>
      <path d="M 10.890625 6 
Q 11.859375 3.21875 14.5 1.796875 
Q 17.140625 0.390625 20.21875 0.390625 
Q 23.34375 0.390625 26.25 2.5625 
Q 29.15625 4.734375 31.171875 8 
Q 33.203125 11.28125 33.984375 14.5 
L 45.796875 61.8125 
Q 45.90625 62.203125 45.921875 62.390625 
Q 45.953125 62.59375 46 62.796875 
Q 46 63.875 45.21875 64.109375 
Q 42.578125 64.796875 34.515625 64.796875 
Q 33.5 64.796875 33.5 66.109375 
Q 33.6875 66.890625 33.8125 67.328125 
Q 33.9375 67.78125 34.25 68.046875 
Q 34.578125 68.3125 35.203125 68.3125 
L 62.3125 68.3125 
Q 63.28125 68.3125 63.28125 67 
Q 62.890625 64.796875 62.015625 64.796875 
Q 58.5 64.796875 56.6875 64.25 
Q 54.890625 63.71875 54.203125 61.375 
L 42.390625 14.109375 
Q 41.265625 9.46875 37.8125 5.734375 
Q 34.375 2 29.640625 -0.09375 
Q 24.90625 -2.203125 20.125 -2.203125 
Q 14.84375 -2.203125 10.859375 0.71875 
Q 6.890625 3.65625 6.890625 8.6875 
Q 6.890625 12.015625 8.6875 14.40625 
Q 10.5 16.796875 13.8125 16.796875 
Q 15.71875 16.796875 17.015625 15.625 
Q 18.3125 14.453125 18.3125 12.59375 
Q 18.3125 9.90625 16.3125 7.90625 
Q 14.3125 5.90625 11.625 5.90625 
Q 11.078125 5.90625 10.890625 6 
z
" id="Cmmi10-74"/>
      <path d="M 5.609375 -23 
Q 5.609375 -22.703125 5.71875 -22.609375 
L 40.484375 73.78125 
Q 40.671875 74.359375 41.15625 74.671875 
Q 41.65625 75 42.28125 75 
Q 43.171875 75 43.71875 74.453125 
Q 44.28125 73.921875 44.28125 73 
L 44.28125 72.609375 
L 9.515625 -23.78125 
Q 8.9375 -25 7.625 -25 
Q 6.78125 -25 6.1875 -24.40625 
Q 5.609375 -23.828125 5.609375 -23 
z
" id="Cmmi10-61"/>
      <path d="M 14.703125 13.921875 
Q 14.703125 10.25 16.140625 7.375 
Q 17.578125 4.5 20.3125 2.90625 
Q 23.046875 1.3125 26.703125 1.3125 
Q 31 1.3125 35.078125 3.0625 
Q 39.15625 4.828125 42.421875 7.953125 
Q 45.703125 11.078125 48.015625 15.078125 
Q 50.34375 19.09375 51.3125 23 
L 60.296875 59.078125 
Q 60.5 60.15625 60.5 60.59375 
Q 60.5 64.796875 52.78125 64.796875 
Q 51.8125 64.796875 51.8125 66.109375 
Q 52.15625 67.390625 52.34375 67.84375 
Q 52.546875 68.3125 53.515625 68.3125 
L 75.203125 68.3125 
Q 75.640625 68.3125 75.921875 67.875 
Q 76.21875 67.4375 76.21875 67 
Q 76.21875 66.9375 76.015625 66.234375 
Q 75.828125 65.53125 75.5625 65.15625 
Q 75.296875 64.796875 74.90625 64.796875 
Q 65.328125 64.796875 63.8125 58.6875 
L 54.78125 22.609375 
Q 53.65625 17.921875 51 13.5 
Q 48.34375 9.078125 44.453125 5.484375 
Q 40.578125 1.90625 35.90625 -0.140625 
Q 31.25 -2.203125 26.421875 -2.203125 
Q 20.90625 -2.203125 16.328125 0.21875 
Q 11.765625 2.640625 9.171875 6.984375 
Q 6.59375 11.328125 6.59375 17 
Q 6.59375 20.265625 7.328125 23 
L 17 61.8125 
Q 17.1875 62.796875 17.1875 63.1875 
Q 17.1875 64.265625 16.015625 64.40625 
Q 14.109375 64.796875 8.796875 64.796875 
Q 7.8125 64.796875 7.8125 66.109375 
Q 8.15625 67.390625 8.34375 67.84375 
Q 8.546875 68.3125 9.515625 68.3125 
L 36.375 68.3125 
Q 37.40625 68.3125 37.40625 67 
Q 37.359375 66.75 37.203125 66.15625 
Q 37.0625 65.578125 36.8125 65.1875 
Q 36.578125 64.796875 36.078125 64.796875 
Q 29.984375 64.796875 27.59375 64.109375 
Q 26.265625 63.625 25.6875 61.375 
L 16.015625 22.609375 
Q 14.703125 17.328125 14.703125 13.921875 
z
" id="Cmmi10-85"/>
     </defs>
     <g transform="translate(171.015625 306.150125)scale(0.16 -0.16)">
      <use transform="translate(0 0.015625)" xlink:href="#DejaVuSerif-84"/>
      <use transform="translate(66.699219 0.015625)" xlink:href="#DejaVuSerif-117"/>
      <use transform="translate(131.103516 0.015625)" xlink:href="#DejaVuSerif-110"/>
      <use transform="translate(195.507812 0.015625)" xlink:href="#DejaVuSerif-110"/>
      <use transform="translate(259.912109 0.015625)" xlink:href="#DejaVuSerif-101"/>
      <use transform="translate(319.091797 0.015625)" xlink:href="#DejaVuSerif-108"/>
      <use transform="translate(351.074219 0.015625)" xlink:href="#DejaVuSerif-105"/>
      <use transform="translate(383.056641 0.015625)" xlink:href="#DejaVuSerif-110"/>
      <use transform="translate(447.460938 0.015625)" xlink:href="#DejaVuSerif-103"/>
      <use transform="translate(511.474609 0.015625)" xlink:href="#DejaVuSerif-32"/>
      <use transform="translate(543.261719 0.015625)" xlink:href="#Cmmi10-74"/>
      <use transform="translate(598.681641 0.015625)" xlink:href="#Cmmi10-61"/>
      <use transform="translate(648.681641 0.015625)" xlink:href="#Cmmi10-85"/>
     </g>
    </g>
   </g>
   <g id="matplotlib.axis_2">
    <g id="ytick_1">
     <g id="line2d_6">
      <defs>
       <path d="M 0 0 
L -3.5 0 
" id="m8b111fcf7b" style="stroke:#000000;stroke-width:0.8;"/>
      </defs>
      <g>
       <use style="stroke:#000000;stroke-width:0.8;" x="49.815625" xlink:href="#m8b111fcf7b" y="258.427452"/>
      </g>
     </g>
     <g id="text_7">
      <!-- 0.0 -->
      <g transform="translate(26.9125 262.226671)scale(0.1 -0.1)">
       <use xlink:href="#DejaVuSerif-48"/>
       <use x="63.623047" xlink:href="#DejaVuSerif-46"/>
       <use x="95.410156" xlink:href="#DejaVuSerif-48"/>
      </g>
     </g>
    </g>
    <g id="ytick_2">
     <g id="line2d_7">
      <g>
       <use style="stroke:#000000;stroke-width:0.8;" x="49.815625" xlink:href="#m8b111fcf7b" y="211.158871"/>
      </g>
     </g>
     <g id="text_8">
      <!-- 0.2 -->
      <g transform="translate(26.9125 214.95809)scale(0.1 -0.1)">
       <use xlink:href="#DejaVuSerif-48"/>
       <use x="63.623047" xlink:href="#DejaVuSerif-46"/>
       <use x="95.410156" xlink:href="#DejaVuSerif-50"/>
      </g>
     </g>
    </g>
    <g id="ytick_3">
     <g id="line2d_8">
      <g>
       <use style="stroke:#000000;stroke-width:0.8;" x="49.815625" xlink:href="#m8b111fcf7b" y="163.89029"/>
      </g>
     </g>
     <g id="text_9">
      <!-- 0.4 -->
      <g transform="translate(26.9125 167.689509)scale(0.1 -0.1)">
       <use xlink:href="#DejaVuSerif-48"/>
       <use x="63.623047" xlink:href="#DejaVuSerif-46"/>
       <use x="95.410156" xlink:href="#DejaVuSerif-52"/>
      </g>
     </g>
    </g>
    <g id="ytick_4">
     <g id="line2d_9">
      <g>
       <use style="stroke:#000000;stroke-width:0.8;" x="49.815625" xlink:href="#m8b111fcf7b" y="116.62171"/>
      </g>
     </g>
     <g id="text_10">
      <!-- 0.6 -->
      <defs>
       <path d="M 32.71875 3.421875 
Q 39.59375 3.421875 43.296875 8.46875 
Q 47.015625 13.53125 47.015625 23 
Q 47.015625 32.46875 43.296875 37.515625 
Q 39.59375 42.578125 32.71875 42.578125 
Q 25.734375 42.578125 22.0625 37.6875 
Q 18.40625 32.8125 18.40625 23.578125 
Q 18.40625 13.875 22.109375 8.640625 
Q 25.828125 3.421875 32.71875 3.421875 
z
M 16.796875 40.140625 
Q 20.125 43.796875 24.3125 45.59375 
Q 28.515625 47.40625 33.796875 47.40625 
Q 44.671875 47.40625 51 40.859375 
Q 57.328125 34.328125 57.328125 23 
Q 57.328125 11.921875 50.515625 5.25 
Q 43.703125 -1.421875 32.328125 -1.421875 
Q 19.96875 -1.421875 13.328125 7.78125 
Q 6.6875 17 6.6875 34.078125 
Q 6.6875 53.21875 14.546875 63.71875 
Q 22.40625 74.21875 36.71875 74.21875 
Q 40.578125 74.21875 44.828125 73.484375 
Q 49.078125 72.75 53.515625 71.296875 
L 53.515625 59.28125 
L 48 59.28125 
Q 47.40625 64.203125 44.234375 66.796875 
Q 41.0625 69.390625 35.6875 69.390625 
Q 26.21875 69.390625 21.578125 62.203125 
Q 16.9375 55.03125 16.796875 40.140625 
z
" id="DejaVuSerif-54"/>
      </defs>
      <g transform="translate(26.9125 120.420928)scale(0.1 -0.1)">
       <use xlink:href="#DejaVuSerif-48"/>
       <use x="63.623047" xlink:href="#DejaVuSerif-46"/>
       <use x="95.410156" xlink:href="#DejaVuSerif-54"/>
      </g>
     </g>
    </g>
    <g id="ytick_5">
     <g id="line2d_10">
      <g>
       <use style="stroke:#000000;stroke-width:0.8;" x="49.815625" xlink:href="#m8b111fcf7b" y="69.353129"/>
      </g>
     </g>
     <g id="text_11">
      <!-- 0.8 -->
      <defs>
       <path d="M 46.578125 19.921875 
Q 46.578125 27.734375 42.6875 32.046875 
Q 38.8125 36.375 31.78125 36.375 
Q 24.75 36.375 20.875 32.046875 
Q 17 27.734375 17 19.921875 
Q 17 12.0625 20.875 7.734375 
Q 24.75 3.421875 31.78125 3.421875 
Q 38.8125 3.421875 42.6875 7.734375 
Q 46.578125 12.0625 46.578125 19.921875 
z
M 44.578125 55.328125 
Q 44.578125 61.96875 41.203125 65.671875 
Q 37.84375 69.390625 31.78125 69.390625 
Q 25.78125 69.390625 22.390625 65.671875 
Q 19 61.96875 19 55.328125 
Q 19 48.640625 22.390625 44.921875 
Q 25.78125 41.21875 31.78125 41.21875 
Q 37.84375 41.21875 41.203125 44.921875 
Q 44.578125 48.640625 44.578125 55.328125 
z
M 39.3125 38.8125 
Q 47.609375 37.703125 52.25 32.6875 
Q 56.890625 27.6875 56.890625 19.921875 
Q 56.890625 9.671875 50.390625 4.125 
Q 43.890625 -1.421875 31.78125 -1.421875 
Q 19.734375 -1.421875 13.203125 4.125 
Q 6.6875 9.671875 6.6875 19.921875 
Q 6.6875 27.6875 11.328125 32.6875 
Q 15.96875 37.703125 24.3125 38.8125 
Q 16.9375 40.140625 13 44.40625 
Q 9.078125 48.6875 9.078125 55.328125 
Q 9.078125 64.109375 15.125 69.15625 
Q 21.1875 74.21875 31.78125 74.21875 
Q 42.390625 74.21875 48.4375 69.15625 
Q 54.5 64.109375 54.5 55.328125 
Q 54.5 48.6875 50.5625 44.40625 
Q 46.625 40.140625 39.3125 38.8125 
z
" id="DejaVuSerif-56"/>
      </defs>
      <g transform="translate(26.9125 73.152348)scale(0.1 -0.1)">
       <use xlink:href="#DejaVuSerif-48"/>
       <use x="63.623047" xlink:href="#DejaVuSerif-46"/>
       <use x="95.410156" xlink:href="#DejaVuSerif-56"/>
      </g>
     </g>
    </g>
    <g id="ytick_6">
     <g id="line2d_11">
      <g>
       <use style="stroke:#000000;stroke-width:0.8;" x="49.815625" xlink:href="#m8b111fcf7b" y="22.084548"/>
      </g>
     </g>
     <g id="text_12">
      <!-- 1.0 -->
      <g transform="translate(26.9125 25.883767)scale(0.1 -0.1)">
       <use xlink:href="#DejaVuSerif-49"/>
       <use x="63.623047" xlink:href="#DejaVuSerif-46"/>
       <use x="95.410156" xlink:href="#DejaVuSerif-48"/>
      </g>
     </g>
    </g>
    <g id="text_13">
     <!-- Persistent Measures (entropy) -->
     <defs>
      <path d="M 24.703125 37.109375 
L 37.59375 37.109375 
Q 44.875 37.109375 48.671875 41.03125 
Q 52.484375 44.96875 52.484375 52.390625 
Q 52.484375 59.859375 48.671875 63.765625 
Q 44.875 67.671875 37.59375 67.671875 
L 24.703125 67.671875 
z
M 5.515625 0 
L 5.515625 5.171875 
L 14.796875 5.171875 
L 14.796875 67.671875 
L 5.515625 67.671875 
L 5.515625 72.90625 
L 39.984375 72.90625 
Q 50.921875 72.90625 57.3125 67.359375 
Q 63.71875 61.8125 63.71875 52.390625 
Q 63.71875 43.015625 57.3125 37.453125 
Q 50.921875 31.890625 39.984375 31.890625 
L 24.703125 31.890625 
L 24.703125 5.171875 
L 35.984375 5.171875 
L 35.984375 0 
z
" id="DejaVuSerif-80"/>
      <path d="M 47.796875 52 
L 47.796875 39.015625 
L 42.625 39.015625 
Q 42.390625 42.875 40.484375 44.78125 
Q 38.578125 46.6875 34.90625 46.6875 
Q 28.265625 46.6875 24.71875 42.09375 
Q 21.1875 37.5 21.1875 28.90625 
L 21.1875 5.171875 
L 31.59375 5.171875 
L 31.59375 0 
L 4.109375 0 
L 4.109375 5.171875 
L 12.203125 5.171875 
L 12.203125 46.78125 
L 3.609375 46.78125 
L 3.609375 51.90625 
L 21.1875 51.90625 
L 21.1875 42.671875 
Q 23.828125 48.09375 27.96875 50.703125 
Q 32.125 53.328125 38.09375 53.328125 
Q 40.28125 53.328125 42.703125 52.984375 
Q 45.125 52.640625 47.796875 52 
z
" id="DejaVuSerif-114"/>
      <path d="M 5.609375 2.875 
L 5.609375 14.984375 
L 10.796875 14.984375 
Q 10.984375 9.1875 14.421875 6.296875 
Q 17.875 3.421875 24.609375 3.421875 
Q 30.671875 3.421875 33.84375 5.6875 
Q 37.015625 7.953125 37.015625 12.3125 
Q 37.015625 15.71875 34.6875 17.8125 
Q 32.375 19.921875 24.90625 22.3125 
L 18.40625 24.515625 
Q 11.71875 26.65625 8.71875 29.875 
Q 5.71875 33.109375 5.71875 38.09375 
Q 5.71875 45.21875 10.9375 49.265625 
Q 16.15625 53.328125 25.390625 53.328125 
Q 29.5 53.328125 34.03125 52.25 
Q 38.578125 51.171875 43.40625 49.125 
L 43.40625 37.796875 
L 38.234375 37.796875 
Q 38.03125 42.828125 34.703125 45.65625 
Q 31.390625 48.484375 25.6875 48.484375 
Q 20.015625 48.484375 17.109375 46.484375 
Q 14.203125 44.484375 14.203125 40.484375 
Q 14.203125 37.203125 16.40625 35.21875 
Q 18.609375 33.25 25.203125 31.203125 
L 32.328125 29 
Q 39.703125 26.703125 42.9375 23.265625 
Q 46.1875 19.828125 46.1875 14.40625 
Q 46.1875 7.03125 40.546875 2.796875 
Q 34.90625 -1.421875 25 -1.421875 
Q 19.96875 -1.421875 15.1875 -0.34375 
Q 10.40625 0.734375 5.609375 2.875 
z
" id="DejaVuSerif-115"/>
      <path d="M 10.796875 46.6875 
L 2.875 46.6875 
L 2.875 51.90625 
L 10.796875 51.90625 
L 10.796875 68.015625 
L 19.828125 68.015625 
L 19.828125 51.90625 
L 36.71875 51.90625 
L 36.71875 46.6875 
L 19.828125 46.6875 
L 19.828125 13.71875 
Q 19.828125 7.125 21.09375 5.265625 
Q 22.359375 3.421875 25.78125 3.421875 
Q 29.296875 3.421875 30.90625 5.484375 
Q 32.515625 7.5625 32.625 12.203125 
L 39.40625 12.203125 
Q 39.015625 5.125 35.546875 1.84375 
Q 32.078125 -1.421875 25 -1.421875 
Q 17.234375 -1.421875 14.015625 2.015625 
Q 10.796875 5.46875 10.796875 13.71875 
z
" id="DejaVuSerif-116"/>
      <path d="M 5.515625 0 
L 5.515625 5.171875 
L 14.796875 5.171875 
L 14.796875 67.671875 
L 4.984375 67.671875 
L 4.984375 72.90625 
L 26.21875 72.90625 
L 51.8125 21 
L 77.390625 72.90625 
L 97.3125 72.90625 
L 97.3125 67.671875 
L 87.59375 67.671875 
L 87.59375 5.171875 
L 96.921875 5.171875 
L 96.921875 0 
L 68.40625 0 
L 68.40625 5.171875 
L 77.6875 5.171875 
L 77.6875 61.53125 
L 52.6875 10.6875 
L 45.796875 10.6875 
L 20.796875 61.53125 
L 20.796875 5.171875 
L 30.078125 5.171875 
L 30.078125 0 
z
" id="DejaVuSerif-77"/>
      <path d="M 39.796875 16.3125 
L 39.796875 27.296875 
L 28.21875 27.296875 
Q 21.53125 27.296875 18.25 24.40625 
Q 14.984375 21.53125 14.984375 15.578125 
Q 14.984375 10.15625 18.296875 6.984375 
Q 21.625 3.8125 27.296875 3.8125 
Q 32.90625 3.8125 36.34375 7.28125 
Q 39.796875 10.75 39.796875 16.3125 
z
M 48.78125 32.421875 
L 48.78125 5.171875 
L 56.78125 5.171875 
L 56.78125 0 
L 39.796875 0 
L 39.796875 5.609375 
Q 36.8125 2 32.90625 0.28125 
Q 29 -1.421875 23.78125 -1.421875 
Q 15.140625 -1.421875 10.0625 3.171875 
Q 4.984375 7.765625 4.984375 15.578125 
Q 4.984375 23.640625 10.796875 28.078125 
Q 16.609375 32.515625 27.203125 32.515625 
L 39.796875 32.515625 
L 39.796875 36.078125 
Q 39.796875 42 36.203125 45.234375 
Q 32.625 48.484375 26.125 48.484375 
Q 20.75 48.484375 17.578125 46.046875 
Q 14.40625 43.609375 13.625 38.8125 
L 8.984375 38.8125 
L 8.984375 49.3125 
Q 13.671875 51.3125 18.09375 52.3125 
Q 22.515625 53.328125 26.703125 53.328125 
Q 37.5 53.328125 43.140625 47.96875 
Q 48.78125 42.625 48.78125 32.421875 
z
" id="DejaVuSerif-97"/>
      <path d="M 31.890625 -15.578125 
Q 20.015625 -10.25 13.953125 1.296875 
Q 7.90625 12.84375 7.90625 30.171875 
Q 7.90625 47.5625 13.953125 59.109375 
Q 20.015625 70.65625 31.890625 75.984375 
L 31.890625 71.1875 
Q 24.359375 66.015625 21.09375 56.609375 
Q 17.828125 47.21875 17.828125 30.171875 
Q 17.828125 13.1875 21.09375 3.78125 
Q 24.359375 -5.609375 31.890625 -10.796875 
z
" id="DejaVuSerif-40"/>
      <path d="M 30.078125 3.421875 
Q 37.3125 3.421875 40.984375 9.125 
Q 44.671875 14.84375 44.671875 25.984375 
Q 44.671875 37.109375 40.984375 42.796875 
Q 37.3125 48.484375 30.078125 48.484375 
Q 22.859375 48.484375 19.171875 42.796875 
Q 15.484375 37.109375 15.484375 25.984375 
Q 15.484375 14.84375 19.1875 9.125 
Q 22.90625 3.421875 30.078125 3.421875 
z
M 30.078125 -1.421875 
Q 18.75 -1.421875 11.859375 6.078125 
Q 4.984375 13.578125 4.984375 25.984375 
Q 4.984375 38.375 11.84375 45.84375 
Q 18.703125 53.328125 30.078125 53.328125 
Q 41.453125 53.328125 48.3125 45.84375 
Q 55.171875 38.375 55.171875 25.984375 
Q 55.171875 13.578125 48.3125 6.078125 
Q 41.453125 -1.421875 30.078125 -1.421875 
z
" id="DejaVuSerif-111"/>
      <path d="M 20.515625 28.515625 
L 20.515625 23.390625 
Q 20.515625 14.015625 24.09375 9.109375 
Q 27.6875 4.203125 34.515625 4.203125 
Q 41.40625 4.203125 44.9375 9.71875 
Q 48.484375 15.234375 48.484375 25.984375 
Q 48.484375 36.765625 44.9375 42.234375 
Q 41.40625 47.703125 34.515625 47.703125 
Q 27.6875 47.703125 24.09375 42.765625 
Q 20.515625 37.84375 20.515625 28.515625 
z
M 11.53125 46.6875 
L 2.875 46.6875 
L 2.875 51.90625 
L 20.515625 51.90625 
L 20.515625 43.796875 
Q 23.140625 48.6875 27.21875 51 
Q 31.296875 53.328125 37.3125 53.328125 
Q 46.875 53.328125 52.921875 45.75 
Q 58.984375 38.1875 58.984375 25.984375 
Q 58.984375 13.765625 52.921875 6.171875 
Q 46.875 -1.421875 37.3125 -1.421875 
Q 31.296875 -1.421875 27.21875 0.890625 
Q 23.140625 3.21875 20.515625 8.109375 
L 20.515625 -15.578125 
L 29 -15.578125 
L 29 -20.796875 
L 2.875 -20.796875 
L 2.875 -15.578125 
L 11.53125 -15.578125 
z
" id="DejaVuSerif-112"/>
      <path d="M 21.578125 -9.515625 
L 25 -0.875 
L 5.609375 46.6875 
L -0.296875 46.6875 
L -0.296875 51.90625 
L 23.578125 51.90625 
L 23.578125 46.6875 
L 15.28125 46.6875 
L 29.890625 10.984375 
L 44.484375 46.6875 
L 36.71875 46.6875 
L 36.71875 51.90625 
L 56.203125 51.90625 
L 56.203125 46.6875 
L 50.390625 46.6875 
L 26.609375 -11.71875 
Q 24.171875 -17.78125 21.1875 -20 
Q 18.21875 -22.21875 12.796875 -22.21875 
Q 10.5 -22.21875 8.078125 -21.828125 
Q 5.671875 -21.4375 3.21875 -20.703125 
L 3.21875 -10.796875 
L 7.8125 -10.796875 
Q 8.109375 -14.109375 9.5 -15.546875 
Q 10.890625 -17 13.8125 -17 
Q 16.5 -17 18.140625 -15.5 
Q 19.78125 -14.015625 21.578125 -9.515625 
z
" id="DejaVuSerif-121"/>
      <path d="M 7.078125 -15.578125 
L 7.078125 -10.796875 
Q 14.59375 -5.609375 17.890625 3.78125 
Q 21.1875 13.1875 21.1875 30.171875 
Q 21.1875 47.21875 17.890625 56.609375 
Q 14.59375 66.015625 7.078125 71.1875 
L 7.078125 75.984375 
Q 19 70.65625 25.046875 59.109375 
Q 31.109375 47.5625 31.109375 30.171875 
Q 31.109375 12.84375 25.046875 1.296875 
Q 19 -10.25 7.078125 -15.578125 
z
" id="DejaVuSerif-41"/>
     </defs>
     <g transform="translate(19.3575 263.60725)rotate(-90)scale(0.16 -0.16)">
      <use xlink:href="#DejaVuSerif-80"/>
      <use x="67.222656" xlink:href="#DejaVuSerif-101"/>
      <use x="126.402344" xlink:href="#DejaVuSerif-114"/>
      <use x="174.205078" xlink:href="#DejaVuSerif-115"/>
      <use x="225.523438" xlink:href="#DejaVuSerif-105"/>
      <use x="257.505859" xlink:href="#DejaVuSerif-115"/>
      <use x="308.824219" xlink:href="#DejaVuSerif-116"/>
      <use x="349.009766" xlink:href="#DejaVuSerif-101"/>
      <use x="408.189453" xlink:href="#DejaVuSerif-110"/>
      <use x="472.59375" xlink:href="#DejaVuSerif-116"/>
      <use x="512.779297" xlink:href="#DejaVuSerif-32"/>
      <use x="544.566406" xlink:href="#DejaVuSerif-77"/>
      <use x="646.958984" xlink:href="#DejaVuSerif-101"/>
      <use x="706.138672" xlink:href="#DejaVuSerif-97"/>
      <use x="765.757812" xlink:href="#DejaVuSerif-115"/>
      <use x="817.076172" xlink:href="#DejaVuSerif-117"/>
      <use x="881.480469" xlink:href="#DejaVuSerif-114"/>
      <use x="929.283203" xlink:href="#DejaVuSerif-101"/>
      <use x="988.462891" xlink:href="#DejaVuSerif-115"/>
      <use x="1039.78125" xlink:href="#DejaVuSerif-32"/>
      <use x="1071.568359" xlink:href="#DejaVuSerif-40"/>
      <use x="1110.582031" xlink:href="#DejaVuSerif-101"/>
      <use x="1169.761719" xlink:href="#DejaVuSerif-110"/>
      <use x="1234.166016" xlink:href="#DejaVuSerif-116"/>
      <use x="1274.351562" xlink:href="#DejaVuSerif-114"/>
      <use x="1322.154297" xlink:href="#DejaVuSerif-111"/>
      <use x="1382.359375" xlink:href="#DejaVuSerif-112"/>
      <use x="1446.373047" xlink:href="#DejaVuSerif-121"/>
      <use x="1502.867188" xlink:href="#DejaVuSerif-41"/>
     </g>
    </g>
   </g>
   <g id="patch_3">
    <path d="M 49.815625 273.312 
L 49.815625 7.2 
" style="fill:none;stroke:#000000;stroke-linecap:square;stroke-linejoin:miter;stroke-width:0.8;"/>
   </g>
   <g id="patch_4">
    <path d="M 406.935625 273.312 
L 406.935625 7.2 
" style="fill:none;stroke:#000000;stroke-linecap:square;stroke-linejoin:miter;stroke-width:0.8;"/>
   </g>
   <g id="patch_5">
    <path d="M 49.815625 273.312 
L 406.935625 273.312 
" style="fill:none;stroke:#000000;stroke-linecap:square;stroke-linejoin:miter;stroke-width:0.8;"/>
   </g>
   <g id="patch_6">
    <path d="M 49.815625 7.2 
L 406.935625 7.2 
" style="fill:none;stroke:#000000;stroke-linecap:square;stroke-linejoin:miter;stroke-width:0.8;"/>
   </g>
   <g id="legend_1">
    <g id="patch_7">
     <path d="M 58.215625 140.09625 
L 123.91 140.09625 
Q 126.31 140.09625 126.31 137.69625 
L 126.31 15.6 
Q 126.31 13.2 123.91 13.2 
L 58.215625 13.2 
Q 55.815625 13.2 55.815625 15.6 
L 55.815625 137.69625 
Q 55.815625 140.09625 58.215625 140.09625 
z
" style="fill:#ffffff;opacity:0.8;stroke:#cccccc;stroke-linejoin:miter;"/>
    </g>
    <g id="PathCollection_8">
     <g>
      <use style="fill:#0072b2;fill-opacity:0.7;stroke:#000000;stroke-opacity:0.7;" x="72.615625" xlink:href="#m093f5b985f" y="23.968125"/>
     </g>
    </g>
    <g id="text_14">
     <!-- L-8 -->
     <defs>
      <path d="M 5.515625 0 
L 5.515625 5.171875 
L 14.796875 5.171875 
L 14.796875 67.671875 
L 5.515625 67.671875 
L 5.515625 72.90625 
L 33.984375 72.90625 
L 33.984375 67.671875 
L 24.703125 67.671875 
L 24.703125 6 
L 58.015625 6 
L 58.015625 18.21875 
L 64.015625 18.21875 
L 64.015625 0 
z
" id="DejaVuSerif-76"/>
      <path d="M 4.390625 30.609375 
L 29.390625 30.609375 
L 29.390625 23 
L 4.390625 23 
z
" id="DejaVuSerif-45"/>
     </defs>
     <g transform="translate(94.215625 27.118125)scale(0.12 -0.12)">
      <use xlink:href="#DejaVuSerif-76"/>
      <use x="66.40625" xlink:href="#DejaVuSerif-45"/>
      <use x="100.195312" xlink:href="#DejaVuSerif-56"/>
     </g>
    </g>
    <g id="PathCollection_9">
     <g>
      <use style="fill:#009e73;fill-opacity:0.7;stroke:#000000;stroke-opacity:0.7;" x="72.615625" xlink:href="#m4cefd1ed5e" y="41.581875"/>
     </g>
    </g>
    <g id="text_15">
     <!-- L-10 -->
     <g transform="translate(94.215625 44.731875)scale(0.12 -0.12)">
      <use xlink:href="#DejaVuSerif-76"/>
      <use x="66.40625" xlink:href="#DejaVuSerif-45"/>
      <use x="100.195312" xlink:href="#DejaVuSerif-49"/>
      <use x="163.818359" xlink:href="#DejaVuSerif-48"/>
     </g>
    </g>
    <g id="PathCollection_10">
     <g>
      <use style="fill:#d55e00;fill-opacity:0.7;stroke:#000000;stroke-opacity:0.7;" x="72.615625" xlink:href="#maebad0492f" y="59.195625"/>
     </g>
    </g>
    <g id="text_16">
     <!-- L-12 -->
     <g transform="translate(94.215625 62.345625)scale(0.12 -0.12)">
      <use xlink:href="#DejaVuSerif-76"/>
      <use x="66.40625" xlink:href="#DejaVuSerif-45"/>
      <use x="100.195312" xlink:href="#DejaVuSerif-49"/>
      <use x="163.818359" xlink:href="#DejaVuSerif-50"/>
     </g>
    </g>
    <g id="PathCollection_11">
     <g>
      <use style="fill:#cc79a7;fill-opacity:0.7;stroke:#000000;stroke-opacity:0.7;" x="72.615625" xlink:href="#meab71d8e44" y="76.809375"/>
     </g>
    </g>
    <g id="text_17">
     <!-- L-14 -->
     <g transform="translate(94.215625 79.959375)scale(0.12 -0.12)">
      <use xlink:href="#DejaVuSerif-76"/>
      <use x="66.40625" xlink:href="#DejaVuSerif-45"/>
      <use x="100.195312" xlink:href="#DejaVuSerif-49"/>
      <use x="163.818359" xlink:href="#DejaVuSerif-52"/>
     </g>
    </g>
    <g id="PathCollection_12">
     <g>
      <use style="fill:#f0e442;fill-opacity:0.7;stroke:#000000;stroke-opacity:0.7;" x="72.615625" xlink:href="#m4998fe7213" y="94.423125"/>
     </g>
    </g>
    <g id="text_18">
     <!-- L-16 -->
     <g transform="translate(94.215625 97.573125)scale(0.12 -0.12)">
      <use xlink:href="#DejaVuSerif-76"/>
      <use x="66.40625" xlink:href="#DejaVuSerif-45"/>
      <use x="100.195312" xlink:href="#DejaVuSerif-49"/>
      <use x="163.818359" xlink:href="#DejaVuSerif-54"/>
     </g>
    </g>
    <g id="PathCollection_13">
     <g>
      <use style="fill:#56b4e9;fill-opacity:0.7;stroke:#000000;stroke-opacity:0.7;" x="72.615625" xlink:href="#m57ce2dccef" y="112.036875"/>
     </g>
    </g>
    <g id="text_19">
     <!-- L-18 -->
     <g transform="translate(94.215625 115.186875)scale(0.12 -0.12)">
      <use xlink:href="#DejaVuSerif-76"/>
      <use x="66.40625" xlink:href="#DejaVuSerif-45"/>
      <use x="100.195312" xlink:href="#DejaVuSerif-49"/>
      <use x="163.818359" xlink:href="#DejaVuSerif-56"/>
     </g>
    </g>
    <g id="PathCollection_14">
     <g>
      <use style="fill:#0072b2;fill-opacity:0.7;stroke:#000000;stroke-opacity:0.7;" x="72.615625" xlink:href="#m093f5b985f" y="129.650625"/>
     </g>
    </g>
    <g id="text_20">
     <!-- L-20 -->
     <g transform="translate(94.215625 132.800625)scale(0.12 -0.12)">
      <use xlink:href="#DejaVuSerif-76"/>
      <use x="66.40625" xlink:href="#DejaVuSerif-45"/>
      <use x="100.195312" xlink:href="#DejaVuSerif-50"/>
      <use x="163.818359" xlink:href="#DejaVuSerif-48"/>
     </g>
    </g>
   </g>
  </g>
 </g>
 <defs>
  <clipPath id="p04e26d63f5">
   <rect height="266.112" width="357.12" x="49.815625" y="7.2"/>
  </clipPath>
 </defs>
</svg>
